<svg width="116" height="116" viewBox="0 0 116 116" fill="none" xmlns="http://www.w3.org/2000/svg">
<circle cx="58" cy="58" r="58" fill="#F5F5F5"/>
<path d="M90 57.5C91.3807 57.5 92.5 58.6193 92.5 60C92.5 61.3807 91.3807 62.5 90 62.5L90 57.5ZM34.2322 61.7678C33.2559 60.7915 33.2559 59.2085 34.2322 58.2322L50.1421 42.3223C51.1184 41.346 52.7014 41.346 53.6777 42.3223C54.654 43.2986 54.654 44.8816 53.6777 45.8579L39.5355 60L53.6777 74.1421C54.654 75.1184 54.654 76.7014 53.6777 77.6777C52.7014 78.654 51.1184 78.654 50.1421 77.6777L34.2322 61.7678ZM90 62.5L36 62.5L36 57.5L90 57.5L90 62.5Z" fill="#1D1717"/>
</svg>
