<svg width="38" height="44" viewBox="0 0 38 44" fill="none" xmlns="http://www.w3.org/2000/svg">
<path d="M21.2944 2.5C21.2944 1.11929 20.1751 0 18.7944 0C17.4137 0 16.2944 1.11929 16.2944 2.5H21.2944ZM17.0267 43.2678C18.003 44.2441 19.5859 44.2441 20.5622 43.2678L36.4721 27.3579C37.4484 26.3816 37.4484 24.7986 36.4721 23.8223C35.4958 22.846 33.9129 22.846 32.9366 23.8223L18.7944 37.9645L4.6523 23.8223C3.67599 22.846 2.09307 22.846 1.11676 23.8223C0.140453 24.7986 0.140453 26.3816 1.11676 27.3579L17.0267 43.2678ZM16.2944 2.5L16.2944 41.5H21.2944L21.2944 2.5H16.2944Z" fill="#040095"/>
</svg>
