<svg width="120" height="120" viewBox="0 0 120 120" fill="none" xmlns="http://www.w3.org/2000/svg">
<circle cx="60" cy="60" r="60" fill="#FAFAFA"/>
<circle cx="60" cy="60" r="54.5" stroke="#F76742" stroke-width="3"/>
<path d="M48.679 77.8631C48.083 79.1085 48.6094 80.6014 49.8548 81.1974C51.1002 81.7935 52.5931 81.2671 53.1891 80.0216L48.679 77.8631ZM71.4235 40.2264C70.9643 38.9243 69.5365 38.2409 68.2344 38.7001L47.015 46.1826C45.7129 46.6418 45.0295 48.0696 45.4887 49.3717C45.9479 50.6739 47.3757 51.3572 48.6778 50.898L67.5394 44.2469L74.1906 63.1086C74.6498 64.4107 76.0776 65.094 77.3797 64.6349C78.6818 64.1757 79.3652 62.7479 78.906 61.4458L71.4235 40.2264ZM53.1891 80.0216L71.3208 42.1371L66.8107 39.9785L48.679 77.8631L53.1891 80.0216Z" fill="#EE3A23"/>
</svg>
