<svg width="38" height="44" viewBox="0 0 38 44" fill="none" xmlns="http://www.w3.org/2000/svg">
<path d="M16.5 40.9625C16.5 42.3432 17.6193 43.4625 19 43.4625C20.3807 43.4625 21.5 42.3432 21.5 40.9625H16.5ZM20.7678 1.66482C19.7915 0.688515 18.2085 0.688515 17.2322 1.66482L1.32233 17.5747C0.34602 18.551 0.34602 20.1339 1.32233 21.1103C2.29864 22.0866 3.88155 22.0866 4.85786 21.1103L19 6.96812L33.1421 21.1103C34.1184 22.0866 35.7014 22.0866 36.6777 21.1103C37.654 20.1339 37.654 18.551 36.6777 17.5747L20.7678 1.66482ZM21.5 40.9625L21.5 3.43259H16.5L16.5 40.9625H21.5Z" fill="#040095"/>
</svg>
