<svg width="376" height="502" viewBox="0 0 376 502" fill="none" xmlns="http://www.w3.org/2000/svg">
<rect width="376" height="502" rx="10" fill="#F76742"/>
<path d="M44.1938 224.24H46.7964C46.9551 224.082 47.209 223.828 47.5264 223.447C47.8438 223.066 48.4468 222.241 49.272 220.908C50.0972 219.575 50.7954 218.115 51.4302 216.528C52.0649 214.941 52.6362 212.814 53.144 210.085C53.6519 207.387 53.9375 204.531 53.9375 201.484V187.487H85.4536V224.24H91.0078V242.426H81.2324V233H53.9375V242.426H44.1938V224.24ZM63.6812 201.484C63.6812 204.531 63.4272 207.387 62.9194 210.053C62.4116 212.751 61.8403 214.909 61.1421 216.56C60.4438 218.21 59.7773 219.638 59.0791 220.844C58.3809 222.05 57.7778 222.939 57.3335 223.447L56.54 224.24H75.71V196.279H63.6812V201.484ZM103.671 217.099C103.671 219.479 104.433 221.479 105.988 223.098C107.512 224.716 109.353 225.51 111.479 225.51C113.574 225.51 115.415 224.716 116.97 223.098C118.493 221.479 119.287 219.479 119.287 217.099C119.287 214.719 118.493 212.719 116.97 211.069C115.415 209.45 113.574 208.625 111.479 208.625C109.353 208.625 107.512 209.45 105.988 211.069C104.433 212.719 103.671 214.719 103.671 217.099ZM128.364 217.067C128.364 221.511 126.682 225.383 123.317 228.684C119.953 231.984 116.018 233.635 111.479 233.635C106.909 233.635 102.973 231.984 99.6089 228.684C96.2446 225.383 94.5625 221.511 94.5625 217.067C94.5625 212.656 96.2446 208.784 99.6089 205.483C102.973 202.182 106.909 200.532 111.479 200.532C116.018 200.532 119.953 202.182 123.317 205.483C126.682 208.784 128.364 212.656 128.364 217.067ZM165.085 219.987H142.011C142.329 221.733 143.249 223.193 144.772 224.399C146.264 225.605 148.168 226.176 150.454 226.176C152.104 226.176 153.627 225.859 155.024 225.224C156.42 224.589 157.436 223.923 158.007 223.256L158.928 222.272L163.466 228.112L162.863 228.715C162.609 228.969 162.038 229.414 161.181 230.048C160.292 230.683 159.372 231.254 158.42 231.762C157.436 232.27 156.167 232.683 154.611 233.063C153.056 233.444 151.469 233.635 149.819 233.635C145.122 233.635 141.154 232.016 137.854 228.779C134.553 225.542 132.902 221.638 132.902 217.067C132.902 212.529 134.521 208.625 137.79 205.388C141.027 202.15 144.931 200.5 149.501 200.5C154.04 200.5 157.817 202.023 160.864 205.07C163.879 208.117 165.402 211.894 165.402 216.433L165.085 219.987ZM149.501 207.99C147.629 207.99 146.042 208.53 144.741 209.609C143.439 210.688 142.519 212.116 142.011 213.83H156.643C156.293 212.148 155.468 210.751 154.199 209.641C152.929 208.562 151.342 207.99 149.501 207.99ZM171.94 233V201.135H180.7V225.192H189.492V201.135H198.251V225.192H207.043V201.135H215.803V233H171.94ZM232.688 225.859H238.21C239.321 225.859 240.241 225.51 241.003 224.748C241.733 224.018 242.114 223.098 242.114 221.955C242.114 220.844 241.733 219.924 241.003 219.162C240.273 218.432 239.353 218.051 238.21 218.051H232.688V225.859ZM250.905 221.955C250.905 225.256 249.794 227.922 247.604 229.953C245.415 231.984 242.399 233 238.559 233H223.928V201.135H232.688V210.91H238.559C242.399 210.91 245.415 211.926 247.604 213.957C249.794 215.988 250.905 218.654 250.905 221.955ZM251.191 209.609V201.135H280.136V209.609H270.043V233H261.284V209.609H251.191ZM315.524 219.987H292.451C292.768 221.733 293.688 223.193 295.212 224.399C296.704 225.605 298.608 226.176 300.893 226.176C302.543 226.176 304.067 225.859 305.463 225.224C306.86 224.589 307.875 223.923 308.447 223.256L309.367 222.272L313.906 228.112L313.303 228.715C313.049 228.969 312.478 229.414 311.621 230.048C310.732 230.683 309.812 231.254 308.859 231.762C307.875 232.27 306.606 232.683 305.051 233.063C303.496 233.444 301.909 233.635 300.258 233.635C295.561 233.635 291.594 232.016 288.293 228.779C284.992 225.542 283.342 221.638 283.342 217.067C283.342 212.529 284.96 208.625 288.229 205.388C291.467 202.15 295.371 200.5 299.941 200.5C304.479 200.5 308.256 202.023 311.303 205.07C314.318 208.117 315.842 211.894 315.842 216.433L315.524 219.987ZM299.941 207.99C298.068 207.99 296.481 208.53 295.18 209.609C293.879 210.688 292.958 212.116 292.451 213.83H307.082C306.733 212.148 305.908 210.751 304.638 209.641C303.369 208.562 301.782 207.99 299.941 207.99ZM130.776 299.939L123.952 310H114.526L125.253 293.75L115.161 278.135H124.936L130.776 287.561L136.616 278.135H146.391L136.298 293.75L147.026 310H137.6L130.776 299.939ZM154.802 278.135L180.478 278.167V310.032H171.718V285.974H163.276V287.942C163.276 293.877 162.768 298.606 161.752 302.097C160.737 305.588 159.467 307.969 157.88 309.175C156.293 310.381 154.294 310.984 151.882 310.984C151.088 310.984 150.327 310.92 149.565 310.73C148.803 310.54 148.264 310.381 147.915 310.254L147.343 310V302.192C147.978 302.415 148.645 302.51 149.279 302.51C150.549 302.51 151.564 302.192 152.326 301.526C153.056 300.859 153.659 299.368 154.104 297.051C154.548 294.734 154.802 291.37 154.802 286.926V278.135ZM219.167 296.987H196.093C196.411 298.733 197.331 300.193 198.854 301.399C200.346 302.605 202.25 303.176 204.536 303.176C206.186 303.176 207.709 302.859 209.106 302.224C210.502 301.589 211.518 300.923 212.089 300.256L213.01 299.272L217.548 305.112L216.945 305.715C216.691 305.969 216.12 306.414 215.263 307.048C214.375 307.683 213.454 308.254 212.502 308.762C211.518 309.27 210.249 309.683 208.693 310.063C207.138 310.444 205.551 310.635 203.901 310.635C199.204 310.635 195.236 309.016 191.936 305.779C188.635 302.542 186.984 298.638 186.984 294.067C186.984 289.529 188.603 285.625 191.872 282.388C195.109 279.15 199.013 277.5 203.583 277.5C208.122 277.5 211.899 279.023 214.946 282.07C217.961 285.117 219.484 288.894 219.484 293.433L219.167 296.987ZM203.583 284.99C201.711 284.99 200.124 285.53 198.823 286.609C197.521 287.688 196.601 289.116 196.093 290.83H210.725C210.375 289.148 209.55 287.751 208.281 286.641C207.011 285.562 205.424 284.99 203.583 284.99ZM258.205 294.734C258.205 299.209 256.682 302.986 253.698 306.033C250.715 309.111 246.906 310.635 242.272 310.635C237.067 310.635 232.878 308.826 229.736 305.208C226.594 301.589 225.039 296.479 225.039 289.846C225.039 282.451 226.435 276.865 229.26 273.057C232.053 269.28 236.083 266.868 241.289 265.789C243.574 265.312 245.7 264.773 247.604 264.202C249.509 263.63 250.81 263.186 251.572 262.805L252.683 262.234L256.555 268.74C256.364 268.931 256.079 269.153 255.634 269.407C255.19 269.692 253.889 270.232 251.73 271.025C249.572 271.851 246.938 272.581 243.891 273.279C241.098 273.914 238.845 275.088 237.131 276.833C235.385 278.579 234.274 280.737 233.83 283.34C233.894 283.213 234.052 283.054 234.243 282.864C234.433 282.673 234.814 282.324 235.449 281.816C236.052 281.309 236.687 280.833 237.385 280.42C238.083 280.007 238.94 279.626 240.019 279.309C241.066 278.992 242.146 278.801 243.256 278.801C247.192 278.801 250.651 280.388 253.667 283.53C256.682 286.672 258.205 290.417 258.205 294.734ZM234.782 294.734C234.782 297.114 235.48 299.05 236.94 300.574C238.369 302.097 240.146 302.859 242.272 302.859C244.24 302.859 245.922 302.097 247.319 300.574C248.715 299.05 249.414 297.114 249.414 294.734C249.414 292.354 248.715 290.417 247.319 288.894C245.922 287.371 244.24 286.609 242.272 286.609C240.146 286.609 238.369 287.371 236.94 288.894C235.48 290.417 234.782 292.354 234.782 294.734Z" fill="white"/>
</svg>
