<svg width="212" height="299" viewBox="0 0 212 299" fill="none" xmlns="http://www.w3.org/2000/svg">
<rect width="212" height="299" rx="10" fill="#FAFAFA"/>
<path d="M57.6504 19.7031C58.3828 19.7031 59.0859 19.8008 59.75 19.9961C60.4141 20.1914 60.9512 20.416 61.3809 20.6895C61.8105 20.9629 62.1816 21.2363 62.5137 21.5098C62.8457 21.7832 63.0801 22.0176 63.2266 22.2031L63.4512 22.4961L61.5469 24.4004C61.5078 24.3516 61.4492 24.2832 61.3809 24.1855C61.3125 24.0879 61.1563 23.9316 60.9219 23.6973C60.6875 23.4727 60.4238 23.2773 60.1504 23.1016C59.8672 22.9258 59.4961 22.7695 59.0469 22.623C58.5879 22.4766 58.1191 22.3984 57.6504 22.3984C56.3418 22.3984 55.248 22.8379 54.3691 23.7168C53.4902 24.5957 53.0508 25.6895 53.0508 26.998C53.0508 28.3066 53.4902 29.4004 54.3691 30.2793C55.248 31.1582 56.3418 31.5977 57.6504 31.5977C58.1582 31.5977 58.6367 31.5293 59.1055 31.3926C59.5742 31.2559 59.9551 31.0898 60.2676 30.8945C60.5703 30.6992 60.8438 30.5039 61.0781 30.3086C61.3125 30.1133 61.4785 29.9473 61.5859 29.8008L61.7422 29.5957L63.5488 31.5C63.4902 31.5781 63.4121 31.6855 63.3047 31.8125C63.1973 31.9395 62.9629 32.1641 62.5918 32.4863C62.2207 32.8086 61.8301 33.0918 61.4102 33.3359C60.9902 33.5801 60.4434 33.8047 59.7598 34C59.0762 34.2051 58.373 34.3027 57.6504 34.3027C55.5117 34.3027 53.7051 33.5898 52.2402 32.1641C50.7754 30.7383 50.043 29.0098 50.043 26.998C50.043 24.9863 50.7754 23.2676 52.2402 21.8418C53.7051 20.416 55.5117 19.7031 57.6504 19.7031ZM74.6426 29.9961L67.543 29.9961C67.6406 30.5332 67.9238 30.9824 68.3926 31.3535C68.8516 31.7246 69.4375 31.9004 70.1406 31.9004C70.6484 31.9004 71.1172 31.8027 71.5469 31.6074C71.9766 31.4121 72.2891 31.207 72.4648 31.002L72.748 30.6992L74.1445 32.4961L73.959 32.6816C73.8809 32.7598 73.7051 32.8965 73.4414 33.0918C73.168 33.2871 72.8848 33.4629 72.5918 33.6191C72.2891 33.7754 71.8984 33.9023 71.4199 34.0195C70.9414 34.1367 70.4531 34.1953 69.9453 34.1953C68.5 34.1953 67.2793 33.6973 66.2637 32.7012C65.248 31.7051 64.7402 30.5039 64.7402 29.0977C64.7402 27.7012 65.2383 26.5 66.2441 25.5039C67.2402 24.5078 68.4414 24 69.8477 24C71.2441 24 72.4063 24.4687 73.3438 25.4062C74.2715 26.3437 74.7402 27.5059 74.7402 28.9023L74.6426 29.9961ZM69.8477 26.3047C69.2715 26.3047 68.7832 26.4707 68.3828 26.8027C67.9824 27.1348 67.6992 27.5742 67.543 28.1016L72.0449 28.1016C71.9375 27.584 71.6836 27.1543 71.293 26.8125C70.9023 26.4805 70.4141 26.3047 69.8477 26.3047ZM86.0488 24.1953L82.3477 28.4043L86.2539 34L83.2461 34L80.6484 30.2012L79.4473 31.5977L79.4473 34L76.752 34L76.752 24.1953L79.4473 24.1953L79.4473 28.1992L82.9531 24.1953L86.0488 24.1953ZM93.1484 34.1953C92.582 34.1953 92.0645 34.0879 91.5762 33.8535C91.0879 33.6191 90.7461 33.3945 90.5508 33.1602L90.248 32.7988L90.248 38.1992L87.5527 38.1992L87.5527 24.1953L90.248 24.1953L90.248 25.3965C90.2676 25.3574 90.3066 25.3086 90.3652 25.25C90.4238 25.1914 90.541 25.084 90.7168 24.9277C90.8926 24.7715 91.0879 24.625 91.3027 24.498C91.5078 24.3711 91.7813 24.2539 92.1133 24.1562C92.4453 24.0586 92.7871 24 93.1484 24C94.418 24 95.5117 24.498 96.4492 25.4844C97.3867 26.4707 97.8555 27.6719 97.8555 29.0977C97.8555 30.5234 97.3867 31.7344 96.4492 32.7207C95.5117 33.707 94.418 34.1953 93.1484 34.1953ZM92.6504 26.4023C91.9863 26.4023 91.4199 26.6562 90.9512 27.1641C90.4824 27.6719 90.248 28.3164 90.248 29.1074C90.248 29.8887 90.4824 30.543 90.9512 31.0508C91.4199 31.5586 91.9863 31.8125 92.6504 31.8125C93.3145 31.8125 93.8809 31.5586 94.3496 31.0508C94.8184 30.543 95.0527 29.8887 95.0527 29.1074C95.0527 28.3164 94.8184 27.6719 94.3496 27.1641C93.8809 26.6562 93.3145 26.4023 92.6504 26.4023ZM109.154 29.9961L102.055 29.9961C102.152 30.5332 102.436 30.9824 102.904 31.3535C103.363 31.7246 103.949 31.9004 104.652 31.9004C105.16 31.9004 105.629 31.8027 106.059 31.6074C106.488 31.4121 106.801 31.207 106.977 31.002L107.26 30.6992L108.656 32.4961L108.471 32.6816C108.393 32.7598 108.217 32.8965 107.953 33.0918C107.68 33.2871 107.396 33.4629 107.104 33.6191C106.801 33.7754 106.41 33.9023 105.932 34.0195C105.453 34.1367 104.965 34.1953 104.457 34.1953C103.012 34.1953 101.791 33.6973 100.775 32.7012C99.7598 31.7051 99.252 30.5039 99.252 29.0977C99.252 27.7012 99.75 26.5 100.756 25.5039C101.752 24.5078 102.953 24 104.359 24C105.756 24 106.918 24.4687 107.855 25.4062C108.783 26.3437 109.252 27.5059 109.252 28.9023L109.154 29.9961ZM104.359 26.3047C103.783 26.3047 103.295 26.4707 102.895 26.8027C102.494 27.1348 102.211 27.5742 102.055 28.1016L106.557 28.1016C106.449 27.584 106.195 27.1543 105.805 26.8125C105.414 26.4805 104.926 26.3047 104.359 26.3047ZM110.258 26.8027L110.258 24.1953L119.164 24.1953L119.164 26.8027L116.059 26.8027L116.059 34L113.363 34L113.363 26.8027L110.258 26.8027ZM123.451 30.2988L123.451 34L120.756 34L120.756 24.1953L123.451 24.1953L123.451 27.8965L127.25 27.8965L127.25 24.1953L129.955 24.1953L129.955 34L127.25 34L127.25 30.2988L123.451 30.2988ZM144.652 24.1953L144.652 34L141.947 34L141.947 24.1953L144.652 24.1953ZM135.248 31.8027L136.85 31.8027C137.191 31.8027 137.475 31.6953 137.699 31.4609C137.934 31.2363 138.041 30.9531 138.041 30.6016C138.041 30.2598 137.934 29.9766 137.699 29.7422C137.475 29.5176 137.191 29.4004 136.85 29.4004L135.248 29.4004L135.248 31.8027ZM140.756 30.6016C140.756 31.6172 140.414 32.4375 139.74 33.0625C139.066 33.6875 138.139 34 136.947 34L132.553 34L132.553 24.1953L135.248 24.1953L135.248 27.2031L136.947 27.2031C138.129 27.2031 139.057 27.5156 139.74 28.1406C140.414 28.7656 140.756 29.5859 140.756 30.6016ZM151.859 21.0996C152.201 21.0996 152.484 20.9922 152.719 20.7578C152.943 20.5332 153.061 20.25 153.061 19.9082L155.062 19.9082C155.063 20.7578 154.76 21.4707 154.154 22.0469C153.549 22.6133 152.787 22.9062 151.859 22.9062C150.922 22.9062 150.16 22.6133 149.555 22.0469C148.949 21.4707 148.656 20.7578 148.656 19.9082L150.658 19.9082C150.658 20.25 150.766 20.5332 151 20.7578C151.225 20.9922 151.508 21.0996 151.859 21.0996ZM154.203 24.1953L156.557 24.1953L156.557 34L153.861 34L153.861 28.502L149.594 34L147.26 34L147.26 24.1953L149.955 24.1953L149.955 29.7031L154.203 24.1953ZM60.1016 50.5977L60.1016 58L57.4063 58L57.4063 48.1953L66.6055 48.1953L66.6055 58L63.9004 58L63.9004 50.5977L60.1016 50.5977ZM74.7988 58.1953C74.2324 58.1953 73.7148 58.0879 73.2266 57.8535C72.7383 57.6191 72.3965 57.3945 72.2012 57.1602L71.8984 56.7988L71.8984 62.1992L69.2031 62.1992L69.2031 48.1953L71.8984 48.1953L71.8984 49.3965C71.918 49.3574 71.957 49.3086 72.0156 49.25C72.0742 49.1914 72.1914 49.084 72.3672 48.9277C72.543 48.7715 72.7383 48.625 72.9531 48.498C73.1582 48.3711 73.4316 48.2539 73.7637 48.1562C74.0957 48.0586 74.4375 48 74.7988 48C76.0684 48 77.1621 48.498 78.0996 49.4844C79.0371 50.4707 79.5059 51.6719 79.5059 53.0977C79.5059 54.5234 79.0371 55.7344 78.0996 56.7207C77.1621 57.707 76.0684 58.1953 74.7988 58.1953ZM74.3008 50.4023C73.6367 50.4023 73.0703 50.6562 72.6016 51.1641C72.1328 51.6719 71.8984 52.3164 71.8984 53.1074C71.8984 53.8887 72.1328 54.543 72.6016 55.0508C73.0703 55.5586 73.6367 55.8125 74.3008 55.8125C74.9648 55.8125 75.5313 55.5586 76 55.0508C76.4688 54.543 76.7031 53.8887 76.7031 53.1074C76.7031 52.3164 76.4688 51.6719 76 51.1641C75.5313 50.6562 74.9648 50.4023 74.3008 50.4023ZM83.7051 53.1074C83.7051 53.8398 83.9395 54.4551 84.418 54.9531C84.8867 55.4512 85.4531 55.6953 86.1074 55.6953C86.752 55.6953 87.3184 55.4512 87.7969 54.9531C88.2656 54.4551 88.5098 53.8398 88.5098 53.1074C88.5098 52.375 88.2656 51.7598 87.7969 51.252C87.3184 50.7539 86.752 50.5 86.1074 50.5C85.4531 50.5 84.8867 50.7539 84.418 51.252C83.9395 51.7598 83.7051 52.375 83.7051 53.1074ZM91.3027 53.0977C91.3027 54.4648 90.7852 55.6562 89.75 56.6719C88.7148 57.6875 87.5039 58.1953 86.1074 58.1953C84.7012 58.1953 83.4902 57.6875 82.4551 56.6719C81.4199 55.6562 80.9023 54.4648 80.9023 53.0977C80.9023 51.7402 81.4199 50.5488 82.4551 49.5332C83.4902 48.5176 84.7012 48.0098 86.1074 48.0098C87.5039 48.0098 88.7148 48.5176 89.75 49.5332C90.7852 50.5488 91.3027 51.7402 91.3027 53.0977ZM98.6074 55.5977L96 52.1992L96 58L93.3047 58L93.3047 48.1953L95.5996 48.1953L98.6074 52.1016L101.605 48.1953L103.9 48.1953L103.9 58L101.205 58L101.205 52.1992L98.6074 55.5977ZM108.705 53.1074C108.705 53.8398 108.939 54.4551 109.418 54.9531C109.887 55.4512 110.453 55.6953 111.107 55.6953C111.752 55.6953 112.318 55.4512 112.797 54.9531C113.266 54.4551 113.51 53.8398 113.51 53.1074C113.51 52.375 113.266 51.7598 112.797 51.252C112.318 50.7539 111.752 50.5 111.107 50.5C110.453 50.5 109.887 50.7539 109.418 51.252C108.939 51.7598 108.705 52.375 108.705 53.1074ZM116.303 53.0977C116.303 54.4648 115.785 55.6562 114.75 56.6719C113.715 57.6875 112.504 58.1953 111.107 58.1953C109.701 58.1953 108.49 57.6875 107.455 56.6719C106.42 55.6562 105.902 54.4648 105.902 53.0977C105.902 51.7402 106.42 50.5488 107.455 49.5332C108.49 48.5176 109.701 48.0098 111.107 48.0098C112.504 48.0098 113.715 48.5176 114.75 49.5332C115.785 50.5488 116.303 51.7402 116.303 53.0977ZM127.602 48.1953L123.9 52.4043L127.807 58L124.799 58L122.201 54.2012L121 55.5977L121 58L118.305 58L118.305 48.1953L121 48.1953L121 52.1992L124.506 48.1953L127.602 48.1953ZM130.893 53.1074C130.893 53.8398 131.127 54.4551 131.605 54.9531C132.074 55.4512 132.641 55.6953 133.295 55.6953C133.939 55.6953 134.506 55.4512 134.984 54.9531C135.453 54.4551 135.697 53.8398 135.697 53.1074C135.697 52.375 135.453 51.7598 134.984 51.252C134.506 50.7539 133.939 50.5 133.295 50.5C132.641 50.5 132.074 50.7539 131.605 51.252C131.127 51.7598 130.893 52.375 130.893 53.1074ZM138.49 53.0977C138.49 54.4648 137.973 55.6562 136.938 56.6719C135.902 57.6875 134.691 58.1953 133.295 58.1953C131.889 58.1953 130.678 57.6875 129.643 56.6719C128.607 55.6562 128.09 54.4648 128.09 53.0977C128.09 51.7402 128.607 50.5488 129.643 49.5332C130.678 48.5176 131.889 48.0098 133.295 48.0098C134.691 48.0098 135.902 48.5176 136.938 49.5332C137.973 50.5488 138.49 51.7402 138.49 53.0977ZM139.193 55.5977L139.789 55.6074C139.828 55.5684 139.877 55.5098 139.955 55.4414C140.033 55.3633 140.16 55.1875 140.346 54.9141C140.531 54.6309 140.697 54.3184 140.834 53.9863C140.971 53.6543 141.098 53.2051 141.215 52.6582C141.332 52.1016 141.391 51.5156 141.391 50.9004L141.391 48.1953L148.891 48.1953L148.891 55.5977L150.189 55.5977L150.189 60.3047L147.494 60.3047L147.494 58L141.889 58L141.889 60.3047L139.193 60.3047L139.193 55.5977ZM143.891 50.6074L143.891 51.2129C143.891 51.9844 143.783 52.7363 143.568 53.4687C143.354 54.2012 143.148 54.7383 142.934 55.0898L142.592 55.6074L146.195 55.6074L146.195 50.6074L143.891 50.6074Z" fill="#1D1717"/>
<path d="M54.6602 271L54.6602 256.996L56.1641 256.996L56.1641 263.197L63.957 263.197L63.957 256.996L65.4609 256.996L65.4609 271L63.957 271L63.957 264.604L56.1641 264.604L56.1641 271L54.6602 271ZM77.5605 266.723L69.7578 266.703C69.8066 267.572 70.1582 268.324 70.8223 268.949C71.4863 269.584 72.2578 269.896 73.1563 269.896C73.752 269.896 74.3086 269.77 74.8262 269.496C75.334 269.232 75.7051 268.969 75.9199 268.695L76.2617 268.305L77.1602 269.203C77.1211 269.262 77.0625 269.33 76.9844 269.428C76.9063 269.525 76.75 269.682 76.4961 269.906C76.2422 270.131 75.9785 270.326 75.6855 270.502C75.3926 270.678 75.0215 270.834 74.5625 270.98C74.1035 271.127 73.6348 271.195 73.1563 271.195C71.8477 271.195 70.7148 270.717 69.7773 269.74C68.8301 268.764 68.3613 267.582 68.3613 266.195C68.3613 264.809 68.8203 263.637 69.7578 262.66C70.6953 261.684 71.7891 261.195 73.0586 261.195C74.3672 261.195 75.4609 261.654 76.3398 262.562C77.2188 263.471 77.6582 264.613 77.6582 266L77.5605 266.723ZM73.0586 262.504C72.2188 262.504 71.4863 262.807 70.8613 263.393C70.2363 263.988 69.8652 264.691 69.7578 265.502L76.2617 265.502C76.1543 264.643 75.8027 263.92 75.207 263.354C74.6113 262.787 73.8984 262.504 73.0586 262.504ZM89.7676 263.9C89.7676 264.223 89.709 264.516 89.6113 264.779C89.5137 265.033 89.3867 265.238 89.2402 265.385C89.0938 265.531 88.9473 265.658 88.791 265.756C88.6348 265.854 88.5176 265.932 88.4199 265.971L88.2637 266.01C88.3125 266.02 88.3809 266.039 88.4688 266.059C88.5566 266.078 88.7031 266.137 88.918 266.244C89.1328 266.352 89.3184 266.479 89.4844 266.635C89.6504 266.791 89.8066 267.016 89.9434 267.309C90.0801 267.602 90.1582 267.934 90.1582 268.314C90.1582 269.125 89.8359 269.809 89.2012 270.365C88.5566 270.922 87.6484 271.205 86.4668 271.205C86.0078 271.205 85.5781 271.146 85.168 271.029C84.7578 270.912 84.4258 270.766 84.1523 270.609C83.8789 270.443 83.6348 270.277 83.4395 270.111C83.2441 269.945 83.0977 269.809 83 269.691L82.8633 269.506L83.7617 268.607C83.8398 268.695 83.9473 268.812 84.084 268.959C84.2207 269.115 84.5332 269.311 85.002 269.545C85.4707 269.779 85.959 269.896 86.4668 269.896C87.2285 269.896 87.7949 269.75 88.1855 269.457C88.5664 269.164 88.7617 268.783 88.7617 268.305C88.7617 267.826 88.5664 267.436 88.1758 267.143C87.7852 266.85 87.2188 266.703 86.4668 266.703L85.3633 266.703L85.3633 265.404L86.4668 265.404C87.0332 265.404 87.4922 265.258 87.8438 264.965C88.1855 264.672 88.3613 264.311 88.3613 263.9C88.3613 263.49 88.1953 263.148 87.8828 262.895C87.5605 262.641 87.0918 262.514 86.4668 262.514C86.0176 262.514 85.5977 262.602 85.1973 262.777C84.7969 262.953 84.5137 263.139 84.3477 263.324L84.0645 263.598L83.0586 262.602C83.1465 262.504 83.2832 262.367 83.459 262.211C83.6348 262.055 84.0156 261.85 84.6016 261.586C85.1875 261.332 85.8027 261.195 86.4668 261.195C87.4434 261.195 88.2344 261.469 88.8496 261.996C89.4551 262.533 89.7676 263.168 89.7676 263.9ZM94.875 265.502L98.5762 264.896C98.5762 264.193 98.3516 263.617 97.9023 263.168C97.4531 262.729 96.877 262.504 96.1738 262.504C95.666 262.504 95.1875 262.621 94.7383 262.855C94.2891 263.09 93.9668 263.324 93.7715 263.559L93.4688 263.9L92.5703 263.002C92.6094 262.953 92.6582 262.885 92.7266 262.807C92.7949 262.729 92.9414 262.582 93.1758 262.377C93.4102 262.172 93.6543 261.986 93.9082 261.82C94.1621 261.664 94.4941 261.518 94.9043 261.391C95.3145 261.264 95.7441 261.195 96.1738 261.195C97.2676 261.195 98.166 261.557 98.8887 262.26C99.6113 262.973 99.9727 263.852 99.9727 264.896L99.9727 271L98.5762 271L98.5762 269.701C98.5469 269.74 98.5078 269.799 98.4492 269.867C98.3906 269.936 98.2734 270.053 98.0781 270.229C97.8828 270.404 97.6777 270.551 97.4629 270.687C97.2383 270.824 96.9453 270.941 96.584 271.039C96.2227 271.146 95.8516 271.195 95.4707 271.195C94.5137 271.195 93.7031 270.912 93.0488 270.346C92.3945 269.779 92.0723 269.135 92.0723 268.402C92.0723 267.602 92.3066 266.957 92.7949 266.469C93.2734 265.98 93.9668 265.658 94.875 265.502ZM95.4707 269.896C96.3691 269.896 97.1113 269.604 97.6973 269.008C98.2832 268.422 98.5762 267.65 98.5762 266.703L98.5762 266.098L95.2754 266.703C94.0742 266.937 93.4688 267.504 93.4688 268.402C93.4688 268.832 93.6445 269.193 93.9961 269.477C94.3477 269.76 94.8457 269.896 95.4707 269.896ZM112.258 266.4C112.258 267.748 111.799 268.891 110.891 269.809C109.973 270.736 108.869 271.195 107.561 271.195C106.145 271.195 104.992 270.658 104.104 269.584C103.205 268.51 102.766 266.977 102.766 265.004C102.766 260.59 104.396 258.09 107.658 257.504C108.361 257.387 108.996 257.24 109.553 257.045C110.1 256.859 110.471 256.703 110.666 256.576L110.959 256.4L111.662 257.504C111.125 257.973 109.855 258.412 107.863 258.803C106.809 259.018 105.949 259.525 105.305 260.307C104.66 261.088 104.309 262.152 104.26 263.5C104.279 263.451 104.328 263.383 104.387 263.295C104.445 263.207 104.582 263.061 104.787 262.846C104.992 262.631 105.217 262.445 105.471 262.27C105.715 262.104 106.037 261.947 106.428 261.811C106.818 261.674 107.229 261.596 107.658 261.596C108.928 261.596 110.012 262.064 110.91 263.002C111.809 263.939 112.258 265.072 112.258 266.4ZM104.26 266.4C104.26 267.396 104.582 268.227 105.227 268.891C105.871 269.564 106.652 269.896 107.561 269.896C108.459 269.896 109.24 269.564 109.885 268.891C110.529 268.227 110.861 267.396 110.861 266.4C110.861 265.414 110.529 264.584 109.885 263.91C109.24 263.246 108.459 262.904 107.561 262.904C106.652 262.904 105.871 263.246 105.227 263.91C104.582 264.584 104.26 265.414 104.26 266.4ZM116.262 266.205C116.262 267.191 116.604 268.051 117.307 268.793C118.01 269.535 118.791 269.896 119.66 269.896C120.48 269.896 121.223 269.545 121.877 268.822C122.531 268.1 122.863 267.23 122.863 266.205C122.863 265.18 122.531 264.311 121.877 263.588C121.223 262.865 120.48 262.504 119.66 262.504C118.791 262.504 118.01 262.875 117.307 263.617C116.604 264.359 116.262 265.219 116.262 266.205ZM116.262 269.496L116.262 275.209L114.865 275.209L114.865 261.41L116.262 261.41L116.262 262.914C116.281 262.875 116.33 262.807 116.398 262.729C116.467 262.65 116.604 262.514 116.818 262.318C117.033 262.123 117.258 261.947 117.512 261.791C117.756 261.635 118.068 261.498 118.459 261.381C118.85 261.264 119.25 261.205 119.66 261.205C120.881 261.205 121.955 261.693 122.873 262.68C123.791 263.656 124.26 264.838 124.26 266.205C124.26 267.572 123.801 268.754 122.883 269.73C121.965 270.707 120.891 271.195 119.66 271.195C119.25 271.195 118.85 271.137 118.469 271.02C118.088 270.902 117.766 270.766 117.512 270.6C117.248 270.443 117.023 270.277 116.828 270.111C116.633 269.945 116.496 269.799 116.398 269.682L116.262 269.496ZM128.859 265.502L132.561 264.896C132.561 264.193 132.336 263.617 131.887 263.168C131.438 262.729 130.861 262.504 130.158 262.504C129.65 262.504 129.172 262.621 128.723 262.855C128.273 263.09 127.951 263.324 127.756 263.559L127.453 263.9L126.555 263.002C126.594 262.953 126.643 262.885 126.711 262.807C126.779 262.729 126.926 262.582 127.16 262.377C127.395 262.172 127.639 261.986 127.893 261.82C128.146 261.664 128.479 261.518 128.889 261.391C129.299 261.264 129.729 261.195 130.158 261.195C131.252 261.195 132.15 261.557 132.873 262.26C133.596 262.973 133.957 263.852 133.957 264.896L133.957 271L132.561 271L132.561 269.701C132.531 269.74 132.492 269.799 132.434 269.867C132.375 269.936 132.258 270.053 132.063 270.229C131.867 270.404 131.662 270.551 131.447 270.687C131.223 270.824 130.93 270.941 130.568 271.039C130.207 271.146 129.836 271.195 129.455 271.195C128.498 271.195 127.688 270.912 127.033 270.346C126.379 269.779 126.057 269.135 126.057 268.402C126.057 267.602 126.291 266.957 126.779 266.469C127.258 265.98 127.951 265.658 128.859 265.502ZM129.455 269.896C130.354 269.896 131.096 269.604 131.682 269.008C132.268 268.422 132.561 267.65 132.561 266.703L132.561 266.098L129.26 266.703C128.059 266.937 127.453 267.504 127.453 268.402C127.453 268.832 127.629 269.193 127.98 269.477C128.332 269.76 128.83 269.896 129.455 269.896ZM138.146 261.4L145.148 261.41L145.148 271.01L143.742 271.01L143.742 262.709L139.543 262.709L139.543 264.213C139.543 265.619 139.465 266.801 139.328 267.738C139.191 268.676 138.977 269.398 138.703 269.887C138.42 270.375 138.107 270.717 137.775 270.912C137.434 271.107 137.023 271.205 136.545 271.205C136.379 271.205 136.213 271.186 136.047 271.156C135.881 271.117 135.764 271.088 135.686 271.049L135.549 271.01L135.549 269.613C135.813 269.74 136.076 269.809 136.35 269.809C136.76 269.809 137.082 269.691 137.316 269.457C137.551 269.223 137.746 268.676 137.902 267.836C138.059 266.986 138.146 265.775 138.146 264.203L138.146 261.4ZM155.539 261.4L156.74 261.4L156.74 271L155.334 271L155.334 263.803L149.533 271L148.342 271L148.342 261.4L149.738 261.4L149.738 268.598L155.539 261.4Z" fill="#1D1717"/>
<g clip-path="url(#clip0_1_1293)">
<path d="M138.317 102.847L138.186 102.562C130.424 85.6465 112.727 82.609 98.3501 85.6602L98.3499 85.6602C96.5258 86.0471 94.7551 86.5281 93.089 87.0895L93.0885 87.0897C74.6915 93.2816 62.6834 112.186 64.0561 133.178L64.0561 133.178C64.3662 137.934 68.4496 141.535 73.1241 141.234L73.129 141.234C73.3318 141.222 73.5399 141.192 73.8196 141.152C78.154 140.518 81.3548 136.542 81.0634 132.09L81.0633 132.089C80.2143 119.089 87.2742 107.229 98.5122 103.448L98.5139 103.447C98.8507 103.334 99.1946 103.228 99.537 103.127L99.5396 103.126C101.176 102.646 102.874 102.289 104.579 102.079C111.697 101.205 119.568 102.885 122.732 109.781L122.732 109.781C125.181 115.12 124.759 122.331 121.867 128.629L121.867 128.63C119.105 134.642 114.278 140.269 107.245 145.844C107.244 145.845 107.244 145.845 107.244 145.846L106.312 144.67C105.529 145.292 104.735 145.9 103.939 146.51L138.317 102.847ZM138.317 102.847C142.754 112.757 142.442 124.791 137.328 135.925M138.317 102.847L90.4976 194.87C92.1882 198.028 95.5385 199.772 99.0432 199.341C100.089 199.213 101.097 198.889 102.043 198.375C106.168 196.129 107.725 190.89 105.48 186.696C102.563 181.249 103.142 173.816 106.871 168.905C108.863 166.282 111.916 163.942 114.919 161.64L115.031 161.554L115.032 161.553C115.97 160.836 116.885 160.134 117.784 159.421C127.099 152.035 133.46 144.345 137.328 135.925M137.328 135.925L138.691 136.551M137.328 135.925L138.691 136.551M138.691 136.551C144.013 124.963 144.328 112.346 139.551 101.936L115.944 162.744C116.881 162.027 117.806 161.318 118.716 160.597C128.168 153.101 134.703 145.234 138.691 136.551Z" fill="#F76742" stroke="#1D1717" stroke-width="3"/>
<mask id="path-5-inside-1_1_1293" fill="white">
<path d="M99.2343 200.926C95.0697 201.437 91.0859 199.356 89.0881 195.623C82.6488 183.595 83.847 168.241 92.0704 157.416C95.5833 152.788 99.9527 149.442 103.805 146.489C104.608 145.874 105.438 145.239 106.25 144.594C113.156 139.119 117.789 133.679 120.414 127.962C123.16 121.982 123.491 115.271 121.278 110.446C118.88 105.224 112.71 102.688 104.768 103.664C103.172 103.86 101.563 104.194 99.9841 104.658C99.6045 104.77 99.2967 104.865 99.0165 104.96C88.5696 108.476 81.8409 119.588 82.6511 131.985C82.9959 137.255 79.2162 141.975 74.0463 142.731C73.7567 142.774 73.494 142.811 73.2225 142.828C70.5309 143 67.9274 142.102 65.8915 140.297C63.86 138.49 62.6399 135.998 62.4626 133.28C61.0479 111.637 73.4324 92.0193 92.5783 85.5761C94.3072 84.9945 96.1372 84.4982 98.0174 84.0981C112.755 80.9689 131.424 84.0014 139.633 101.895C144.421 112.33 144.108 124.977 138.773 136.591C134.778 145.291 128.234 153.168 118.769 160.673C117.831 161.416 116.857 162.164 115.996 162.822C112.912 165.185 109.999 167.419 108.136 169.873C104.785 174.285 104.256 181.043 106.879 185.943C109.535 190.902 107.704 197.109 102.799 199.779C101.68 200.388 100.48 200.773 99.2313 200.926L99.2343 200.926ZM104.746 103.472C112.773 102.486 119.017 105.063 121.451 110.366C123.687 115.24 123.355 122.013 120.587 128.042C117.948 133.787 113.297 139.25 106.367 144.744C105.555 145.389 104.724 146.026 103.921 146.641C100.076 149.586 95.7185 152.925 92.2214 157.533C84.0431 168.299 82.8498 183.569 89.255 195.532C91.2165 199.194 95.1235 201.237 99.2108 200.734C100.435 200.584 101.613 200.205 102.71 199.608C107.524 196.989 109.319 190.899 106.715 186.033C104.058 181.069 104.592 174.224 107.986 169.754C109.865 167.28 112.788 165.041 115.882 162.669C116.741 162.011 117.716 161.264 118.652 160.521C128.094 153.034 134.619 145.18 138.601 136.51C143.912 124.947 144.224 112.359 139.462 101.975C131.299 84.1858 112.72 81.1718 98.0575 84.2871C96.1832 84.6849 94.3607 85.1803 92.6392 85.7595C73.5743 92.1741 61.2444 111.71 62.6531 133.268C62.8272 135.935 64.023 138.379 66.0195 140.151C68.0159 141.922 70.5712 142.803 73.2125 142.633C73.4764 142.618 73.7346 142.582 74.0196 142.539C79.0929 141.796 82.8006 137.166 82.4618 131.995C81.6456 119.511 88.4288 108.318 98.9571 104.776C99.2388 104.681 99.5495 104.584 99.932 104.472C101.52 104.005 103.141 103.67 104.746 103.472Z"/>
</mask>
<path d="M99.2343 200.926C95.0697 201.437 91.0859 199.356 89.0881 195.623C82.6488 183.595 83.847 168.241 92.0704 157.416C95.5833 152.788 99.9527 149.442 103.805 146.489C104.608 145.874 105.438 145.239 106.25 144.594C113.156 139.119 117.789 133.679 120.414 127.962C123.16 121.982 123.491 115.271 121.278 110.446C118.88 105.224 112.71 102.688 104.768 103.664C103.172 103.86 101.563 104.194 99.9841 104.658C99.6045 104.77 99.2967 104.865 99.0165 104.96C88.5696 108.476 81.8409 119.588 82.6511 131.985C82.9959 137.255 79.2162 141.975 74.0463 142.731C73.7567 142.774 73.494 142.811 73.2225 142.828C70.5309 143 67.9274 142.102 65.8915 140.297C63.86 138.49 62.6399 135.998 62.4626 133.28C61.0479 111.637 73.4324 92.0193 92.5783 85.5761C94.3072 84.9945 96.1372 84.4982 98.0174 84.0981C112.755 80.9689 131.424 84.0014 139.633 101.895C144.421 112.33 144.108 124.977 138.773 136.591C134.778 145.291 128.234 153.168 118.769 160.673C117.831 161.416 116.857 162.164 115.996 162.822C112.912 165.185 109.999 167.419 108.136 169.873C104.785 174.285 104.256 181.043 106.879 185.943C109.535 190.902 107.704 197.109 102.799 199.779C101.68 200.388 100.48 200.773 99.2313 200.926L99.2343 200.926ZM104.746 103.472C112.773 102.486 119.017 105.063 121.451 110.366C123.687 115.24 123.355 122.013 120.587 128.042C117.948 133.787 113.297 139.25 106.367 144.744C105.555 145.389 104.724 146.026 103.921 146.641C100.076 149.586 95.7185 152.925 92.2214 157.533C84.0431 168.299 82.8498 183.569 89.255 195.532C91.2165 199.194 95.1235 201.237 99.2108 200.734C100.435 200.584 101.613 200.205 102.71 199.608C107.524 196.989 109.319 190.899 106.715 186.033C104.058 181.069 104.592 174.224 107.986 169.754C109.865 167.28 112.788 165.041 115.882 162.669C116.741 162.011 117.716 161.264 118.652 160.521C128.094 153.034 134.619 145.18 138.601 136.51C143.912 124.947 144.224 112.359 139.462 101.975C131.299 84.1858 112.72 81.1718 98.0575 84.2871C96.1832 84.6849 94.3607 85.1803 92.6392 85.7595C73.5743 92.1741 61.2444 111.71 62.6531 133.268C62.8272 135.935 64.023 138.379 66.0195 140.151C68.0159 141.922 70.5712 142.803 73.2125 142.633C73.4764 142.618 73.7346 142.582 74.0196 142.539C79.0929 141.796 82.8006 137.166 82.4618 131.995C81.6456 119.511 88.4288 108.318 98.9571 104.776C99.2388 104.681 99.5495 104.584 99.932 104.472C101.52 104.005 103.141 103.67 104.746 103.472Z" fill="#F76742"/>
<path d="M89.0881 195.623L91.7331 194.208L91.733 194.208L89.0881 195.623ZM92.0704 157.416L94.4593 159.231L94.46 159.23L92.0704 157.416ZM103.805 146.489L101.981 144.108L101.98 144.108L103.805 146.489ZM106.25 144.594L104.386 142.243L104.385 142.244L106.25 144.594ZM120.414 127.962L117.688 126.71L117.688 126.71L120.414 127.962ZM121.278 110.446L124.004 109.195L124.004 109.194L121.278 110.446ZM99.9841 104.658L99.1384 101.78L99.1364 101.78L99.9841 104.658ZM99.0165 104.96L99.9734 107.803L99.9791 107.801L99.0165 104.96ZM82.6511 131.985L79.6575 132.181L79.6575 132.181L82.6511 131.985ZM74.0463 142.731L73.6122 139.763L73.6024 139.764L74.0463 142.731ZM73.2225 142.828L73.0429 139.833L73.0307 139.834L73.2225 142.828ZM65.8915 140.297L63.8982 142.539L63.901 142.541L65.8915 140.297ZM62.4626 133.28L65.4563 133.085L65.4563 133.085L62.4626 133.28ZM92.5783 85.5761L91.6217 82.7327L91.6214 82.7328L92.5783 85.5761ZM98.0174 84.0981L97.3943 81.1635L97.393 81.1638L98.0174 84.0981ZM139.633 101.895L136.906 103.146L136.906 103.146L139.633 101.895ZM138.773 136.591L136.047 135.339L136.046 135.34L138.773 136.591ZM118.769 160.673L120.633 163.023L120.633 163.023L118.769 160.673ZM115.996 162.822L114.174 160.439L114.172 160.441L115.996 162.822ZM108.136 169.873L105.746 168.058L105.746 168.058L108.136 169.873ZM106.879 185.943L109.524 184.527L109.524 184.527L106.879 185.943ZM102.799 199.779L101.365 197.143L101.364 197.144L102.799 199.779ZM121.451 110.366L124.177 109.115L124.177 109.115L121.451 110.366ZM120.587 128.042L123.313 129.294L123.313 129.293L120.587 128.042ZM106.367 144.744L104.503 142.394L104.502 142.394L106.367 144.744ZM103.921 146.641L102.096 144.26L102.096 144.26L103.921 146.641ZM92.2214 157.533L94.6104 159.348L94.6111 159.347L92.2214 157.533ZM89.255 195.532L86.6103 196.948L86.6104 196.948L89.255 195.532ZM102.71 199.608L101.276 196.973L101.276 196.973L102.71 199.608ZM106.715 186.033L109.36 184.617L109.36 184.617L106.715 186.033ZM107.986 169.754L110.375 171.569L110.375 171.569L107.986 169.754ZM115.882 162.669L114.058 160.287L114.057 160.288L115.882 162.669ZM118.652 160.521L116.788 158.17L116.787 158.171L118.652 160.521ZM138.601 136.51L141.328 137.762L141.328 137.762L138.601 136.51ZM139.462 101.975L142.189 100.725L142.188 100.724L139.462 101.975ZM98.0575 84.2871L98.6804 87.2217L98.681 87.2216L98.0575 84.2871ZM92.6392 85.7595L91.6826 82.9161L91.6825 82.9161L92.6392 85.7595ZM62.6531 133.268L65.6467 133.072L65.6467 133.072L62.6531 133.268ZM73.2125 142.633L73.0383 139.638L73.0294 139.639L73.0205 139.64L73.2125 142.633ZM74.0196 142.539L73.5851 139.571L73.5744 139.572L74.0196 142.539ZM82.4618 131.995L79.4682 132.19L79.4682 132.191L82.4618 131.995ZM98.9571 104.776L99.9136 107.62L99.9168 107.619L98.9571 104.776ZM99.932 104.472L100.776 107.351L100.778 107.35L99.932 104.472ZM98.8685 197.948C95.9479 198.307 93.1529 196.86 91.7331 194.208L86.4432 197.039C89.0189 201.851 94.1915 204.568 99.6001 203.903L98.8685 197.948ZM91.733 194.208C85.8447 183.209 86.949 169.117 94.4593 159.231L89.6816 155.602C80.7451 167.365 79.4528 183.982 86.4433 197.039L91.733 194.208ZM94.46 159.23C97.6938 154.97 101.744 151.849 105.63 148.871L101.98 144.108C98.1617 147.035 93.4728 150.607 89.6808 155.603L94.46 159.23ZM105.63 148.871C106.429 148.258 107.279 147.607 108.115 146.944L104.385 142.244C103.596 142.87 102.787 143.49 101.981 144.108L105.63 148.871ZM108.113 146.945C115.251 141.288 120.256 135.497 123.141 129.214L117.688 126.71C115.323 131.861 111.062 136.951 104.386 142.243L108.113 146.945ZM123.14 129.214C126.157 122.646 126.667 115 124.004 109.195L118.551 111.697C120.315 115.541 120.164 121.318 117.688 126.71L123.14 129.214ZM124.004 109.194C120.836 102.293 113.008 99.6289 104.403 100.686L105.134 106.641C112.412 105.747 116.925 108.155 118.551 111.698L124.004 109.194ZM104.403 100.686C102.64 100.903 100.871 101.271 99.1384 101.78L100.83 107.536C102.255 107.117 103.703 106.817 105.134 106.641L104.403 100.686ZM99.1364 101.78C98.7383 101.897 98.3878 102.005 98.0539 102.118L99.9791 107.801C100.206 107.724 100.471 107.642 100.832 107.536L99.1364 101.78ZM98.0596 102.117C86.11 106.138 78.7741 118.665 79.6575 132.181L85.6447 131.79C84.9077 120.512 91.0291 110.813 99.9734 107.803L98.0596 102.117ZM79.6575 132.181C79.9019 135.917 77.2082 139.237 73.6122 139.763L74.4805 145.7C81.2242 144.713 86.0899 138.593 85.6447 131.79L79.6575 132.181ZM73.6024 139.764C73.3146 139.807 73.1685 139.826 73.0429 139.833L73.4021 145.822C73.8194 145.797 74.1989 145.742 74.4903 145.698L73.6024 139.764ZM73.0307 139.834C71.1443 139.955 69.3247 139.331 67.8819 138.052L63.901 142.541C66.5302 144.873 69.9175 146.046 73.4143 145.822L73.0307 139.834ZM67.8848 138.055C66.4424 136.772 65.5821 135.015 65.4563 133.085L59.469 133.475C59.6976 136.982 61.2777 140.209 63.8982 142.539L67.8848 138.055ZM65.4563 133.085C64.1211 112.658 75.8072 94.3855 93.5352 88.4195L91.6214 82.7328C71.0577 89.6532 57.9748 110.615 59.469 133.476L65.4563 133.085ZM93.5349 88.4196C95.1478 87.8769 96.8665 87.4102 98.6418 87.0324L97.393 81.1638C95.4079 81.5862 93.4665 82.1121 91.6217 82.7327L93.5349 88.4196ZM98.6405 87.0327C112.725 84.0421 129.542 87.0944 136.906 103.146L142.36 100.644C133.306 80.9084 112.784 77.8957 97.3943 81.1635L98.6405 87.0327ZM136.906 103.146C141.285 112.691 141.063 124.418 136.047 135.339L141.499 137.844C147.153 125.535 147.556 111.969 142.36 100.644L136.906 103.146ZM136.046 135.34C132.294 143.512 126.095 151.035 116.905 158.322L120.633 163.023C130.373 155.3 137.263 147.069 141.499 137.843L136.046 135.34ZM116.905 158.322C115.99 159.048 115.033 159.782 114.174 160.439L117.818 165.206C118.681 164.546 119.673 163.785 120.633 163.023L116.905 158.322ZM114.172 160.441C111.188 162.727 107.905 165.216 105.746 168.058L110.525 171.687C112.092 169.622 114.635 167.644 117.821 165.204L114.172 160.441ZM105.746 168.058C101.684 173.409 101.059 181.429 104.235 187.359L109.524 184.527C107.452 180.658 107.886 175.162 110.525 171.687L105.746 168.058ZM104.235 187.359C106.121 190.883 104.804 195.272 101.365 197.143L104.232 202.414C110.605 198.947 112.948 190.922 109.524 184.527L104.235 187.359ZM101.364 197.144C100.575 197.573 99.7372 197.841 98.8655 197.948L99.5971 203.903C101.222 203.704 102.785 203.202 104.233 202.413L101.364 197.144ZM99.5971 203.903L99.6001 203.903L98.8685 197.948L98.8655 197.948L99.5971 203.903ZM105.112 106.45C112.467 105.547 117.059 107.988 118.724 111.617L124.177 109.115C120.976 102.137 113.079 99.4262 104.381 100.495L105.112 106.45ZM118.724 111.617C120.511 115.512 120.358 121.35 117.86 126.79L123.313 129.293C126.351 122.675 126.863 114.968 124.177 109.115L118.724 111.617ZM117.861 126.79C115.482 131.969 111.202 137.082 104.503 142.394L108.23 147.095C115.392 141.417 120.415 135.604 123.313 129.294L117.861 126.79ZM104.502 142.394C103.713 143.02 102.901 143.643 102.096 144.26L105.745 149.023C106.546 148.409 107.397 147.757 108.231 147.094L104.502 142.394ZM102.096 144.26C98.2856 147.179 93.608 150.744 89.8318 155.719L94.6111 159.347C97.8289 155.107 101.867 151.994 105.745 149.023L102.096 144.26ZM89.8325 155.718C80.9414 167.423 79.6537 183.955 86.6103 196.948L91.8998 194.115C86.0459 183.183 87.1448 169.175 94.6104 159.348L89.8325 155.718ZM86.6104 196.948C89.1495 201.689 94.2444 204.367 99.5767 203.712L98.845 197.757C96.0025 198.106 93.2835 196.699 91.8996 194.115L86.6104 196.948ZM99.5767 203.712C101.18 203.515 102.719 203.018 104.144 202.243L101.276 196.973C100.506 197.392 99.6904 197.653 98.845 197.757L99.5767 203.712ZM104.144 202.243C110.424 198.826 112.732 190.919 109.36 184.617L104.07 187.448C105.906 190.88 104.623 195.152 101.276 196.973L104.144 202.243ZM109.36 184.617C107.254 180.683 107.693 175.1 110.375 171.569L105.597 167.94C101.49 173.348 100.862 181.455 104.07 187.449L109.36 184.617ZM110.375 171.569C111.959 169.483 114.512 167.499 117.707 165.05L114.057 160.288C111.064 162.582 107.771 165.077 105.597 167.94L110.375 171.569ZM117.706 165.051C118.563 164.395 119.557 163.633 120.517 162.871L116.787 158.171C115.874 158.896 114.92 159.627 114.058 160.287L117.706 165.051ZM120.516 162.872C130.233 155.167 137.103 146.959 141.328 137.762L135.875 135.258C132.135 143.401 125.954 150.902 116.788 158.17L120.516 162.872ZM141.328 137.762C146.957 125.505 147.36 111.998 142.189 100.725L136.735 103.226C141.089 112.719 140.868 124.388 135.875 135.258L141.328 137.762ZM142.188 100.724C133.18 81.0917 112.748 78.0989 97.434 81.3526L98.681 87.2216C112.692 84.2447 129.418 87.28 136.735 103.226L142.188 100.724ZM97.4347 81.3525C95.4533 81.773 93.5191 82.2982 91.6826 82.9161L93.5958 88.6029C95.2024 88.0624 96.9131 87.5968 98.6804 87.2217L97.4347 81.3525ZM91.6825 82.9161C71.1991 89.808 58.1713 110.689 59.6595 133.463L65.6467 133.072C64.3175 112.731 75.9496 94.5402 93.5959 88.6029L91.6825 82.9161ZM59.6595 133.463C59.8849 136.918 61.4405 140.098 64.0283 142.394L68.0106 137.907C66.6055 136.66 65.7694 134.952 65.6467 133.072L59.6595 133.463ZM64.0283 142.394C66.6189 144.693 69.9586 145.848 73.4044 145.627L73.0205 139.64C71.1838 139.757 69.413 139.151 68.0106 137.907L64.0283 142.394ZM73.3867 145.628C73.8007 145.604 74.1792 145.549 74.4648 145.506L73.5744 139.572C73.2899 139.615 73.152 139.632 73.0383 139.638L73.3867 145.628ZM74.4542 145.507C81.1009 144.534 85.8947 138.504 85.4554 131.799L79.4682 132.191C79.7065 135.828 77.0848 139.058 73.5851 139.571L74.4542 145.507ZM85.4554 131.799C84.7125 120.437 90.8869 110.656 99.9136 107.62L98.0007 101.933C85.9707 105.979 78.5787 118.586 79.4682 132.19L85.4554 131.799ZM99.9168 107.619C100.151 107.54 100.421 107.455 100.776 107.351L99.088 101.593C98.6777 101.713 98.327 101.823 97.9975 101.934L99.9168 107.619ZM100.778 107.35C102.211 106.929 103.671 106.627 105.112 106.45L104.381 100.495C102.61 100.712 100.829 101.082 99.0863 101.594L100.778 107.35Z" fill="#1D1717" mask="url(#path-5-inside-1_1_1293)"/>
<path d="M111.393 213.181L111.392 213.18C111.256 213.093 111.128 212.997 111.005 212.89C109.621 211.69 107.933 210.984 106.109 210.843L106.108 210.842C105.36 210.784 104.593 210.801 103.824 210.896C103.691 210.912 103.554 210.932 103.411 210.953C99.8799 211.513 96.7352 213.701 94.8055 217.016L111.393 213.181ZM111.393 213.181C113.371 214.455 114.754 216.509 115.199 218.835L115.227 218.999C115.906 222.961 114.582 227.119 111.645 230.105C109.592 232.191 106.913 233.522 104.113 233.866C104.1 233.867 104.093 233.868 104.073 233.869C104.055 233.871 104.026 233.873 103.971 233.877L103.763 233.893L103.753 233.894M111.393 213.181L103.753 233.894M103.753 233.894L103.742 233.895M103.753 233.894L103.742 233.895M103.742 233.895C102.693 233.992 101.671 233.955 100.701 233.794L103.742 233.895ZM94.1386 228.542C92.474 224.965 92.668 220.691 94.8053 217.016L100.701 233.794C98.3692 233.402 96.2774 232.033 94.9695 230.037C94.6546 229.554 94.3775 229.054 94.1386 228.542Z" fill="#F76742" stroke="#1D1717" stroke-width="3"/>
<path d="M104.309 235.448C104.25 235.455 104.189 235.459 104.129 235.463L103.89 235.482C102.712 235.591 101.55 235.551 100.438 235.365C97.6651 234.9 95.1858 233.275 93.6353 230.907C93.2817 230.367 92.9643 229.796 92.693 229.214C90.7919 225.13 91.0656 220.268 93.4258 216.21C95.5818 212.502 99.1313 210.011 103.164 209.372C104.191 209.211 105.224 209.167 106.23 209.247C108.395 209.416 110.406 210.258 112.048 211.682C112.112 211.737 112.181 211.789 112.255 211.836C114.657 213.383 116.314 215.894 116.8 218.726C117.569 223.21 116.067 227.881 112.782 231.222C110.485 233.558 107.476 235.059 104.309 235.448ZM103.651 209.5C103.498 209.519 103.347 209.541 103.193 209.564C99.2182 210.192 95.7169 212.652 93.5901 216.309C91.2615 220.312 90.9903 225.107 92.8645 229.134C93.1318 229.709 93.4451 230.271 93.7932 230.804C95.3136 233.127 97.7476 234.721 100.467 235.178C101.564 235.361 102.708 235.401 103.872 235.293L104.114 235.275C104.172 235.271 104.228 235.267 104.284 235.26C107.409 234.876 110.379 233.396 112.646 231.089C115.888 227.793 117.369 223.185 116.611 218.762C116.134 215.984 114.509 213.52 112.152 212.002C112.072 211.95 111.994 211.893 111.924 211.83C110.313 210.433 108.339 209.609 106.215 209.443C105.373 209.377 104.511 209.398 103.65 209.504L103.651 209.5Z" fill="#F76742"/>
</g>
<defs>
<clipPath id="clip0_1_1293">
<rect width="82.1598" height="151.174" fill="white" transform="translate(57 88.949) rotate(-7.00374)"/>
</clipPath>
</defs>
</svg>
