<svg width="212" height="299" viewBox="0 0 212 299" fill="none" xmlns="http://www.w3.org/2000/svg">
<rect width="212" height="299" rx="10" fill="#FAFAFA"/>
<path d="M43.666 232.305V235H42.2695V225.4H43.666V230.498L48.4609 225.4H50.1699L46.4688 229.297L50.5703 235H48.9688L45.5703 230.303L43.666 232.305ZM54.4668 229.502L58.168 228.896C58.168 228.193 57.9434 227.617 57.4941 227.168C57.0449 226.729 56.4688 226.504 55.7656 226.504C55.2578 226.504 54.7793 226.621 54.3301 226.855C53.8809 227.09 53.5586 227.324 53.3633 227.559L53.0605 227.9L52.1621 227.002C52.2012 226.953 52.25 226.885 52.3184 226.807C52.3867 226.729 52.5332 226.582 52.7676 226.377C53.002 226.172 53.2461 225.986 53.5 225.82C53.7539 225.664 54.0859 225.518 54.4961 225.391C54.9062 225.264 55.3359 225.195 55.7656 225.195C56.8594 225.195 57.7578 225.557 58.4805 226.26C59.2031 226.973 59.5645 227.852 59.5645 228.896V235H58.168V233.701C58.1387 233.74 58.0996 233.799 58.041 233.867C57.9824 233.936 57.8652 234.053 57.6699 234.229C57.4746 234.404 57.2695 234.551 57.0547 234.688C56.8301 234.824 56.5371 234.941 56.1758 235.039C55.8145 235.146 55.4434 235.195 55.0625 235.195C54.1055 235.195 53.2949 234.912 52.6406 234.346C51.9863 233.779 51.6641 233.135 51.6641 232.402C51.6641 231.602 51.8984 230.957 52.3867 230.469C52.8652 229.98 53.5586 229.658 54.4668 229.502ZM55.0625 233.896C55.9609 233.896 56.7031 233.604 57.2891 233.008C57.875 232.422 58.168 231.65 58.168 230.703V230.098L54.8672 230.703C53.666 230.938 53.0605 231.504 53.0605 232.402C53.0605 232.832 53.2363 233.193 53.5879 233.477C53.9395 233.76 54.4375 233.896 55.0625 233.896ZM64.1543 232.305V235H62.7578V225.4H64.1543V230.498L68.9492 225.4H70.6582L66.957 229.297L71.0586 235H69.457L66.0586 230.303L64.1543 232.305ZM83.5586 235V230.801H78.0605V235H76.6641V225.4H78.0605V229.502H83.5586V225.4H84.9648V235H83.5586ZM90.2676 229.502L93.9688 228.896C93.9688 228.193 93.7441 227.617 93.2949 227.168C92.8457 226.729 92.2695 226.504 91.5664 226.504C91.0586 226.504 90.5801 226.621 90.1309 226.855C89.6816 227.09 89.3594 227.324 89.1641 227.559L88.8613 227.9L87.9629 227.002C88.002 226.953 88.0508 226.885 88.1191 226.807C88.1875 226.729 88.334 226.582 88.5684 226.377C88.8027 226.172 89.0469 225.986 89.3008 225.82C89.5547 225.664 89.8867 225.518 90.2969 225.391C90.707 225.264 91.1367 225.195 91.5664 225.195C92.6602 225.195 93.5586 225.557 94.2812 226.26C95.0039 226.973 95.3652 227.852 95.3652 228.896V235H93.9688V233.701C93.9395 233.74 93.9004 233.799 93.8418 233.867C93.7832 233.936 93.666 234.053 93.4707 234.229C93.2754 234.404 93.0703 234.551 92.8555 234.688C92.6309 234.824 92.3379 234.941 91.9766 235.039C91.6152 235.146 91.2441 235.195 90.8633 235.195C89.9062 235.195 89.0957 234.912 88.4414 234.346C87.7871 233.779 87.4648 233.135 87.4648 232.402C87.4648 231.602 87.6992 230.957 88.1875 230.469C88.666 229.98 89.3594 229.658 90.2676 229.502ZM90.8633 233.896C91.7617 233.896 92.5039 233.604 93.0898 233.008C93.6758 232.422 93.9688 231.65 93.9688 230.703V230.098L90.668 230.703C89.4668 230.938 88.8613 231.504 88.8613 232.402C88.8613 232.832 89.0371 233.193 89.3887 233.477C89.7402 233.76 90.2383 233.896 90.8633 233.896ZM97.8555 230.195C97.8555 228.809 98.3242 227.637 99.2715 226.66C100.219 225.684 101.342 225.195 102.641 225.195C103.393 225.195 104.096 225.361 104.74 225.684C105.385 226.006 105.854 226.328 106.127 226.641L106.547 227.1L105.541 228.096C105.521 228.057 105.482 228.008 105.424 227.93C105.375 227.861 105.258 227.734 105.082 227.539C104.906 227.354 104.711 227.188 104.506 227.051C104.291 226.914 104.027 226.787 103.695 226.67C103.363 226.562 103.012 226.504 102.65 226.504C101.732 226.504 100.932 226.865 100.258 227.578C99.584 228.291 99.252 229.17 99.252 230.205C99.252 231.24 99.584 232.119 100.258 232.832C100.932 233.545 101.732 233.896 102.65 233.896C103.207 233.896 103.734 233.77 104.242 233.496C104.74 233.232 105.102 232.969 105.326 232.695L105.648 232.305L106.645 233.203C106.605 233.262 106.547 233.33 106.469 233.428C106.391 233.525 106.215 233.682 105.951 233.906C105.697 234.131 105.424 234.326 105.131 234.502C104.848 234.678 104.477 234.834 104.027 234.98C103.578 235.127 103.119 235.195 102.65 235.195C101.342 235.195 100.209 234.717 99.2715 233.74C98.3242 232.764 97.8555 231.582 97.8555 230.195ZM109.848 225.4L116.85 225.41V235.01H115.443V226.709H111.244V228.213C111.244 229.619 111.166 230.801 111.029 231.738C110.893 232.676 110.678 233.398 110.404 233.887C110.121 234.375 109.809 234.717 109.477 234.912C109.135 235.107 108.725 235.205 108.246 235.205C108.08 235.205 107.914 235.186 107.748 235.156C107.582 235.117 107.465 235.088 107.387 235.049L107.25 235.01V233.613C107.514 233.74 107.777 233.809 108.051 233.809C108.461 233.809 108.783 233.691 109.018 233.457C109.252 233.223 109.447 232.676 109.604 231.836C109.76 230.986 109.848 229.775 109.848 228.203V225.4ZM128.539 230.723L120.736 230.703C120.785 231.572 121.137 232.324 121.801 232.949C122.465 233.584 123.236 233.896 124.135 233.896C124.73 233.896 125.287 233.77 125.805 233.496C126.312 233.232 126.684 232.969 126.898 232.695L127.24 232.305L128.139 233.203C128.1 233.262 128.041 233.33 127.963 233.428C127.885 233.525 127.729 233.682 127.475 233.906C127.221 234.131 126.957 234.326 126.664 234.502C126.371 234.678 126 234.834 125.541 234.98C125.082 235.127 124.613 235.195 124.135 235.195C122.826 235.195 121.693 234.717 120.756 233.74C119.809 232.764 119.34 231.582 119.34 230.195C119.34 228.809 119.799 227.637 120.736 226.66C121.674 225.684 122.768 225.195 124.037 225.195C125.346 225.195 126.439 225.654 127.318 226.562C128.197 227.471 128.637 228.613 128.637 230L128.539 230.723ZM124.037 226.504C123.197 226.504 122.465 226.807 121.84 227.393C121.215 227.988 120.844 228.691 120.736 229.502H127.24C127.133 228.643 126.781 227.92 126.186 227.354C125.59 226.787 124.877 226.504 124.037 226.504ZM140.033 233.701V237.402H138.637V235H130.932V237.402H129.535V233.701H130.229C130.268 233.662 130.326 233.604 130.404 233.506C130.482 233.408 130.629 233.193 130.824 232.861C131.02 232.529 131.186 232.178 131.342 231.787C131.498 231.396 131.635 230.879 131.752 230.234C131.869 229.59 131.938 228.906 131.938 228.203V225.4H138.529V233.701H140.033ZM133.334 226.699L133.324 228.203C133.324 229.297 133.197 230.303 132.924 231.211C132.66 232.129 132.396 232.773 132.133 233.145L131.732 233.701H137.133V226.699H133.334ZM149.428 225.4H150.629V235H149.223V227.803L143.422 235H142.23V225.4H143.627V232.598L149.428 225.4ZM152.631 226.699V225.4H160.824V226.699H157.426V235H156.029V226.699H152.631ZM164.232 233.701H166.752C167.377 233.701 167.875 233.525 168.256 233.174C168.637 232.822 168.832 232.363 168.832 231.797C168.832 231.24 168.637 230.781 168.256 230.43C167.875 230.078 167.367 229.902 166.732 229.902H164.232V233.701ZM170.229 231.807C170.229 232.764 169.916 233.535 169.301 234.121C168.676 234.707 167.826 235 166.752 235H162.836V225.4H164.232V228.604H166.732C167.807 228.604 168.666 228.896 169.291 229.482C169.916 230.068 170.229 230.85 170.229 231.807ZM71.2539 254.195C71.2539 252.809 71.7227 251.637 72.6699 250.66C73.6172 249.684 74.7402 249.195 76.0391 249.195C76.791 249.195 77.4941 249.361 78.1387 249.684C78.7832 250.006 79.252 250.328 79.5254 250.641L79.9453 251.1L78.9395 252.096C78.9199 252.057 78.8809 252.008 78.8223 251.93C78.7734 251.861 78.6562 251.734 78.4805 251.539C78.3047 251.354 78.1094 251.188 77.9043 251.051C77.6895 250.914 77.4258 250.787 77.0938 250.67C76.7617 250.562 76.4102 250.504 76.0488 250.504C75.1309 250.504 74.3301 250.865 73.6562 251.578C72.9824 252.291 72.6504 253.17 72.6504 254.205C72.6504 255.24 72.9824 256.119 73.6562 256.832C74.3301 257.545 75.1309 257.896 76.0488 257.896C76.6055 257.896 77.1328 257.77 77.6406 257.496C78.1387 257.232 78.5 256.969 78.7246 256.695L79.0469 256.305L80.043 257.203C80.0039 257.262 79.9453 257.33 79.8672 257.428C79.7891 257.525 79.6133 257.682 79.3496 257.906C79.0957 258.131 78.8223 258.326 78.5293 258.502C78.2461 258.678 77.875 258.834 77.4258 258.98C76.9766 259.127 76.5176 259.195 76.0488 259.195C74.7402 259.195 73.6074 258.717 72.6699 257.74C71.7227 256.764 71.2539 255.582 71.2539 254.195ZM89.9453 254.205C89.9453 253.17 89.5938 252.291 88.9102 251.578C88.2266 250.865 87.3965 250.504 86.4395 250.504C85.4824 250.504 84.6523 250.865 83.9688 251.578C83.2852 252.291 82.9434 253.16 82.9434 254.195C82.9434 255.23 83.2852 256.1 83.9688 256.822C84.6523 257.545 85.4824 257.896 86.4395 257.896C87.3965 257.896 88.2266 257.545 88.9102 256.832C89.5938 256.119 89.9453 255.24 89.9453 254.205ZM81.5469 254.205C81.5469 252.799 82.0156 251.617 82.9727 250.65C83.9297 249.684 85.082 249.195 86.4492 249.195C87.8066 249.195 88.959 249.684 89.9062 250.65C90.8633 251.617 91.332 252.799 91.332 254.205C91.332 255.611 90.8633 256.793 89.9062 257.76C88.959 258.717 87.8066 259.205 86.4492 259.205C85.082 259.205 83.9297 258.717 82.9727 257.76C82.0156 256.793 81.5469 255.611 81.5469 254.205ZM99.6523 251.9C99.6523 252.223 99.5938 252.516 99.4961 252.779C99.3984 253.033 99.2715 253.238 99.125 253.385C98.9785 253.531 98.832 253.658 98.6758 253.756C98.5195 253.854 98.4023 253.932 98.3047 253.971L98.1484 254.01C98.1973 254.02 98.2656 254.039 98.3535 254.059C98.4414 254.078 98.5879 254.137 98.8027 254.244C99.0176 254.352 99.2031 254.479 99.3691 254.635C99.5352 254.791 99.6914 255.016 99.8281 255.309C99.9648 255.602 100.043 255.934 100.043 256.314C100.043 257.125 99.7207 257.809 99.0859 258.365C98.4414 258.922 97.5332 259.205 96.3516 259.205C95.8926 259.205 95.4629 259.146 95.0527 259.029C94.6426 258.912 94.3105 258.766 94.0371 258.609C93.7637 258.443 93.5195 258.277 93.3242 258.111C93.1289 257.945 92.9824 257.809 92.8848 257.691L92.748 257.506L93.6465 256.607C93.7246 256.695 93.832 256.812 93.9688 256.959C94.1055 257.115 94.418 257.311 94.8867 257.545C95.3555 257.779 95.8438 257.896 96.3516 257.896C97.1133 257.896 97.6797 257.75 98.0703 257.457C98.4512 257.164 98.6465 256.783 98.6465 256.305C98.6465 255.826 98.4512 255.436 98.0605 255.143C97.6699 254.85 97.1035 254.703 96.3516 254.703H95.248V253.404H96.3516C96.918 253.404 97.377 253.258 97.7285 252.965C98.0703 252.672 98.2461 252.311 98.2461 251.9C98.2461 251.49 98.0801 251.148 97.7676 250.895C97.4453 250.641 96.9766 250.514 96.3516 250.514C95.9023 250.514 95.4824 250.602 95.082 250.777C94.6816 250.953 94.3984 251.139 94.2324 251.324L93.9492 251.598L92.9434 250.602C93.0312 250.504 93.168 250.367 93.3438 250.211C93.5195 250.055 93.9004 249.85 94.4863 249.586C95.0723 249.332 95.6875 249.195 96.3516 249.195C97.3281 249.195 98.1191 249.469 98.7344 249.996C99.3398 250.533 99.6523 251.168 99.6523 251.9ZM111.557 257.701V261.402H110.16V259H102.455V261.402H101.059V257.701H101.752C101.791 257.662 101.85 257.604 101.928 257.506C102.006 257.408 102.152 257.193 102.348 256.861C102.543 256.529 102.709 256.178 102.865 255.787C103.021 255.396 103.158 254.879 103.275 254.234C103.393 253.59 103.461 252.906 103.461 252.203V249.4H110.053V257.701H111.557ZM104.857 250.699L104.848 252.203C104.848 253.297 104.721 254.303 104.447 255.211C104.184 256.129 103.92 256.773 103.656 257.145L103.256 257.701H108.656V250.699H104.857ZM115.854 253.502L119.555 252.896C119.555 252.193 119.33 251.617 118.881 251.168C118.432 250.729 117.855 250.504 117.152 250.504C116.645 250.504 116.166 250.621 115.717 250.855C115.268 251.09 114.945 251.324 114.75 251.559L114.447 251.9L113.549 251.002C113.588 250.953 113.637 250.885 113.705 250.807C113.773 250.729 113.92 250.582 114.154 250.377C114.389 250.172 114.633 249.986 114.887 249.82C115.141 249.664 115.473 249.518 115.883 249.391C116.293 249.264 116.723 249.195 117.152 249.195C118.246 249.195 119.145 249.557 119.867 250.26C120.59 250.973 120.951 251.852 120.951 252.896V259H119.555V257.701C119.525 257.74 119.486 257.799 119.428 257.867C119.369 257.936 119.252 258.053 119.057 258.229C118.861 258.404 118.656 258.551 118.441 258.688C118.217 258.824 117.924 258.941 117.562 259.039C117.201 259.146 116.83 259.195 116.449 259.195C115.492 259.195 114.682 258.912 114.027 258.346C113.373 257.779 113.051 257.135 113.051 256.402C113.051 255.602 113.285 254.957 113.773 254.469C114.252 253.98 114.945 253.658 115.854 253.502ZM116.449 257.896C117.348 257.896 118.09 257.604 118.676 257.008C119.262 256.422 119.555 255.65 119.555 254.703V254.098L116.254 254.703C115.053 254.938 114.447 255.504 114.447 256.402C114.447 256.832 114.623 257.193 114.975 257.477C115.326 257.76 115.824 257.896 116.449 257.896ZM122.943 250.699V249.4H131.137V250.699H127.738V259H126.342V250.699H122.943ZM134.545 257.701H137.064C137.689 257.701 138.188 257.525 138.568 257.174C138.949 256.822 139.145 256.363 139.145 255.797C139.145 255.24 138.949 254.781 138.568 254.43C138.188 254.078 137.68 253.902 137.045 253.902H134.545V257.701ZM140.541 255.807C140.541 256.764 140.229 257.535 139.613 258.121C138.988 258.707 138.139 259 137.064 259H133.148V249.4H134.545V252.604H137.045C138.119 252.604 138.979 252.896 139.604 253.482C140.229 254.068 140.541 254.85 140.541 255.807ZM30.0234 284.396L30.5215 283L26.6152 273.4H28.1191L31.2246 281.203L34.3203 273.4H35.8242L31.4199 284.396C31.0195 285.412 30.5898 286.135 30.1406 286.564C29.6816 286.994 29.1055 287.199 28.4121 287.199C28.1973 287.199 27.9922 287.189 27.7969 287.15C27.6016 287.121 27.4453 287.082 27.3477 287.043L27.2109 287.004V285.695C27.543 285.832 27.875 285.9 28.207 285.9C29.0566 285.9 29.6621 285.402 30.0234 284.396ZM44.125 273.4V274.699H39.125V283H37.7285V273.4H44.125ZM46.9277 273.4L53.9297 273.41V283.01H52.5234V274.709H48.3242V276.213C48.3242 277.619 48.2461 278.801 48.1094 279.738C47.9727 280.676 47.7578 281.398 47.4844 281.887C47.2012 282.375 46.8887 282.717 46.5566 282.912C46.2148 283.107 45.8047 283.205 45.3262 283.205C45.1602 283.205 44.9941 283.186 44.8281 283.156C44.6621 283.117 44.5449 283.088 44.4668 283.049L44.3301 283.01V281.613C44.5938 281.74 44.8574 281.809 45.1309 281.809C45.541 281.809 45.8633 281.691 46.0977 281.457C46.332 281.223 46.5273 280.676 46.6836 279.836C46.8398 278.986 46.9277 277.775 46.9277 276.203V273.4ZM65.6191 278.723L57.8164 278.703C57.8652 279.572 58.2168 280.324 58.8809 280.949C59.5449 281.584 60.3164 281.896 61.2148 281.896C61.8105 281.896 62.3672 281.77 62.8848 281.496C63.3926 281.232 63.7637 280.969 63.9785 280.695L64.3203 280.305L65.2188 281.203C65.1797 281.262 65.1211 281.33 65.043 281.428C64.9648 281.525 64.8086 281.682 64.5547 281.906C64.3008 282.131 64.0371 282.326 63.7441 282.502C63.4512 282.678 63.0801 282.834 62.6211 282.98C62.1621 283.127 61.6934 283.195 61.2148 283.195C59.9062 283.195 58.7734 282.717 57.8359 281.74C56.8887 280.764 56.4199 279.582 56.4199 278.195C56.4199 276.809 56.8789 275.637 57.8164 274.66C58.7539 273.684 59.8477 273.195 61.1172 273.195C62.4258 273.195 63.5195 273.654 64.3984 274.562C65.2773 275.471 65.7168 276.613 65.7168 278L65.6191 278.723ZM61.1172 274.504C60.2773 274.504 59.5449 274.807 58.9199 275.393C58.2949 275.988 57.9238 276.691 57.8164 277.502H64.3203C64.2129 276.643 63.8613 275.92 63.2656 275.354C62.6699 274.787 61.957 274.504 61.1172 274.504ZM69.6133 278.205C69.6133 279.191 69.9551 280.051 70.6582 280.793C71.3613 281.535 72.1426 281.896 73.0117 281.896C73.832 281.896 74.5742 281.545 75.2285 280.822C75.8828 280.1 76.2148 279.23 76.2148 278.205C76.2148 277.18 75.8828 276.311 75.2285 275.588C74.5742 274.865 73.832 274.504 73.0117 274.504C72.1426 274.504 71.3613 274.875 70.6582 275.617C69.9551 276.359 69.6133 277.219 69.6133 278.205ZM69.6133 281.496V287.209H68.2168V273.41H69.6133V274.914C69.6328 274.875 69.6816 274.807 69.75 274.729C69.8184 274.65 69.9551 274.514 70.1699 274.318C70.3848 274.123 70.6094 273.947 70.8633 273.791C71.1074 273.635 71.4199 273.498 71.8105 273.381C72.2012 273.264 72.6016 273.205 73.0117 273.205C74.2324 273.205 75.3066 273.693 76.2246 274.68C77.1426 275.656 77.6113 276.838 77.6113 278.205C77.6113 279.572 77.1523 280.754 76.2344 281.73C75.3164 282.707 74.2422 283.195 73.0117 283.195C72.6016 283.195 72.2012 283.137 71.8203 283.02C71.4395 282.902 71.1172 282.766 70.8633 282.6C70.5996 282.443 70.375 282.277 70.1797 282.111C69.9844 281.945 69.8477 281.799 69.75 281.682L69.6133 281.496ZM87.8066 278.205C87.8066 277.17 87.4551 276.291 86.7715 275.578C86.0879 274.865 85.2578 274.504 84.3008 274.504C83.3438 274.504 82.5137 274.865 81.8301 275.578C81.1465 276.291 80.8047 277.16 80.8047 278.195C80.8047 279.23 81.1465 280.1 81.8301 280.822C82.5137 281.545 83.3438 281.896 84.3008 281.896C85.2578 281.896 86.0879 281.545 86.7715 280.832C87.4551 280.119 87.8066 279.24 87.8066 278.205ZM79.4082 278.205C79.4082 276.799 79.877 275.617 80.834 274.65C81.791 273.684 82.9434 273.195 84.3105 273.195C85.668 273.195 86.8203 273.684 87.7676 274.65C88.7246 275.617 89.1934 276.799 89.1934 278.205C89.1934 279.611 88.7246 280.793 87.7676 281.76C86.8203 282.717 85.668 283.205 84.3105 283.205C82.9434 283.205 81.791 282.717 80.834 281.76C79.877 280.793 79.4082 279.611 79.4082 278.205ZM100.609 281.701V285.402H99.2129V283H91.5078V285.402H90.1113V281.701H90.8047C90.8438 281.662 90.9023 281.604 90.9805 281.506C91.0586 281.408 91.2051 281.193 91.4004 280.861C91.5957 280.529 91.7617 280.178 91.918 279.787C92.0742 279.396 92.2109 278.879 92.3281 278.234C92.4453 277.59 92.5137 276.906 92.5137 276.203V273.4H99.1055V281.701H100.609ZM93.9102 274.699L93.9004 276.203C93.9004 277.297 93.7734 278.303 93.5 279.211C93.2363 280.129 92.9727 280.773 92.709 281.145L92.3086 281.701H97.709V274.699H93.9102ZM109.701 283V278.801H104.203V283H102.807V273.4H104.203V277.502H109.701V273.4H111.107V283H109.701ZM124.809 273.4V283H123.402V273.4H124.809ZM115.707 281.701H118.129C118.754 281.701 119.252 281.525 119.633 281.174C120.014 280.822 120.209 280.363 120.209 279.797C120.209 279.24 120.014 278.781 119.633 278.43C119.252 278.078 118.744 277.902 118.109 277.902H115.707V281.701ZM121.605 279.807C121.605 280.764 121.293 281.535 120.678 282.121C120.053 282.707 119.203 283 118.129 283H114.311V273.4H115.707V276.604H118.109C119.184 276.604 120.043 276.896 120.668 277.482C121.293 278.068 121.605 278.85 121.605 279.807ZM132.201 270.695C132.709 270.695 133.1 270.549 133.383 270.256C133.656 269.963 133.803 269.543 133.803 268.996H134.896C134.896 269.797 134.643 270.451 134.145 270.949C133.646 271.457 133.002 271.701 132.201 271.701C131.4 271.701 130.746 271.457 130.248 270.949C129.74 270.451 129.496 269.797 129.496 268.996H130.6C130.6 269.543 130.736 269.963 131.02 270.256C131.293 270.549 131.693 270.695 132.201 270.695ZM135.199 273.4H136.4V283H134.994V275.803L129.193 283H128.002V273.4H129.398V280.598L135.199 273.4ZM142.709 278.195C142.709 276.809 143.178 275.637 144.125 274.66C145.072 273.684 146.195 273.195 147.494 273.195C148.246 273.195 148.949 273.361 149.594 273.684C150.238 274.006 150.707 274.328 150.98 274.641L151.4 275.1L150.395 276.096C150.375 276.057 150.336 276.008 150.277 275.93C150.229 275.861 150.111 275.734 149.936 275.539C149.76 275.354 149.564 275.188 149.359 275.051C149.145 274.914 148.881 274.787 148.549 274.67C148.217 274.562 147.865 274.504 147.504 274.504C146.586 274.504 145.785 274.865 145.111 275.578C144.438 276.291 144.105 277.17 144.105 278.205C144.105 279.24 144.438 280.119 145.111 280.832C145.785 281.545 146.586 281.896 147.504 281.896C148.061 281.896 148.588 281.77 149.096 281.496C149.594 281.232 149.955 280.969 150.18 280.695L150.502 280.305L151.498 281.203C151.459 281.262 151.4 281.33 151.322 281.428C151.244 281.525 151.068 281.682 150.805 281.906C150.551 282.131 150.277 282.326 149.984 282.502C149.701 282.678 149.33 282.834 148.881 282.98C148.432 283.127 147.973 283.195 147.504 283.195C146.195 283.195 145.062 282.717 144.125 281.74C143.178 280.764 142.709 279.582 142.709 278.195ZM154.701 273.4L161.703 273.41V283.01H160.297V274.709H156.098V276.213C156.098 277.619 156.02 278.801 155.883 279.738C155.746 280.676 155.531 281.398 155.258 281.887C154.975 282.375 154.662 282.717 154.33 282.912C153.988 283.107 153.578 283.205 153.1 283.205C152.934 283.205 152.768 283.186 152.602 283.156C152.436 283.117 152.318 283.088 152.24 283.049L152.104 283.01V281.613C152.367 281.74 152.631 281.809 152.904 281.809C153.314 281.809 153.637 281.691 153.871 281.457C154.105 281.223 154.301 280.676 154.457 279.836C154.613 278.986 154.701 277.775 154.701 276.203V273.4ZM173.393 278.723L165.59 278.703C165.639 279.572 165.99 280.324 166.654 280.949C167.318 281.584 168.09 281.896 168.988 281.896C169.584 281.896 170.141 281.77 170.658 281.496C171.166 281.232 171.537 280.969 171.752 280.695L172.094 280.305L172.992 281.203C172.953 281.262 172.895 281.33 172.816 281.428C172.738 281.525 172.582 281.682 172.328 281.906C172.074 282.131 171.811 282.326 171.518 282.502C171.225 282.678 170.854 282.834 170.395 282.98C169.936 283.127 169.467 283.195 168.988 283.195C167.68 283.195 166.547 282.717 165.609 281.74C164.662 280.764 164.193 279.582 164.193 278.195C164.193 276.809 164.652 275.637 165.59 274.66C166.527 273.684 167.621 273.195 168.891 273.195C170.199 273.195 171.293 273.654 172.172 274.562C173.051 275.471 173.49 276.613 173.49 278L173.393 278.723ZM168.891 274.504C168.051 274.504 167.318 274.807 166.693 275.393C166.068 275.988 165.697 276.691 165.59 277.502H172.094C171.986 276.643 171.635 275.92 171.039 275.354C170.443 274.787 169.73 274.504 168.891 274.504ZM184.887 281.701V285.402H183.49V283H175.785V285.402H174.389V281.701H175.082C175.121 281.662 175.18 281.604 175.258 281.506C175.336 281.408 175.482 281.193 175.678 280.861C175.873 280.529 176.039 280.178 176.195 279.787C176.352 279.396 176.488 278.879 176.605 278.234C176.723 277.59 176.791 276.906 176.791 276.203V273.4H183.383V281.701H184.887ZM178.188 274.699L178.178 276.203C178.178 277.297 178.051 278.303 177.777 279.211C177.514 280.129 177.25 280.773 176.986 281.145L176.586 281.701H181.986V274.699H178.188Z" fill="#1D1717"/>
<path d="M75.1602 229.238H171.225V230.234H75.1602V229.238Z" fill="#1D1717"/>
<path d="M0 10C0 4.47715 4.47715 0 10 0H202C207.523 0 212 4.47715 212 10V50H0V10Z" fill="#FFC9C9"/>
<path d="M76.1094 85.1992L79.9082 76.9961H81.5098L76.3047 87.9043C75.7285 89.1055 75.1426 89.9551 74.5566 90.4531C73.9609 90.9512 73.1797 91.1953 72.2031 91.1953C71.9883 91.1953 71.7734 91.1855 71.5586 91.1465C71.3438 91.1172 71.1875 91.0781 71.0898 91.0391L70.9043 91V89.6035C71.2363 89.7402 71.6367 89.7988 72.1055 89.7988C72.7305 89.7988 73.2188 89.6621 73.5898 89.3691C73.9609 89.0859 74.332 88.5977 74.7031 87.9043L75.3086 86.8008C74.8789 85.9902 74.0586 84.457 72.8672 82.2109C71.666 79.9648 70.748 78.2266 70.1035 76.9961H71.7051L76.1094 85.1992ZM87.9062 83.9004C87.9062 84.2227 87.8477 84.5156 87.75 84.7793C87.6523 85.0332 87.5254 85.2383 87.3789 85.3848C87.2324 85.5312 87.0859 85.6582 86.9297 85.7559C86.7734 85.8535 86.6562 85.9316 86.5586 85.9707L86.4023 86.0098C86.4512 86.0195 86.5195 86.0391 86.6074 86.0586C86.6953 86.0781 86.8418 86.1367 87.0566 86.2441C87.2715 86.3516 87.457 86.4785 87.623 86.6348C87.7891 86.791 87.9453 87.0156 88.082 87.3086C88.2188 87.6016 88.2969 87.9336 88.2969 88.3145C88.2969 89.125 87.9746 89.8086 87.3398 90.3652C86.6953 90.9219 85.7871 91.2051 84.6055 91.2051C84.1465 91.2051 83.7168 91.1465 83.3066 91.0293C82.8965 90.9121 82.5645 90.7656 82.291 90.6094C82.0176 90.4434 81.7734 90.2773 81.5781 90.1113C81.3828 89.9453 81.2363 89.8086 81.1387 89.6914L81.002 89.5059L81.9004 88.6074C81.9785 88.6953 82.0859 88.8125 82.2227 88.959C82.3594 89.1152 82.6719 89.3105 83.1406 89.5449C83.6094 89.7793 84.0977 89.8965 84.6055 89.8965C85.3672 89.8965 85.9336 89.75 86.3242 89.457C86.7051 89.1641 86.9004 88.7832 86.9004 88.3047C86.9004 87.8262 86.7051 87.4355 86.3145 87.1426C85.9238 86.8496 85.3574 86.7031 84.6055 86.7031H83.502V85.4043H84.6055C85.1719 85.4043 85.6309 85.2578 85.9824 84.9648C86.3242 84.6719 86.5 84.3105 86.5 83.9004C86.5 83.4902 86.334 83.1484 86.0215 82.8945C85.6992 82.6406 85.2305 82.5137 84.6055 82.5137C84.1562 82.5137 83.7363 82.6016 83.3359 82.7773C82.9355 82.9531 82.6523 83.1387 82.4863 83.3242L82.2031 83.5977L81.1973 82.6016C81.2852 82.5039 81.4219 82.3672 81.5977 82.2109C81.7734 82.0547 82.1543 81.8496 82.7402 81.5859C83.3262 81.332 83.9414 81.1953 84.6055 81.1953C85.582 81.1953 86.373 81.4688 86.9883 81.9961C87.5938 82.5332 87.9062 83.168 87.9062 83.9004ZM97.8086 91V86.8008H92.3105V91H90.9141V81.4004H92.3105V85.502H97.8086V81.4004H99.2148V91H97.8086ZM104.518 85.502L108.219 84.8965C108.219 84.1934 107.994 83.6172 107.545 83.168C107.096 82.7285 106.52 82.5039 105.816 82.5039C105.309 82.5039 104.83 82.6211 104.381 82.8555C103.932 83.0898 103.609 83.3242 103.414 83.5586L103.111 83.9004L102.213 83.002C102.252 82.9531 102.301 82.8848 102.369 82.8066C102.438 82.7285 102.584 82.582 102.818 82.377C103.053 82.1719 103.297 81.9863 103.551 81.8203C103.805 81.6641 104.137 81.5176 104.547 81.3906C104.957 81.2637 105.387 81.1953 105.816 81.1953C106.91 81.1953 107.809 81.5566 108.531 82.2598C109.254 82.9727 109.615 83.8516 109.615 84.8965V91H108.219V89.7012C108.189 89.7402 108.15 89.7988 108.092 89.8672C108.033 89.9355 107.916 90.0527 107.721 90.2285C107.525 90.4043 107.32 90.5508 107.105 90.6875C106.881 90.8242 106.588 90.9414 106.227 91.0391C105.865 91.1465 105.494 91.1953 105.113 91.1953C104.156 91.1953 103.346 90.9121 102.691 90.3457C102.037 89.7793 101.715 89.1348 101.715 88.4023C101.715 87.6016 101.949 86.957 102.438 86.4688C102.916 85.9805 103.609 85.6582 104.518 85.502ZM105.113 89.8965C106.012 89.8965 106.754 89.6035 107.34 89.0078C107.926 88.4219 108.219 87.6504 108.219 86.7031V86.0977L104.918 86.7031C103.717 86.9375 103.111 87.5039 103.111 88.4023C103.111 88.832 103.287 89.1934 103.639 89.4766C103.99 89.7598 104.488 89.8965 105.113 89.8965ZM113.805 81.4004L120.807 81.4102V91.0098H119.4V82.709H115.201V84.2129C115.201 85.6191 115.123 86.8008 114.986 87.7383C114.85 88.6758 114.635 89.3984 114.361 89.8867C114.078 90.375 113.766 90.7168 113.434 90.9121C113.092 91.1074 112.682 91.2051 112.203 91.2051C112.037 91.2051 111.871 91.1855 111.705 91.1562C111.539 91.1172 111.422 91.0879 111.344 91.0488L111.207 91.0098V89.6133C111.471 89.7402 111.734 89.8086 112.008 89.8086C112.418 89.8086 112.74 89.6914 112.975 89.457C113.209 89.2227 113.404 88.6758 113.561 87.8359C113.717 86.9863 113.805 85.7754 113.805 84.2031V81.4004ZM131.197 81.4004H132.398V91H130.992V83.8027L125.191 91H124V81.4004H125.396V88.5977L131.197 81.4004ZM135.895 89.2031L137.301 90.0039L134.996 93.5977L134.098 93.0996L135.895 89.2031Z" fill="#1D1717"/>
<g clip-path="url(#clip0_1_1266)">
<path d="M149.785 190.145C150.817 194.461 148.086 198.766 143.722 199.576C142.823 199.743 141.924 199.741 141.06 199.595C138.812 199.211 136.519 199.223 134.305 199.74L133.709 199.879C131.43 200.412 129.288 201.4 127.397 202.779C126.503 203.429 125.451 203.898 124.281 204.114C120.381 204.835 116.493 202.404 115.387 198.55C114.657 196.009 115.251 193.439 116.737 191.55C118.873 188.836 120.011 185.451 120.1 181.974C120.202 177.935 121.643 173.367 127.253 172.059C132.804 170.764 136.166 174.229 138.104 177.799C139.783 180.893 142.415 183.349 145.564 184.881C147.608 185.876 149.212 187.754 149.784 190.145L149.785 190.145Z" fill="#F76742"/>
<path d="M108.586 174.667C105.411 175.408 103.591 179.164 104.522 183.057C105.453 186.949 108.781 189.504 111.956 188.763C115.131 188.021 116.951 184.265 116.02 180.373C115.089 176.48 111.761 173.926 108.586 174.667Z" fill="#F76742"/>
<path d="M115.729 156.806C112.554 157.547 110.735 161.303 111.666 165.196C112.597 169.088 115.925 171.643 119.1 170.902C122.275 170.16 124.094 166.404 123.163 162.512C122.233 158.619 118.904 156.065 115.729 156.806Z" fill="#F76742"/>
<path d="M145.127 166.139C141.952 166.88 140.133 170.636 141.064 174.529C141.995 178.421 145.323 180.976 148.498 180.235C151.673 179.493 153.492 175.737 152.561 171.845C151.63 167.952 148.302 165.398 145.127 166.139Z" fill="#F76742"/>
<path d="M130.649 153.325C127.474 154.066 125.655 157.822 126.586 161.715C127.517 165.607 130.845 168.162 134.02 167.42C137.195 166.679 139.014 162.923 138.083 159.031C137.152 155.138 133.824 152.583 130.649 153.325Z" fill="#F76742"/>
</g>
<g clip-path="url(#clip1_1_1266)">
<path d="M87.5453 159.23C86.4207 163.523 81.9826 166.033 77.7514 164.69C76.8806 164.413 76.0882 163.988 75.3956 163.452C73.5932 162.053 71.5662 160.983 69.3694 160.395L68.7788 160.237C66.5175 159.632 64.163 159.494 61.8449 159.819C60.7502 159.971 59.6011 159.889 58.4676 159.527C54.6885 158.325 52.405 154.348 53.2462 150.428C53.8 147.843 55.536 145.857 57.7373 144.891C60.9003 143.504 63.499 141.055 65.2171 138.031C67.2108 134.517 70.635 131.167 76.1988 132.659C81.7056 134.133 83.037 138.774 83.0632 142.836C83.0848 146.356 84.2482 149.763 86.3034 152.598C87.6367 154.439 88.1672 156.851 87.5434 159.23L87.5453 159.23Z" fill="#F76742"/>
<path d="M58.5066 126.158C55.3572 125.315 51.982 127.771 50.968 131.642C49.954 135.514 51.6851 139.336 54.8345 140.179C57.984 141.022 61.3591 138.567 62.3731 134.695C63.3872 130.823 61.656 127.001 58.5066 126.158Z" fill="#F76742"/>
<path d="M73.2263 113.774C70.0769 112.931 66.7018 115.386 65.6877 119.258C64.6737 123.129 66.4048 126.951 69.5543 127.794C72.7037 128.637 76.0789 126.182 77.0929 122.31C78.1069 118.439 76.3758 114.617 73.2263 113.774Z" fill="#F76742"/>
<path d="M94.7532 135.863C91.6038 135.02 88.2286 137.475 87.2146 141.347C86.2006 145.218 87.9317 149.04 91.0811 149.883C94.2306 150.726 97.6057 148.271 98.6197 144.4C99.6337 140.528 97.9026 136.706 94.7532 135.863Z" fill="#F76742"/>
<path d="M88.0257 117.737C84.8762 116.894 81.5011 119.349 80.4871 123.221C79.4731 127.093 81.2042 130.915 84.3536 131.758C87.503 132.601 90.8782 130.145 91.8922 126.274C92.9062 122.402 91.1751 118.58 88.0257 117.737Z" fill="#F76742"/>
</g>
<defs>
<clipPath id="clip0_1_1266">
<rect width="51.1946" height="48.4642" fill="white" transform="translate(118.819 212.301) rotate(-116.455)"/>
</clipPath>
<clipPath id="clip1_1_1266">
<rect width="51.1946" height="48.4642" fill="white" transform="translate(49.7915 164.173) rotate(-88.3299)"/>
</clipPath>
</defs>
</svg>
