<svg width="212" height="299" viewBox="0 0 212 299" fill="none" xmlns="http://www.w3.org/2000/svg">
<rect width="212" height="299" rx="10" fill="#FAFAFA"/>
<path d="M55.1035 232.305V235H53.707V225.4H55.1035V230.498L59.8984 225.4H61.6074L57.9062 229.297L62.0078 235H60.4062L57.0078 230.303L55.1035 232.305ZM65.9043 229.502L69.6055 228.896C69.6055 228.193 69.3809 227.617 68.9316 227.168C68.4824 226.729 67.9062 226.504 67.2031 226.504C66.6953 226.504 66.2168 226.621 65.7676 226.855C65.3184 227.09 64.9961 227.324 64.8008 227.559L64.498 227.9L63.5996 227.002C63.6387 226.953 63.6875 226.885 63.7559 226.807C63.8242 226.729 63.9707 226.582 64.2051 226.377C64.4395 226.172 64.6836 225.986 64.9375 225.82C65.1914 225.664 65.5234 225.518 65.9336 225.391C66.3438 225.264 66.7734 225.195 67.2031 225.195C68.2969 225.195 69.1953 225.557 69.918 226.26C70.6406 226.973 71.002 227.852 71.002 228.896V235H69.6055V233.701C69.5762 233.74 69.5371 233.799 69.4785 233.867C69.4199 233.936 69.3027 234.053 69.1074 234.229C68.9121 234.404 68.707 234.551 68.4922 234.688C68.2676 234.824 67.9746 234.941 67.6133 235.039C67.252 235.146 66.8809 235.195 66.5 235.195C65.543 235.195 64.7324 234.912 64.0781 234.346C63.4238 233.779 63.1016 233.135 63.1016 232.402C63.1016 231.602 63.3359 230.957 63.8242 230.469C64.3027 229.98 64.9961 229.658 65.9043 229.502ZM66.5 233.896C67.3984 233.896 68.1406 233.604 68.7266 233.008C69.3125 232.422 69.6055 231.65 69.6055 230.703V230.098L66.3047 230.703C65.1035 230.938 64.498 231.504 64.498 232.402C64.498 232.832 64.6738 233.193 65.0254 233.477C65.377 233.76 65.875 233.896 66.5 233.896ZM75.5918 232.305V235H74.1953V225.4H75.5918V230.498L80.3867 225.4H82.0957L78.3945 229.297L82.4961 235H80.8945L77.4961 230.303L75.5918 232.305ZM93.9023 227.9C93.9023 228.223 93.8438 228.516 93.7461 228.779C93.6484 229.033 93.5215 229.238 93.375 229.385C93.2285 229.531 93.082 229.658 92.9258 229.756C92.7695 229.854 92.6523 229.932 92.5547 229.971L92.3984 230.01C92.4473 230.02 92.5156 230.039 92.6035 230.059C92.6914 230.078 92.8379 230.137 93.0527 230.244C93.2676 230.352 93.4531 230.479 93.6191 230.635C93.7852 230.791 93.9414 231.016 94.0781 231.309C94.2148 231.602 94.293 231.934 94.293 232.314C94.293 233.125 93.9707 233.809 93.3359 234.365C92.6914 234.922 91.7832 235.205 90.6016 235.205C90.1426 235.205 89.7129 235.146 89.3027 235.029C88.8926 234.912 88.5605 234.766 88.2871 234.609C88.0137 234.443 87.7695 234.277 87.5742 234.111C87.3789 233.945 87.2324 233.809 87.1348 233.691L86.998 233.506L87.8965 232.607C87.9746 232.695 88.082 232.812 88.2188 232.959C88.3555 233.115 88.668 233.311 89.1367 233.545C89.6055 233.779 90.0938 233.896 90.6016 233.896C91.3633 233.896 91.9297 233.75 92.3203 233.457C92.7012 233.164 92.8965 232.783 92.8965 232.305C92.8965 231.826 92.7012 231.436 92.3105 231.143C91.9199 230.85 91.3535 230.703 90.6016 230.703H89.498V229.404H90.6016C91.168 229.404 91.627 229.258 91.9785 228.965C92.3203 228.672 92.4961 228.311 92.4961 227.9C92.4961 227.49 92.3301 227.148 92.0176 226.895C91.6953 226.641 91.2266 226.514 90.6016 226.514C90.1523 226.514 89.7324 226.602 89.332 226.777C88.9316 226.953 88.6484 227.139 88.4824 227.324L88.1992 227.598L87.1934 226.602C87.2812 226.504 87.418 226.367 87.5938 226.211C87.7695 226.055 88.1504 225.85 88.7363 225.586C89.3223 225.332 89.9375 225.195 90.6016 225.195C91.5781 225.195 92.3691 225.469 92.9844 225.996C93.5898 226.533 93.9023 227.168 93.9023 227.9ZM99.0098 229.502L102.711 228.896C102.711 228.193 102.486 227.617 102.037 227.168C101.588 226.729 101.012 226.504 100.309 226.504C99.8008 226.504 99.3223 226.621 98.873 226.855C98.4238 227.09 98.1016 227.324 97.9062 227.559L97.6035 227.9L96.7051 227.002C96.7441 226.953 96.793 226.885 96.8613 226.807C96.9297 226.729 97.0762 226.582 97.3105 226.377C97.5449 226.172 97.7891 225.986 98.043 225.82C98.2969 225.664 98.6289 225.518 99.0391 225.391C99.4492 225.264 99.8789 225.195 100.309 225.195C101.402 225.195 102.301 225.557 103.023 226.26C103.746 226.973 104.107 227.852 104.107 228.896V235H102.711V233.701C102.682 233.74 102.643 233.799 102.584 233.867C102.525 233.936 102.408 234.053 102.213 234.229C102.018 234.404 101.812 234.551 101.598 234.688C101.373 234.824 101.08 234.941 100.719 235.039C100.357 235.146 99.9863 235.195 99.6055 235.195C98.6484 235.195 97.8379 234.912 97.1836 234.346C96.5293 233.779 96.207 233.135 96.207 232.402C96.207 231.602 96.4414 230.957 96.9297 230.469C97.4082 229.98 98.1016 229.658 99.0098 229.502ZM99.6055 233.896C100.504 233.896 101.246 233.604 101.832 233.008C102.418 232.422 102.711 231.65 102.711 230.703V230.098L99.4102 230.703C98.209 230.938 97.6035 231.504 97.6035 232.402C97.6035 232.832 97.7793 233.193 98.1309 233.477C98.4824 233.76 98.9805 233.896 99.6055 233.896ZM115.699 227.9L112.193 232.305L108.697 227.9V235H107.301V225.4H108.395L112.193 230.195L115.992 225.4H117.096V235H115.699V227.9ZM128.805 230.723L121.002 230.703C121.051 231.572 121.402 232.324 122.066 232.949C122.73 233.584 123.502 233.896 124.4 233.896C124.996 233.896 125.553 233.77 126.07 233.496C126.578 233.232 126.949 232.969 127.164 232.695L127.506 232.305L128.404 233.203C128.365 233.262 128.307 233.33 128.229 233.428C128.15 233.525 127.994 233.682 127.74 233.906C127.486 234.131 127.223 234.326 126.93 234.502C126.637 234.678 126.266 234.834 125.807 234.98C125.348 235.127 124.879 235.195 124.4 235.195C123.092 235.195 121.959 234.717 121.021 233.74C120.074 232.764 119.605 231.582 119.605 230.195C119.605 228.809 120.064 227.637 121.002 226.66C121.939 225.684 123.033 225.195 124.303 225.195C125.611 225.195 126.705 225.654 127.584 226.562C128.463 227.471 128.902 228.613 128.902 230L128.805 230.723ZM124.303 226.504C123.463 226.504 122.73 226.807 122.105 227.393C121.48 227.988 121.109 228.691 121.002 229.502H127.506C127.398 228.643 127.047 227.92 126.451 227.354C125.855 226.787 125.143 226.504 124.303 226.504ZM130.699 230.195C130.699 228.809 131.168 227.637 132.115 226.66C133.062 225.684 134.186 225.195 135.484 225.195C136.236 225.195 136.939 225.361 137.584 225.684C138.229 226.006 138.697 226.328 138.971 226.641L139.391 227.1L138.385 228.096C138.365 228.057 138.326 228.008 138.268 227.93C138.219 227.861 138.102 227.734 137.926 227.539C137.75 227.354 137.555 227.188 137.35 227.051C137.135 226.914 136.871 226.787 136.539 226.67C136.207 226.562 135.855 226.504 135.494 226.504C134.576 226.504 133.775 226.865 133.102 227.578C132.428 228.291 132.096 229.17 132.096 230.205C132.096 231.24 132.428 232.119 133.102 232.832C133.775 233.545 134.576 233.896 135.494 233.896C136.051 233.896 136.578 233.77 137.086 233.496C137.584 233.232 137.945 232.969 138.17 232.695L138.492 232.305L139.488 233.203C139.449 233.262 139.391 233.33 139.312 233.428C139.234 233.525 139.059 233.682 138.795 233.906C138.541 234.131 138.268 234.326 137.975 234.502C137.691 234.678 137.32 234.834 136.871 234.98C136.422 235.127 135.963 235.195 135.494 235.195C134.186 235.195 133.053 234.717 132.115 233.74C131.168 232.764 130.699 231.582 130.699 230.195ZM140.494 226.699V225.4H148.688V226.699H145.289V235H143.893V226.699H140.494ZM157.896 225.4H159.098V235H157.691V227.803L151.891 235H150.699V225.4H152.096V232.598L157.896 225.4ZM60.4062 254.195C60.4062 252.809 60.875 251.637 61.8223 250.66C62.7695 249.684 63.8926 249.195 65.1914 249.195C65.9434 249.195 66.6465 249.361 67.291 249.684C67.9355 250.006 68.4043 250.328 68.6777 250.641L69.0977 251.1L68.0918 252.096C68.0723 252.057 68.0332 252.008 67.9746 251.93C67.9258 251.861 67.8086 251.734 67.6328 251.539C67.457 251.354 67.2617 251.188 67.0566 251.051C66.8418 250.914 66.5781 250.787 66.2461 250.67C65.9141 250.562 65.5625 250.504 65.2012 250.504C64.2832 250.504 63.4824 250.865 62.8086 251.578C62.1348 252.291 61.8027 253.17 61.8027 254.205C61.8027 255.24 62.1348 256.119 62.8086 256.832C63.4824 257.545 64.2832 257.896 65.2012 257.896C65.7578 257.896 66.2852 257.77 66.793 257.496C67.291 257.232 67.6523 256.969 67.877 256.695L68.1992 256.305L69.1953 257.203C69.1562 257.262 69.0977 257.33 69.0195 257.428C68.9414 257.525 68.7656 257.682 68.502 257.906C68.248 258.131 67.9746 258.326 67.6816 258.502C67.3984 258.678 67.0273 258.834 66.5781 258.98C66.1289 259.127 65.6699 259.195 65.2012 259.195C63.8926 259.195 62.7598 258.717 61.8223 257.74C60.875 256.764 60.4062 255.582 60.4062 254.195ZM79.0977 254.205C79.0977 253.17 78.7461 252.291 78.0625 251.578C77.3789 250.865 76.5488 250.504 75.5918 250.504C74.6348 250.504 73.8047 250.865 73.1211 251.578C72.4375 252.291 72.0957 253.16 72.0957 254.195C72.0957 255.23 72.4375 256.1 73.1211 256.822C73.8047 257.545 74.6348 257.896 75.5918 257.896C76.5488 257.896 77.3789 257.545 78.0625 256.832C78.7461 256.119 79.0977 255.24 79.0977 254.205ZM70.6992 254.205C70.6992 252.799 71.168 251.617 72.125 250.65C73.082 249.684 74.2344 249.195 75.6016 249.195C76.959 249.195 78.1113 249.684 79.0586 250.65C80.0156 251.617 80.4844 252.799 80.4844 254.205C80.4844 255.611 80.0156 256.793 79.0586 257.76C78.1113 258.717 76.959 259.205 75.6016 259.205C74.2344 259.205 73.082 258.717 72.125 257.76C71.168 256.793 70.6992 255.611 70.6992 254.205ZM84.4004 256.305V259H83.0039V249.4H84.4004V254.498L89.1953 249.4H90.9043L87.2031 253.297L91.3047 259H89.7031L86.3047 254.303L84.4004 256.305ZM94.498 254.205C94.498 255.191 94.8398 256.051 95.543 256.793C96.2461 257.535 97.0273 257.896 97.8965 257.896C98.7168 257.896 99.459 257.545 100.113 256.822C100.768 256.1 101.1 255.23 101.1 254.205C101.1 253.18 100.768 252.311 100.113 251.588C99.459 250.865 98.7168 250.504 97.8965 250.504C97.0273 250.504 96.2461 250.875 95.543 251.617C94.8398 252.359 94.498 253.219 94.498 254.205ZM94.498 257.496V263.209H93.1016V249.41H94.498V250.914C94.5176 250.875 94.5664 250.807 94.6348 250.729C94.7031 250.65 94.8398 250.514 95.0547 250.318C95.2695 250.123 95.4941 249.947 95.748 249.791C95.9922 249.635 96.3047 249.498 96.6953 249.381C97.0859 249.264 97.4863 249.205 97.8965 249.205C99.1172 249.205 100.191 249.693 101.109 250.68C102.027 251.656 102.496 252.838 102.496 254.205C102.496 255.572 102.037 256.754 101.119 257.73C100.201 258.707 99.127 259.195 97.8965 259.195C97.4863 259.195 97.0859 259.137 96.7051 259.02C96.3242 258.902 96.002 258.766 95.748 258.6C95.4844 258.443 95.2598 258.277 95.0645 258.111C94.8691 257.945 94.7324 257.799 94.6348 257.682L94.498 257.496ZM107.096 253.502L110.797 252.896C110.797 252.193 110.572 251.617 110.123 251.168C109.674 250.729 109.098 250.504 108.395 250.504C107.887 250.504 107.408 250.621 106.959 250.855C106.51 251.09 106.188 251.324 105.992 251.559L105.689 251.9L104.791 251.002C104.83 250.953 104.879 250.885 104.947 250.807C105.016 250.729 105.162 250.582 105.396 250.377C105.631 250.172 105.875 249.986 106.129 249.82C106.383 249.664 106.715 249.518 107.125 249.391C107.535 249.264 107.965 249.195 108.395 249.195C109.488 249.195 110.387 249.557 111.109 250.26C111.832 250.973 112.193 251.852 112.193 252.896V259H110.797V257.701C110.768 257.74 110.729 257.799 110.67 257.867C110.611 257.936 110.494 258.053 110.299 258.229C110.104 258.404 109.898 258.551 109.684 258.688C109.459 258.824 109.166 258.941 108.805 259.039C108.443 259.146 108.072 259.195 107.691 259.195C106.734 259.195 105.924 258.912 105.27 258.346C104.615 257.779 104.293 257.135 104.293 256.402C104.293 255.602 104.527 254.957 105.016 254.469C105.494 253.98 106.188 253.658 107.096 253.502ZM107.691 257.896C108.59 257.896 109.332 257.604 109.918 257.008C110.504 256.422 110.797 255.65 110.797 254.703V254.098L107.496 254.703C106.295 254.938 105.689 255.504 105.689 256.402C105.689 256.832 105.865 257.193 106.217 257.477C106.568 257.76 107.066 257.896 107.691 257.896ZM114.186 250.699V249.4H122.379V250.699H118.98V259H117.584V250.699H114.186ZM131.588 249.4H132.789V259H131.383V251.803L125.582 259H124.391V249.4H125.787V256.598L131.588 249.4ZM134.791 250.699V249.4H142.984V250.699H139.586V259H138.189V250.699H134.791ZM146.393 257.701H148.912C149.537 257.701 150.035 257.525 150.416 257.174C150.797 256.822 150.992 256.363 150.992 255.797C150.992 255.24 150.797 254.781 150.416 254.43C150.035 254.078 149.527 253.902 148.893 253.902H146.393V257.701ZM152.389 255.807C152.389 256.764 152.076 257.535 151.461 258.121C150.836 258.707 149.986 259 148.912 259H144.996V249.4H146.393V252.604H148.893C149.967 252.604 150.826 252.896 151.451 253.482C152.076 254.068 152.389 254.85 152.389 255.807ZM30.5234 284.396L31.0215 283L27.1152 273.4H28.6191L31.7246 281.203L34.8203 273.4H36.3242L31.9199 284.396C31.5195 285.412 31.0898 286.135 30.6406 286.564C30.1816 286.994 29.6055 287.199 28.9121 287.199C28.6973 287.199 28.4922 287.189 28.2969 287.15C28.1016 287.121 27.9453 287.082 27.8477 287.043L27.7109 287.004V285.695C28.043 285.832 28.375 285.9 28.707 285.9C29.5566 285.9 30.1621 285.402 30.5234 284.396ZM44.625 273.4V274.699H39.625V283H38.2285V273.4H44.625ZM47.4277 273.4L54.4297 273.41V283.01H53.0234V274.709H48.8242V276.213C48.8242 277.619 48.7461 278.801 48.6094 279.738C48.4727 280.676 48.2578 281.398 47.9844 281.887C47.7012 282.375 47.3887 282.717 47.0566 282.912C46.7148 283.107 46.3047 283.205 45.8262 283.205C45.6602 283.205 45.4941 283.186 45.3281 283.156C45.1621 283.117 45.0449 283.088 44.9668 283.049L44.8301 283.01V281.613C45.0938 281.74 45.3574 281.809 45.6309 281.809C46.041 281.809 46.3633 281.691 46.5977 281.457C46.832 281.223 47.0273 280.676 47.1836 279.836C47.3398 278.986 47.4277 277.775 47.4277 276.203V273.4ZM66.1191 278.723L58.3164 278.703C58.3652 279.572 58.7168 280.324 59.3809 280.949C60.0449 281.584 60.8164 281.896 61.7148 281.896C62.3105 281.896 62.8672 281.77 63.3848 281.496C63.8926 281.232 64.2637 280.969 64.4785 280.695L64.8203 280.305L65.7188 281.203C65.6797 281.262 65.6211 281.33 65.543 281.428C65.4648 281.525 65.3086 281.682 65.0547 281.906C64.8008 282.131 64.5371 282.326 64.2441 282.502C63.9512 282.678 63.5801 282.834 63.1211 282.98C62.6621 283.127 62.1934 283.195 61.7148 283.195C60.4062 283.195 59.2734 282.717 58.3359 281.74C57.3887 280.764 56.9199 279.582 56.9199 278.195C56.9199 276.809 57.3789 275.637 58.3164 274.66C59.2539 273.684 60.3477 273.195 61.6172 273.195C62.9258 273.195 64.0195 273.654 64.8984 274.562C65.7773 275.471 66.2168 276.613 66.2168 278L66.1191 278.723ZM61.6172 274.504C60.7773 274.504 60.0449 274.807 59.4199 275.393C58.7949 275.988 58.4238 276.691 58.3164 277.502H64.8203C64.7129 276.643 64.3613 275.92 63.7656 275.354C63.1699 274.787 62.457 274.504 61.6172 274.504ZM70.1133 278.205C70.1133 279.191 70.4551 280.051 71.1582 280.793C71.8613 281.535 72.6426 281.896 73.5117 281.896C74.332 281.896 75.0742 281.545 75.7285 280.822C76.3828 280.1 76.7148 279.23 76.7148 278.205C76.7148 277.18 76.3828 276.311 75.7285 275.588C75.0742 274.865 74.332 274.504 73.5117 274.504C72.6426 274.504 71.8613 274.875 71.1582 275.617C70.4551 276.359 70.1133 277.219 70.1133 278.205ZM70.1133 281.496V287.209H68.7168V273.41H70.1133V274.914C70.1328 274.875 70.1816 274.807 70.25 274.729C70.3184 274.65 70.4551 274.514 70.6699 274.318C70.8848 274.123 71.1094 273.947 71.3633 273.791C71.6074 273.635 71.9199 273.498 72.3105 273.381C72.7012 273.264 73.1016 273.205 73.5117 273.205C74.7324 273.205 75.8066 273.693 76.7246 274.68C77.6426 275.656 78.1113 276.838 78.1113 278.205C78.1113 279.572 77.6523 280.754 76.7344 281.73C75.8164 282.707 74.7422 283.195 73.5117 283.195C73.1016 283.195 72.7012 283.137 72.3203 283.02C71.9395 282.902 71.6172 282.766 71.3633 282.6C71.0996 282.443 70.875 282.277 70.6797 282.111C70.4844 281.945 70.3477 281.799 70.25 281.682L70.1133 281.496ZM88.3066 278.205C88.3066 277.17 87.9551 276.291 87.2715 275.578C86.5879 274.865 85.7578 274.504 84.8008 274.504C83.8438 274.504 83.0137 274.865 82.3301 275.578C81.6465 276.291 81.3047 277.16 81.3047 278.195C81.3047 279.23 81.6465 280.1 82.3301 280.822C83.0137 281.545 83.8438 281.896 84.8008 281.896C85.7578 281.896 86.5879 281.545 87.2715 280.832C87.9551 280.119 88.3066 279.24 88.3066 278.205ZM79.9082 278.205C79.9082 276.799 80.377 275.617 81.334 274.65C82.291 273.684 83.4434 273.195 84.8105 273.195C86.168 273.195 87.3203 273.684 88.2676 274.65C89.2246 275.617 89.6934 276.799 89.6934 278.205C89.6934 279.611 89.2246 280.793 88.2676 281.76C87.3203 282.717 86.168 283.205 84.8105 283.205C83.4434 283.205 82.291 282.717 81.334 281.76C80.377 280.793 79.9082 279.611 79.9082 278.205ZM101.109 281.701V285.402H99.7129V283H92.0078V285.402H90.6113V281.701H91.3047C91.3438 281.662 91.4023 281.604 91.4805 281.506C91.5586 281.408 91.7051 281.193 91.9004 280.861C92.0957 280.529 92.2617 280.178 92.418 279.787C92.5742 279.396 92.7109 278.879 92.8281 278.234C92.9453 277.59 93.0137 276.906 93.0137 276.203V273.4H99.6055V281.701H101.109ZM94.4102 274.699L94.4004 276.203C94.4004 277.297 94.2734 278.303 94 279.211C93.7363 280.129 93.4727 280.773 93.209 281.145L92.8086 281.701H98.209V274.699H94.4102ZM110.201 283V278.801H104.703V283H103.307V273.4H104.703V277.502H110.201V273.4H111.607V283H110.201ZM125.309 273.4V283H123.902V273.4H125.309ZM116.207 281.701H118.629C119.254 281.701 119.752 281.525 120.133 281.174C120.514 280.822 120.709 280.363 120.709 279.797C120.709 279.24 120.514 278.781 120.133 278.43C119.752 278.078 119.244 277.902 118.609 277.902H116.207V281.701ZM122.105 279.807C122.105 280.764 121.793 281.535 121.178 282.121C120.553 282.707 119.703 283 118.629 283H114.811V273.4H116.207V276.604H118.609C119.684 276.604 120.543 276.896 121.168 277.482C121.793 278.068 122.105 278.85 122.105 279.807ZM132.701 270.695C133.209 270.695 133.6 270.549 133.883 270.256C134.156 269.963 134.303 269.543 134.303 268.996H135.396C135.396 269.797 135.143 270.451 134.645 270.949C134.146 271.457 133.502 271.701 132.701 271.701C131.9 271.701 131.246 271.457 130.748 270.949C130.24 270.451 129.996 269.797 129.996 268.996H131.1C131.1 269.543 131.236 269.963 131.52 270.256C131.793 270.549 132.193 270.695 132.701 270.695ZM135.699 273.4H136.9V283H135.494V275.803L129.693 283H128.502V273.4H129.898V280.598L135.699 273.4ZM143.209 278.195C143.209 276.809 143.678 275.637 144.625 274.66C145.572 273.684 146.695 273.195 147.994 273.195C148.746 273.195 149.449 273.361 150.094 273.684C150.738 274.006 151.207 274.328 151.48 274.641L151.9 275.1L150.895 276.096C150.875 276.057 150.836 276.008 150.777 275.93C150.729 275.861 150.611 275.734 150.436 275.539C150.26 275.354 150.064 275.188 149.859 275.051C149.645 274.914 149.381 274.787 149.049 274.67C148.717 274.562 148.365 274.504 148.004 274.504C147.086 274.504 146.285 274.865 145.611 275.578C144.938 276.291 144.605 277.17 144.605 278.205C144.605 279.24 144.938 280.119 145.611 280.832C146.285 281.545 147.086 281.896 148.004 281.896C148.561 281.896 149.088 281.77 149.596 281.496C150.094 281.232 150.455 280.969 150.68 280.695L151.002 280.305L151.998 281.203C151.959 281.262 151.9 281.33 151.822 281.428C151.744 281.525 151.568 281.682 151.305 281.906C151.051 282.131 150.777 282.326 150.484 282.502C150.201 282.678 149.83 282.834 149.381 282.98C148.932 283.127 148.473 283.195 148.004 283.195C146.695 283.195 145.562 282.717 144.625 281.74C143.678 280.764 143.209 279.582 143.209 278.195ZM155.201 273.4L162.203 273.41V283.01H160.797V274.709H156.598V276.213C156.598 277.619 156.52 278.801 156.383 279.738C156.246 280.676 156.031 281.398 155.758 281.887C155.475 282.375 155.162 282.717 154.83 282.912C154.488 283.107 154.078 283.205 153.6 283.205C153.434 283.205 153.268 283.186 153.102 283.156C152.936 283.117 152.818 283.088 152.74 283.049L152.604 283.01V281.613C152.867 281.74 153.131 281.809 153.404 281.809C153.814 281.809 154.137 281.691 154.371 281.457C154.605 281.223 154.801 280.676 154.957 279.836C155.113 278.986 155.201 277.775 155.201 276.203V273.4ZM173.893 278.723L166.09 278.703C166.139 279.572 166.49 280.324 167.154 280.949C167.818 281.584 168.59 281.896 169.488 281.896C170.084 281.896 170.641 281.77 171.158 281.496C171.666 281.232 172.037 280.969 172.252 280.695L172.594 280.305L173.492 281.203C173.453 281.262 173.395 281.33 173.316 281.428C173.238 281.525 173.082 281.682 172.828 281.906C172.574 282.131 172.311 282.326 172.018 282.502C171.725 282.678 171.354 282.834 170.895 282.98C170.436 283.127 169.967 283.195 169.488 283.195C168.18 283.195 167.047 282.717 166.109 281.74C165.162 280.764 164.693 279.582 164.693 278.195C164.693 276.809 165.152 275.637 166.09 274.66C167.027 273.684 168.121 273.195 169.391 273.195C170.699 273.195 171.793 273.654 172.672 274.562C173.551 275.471 173.99 276.613 173.99 278L173.893 278.723ZM169.391 274.504C168.551 274.504 167.818 274.807 167.193 275.393C166.568 275.988 166.197 276.691 166.09 277.502H172.594C172.486 276.643 172.135 275.92 171.539 275.354C170.943 274.787 170.23 274.504 169.391 274.504ZM185.387 281.701V285.402H183.99V283H176.285V285.402H174.889V281.701H175.582C175.621 281.662 175.68 281.604 175.758 281.506C175.836 281.408 175.982 281.193 176.178 280.861C176.373 280.529 176.539 280.178 176.695 279.787C176.852 279.396 176.988 278.879 177.105 278.234C177.223 277.59 177.291 276.906 177.291 276.203V273.4H183.883V281.701H185.387ZM178.688 274.699L178.678 276.203C178.678 277.297 178.551 278.303 178.277 279.211C178.014 280.129 177.75 280.773 177.486 281.145L177.086 281.701H182.486V274.699H178.688Z" fill="#1D1717"/>
<path d="M86.5977 229.238H160.787V230.234H86.5977V229.238Z" fill="#1D1717"/>
<path d="M78.1094 85.1992L81.9082 76.9961H83.5098L78.3047 87.9043C77.7285 89.1055 77.1426 89.9551 76.5566 90.4531C75.9609 90.9512 75.1797 91.1953 74.2031 91.1953C73.9883 91.1953 73.7734 91.1855 73.5586 91.1465C73.3438 91.1172 73.1875 91.0781 73.0898 91.0391L72.9043 91V89.6035C73.2363 89.7402 73.6367 89.7988 74.1055 89.7988C74.7305 89.7988 75.2188 89.6621 75.5898 89.3691C75.9609 89.0859 76.332 88.5977 76.7031 87.9043L77.3086 86.8008C76.8789 85.9902 76.0586 84.457 74.8672 82.2109C73.666 79.9648 72.748 78.2266 72.1035 76.9961H73.7051L78.1094 85.1992ZM89.9062 83.9004C89.9062 84.2227 89.8477 84.5156 89.75 84.7793C89.6523 85.0332 89.5254 85.2383 89.3789 85.3848C89.2324 85.5312 89.0859 85.6582 88.9297 85.7559C88.7734 85.8535 88.6562 85.9316 88.5586 85.9707L88.4023 86.0098C88.4512 86.0195 88.5195 86.0391 88.6074 86.0586C88.6953 86.0781 88.8418 86.1367 89.0566 86.2441C89.2715 86.3516 89.457 86.4785 89.623 86.6348C89.7891 86.791 89.9453 87.0156 90.082 87.3086C90.2188 87.6016 90.2969 87.9336 90.2969 88.3145C90.2969 89.125 89.9746 89.8086 89.3398 90.3652C88.6953 90.9219 87.7871 91.2051 86.6055 91.2051C86.1465 91.2051 85.7168 91.1465 85.3066 91.0293C84.8965 90.9121 84.5645 90.7656 84.291 90.6094C84.0176 90.4434 83.7734 90.2773 83.5781 90.1113C83.3828 89.9453 83.2363 89.8086 83.1387 89.6914L83.002 89.5059L83.9004 88.6074C83.9785 88.6953 84.0859 88.8125 84.2227 88.959C84.3594 89.1152 84.6719 89.3105 85.1406 89.5449C85.6094 89.7793 86.0977 89.8965 86.6055 89.8965C87.3672 89.8965 87.9336 89.75 88.3242 89.457C88.7051 89.1641 88.9004 88.7832 88.9004 88.3047C88.9004 87.8262 88.7051 87.4355 88.3145 87.1426C87.9238 86.8496 87.3574 86.7031 86.6055 86.7031H85.502V85.4043H86.6055C87.1719 85.4043 87.6309 85.2578 87.9824 84.9648C88.3242 84.6719 88.5 84.3105 88.5 83.9004C88.5 83.4902 88.334 83.1484 88.0215 82.8945C87.6992 82.6406 87.2305 82.5137 86.6055 82.5137C86.1562 82.5137 85.7363 82.6016 85.3359 82.7773C84.9355 82.9531 84.6523 83.1387 84.4863 83.3242L84.2031 83.5977L83.1973 82.6016C83.2852 82.5039 83.4219 82.3672 83.5977 82.2109C83.7734 82.0547 84.1543 81.8496 84.7402 81.5859C85.3262 81.332 85.9414 81.1953 86.6055 81.1953C87.582 81.1953 88.373 81.4688 88.9883 81.9961C89.5938 82.5332 89.9062 83.168 89.9062 83.9004ZM99.8086 91V86.8008H94.3105V91H92.9141V81.4004H94.3105V85.502H99.8086V81.4004H101.215V91H99.8086ZM106.518 85.502L110.219 84.8965C110.219 84.1934 109.994 83.6172 109.545 83.168C109.096 82.7285 108.52 82.5039 107.816 82.5039C107.309 82.5039 106.83 82.6211 106.381 82.8555C105.932 83.0898 105.609 83.3242 105.414 83.5586L105.111 83.9004L104.213 83.002C104.252 82.9531 104.301 82.8848 104.369 82.8066C104.438 82.7285 104.584 82.582 104.818 82.377C105.053 82.1719 105.297 81.9863 105.551 81.8203C105.805 81.6641 106.137 81.5176 106.547 81.3906C106.957 81.2637 107.387 81.1953 107.816 81.1953C108.91 81.1953 109.809 81.5566 110.531 82.2598C111.254 82.9727 111.615 83.8516 111.615 84.8965V91H110.219V89.7012C110.189 89.7402 110.15 89.7988 110.092 89.8672C110.033 89.9355 109.916 90.0527 109.721 90.2285C109.525 90.4043 109.32 90.5508 109.105 90.6875C108.881 90.8242 108.588 90.9414 108.227 91.0391C107.865 91.1465 107.494 91.1953 107.113 91.1953C106.156 91.1953 105.346 90.9121 104.691 90.3457C104.037 89.7793 103.715 89.1348 103.715 88.4023C103.715 87.6016 103.949 86.957 104.438 86.4688C104.916 85.9805 105.609 85.6582 106.518 85.502ZM107.113 89.8965C108.012 89.8965 108.754 89.6035 109.34 89.0078C109.926 88.4219 110.219 87.6504 110.219 86.7031V86.0977L106.918 86.7031C105.717 86.9375 105.111 87.5039 105.111 88.4023C105.111 88.832 105.287 89.1934 105.639 89.4766C105.99 89.7598 106.488 89.8965 107.113 89.8965ZM115.805 81.4004L122.807 81.4102V91.0098H121.4V82.709H117.201V84.2129C117.201 85.6191 117.123 86.8008 116.986 87.7383C116.85 88.6758 116.635 89.3984 116.361 89.8867C116.078 90.375 115.766 90.7168 115.434 90.9121C115.092 91.1074 114.682 91.2051 114.203 91.2051C114.037 91.2051 113.871 91.1855 113.705 91.1562C113.539 91.1172 113.422 91.0879 113.344 91.0488L113.207 91.0098V89.6133C113.471 89.7402 113.734 89.8086 114.008 89.8086C114.418 89.8086 114.74 89.6914 114.975 89.457C115.209 89.2227 115.404 88.6758 115.561 87.8359C115.717 86.9863 115.805 85.7754 115.805 84.2031V81.4004ZM133.197 81.4004H134.398V91H132.992V83.8027L127.191 91H126V81.4004H127.396V88.5977L133.197 81.4004ZM137.895 89.2031L139.301 90.0039L136.996 93.5977L136.098 93.0996L137.895 89.2031Z" fill="#1D1717"/>
<g clip-path="url(#clip0_1_1249)">
<path d="M147.127 150.318C148.046 154.163 145.614 157.997 141.726 158.719C140.926 158.867 140.125 158.866 139.356 158.735C137.353 158.394 135.311 158.404 133.339 158.864L132.809 158.988C130.779 159.463 128.871 160.343 127.187 161.571C126.391 162.15 125.454 162.568 124.412 162.76C120.938 163.402 117.475 161.237 116.49 157.805C115.839 155.541 116.369 153.253 117.693 151.57C119.595 149.152 120.608 146.138 120.688 143.041C120.779 139.444 122.062 135.375 127.058 134.21C132.003 133.056 134.997 136.143 136.723 139.323C138.218 142.078 140.562 144.266 143.367 145.63C145.187 146.517 146.617 148.189 147.125 150.319L147.127 150.318Z" fill="#EBEBEB"/>
<path d="M110.432 136.533C107.604 137.193 105.984 140.539 106.813 144.005C107.642 147.472 110.606 149.747 113.434 149.087C116.262 148.427 117.882 145.082 117.053 141.615C116.224 138.148 113.26 135.873 110.432 136.533Z" fill="#EBEBEB"/>
<path d="M116.795 120.625C113.967 121.285 112.347 124.631 113.176 128.097C114.005 131.564 116.969 133.84 119.797 133.179C122.625 132.519 124.245 129.174 123.416 125.707C122.587 122.24 119.623 119.965 116.795 120.625Z" fill="#EBEBEB"/>
<path d="M142.978 128.937C140.15 129.598 138.53 132.943 139.359 136.41C140.188 139.877 143.152 142.152 145.98 141.492C148.808 140.832 150.428 137.486 149.599 134.019C148.77 130.553 145.806 128.277 142.978 128.937Z" fill="#EBEBEB"/>
<path d="M130.083 117.524C127.256 118.185 125.635 121.53 126.464 124.997C127.293 128.464 130.258 130.739 133.085 130.079C135.913 129.419 137.534 126.073 136.705 122.606C135.876 119.14 132.911 116.864 130.083 117.524Z" fill="#EBEBEB"/>
</g>
<g clip-path="url(#clip1_1_1249)">
<path d="M87.4339 196.6C86.4322 200.424 82.4794 202.659 78.7109 201.463C77.9353 201.216 77.2296 200.838 76.6126 200.36C75.0074 199.115 73.202 198.161 71.2454 197.638L70.7194 197.497C68.7054 196.959 66.6083 196.836 64.5437 197.125C63.5687 197.26 62.5453 197.187 61.5357 196.865C58.1698 195.794 56.136 192.253 56.8852 188.761C57.3784 186.458 58.9246 184.689 60.8852 183.829C63.7024 182.594 66.0169 180.413 67.5471 177.719C69.3229 174.59 72.3727 171.606 77.3281 172.934C82.2327 174.247 83.4185 178.381 83.4418 181.999C83.4611 185.134 84.4973 188.168 86.3278 190.694C87.5153 192.333 87.9878 194.482 87.4322 196.6L87.4339 196.6Z" fill="#EBEBEB"/>
<path d="M61.5704 167.145C58.7654 166.394 55.7593 168.581 54.8561 172.029C53.953 175.477 55.4948 178.881 58.2999 179.632C61.105 180.383 64.111 178.196 65.0142 174.748C65.9173 171.3 64.3755 167.896 61.5704 167.145Z" fill="#EBEBEB"/>
<path d="M74.6803 156.115C71.8752 155.364 68.8691 157.551 67.966 160.999C67.0629 164.447 68.6047 167.851 71.4098 168.602C74.2148 169.353 77.2209 167.166 78.124 163.718C79.0272 160.27 77.4854 156.866 74.6803 156.115Z" fill="#EBEBEB"/>
<path d="M93.8536 175.789C91.0486 175.038 88.0425 177.224 87.1393 180.673C86.2362 184.121 87.778 187.525 90.5831 188.276C93.3882 189.027 96.3942 186.84 97.2974 183.392C98.2005 179.943 96.6587 176.539 93.8536 175.789Z" fill="#EBEBEB"/>
<path d="M87.8619 159.645C85.0569 158.894 82.0508 161.08 81.1476 164.529C80.2445 167.977 81.7863 171.381 84.5914 172.132C87.3965 172.883 90.4025 170.696 91.3057 167.248C92.2088 163.799 90.667 160.395 87.8619 159.645Z" fill="#EBEBEB"/>
</g>
<path d="M0 10C0 4.47715 4.47715 0 10 0H202C207.523 0 212 4.47715 212 10V50H0V10Z" fill="#FFC9C9"/>
<defs>
<clipPath id="clip0_1_1249">
<rect width="45.5968" height="43.1649" fill="white" transform="translate(119.547 170.052) rotate(-116.455)"/>
</clipPath>
<clipPath id="clip1_1_1249">
<rect width="45.5968" height="43.1649" fill="white" transform="translate(53.8081 201.003) rotate(-88.3299)"/>
</clipPath>
</defs>
</svg>
