<svg width="221" height="299" viewBox="0 0 221 299" fill="none" xmlns="http://www.w3.org/2000/svg">
<rect width="220" height="299" rx="10" fill="#FAFAFA"/>
<rect x="23" y="201.84" width="174" height="70" rx="35" fill="#A6EFAA"/>
<path d="M55.0976 229.369V243.373H53.5937V230.775H45.8008V243.373H44.2969V229.369H55.0976ZM60.0976 238.578C60.0976 239.564 60.4394 240.423 61.1426 241.166C61.8457 241.908 62.6269 242.269 63.4961 242.269C64.3164 242.269 65.0586 241.917 65.7129 241.195C66.3672 240.472 66.6992 239.603 66.6992 238.578C66.6992 237.552 66.3672 236.683 65.7129 235.96C65.0586 235.238 64.3164 234.876 63.4961 234.876C62.6269 234.876 61.8457 235.248 61.1426 235.99C60.4394 236.732 60.0976 237.591 60.0976 238.578ZM60.0976 241.869V247.582H58.7012V233.783H60.0976V235.287C60.1172 235.248 60.166 235.179 60.2344 235.101C60.3027 235.023 60.4394 234.886 60.6543 234.691C60.8691 234.496 61.0937 234.32 61.3476 234.164C61.5918 234.007 61.9043 233.871 62.2949 233.753C62.6855 233.636 63.0859 233.578 63.4961 233.578C64.7168 233.578 65.791 234.066 66.709 235.052C67.6269 236.029 68.0957 237.21 68.0957 238.578C68.0957 239.945 67.6367 241.126 66.7187 242.103C65.8008 243.08 64.7266 243.568 63.4961 243.568C63.0859 243.568 62.6855 243.509 62.3047 243.392C61.9238 243.275 61.6016 243.138 61.3476 242.972C61.084 242.816 60.8594 242.65 60.6641 242.484C60.4687 242.318 60.332 242.171 60.2344 242.054L60.0976 241.869ZM78.291 238.578C78.291 237.542 77.9394 236.664 77.2559 235.951C76.5723 235.238 75.7422 234.876 74.7851 234.876C73.8281 234.876 72.998 235.238 72.3144 235.951C71.6309 236.664 71.2891 237.533 71.2891 238.568C71.2891 239.603 71.6309 240.472 72.3144 241.195C72.998 241.917 73.8281 242.269 74.7851 242.269C75.7422 242.269 76.5723 241.917 77.2559 241.205C77.9394 240.492 78.291 239.613 78.291 238.578ZM69.8926 238.578C69.8926 237.171 70.3613 235.99 71.3184 235.023C72.2754 234.056 73.4277 233.568 74.7949 233.568C76.1523 233.568 77.3047 234.056 78.2519 235.023C79.209 235.99 79.6777 237.171 79.6777 238.578C79.6777 239.984 79.209 241.166 78.2519 242.132C77.3047 243.089 76.1523 243.578 74.7949 243.578C73.4277 243.578 72.2754 243.089 71.3184 242.132C70.3613 241.166 69.8926 239.984 69.8926 238.578ZM86.3965 231.068C86.9043 231.068 87.2949 230.921 87.5781 230.628C87.8516 230.335 87.998 229.916 87.998 229.369H89.0918C89.0918 230.169 88.8379 230.824 88.3398 231.322C87.8418 231.83 87.1973 232.074 86.3965 232.074C85.5957 232.074 84.9414 231.83 84.4434 231.322C83.9355 230.824 83.6914 230.169 83.6914 229.369H84.7949C84.7949 229.916 84.9316 230.335 85.2148 230.628C85.4883 230.921 85.8887 231.068 86.3965 231.068ZM89.3945 233.773H90.5957V243.373H89.1894V236.175L83.3887 243.373H82.1973V233.773H83.5937V240.97L89.3945 233.773ZM92.5976 235.072V233.773H100.791V235.072H97.3926V243.373H95.9961V235.072H92.5976ZM110 233.773H111.201V243.373H109.795V236.175L103.994 243.373H102.803V233.773H104.199V240.97L110 233.773ZM117.012 235.072V233.773H125.205V235.072H121.807V243.373H120.41V235.072H117.012ZM135.713 239.095L127.91 239.076C127.959 239.945 128.311 240.697 128.975 241.322C129.639 241.957 130.41 242.269 131.309 242.269C131.904 242.269 132.461 242.142 132.979 241.869C133.486 241.605 133.857 241.341 134.072 241.068L134.414 240.677L135.312 241.576C135.273 241.634 135.215 241.703 135.137 241.8C135.059 241.898 134.902 242.054 134.648 242.279C134.395 242.503 134.131 242.699 133.838 242.875C133.545 243.05 133.174 243.207 132.715 243.353C132.256 243.5 131.787 243.568 131.309 243.568C130 243.568 128.867 243.089 127.93 242.113C126.982 241.136 126.514 239.955 126.514 238.568C126.514 237.181 126.973 236.009 127.91 235.033C128.848 234.056 129.941 233.568 131.211 233.568C132.52 233.568 133.613 234.027 134.492 234.935C135.371 235.843 135.811 236.986 135.811 238.373L135.713 239.095ZM131.211 234.876C130.371 234.876 129.639 235.179 129.014 235.765C128.389 236.361 128.018 237.064 127.91 237.875H134.414C134.307 237.015 133.955 236.292 133.359 235.726C132.764 235.16 132.051 234.876 131.211 234.876ZM137.607 238.568C137.607 237.181 138.076 236.009 139.023 235.033C139.971 234.056 141.094 233.568 142.393 233.568C143.145 233.568 143.848 233.734 144.492 234.056C145.137 234.378 145.605 234.701 145.879 235.013L146.299 235.472L145.293 236.468C145.273 236.429 145.234 236.38 145.176 236.302C145.127 236.234 145.01 236.107 144.834 235.912C144.658 235.726 144.463 235.56 144.258 235.423C144.043 235.287 143.779 235.16 143.447 235.042C143.115 234.935 142.764 234.876 142.402 234.876C141.484 234.876 140.684 235.238 140.01 235.951C139.336 236.664 139.004 237.542 139.004 238.578C139.004 239.613 139.336 240.492 140.01 241.205C140.684 241.917 141.484 242.269 142.402 242.269C142.959 242.269 143.486 242.142 143.994 241.869C144.492 241.605 144.854 241.341 145.078 241.068L145.4 240.677L146.396 241.576C146.357 241.634 146.299 241.703 146.221 241.8C146.143 241.898 145.967 242.054 145.703 242.279C145.449 242.503 145.176 242.699 144.883 242.875C144.6 243.05 144.229 243.207 143.779 243.353C143.33 243.5 142.871 243.568 142.402 243.568C141.094 243.568 139.961 243.089 139.023 242.113C138.076 241.136 137.607 239.955 137.607 238.568ZM147.402 235.072V233.773H155.596V235.072H152.197V243.373H150.801V235.072H147.402ZM164.805 233.773H166.006V243.373H164.6V236.175L158.799 243.373H157.607V233.773H159.004V240.97L164.805 233.773ZM170.605 240.677V243.373H169.209V233.773H170.605V238.871L175.4 233.773H177.109L173.408 237.669L177.51 243.373H175.908L172.51 238.675L170.605 240.677Z" fill="#1D1717"/>
<path d="M24.7207 27.793H44.5137V32.6621H37.3242V53H31.9277V32.6621H24.7207V27.793ZM61.9512 45.793H49.1719C49.3477 46.7598 49.8574 47.5684 50.7012 48.2363C51.5273 48.9043 52.582 49.2207 53.8477 49.2207C54.7617 49.2207 55.6055 49.0449 56.3789 48.6934C57.1523 48.3418 57.7148 47.9727 58.0312 47.6035L58.541 47.0586L61.0547 50.293L60.7207 50.627C60.5801 50.7676 60.2637 51.0137 59.7891 51.3652C59.2969 51.7168 58.7871 52.0332 58.2598 52.3145C57.7148 52.5957 57.0117 52.8242 56.1504 53.0352C55.2891 53.2461 54.4102 53.3516 53.4961 53.3516C50.8945 53.3516 48.6973 52.4551 46.8691 50.6621C45.041 48.8691 44.127 46.707 44.127 44.1758C44.127 41.6621 45.0234 39.5 46.834 37.707C48.627 35.9141 50.7891 35 53.3203 35C55.834 35 57.9258 35.8438 59.6133 37.5312C61.2832 39.2188 62.127 41.3105 62.127 43.8242L61.9512 45.793ZM53.3203 39.1484C52.2832 39.1484 51.4043 39.4473 50.6836 40.0449C49.9629 40.6426 49.4531 41.4336 49.1719 42.3828H57.2754C57.082 41.4512 56.625 40.6777 55.9219 40.0625C55.2188 39.4648 54.3398 39.1484 53.3203 39.1484ZM70.5996 39.6758V53H65.748V35.3516H82.3066V53H77.4375V39.6758H70.5996ZM103.717 45.793H90.9375C91.1133 46.7598 91.623 47.5684 92.4668 48.2363C93.293 48.9043 94.3477 49.2207 95.6133 49.2207C96.5273 49.2207 97.3711 49.0449 98.1445 48.6934C98.918 48.3418 99.4805 47.9727 99.7969 47.6035L100.307 47.0586L102.82 50.293L102.486 50.627C102.346 50.7676 102.029 51.0137 101.555 51.3652C101.062 51.7168 100.553 52.0332 100.025 52.3145C99.4805 52.5957 98.7773 52.8242 97.916 53.0352C97.0547 53.2461 96.1758 53.3516 95.2617 53.3516C92.6602 53.3516 90.4629 52.4551 88.6348 50.6621C86.8066 48.8691 85.8926 46.707 85.8926 44.1758C85.8926 41.6621 86.7891 39.5 88.5996 37.707C90.3926 35.9141 92.5547 35 95.0859 35C97.5996 35 99.6914 35.8438 101.379 37.5312C103.049 39.2188 103.893 41.3105 103.893 43.8242L103.717 45.793ZM95.0859 39.1484C94.0488 39.1484 93.1699 39.4473 92.4492 40.0449C91.7285 40.6426 91.2188 41.4336 90.9375 42.3828H99.041C98.8477 41.4512 98.3906 40.6777 97.6875 40.0625C96.9844 39.4648 96.1055 39.1484 95.0859 39.1484ZM117.586 53.3516C116.566 53.3516 115.635 53.1582 114.756 52.7363C113.877 52.3145 113.262 51.9102 112.91 51.4883L112.365 50.8379V60.5586H107.514V35.3516H112.365V37.5137C112.4 37.4434 112.471 37.3555 112.576 37.25C112.682 37.1445 112.893 36.9512 113.209 36.6699C113.525 36.3887 113.877 36.125 114.264 35.8965C114.633 35.668 115.125 35.457 115.723 35.2812C116.32 35.1055 116.936 35 117.586 35C119.871 35 121.84 35.8965 123.527 37.6719C125.215 39.4473 126.059 41.6094 126.059 44.1758C126.059 46.7422 125.215 48.9219 123.527 50.6973C121.84 52.4727 119.871 53.3516 117.586 53.3516ZM116.689 39.3242C115.494 39.3242 114.475 39.7812 113.631 40.6953C112.787 41.6094 112.365 42.7695 112.365 44.1934C112.365 45.5996 112.787 46.7773 113.631 47.6914C114.475 48.6055 115.494 49.0625 116.689 49.0625C117.885 49.0625 118.904 48.6055 119.748 47.6914C120.592 46.7773 121.014 45.5996 121.014 44.1934C121.014 42.7695 120.592 41.6094 119.748 40.6953C118.904 39.7812 117.885 39.3242 116.689 39.3242ZM134.514 49.0449H137.572C138.188 49.0449 138.697 48.8516 139.119 48.4297C139.523 48.0254 139.734 47.5156 139.734 46.8828C139.734 46.2676 139.523 45.7578 139.119 45.3359C138.715 44.9316 138.205 44.7207 137.572 44.7207H134.514V49.0449ZM144.604 46.8828C144.604 48.7109 143.988 50.1875 142.775 51.3125C141.562 52.4375 139.893 53 137.766 53H129.662V35.3516H134.514V40.7656H137.766C139.893 40.7656 141.562 41.3281 142.775 42.4531C143.988 43.5781 144.604 45.0547 144.604 46.8828ZM155.396 35.3516H164.221C165.979 35.3516 167.402 35.8438 168.51 36.793C169.6 37.7598 170.162 38.9023 170.162 40.2207C170.162 41.0293 169.969 41.7148 169.617 42.3125C169.248 42.9102 168.879 43.3145 168.527 43.4902L168 43.8242C168.07 43.8594 168.158 43.8945 168.299 43.9297C168.422 43.9824 168.65 44.123 169.002 44.334C169.336 44.5449 169.635 44.791 169.881 45.0723C170.127 45.3535 170.355 45.7227 170.566 46.1973C170.777 46.6895 170.883 47.2168 170.883 47.7793C170.883 49.2734 170.303 50.5215 169.16 51.5059C168.018 52.5078 166.488 53 164.572 53H155.396V35.3516ZM164.221 45.4414H160.248V49.0449H164.221C164.766 49.0449 165.205 48.8867 165.521 48.5352C165.838 48.2012 166.014 47.7617 166.014 47.2344C166.014 46.707 165.838 46.2852 165.521 45.9512C165.205 45.6172 164.766 45.4414 164.221 45.4414ZM165.293 40.7656C165.293 39.8164 164.801 39.3242 163.852 39.3242H160.248V42.207H163.852C164.801 42.207 165.293 41.7324 165.293 40.7656ZM196.266 35.3516V53H191.396V35.3516H196.266ZM179.338 49.0449H182.221C182.836 49.0449 183.346 48.8516 183.75 48.4297C184.172 48.0254 184.365 47.5156 184.365 46.8828C184.365 46.2676 184.172 45.7578 183.75 45.3359C183.346 44.9316 182.836 44.7207 182.221 44.7207H179.338V49.0449ZM189.252 46.8828C189.252 48.7109 188.637 50.1875 187.424 51.3125C186.211 52.4375 184.541 53 182.396 53H174.486V35.3516H179.338V40.7656H182.396C184.523 40.7656 186.193 41.3281 187.424 42.4531C188.637 43.5781 189.252 45.0547 189.252 46.8828ZM40.207 81.6758C40.3125 81.7285 40.4883 81.7988 40.6992 81.8867C40.9102 81.9746 41.2969 82.1855 41.8242 82.5371C42.3691 82.8887 42.8438 83.2754 43.248 83.6973C43.6523 84.1367 44.0215 84.7344 44.3555 85.5078C44.707 86.2812 44.8652 87.1074 44.8652 88.0039C44.8652 90.1133 43.9688 91.8887 42.1758 93.3652C40.3828 94.8242 37.9043 95.5625 34.7754 95.5625C33.5801 95.5625 32.4199 95.4043 31.2949 95.1055C30.1699 94.8066 29.2207 94.4551 28.4824 94.0332C27.7441 93.6113 27.0938 93.1895 26.5312 92.7676C25.9688 92.3457 25.5469 91.9941 25.2832 91.7129L24.8789 91.2383L28.1309 88.0039L28.4121 88.2852C28.5352 88.3906 28.7988 88.6191 29.2031 88.9355C29.625 89.252 30.0469 89.5156 30.5039 89.7617C30.9609 89.9902 31.541 90.2012 32.2441 90.3945C32.9473 90.5879 33.6855 90.6934 34.4238 90.6934C35.918 90.6934 37.0781 90.377 37.8867 89.7617C38.6953 89.1289 39.0996 88.373 39.0996 87.459C39.0996 86.5098 38.7305 85.7363 37.9746 85.1387C37.2188 84.5234 36.0938 84.2246 34.5996 84.2246H31.3652V79.5312H34.4238C35.6543 79.5312 36.5859 79.2676 37.2363 78.7754C37.8867 78.2656 38.2031 77.6152 38.2031 76.8418C38.2031 76.0684 37.8691 75.418 37.1836 74.9082C36.498 74.3809 35.5137 74.1348 34.248 74.1348C33.334 74.1348 32.4551 74.3281 31.5762 74.7148C30.7148 75.1016 30.082 75.4707 29.6777 75.8574L29.0273 76.4727L25.7754 73.0625C25.8457 72.957 25.9688 72.834 26.1445 72.6582C26.3203 72.4824 26.6719 72.1836 27.2344 71.7441C27.7969 71.2871 28.4121 70.9004 29.0449 70.584C29.6777 70.2676 30.5215 69.9688 31.5586 69.6875C32.6133 69.4062 33.6855 69.2832 34.7754 69.2832C37.5527 69.2832 39.7676 69.9688 41.4551 71.3574C43.1426 72.7461 43.9688 74.3984 43.9688 76.2969C43.9688 77.0879 43.8457 77.8086 43.582 78.4766C43.3184 79.127 43.002 79.6367 42.6152 80.0059C42.2461 80.3926 41.877 80.709 41.5254 80.9902C41.1738 81.2715 40.8574 81.4473 40.5938 81.5352L40.207 81.6758ZM46.6758 90.1484H48.1172C48.2051 90.0605 48.3457 89.9199 48.5215 89.709C48.6973 89.498 49.0312 89.041 49.4883 88.3027C49.9453 87.5645 50.332 86.7559 50.6836 85.877C51.0352 84.998 51.3516 83.8203 51.6328 82.3086C51.9141 80.8145 52.0723 79.2324 52.0723 77.5449V69.793H69.5273V90.1484H72.6035V100.221H67.1895V95H52.0723V100.221H46.6758V90.1484ZM57.4688 77.5449C57.4688 79.2324 57.3281 80.8145 57.0469 82.291C56.7656 83.7852 56.4492 84.9805 56.0625 85.8945C55.6758 86.8086 55.3066 87.5996 54.9199 88.2676C54.5332 88.9355 54.1992 89.4277 53.9531 89.709L53.5137 90.1484H64.1309V74.6621H57.4688V77.5449ZM82.1484 90.1484H95.6484V95H76.7344V69.793H95.2793V74.6621H82.1484V79.707H92.3965V84.5586H82.1484V90.1484ZM112.189 69.2656C113.508 69.2656 114.773 69.4414 115.969 69.793C117.164 70.1445 118.131 70.5488 118.904 71.041C119.678 71.5332 120.346 72.0254 120.943 72.5176C121.541 73.0098 121.963 73.4316 122.227 73.7656L122.631 74.293L119.203 77.7207C119.133 77.6328 119.027 77.5098 118.904 77.334C118.781 77.1582 118.5 76.877 118.078 76.4551C117.656 76.0508 117.182 75.6992 116.689 75.3828C116.18 75.0664 115.512 74.7852 114.703 74.5215C113.877 74.2578 113.033 74.1172 112.189 74.1172C109.834 74.1172 107.865 74.9082 106.283 76.4902C104.701 78.0723 103.91 80.041 103.91 82.3965C103.91 84.752 104.701 86.7207 106.283 88.3027C107.865 89.8848 109.834 90.6758 112.189 90.6758C113.104 90.6758 113.965 90.5527 114.809 90.3066C115.652 90.0605 116.338 89.7617 116.9 89.4102C117.445 89.0586 117.938 88.707 118.359 88.3555C118.781 88.0039 119.08 87.7051 119.273 87.4414L119.555 87.0723L122.807 90.5C122.701 90.6406 122.561 90.834 122.367 91.0625C122.174 91.291 121.752 91.6953 121.084 92.2754C120.416 92.8555 119.713 93.3652 118.957 93.8047C118.201 94.2441 117.217 94.6484 115.986 95C114.756 95.3691 113.49 95.5449 112.189 95.5449C108.34 95.5449 105.088 94.2617 102.451 91.6953C99.8145 89.1289 98.4961 86.0176 98.4961 82.3965C98.4961 78.7754 99.8145 75.6816 102.451 73.1152C105.088 70.5488 108.34 69.2656 112.189 69.2656ZM137.73 95H127.113V69.793H132.527V78.0723H137.73C140.314 78.0723 142.459 78.8984 144.164 80.5156C145.869 82.1328 146.73 84.1543 146.73 86.5449C146.73 88.9531 145.869 90.957 144.164 92.5742C142.459 94.1914 140.314 95 137.73 95ZM132.527 90.1484H137.555C138.627 90.1484 139.523 89.8145 140.244 89.1113C140.965 88.4082 141.334 87.5645 141.334 86.5449C141.334 85.543 140.965 84.6992 140.244 83.9961C139.523 83.293 138.627 82.9414 137.555 82.9414H132.527V90.1484Z" fill="#1D1717"/>
</svg>
