<svg width="220" height="299" viewBox="0 0 220 299" fill="none" xmlns="http://www.w3.org/2000/svg">
<rect width="220" height="299" rx="10" fill="#FAFAFA"/>
<path d="M46.5977 28.9922V57H40.6016V45.5938H28.6094V57H22.5938V28.9922H28.6094V40.2031H40.6016V28.9922H46.5977ZM68.2188 45.2031L64.8203 36.0039L61.4023 45.2031H68.2188ZM70.2109 50.3984H59.4102L57.0078 57H50.6016L61.6172 28.9922H68.0039L79.0195 57H72.6133L70.2109 50.3984ZM85.4258 28.9922V37.6055C85.4258 39.2852 85.8555 40.5742 86.7148 41.4727C87.5742 42.3711 88.8242 42.8008 90.4258 42.8008C91.4023 42.8008 92.3594 42.6445 93.2969 42.3125C94.2344 41.9805 94.918 41.6484 95.3477 41.3164L96.0312 40.8086V28.9922H102.027V57H96.0312V46.6094C94.293 47.6836 92.0859 48.2109 89.4297 48.1914C86.3047 48.1914 83.8438 47.2734 82.0859 45.418C80.3086 43.582 79.4297 40.9648 79.4297 37.6055V28.9922H85.4258ZM123.648 45.2031L120.25 36.0039L116.832 45.2031H123.648ZM125.641 50.3984H114.84L112.438 57H106.031L117.047 28.9922H123.434L134.449 57H128.043L125.641 50.3984ZM161.852 28.9922V57H155.855V34.4023H147.652V37.6055C147.652 41.5508 147.418 44.8711 146.988 47.5469C146.559 50.2227 145.914 52.2734 145.055 53.6992C144.195 55.1445 143.258 56.1406 142.203 56.7266C141.148 57.3125 139.898 57.6055 138.453 57.6055C137.867 57.6055 137.262 57.5469 136.676 57.4297C136.07 57.3125 135.621 57.1953 135.348 57.0781L134.859 56.9219V51.1992C135.523 51.4727 136.188 51.6094 136.852 51.6094C137.887 51.6094 138.727 51.2969 139.371 50.6719C140.016 50.0469 140.562 48.6602 140.992 46.5508C141.422 44.4414 141.656 41.4727 141.656 37.6445V28.9922H161.852ZM173.648 43.0156C173.648 45.5938 174.508 47.7812 176.266 49.5391C178.004 51.3164 180.133 52.1953 182.633 52.1953C185.133 52.1953 187.262 51.3164 189 49.5391C190.758 47.7812 191.617 45.5938 191.617 43.0156C191.617 40.4375 190.758 38.25 189 36.4727C187.262 34.6953 185.133 33.7969 182.633 33.7969C180.133 33.7969 178.004 34.6953 176.266 36.4727C174.508 38.25 173.648 40.4375 173.648 43.0156ZM167.438 42.9961C167.438 38.9727 168.902 35.5352 171.832 32.6836C174.762 29.832 178.375 28.4062 182.633 28.4062C186.891 28.4062 190.504 29.832 193.434 32.6836C196.363 35.5352 197.828 38.9727 197.828 42.9961C197.828 47.0195 196.363 50.4766 193.434 53.3281C190.504 56.1797 186.891 57.6055 182.633 57.6055C178.375 57.6055 174.762 56.1797 171.832 53.3281C168.902 50.4766 167.438 47.0195 167.438 42.9961Z" fill="#1D1717"/>
<path d="M28.8047 109.5C28.8633 109.529 28.9512 109.568 29.0488 109.607C29.1465 109.656 29.3223 109.783 29.5957 109.979C29.8594 110.184 30.0938 110.408 30.2988 110.643C30.4941 110.887 30.6797 111.219 30.8457 111.648C31.0117 112.078 31.0996 112.527 31.0996 112.996C31.0996 114.158 30.6992 115.115 29.9082 115.867C29.1074 116.629 28.0723 117 26.8027 117H21.0996V102.996H26.5C27.6328 102.996 28.5605 103.348 29.293 104.041C30.0254 104.734 30.3965 105.584 30.3965 106.6C30.3965 107.01 30.3379 107.391 30.2402 107.742C30.1328 108.094 29.9961 108.367 29.8398 108.572C29.6738 108.787 29.5078 108.963 29.3516 109.109C29.1953 109.256 29.0586 109.354 28.9609 109.402L28.8047 109.5ZM22.6035 115.604H26.8027C27.6426 115.604 28.3164 115.359 28.8242 114.871C29.332 114.383 29.5957 113.758 29.5957 112.996C29.5957 112.225 29.332 111.57 28.8145 111.023C28.2969 110.477 27.623 110.203 26.8027 110.203H22.6035V115.604ZM26.5 104.402H22.6035V108.885H26.5C27.2422 108.885 27.8281 108.689 28.2578 108.279C28.6875 107.869 28.9023 107.312 28.9023 106.6C28.9023 105.955 28.6875 105.428 28.2578 105.018C27.8281 104.607 27.2422 104.402 26.5 104.402ZM41.5977 112.205C41.5977 111.17 41.2461 110.291 40.5625 109.578C39.8789 108.865 39.0488 108.504 38.0918 108.504C37.1348 108.504 36.3047 108.865 35.6211 109.578C34.9375 110.291 34.5957 111.16 34.5957 112.195C34.5957 113.23 34.9375 114.1 35.6211 114.822C36.3047 115.545 37.1348 115.896 38.0918 115.896C39.0488 115.896 39.8789 115.545 40.5625 114.832C41.2461 114.119 41.5977 113.24 41.5977 112.205ZM33.1992 112.205C33.1992 110.799 33.668 109.617 34.625 108.65C35.582 107.684 36.7344 107.195 38.1016 107.195C39.459 107.195 40.6113 107.684 41.5586 108.65C42.5156 109.617 42.9844 110.799 42.9844 112.205C42.9844 113.611 42.5156 114.793 41.5586 115.76C40.6113 116.717 39.459 117.205 38.1016 117.205C36.7344 117.205 35.582 116.717 34.625 115.76C33.668 114.793 33.1992 113.611 33.1992 112.205ZM44.3027 108.699V107.4H52.4961V108.699H49.0977V117H47.7012V108.699H44.3027ZM58.3164 107.4H62.7109C63.5898 107.4 64.293 107.645 64.8203 108.113C65.3477 108.582 65.6113 109.178 65.6113 109.9C65.6113 110.311 65.5039 110.691 65.3086 111.023C65.1133 111.355 64.9082 111.59 64.7129 111.717L64.4102 111.902C64.4492 111.922 64.498 111.941 64.5762 111.961C64.6543 111.99 64.7812 112.059 64.9668 112.176C65.1523 112.293 65.3184 112.42 65.4551 112.576C65.5918 112.732 65.7188 112.947 65.8359 113.23C65.9531 113.523 66.0117 113.846 66.0117 114.197C66.0117 115.066 65.7383 115.75 65.2012 116.248C64.6543 116.756 63.8926 117 62.916 117H58.3164V107.4ZM62.916 112.498H59.7129V115.701H62.916C63.4629 115.701 63.8828 115.564 64.1758 115.281C64.4688 115.008 64.6152 114.607 64.6152 114.1C64.6152 113.592 64.4688 113.201 64.1758 112.918C63.8828 112.645 63.4629 112.498 62.916 112.498ZM64.2148 109.998C64.2148 109.139 63.707 108.699 62.7109 108.699H59.7129V111.297H62.7109C63.707 111.297 64.2148 110.867 64.2148 109.998ZM70.8066 111.502L74.5078 110.896C74.5078 110.193 74.2832 109.617 73.834 109.168C73.3848 108.729 72.8086 108.504 72.1055 108.504C71.5977 108.504 71.1191 108.621 70.6699 108.855C70.2207 109.09 69.8984 109.324 69.7031 109.559L69.4004 109.9L68.502 109.002C68.541 108.953 68.5898 108.885 68.6582 108.807C68.7266 108.729 68.873 108.582 69.1074 108.377C69.3418 108.172 69.5859 107.986 69.8398 107.82C70.0938 107.664 70.4258 107.518 70.8359 107.391C71.2461 107.264 71.6758 107.195 72.1055 107.195C73.1992 107.195 74.0977 107.557 74.8203 108.26C75.543 108.973 75.9043 109.852 75.9043 110.896V117H74.5078V115.701C74.4785 115.74 74.4395 115.799 74.3809 115.867C74.3223 115.936 74.2051 116.053 74.0098 116.229C73.8145 116.404 73.6094 116.551 73.3945 116.688C73.1699 116.824 72.877 116.941 72.5156 117.039C72.1543 117.146 71.7832 117.195 71.4023 117.195C70.4453 117.195 69.6348 116.912 68.9805 116.346C68.3262 115.779 68.0039 115.135 68.0039 114.402C68.0039 113.602 68.2383 112.957 68.7266 112.469C69.2051 111.98 69.8984 111.658 70.8066 111.502ZM71.4023 115.896C72.3008 115.896 73.043 115.604 73.6289 115.008C74.2148 114.422 74.5078 113.65 74.5078 112.703V112.098L71.207 112.703C70.0059 112.938 69.4004 113.504 69.4004 114.402C69.4004 114.832 69.5762 115.193 69.9277 115.477C70.2793 115.76 70.7773 115.896 71.4023 115.896ZM79.0977 117V107.4H80.4941V115.701H84.5957V107.4H86.0117V115.701H90.0938V107.4H91.4902V117H79.0977ZM105.406 117V108.719H99.9082V117H98.5117V107.4H106.812V117H105.406ZM112.115 118.396L112.613 117L108.707 107.4H110.211L113.316 115.203L116.412 107.4H117.916L113.512 118.396C113.111 119.412 112.682 120.135 112.232 120.564C111.773 120.994 111.197 121.199 110.504 121.199C110.289 121.199 110.084 121.189 109.889 121.15C109.693 121.121 109.537 121.082 109.439 121.043L109.303 121.004V119.695C109.635 119.832 109.967 119.9 110.299 119.9C111.148 119.9 111.754 119.402 112.115 118.396ZM118.619 108.699V107.4H126.812V108.699H123.414V117H122.018V108.699H118.619ZM130.221 115.701H132.74C133.365 115.701 133.863 115.525 134.244 115.174C134.625 114.822 134.82 114.363 134.82 113.797C134.82 113.24 134.625 112.781 134.244 112.43C133.863 112.078 133.355 111.902 132.721 111.902H130.221V115.701ZM136.217 113.807C136.217 114.764 135.904 115.535 135.289 116.121C134.664 116.707 133.814 117 132.74 117H128.824V107.4H130.221V110.604H132.721C133.795 110.604 134.654 110.896 135.279 111.482C135.904 112.068 136.217 112.85 136.217 113.807Z" fill="#1D1717"/>
<g clip-path="url(#clip0_1_1310)">
<path d="M49.8469 247.457L30.5384 227.5H41.8165L59.2194 244.703L59.6577 245.136H60.2739H157.15H159.723L158.455 242.897L150.793 229.364L191.476 248.5L150.796 267.634L158.455 254.122L159.724 251.882H157.15H60.2739H59.6581L59.22 252.315L41.8169 269.5H30.5384L49.8469 249.543L50.856 248.5L49.8469 247.457Z" fill="#F76742" stroke="#1D1717" stroke-width="3"/>
</g>
<defs>
<clipPath id="clip0_1_1310">
<rect width="168" height="45" fill="white" transform="translate(27 226)"/>
</clipPath>
</defs>
</svg>
