<svg width="40" height="22" viewBox="0 0 40 22" fill="none" xmlns="http://www.w3.org/2000/svg">
<g clip-path="url(#clip0_284_2481)">
<path d="M19.6764 3.42486C25.4198 3.31215 31.324 5.60699 35.3078 9.69172C39.2916 13.7764 32.2753 17.3923 29.1267 18.7494C21.0386 22.2254 11.9456 20.7782 5.95651 14.0966C5.13475 13.1948 4.1924 12.1489 4.61668 10.882C4.99184 9.75484 6.84974 8.45187 7.74296 7.726C10.0866 5.86797 12.8118 4.56177 15.7194 3.90277C17.0189 3.60787 18.3447 3.44773 19.6764 3.42486Z" stroke="#3F39A3" stroke-width="3" stroke-linecap="round" stroke-linejoin="round"/>
<path d="M16.4518 4.67826C14.801 5.87874 13.5802 7.58725 12.9727 9.54747C12.1733 11.9099 12.1018 14.6331 13.3166 16.8107C13.9309 17.8453 14.7753 18.7212 15.783 19.3691C16.7908 20.0171 17.9342 20.4193 19.1226 20.5438C21.5253 20.7588 23.9254 20.1036 25.8932 18.6953C26.9192 18.0051 27.8008 17.1182 28.488 16.0848C29.2255 14.917 29.647 13.5744 29.7105 12.1908C29.774 10.8073 29.4772 9.43112 28.8497 8.19942C26.7775 4.29503 20.1855 2.14897 16.4518 4.67826Z" fill="#3F39A3"/>
</g>
<path d="M1.5 20L38.5 2" stroke="#3F39A3" stroke-width="3" stroke-linecap="round"/>
<defs>
<clipPath id="clip0_284_2481">
<rect width="36" height="20" fill="white" transform="translate(2.5 2)"/>
</clipPath>
</defs>
</svg>
