<svg width="930" height="624" viewBox="0 0 930 624" fill="none" xmlns="http://www.w3.org/2000/svg">
<g clip-path="url(#clip0_1_1578)">
<path d="M199.007 121.573C205.781 96.3675 136.781 32.3675 62.7805 218.659C19.4823 337.433 86.872 383.357 145.281 336.367C101.494 421.857 102.835 505.41 178.361 554.625C265.268 611.248 358.615 476.658 402.995 382.992C384.202 418.183 376.884 431.061 371.781 473.159C367.781 506.159 372.821 543.423 403.084 557.623C478.521 593.167 596.308 457.96 644.659 374.436C622.425 422.328 623.163 430.556 614.781 465.659C603.2 514.159 623.307 553.125 646.335 580.907C674.922 615.393 727.683 618.568 770.563 605.867C873.176 575.439 920.908 478.774 977.817 388.195C1018.49 323.37 1156.31 155.088 1084.05 114.164C1033.14 85.3237 915.703 145.828 890.998 206.243C914.909 161.086 910.423 98.8512 834.28 66.6589C786.28 46.3652 648.874 18.549 550.78 157.659C569.543 132.175 590.617 66.2941 539.5 39.4097C445.5 4.40971 368.469 122.82 344.281 151.659C360.349 127.659 377.281 80.1589 325.281 53.0433C265 21.6098 199.007 121.573 199.007 121.573Z" fill="#FAFAFA"/>
<path d="M245.102 241.008C245.102 242.297 245.531 243.391 246.41 244.27C247.279 245.158 248.344 245.598 249.594 245.598C250.844 245.598 251.908 245.158 252.777 244.27C253.656 243.391 254.086 242.297 254.086 241.008C254.086 239.719 253.656 238.625 252.777 237.736C251.908 236.848 250.844 236.398 249.594 236.398C248.344 236.398 247.279 236.848 246.41 237.736C245.531 238.625 245.102 239.719 245.102 241.008ZM241.996 240.998C241.996 238.986 242.729 237.268 244.193 235.842C245.658 234.416 247.465 233.703 249.594 233.703C251.723 233.703 253.529 234.416 254.994 235.842C256.459 237.268 257.191 238.986 257.191 240.998C257.191 243.01 256.459 244.738 254.994 246.164C253.529 247.59 251.723 248.303 249.594 248.303C247.465 248.303 245.658 247.59 244.193 246.164C242.729 244.738 241.996 243.01 241.996 240.998ZM259.408 248V238.195H262.104V245.598H264.809V238.195H267.504V245.598H270.209V238.195H272.904V248H259.408ZM282.348 238.195H284.701V248H282.006V242.502L277.738 248H275.404V238.195H278.1V243.703L282.348 238.195ZM297.201 243.303C297.201 244.68 296.732 245.842 295.814 246.779C294.896 247.727 293.725 248.195 292.299 248.195C290.697 248.195 289.408 247.639 288.441 246.525C287.475 245.412 286.996 243.84 286.996 241.799C286.996 239.523 287.426 237.805 288.295 236.633C289.154 235.471 290.395 234.729 291.996 234.396C292.699 234.25 293.354 234.084 293.939 233.908C294.525 233.732 294.926 233.596 295.16 233.479L295.502 233.303L296.693 235.305C296.635 235.363 296.547 235.432 296.41 235.51C296.273 235.598 295.873 235.764 295.209 236.008C294.545 236.262 293.734 236.486 292.797 236.701C291.938 236.896 291.244 237.258 290.717 237.795C290.18 238.332 289.838 238.996 289.701 239.797C289.721 239.758 289.77 239.709 289.828 239.65C289.887 239.592 290.004 239.484 290.199 239.328C290.385 239.172 290.58 239.025 290.795 238.898C291.01 238.771 291.273 238.654 291.605 238.557C291.928 238.459 292.26 238.4 292.602 238.4C293.812 238.4 294.877 238.889 295.805 239.855C296.732 240.822 297.201 241.975 297.201 243.303ZM289.994 243.303C289.994 244.035 290.209 244.631 290.658 245.1C291.098 245.568 291.645 245.803 292.299 245.803C292.904 245.803 293.422 245.568 293.852 245.1C294.281 244.631 294.496 244.035 294.496 243.303C294.496 242.57 294.281 241.975 293.852 241.506C293.422 241.037 292.904 240.803 292.299 240.803C291.645 240.803 291.098 241.037 290.658 241.506C290.209 241.975 289.994 242.57 289.994 243.303ZM300.404 238.195L308.305 238.205V248.01H305.609V240.607H303.012V241.213C303.012 243.039 302.855 244.494 302.543 245.568C302.23 246.643 301.84 247.375 301.352 247.746C300.863 248.117 300.248 248.303 299.506 248.303C299.262 248.303 299.027 248.283 298.793 248.225C298.559 248.166 298.393 248.117 298.285 248.078L298.109 248V245.598C298.305 245.666 298.51 245.695 298.705 245.695C299.096 245.695 299.408 245.598 299.643 245.393C299.867 245.188 300.053 244.729 300.189 244.016C300.326 243.303 300.404 242.268 300.404 240.9V238.195ZM317.855 238.195H320.209V248H317.514V242.502L313.246 248H310.912V238.195H313.607V243.703L317.855 238.195ZM322.201 243.098C322.201 241.74 322.719 240.549 323.764 239.533C324.818 238.518 326.059 238 327.494 238C328.002 238 328.49 238.078 328.949 238.215C329.408 238.352 329.779 238.518 330.072 238.713C330.365 238.908 330.629 239.094 330.854 239.289C331.088 239.484 331.254 239.66 331.352 239.797L331.498 240.002L329.799 241.701C329.75 241.613 329.662 241.496 329.545 241.34C329.428 241.193 329.164 240.998 328.764 240.764C328.363 240.529 327.943 240.402 327.494 240.402C326.791 240.402 326.176 240.666 325.668 241.193C325.16 241.721 324.896 242.365 324.896 243.107C324.896 243.85 325.16 244.484 325.668 245.012C326.186 245.539 326.791 245.803 327.494 245.803C327.943 245.803 328.363 245.695 328.764 245.48C329.164 245.266 329.457 245.051 329.633 244.836L329.896 244.504L331.498 246.203C331.459 246.262 331.41 246.33 331.342 246.428C331.273 246.525 331.117 246.682 330.863 246.906C330.619 247.131 330.355 247.326 330.062 247.502C329.779 247.678 329.408 247.834 328.949 247.98C328.49 248.127 328.002 248.195 327.494 248.195C326.059 248.195 324.818 247.688 323.773 246.672C322.719 245.656 322.201 244.465 322.201 243.098ZM336.01 245.803H337.709C338.051 245.803 338.334 245.695 338.568 245.461C338.793 245.236 338.91 244.953 338.91 244.602C338.91 244.26 338.793 243.977 338.568 243.742C338.344 243.518 338.061 243.4 337.709 243.4H336.01V245.803ZM341.615 244.602C341.615 245.617 341.273 246.438 340.6 247.062C339.926 247.688 338.998 248 337.816 248H333.314V238.195H336.01V241.203H337.816C338.998 241.203 339.926 241.516 340.6 242.141C341.273 242.766 341.615 243.586 341.615 244.602ZM347.611 238.195H352.514C353.49 238.195 354.281 238.469 354.896 238.996C355.502 239.533 355.814 240.168 355.814 240.9C355.814 241.35 355.707 241.73 355.512 242.062C355.307 242.395 355.102 242.619 354.906 242.717L354.613 242.902C354.652 242.922 354.701 242.941 354.779 242.961C354.848 242.99 354.975 243.068 355.17 243.186C355.355 243.303 355.521 243.439 355.658 243.596C355.795 243.752 355.922 243.957 356.039 244.221C356.156 244.494 356.215 244.787 356.215 245.1C356.215 245.93 355.893 246.623 355.258 247.17C354.623 247.727 353.773 248 352.709 248H347.611V238.195ZM352.514 243.801H350.307V245.803H352.514C352.816 245.803 353.061 245.715 353.236 245.52C353.412 245.334 353.51 245.09 353.51 244.797C353.51 244.504 353.412 244.27 353.236 244.084C353.061 243.898 352.816 243.801 352.514 243.801ZM353.109 241.203C353.109 240.676 352.836 240.402 352.309 240.402H350.307V242.004H352.309C352.836 242.004 353.109 241.74 353.109 241.203ZM365.014 240.598V248H362.318V238.195H371.518V248H368.812V240.598H365.014ZM379.711 248.195C379.145 248.195 378.627 248.088 378.139 247.854C377.65 247.619 377.309 247.395 377.113 247.16L376.811 246.799V252.199H374.115V238.195H376.811V239.396C376.83 239.357 376.869 239.309 376.928 239.25C376.986 239.191 377.104 239.084 377.279 238.928C377.455 238.771 377.65 238.625 377.865 238.498C378.07 238.371 378.344 238.254 378.676 238.156C379.008 238.059 379.35 238 379.711 238C380.98 238 382.074 238.498 383.012 239.484C383.949 240.471 384.418 241.672 384.418 243.098C384.418 244.523 383.949 245.734 383.012 246.721C382.074 247.707 380.98 248.195 379.711 248.195ZM379.213 240.402C378.549 240.402 377.982 240.656 377.514 241.164C377.045 241.672 376.811 242.316 376.811 243.107C376.811 243.889 377.045 244.543 377.514 245.051C377.982 245.559 378.549 245.812 379.213 245.812C379.877 245.812 380.443 245.559 380.912 245.051C381.381 244.543 381.615 243.889 381.615 243.107C381.615 242.316 381.381 241.672 380.912 241.164C380.443 240.656 379.877 240.402 379.213 240.402ZM391.82 248L391.811 247.004C391.732 247.102 391.625 247.209 391.488 247.346C391.352 247.482 391.039 247.658 390.57 247.873C390.102 248.088 389.613 248.195 389.105 248.195C388.129 248.195 387.338 247.932 386.723 247.385C386.117 246.838 385.805 246.184 385.805 245.402C385.805 244.602 386.068 243.938 386.576 243.4C387.094 242.873 387.807 242.521 388.705 242.355L391.811 241.799C391.811 241.389 391.664 241.057 391.361 240.793C391.068 240.539 390.648 240.402 390.111 240.402C389.672 240.402 389.271 240.49 388.9 240.656C388.539 240.822 388.285 240.988 388.129 241.164L387.904 241.398L386.41 239.904C386.449 239.855 386.508 239.787 386.576 239.699C386.645 239.611 386.801 239.455 387.035 239.24C387.27 239.025 387.533 238.84 387.807 238.674C388.09 238.508 388.461 238.352 388.91 238.215C389.369 238.078 389.838 238 390.316 238C391.547 238 392.562 238.371 393.344 239.113C394.125 239.855 394.516 240.783 394.516 241.896V248H391.82ZM389.809 245.998C390.424 245.998 390.912 245.812 391.273 245.422C391.635 245.031 391.811 244.494 391.811 243.801V243.498L389.613 243.898C388.881 244.016 388.51 244.387 388.51 245.002C388.51 245.666 388.949 245.998 389.809 245.998ZM397.123 238.195H402.025C403.002 238.195 403.793 238.469 404.408 238.996C405.014 239.533 405.326 240.168 405.326 240.9C405.326 241.35 405.219 241.73 405.023 242.062C404.818 242.395 404.613 242.619 404.418 242.717L404.125 242.902C404.164 242.922 404.213 242.941 404.291 242.961C404.359 242.99 404.486 243.068 404.682 243.186C404.867 243.303 405.033 243.439 405.17 243.596C405.307 243.752 405.434 243.957 405.551 244.221C405.668 244.494 405.727 244.787 405.727 245.1C405.727 245.93 405.404 246.623 404.77 247.17C404.135 247.727 403.285 248 402.221 248H397.123V238.195ZM402.025 243.801H399.818V245.803H402.025C402.328 245.803 402.572 245.715 402.748 245.52C402.924 245.334 403.021 245.09 403.021 244.797C403.021 244.504 402.924 244.27 402.748 244.084C402.572 243.898 402.328 243.801 402.025 243.801ZM402.621 241.203C402.621 240.676 402.348 240.402 401.82 240.402H399.818V242.004H401.82C402.348 242.004 402.621 241.74 402.621 241.203ZM406.43 245.598L407.025 245.607C407.064 245.568 407.113 245.51 407.191 245.441C407.27 245.363 407.396 245.188 407.582 244.914C407.768 244.631 407.934 244.318 408.07 243.986C408.207 243.654 408.334 243.205 408.451 242.658C408.568 242.102 408.627 241.516 408.627 240.9V238.195H416.127V245.598H417.426V250.305H414.73V248H409.125V250.305H406.43V245.598ZM411.127 240.607V241.213C411.127 241.984 411.02 242.736 410.805 243.469C410.59 244.201 410.385 244.738 410.17 245.09L409.828 245.607H413.432V240.607H411.127ZM426.176 238.195H428.529V248H425.834V242.502L421.566 248H419.232V238.195H421.928V243.703L426.176 238.195ZM431.127 238.195H436.029C437.006 238.195 437.797 238.469 438.412 238.996C439.018 239.533 439.33 240.168 439.33 240.9C439.33 241.35 439.223 241.73 439.027 242.062C438.822 242.395 438.617 242.619 438.422 242.717L438.129 242.902C438.168 242.922 438.217 242.941 438.295 242.961C438.363 242.99 438.49 243.068 438.686 243.186C438.871 243.303 439.037 243.439 439.174 243.596C439.311 243.752 439.438 243.957 439.555 244.221C439.672 244.494 439.73 244.787 439.73 245.1C439.73 245.93 439.408 246.623 438.773 247.17C438.139 247.727 437.289 248 436.225 248H431.127V238.195ZM436.029 243.801H433.822V245.803H436.029C436.332 245.803 436.576 245.715 436.752 245.52C436.928 245.334 437.025 245.09 437.025 244.797C437.025 244.504 436.928 244.27 436.752 244.084C436.576 243.898 436.332 243.801 436.029 243.801ZM436.625 241.203C436.625 240.676 436.352 240.402 435.824 240.402H433.822V242.004H435.824C436.352 242.004 436.625 241.74 436.625 241.203ZM443.93 243.107C443.93 243.84 444.164 244.455 444.643 244.953C445.111 245.451 445.678 245.695 446.332 245.695C446.977 245.695 447.543 245.451 448.021 244.953C448.49 244.455 448.734 243.84 448.734 243.107C448.734 242.375 448.49 241.76 448.021 241.252C447.543 240.754 446.977 240.5 446.332 240.5C445.678 240.5 445.111 240.754 444.643 241.252C444.164 241.76 443.93 242.375 443.93 243.107ZM451.527 243.098C451.527 244.465 451.01 245.656 449.975 246.672C448.939 247.688 447.729 248.195 446.332 248.195C444.926 248.195 443.715 247.688 442.68 246.672C441.645 245.656 441.127 244.465 441.127 243.098C441.127 241.74 441.645 240.549 442.68 239.533C443.715 238.518 444.926 238.01 446.332 238.01C447.729 238.01 448.939 238.518 449.975 239.533C451.01 240.549 451.527 241.74 451.527 243.098ZM452.924 243.098C452.924 241.74 453.441 240.549 454.486 239.533C455.541 238.518 456.781 238 458.217 238C458.725 238 459.213 238.078 459.672 238.215C460.131 238.352 460.502 238.518 460.795 238.713C461.088 238.908 461.352 239.094 461.576 239.289C461.811 239.484 461.977 239.66 462.074 239.797L462.221 240.002L460.521 241.701C460.473 241.613 460.385 241.496 460.268 241.34C460.15 241.193 459.887 240.998 459.486 240.764C459.086 240.529 458.666 240.402 458.217 240.402C457.514 240.402 456.898 240.666 456.391 241.193C455.883 241.721 455.619 242.365 455.619 243.107C455.619 243.85 455.883 244.484 456.391 245.012C456.908 245.539 457.514 245.803 458.217 245.803C458.666 245.803 459.086 245.695 459.486 245.48C459.887 245.266 460.18 245.051 460.355 244.836L460.619 244.504L462.221 246.203C462.182 246.262 462.133 246.33 462.064 246.428C461.996 246.525 461.84 246.682 461.586 246.906C461.342 247.131 461.078 247.326 460.785 247.502C460.502 247.678 460.131 247.834 459.672 247.98C459.213 248.127 458.725 248.195 458.217 248.195C456.781 248.195 455.541 247.688 454.496 246.672C453.441 245.656 452.924 244.465 452.924 243.098ZM463.031 240.803V238.195H471.938V240.803H468.832V248H466.137V240.803H463.031ZM480.473 238.195H482.826V248H480.131V242.502L475.863 248H473.529V238.195H476.225V243.703L480.473 238.195ZM492.221 244.299V248H489.525V238.195H492.221V241.896H496.02V238.195H498.725V248H496.02V244.299H492.221ZM510.619 243.996H503.52C503.617 244.533 503.9 244.982 504.369 245.354C504.828 245.725 505.414 245.9 506.117 245.9C506.625 245.9 507.094 245.803 507.523 245.607C507.953 245.412 508.266 245.207 508.441 245.002L508.725 244.699L510.121 246.496L509.936 246.682C509.857 246.76 509.682 246.896 509.418 247.092C509.145 247.287 508.861 247.463 508.568 247.619C508.266 247.775 507.875 247.902 507.396 248.02C506.918 248.137 506.43 248.195 505.922 248.195C504.477 248.195 503.256 247.697 502.24 246.701C501.225 245.705 500.717 244.504 500.717 243.098C500.717 241.701 501.215 240.5 502.221 239.504C503.217 238.508 504.418 238 505.824 238C507.221 238 508.383 238.469 509.32 239.406C510.248 240.344 510.717 241.506 510.717 242.902L510.619 243.996ZM505.824 240.305C505.248 240.305 504.76 240.471 504.359 240.803C503.959 241.135 503.676 241.574 503.52 242.102H508.021C507.914 241.584 507.66 241.154 507.27 240.812C506.879 240.48 506.391 240.305 505.824 240.305ZM522.025 238.195L518.324 242.404L522.23 248H519.223L516.625 244.201L515.424 245.598V248H512.729V238.195H515.424V242.199L518.93 238.195H522.025ZM525.316 243.107C525.316 243.84 525.551 244.455 526.029 244.953C526.498 245.451 527.064 245.695 527.719 245.695C528.363 245.695 528.93 245.451 529.408 244.953C529.877 244.455 530.121 243.84 530.121 243.107C530.121 242.375 529.877 241.76 529.408 241.252C528.93 240.754 528.363 240.5 527.719 240.5C527.064 240.5 526.498 240.754 526.029 241.252C525.551 241.76 525.316 242.375 525.316 243.107ZM532.914 243.098C532.914 244.465 532.396 245.656 531.361 246.672C530.326 247.688 529.115 248.195 527.719 248.195C526.312 248.195 525.102 247.688 524.066 246.672C523.031 245.656 522.514 244.465 522.514 243.098C522.514 241.74 523.031 240.549 524.066 239.533C525.102 238.518 526.312 238.01 527.719 238.01C529.115 238.01 530.326 238.518 531.361 239.533C532.396 240.549 532.914 241.74 532.914 243.098ZM533.91 240.803V238.195H542.816V240.803H539.711V248H537.016V240.803H533.91ZM546.605 243.107C546.605 243.84 546.84 244.455 547.318 244.953C547.787 245.451 548.354 245.695 549.008 245.695C549.652 245.695 550.219 245.451 550.697 244.953C551.166 244.455 551.41 243.84 551.41 243.107C551.41 242.375 551.166 241.76 550.697 241.252C550.219 240.754 549.652 240.5 549.008 240.5C548.354 240.5 547.787 240.754 547.318 241.252C546.84 241.76 546.605 242.375 546.605 243.107ZM554.203 243.098C554.203 244.465 553.686 245.656 552.65 246.672C551.615 247.688 550.404 248.195 549.008 248.195C547.602 248.195 546.391 247.688 545.355 246.672C544.32 245.656 543.803 244.465 543.803 243.098C543.803 241.74 544.32 240.549 545.355 239.533C546.391 238.518 547.602 238.01 549.008 238.01C550.404 238.01 551.615 238.518 552.65 239.533C553.686 240.549 554.203 241.74 554.203 243.098ZM561.801 248.195C561.234 248.195 560.717 248.088 560.229 247.854C559.74 247.619 559.398 247.395 559.203 247.16L558.9 246.799V252.199H556.205V238.195H558.9V239.396C558.92 239.357 558.959 239.309 559.018 239.25C559.076 239.191 559.193 239.084 559.369 238.928C559.545 238.771 559.74 238.625 559.955 238.498C560.16 238.371 560.434 238.254 560.766 238.156C561.098 238.059 561.439 238 561.801 238C563.07 238 564.164 238.498 565.102 239.484C566.039 240.471 566.508 241.672 566.508 243.098C566.508 244.523 566.039 245.734 565.102 246.721C564.164 247.707 563.07 248.195 561.801 248.195ZM561.303 240.402C560.639 240.402 560.072 240.656 559.604 241.164C559.135 241.672 558.9 242.316 558.9 243.107C558.9 243.889 559.135 244.543 559.604 245.051C560.072 245.559 560.639 245.812 561.303 245.812C561.967 245.812 562.533 245.559 563.002 245.051C563.471 244.543 563.705 243.889 563.705 243.107C563.705 242.316 563.471 241.672 563.002 241.164C562.533 240.656 561.967 240.402 561.303 240.402ZM580.609 238.195V248H577.904V238.195H580.609ZM571.205 245.803H572.807C573.148 245.803 573.432 245.695 573.656 245.461C573.891 245.236 573.998 244.953 573.998 244.602C573.998 244.26 573.891 243.977 573.656 243.742C573.432 243.518 573.148 243.4 572.807 243.4H571.205V245.803ZM576.713 244.602C576.713 245.617 576.371 246.438 575.697 247.062C575.023 247.688 574.096 248 572.904 248H568.51V238.195H571.205V241.203H572.904C574.086 241.203 575.014 241.516 575.697 242.141C576.371 242.766 576.713 243.586 576.713 244.602ZM587.016 244.904L584.916 248H582.016L585.316 243L582.211 238.195H585.219L587.016 241.096L588.812 238.195H591.82L588.715 243L592.016 248H589.115L587.016 244.904ZM602.416 245.9V240.5C601.518 240.559 600.834 240.822 600.346 241.291C599.857 241.77 599.613 242.404 599.613 243.205C599.613 244.006 599.857 244.641 600.346 245.109C600.834 245.588 601.518 245.852 602.416 245.9ZM605.111 248.303V252.199H602.416V248.303C600.834 248.254 599.525 247.736 598.48 246.74C597.426 245.754 596.908 244.572 596.908 243.205C596.908 241.838 597.426 240.656 598.48 239.67C599.525 238.674 600.834 238.156 602.416 238.107V234.006H605.111V238.107C606.684 238.156 607.992 238.674 609.037 239.67C610.082 240.656 610.609 241.838 610.609 243.205C610.609 244.572 610.082 245.754 609.037 246.74C607.992 247.736 606.684 248.254 605.111 248.303ZM605.111 240.5V245.9C606 245.852 606.693 245.588 607.182 245.109C607.67 244.641 607.914 244.006 607.914 243.205C607.914 242.404 607.67 241.77 607.182 241.291C606.693 240.822 606 240.559 605.111 240.5ZM618.012 248L618.002 247.004C617.924 247.102 617.816 247.209 617.68 247.346C617.543 247.482 617.23 247.658 616.762 247.873C616.293 248.088 615.805 248.195 615.297 248.195C614.32 248.195 613.529 247.932 612.914 247.385C612.309 246.838 611.996 246.184 611.996 245.402C611.996 244.602 612.26 243.938 612.768 243.4C613.285 242.873 613.998 242.521 614.896 242.355L618.002 241.799C618.002 241.389 617.855 241.057 617.553 240.793C617.26 240.539 616.84 240.402 616.303 240.402C615.863 240.402 615.463 240.49 615.092 240.656C614.73 240.822 614.477 240.988 614.32 241.164L614.096 241.398L612.602 239.904C612.641 239.855 612.699 239.787 612.768 239.699C612.836 239.611 612.992 239.455 613.227 239.24C613.461 239.025 613.725 238.84 613.998 238.674C614.281 238.508 614.652 238.352 615.102 238.215C615.561 238.078 616.029 238 616.508 238C617.738 238 618.754 238.371 619.535 239.113C620.316 239.855 620.707 240.783 620.707 241.896V248H618.012ZM616 245.998C616.615 245.998 617.104 245.812 617.465 245.422C617.826 245.031 618.002 244.494 618.002 243.801V243.498L615.805 243.898C615.072 244.016 614.701 244.387 614.701 245.002C614.701 245.666 615.141 245.998 616 245.998ZM632.611 238.195L628.91 242.404L632.816 248H629.809L627.211 244.201L626.01 245.598V248H623.314V238.195H626.01V242.199L629.516 238.195H632.611ZM633.109 240.803V238.195H642.016V240.803H638.91V248H636.215V240.803H633.109ZM645.805 243.107C645.805 243.84 646.039 244.455 646.518 244.953C646.986 245.451 647.553 245.695 648.207 245.695C648.852 245.695 649.418 245.451 649.896 244.953C650.365 244.455 650.609 243.84 650.609 243.107C650.609 242.375 650.365 241.76 649.896 241.252C649.418 240.754 648.852 240.5 648.207 240.5C647.553 240.5 646.986 240.754 646.518 241.252C646.039 241.76 645.805 242.375 645.805 243.107ZM653.402 243.098C653.402 244.465 652.885 245.656 651.85 246.672C650.814 247.688 649.604 248.195 648.207 248.195C646.801 248.195 645.59 247.688 644.555 246.672C643.52 245.656 643.002 244.465 643.002 243.098C643.002 241.74 643.52 240.549 644.555 239.533C645.59 238.518 646.801 238.01 648.207 238.01C649.604 238.01 650.814 238.518 651.85 239.533C652.885 240.549 653.402 241.74 653.402 243.098ZM655.404 238.195H660.307C661.283 238.195 662.074 238.469 662.689 238.996C663.295 239.533 663.607 240.168 663.607 240.9C663.607 241.35 663.5 241.73 663.305 242.062C663.1 242.395 662.895 242.619 662.699 242.717L662.406 242.902C662.445 242.922 662.494 242.941 662.572 242.961C662.641 242.99 662.768 243.068 662.963 243.186C663.148 243.303 663.314 243.439 663.451 243.596C663.588 243.752 663.715 243.957 663.832 244.221C663.949 244.494 664.008 244.787 664.008 245.1C664.008 245.93 663.686 246.623 663.051 247.17C662.416 247.727 661.566 248 660.502 248H655.404V238.195ZM660.307 243.801H658.1V245.803H660.307C660.609 245.803 660.854 245.715 661.029 245.52C661.205 245.334 661.303 245.09 661.303 244.797C661.303 244.504 661.205 244.27 661.029 244.084C660.854 243.898 660.609 243.801 660.307 243.801ZM660.902 241.203C660.902 240.676 660.629 240.402 660.102 240.402H658.1V242.004H660.102C660.629 242.004 660.902 241.74 660.902 241.203ZM668.51 243.098C668.51 242.57 668.627 242.092 668.861 241.682C669.096 241.271 669.379 240.939 669.711 240.686C670.043 240.432 670.375 240.197 670.707 239.963C671.039 239.729 671.322 239.455 671.557 239.152C671.791 238.84 671.908 238.498 671.908 238.107C671.908 237.697 671.742 237.346 671.41 237.053C671.078 236.76 670.639 236.613 670.111 236.613C669.545 236.613 669.066 236.74 668.666 237.014C668.266 237.277 668.002 237.541 667.885 237.814L667.709 238.205L665.209 237.111C665.229 237.014 665.277 236.896 665.336 236.74C665.395 236.584 665.551 236.311 665.814 235.93C666.068 235.539 666.371 235.197 666.713 234.895C667.055 234.592 667.533 234.318 668.158 234.074C668.773 233.83 669.457 233.713 670.209 233.713C671.615 233.713 672.768 234.104 673.666 234.885C674.555 235.666 675.004 236.613 675.004 237.707C675.004 238.381 674.877 238.986 674.633 239.514C674.389 240.041 674.086 240.471 673.734 240.803C673.383 241.125 673.031 241.428 672.68 241.711C672.328 242.004 672.025 242.336 671.781 242.727C671.527 243.117 671.41 243.537 671.41 243.996H668.705C668.568 243.664 668.51 243.371 668.51 243.098ZM668.305 246.701C668.305 246.301 668.461 245.949 668.773 245.656C669.086 245.354 669.467 245.207 669.906 245.207C670.346 245.207 670.727 245.354 671.039 245.656C671.352 245.949 671.508 246.301 671.508 246.701C671.508 247.102 671.352 247.453 671.039 247.756C670.727 248.049 670.346 248.205 669.906 248.205C669.467 248.205 669.086 248.049 668.773 247.756C668.461 247.453 668.305 247.102 668.305 246.701Z" fill="#4039A3"/>
<path d="M243.1 280V265.996H244.604V272.197H252.396V265.996H253.9V280H252.396V273.604H244.604V280H243.1ZM264.701 270.4H265.902V280H264.496V272.803L258.695 280H257.504V270.4H258.9V277.598L264.701 270.4ZM275.297 280V276.104C274.555 276.641 273.656 276.904 272.602 276.904C271.508 276.904 270.609 276.562 269.926 275.879C269.242 275.195 268.9 274.297 268.9 273.203V270.4H270.297V273.203C270.297 273.896 270.521 274.473 270.971 274.922C271.42 275.371 271.996 275.596 272.699 275.596C273.178 275.596 273.637 275.527 274.066 275.381C274.496 275.234 274.809 275.078 275.004 274.922L275.297 274.697V270.4H276.703V280H275.297ZM288.402 275.723L280.6 275.703C280.648 276.572 281 277.324 281.664 277.949C282.328 278.584 283.1 278.896 283.998 278.896C284.594 278.896 285.15 278.77 285.668 278.496C286.176 278.232 286.547 277.969 286.762 277.695L287.104 277.305L288.002 278.203C287.963 278.262 287.904 278.33 287.826 278.428C287.748 278.525 287.592 278.682 287.338 278.906C287.084 279.131 286.82 279.326 286.527 279.502C286.234 279.678 285.863 279.834 285.404 279.98C284.945 280.127 284.477 280.195 283.998 280.195C282.689 280.195 281.557 279.717 280.619 278.74C279.672 277.764 279.203 276.582 279.203 275.195C279.203 273.809 279.662 272.637 280.6 271.66C281.537 270.684 282.631 270.195 283.9 270.195C285.209 270.195 286.303 270.654 287.182 271.562C288.061 272.471 288.5 273.613 288.5 275L288.402 275.723ZM283.9 271.504C283.061 271.504 282.328 271.807 281.703 272.393C281.078 272.988 280.707 273.691 280.6 274.502H287.104C286.996 273.643 286.645 272.92 286.049 272.354C285.453 271.787 284.74 271.504 283.9 271.504ZM297.396 270.4V271.699H292.396V280H291V270.4H297.396ZM306.898 275.205C306.898 274.17 306.547 273.291 305.863 272.578C305.18 271.865 304.35 271.504 303.393 271.504C302.436 271.504 301.605 271.865 300.922 272.578C300.238 273.291 299.896 274.16 299.896 275.195C299.896 276.23 300.238 277.1 300.922 277.822C301.605 278.545 302.436 278.896 303.393 278.896C304.35 278.896 305.18 278.545 305.863 277.832C306.547 277.119 306.898 276.24 306.898 275.205ZM298.5 275.205C298.5 273.799 298.969 272.617 299.926 271.65C300.883 270.684 302.035 270.195 303.402 270.195C304.76 270.195 305.912 270.684 306.859 271.65C307.816 272.617 308.285 273.799 308.285 275.205C308.285 276.611 307.816 277.793 306.859 278.76C305.912 279.717 304.76 280.205 303.402 280.205C302.035 280.205 300.883 279.717 299.926 278.76C298.969 277.793 298.5 276.611 298.5 275.205ZM311.098 278.203L312.504 279.004L310.199 282.598L309.301 282.1L311.098 278.203ZM327.309 272.9L323.803 277.305L320.307 272.9V280H318.91V270.4H320.004L323.803 275.195L327.602 270.4H328.705V280H327.309V272.9ZM342.416 270.4V280H341.01V270.4H342.416ZM333.314 278.701H335.736C336.361 278.701 336.859 278.525 337.24 278.174C337.621 277.822 337.816 277.363 337.816 276.797C337.816 276.24 337.621 275.781 337.24 275.43C336.859 275.078 336.352 274.902 335.717 274.902H333.314V278.701ZM339.213 276.807C339.213 277.764 338.9 278.535 338.285 279.121C337.66 279.707 336.811 280 335.736 280H331.918V270.4H333.314V273.604H335.717C336.791 273.604 337.65 273.896 338.275 274.482C338.9 275.068 339.213 275.85 339.213 276.807ZM348.715 275.195C348.715 273.809 349.184 272.637 350.131 271.66C351.078 270.684 352.201 270.195 353.5 270.195C354.252 270.195 354.955 270.361 355.6 270.684C356.244 271.006 356.713 271.328 356.986 271.641L357.406 272.1L356.4 273.096C356.381 273.057 356.342 273.008 356.283 272.93C356.234 272.861 356.117 272.734 355.941 272.539C355.766 272.354 355.57 272.188 355.365 272.051C355.15 271.914 354.887 271.787 354.555 271.67C354.223 271.562 353.871 271.504 353.51 271.504C352.592 271.504 351.791 271.865 351.117 272.578C350.443 273.291 350.111 274.17 350.111 275.205C350.111 276.24 350.443 277.119 351.117 277.832C351.791 278.545 352.592 278.896 353.51 278.896C354.066 278.896 354.594 278.77 355.102 278.496C355.6 278.232 355.961 277.969 356.186 277.695L356.508 277.305L357.504 278.203C357.465 278.262 357.406 278.33 357.328 278.428C357.25 278.525 357.074 278.682 356.811 278.906C356.557 279.131 356.283 279.326 355.99 279.502C355.707 279.678 355.336 279.834 354.887 279.98C354.438 280.127 353.979 280.195 353.51 280.195C352.201 280.195 351.068 279.717 350.131 278.74C349.184 277.764 348.715 276.582 348.715 275.195ZM367.406 275.205C367.406 274.17 367.055 273.291 366.371 272.578C365.688 271.865 364.857 271.504 363.9 271.504C362.943 271.504 362.113 271.865 361.43 272.578C360.746 273.291 360.404 274.16 360.404 275.195C360.404 276.23 360.746 277.1 361.43 277.822C362.113 278.545 362.943 278.896 363.9 278.896C364.857 278.896 365.688 278.545 366.371 277.832C367.055 277.119 367.406 276.24 367.406 275.205ZM359.008 275.205C359.008 273.799 359.477 272.617 360.434 271.65C361.391 270.684 362.543 270.195 363.91 270.195C365.268 270.195 366.42 270.684 367.367 271.65C368.324 272.617 368.793 273.799 368.793 275.205C368.793 276.611 368.324 277.793 367.367 278.76C366.42 279.717 365.268 280.205 363.91 280.205C362.543 280.205 361.391 279.717 360.434 278.76C359.477 277.793 359.008 276.611 359.008 275.205ZM371.312 270.4H375.707C376.586 270.4 377.289 270.645 377.816 271.113C378.344 271.582 378.607 272.178 378.607 272.9C378.607 273.311 378.5 273.691 378.305 274.023C378.109 274.355 377.904 274.59 377.709 274.717L377.406 274.902C377.445 274.922 377.494 274.941 377.572 274.961C377.65 274.99 377.777 275.059 377.963 275.176C378.148 275.293 378.314 275.42 378.451 275.576C378.588 275.732 378.715 275.947 378.832 276.23C378.949 276.523 379.008 276.846 379.008 277.197C379.008 278.066 378.734 278.75 378.197 279.248C377.65 279.756 376.889 280 375.912 280H371.312V270.4ZM375.912 275.498H372.709V278.701H375.912C376.459 278.701 376.879 278.564 377.172 278.281C377.465 278.008 377.611 277.607 377.611 277.1C377.611 276.592 377.465 276.201 377.172 275.918C376.879 275.645 376.459 275.498 375.912 275.498ZM377.211 272.998C377.211 272.139 376.703 271.699 375.707 271.699H372.709V274.297H375.707C376.703 274.297 377.211 273.867 377.211 272.998ZM381 275.195C381 273.809 381.469 272.637 382.416 271.66C383.363 270.684 384.486 270.195 385.785 270.195C386.537 270.195 387.24 270.361 387.885 270.684C388.529 271.006 388.998 271.328 389.271 271.641L389.691 272.1L388.686 273.096C388.666 273.057 388.627 273.008 388.568 272.93C388.52 272.861 388.402 272.734 388.227 272.539C388.051 272.354 387.855 272.188 387.65 272.051C387.436 271.914 387.172 271.787 386.84 271.67C386.508 271.562 386.156 271.504 385.795 271.504C384.877 271.504 384.076 271.865 383.402 272.578C382.729 273.291 382.396 274.17 382.396 275.205C382.396 276.24 382.729 277.119 383.402 277.832C384.076 278.545 384.877 278.896 385.795 278.896C386.352 278.896 386.879 278.77 387.387 278.496C387.885 278.232 388.246 277.969 388.471 277.695L388.793 277.305L389.789 278.203C389.75 278.262 389.691 278.33 389.613 278.428C389.535 278.525 389.359 278.682 389.096 278.906C388.842 279.131 388.568 279.326 388.275 279.502C387.992 279.678 387.621 279.834 387.172 279.98C386.723 280.127 386.264 280.195 385.795 280.195C384.486 280.195 383.354 279.717 382.416 278.74C381.469 277.764 381 276.582 381 275.195ZM400.492 275.723L392.689 275.703C392.738 276.572 393.09 277.324 393.754 277.949C394.418 278.584 395.189 278.896 396.088 278.896C396.684 278.896 397.24 278.77 397.758 278.496C398.266 278.232 398.637 277.969 398.852 277.695L399.193 277.305L400.092 278.203C400.053 278.262 399.994 278.33 399.916 278.428C399.838 278.525 399.682 278.682 399.428 278.906C399.174 279.131 398.91 279.326 398.617 279.502C398.324 279.678 397.953 279.834 397.494 279.98C397.035 280.127 396.566 280.195 396.088 280.195C394.779 280.195 393.646 279.717 392.709 278.74C391.762 277.764 391.293 276.582 391.293 275.195C391.293 273.809 391.752 272.637 392.689 271.66C393.627 270.684 394.721 270.195 395.99 270.195C397.299 270.195 398.393 270.654 399.271 271.562C400.15 272.471 400.59 273.613 400.59 275L400.492 275.723ZM395.99 271.504C395.15 271.504 394.418 271.807 393.793 272.393C393.168 272.988 392.797 273.691 392.689 274.502H399.193C399.086 273.643 398.734 272.92 398.139 272.354C397.543 271.787 396.83 271.504 395.99 271.504ZM411.488 272.9L407.982 277.305L404.486 272.9V280H403.09V270.4H404.184L407.982 275.195L411.781 270.4H412.885V280H411.488V272.9ZM426.801 280V275.801H421.303V280H419.906V270.4H421.303V274.502H426.801V270.4H428.207V280H426.801ZM439.906 275.723L432.104 275.703C432.152 276.572 432.504 277.324 433.168 277.949C433.832 278.584 434.604 278.896 435.502 278.896C436.098 278.896 436.654 278.77 437.172 278.496C437.68 278.232 438.051 277.969 438.266 277.695L438.607 277.305L439.506 278.203C439.467 278.262 439.408 278.33 439.33 278.428C439.252 278.525 439.096 278.682 438.842 278.906C438.588 279.131 438.324 279.326 438.031 279.502C437.738 279.678 437.367 279.834 436.908 279.98C436.449 280.127 435.98 280.195 435.502 280.195C434.193 280.195 433.061 279.717 432.123 278.74C431.176 277.764 430.707 276.582 430.707 275.195C430.707 273.809 431.166 272.637 432.104 271.66C433.041 270.684 434.135 270.195 435.404 270.195C436.713 270.195 437.807 270.654 438.686 271.562C439.564 272.471 440.004 273.613 440.004 275L439.906 275.723ZM435.404 271.504C434.564 271.504 433.832 271.807 433.207 272.393C432.582 272.988 432.211 273.691 432.104 274.502H438.607C438.5 273.643 438.148 272.92 437.553 272.354C436.957 271.787 436.244 271.504 435.404 271.504ZM446.312 270.4H450.707C451.586 270.4 452.289 270.645 452.816 271.113C453.344 271.582 453.607 272.178 453.607 272.9C453.607 273.311 453.5 273.691 453.305 274.023C453.109 274.355 452.904 274.59 452.709 274.717L452.406 274.902C452.445 274.922 452.494 274.941 452.572 274.961C452.65 274.99 452.777 275.059 452.963 275.176C453.148 275.293 453.314 275.42 453.451 275.576C453.588 275.732 453.715 275.947 453.832 276.23C453.949 276.523 454.008 276.846 454.008 277.197C454.008 278.066 453.734 278.75 453.197 279.248C452.65 279.756 451.889 280 450.912 280H446.312V270.4ZM450.912 275.498H447.709V278.701H450.912C451.459 278.701 451.879 278.564 452.172 278.281C452.465 278.008 452.611 277.607 452.611 277.1C452.611 276.592 452.465 276.201 452.172 275.918C451.879 275.645 451.459 275.498 450.912 275.498ZM452.211 272.998C452.211 272.139 451.703 271.699 450.707 271.699H447.709V274.297H450.707C451.703 274.297 452.211 273.867 452.211 272.998ZM464.398 275.205C464.398 274.17 464.047 273.291 463.363 272.578C462.68 271.865 461.85 271.504 460.893 271.504C459.936 271.504 459.105 271.865 458.422 272.578C457.738 273.291 457.396 274.16 457.396 275.195C457.396 276.23 457.738 277.1 458.422 277.822C459.105 278.545 459.936 278.896 460.893 278.896C461.85 278.896 462.68 278.545 463.363 277.832C464.047 277.119 464.398 276.24 464.398 275.205ZM456 275.205C456 273.799 456.469 272.617 457.426 271.65C458.383 270.684 459.535 270.195 460.902 270.195C462.26 270.195 463.412 270.684 464.359 271.65C465.316 272.617 465.785 273.799 465.785 275.205C465.785 276.611 465.316 277.793 464.359 278.76C463.412 279.717 462.26 280.205 460.902 280.205C459.535 280.205 458.383 279.717 457.426 278.76C456.469 277.793 456 276.611 456 275.205ZM474.105 272.9C474.105 273.223 474.047 273.516 473.949 273.779C473.852 274.033 473.725 274.238 473.578 274.385C473.432 274.531 473.285 274.658 473.129 274.756C472.973 274.854 472.855 274.932 472.758 274.971L472.602 275.01C472.65 275.02 472.719 275.039 472.807 275.059C472.895 275.078 473.041 275.137 473.256 275.244C473.471 275.352 473.656 275.479 473.822 275.635C473.988 275.791 474.145 276.016 474.281 276.309C474.418 276.602 474.496 276.934 474.496 277.314C474.496 278.125 474.174 278.809 473.539 279.365C472.895 279.922 471.986 280.205 470.805 280.205C470.346 280.205 469.916 280.146 469.506 280.029C469.096 279.912 468.764 279.766 468.49 279.609C468.217 279.443 467.973 279.277 467.777 279.111C467.582 278.945 467.436 278.809 467.338 278.691L467.201 278.506L468.1 277.607C468.178 277.695 468.285 277.812 468.422 277.959C468.559 278.115 468.871 278.311 469.34 278.545C469.809 278.779 470.297 278.896 470.805 278.896C471.566 278.896 472.133 278.75 472.523 278.457C472.904 278.164 473.1 277.783 473.1 277.305C473.1 276.826 472.904 276.436 472.514 276.143C472.123 275.85 471.557 275.703 470.805 275.703H469.701V274.404H470.805C471.371 274.404 471.83 274.258 472.182 273.965C472.523 273.672 472.699 273.311 472.699 272.9C472.699 272.49 472.533 272.148 472.221 271.895C471.898 271.641 471.43 271.514 470.805 271.514C470.355 271.514 469.936 271.602 469.535 271.777C469.135 271.953 468.852 272.139 468.686 272.324L468.402 272.598L467.396 271.602C467.484 271.504 467.621 271.367 467.797 271.211C467.973 271.055 468.354 270.85 468.939 270.586C469.525 270.332 470.141 270.195 470.805 270.195C471.781 270.195 472.572 270.469 473.188 270.996C473.793 271.533 474.105 272.168 474.105 272.9ZM478.51 275.205C478.51 276.191 478.852 277.051 479.555 277.793C480.258 278.535 481.039 278.896 481.908 278.896C482.729 278.896 483.471 278.545 484.125 277.822C484.779 277.1 485.111 276.23 485.111 275.205C485.111 274.18 484.779 273.311 484.125 272.588C483.471 271.865 482.729 271.504 481.908 271.504C481.039 271.504 480.258 271.875 479.555 272.617C478.852 273.359 478.51 274.219 478.51 275.205ZM478.51 278.496V284.209H477.113V270.41H478.51V271.914C478.529 271.875 478.578 271.807 478.646 271.729C478.715 271.65 478.852 271.514 479.066 271.318C479.281 271.123 479.506 270.947 479.76 270.791C480.004 270.635 480.316 270.498 480.707 270.381C481.098 270.264 481.498 270.205 481.908 270.205C483.129 270.205 484.203 270.693 485.121 271.68C486.039 272.656 486.508 273.838 486.508 275.205C486.508 276.572 486.049 277.754 485.131 278.73C484.213 279.707 483.139 280.195 481.908 280.195C481.498 280.195 481.098 280.137 480.717 280.02C480.336 279.902 480.014 279.766 479.76 279.6C479.496 279.443 479.271 279.277 479.076 279.111C478.881 278.945 478.744 278.799 478.646 278.682L478.51 278.496ZM491.107 274.502L494.809 273.896C494.809 273.193 494.584 272.617 494.135 272.168C493.686 271.729 493.109 271.504 492.406 271.504C491.898 271.504 491.42 271.621 490.971 271.855C490.521 272.09 490.199 272.324 490.004 272.559L489.701 272.9L488.803 272.002C488.842 271.953 488.891 271.885 488.959 271.807C489.027 271.729 489.174 271.582 489.408 271.377C489.643 271.172 489.887 270.986 490.141 270.82C490.395 270.664 490.727 270.518 491.137 270.391C491.547 270.264 491.977 270.195 492.406 270.195C493.5 270.195 494.398 270.557 495.121 271.26C495.844 271.973 496.205 272.852 496.205 273.896V280H494.809V278.701C494.779 278.74 494.74 278.799 494.682 278.867C494.623 278.936 494.506 279.053 494.311 279.229C494.115 279.404 493.91 279.551 493.695 279.688C493.471 279.824 493.178 279.941 492.816 280.039C492.455 280.146 492.084 280.195 491.703 280.195C490.746 280.195 489.936 279.912 489.281 279.346C488.627 278.779 488.305 278.135 488.305 277.402C488.305 276.602 488.539 275.957 489.027 275.469C489.506 274.98 490.199 274.658 491.107 274.502ZM491.703 278.896C492.602 278.896 493.344 278.604 493.93 278.008C494.516 277.422 494.809 276.65 494.809 275.703V275.098L491.508 275.703C490.307 275.938 489.701 276.504 489.701 277.402C489.701 277.832 489.877 278.193 490.229 278.477C490.58 278.76 491.078 278.896 491.703 278.896ZM504.398 276.797L502.992 275.303L499.594 280H497.992L502.094 274.297L498.393 270.4H500.092L504.398 275V270.4H505.795V275L510.092 270.4H511.791L508.09 274.297L512.191 280H510.59L507.191 275.303L505.795 276.797V280H504.398V276.797ZM516.107 274.502L519.809 273.896C519.809 273.193 519.584 272.617 519.135 272.168C518.686 271.729 518.109 271.504 517.406 271.504C516.898 271.504 516.42 271.621 515.971 271.855C515.521 272.09 515.199 272.324 515.004 272.559L514.701 272.9L513.803 272.002C513.842 271.953 513.891 271.885 513.959 271.807C514.027 271.729 514.174 271.582 514.408 271.377C514.643 271.172 514.887 270.986 515.141 270.82C515.395 270.664 515.727 270.518 516.137 270.391C516.547 270.264 516.977 270.195 517.406 270.195C518.5 270.195 519.398 270.557 520.121 271.26C520.844 271.973 521.205 272.852 521.205 273.896V280H519.809V278.701C519.779 278.74 519.74 278.799 519.682 278.867C519.623 278.936 519.506 279.053 519.311 279.229C519.115 279.404 518.91 279.551 518.695 279.688C518.471 279.824 518.178 279.941 517.816 280.039C517.455 280.146 517.084 280.195 516.703 280.195C515.746 280.195 514.936 279.912 514.281 279.346C513.627 278.779 513.305 278.135 513.305 277.402C513.305 276.602 513.539 275.957 514.027 275.469C514.506 274.98 515.199 274.658 516.107 274.502ZM516.703 278.896C517.602 278.896 518.344 278.604 518.93 278.008C519.516 277.422 519.809 276.65 519.809 275.703V275.098L516.508 275.703C515.307 275.938 514.701 276.504 514.701 277.402C514.701 277.832 514.877 278.193 515.229 278.477C515.58 278.76 516.078 278.896 516.703 278.896ZM532.895 275.723L525.092 275.703C525.141 276.572 525.492 277.324 526.156 277.949C526.82 278.584 527.592 278.896 528.49 278.896C529.086 278.896 529.643 278.77 530.16 278.496C530.668 278.232 531.039 277.969 531.254 277.695L531.596 277.305L532.494 278.203C532.455 278.262 532.396 278.33 532.318 278.428C532.24 278.525 532.084 278.682 531.83 278.906C531.576 279.131 531.312 279.326 531.02 279.502C530.727 279.678 530.355 279.834 529.896 279.98C529.438 280.127 528.969 280.195 528.49 280.195C527.182 280.195 526.049 279.717 525.111 278.74C524.164 277.764 523.695 276.582 523.695 275.195C523.695 273.809 524.154 272.637 525.092 271.66C526.029 270.684 527.123 270.195 528.393 270.195C529.701 270.195 530.795 270.654 531.674 271.562C532.553 272.471 532.992 273.613 532.992 275L532.895 275.723ZM528.393 271.504C527.553 271.504 526.82 271.807 526.195 272.393C525.57 272.988 525.199 273.691 525.092 274.502H531.596C531.488 273.643 531.137 272.92 530.541 272.354C529.945 271.787 529.232 271.504 528.393 271.504ZM543.891 272.9L540.385 277.305L536.889 272.9V280H535.492V270.4H536.586L540.385 275.195L544.184 270.4H545.287V280H543.891V272.9ZM548.793 278.203L550.199 279.004L547.895 282.598L546.996 282.1L548.793 278.203ZM565.102 275.723L557.299 275.703C557.348 276.572 557.699 277.324 558.363 277.949C559.027 278.584 559.799 278.896 560.697 278.896C561.293 278.896 561.85 278.77 562.367 278.496C562.875 278.232 563.246 277.969 563.461 277.695L563.803 277.305L564.701 278.203C564.662 278.262 564.604 278.33 564.525 278.428C564.447 278.525 564.291 278.682 564.037 278.906C563.783 279.131 563.52 279.326 563.227 279.502C562.934 279.678 562.562 279.834 562.104 279.98C561.645 280.127 561.176 280.195 560.697 280.195C559.389 280.195 558.256 279.717 557.318 278.74C556.371 277.764 555.902 276.582 555.902 275.195C555.902 273.809 556.361 272.637 557.299 271.66C558.236 270.684 559.33 270.195 560.6 270.195C561.908 270.195 563.002 270.654 563.881 271.562C564.76 272.471 565.199 273.613 565.199 275L565.102 275.723ZM560.6 271.504C559.76 271.504 559.027 271.807 558.402 272.393C557.777 272.988 557.406 273.691 557.299 274.502H563.803C563.695 273.643 563.344 272.92 562.748 272.354C562.152 271.787 561.439 271.504 560.6 271.504ZM566.996 275.195C566.996 273.809 567.465 272.637 568.412 271.66C569.359 270.684 570.482 270.195 571.781 270.195C572.533 270.195 573.236 270.361 573.881 270.684C574.525 271.006 574.994 271.328 575.268 271.641L575.688 272.1L574.682 273.096C574.662 273.057 574.623 273.008 574.564 272.93C574.516 272.861 574.398 272.734 574.223 272.539C574.047 272.354 573.852 272.188 573.646 272.051C573.432 271.914 573.168 271.787 572.836 271.67C572.504 271.562 572.152 271.504 571.791 271.504C570.873 271.504 570.072 271.865 569.398 272.578C568.725 273.291 568.393 274.17 568.393 275.205C568.393 276.24 568.725 277.119 569.398 277.832C570.072 278.545 570.873 278.896 571.791 278.896C572.348 278.896 572.875 278.77 573.383 278.496C573.881 278.232 574.242 277.969 574.467 277.695L574.789 277.305L575.785 278.203C575.746 278.262 575.688 278.33 575.609 278.428C575.531 278.525 575.355 278.682 575.092 278.906C574.838 279.131 574.564 279.326 574.271 279.502C573.988 279.678 573.617 279.834 573.168 279.98C572.719 280.127 572.26 280.195 571.791 280.195C570.482 280.195 569.35 279.717 568.412 278.74C567.465 277.764 566.996 276.582 566.996 275.195ZM578.988 270.4L585.99 270.41V280.01H584.584V271.709H580.385V273.213C580.385 274.619 580.307 275.801 580.17 276.738C580.033 277.676 579.818 278.398 579.545 278.887C579.262 279.375 578.949 279.717 578.617 279.912C578.275 280.107 577.865 280.205 577.387 280.205C577.221 280.205 577.055 280.186 576.889 280.156C576.723 280.117 576.605 280.088 576.527 280.049L576.391 280.01V278.613C576.654 278.74 576.918 278.809 577.191 278.809C577.602 278.809 577.924 278.691 578.158 278.457C578.393 278.223 578.588 277.676 578.744 276.836C578.9 275.986 578.988 274.775 578.988 273.203V270.4ZM596.381 270.4H597.582V280H596.176V272.803L590.375 280H589.184V270.4H590.58V277.598L596.381 270.4ZM604.594 270.4H608.988C609.867 270.4 610.57 270.645 611.098 271.113C611.625 271.582 611.889 272.178 611.889 272.9C611.889 273.311 611.781 273.691 611.586 274.023C611.391 274.355 611.186 274.59 610.99 274.717L610.688 274.902C610.727 274.922 610.775 274.941 610.854 274.961C610.932 274.99 611.059 275.059 611.244 275.176C611.43 275.293 611.596 275.42 611.732 275.576C611.869 275.732 611.996 275.947 612.113 276.23C612.23 276.523 612.289 276.846 612.289 277.197C612.289 278.066 612.016 278.75 611.479 279.248C610.932 279.756 610.17 280 609.193 280H604.594V270.4ZM609.193 275.498H605.99V278.701H609.193C609.74 278.701 610.16 278.564 610.453 278.281C610.746 278.008 610.893 277.607 610.893 277.1C610.893 276.592 610.746 276.201 610.453 275.918C610.16 275.645 609.74 275.498 609.193 275.498ZM610.492 272.998C610.492 272.139 609.984 271.699 608.988 271.699H605.99V274.297H608.988C609.984 274.297 610.492 273.867 610.492 272.998ZM625.482 270.4V280H624.076V270.4H625.482ZM616.381 278.701H618.803C619.428 278.701 619.926 278.525 620.307 278.174C620.688 277.822 620.883 277.363 620.883 276.797C620.883 276.24 620.688 275.781 620.307 275.43C619.926 275.078 619.418 274.902 618.783 274.902H616.381V278.701ZM622.279 276.807C622.279 277.764 621.967 278.535 621.352 279.121C620.727 279.707 619.877 280 618.803 280H614.984V270.4H616.381V273.604H618.783C619.857 273.604 620.717 273.896 621.342 274.482C621.967 275.068 622.279 275.85 622.279 276.807ZM250.199 307.205C250.199 306.17 249.848 305.291 249.164 304.578C248.48 303.865 247.65 303.504 246.693 303.504C245.736 303.504 244.906 303.865 244.223 304.578C243.539 305.291 243.197 306.16 243.197 307.195C243.197 308.23 243.539 309.1 244.223 309.822C244.906 310.545 245.736 310.896 246.693 310.896C247.65 310.896 248.48 310.545 249.164 309.832C249.848 309.119 250.199 308.24 250.199 307.205ZM241.801 307.205C241.801 305.799 242.27 304.617 243.227 303.65C244.184 302.684 245.336 302.195 246.703 302.195C248.061 302.195 249.213 302.684 250.16 303.65C251.117 304.617 251.586 305.799 251.586 307.205C251.586 308.611 251.117 309.793 250.16 310.76C249.213 311.717 248.061 312.205 246.703 312.205C245.336 312.205 244.184 311.717 243.227 310.76C242.27 309.793 241.801 308.611 241.801 307.205ZM263.197 307.4C263.197 308.748 262.738 309.891 261.83 310.809C260.912 311.736 259.809 312.195 258.5 312.195C257.084 312.195 255.932 311.658 255.043 310.584C254.145 309.51 253.705 307.977 253.705 306.004C253.705 301.59 255.336 299.09 258.598 298.504C259.301 298.387 259.936 298.24 260.492 298.045C261.039 297.859 261.41 297.703 261.605 297.576L261.898 297.4L262.602 298.504C262.064 298.973 260.795 299.412 258.803 299.803C257.748 300.018 256.889 300.525 256.244 301.307C255.6 302.088 255.248 303.152 255.199 304.5C255.219 304.451 255.268 304.383 255.326 304.295C255.385 304.207 255.521 304.061 255.727 303.846C255.932 303.631 256.156 303.445 256.41 303.27C256.654 303.104 256.977 302.947 257.367 302.811C257.758 302.674 258.168 302.596 258.598 302.596C259.867 302.596 260.951 303.064 261.85 304.002C262.748 304.939 263.197 306.072 263.197 307.4ZM255.199 307.4C255.199 308.396 255.521 309.227 256.166 309.891C256.811 310.564 257.592 310.896 258.5 310.896C259.398 310.896 260.18 310.564 260.824 309.891C261.469 309.227 261.801 308.396 261.801 307.4C261.801 306.414 261.469 305.584 260.824 304.91C260.18 304.246 259.398 303.904 258.5 303.904C257.592 303.904 256.811 304.246 256.166 304.91C255.521 305.584 255.199 306.414 255.199 307.4ZM272.699 312V307.801H267.201V312H265.805V302.4H267.201V306.502H272.699V302.4H274.105V312H272.699ZM285.004 307.205C285.004 306.17 284.652 305.291 283.969 304.578C283.285 303.865 282.455 303.504 281.498 303.504C280.541 303.504 279.711 303.865 279.027 304.578C278.344 305.291 278.002 306.16 278.002 307.195C278.002 308.23 278.344 309.1 279.027 309.822C279.711 310.545 280.541 310.896 281.498 310.896C282.455 310.896 283.285 310.545 283.969 309.832C284.652 309.119 285.004 308.24 285.004 307.205ZM276.605 307.205C276.605 305.799 277.074 304.617 278.031 303.65C278.988 302.684 280.141 302.195 281.508 302.195C282.865 302.195 284.018 302.684 284.965 303.65C285.922 304.617 286.391 305.799 286.391 307.205C286.391 308.611 285.922 309.793 284.965 310.76C284.018 311.717 282.865 312.205 281.508 312.205C280.141 312.205 278.988 311.717 278.031 310.76C277.074 309.793 276.605 308.611 276.605 307.205ZM288.91 302.4H293.305C294.184 302.4 294.887 302.645 295.414 303.113C295.941 303.582 296.205 304.178 296.205 304.9C296.205 305.311 296.098 305.691 295.902 306.023C295.707 306.355 295.502 306.59 295.307 306.717L295.004 306.902C295.043 306.922 295.092 306.941 295.17 306.961C295.248 306.99 295.375 307.059 295.561 307.176C295.746 307.293 295.912 307.42 296.049 307.576C296.186 307.732 296.312 307.947 296.43 308.23C296.547 308.523 296.605 308.846 296.605 309.197C296.605 310.066 296.332 310.75 295.795 311.248C295.248 311.756 294.486 312 293.51 312H288.91V302.4ZM293.51 307.498H290.307V310.701H293.51C294.057 310.701 294.477 310.564 294.77 310.281C295.062 310.008 295.209 309.607 295.209 309.1C295.209 308.592 295.062 308.201 294.77 307.918C294.477 307.645 294.057 307.498 293.51 307.498ZM294.809 304.998C294.809 304.139 294.301 303.699 293.305 303.699H290.307V306.297H293.305C294.301 306.297 294.809 305.867 294.809 304.998ZM306.498 302.4H307.699V312H306.293V304.803L300.492 312H299.301V302.4H300.697V309.598L306.498 302.4ZM309.701 303.699V302.4H317.895V303.699H314.496V312H313.1V303.699H309.701ZM328.402 307.723L320.6 307.703C320.648 308.572 321 309.324 321.664 309.949C322.328 310.584 323.1 310.896 323.998 310.896C324.594 310.896 325.15 310.77 325.668 310.496C326.176 310.232 326.547 309.969 326.762 309.695L327.104 309.305L328.002 310.203C327.963 310.262 327.904 310.33 327.826 310.428C327.748 310.525 327.592 310.682 327.338 310.906C327.084 311.131 326.82 311.326 326.527 311.502C326.234 311.678 325.863 311.834 325.404 311.98C324.945 312.127 324.477 312.195 323.998 312.195C322.689 312.195 321.557 311.717 320.619 310.74C319.672 309.764 319.203 308.582 319.203 307.195C319.203 305.809 319.662 304.637 320.6 303.66C321.537 302.684 322.631 302.195 323.9 302.195C325.209 302.195 326.303 302.654 327.182 303.562C328.061 304.471 328.5 305.613 328.5 307L328.402 307.723ZM323.9 303.504C323.061 303.504 322.328 303.807 321.703 304.393C321.078 304.988 320.707 305.691 320.6 306.502H327.104C326.996 305.643 326.645 304.92 326.049 304.354C325.453 303.787 324.74 303.504 323.9 303.504ZM334.105 307.195C334.105 305.809 334.574 304.637 335.521 303.66C336.469 302.684 337.592 302.195 338.891 302.195C339.643 302.195 340.346 302.361 340.99 302.684C341.635 303.006 342.104 303.328 342.377 303.641L342.797 304.1L341.791 305.096C341.771 305.057 341.732 305.008 341.674 304.93C341.625 304.861 341.508 304.734 341.332 304.539C341.156 304.354 340.961 304.188 340.756 304.051C340.541 303.914 340.277 303.787 339.945 303.67C339.613 303.562 339.262 303.504 338.9 303.504C337.982 303.504 337.182 303.865 336.508 304.578C335.834 305.291 335.502 306.17 335.502 307.205C335.502 308.24 335.834 309.119 336.508 309.832C337.182 310.545 337.982 310.896 338.9 310.896C339.457 310.896 339.984 310.77 340.492 310.496C340.99 310.232 341.352 309.969 341.576 309.695L341.898 309.305L342.895 310.203C342.855 310.262 342.797 310.33 342.719 310.428C342.641 310.525 342.465 310.682 342.201 310.906C341.947 311.131 341.674 311.326 341.381 311.502C341.098 311.678 340.727 311.834 340.277 311.98C339.828 312.127 339.369 312.195 338.9 312.195C337.592 312.195 336.459 311.717 335.521 310.74C334.574 309.764 334.105 308.582 334.105 307.195ZM343.9 303.699V302.4H352.094V303.699H348.695V312H347.299V303.699H343.9ZM355.502 307.205C355.502 308.191 355.844 309.051 356.547 309.793C357.25 310.535 358.031 310.896 358.9 310.896C359.721 310.896 360.463 310.545 361.117 309.822C361.771 309.1 362.104 308.23 362.104 307.205C362.104 306.18 361.771 305.311 361.117 304.588C360.463 303.865 359.721 303.504 358.9 303.504C358.031 303.504 357.25 303.875 356.547 304.617C355.844 305.359 355.502 306.219 355.502 307.205ZM355.502 310.496V316.209H354.105V302.41H355.502V303.914C355.521 303.875 355.57 303.807 355.639 303.729C355.707 303.65 355.844 303.514 356.059 303.318C356.273 303.123 356.498 302.947 356.752 302.791C356.996 302.635 357.309 302.498 357.699 302.381C358.09 302.264 358.49 302.205 358.9 302.205C360.121 302.205 361.195 302.693 362.113 303.68C363.031 304.656 363.5 305.838 363.5 307.205C363.5 308.572 363.041 309.754 362.123 310.73C361.205 311.707 360.131 312.195 358.9 312.195C358.49 312.195 358.09 312.137 357.709 312.02C357.328 311.902 357.006 311.766 356.752 311.6C356.488 311.443 356.264 311.277 356.068 311.111C355.873 310.945 355.736 310.799 355.639 310.682L355.502 310.496ZM368.1 306.502L371.801 305.896C371.801 305.193 371.576 304.617 371.127 304.168C370.678 303.729 370.102 303.504 369.398 303.504C368.891 303.504 368.412 303.621 367.963 303.855C367.514 304.09 367.191 304.324 366.996 304.559L366.693 304.9L365.795 304.002C365.834 303.953 365.883 303.885 365.951 303.807C366.02 303.729 366.166 303.582 366.4 303.377C366.635 303.172 366.879 302.986 367.133 302.82C367.387 302.664 367.719 302.518 368.129 302.391C368.539 302.264 368.969 302.195 369.398 302.195C370.492 302.195 371.391 302.557 372.113 303.26C372.836 303.973 373.197 304.852 373.197 305.896V312H371.801V310.701C371.771 310.74 371.732 310.799 371.674 310.867C371.615 310.936 371.498 311.053 371.303 311.229C371.107 311.404 370.902 311.551 370.688 311.688C370.463 311.824 370.17 311.941 369.809 312.039C369.447 312.146 369.076 312.195 368.695 312.195C367.738 312.195 366.928 311.912 366.273 311.346C365.619 310.779 365.297 310.135 365.297 309.402C365.297 308.602 365.531 307.957 366.02 307.469C366.498 306.98 367.191 306.658 368.1 306.502ZM368.695 310.896C369.594 310.896 370.336 310.604 370.922 310.008C371.508 309.422 371.801 308.65 371.801 307.703V307.098L368.5 307.703C367.299 307.938 366.693 308.504 366.693 309.402C366.693 309.832 366.869 310.193 367.221 310.477C367.572 310.76 368.07 310.896 368.695 310.896ZM383.285 312V307.801H377.787V312H376.391V302.4H377.787V306.502H383.285V302.4H384.691V312H383.285ZM395.092 302.4H396.293V312H394.887V304.803L389.086 312H387.895V302.4H389.291V309.598L395.092 302.4ZM399.496 312V302.4H400.893V310.701H406.195V302.4H407.592V310.701H409.096V314.402H407.689V312H399.496ZM413.393 313.396L413.891 312L409.984 302.4H411.488L414.594 310.203L417.689 302.4H419.193L414.789 313.396C414.389 314.412 413.959 315.135 413.51 315.564C413.051 315.994 412.475 316.199 411.781 316.199C411.566 316.199 411.361 316.189 411.166 316.15C410.971 316.121 410.814 316.082 410.717 316.043L410.58 316.004V314.695C410.912 314.832 411.244 314.9 411.576 314.9C412.426 314.9 413.031 314.402 413.393 313.396ZM432.104 302.4H433.305V312H431.898V304.803L426.098 312H424.906V302.4H426.303V309.598L432.104 302.4ZM447.211 312V303.719H441.713V312H440.316V302.4H448.617V312H447.211ZM459.516 307.205C459.516 306.17 459.164 305.291 458.48 304.578C457.797 303.865 456.967 303.504 456.01 303.504C455.053 303.504 454.223 303.865 453.539 304.578C452.855 305.291 452.514 306.16 452.514 307.195C452.514 308.23 452.855 309.1 453.539 309.822C454.223 310.545 455.053 310.896 456.01 310.896C456.967 310.896 457.797 310.545 458.48 309.832C459.164 309.119 459.516 308.24 459.516 307.205ZM451.117 307.205C451.117 305.799 451.586 304.617 452.543 303.65C453.5 302.684 454.652 302.195 456.02 302.195C457.377 302.195 458.529 302.684 459.477 303.65C460.434 304.617 460.902 305.799 460.902 307.205C460.902 308.611 460.434 309.793 459.477 310.76C458.529 311.717 457.377 312.205 456.02 312.205C454.652 312.205 453.5 311.717 452.543 310.76C451.586 309.793 451.117 308.611 451.117 307.205ZM470.316 312V303.719H464.818V312H463.422V302.4H471.723V312H470.316ZM476.322 307.205C476.322 308.191 476.664 309.051 477.367 309.793C478.07 310.535 478.852 310.896 479.721 310.896C480.541 310.896 481.283 310.545 481.938 309.822C482.592 309.1 482.924 308.23 482.924 307.205C482.924 306.18 482.592 305.311 481.938 304.588C481.283 303.865 480.541 303.504 479.721 303.504C478.852 303.504 478.07 303.875 477.367 304.617C476.664 305.359 476.322 306.219 476.322 307.205ZM476.322 310.496V316.209H474.926V302.41H476.322V303.914C476.342 303.875 476.391 303.807 476.459 303.729C476.527 303.65 476.664 303.514 476.879 303.318C477.094 303.123 477.318 302.947 477.572 302.791C477.816 302.635 478.129 302.498 478.52 302.381C478.91 302.264 479.311 302.205 479.721 302.205C480.941 302.205 482.016 302.693 482.934 303.68C483.852 304.656 484.32 305.838 484.32 307.205C484.32 308.572 483.861 309.754 482.943 310.73C482.025 311.707 480.951 312.195 479.721 312.195C479.311 312.195 478.91 312.137 478.529 312.02C478.148 311.902 477.826 311.766 477.572 311.6C477.309 311.443 477.084 311.277 476.889 311.111C476.693 310.945 476.557 310.799 476.459 310.682L476.322 310.496ZM494.516 307.205C494.516 306.17 494.164 305.291 493.48 304.578C492.797 303.865 491.967 303.504 491.01 303.504C490.053 303.504 489.223 303.865 488.539 304.578C487.855 305.291 487.514 306.16 487.514 307.195C487.514 308.23 487.855 309.1 488.539 309.822C489.223 310.545 490.053 310.896 491.01 310.896C491.967 310.896 492.797 310.545 493.48 309.832C494.164 309.119 494.516 308.24 494.516 307.205ZM486.117 307.205C486.117 305.799 486.586 304.617 487.543 303.65C488.5 302.684 489.652 302.195 491.02 302.195C492.377 302.195 493.529 302.684 494.477 303.65C495.434 304.617 495.902 305.799 495.902 307.205C495.902 308.611 495.434 309.793 494.477 310.76C493.529 311.717 492.377 312.205 491.02 312.205C489.652 312.205 488.5 311.717 487.543 310.76C486.586 309.793 486.117 308.611 486.117 307.205ZM507.514 307.4C507.514 308.748 507.055 309.891 506.146 310.809C505.229 311.736 504.125 312.195 502.816 312.195C501.4 312.195 500.248 311.658 499.359 310.584C498.461 309.51 498.021 307.977 498.021 306.004C498.021 301.59 499.652 299.09 502.914 298.504C503.617 298.387 504.252 298.24 504.809 298.045C505.355 297.859 505.727 297.703 505.922 297.576L506.215 297.4L506.918 298.504C506.381 298.973 505.111 299.412 503.119 299.803C502.064 300.018 501.205 300.525 500.561 301.307C499.916 302.088 499.564 303.152 499.516 304.5C499.535 304.451 499.584 304.383 499.643 304.295C499.701 304.207 499.838 304.061 500.043 303.846C500.248 303.631 500.473 303.445 500.727 303.27C500.971 303.104 501.293 302.947 501.684 302.811C502.074 302.674 502.484 302.596 502.914 302.596C504.184 302.596 505.268 303.064 506.166 304.002C507.064 304.939 507.514 306.072 507.514 307.4ZM499.516 307.4C499.516 308.396 499.838 309.227 500.482 309.891C501.127 310.564 501.908 310.896 502.816 310.896C503.715 310.896 504.496 310.564 505.141 309.891C505.785 309.227 506.117 308.396 506.117 307.4C506.117 306.414 505.785 305.584 505.141 304.91C504.496 304.246 503.715 303.904 502.816 303.904C501.908 303.904 501.127 304.246 500.482 304.91C499.838 305.584 499.516 306.414 499.516 307.4ZM512.221 313.396L512.719 312L508.812 302.4H510.316L513.422 310.203L516.518 302.4H518.021L513.617 313.396C513.217 314.412 512.787 315.135 512.338 315.564C511.879 315.994 511.303 316.199 510.609 316.199C510.395 316.199 510.189 316.189 509.994 316.15C509.799 316.121 509.643 316.082 509.545 316.043L509.408 316.004V314.695C509.74 314.832 510.072 314.9 510.404 314.9C511.254 314.9 511.859 314.402 512.221 313.396ZM528.422 307.723L520.619 307.703C520.668 308.572 521.02 309.324 521.684 309.949C522.348 310.584 523.119 310.896 524.018 310.896C524.613 310.896 525.17 310.77 525.688 310.496C526.195 310.232 526.566 309.969 526.781 309.695L527.123 309.305L528.021 310.203C527.982 310.262 527.924 310.33 527.846 310.428C527.768 310.525 527.611 310.682 527.357 310.906C527.104 311.131 526.84 311.326 526.547 311.502C526.254 311.678 525.883 311.834 525.424 311.98C524.965 312.127 524.496 312.195 524.018 312.195C522.709 312.195 521.576 311.717 520.639 310.74C519.691 309.764 519.223 308.582 519.223 307.195C519.223 305.809 519.682 304.637 520.619 303.66C521.557 302.684 522.65 302.195 523.92 302.195C525.229 302.195 526.322 302.654 527.201 303.562C528.08 304.471 528.52 305.613 528.52 307L528.422 307.723ZM523.92 303.504C523.08 303.504 522.348 303.807 521.723 304.393C521.098 304.988 520.727 305.691 520.619 306.502H527.123C527.016 305.643 526.664 304.92 526.068 304.354C525.473 303.787 524.76 303.504 523.92 303.504ZM529.818 303.699V302.4H538.012V303.699H534.613V312H533.217V303.699H529.818ZM548.52 307.723L540.717 307.703C540.766 308.572 541.117 309.324 541.781 309.949C542.445 310.584 543.217 310.896 544.115 310.896C544.711 310.896 545.268 310.77 545.785 310.496C546.293 310.232 546.664 309.969 546.879 309.695L547.221 309.305L548.119 310.203C548.08 310.262 548.021 310.33 547.943 310.428C547.865 310.525 547.709 310.682 547.455 310.906C547.201 311.131 546.938 311.326 546.645 311.502C546.352 311.678 545.98 311.834 545.521 311.98C545.062 312.127 544.594 312.195 544.115 312.195C542.807 312.195 541.674 311.717 540.736 310.74C539.789 309.764 539.32 308.582 539.32 307.195C539.32 305.809 539.779 304.637 540.717 303.66C541.654 302.684 542.748 302.195 544.018 302.195C545.326 302.195 546.42 302.654 547.299 303.562C548.178 304.471 548.617 305.613 548.617 307L548.52 307.723ZM544.018 303.504C543.178 303.504 542.445 303.807 541.82 304.393C541.195 304.988 540.824 305.691 540.717 306.502H547.221C547.113 305.643 546.762 304.92 546.166 304.354C545.57 303.787 544.857 303.504 544.018 303.504ZM563.422 307.723L555.619 307.703C555.668 308.572 556.02 309.324 556.684 309.949C557.348 310.584 558.119 310.896 559.018 310.896C559.613 310.896 560.17 310.77 560.688 310.496C561.195 310.232 561.566 309.969 561.781 309.695L562.123 309.305L563.021 310.203C562.982 310.262 562.924 310.33 562.846 310.428C562.768 310.525 562.611 310.682 562.357 310.906C562.104 311.131 561.84 311.326 561.547 311.502C561.254 311.678 560.883 311.834 560.424 311.98C559.965 312.127 559.496 312.195 559.018 312.195C557.709 312.195 556.576 311.717 555.639 310.74C554.691 309.764 554.223 308.582 554.223 307.195C554.223 305.809 554.682 304.637 555.619 303.66C556.557 302.684 557.65 302.195 558.92 302.195C560.229 302.195 561.322 302.654 562.201 303.562C563.08 304.471 563.52 305.613 563.52 307L563.422 307.723ZM558.92 303.504C558.08 303.504 557.348 303.807 556.723 304.393C556.098 304.988 555.727 305.691 555.619 306.502H562.123C562.016 305.643 561.664 304.92 561.068 304.354C560.473 303.787 559.76 303.504 558.92 303.504ZM566.02 312V302.4H567.416V310.701H571.518V302.4H572.934V310.701H577.016V302.4H578.412V310.701H579.916V314.402H578.52V312H566.02ZM590.609 307.723L582.807 307.703C582.855 308.572 583.207 309.324 583.871 309.949C584.535 310.584 585.307 310.896 586.205 310.896C586.801 310.896 587.357 310.77 587.875 310.496C588.383 310.232 588.754 309.969 588.969 309.695L589.311 309.305L590.209 310.203C590.17 310.262 590.111 310.33 590.033 310.428C589.955 310.525 589.799 310.682 589.545 310.906C589.291 311.131 589.027 311.326 588.734 311.502C588.441 311.678 588.07 311.834 587.611 311.98C587.152 312.127 586.684 312.195 586.205 312.195C584.896 312.195 583.764 311.717 582.826 310.74C581.879 309.764 581.41 308.582 581.41 307.195C581.41 305.809 581.869 304.637 582.807 303.66C583.744 302.684 584.838 302.195 586.107 302.195C587.416 302.195 588.51 302.654 589.389 303.562C590.268 304.471 590.707 305.613 590.707 307L590.609 307.723ZM586.107 303.504C585.268 303.504 584.535 303.807 583.91 304.393C583.285 304.988 582.914 305.691 582.807 306.502H589.311C589.203 305.643 588.852 304.92 588.256 304.354C587.66 303.787 586.947 303.504 586.107 303.504ZM583.285 299.383C583.285 299.129 583.373 298.924 583.549 298.748C583.725 298.572 583.939 298.484 584.193 298.484C584.447 298.484 584.652 298.572 584.828 298.748C585.004 298.924 585.092 299.129 585.092 299.383C585.092 299.637 585.004 299.852 584.828 300.027C584.652 300.203 584.447 300.281 584.193 300.281C583.939 300.281 583.725 300.203 583.549 300.027C583.373 299.852 583.285 299.637 583.285 299.383ZM587.094 299.383C587.094 299.129 587.172 298.924 587.348 298.748C587.523 298.572 587.738 298.484 587.992 298.484C588.246 298.484 588.451 298.572 588.627 298.748C588.803 298.924 588.891 299.129 588.891 299.383C588.891 299.637 588.803 299.852 588.627 300.027C588.451 300.203 588.246 300.281 587.992 300.281C587.738 300.281 587.523 300.203 587.348 300.027C587.172 299.852 587.094 299.637 587.094 299.383ZM598.412 307.205C598.412 308.191 598.754 309.051 599.457 309.793C600.16 310.535 600.941 310.896 601.811 310.896C602.631 310.896 603.373 310.545 604.027 309.822C604.682 309.1 605.014 308.23 605.014 307.205C605.014 306.18 604.682 305.311 604.027 304.588C603.373 303.865 602.631 303.504 601.811 303.504C600.941 303.504 600.16 303.875 599.457 304.617C598.754 305.359 598.412 306.219 598.412 307.205ZM598.412 310.496V316.209H597.016V302.41H598.412V303.914C598.432 303.875 598.48 303.807 598.549 303.729C598.617 303.65 598.754 303.514 598.969 303.318C599.184 303.123 599.408 302.947 599.662 302.791C599.906 302.635 600.219 302.498 600.609 302.381C601 302.264 601.4 302.205 601.811 302.205C603.031 302.205 604.105 302.693 605.023 303.68C605.941 304.656 606.41 305.838 606.41 307.205C606.41 308.572 605.951 309.754 605.033 310.73C604.115 311.707 603.041 312.195 601.811 312.195C601.4 312.195 601 312.137 600.619 312.02C600.238 311.902 599.916 311.766 599.662 311.6C599.398 311.443 599.174 311.277 598.979 311.111C598.783 310.945 598.646 310.799 598.549 310.682L598.412 310.496ZM611.01 306.502L614.711 305.896C614.711 305.193 614.486 304.617 614.037 304.168C613.588 303.729 613.012 303.504 612.309 303.504C611.801 303.504 611.322 303.621 610.873 303.855C610.424 304.09 610.102 304.324 609.906 304.559L609.604 304.9L608.705 304.002C608.744 303.953 608.793 303.885 608.861 303.807C608.93 303.729 609.076 303.582 609.311 303.377C609.545 303.172 609.789 302.986 610.043 302.82C610.297 302.664 610.629 302.518 611.039 302.391C611.449 302.264 611.879 302.195 612.309 302.195C613.402 302.195 614.301 302.557 615.023 303.26C615.746 303.973 616.107 304.852 616.107 305.896V312H614.711V310.701C614.682 310.74 614.643 310.799 614.584 310.867C614.525 310.936 614.408 311.053 614.213 311.229C614.018 311.404 613.812 311.551 613.598 311.688C613.373 311.824 613.08 311.941 612.719 312.039C612.357 312.146 611.986 312.195 611.605 312.195C610.648 312.195 609.838 311.912 609.184 311.346C608.529 310.779 608.207 310.135 608.207 309.402C608.207 308.602 608.441 307.957 608.93 307.469C609.408 306.98 610.102 306.658 611.01 306.502ZM611.605 310.896C612.504 310.896 613.246 310.604 613.832 310.008C614.418 309.422 614.711 308.65 614.711 307.703V307.098L611.41 307.703C610.209 307.938 609.604 308.504 609.604 309.402C609.604 309.832 609.779 310.193 610.131 310.477C610.482 310.76 610.98 310.896 611.605 310.896ZM625.102 304.9C625.102 305.223 625.043 305.516 624.945 305.779C624.848 306.033 624.721 306.238 624.574 306.385C624.428 306.531 624.281 306.658 624.125 306.756C623.969 306.854 623.852 306.932 623.754 306.971L623.598 307.01C623.646 307.02 623.715 307.039 623.803 307.059C623.891 307.078 624.037 307.137 624.252 307.244C624.467 307.352 624.652 307.479 624.818 307.635C624.984 307.791 625.141 308.016 625.277 308.309C625.414 308.602 625.492 308.934 625.492 309.314C625.492 310.125 625.17 310.809 624.535 311.365C623.891 311.922 622.982 312.205 621.801 312.205C621.342 312.205 620.912 312.146 620.502 312.029C620.092 311.912 619.76 311.766 619.486 311.609C619.213 311.443 618.969 311.277 618.773 311.111C618.578 310.945 618.432 310.809 618.334 310.691L618.197 310.506L619.096 309.607C619.174 309.695 619.281 309.812 619.418 309.959C619.555 310.115 619.867 310.311 620.336 310.545C620.805 310.779 621.293 310.896 621.801 310.896C622.562 310.896 623.129 310.75 623.52 310.457C623.9 310.164 624.096 309.783 624.096 309.305C624.096 308.826 623.9 308.436 623.51 308.143C623.119 307.85 622.553 307.703 621.801 307.703H620.697V306.404H621.801C622.367 306.404 622.826 306.258 623.178 305.965C623.52 305.672 623.695 305.311 623.695 304.9C623.695 304.49 623.529 304.148 623.217 303.895C622.895 303.641 622.426 303.514 621.801 303.514C621.352 303.514 620.932 303.602 620.531 303.777C620.131 303.953 619.848 304.139 619.682 304.324L619.398 304.598L618.393 303.602C618.48 303.504 618.617 303.367 618.793 303.211C618.969 303.055 619.35 302.85 619.936 302.586C620.521 302.332 621.137 302.195 621.801 302.195C622.777 302.195 623.568 302.469 624.184 302.996C624.789 303.533 625.102 304.168 625.102 304.9ZM635.805 307.205C635.805 306.17 635.453 305.291 634.77 304.578C634.086 303.865 633.256 303.504 632.299 303.504C631.342 303.504 630.512 303.865 629.828 304.578C629.145 305.291 628.803 306.16 628.803 307.195C628.803 308.23 629.145 309.1 629.828 309.822C630.512 310.545 631.342 310.896 632.299 310.896C633.256 310.896 634.086 310.545 634.77 309.832C635.453 309.119 635.805 308.24 635.805 307.205ZM627.406 307.205C627.406 305.799 627.875 304.617 628.832 303.65C629.789 302.684 630.941 302.195 632.309 302.195C633.666 302.195 634.818 302.684 635.766 303.65C636.723 304.617 637.191 305.799 637.191 307.205C637.191 308.611 636.723 309.793 635.766 310.76C634.818 311.717 633.666 312.205 632.309 312.205C630.941 312.205 629.789 311.717 628.832 310.76C627.875 309.793 627.406 308.611 627.406 307.205ZM641.107 309.305V312H639.711V302.4H641.107V307.498L645.902 302.4H647.611L643.91 306.297L648.012 312H646.41L643.012 307.303L641.107 309.305ZM653.91 310.203L655.316 311.004L653.012 314.598L652.113 314.1L653.91 310.203ZM653.412 303.201C653.412 302.908 653.5 302.674 653.676 302.479C653.852 302.293 654.096 302.195 654.408 302.195C654.721 302.195 654.965 302.293 655.141 302.479C655.316 302.674 655.414 302.908 655.414 303.201C655.414 303.494 655.316 303.738 655.141 303.924C654.965 304.109 654.721 304.197 654.408 304.197C654.096 304.197 653.852 304.109 653.676 303.924C653.5 303.738 653.412 303.494 653.412 303.201ZM660.307 307C660.307 306.014 660.199 305.037 659.984 304.07C659.77 303.104 659.516 302.283 659.203 301.6C658.891 300.926 658.588 300.32 658.295 299.783C657.992 299.256 657.738 298.855 657.523 298.602L657.211 298.201L658.305 297.596C658.393 297.693 658.51 297.83 658.666 298.016C658.812 298.211 659.076 298.611 659.457 299.236C659.828 299.861 660.16 300.506 660.453 301.18C660.746 301.863 661.01 302.732 661.244 303.787C661.479 304.852 661.605 305.926 661.605 307C661.605 308.084 661.488 309.148 661.264 310.193C661.039 311.238 660.766 312.117 660.434 312.83C660.102 313.553 659.779 314.188 659.467 314.744C659.145 315.311 658.871 315.73 658.646 316.004L658.305 316.404L657.211 315.799C657.289 315.711 657.396 315.574 657.533 315.389C657.67 315.213 657.924 314.822 658.285 314.227C658.646 313.641 658.959 313.025 659.223 312.381C659.486 311.746 659.73 310.936 659.965 309.959C660.189 308.982 660.307 307.996 660.307 307Z" fill="#1D1717"/>
</g>
<defs>
<clipPath id="clip0_1_1578">
<rect width="1072" height="624" fill="white"/>
</clipPath>
</defs>
</svg>
