<svg width="678" height="541" viewBox="0 0 678 541" fill="none" xmlns="http://www.w3.org/2000/svg">
<path d="M160.092 192.287C172.968 185.926 167.228 164.053 153.887 159.089C140.39 154.28 125.653 160.795 113.553 168.086C24.198 222.692 -33.9757 376.737 22.0262 411.486C64.0665 437.548 114.173 421.179 153.887 381C129.997 424.281 160.092 461.604 180.724 474.003C212.991 493.394 314.136 484.087 374.637 429.171C366.725 447.321 351.678 515.578 394.804 534.504C465.853 565.53 574.6 477.571 614.933 436.151C611.986 449.027 600.351 467.333 619.432 474.624C659.766 496.497 777.605 328.176 718.5 279C668.083 236.96 569.951 225.651 515.5 272.5C521 249 521.08 230.604 497.19 214.005C472.876 196.985 426.115 205.376 408.5 227C438.905 175.031 428.485 142.162 366 122.5C275.985 94.1744 160.092 192.287 160.092 192.287Z" fill="#FAFAFA"/>
<path d="M122.496 286.996L125.787 293.598L128.59 286.996L131.793 286.996L126.891 297.504C126.324 298.715 125.65 299.633 124.869 300.258C124.098 300.883 123.141 301.195 121.988 301.195C121.725 301.195 121.461 301.176 121.188 301.117C120.924 301.068 120.729 301.02 120.592 300.961L120.387 300.902L120.387 298.305C120.719 298.441 121.119 298.5 121.588 298.5C122.594 298.5 123.365 298.041 123.902 297.104L124.303 296.4L119.303 286.996L122.496 286.996ZM139.293 291.195L139.293 293.695L134.889 293.695L134.889 301L132.193 301L132.193 291.195L139.293 291.195ZM146.188 301L146.178 300.004C146.1 300.102 145.992 300.209 145.855 300.346C145.719 300.482 145.406 300.658 144.938 300.873C144.469 301.088 143.98 301.195 143.473 301.195C142.496 301.195 141.705 300.932 141.09 300.385C140.484 299.838 140.172 299.184 140.172 298.402C140.172 297.602 140.436 296.937 140.943 296.4C141.461 295.873 142.174 295.521 143.072 295.355L146.178 294.799C146.178 294.389 146.031 294.057 145.729 293.793C145.436 293.539 145.016 293.402 144.479 293.402C144.039 293.402 143.639 293.49 143.268 293.656C142.906 293.822 142.652 293.988 142.496 294.164L142.271 294.398L140.777 292.904C140.816 292.855 140.875 292.787 140.943 292.699C141.012 292.611 141.168 292.455 141.402 292.24C141.637 292.025 141.9 291.84 142.174 291.674C142.457 291.508 142.828 291.352 143.277 291.215C143.736 291.078 144.205 291 144.684 291C145.914 291 146.93 291.371 147.711 292.113C148.492 292.855 148.883 293.783 148.883 294.896L148.883 301L146.188 301ZM144.176 298.998C144.791 298.998 145.279 298.812 145.641 298.422C146.002 298.031 146.178 297.494 146.178 296.801L146.178 296.498L143.98 296.898C143.248 297.016 142.877 297.387 142.877 298.002C142.877 298.666 143.316 298.998 144.176 298.998ZM150.191 298.598L150.787 298.607C150.826 298.568 150.875 298.51 150.953 298.441C151.031 298.363 151.158 298.187 151.344 297.914C151.529 297.631 151.695 297.318 151.832 296.986C151.969 296.654 152.096 296.205 152.213 295.658C152.33 295.102 152.389 294.516 152.389 293.9L152.389 291.195L159.889 291.195L159.889 298.598L161.188 298.598L161.188 303.305L158.492 303.305L158.492 301L152.887 301L152.887 303.305L150.191 303.305L150.191 298.598ZM154.889 293.607L154.889 294.213C154.889 294.984 154.781 295.736 154.566 296.469C154.352 297.201 154.146 297.738 153.932 298.09L153.59 298.607L157.193 298.607L157.193 293.607L154.889 293.607ZM168.395 301L168.385 300.004C168.307 300.102 168.199 300.209 168.063 300.346C167.926 300.482 167.613 300.658 167.145 300.873C166.676 301.088 166.188 301.195 165.68 301.195C164.703 301.195 163.912 300.932 163.297 300.385C162.691 299.838 162.379 299.184 162.379 298.402C162.379 297.602 162.643 296.937 163.15 296.4C163.668 295.873 164.381 295.521 165.279 295.355L168.385 294.799C168.385 294.389 168.238 294.057 167.936 293.793C167.643 293.539 167.223 293.402 166.686 293.402C166.246 293.402 165.846 293.49 165.475 293.656C165.113 293.822 164.859 293.988 164.703 294.164L164.479 294.398L162.984 292.904C163.023 292.855 163.082 292.787 163.15 292.699C163.219 292.611 163.375 292.455 163.609 292.24C163.844 292.025 164.107 291.84 164.381 291.674C164.664 291.508 165.035 291.352 165.484 291.215C165.943 291.078 166.412 291 166.891 291C168.121 291 169.137 291.371 169.918 292.113C170.699 292.855 171.09 293.783 171.09 294.896L171.09 301L168.395 301ZM166.383 298.998C166.998 298.998 167.486 298.812 167.848 298.422C168.209 298.031 168.385 297.494 168.385 296.801L168.385 296.498L166.188 296.898C165.455 297.016 165.084 297.387 165.084 298.002C165.084 298.666 165.523 298.998 166.383 298.998ZM178.297 288.1C178.639 288.1 178.922 287.992 179.156 287.758C179.381 287.533 179.498 287.25 179.498 286.908L181.5 286.908C181.5 287.758 181.197 288.471 180.592 289.047C179.986 289.613 179.225 289.906 178.297 289.906C177.359 289.906 176.598 289.613 175.992 289.047C175.387 288.471 175.094 287.758 175.094 286.908L177.096 286.908C177.096 287.25 177.203 287.533 177.438 287.758C177.662 287.992 177.945 288.1 178.297 288.1ZM180.641 291.195L182.994 291.195L182.994 301L180.299 301L180.299 295.502L176.031 301L173.697 301L173.697 291.195L176.393 291.195L176.393 296.703L180.641 291.195ZM184.586 293.803L184.586 291.195L193.492 291.195L193.492 293.803L190.387 293.803L190.387 301L187.691 301L187.691 293.803L184.586 293.803ZM204.381 296.996L197.281 296.996C197.379 297.533 197.662 297.982 198.131 298.354C198.59 298.725 199.176 298.9 199.879 298.9C200.387 298.9 200.855 298.803 201.285 298.607C201.715 298.412 202.027 298.207 202.203 298.002L202.486 297.699L203.883 299.496L203.697 299.682C203.619 299.76 203.443 299.896 203.18 300.092C202.906 300.287 202.623 300.463 202.33 300.619C202.027 300.775 201.637 300.902 201.158 301.02C200.68 301.137 200.191 301.195 199.684 301.195C198.238 301.195 197.018 300.697 196.002 299.701C194.986 298.705 194.479 297.504 194.479 296.098C194.479 294.701 194.977 293.5 195.982 292.504C196.979 291.508 198.18 291 199.586 291C200.982 291 202.145 291.469 203.082 292.406C204.01 293.344 204.479 294.506 204.479 295.902L204.381 296.996ZM199.586 293.305C199.01 293.305 198.521 293.471 198.121 293.803C197.721 294.135 197.438 294.574 197.281 295.102L201.783 295.102C201.676 294.584 201.422 294.154 201.031 293.812C200.641 293.48 200.152 293.305 199.586 293.305Z" fill="#4039A3"/>
<path d="M207.086 299.203L208.492 300.004L206.188 303.598L205.289 303.1L207.086 299.203ZM221.793 301L221.793 292.719L216.295 292.719L216.295 301L214.898 301L214.898 291.4L223.199 291.4L223.199 301L221.793 301ZM227.799 296.205C227.799 297.191 228.141 298.051 228.844 298.793C229.547 299.535 230.328 299.896 231.197 299.896C232.018 299.896 232.76 299.545 233.414 298.822C234.068 298.1 234.4 297.23 234.4 296.205C234.4 295.18 234.068 294.311 233.414 293.588C232.76 292.865 232.018 292.504 231.197 292.504C230.328 292.504 229.547 292.875 228.844 293.617C228.141 294.359 227.799 295.219 227.799 296.205ZM227.799 299.496L227.799 305.209L226.402 305.209L226.402 291.41L227.799 291.41L227.799 292.914C227.818 292.875 227.867 292.807 227.936 292.729C228.004 292.65 228.141 292.514 228.355 292.318C228.57 292.123 228.795 291.947 229.049 291.791C229.293 291.635 229.605 291.498 229.996 291.381C230.387 291.264 230.787 291.205 231.197 291.205C232.418 291.205 233.492 291.693 234.41 292.68C235.328 293.656 235.797 294.838 235.797 296.205C235.797 297.572 235.338 298.754 234.42 299.73C233.502 300.707 232.428 301.195 231.197 301.195C230.787 301.195 230.387 301.137 230.006 301.02C229.625 300.902 229.303 300.766 229.049 300.6C228.785 300.443 228.561 300.277 228.365 300.111C228.17 299.945 228.033 299.799 227.936 299.682L227.799 299.496ZM240.396 295.502L244.098 294.896C244.098 294.193 243.873 293.617 243.424 293.168C242.975 292.729 242.398 292.504 241.695 292.504C241.188 292.504 240.709 292.621 240.26 292.855C239.811 293.09 239.488 293.324 239.293 293.559L238.99 293.9L238.092 293.002C238.131 292.953 238.18 292.885 238.248 292.807C238.316 292.729 238.463 292.582 238.697 292.377C238.932 292.172 239.176 291.986 239.43 291.82C239.684 291.664 240.016 291.518 240.426 291.391C240.836 291.264 241.266 291.195 241.695 291.195C242.789 291.195 243.688 291.557 244.41 292.26C245.133 292.973 245.494 293.852 245.494 294.896L245.494 301L244.098 301L244.098 299.701C244.068 299.74 244.029 299.799 243.971 299.867C243.912 299.936 243.795 300.053 243.6 300.229C243.404 300.404 243.199 300.551 242.984 300.687C242.76 300.824 242.467 300.941 242.105 301.039C241.744 301.146 241.373 301.195 240.992 301.195C240.035 301.195 239.225 300.912 238.57 300.346C237.916 299.779 237.594 299.135 237.594 298.402C237.594 297.602 237.828 296.957 238.316 296.469C238.795 295.98 239.488 295.658 240.396 295.502ZM240.992 299.896C241.891 299.896 242.633 299.604 243.219 299.008C243.805 298.422 244.098 297.65 244.098 296.703L244.098 296.098L240.797 296.703C239.596 296.937 238.99 297.504 238.99 298.402C238.99 298.832 239.166 299.193 239.518 299.477C239.869 299.76 240.367 299.896 240.992 299.896ZM248.688 291.4L253.082 291.4C253.961 291.4 254.664 291.645 255.191 292.113C255.719 292.582 255.982 293.178 255.982 293.9C255.982 294.311 255.875 294.691 255.68 295.023C255.484 295.355 255.279 295.59 255.084 295.717L254.781 295.902C254.82 295.922 254.869 295.941 254.947 295.961C255.025 295.99 255.152 296.059 255.338 296.176C255.523 296.293 255.689 296.42 255.826 296.576C255.963 296.732 256.09 296.947 256.207 297.23C256.324 297.523 256.383 297.846 256.383 298.197C256.383 299.066 256.109 299.75 255.572 300.248C255.025 300.756 254.264 301 253.287 301L248.688 301L248.688 291.4ZM253.287 296.498L250.084 296.498L250.084 299.701L253.287 299.701C253.834 299.701 254.254 299.564 254.547 299.281C254.84 299.008 254.986 298.607 254.986 298.1C254.986 297.592 254.84 297.201 254.547 296.918C254.254 296.645 253.834 296.498 253.287 296.498ZM254.586 293.998C254.586 293.139 254.078 292.699 253.082 292.699L250.084 292.699L250.084 295.297L253.082 295.297C254.078 295.297 254.586 294.867 254.586 293.998ZM267.975 299.701L267.975 303.402L266.578 303.402L266.578 301L258.873 301L258.873 303.402L257.477 303.402L257.477 299.701L258.17 299.701C258.209 299.662 258.268 299.604 258.346 299.506C258.424 299.408 258.57 299.193 258.766 298.861C258.961 298.529 259.127 298.178 259.283 297.787C259.439 297.396 259.576 296.879 259.693 296.234C259.811 295.59 259.879 294.906 259.879 294.203L259.879 291.4L266.471 291.4L266.471 299.701L267.975 299.701ZM261.275 292.699L261.266 294.203C261.266 295.297 261.139 296.303 260.865 297.211C260.602 298.129 260.338 298.773 260.074 299.145L259.674 299.701L265.074 299.701L265.074 292.699L261.275 292.699ZM272.271 295.502L275.973 294.896C275.973 294.193 275.748 293.617 275.299 293.168C274.85 292.729 274.273 292.504 273.57 292.504C273.063 292.504 272.584 292.621 272.135 292.855C271.686 293.09 271.363 293.324 271.168 293.559L270.865 293.9L269.967 293.002C270.006 292.953 270.055 292.885 270.123 292.807C270.191 292.729 270.338 292.582 270.572 292.377C270.807 292.172 271.051 291.986 271.305 291.82C271.559 291.664 271.891 291.518 272.301 291.391C272.711 291.264 273.141 291.195 273.57 291.195C274.664 291.195 275.563 291.557 276.285 292.26C277.008 292.973 277.369 293.852 277.369 294.896L277.369 301L275.973 301L275.973 299.701C275.943 299.74 275.904 299.799 275.846 299.867C275.787 299.936 275.67 300.053 275.475 300.229C275.279 300.404 275.074 300.551 274.859 300.687C274.635 300.824 274.342 300.941 273.98 301.039C273.619 301.146 273.248 301.195 272.867 301.195C271.91 301.195 271.1 300.912 270.445 300.346C269.791 299.779 269.469 299.135 269.469 298.402C269.469 297.602 269.703 296.957 270.191 296.469C270.67 295.98 271.363 295.658 272.271 295.502ZM272.867 299.896C273.766 299.896 274.508 299.604 275.094 299.008C275.68 298.422 275.973 297.65 275.973 296.703L275.973 296.098L272.672 296.703C271.471 296.937 270.865 297.504 270.865 298.402C270.865 298.832 271.041 299.193 271.393 299.477C271.744 299.76 272.242 299.896 272.867 299.896ZM128.199 328.195C128.199 329.582 127.721 330.764 126.773 331.74C125.826 332.717 124.703 333.205 123.404 333.205C122.936 333.205 122.477 333.127 122.027 332.99C121.578 332.854 121.207 332.687 120.895 332.492C120.582 332.297 120.318 332.111 120.084 331.916C119.85 331.721 119.674 331.555 119.557 331.408L119.4 331.213L120.396 330.314C120.416 330.354 120.465 330.402 120.523 330.48C120.582 330.549 120.709 330.676 120.904 330.861C121.1 331.057 121.305 331.223 121.52 331.359C121.734 331.496 122.008 331.623 122.35 331.73C122.682 331.848 123.033 331.896 123.404 331.896C124.244 331.896 124.986 331.584 125.65 330.949C126.305 330.324 126.686 329.572 126.803 328.703L121.998 328.703L121.998 327.404L126.695 327.404C126.588 326.633 126.217 325.959 125.592 325.373C124.957 324.797 124.225 324.504 123.404 324.504C123.043 324.504 122.701 324.562 122.369 324.66C122.037 324.768 121.764 324.904 121.539 325.061C121.324 325.227 121.129 325.393 120.963 325.549C120.797 325.705 120.67 325.842 120.592 325.939L120.494 326.096L119.488 325.1C119.527 325.051 119.586 324.982 119.664 324.895C119.742 324.807 119.898 324.66 120.143 324.445C120.396 324.23 120.66 324.045 120.934 323.869C121.217 323.703 121.578 323.547 122.027 323.41C122.477 323.273 122.936 323.195 123.404 323.195C124.713 323.195 125.836 323.684 126.783 324.66C127.721 325.637 128.199 326.809 128.199 328.195ZM129.498 324.699L129.498 323.4L137.691 323.4L137.691 324.699L134.293 324.699L134.293 333L132.896 333L132.896 324.699L129.498 324.699ZM146.9 323.4L148.102 323.4L148.102 333L146.695 333L146.695 325.803L140.895 333L139.703 333L139.703 323.4L141.1 323.4L141.1 330.598L146.9 323.4ZM155.807 328.195C155.807 329.279 156.178 330.168 156.939 330.861C157.691 331.555 158.678 331.906 159.898 331.906L159.898 324.514C158.678 324.514 157.691 324.855 156.939 325.559C156.178 326.252 155.807 327.131 155.807 328.195ZM165.406 328.205C165.406 327.131 165.025 326.252 164.273 325.559C163.521 324.855 162.535 324.514 161.305 324.514L161.305 331.906C162.525 331.906 163.512 331.555 164.273 330.861C165.025 330.168 165.406 329.279 165.406 328.205ZM161.305 333.195L161.305 337.199L159.908 337.199L159.908 333.195C158.277 333.195 156.949 332.727 155.934 331.77C154.918 330.822 154.41 329.631 154.41 328.205C154.41 326.779 154.918 325.588 155.934 324.631C156.949 323.674 158.277 323.205 159.908 323.205L159.908 319.006L161.305 319.006L161.305 323.205C162.926 323.205 164.254 323.674 165.279 324.631C166.295 325.588 166.813 326.779 166.813 328.205C166.813 329.631 166.295 330.822 165.279 331.77C164.254 332.727 162.926 333.195 161.305 333.195ZM171.412 327.502L175.113 326.896C175.113 326.193 174.889 325.617 174.439 325.168C173.99 324.729 173.414 324.504 172.711 324.504C172.203 324.504 171.725 324.621 171.275 324.855C170.826 325.09 170.504 325.324 170.309 325.559L170.006 325.9L169.107 325.002C169.146 324.953 169.195 324.885 169.264 324.807C169.332 324.729 169.479 324.582 169.713 324.377C169.947 324.172 170.191 323.986 170.445 323.82C170.699 323.664 171.031 323.518 171.441 323.391C171.852 323.264 172.281 323.195 172.711 323.195C173.805 323.195 174.703 323.557 175.426 324.26C176.148 324.973 176.51 325.852 176.51 326.896L176.51 333L175.113 333L175.113 331.701C175.084 331.74 175.045 331.799 174.986 331.867C174.928 331.936 174.811 332.053 174.615 332.229C174.42 332.404 174.215 332.551 174 332.687C173.775 332.824 173.482 332.941 173.121 333.039C172.76 333.146 172.389 333.195 172.008 333.195C171.051 333.195 170.24 332.912 169.586 332.346C168.932 331.779 168.609 331.135 168.609 330.402C168.609 329.602 168.844 328.957 169.332 328.469C169.811 327.98 170.504 327.658 171.412 327.502ZM172.008 331.896C172.906 331.896 173.648 331.604 174.234 331.008C174.82 330.422 175.113 329.65 175.113 328.703L175.113 328.098L171.813 328.703C170.611 328.937 170.006 329.504 170.006 330.402C170.006 330.832 170.182 331.193 170.533 331.477C170.885 331.76 171.383 331.896 172.008 331.896ZM181.1 330.305L181.1 333L179.703 333L179.703 323.4L181.1 323.4L181.1 328.498L185.895 323.4L187.604 323.4L183.902 327.297L188.004 333L186.402 333L183.004 328.303L181.1 330.305ZM188.6 324.699L188.6 323.4L196.793 323.4L196.793 324.699L193.395 324.699L193.395 333L191.998 333L191.998 324.699L188.6 324.699ZM209.303 323.4L209.303 333L207.896 333L207.896 323.4L209.303 323.4ZM200.201 331.701L202.623 331.701C203.248 331.701 203.746 331.525 204.127 331.174C204.508 330.822 204.703 330.363 204.703 329.797C204.703 329.24 204.508 328.781 204.127 328.43C203.746 328.078 203.238 327.902 202.604 327.902L200.201 327.902L200.201 331.701ZM206.1 329.807C206.1 330.764 205.787 331.535 205.172 332.121C204.547 332.707 203.697 333 202.623 333L198.805 333L198.805 323.4L200.201 323.4L200.201 326.604L202.604 326.604C203.678 326.604 204.537 326.896 205.162 327.482C205.787 328.068 206.1 328.85 206.1 329.807ZM223.502 323.4L224.703 323.4L224.703 333L223.297 333L223.297 325.803L217.496 333L216.305 333L216.305 323.4L217.701 323.4L217.701 330.598L223.502 323.4ZM228.902 323.4L235.904 323.41L235.904 333.01L234.498 333.01L234.498 324.709L230.299 324.709L230.299 326.213C230.299 327.619 230.221 328.801 230.084 329.738C229.947 330.676 229.732 331.398 229.459 331.887C229.176 332.375 228.863 332.717 228.531 332.912C228.189 333.107 227.779 333.205 227.301 333.205C227.135 333.205 226.969 333.186 226.803 333.156C226.637 333.117 226.52 333.088 226.441 333.049L226.305 333.01L226.305 331.613C226.568 331.74 226.832 331.809 227.105 331.809C227.516 331.809 227.838 331.691 228.072 331.457C228.307 331.223 228.502 330.676 228.658 329.836C228.814 328.986 228.902 327.775 228.902 326.203L228.902 323.4ZM246.295 323.4L247.496 323.4L247.496 333L246.09 333L246.09 325.803L240.289 333L239.098 333L239.098 323.4L240.494 323.4L240.494 330.598L246.295 323.4ZM255.504 323.4L262.506 323.41L262.506 333.01L261.1 333.01L261.1 324.709L256.9 324.709L256.9 326.213C256.9 327.619 256.822 328.801 256.686 329.738C256.549 330.676 256.334 331.398 256.061 331.887C255.777 332.375 255.465 332.717 255.133 332.912C254.791 333.107 254.381 333.205 253.902 333.205C253.736 333.205 253.57 333.186 253.404 333.156C253.238 333.117 253.121 333.088 253.043 333.049L252.906 333.01L252.906 331.613C253.17 331.74 253.434 331.809 253.707 331.809C254.117 331.809 254.439 331.691 254.674 331.457C254.908 331.223 255.104 330.676 255.26 329.836C255.416 328.986 255.504 327.775 255.504 326.203L255.504 323.4ZM273.395 328.205C273.395 327.17 273.043 326.291 272.359 325.578C271.676 324.865 270.846 324.504 269.889 324.504C268.932 324.504 268.102 324.865 267.418 325.578C266.734 326.291 266.393 327.16 266.393 328.195C266.393 329.23 266.734 330.1 267.418 330.822C268.102 331.545 268.932 331.896 269.889 331.896C270.846 331.896 271.676 331.545 272.359 330.832C273.043 330.119 273.395 329.24 273.395 328.205ZM264.996 328.205C264.996 326.799 265.465 325.617 266.422 324.65C267.379 323.684 268.531 323.195 269.898 323.195C271.256 323.195 272.408 323.684 273.355 324.65C274.313 325.617 274.781 326.799 274.781 328.205C274.781 329.611 274.313 330.793 273.355 331.76C272.408 332.717 271.256 333.205 269.898 333.205C268.531 333.205 267.379 332.717 266.422 331.76C265.465 330.793 264.996 329.611 264.996 328.205ZM281.891 329.797L280.484 328.303L277.086 333L275.484 333L279.586 327.297L275.885 323.4L277.584 323.4L281.891 328L281.891 323.4L283.287 323.4L283.287 328L287.584 323.4L289.283 323.4L285.582 327.297L289.684 333L288.082 333L284.684 328.303L283.287 329.797L283.287 333L281.891 333L281.891 329.797ZM292.896 331.701L295.416 331.701C296.041 331.701 296.539 331.525 296.92 331.174C297.301 330.822 297.496 330.363 297.496 329.797C297.496 329.24 297.301 328.781 296.92 328.43C296.539 328.078 296.031 327.902 295.396 327.902L292.896 327.902L292.896 331.701ZM298.893 329.807C298.893 330.764 298.58 331.535 297.965 332.121C297.34 332.707 296.49 333 295.416 333L291.5 333L291.5 323.4L292.896 323.4L292.896 326.604L295.396 326.604C296.471 326.604 297.33 326.896 297.955 327.482C298.58 328.068 298.893 328.85 298.893 329.807ZM301.002 332.199C301.002 331.906 301.09 331.672 301.266 331.486C301.441 331.301 301.686 331.203 301.988 331.203C302.301 331.203 302.545 331.301 302.721 331.486C302.896 331.672 302.984 331.906 302.984 332.199C302.984 332.492 302.896 332.736 302.721 332.922C302.545 333.107 302.301 333.195 301.988 333.195C301.686 333.195 301.441 333.107 301.266 332.922C301.09 332.736 301.002 332.492 301.002 332.199Z" fill="#1D1717"/>
<path d="M141.383 218.64C134.994 220.809 128.421 223.333 123.789 228.228C119.156 233.124 117.082 241.118 120.817 246.747C123.16 250.308 127.346 252.292 131.511 252.94C135.677 253.589 139.977 253.049 144.188 252.523C164.394 249.969 184.94 247.327 203.516 238.993C207.348 237.431 210.894 235.241 214.007 232.514C217.161 229.755 219.145 225.897 219.556 221.726C220.136 209.916 207.413 205.047 197.645 204.965C186.473 204.866 174.2 209.068 163.525 211.917C156.073 213.913 148.692 216.154 141.383 218.64Z" fill="white" stroke="#F9BBDE" stroke-width="3" stroke-linecap="round" stroke-linejoin="round"/>
<path d="M139.457 231.558L142.634 245.453L139.457 231.558Z" fill="white"/>
<path d="M139.457 231.558L142.634 245.453" stroke="#F9BBDE" stroke-width="3" stroke-linecap="round" stroke-linejoin="round"/>
<path d="M153.852 241.55L150.442 225.544C152.518 224.567 154.786 224.065 157.08 224.073C159.362 224.257 161.72 225.798 162.051 228.065C162.399 230.136 160.863 232.158 158.995 233.111C157.047 233.925 154.938 234.28 152.831 234.147L168.815 237.544" fill="white"/>
<path d="M153.852 241.55L150.442 225.544C152.518 224.567 154.786 224.065 157.08 224.073C159.362 224.257 161.72 225.798 162.051 228.065C162.399 230.136 160.863 232.158 158.995 233.111C157.047 233.925 154.938 234.28 152.831 234.147L168.815 237.544" stroke="#F9BBDE" stroke-width="3" stroke-linecap="round" stroke-linejoin="round"/>
<path d="M168.299 222.644C168.401 225.03 168.835 227.391 169.589 229.657C170.357 231.931 171.729 234.368 174.063 234.918C175.093 235.106 176.156 234.975 177.109 234.541C178.062 234.107 178.86 233.392 179.394 232.491C180.436 230.66 180.751 228.504 180.276 226.452C179.8 224.419 179.074 222.453 178.116 220.599" fill="white"/>
<path d="M168.299 222.644C168.401 225.03 168.835 227.391 169.589 229.657C170.357 231.931 171.729 234.368 174.063 234.918C175.093 235.106 176.156 234.975 177.109 234.541C178.062 234.107 178.86 233.392 179.394 232.491C180.436 230.66 180.751 228.504 180.276 226.452C179.8 224.419 179.074 222.453 178.116 220.599" stroke="#F9BBDE" stroke-width="3" stroke-linecap="round" stroke-linejoin="round"/>
<path d="M200.939 229.032C197.538 230.273 194.132 231.606 190.732 232.857C190.045 227.293 188.585 221.852 186.393 216.693C189.331 216.077 192.165 216.047 195.065 215.438" fill="white"/>
<path d="M200.939 229.032C197.538 230.273 194.132 231.606 190.732 232.857C190.045 227.293 188.585 221.852 186.393 216.693C189.331 216.077 192.165 216.047 195.065 215.438" stroke="#F9BBDE" stroke-width="3" stroke-linecap="round" stroke-linejoin="round"/>
<path d="M131.893 232.403L145.004 228.719L131.893 232.403Z" fill="white"/>
<path d="M131.893 232.403L145.004 228.719" stroke="#F9BBDE" stroke-width="3" stroke-linecap="round" stroke-linejoin="round"/>
<path d="M190.144 225.077L195.867 222.928L190.144 225.077Z" fill="white"/>
<path d="M190.144 225.077L195.867 222.928" stroke="#F9BBDE" stroke-width="3" stroke-linecap="round" stroke-linejoin="round"/>
<g clip-path="url(#clip0_1_1532)">
<path d="M313.589 355.316C310.259 355.386 306.953 355.899 303.758 356.841C300.133 358.033 297.021 360.423 294.933 363.618C293.914 365.216 293.247 367.013 292.976 368.89C292.705 370.766 292.835 372.678 293.36 374.5C294.899 379.414 299.539 382.865 304.467 384.349C309.395 385.834 314.664 385.69 319.804 385.526L380.251 383.615C384.888 383.503 389.733 383.268 393.743 380.941C396.325 379.376 398.355 377.045 399.55 374.271C400.744 371.498 401.043 368.421 400.406 365.469C399.11 360.206 395.075 357.122 390.453 354.872C386.133 352.763 381.443 353.29 376.726 353.288C363.307 353.277 349.876 353.55 336.433 354.108C328.806 354.421 321.192 354.823 313.589 355.316Z" fill="white" stroke="#F9BBDE" stroke-width="3" stroke-linecap="round" stroke-linejoin="round"/>
<path d="M307.354 377.881L306.352 363.525C310.012 363.54 314.06 363.418 317.73 363.431" stroke="#F9BBDE" stroke-width="3" stroke-linecap="round" stroke-linejoin="round"/>
<path d="M320.299 377.67L323.38 372.07C325.272 368.628 327.222 365.007 327.335 361.076L332.764 377.391" stroke="#F9BBDE" stroke-width="3" stroke-linecap="round" stroke-linejoin="round"/>
<path d="M307.463 371.716L315.168 370.509" stroke="#F9BBDE" stroke-width="3" stroke-linecap="round" stroke-linejoin="round"/>
<path d="M322.662 372.083C325.292 373.355 328.283 373.674 331.123 372.985" stroke="#F9BBDE" stroke-width="3" stroke-linecap="round" stroke-linejoin="round"/>
<path d="M341.637 361.23C342.615 366.222 342.863 371.33 342.374 376.393L350.231 376.096" stroke="#F9BBDE" stroke-width="3" stroke-linecap="round" stroke-linejoin="round"/>
<path d="M364.028 362.533C363.356 362.035 362.578 361.696 361.755 361.542C360.932 361.388 360.085 361.422 359.278 361.643C358.477 361.898 357.803 362.447 357.39 363.179C356.978 363.911 356.859 364.772 357.057 365.589C357.708 367.437 359.998 367.954 361.831 368.625C363.276 369.098 364.545 369.995 365.473 371.199C365.925 371.805 366.207 372.521 366.288 373.272C366.37 374.023 366.249 374.783 365.938 375.472C365.052 377.183 362.811 377.828 360.908 377.462C359.036 376.955 357.293 376.053 355.797 374.818" stroke="#F9BBDE" stroke-width="3" stroke-linecap="round" stroke-linejoin="round"/>
<path d="M383.818 375.981L374.016 376.489L373.258 361.661C376.381 361.798 379.192 361.754 382.354 361.882" stroke="#F9BBDE" stroke-width="3" stroke-linecap="round" stroke-linejoin="round"/>
<path d="M373.226 369.31L382.715 369.033" stroke="#F9BBDE" stroke-width="3" stroke-linecap="round" stroke-linejoin="round"/>
</g>
<g clip-path="url(#clip1_1_1532)">
<path d="M532.63 40.3418C552.247 8.23859 598.299 -10.4041 630 6.49982C652.504 18.4998 641.522 52.345 639.319 62.4305C649.483 42.3305 692.343 14.0626 712.387 30.4693C725.11 40.91 720.348 60.7969 713.667 75.8542C726.461 56.1803 793.203 27.1312 813.461 50.0722C832.297 71.4506 806.14 105.614 788.797 128.199C770.956 151.282 691.845 216.554 659.007 197.591C649.554 192.122 667.203 181.614 679.5 164C666.777 178.915 633.757 219.876 576.556 193.5C554.877 182.42 574.189 133.35 583.5 119.5C571.417 139.671 542 142.125 524 130.5C499.5 114.677 513.012 72.445 532.63 40.3418Z" fill="#FAFAFA"/>
</g>
<defs>
<clipPath id="clip0_1_1532">
<rect width="109.12" height="48.63" fill="white" transform="translate(288 359.095) rotate(-13.8357)"/>
</clipPath>
<clipPath id="clip1_1_1532">
<rect width="319" height="201" fill="white" transform="translate(498)"/>
</clipPath>
</defs>
</svg>
