<svg width="807" height="339" viewBox="0 0 807 339" fill="none" xmlns="http://www.w3.org/2000/svg">
<path d="M322.338 68.0579C355.425 13.9177 427.592 -17.8239 481.058 10.6836C506.952 24.4582 505.993 88.3006 502.277 105.309C519.419 71.4118 591.707 23.7396 625.513 51.4086C646.971 69.0162 638.939 102.554 627.67 127.948C649.249 94.7687 761.815 45.779 795.981 84.4677C827.749 120.521 783.633 178.135 754.383 216.225C724.293 255.153 590.867 365.23 535.483 333.249C519.539 324.026 505.633 292.524 526.372 262.819C504.914 287.973 456.483 325.344 411.169 302.107C374.605 283.421 380.719 249.164 396.423 225.807C376.044 259.825 338.402 302.706 301.479 285.937C239.382 257.669 277.623 141.363 322.338 68.0579Z" fill="#FAFAFA"/>
<g clip-path="url(#clip0_1_1559)">
<path d="M359.675 121.009C359.704 123.199 361.489 124.959 363.68 124.956L400.929 124.908C403.112 124.905 404.89 123.153 404.924 120.97L405.118 108.299C405.153 106.059 403.34 104.227 401.099 104.238L378.004 104.352C373.395 104.352 368.786 104.352 364.184 104.423C360.154 104.506 359.467 105.665 359.524 109.648L359.675 121.009Z" fill="#F9BBDE"/>
<path d="M359.277 104.942L404.806 90.7627L402.81 84.6212C402.365 83.2699 366.46 96.7891 363.224 98.1211C362.106 98.5886 358.876 99.3251 358.215 100.35C357.471 101.496 358.863 103.776 359.277 104.942Z" stroke="#F9BBDE" stroke-width="3" stroke-linecap="round" stroke-linejoin="round"/>
<path d="M378.755 85.1654C378.558 83.2954 379.022 81.2589 380.408 79.9973C381.793 78.7357 384.222 78.6012 385.442 79.9973C385.881 80.5768 386.154 81.2657 386.234 81.99C386.314 82.7142 386.196 83.4467 385.894 84.1087C385.281 85.4211 384.417 86.5985 383.351 87.5734C382.41 88.5276 381.495 90.4617 380.217 89.6355C379.289 89.0592 378.863 86.1645 378.755 85.1654Z" stroke="#F9BBDE" stroke-width="3" stroke-linecap="round" stroke-linejoin="round"/>
<path d="M403.211 96.238C405.422 94.4435 408.045 93.2369 410.839 92.7285" stroke="#F9BBDE" stroke-width="3" stroke-linecap="round" stroke-linejoin="round"/>
<path d="M403.904 98.5371C406.874 97.9944 409.898 97.8053 412.912 97.9735" stroke="#F9BBDE" stroke-width="3" stroke-linecap="round" stroke-linejoin="round"/>
<path d="M407.019 100.728L413.122 102.329" stroke="#F9BBDE" stroke-width="3" stroke-linecap="round" stroke-linejoin="round"/>
<path d="M375.474 86.2672C373.923 85.2489 372.169 84.3459 370.312 84.4292C368.456 84.5124 366.574 85.8573 366.441 87.7209C366.339 89.3155 367.566 90.7565 369.016 91.4033C370.507 91.9647 372.097 92.2131 373.688 92.1334C375.074 92.1334 380.172 93.1068 380.522 91.0831C380.808 89.4244 376.663 87.01 375.474 86.2672Z" stroke="#F9BBDE" stroke-width="3" stroke-linecap="round" stroke-linejoin="round"/>
</g>
<path d="M364.004 159.102L362.305 154.502L360.596 159.102H364.004ZM365 161.699H359.6L358.398 165H355.195L360.703 150.996H363.896L369.404 165H366.201L365 161.699ZM373.906 157.803V155.195H382.812V157.803H379.707V165H377.012V157.803H373.906ZM393.701 160.996H386.602C386.699 161.533 386.982 161.982 387.451 162.354C387.91 162.725 388.496 162.9 389.199 162.9C389.707 162.9 390.176 162.803 390.605 162.607C391.035 162.412 391.348 162.207 391.523 162.002L391.807 161.699L393.203 163.496L393.018 163.682C392.939 163.76 392.764 163.896 392.5 164.092C392.227 164.287 391.943 164.463 391.65 164.619C391.348 164.775 390.957 164.902 390.479 165.02C390 165.137 389.512 165.195 389.004 165.195C387.559 165.195 386.338 164.697 385.322 163.701C384.307 162.705 383.799 161.504 383.799 160.098C383.799 158.701 384.297 157.5 385.303 156.504C386.299 155.508 387.5 155 388.906 155C390.303 155 391.465 155.469 392.402 156.406C393.33 157.344 393.799 158.506 393.799 159.902L393.701 160.996ZM388.906 157.305C388.33 157.305 387.842 157.471 387.441 157.803C387.041 158.135 386.758 158.574 386.602 159.102H391.104C390.996 158.584 390.742 158.154 390.352 157.812C389.961 157.48 389.473 157.305 388.906 157.305ZM401.113 162.598L398.506 159.199V165H395.811V155.195H398.105L401.113 159.102L404.111 155.195H406.406V165H403.711V159.199L401.113 162.598ZM409.912 162.1L412.109 163.398L409.512 167.598L407.715 166.699L409.912 162.1ZM427.607 155.195L423.906 159.404L427.812 165H424.805L422.207 161.201L421.006 162.598V165H418.311V155.195H421.006V159.199L424.512 155.195H427.607ZM428.105 157.803V155.195H437.012V157.803H433.906V165H431.211V157.803H428.105ZM440.801 160.107C440.801 160.84 441.035 161.455 441.514 161.953C441.982 162.451 442.549 162.695 443.203 162.695C443.848 162.695 444.414 162.451 444.893 161.953C445.361 161.455 445.605 160.84 445.605 160.107C445.605 159.375 445.361 158.76 444.893 158.252C444.414 157.754 443.848 157.5 443.203 157.5C442.549 157.5 441.982 157.754 441.514 158.252C441.035 158.76 440.801 159.375 440.801 160.107ZM448.398 160.098C448.398 161.465 447.881 162.656 446.846 163.672C445.811 164.688 444.6 165.195 443.203 165.195C441.797 165.195 440.586 164.688 439.551 163.672C438.516 162.656 437.998 161.465 437.998 160.098C437.998 158.74 438.516 157.549 439.551 156.533C440.586 155.518 441.797 155.01 443.203 155.01C444.6 155.01 445.811 155.518 446.846 156.533C447.881 157.549 448.398 158.74 448.398 160.098ZM456.699 160.107C456.699 160.84 456.934 161.455 457.412 161.953C457.881 162.451 458.447 162.695 459.102 162.695C459.746 162.695 460.312 162.451 460.791 161.953C461.26 161.455 461.504 160.84 461.504 160.107C461.504 159.375 461.26 158.76 460.791 158.252C460.312 157.754 459.746 157.5 459.102 157.5C458.447 157.5 457.881 157.754 457.412 158.252C456.934 158.76 456.699 159.375 456.699 160.107ZM464.297 160.098C464.297 161.465 463.779 162.656 462.744 163.672C461.709 164.688 460.498 165.195 459.102 165.195C457.695 165.195 456.484 164.688 455.449 163.672C454.414 162.656 453.896 161.465 453.896 160.098C453.896 158.74 454.414 157.549 455.449 156.533C456.484 155.518 457.695 155.01 459.102 155.01C460.498 155.01 461.709 155.518 462.744 156.533C463.779 157.549 464.297 158.74 464.297 160.098ZM465.293 157.803V155.195H474.199V157.803H471.094V165H468.398V157.803H465.293ZM482.891 155.195V157.695H478.486V165H475.791V155.195H482.891ZM489.785 165L489.775 164.004C489.697 164.102 489.59 164.209 489.453 164.346C489.316 164.482 489.004 164.658 488.535 164.873C488.066 165.088 487.578 165.195 487.07 165.195C486.094 165.195 485.303 164.932 484.688 164.385C484.082 163.838 483.77 163.184 483.77 162.402C483.77 161.602 484.033 160.938 484.541 160.4C485.059 159.873 485.771 159.521 486.67 159.355L489.775 158.799C489.775 158.389 489.629 158.057 489.326 157.793C489.033 157.539 488.613 157.402 488.076 157.402C487.637 157.402 487.236 157.49 486.865 157.656C486.504 157.822 486.25 157.988 486.094 158.164L485.869 158.398L484.375 156.904C484.414 156.855 484.473 156.787 484.541 156.699C484.609 156.611 484.766 156.455 485 156.24C485.234 156.025 485.498 155.84 485.771 155.674C486.055 155.508 486.426 155.352 486.875 155.215C487.334 155.078 487.803 155 488.281 155C489.512 155 490.527 155.371 491.309 156.113C492.09 156.855 492.48 157.783 492.48 158.896V165H489.785ZM487.773 162.998C488.389 162.998 488.877 162.812 489.238 162.422C489.6 162.031 489.775 161.494 489.775 160.801V160.498L487.578 160.898C486.846 161.016 486.475 161.387 486.475 162.002C486.475 162.666 486.914 162.998 487.773 162.998ZM493.789 162.598L494.385 162.607C494.424 162.568 494.473 162.51 494.551 162.441C494.629 162.363 494.756 162.188 494.941 161.914C495.127 161.631 495.293 161.318 495.43 160.986C495.566 160.654 495.693 160.205 495.811 159.658C495.928 159.102 495.986 158.516 495.986 157.9V155.195H503.486V162.598H504.785V167.305H502.09V165H496.484V167.305H493.789V162.598ZM498.486 157.607V158.213C498.486 158.984 498.379 159.736 498.164 160.469C497.949 161.201 497.744 161.738 497.529 162.09L497.188 162.607H500.791V157.607H498.486ZM511.992 165L511.982 164.004C511.904 164.102 511.797 164.209 511.66 164.346C511.523 164.482 511.211 164.658 510.742 164.873C510.273 165.088 509.785 165.195 509.277 165.195C508.301 165.195 507.51 164.932 506.895 164.385C506.289 163.838 505.977 163.184 505.977 162.402C505.977 161.602 506.24 160.938 506.748 160.4C507.266 159.873 507.979 159.521 508.877 159.355L511.982 158.799C511.982 158.389 511.836 158.057 511.533 157.793C511.24 157.539 510.82 157.402 510.283 157.402C509.844 157.402 509.443 157.49 509.072 157.656C508.711 157.822 508.457 157.988 508.301 158.164L508.076 158.398L506.582 156.904C506.621 156.855 506.68 156.787 506.748 156.699C506.816 156.611 506.973 156.455 507.207 156.24C507.441 156.025 507.705 155.84 507.979 155.674C508.262 155.508 508.633 155.352 509.082 155.215C509.541 155.078 510.01 155 510.488 155C511.719 155 512.734 155.371 513.516 156.113C514.297 156.855 514.688 157.783 514.688 158.896V165H511.992ZM509.98 162.998C510.596 162.998 511.084 162.812 511.445 162.422C511.807 162.031 511.982 161.494 511.982 160.801V160.498L509.785 160.898C509.053 161.016 508.682 161.387 508.682 162.002C508.682 162.666 509.121 162.998 509.98 162.998ZM518.291 155.195L526.191 155.205V165.01H523.496V157.607H520.898V158.213C520.898 160.039 520.742 161.494 520.43 162.568C520.117 163.643 519.727 164.375 519.238 164.746C518.75 165.117 518.135 165.303 517.393 165.303C517.148 165.303 516.914 165.283 516.68 165.225C516.445 165.166 516.279 165.117 516.172 165.078L515.996 165V162.598C516.191 162.666 516.396 162.695 516.592 162.695C516.982 162.695 517.295 162.598 517.529 162.393C517.754 162.188 517.939 161.729 518.076 161.016C518.213 160.303 518.291 159.268 518.291 157.9V155.195ZM532.9 155.195H537.803C538.779 155.195 539.57 155.469 540.186 155.996C540.791 156.533 541.104 157.168 541.104 157.9C541.104 158.35 540.996 158.73 540.801 159.062C540.596 159.395 540.391 159.619 540.195 159.717L539.902 159.902C539.941 159.922 539.99 159.941 540.068 159.961C540.137 159.99 540.264 160.068 540.459 160.186C540.645 160.303 540.811 160.439 540.947 160.596C541.084 160.752 541.211 160.957 541.328 161.221C541.445 161.494 541.504 161.787 541.504 162.1C541.504 162.93 541.182 163.623 540.547 164.17C539.912 164.727 539.062 165 537.998 165H532.9V155.195ZM537.803 160.801H535.596V162.803H537.803C538.105 162.803 538.35 162.715 538.525 162.52C538.701 162.334 538.799 162.09 538.799 161.797C538.799 161.504 538.701 161.27 538.525 161.084C538.35 160.898 538.105 160.801 537.803 160.801ZM538.398 158.203C538.398 157.676 538.125 157.402 537.598 157.402H535.596V159.004H537.598C538.125 159.004 538.398 158.74 538.398 158.203ZM542.9 160.098C542.9 158.74 543.418 157.549 544.463 156.533C545.518 155.518 546.758 155 548.193 155C548.701 155 549.189 155.078 549.648 155.215C550.107 155.352 550.479 155.518 550.771 155.713C551.064 155.908 551.328 156.094 551.553 156.289C551.787 156.484 551.953 156.66 552.051 156.797L552.197 157.002L550.498 158.701C550.449 158.613 550.361 158.496 550.244 158.34C550.127 158.193 549.863 157.998 549.463 157.764C549.062 157.529 548.643 157.402 548.193 157.402C547.49 157.402 546.875 157.666 546.367 158.193C545.859 158.721 545.596 159.365 545.596 160.107C545.596 160.85 545.859 161.484 546.367 162.012C546.885 162.539 547.49 162.803 548.193 162.803C548.643 162.803 549.062 162.695 549.463 162.48C549.863 162.266 550.156 162.051 550.332 161.836L550.596 161.504L552.197 163.203C552.158 163.262 552.109 163.33 552.041 163.428C551.973 163.525 551.816 163.682 551.562 163.906C551.318 164.131 551.055 164.326 550.762 164.502C550.479 164.678 550.107 164.834 549.648 164.98C549.189 165.127 548.701 165.195 548.193 165.195C546.758 165.195 545.518 164.688 544.473 163.672C543.418 162.656 542.9 161.465 542.9 160.098ZM563.311 160.996H556.211C556.309 161.533 556.592 161.982 557.061 162.354C557.52 162.725 558.105 162.9 558.809 162.9C559.316 162.9 559.785 162.803 560.215 162.607C560.645 162.412 560.957 162.207 561.133 162.002L561.416 161.699L562.812 163.496L562.627 163.682C562.549 163.76 562.373 163.896 562.109 164.092C561.836 164.287 561.553 164.463 561.26 164.619C560.957 164.775 560.566 164.902 560.088 165.02C559.609 165.137 559.121 165.195 558.613 165.195C557.168 165.195 555.947 164.697 554.932 163.701C553.916 162.705 553.408 161.504 553.408 160.098C553.408 158.701 553.906 157.5 554.912 156.504C555.908 155.508 557.109 155 558.516 155C559.912 155 561.074 155.469 562.012 156.406C562.939 157.344 563.408 158.506 563.408 159.902L563.311 160.996ZM558.516 157.305C557.939 157.305 557.451 157.471 557.051 157.803C556.65 158.135 556.367 158.574 556.211 159.102H560.713C560.605 158.584 560.352 158.154 559.961 157.812C559.57 157.48 559.082 157.305 558.516 157.305ZM574.424 150.996H576.924V165H573.916V154.805H571.523V152.9C571.953 152.852 572.344 152.754 572.705 152.598C573.057 152.441 573.34 152.275 573.535 152.1C573.73 151.924 573.906 151.758 574.043 151.592C574.18 151.426 574.277 151.279 574.336 151.162L574.424 150.996ZM588.428 155.703C589.775 155.703 590.889 156.152 591.777 157.041C592.676 157.939 593.115 159.053 593.115 160.4C593.115 161.816 592.637 162.988 591.66 163.916C590.684 164.844 589.404 165.303 587.822 165.303C587.158 165.303 586.523 165.234 585.918 165.078C585.312 164.922 584.814 164.736 584.434 164.521C584.053 164.307 583.721 164.102 583.428 163.887C583.145 163.672 582.939 163.486 582.812 163.32L582.627 163.096L584.424 161.201C584.512 161.309 584.639 161.436 584.805 161.592C584.98 161.748 585.342 161.953 585.898 162.207C586.465 162.471 587.031 162.598 587.617 162.598C588.369 162.598 588.955 162.402 589.385 161.992C589.814 161.582 590.02 161.055 590.02 160.4C590.02 159.756 589.795 159.209 589.346 158.76C588.896 158.32 588.32 158.096 587.627 158.096C587.139 158.096 586.709 158.193 586.338 158.369C585.957 158.555 585.693 158.74 585.547 158.916L585.332 159.199L583.232 159.004L583.73 150.996H592.227V153.604H586.426L586.23 156.201C586.758 155.869 587.49 155.703 588.428 155.703ZM604.541 162.9V157.5C603.643 157.559 602.959 157.822 602.471 158.291C601.982 158.77 601.738 159.404 601.738 160.205C601.738 161.006 601.982 161.641 602.471 162.109C602.959 162.588 603.643 162.852 604.541 162.9ZM607.236 165.303V169.199H604.541V165.303C602.959 165.254 601.65 164.736 600.605 163.74C599.551 162.754 599.033 161.572 599.033 160.205C599.033 158.838 599.551 157.656 600.605 156.67C601.65 155.674 602.959 155.156 604.541 155.107V151.006H607.236V155.107C608.809 155.156 610.117 155.674 611.162 156.67C612.207 157.656 612.734 158.838 612.734 160.205C612.734 161.572 612.207 162.754 611.162 163.74C610.117 164.736 608.809 165.254 607.236 165.303ZM607.236 157.5V162.9C608.125 162.852 608.818 162.588 609.307 162.109C609.795 161.641 610.039 161.006 610.039 160.205C610.039 159.404 609.795 158.77 609.307 158.291C608.818 157.822 608.125 157.559 607.236 157.5ZM620.137 165L620.127 164.004C620.049 164.102 619.941 164.209 619.805 164.346C619.668 164.482 619.355 164.658 618.887 164.873C618.418 165.088 617.93 165.195 617.422 165.195C616.445 165.195 615.654 164.932 615.039 164.385C614.434 163.838 614.121 163.184 614.121 162.402C614.121 161.602 614.385 160.938 614.893 160.4C615.41 159.873 616.123 159.521 617.021 159.355L620.127 158.799C620.127 158.389 619.98 158.057 619.678 157.793C619.385 157.539 618.965 157.402 618.428 157.402C617.988 157.402 617.588 157.49 617.217 157.656C616.855 157.822 616.602 157.988 616.445 158.164L616.221 158.398L614.727 156.904C614.766 156.855 614.824 156.787 614.893 156.699C614.961 156.611 615.117 156.455 615.352 156.24C615.586 156.025 615.85 155.84 616.123 155.674C616.406 155.508 616.777 155.352 617.227 155.215C617.686 155.078 618.154 155 618.633 155C619.863 155 620.879 155.371 621.66 156.113C622.441 156.855 622.832 157.783 622.832 158.896V165H620.137ZM618.125 162.998C618.74 162.998 619.229 162.812 619.59 162.422C619.951 162.031 620.127 161.494 620.127 160.801V160.498L617.93 160.898C617.197 161.016 616.826 161.387 616.826 162.002C616.826 162.666 617.266 162.998 618.125 162.998ZM634.736 155.195L631.035 159.404L634.941 165H631.934L629.336 161.201L628.135 162.598V165H625.439V155.195H628.135V159.199L631.641 155.195H634.736ZM635.234 157.803V155.195H644.141V157.803H641.035V165H638.34V157.803H635.234ZM647.93 160.107C647.93 160.84 648.164 161.455 648.643 161.953C649.111 162.451 649.678 162.695 650.332 162.695C650.977 162.695 651.543 162.451 652.021 161.953C652.49 161.455 652.734 160.84 652.734 160.107C652.734 159.375 652.49 158.76 652.021 158.252C651.543 157.754 650.977 157.5 650.332 157.5C649.678 157.5 649.111 157.754 648.643 158.252C648.164 158.76 647.93 159.375 647.93 160.107ZM655.527 160.098C655.527 161.465 655.01 162.656 653.975 163.672C652.939 164.688 651.729 165.195 650.332 165.195C648.926 165.195 647.715 164.688 646.68 163.672C645.645 162.656 645.127 161.465 645.127 160.098C645.127 158.74 645.645 157.549 646.68 156.533C647.715 155.518 648.926 155.01 650.332 155.01C651.729 155.01 652.939 155.518 653.975 156.533C655.01 157.549 655.527 158.74 655.527 160.098ZM657.529 155.195H662.432C663.408 155.195 664.199 155.469 664.814 155.996C665.42 156.533 665.732 157.168 665.732 157.9C665.732 158.35 665.625 158.73 665.43 159.062C665.225 159.395 665.02 159.619 664.824 159.717L664.531 159.902C664.57 159.922 664.619 159.941 664.697 159.961C664.766 159.99 664.893 160.068 665.088 160.186C665.273 160.303 665.439 160.439 665.576 160.596C665.713 160.752 665.84 160.957 665.957 161.221C666.074 161.494 666.133 161.787 666.133 162.1C666.133 162.93 665.811 163.623 665.176 164.17C664.541 164.727 663.691 165 662.627 165H657.529V155.195ZM662.432 160.801H660.225V162.803H662.432C662.734 162.803 662.979 162.715 663.154 162.52C663.33 162.334 663.428 162.09 663.428 161.797C663.428 161.504 663.33 161.27 663.154 161.084C662.979 160.898 662.734 160.801 662.432 160.801ZM663.027 158.203C663.027 157.676 662.754 157.402 662.227 157.402H660.225V159.004H662.227C662.754 159.004 663.027 158.74 663.027 158.203ZM669.033 162.1L671.23 163.398L668.633 167.598L666.836 166.699L669.033 162.1ZM686.133 157.959V160.303H672.832V157.959H686.133Z" fill="#4039A3"/>
<path d="M357.197 192.195C357.197 193.279 357.568 194.168 358.33 194.861C359.082 195.555 360.068 195.906 361.289 195.906V188.514C360.068 188.514 359.082 188.855 358.33 189.559C357.568 190.252 357.197 191.131 357.197 192.195ZM366.797 192.205C366.797 191.131 366.416 190.252 365.664 189.559C364.912 188.855 363.926 188.514 362.695 188.514V195.906C363.916 195.906 364.902 195.555 365.664 194.861C366.416 194.168 366.797 193.279 366.797 192.205ZM362.695 197.195V201.199H361.299V197.195C359.668 197.195 358.34 196.727 357.324 195.77C356.309 194.822 355.801 193.631 355.801 192.205C355.801 190.779 356.309 189.588 357.324 188.631C358.34 187.674 359.668 187.205 361.299 187.205V183.006H362.695V187.205C364.316 187.205 365.645 187.674 366.67 188.631C367.686 189.588 368.203 190.779 368.203 192.205C368.203 193.631 367.686 194.822 366.67 195.77C365.645 196.727 364.316 197.195 362.695 197.195ZM372.803 191.502L376.504 190.896C376.504 190.193 376.279 189.617 375.83 189.168C375.381 188.729 374.805 188.504 374.102 188.504C373.594 188.504 373.115 188.621 372.666 188.855C372.217 189.09 371.895 189.324 371.699 189.559L371.396 189.9L370.498 189.002C370.537 188.953 370.586 188.885 370.654 188.807C370.723 188.729 370.869 188.582 371.104 188.377C371.338 188.172 371.582 187.986 371.836 187.82C372.09 187.664 372.422 187.518 372.832 187.391C373.242 187.264 373.672 187.195 374.102 187.195C375.195 187.195 376.094 187.557 376.816 188.26C377.539 188.973 377.9 189.852 377.9 190.896V197H376.504V195.701C376.475 195.74 376.436 195.799 376.377 195.867C376.318 195.936 376.201 196.053 376.006 196.229C375.811 196.404 375.605 196.551 375.391 196.688C375.166 196.824 374.873 196.941 374.512 197.039C374.15 197.146 373.779 197.195 373.398 197.195C372.441 197.195 371.631 196.912 370.977 196.346C370.322 195.779 370 195.135 370 194.402C370 193.602 370.234 192.957 370.723 192.469C371.201 191.98 371.895 191.658 372.803 191.502ZM373.398 195.896C374.297 195.896 375.039 195.604 375.625 195.008C376.211 194.422 376.504 193.65 376.504 192.703V192.098L373.203 192.703C372.002 192.938 371.396 193.504 371.396 194.402C371.396 194.832 371.572 195.193 371.924 195.477C372.275 195.76 372.773 195.896 373.398 195.896ZM387.988 197V192.801H382.49V197H381.094V187.4H382.49V191.502H387.988V187.4H389.395V197H387.988ZM393.291 192.195C393.291 193.279 393.662 194.168 394.424 194.861C395.176 195.555 396.162 195.906 397.383 195.906V188.514C396.162 188.514 395.176 188.855 394.424 189.559C393.662 190.252 393.291 191.131 393.291 192.195ZM402.891 192.205C402.891 191.131 402.51 190.252 401.758 189.559C401.006 188.855 400.02 188.514 398.789 188.514V195.906C400.01 195.906 400.996 195.555 401.758 194.861C402.51 194.168 402.891 193.279 402.891 192.205ZM398.789 197.195V201.199H397.393V197.195C395.762 197.195 394.434 196.727 393.418 195.77C392.402 194.822 391.895 193.631 391.895 192.205C391.895 190.779 392.402 189.588 393.418 188.631C394.434 187.674 395.762 187.205 397.393 187.205V183.006H398.789V187.205C400.41 187.205 401.738 187.674 402.764 188.631C403.779 189.588 404.297 190.779 404.297 192.205C404.297 193.631 403.779 194.822 402.764 195.77C401.738 196.727 400.41 197.195 398.789 197.195ZM408.896 191.502L412.598 190.896C412.598 190.193 412.373 189.617 411.924 189.168C411.475 188.729 410.898 188.504 410.195 188.504C409.688 188.504 409.209 188.621 408.76 188.855C408.311 189.09 407.988 189.324 407.793 189.559L407.49 189.9L406.592 189.002C406.631 188.953 406.68 188.885 406.748 188.807C406.816 188.729 406.963 188.582 407.197 188.377C407.432 188.172 407.676 187.986 407.93 187.82C408.184 187.664 408.516 187.518 408.926 187.391C409.336 187.264 409.766 187.195 410.195 187.195C411.289 187.195 412.188 187.557 412.91 188.26C413.633 188.973 413.994 189.852 413.994 190.896V197H412.598V195.701C412.568 195.74 412.529 195.799 412.471 195.867C412.412 195.936 412.295 196.053 412.1 196.229C411.904 196.404 411.699 196.551 411.484 196.688C411.26 196.824 410.967 196.941 410.605 197.039C410.244 197.146 409.873 197.195 409.492 197.195C408.535 197.195 407.725 196.912 407.07 196.346C406.416 195.779 406.094 195.135 406.094 194.402C406.094 193.602 406.328 192.957 406.816 192.469C407.295 191.98 407.988 191.658 408.896 191.502ZM409.492 195.896C410.391 195.896 411.133 195.604 411.719 195.008C412.305 194.422 412.598 193.65 412.598 192.703V192.098L409.297 192.703C408.096 192.938 407.49 193.504 407.49 194.402C407.49 194.832 407.666 195.193 408.018 195.477C408.369 195.76 408.867 195.896 409.492 195.896ZM418.584 192.205C418.584 193.191 418.926 194.051 419.629 194.793C420.332 195.535 421.113 195.896 421.982 195.896C422.803 195.896 423.545 195.545 424.199 194.822C424.854 194.1 425.186 193.23 425.186 192.205C425.186 191.18 424.854 190.311 424.199 189.588C423.545 188.865 422.803 188.504 421.982 188.504C421.113 188.504 420.332 188.875 419.629 189.617C418.926 190.359 418.584 191.219 418.584 192.205ZM418.584 195.496V201.209H417.188V187.41H418.584V188.914C418.604 188.875 418.652 188.807 418.721 188.729C418.789 188.65 418.926 188.514 419.141 188.318C419.355 188.123 419.58 187.947 419.834 187.791C420.078 187.635 420.391 187.498 420.781 187.381C421.172 187.264 421.572 187.205 421.982 187.205C423.203 187.205 424.277 187.693 425.195 188.68C426.113 189.656 426.582 190.838 426.582 192.205C426.582 193.572 426.123 194.754 425.205 195.73C424.287 196.707 423.213 197.195 421.982 197.195C421.572 197.195 421.172 197.137 420.791 197.02C420.41 196.902 420.088 196.766 419.834 196.6C419.57 196.443 419.346 196.277 419.15 196.111C418.955 195.945 418.818 195.799 418.721 195.682L418.584 195.496ZM439.58 187.4V197H438.174V187.4H439.58ZM430.479 195.701H432.9C433.525 195.701 434.023 195.525 434.404 195.174C434.785 194.822 434.98 194.363 434.98 193.797C434.98 193.24 434.785 192.781 434.404 192.43C434.023 192.078 433.516 191.902 432.881 191.902H430.479V195.701ZM436.377 193.807C436.377 194.764 436.064 195.535 435.449 196.121C434.824 196.707 433.975 197 432.9 197H429.082V187.4H430.479V190.604H432.881C433.955 190.604 434.814 190.896 435.439 191.482C436.064 192.068 436.377 192.85 436.377 193.807ZM453.779 187.4H454.98V197H453.574V189.803L447.773 197H446.582V187.4H447.979V194.598L453.779 187.4ZM468.887 197V188.719H463.389V197H461.992V187.4H470.293V197H468.887ZM481.191 192.205C481.191 191.17 480.84 190.291 480.156 189.578C479.473 188.865 478.643 188.504 477.686 188.504C476.729 188.504 475.898 188.865 475.215 189.578C474.531 190.291 474.189 191.16 474.189 192.195C474.189 193.23 474.531 194.1 475.215 194.822C475.898 195.545 476.729 195.896 477.686 195.896C478.643 195.896 479.473 195.545 480.156 194.832C480.84 194.119 481.191 193.24 481.191 192.205ZM472.793 192.205C472.793 190.799 473.262 189.617 474.219 188.65C475.176 187.684 476.328 187.195 477.695 187.195C479.053 187.195 480.205 187.684 481.152 188.65C482.109 189.617 482.578 190.799 482.578 192.205C482.578 193.611 482.109 194.793 481.152 195.76C480.205 196.717 479.053 197.205 477.695 197.205C476.328 197.205 475.176 196.717 474.219 195.76C473.262 194.793 472.793 193.611 472.793 192.205ZM492.793 192.205C492.793 191.17 492.441 190.291 491.758 189.578C491.074 188.865 490.244 188.504 489.287 188.504C488.33 188.504 487.5 188.865 486.816 189.578C486.133 190.291 485.791 191.16 485.791 192.195C485.791 193.23 486.133 194.1 486.816 194.822C487.5 195.545 488.33 195.896 489.287 195.896C490.244 195.896 491.074 195.545 491.758 194.832C492.441 194.119 492.793 193.24 492.793 192.205ZM484.395 192.205C484.395 190.799 484.863 189.617 485.82 188.65C486.777 187.684 487.93 187.195 489.297 187.195C490.654 187.195 491.807 187.684 492.754 188.65C493.711 189.617 494.18 190.799 494.18 192.205C494.18 193.611 493.711 194.793 492.754 195.76C491.807 196.717 490.654 197.205 489.297 197.205C487.93 197.205 486.777 196.717 485.82 195.76C484.863 194.793 484.395 193.611 484.395 192.205ZM496.699 197V187.4H498.096V195.701H502.197V187.4H503.613V195.701H507.695V187.4H509.092V195.701H510.596V199.402H509.199V197H496.699ZM514.189 192.205C514.189 193.191 514.531 194.051 515.234 194.793C515.938 195.535 516.719 195.896 517.588 195.896C518.408 195.896 519.15 195.545 519.805 194.822C520.459 194.1 520.791 193.23 520.791 192.205C520.791 191.18 520.459 190.311 519.805 189.588C519.15 188.865 518.408 188.504 517.588 188.504C516.719 188.504 515.938 188.875 515.234 189.617C514.531 190.359 514.189 191.219 514.189 192.205ZM514.189 195.496V201.209H512.793V187.41H514.189V188.914C514.209 188.875 514.258 188.807 514.326 188.729C514.395 188.65 514.531 188.514 514.746 188.318C514.961 188.123 515.186 187.947 515.439 187.791C515.684 187.635 515.996 187.498 516.387 187.381C516.777 187.264 517.178 187.205 517.588 187.205C518.809 187.205 519.883 187.693 520.801 188.68C521.719 189.656 522.188 190.838 522.188 192.205C522.188 193.572 521.729 194.754 520.811 195.73C519.893 196.707 518.818 197.195 517.588 197.195C517.178 197.195 516.777 197.137 516.396 197.02C516.016 196.902 515.693 196.766 515.439 196.6C515.176 196.443 514.951 196.277 514.756 196.111C514.561 195.945 514.424 195.799 514.326 195.682L514.189 195.496ZM533.184 192.723L525.381 192.703C525.43 193.572 525.781 194.324 526.445 194.949C527.109 195.584 527.881 195.896 528.779 195.896C529.375 195.896 529.932 195.77 530.449 195.496C530.957 195.232 531.328 194.969 531.543 194.695L531.885 194.305L532.783 195.203C532.744 195.262 532.686 195.33 532.607 195.428C532.529 195.525 532.373 195.682 532.119 195.906C531.865 196.131 531.602 196.326 531.309 196.502C531.016 196.678 530.645 196.834 530.186 196.98C529.727 197.127 529.258 197.195 528.779 197.195C527.471 197.195 526.338 196.717 525.4 195.74C524.453 194.764 523.984 193.582 523.984 192.195C523.984 190.809 524.443 189.637 525.381 188.66C526.318 187.684 527.412 187.195 528.682 187.195C529.99 187.195 531.084 187.654 531.963 188.562C532.842 189.471 533.281 190.613 533.281 192L533.184 192.723ZM528.682 188.504C527.842 188.504 527.109 188.807 526.484 189.393C525.859 189.988 525.488 190.691 525.381 191.502H531.885C531.777 190.643 531.426 189.92 530.83 189.354C530.234 188.787 529.521 188.504 528.682 188.504ZM542.676 197V192.801H537.178V197H535.781V187.4H537.178V191.502H542.676V187.4H544.082V197H542.676ZM554.482 187.4H555.684V197H554.277V189.803L548.477 197H547.285V187.4H548.682V194.598L554.482 187.4ZM567.383 192.723L559.58 192.703C559.629 193.572 559.98 194.324 560.645 194.949C561.309 195.584 562.08 195.896 562.979 195.896C563.574 195.896 564.131 195.77 564.648 195.496C565.156 195.232 565.527 194.969 565.742 194.695L566.084 194.305L566.982 195.203C566.943 195.262 566.885 195.33 566.807 195.428C566.729 195.525 566.572 195.682 566.318 195.906C566.064 196.131 565.801 196.326 565.508 196.502C565.215 196.678 564.844 196.834 564.385 196.98C563.926 197.127 563.457 197.195 562.979 197.195C561.67 197.195 560.537 196.717 559.6 195.74C558.652 194.764 558.184 193.582 558.184 192.195C558.184 190.809 558.643 189.637 559.58 188.66C560.518 187.684 561.611 187.195 562.881 187.195C564.189 187.195 565.283 187.654 566.162 188.562C567.041 189.471 567.48 190.613 567.48 192L567.383 192.723ZM562.881 188.504C562.041 188.504 561.309 188.807 560.684 189.393C560.059 189.988 559.688 190.691 559.58 191.502H566.084C565.977 190.643 565.625 189.92 565.029 189.354C564.434 188.787 563.721 188.504 562.881 188.504ZM576.074 190.398V191.697H569.375V190.398H576.074ZM577.773 192.195C577.773 190.809 578.242 189.637 579.189 188.66C580.137 187.684 581.26 187.195 582.559 187.195C583.311 187.195 584.014 187.361 584.658 187.684C585.303 188.006 585.771 188.328 586.045 188.641L586.465 189.1L585.459 190.096C585.439 190.057 585.4 190.008 585.342 189.93C585.293 189.861 585.176 189.734 585 189.539C584.824 189.354 584.629 189.188 584.424 189.051C584.209 188.914 583.945 188.787 583.613 188.67C583.281 188.562 582.93 188.504 582.568 188.504C581.65 188.504 580.85 188.865 580.176 189.578C579.502 190.291 579.17 191.17 579.17 192.205C579.17 193.24 579.502 194.119 580.176 194.832C580.85 195.545 581.65 195.896 582.568 195.896C583.125 195.896 583.652 195.77 584.16 195.496C584.658 195.232 585.02 194.969 585.244 194.695L585.566 194.305L586.562 195.203C586.523 195.262 586.465 195.33 586.387 195.428C586.309 195.525 586.133 195.682 585.869 195.906C585.615 196.131 585.342 196.326 585.049 196.502C584.766 196.678 584.395 196.834 583.945 196.98C583.496 197.127 583.037 197.195 582.568 197.195C581.26 197.195 580.127 196.717 579.189 195.74C578.242 194.764 577.773 193.582 577.773 192.195ZM601.865 192.195C601.865 193.582 601.387 194.764 600.439 195.74C599.492 196.717 598.369 197.195 597.061 197.195C595.84 197.195 594.775 196.775 593.857 195.916C592.939 195.066 592.412 194.031 592.256 192.801H590.156V197H588.76V187.4H590.156V191.502H592.256C592.422 190.33 592.959 189.324 593.867 188.475C594.766 187.625 595.84 187.195 597.07 187.195C598.379 187.195 599.502 187.684 600.449 188.66C601.387 189.637 601.865 190.809 601.865 192.195ZM593.652 192.205C593.652 193.24 593.994 194.119 594.668 194.832C595.342 195.545 596.143 195.896 597.061 195.896C597.979 195.896 598.779 195.545 599.453 194.832C600.127 194.119 600.459 193.24 600.459 192.205C600.459 191.17 600.127 190.291 599.453 189.578C598.779 188.865 597.979 188.504 597.061 188.504C596.143 188.504 595.342 188.865 594.668 189.578C593.994 190.291 593.652 191.17 593.652 192.205ZM605.771 192.205C605.771 193.191 606.113 194.051 606.816 194.793C607.52 195.535 608.301 195.896 609.17 195.896C609.99 195.896 610.732 195.545 611.387 194.822C612.041 194.1 612.373 193.23 612.373 192.205C612.373 191.18 612.041 190.311 611.387 189.588C610.732 188.865 609.99 188.504 609.17 188.504C608.301 188.504 607.52 188.875 606.816 189.617C606.113 190.359 605.771 191.219 605.771 192.205ZM605.771 195.496V201.209H604.375V187.41H605.771V188.914C605.791 188.875 605.84 188.807 605.908 188.729C605.977 188.65 606.113 188.514 606.328 188.318C606.543 188.123 606.768 187.947 607.021 187.791C607.266 187.635 607.578 187.498 607.969 187.381C608.359 187.264 608.76 187.205 609.17 187.205C610.391 187.205 611.465 187.693 612.383 188.68C613.301 189.656 613.77 190.838 613.77 192.205C613.77 193.572 613.311 194.754 612.393 195.73C611.475 196.707 610.4 197.195 609.17 197.195C608.76 197.195 608.359 197.137 607.979 197.02C607.598 196.902 607.275 196.766 607.021 196.6C606.758 196.443 606.533 196.277 606.338 196.111C606.143 195.945 606.006 195.799 605.908 195.682L605.771 195.496ZM623.164 197V188.719H617.666V197H616.27V187.4H624.57V197H623.164ZM629.17 192.205C629.17 193.191 629.512 194.051 630.215 194.793C630.918 195.535 631.699 195.896 632.568 195.896C633.389 195.896 634.131 195.545 634.785 194.822C635.439 194.1 635.771 193.23 635.771 192.205C635.771 191.18 635.439 190.311 634.785 189.588C634.131 188.865 633.389 188.504 632.568 188.504C631.699 188.504 630.918 188.875 630.215 189.617C629.512 190.359 629.17 191.219 629.17 192.205ZM629.17 195.496V201.209H627.773V187.41H629.17V188.914C629.189 188.875 629.238 188.807 629.307 188.729C629.375 188.65 629.512 188.514 629.727 188.318C629.941 188.123 630.166 187.947 630.42 187.791C630.664 187.635 630.977 187.498 631.367 187.381C631.758 187.264 632.158 187.205 632.568 187.205C633.789 187.205 634.863 187.693 635.781 188.68C636.699 189.656 637.168 190.838 637.168 192.205C637.168 193.572 636.709 194.754 635.791 195.73C634.873 196.707 633.799 197.195 632.568 197.195C632.158 197.195 631.758 197.137 631.377 197.02C630.996 196.902 630.674 196.766 630.42 196.6C630.156 196.443 629.932 196.277 629.736 196.111C629.541 195.945 629.404 195.799 629.307 195.682L629.17 195.496ZM646.865 187.4H648.066V197H646.66V189.803L640.859 197H639.668V187.4H641.064V194.598L646.865 187.4ZM657.07 189.9C657.07 190.223 657.012 190.516 656.914 190.779C656.816 191.033 656.689 191.238 656.543 191.385C656.396 191.531 656.25 191.658 656.094 191.756C655.938 191.854 655.82 191.932 655.723 191.971L655.566 192.01C655.615 192.02 655.684 192.039 655.771 192.059C655.859 192.078 656.006 192.137 656.221 192.244C656.436 192.352 656.621 192.479 656.787 192.635C656.953 192.791 657.109 193.016 657.246 193.309C657.383 193.602 657.461 193.934 657.461 194.314C657.461 195.125 657.139 195.809 656.504 196.365C655.859 196.922 654.951 197.205 653.77 197.205C653.311 197.205 652.881 197.146 652.471 197.029C652.061 196.912 651.729 196.766 651.455 196.609C651.182 196.443 650.938 196.277 650.742 196.111C650.547 195.945 650.4 195.809 650.303 195.691L650.166 195.506L651.064 194.607C651.143 194.695 651.25 194.812 651.387 194.959C651.523 195.115 651.836 195.311 652.305 195.545C652.773 195.779 653.262 195.896 653.77 195.896C654.531 195.896 655.098 195.75 655.488 195.457C655.869 195.164 656.064 194.783 656.064 194.305C656.064 193.826 655.869 193.436 655.479 193.143C655.088 192.85 654.521 192.703 653.77 192.703H652.666V191.404H653.77C654.336 191.404 654.795 191.258 655.146 190.965C655.488 190.672 655.664 190.311 655.664 189.9C655.664 189.49 655.498 189.148 655.186 188.895C654.863 188.641 654.395 188.514 653.77 188.514C653.32 188.514 652.9 188.602 652.5 188.777C652.1 188.953 651.816 189.139 651.65 189.324L651.367 189.598L650.361 188.602C650.449 188.504 650.586 188.367 650.762 188.211C650.938 188.055 651.318 187.85 651.904 187.586C652.49 187.332 653.105 187.195 653.77 187.195C654.746 187.195 655.537 187.469 656.152 187.996C656.758 188.533 657.07 189.168 657.07 189.9ZM659.678 196.199C659.678 195.906 659.766 195.672 659.941 195.486C660.117 195.301 660.361 195.203 660.664 195.203C660.977 195.203 661.221 195.301 661.396 195.486C661.572 195.672 661.66 195.906 661.66 196.199C661.66 196.492 661.572 196.736 661.396 196.922C661.221 197.107 660.977 197.195 660.664 197.195C660.361 197.195 660.117 197.107 659.941 196.922C659.766 196.736 659.678 196.492 659.678 196.199Z" fill="#1D1717"/>
<g clip-path="url(#clip1_1_1559)">
<path d="M-18.3701 67.3422C1.24759 35.239 44.0368 16.4174 75.7378 33.3213C91.0907 41.4892 90.5221 79.3454 88.3187 89.4309C98.4829 69.3309 141.343 41.063 161.387 57.4697C174.11 67.9104 169.348 87.7973 162.667 102.855C175.461 83.1807 242.203 54.1316 262.461 77.0726C281.297 98.451 255.14 132.614 237.797 155.2C219.956 178.283 140.846 243.555 108.007 224.591C98.554 219.122 90.3089 200.443 102.605 182.828C89.8824 197.744 61.1667 219.903 34.2991 206.124C12.6201 195.045 16.2451 174.732 25.5564 160.882C13.4731 181.053 -8.84555 206.48 -30.7377 196.536C-67.5563 179.774 -44.8823 110.809 -18.3701 67.3422Z" fill="#FAFAFA"/>
</g>
<defs>
<clipPath id="clip0_1_1559">
<rect width="60" height="60" fill="white" transform="translate(355 70)"/>
</clipPath>
<clipPath id="clip1_1_1559">
<rect width="319" height="201" fill="white" transform="translate(-50 27)"/>
</clipPath>
</defs>
</svg>
