<svg width="853" height="566" viewBox="0 0 853 566" fill="none" xmlns="http://www.w3.org/2000/svg">
<g clip-path="url(#clip0_1_1512)">
<path d="M26.4984 66.9655C53.0996 57.4719 88.8946 58.2254 102.459 83.0143C110.748 98.1588 107.433 116.769 103.891 133.647C96.2042 170.34 88.5178 207.034 80.8313 243.728C86.5584 228.282 93.6421 212.61 106.302 202.061C118.962 191.513 138.405 187.519 151.969 196.862C165.458 206.281 166.362 230.693 151.441 237.7C172.089 190.383 193.039 142.613 224.011 101.323C251.701 64.4093 312.012 24.5359 366.508 46.5C454.591 82.2546 404.087 209.822 366.508 258.559C396.008 238.059 429.508 219.742 437.123 216.377C453.008 209.356 482.789 200.554 502.834 211.329C522.88 222.103 527.703 257.215 506.602 265.729C533.716 240.378 600.661 206.028 636.971 234.234C662.97 254.351 645.562 295.792 625.291 321.786C576.76 384.097 548 398.981 486.508 448.559C413.508 500.559 321.508 521.059 245.508 500.559C195.008 486.937 164.951 458.735 180.008 413.059C147.003 463.639 40.1497 531.606 -27.492 470.971C-60.2564 441.737 -54.8609 392.579 -42.6801 360.363C-97.9173 415.215 -162.725 473.985 -240.569 470.971C-255.566 470.369 -271.24 467.053 -282.318 456.957C-303.87 437.292 -298.972 402.859 -292.416 374.453C-286.161 347.63 -193.245 144.045 -136.35 97.4807C-124.217 87.6104 -108.317 77.8907 -93.9233 83.9938C-85.6339 87.535 -80.2082 95.5971 -76.3649 103.734C-64.3077 129.277 -63.6295 160.018 -74.5564 186.088C-74.5564 186.163 -19.6206 83.4663 26.4984 66.9655Z" fill="#FAFAFA"/>
<path d="M201.701 291.996V306H198.703V294.701H192.805V306H189.797V291.996H201.701ZM210.305 306.195C209.738 306.195 209.221 306.088 208.732 305.854C208.244 305.619 207.902 305.395 207.707 305.16L207.404 304.799V310.199H204.709V296.195H207.404V297.396C207.424 297.357 207.463 297.309 207.521 297.25C207.58 297.191 207.697 297.084 207.873 296.928C208.049 296.771 208.244 296.625 208.459 296.498C208.664 296.371 208.938 296.254 209.27 296.156C209.602 296.059 209.943 296 210.305 296C211.574 296 212.668 296.498 213.605 297.484C214.543 298.471 215.012 299.672 215.012 301.098C215.012 302.523 214.543 303.734 213.605 304.721C212.668 305.707 211.574 306.195 210.305 306.195ZM209.807 298.402C209.143 298.402 208.576 298.656 208.107 299.164C207.639 299.672 207.404 300.316 207.404 301.107C207.404 301.889 207.639 302.543 208.107 303.051C208.576 303.559 209.143 303.812 209.807 303.812C210.471 303.812 211.037 303.559 211.506 303.051C211.975 302.543 212.209 301.889 212.209 301.107C212.209 300.316 211.975 299.672 211.506 299.164C211.037 298.656 210.471 298.402 209.807 298.402ZM223.957 296.195H226.311V306H223.615V300.502L219.348 306H217.014V296.195H219.709V301.703L223.957 296.195ZM238.811 301.303C238.811 302.68 238.342 303.842 237.424 304.779C236.506 305.727 235.334 306.195 233.908 306.195C232.307 306.195 231.018 305.639 230.051 304.525C229.084 303.412 228.605 301.84 228.605 299.799C228.605 297.523 229.035 295.805 229.904 294.633C230.764 293.471 232.004 292.729 233.605 292.396C234.309 292.25 234.963 292.084 235.549 291.908C236.135 291.732 236.535 291.596 236.77 291.479L237.111 291.303L238.303 293.305C238.244 293.363 238.156 293.432 238.02 293.51C237.883 293.598 237.482 293.764 236.818 294.008C236.154 294.262 235.344 294.486 234.406 294.701C233.547 294.896 232.854 295.258 232.326 295.795C231.789 296.332 231.447 296.996 231.311 297.797C231.33 297.758 231.379 297.709 231.438 297.65C231.496 297.592 231.613 297.484 231.809 297.328C231.994 297.172 232.189 297.025 232.404 296.898C232.619 296.771 232.883 296.654 233.215 296.557C233.537 296.459 233.869 296.4 234.211 296.4C235.422 296.4 236.486 296.889 237.414 297.855C238.342 298.822 238.811 299.975 238.811 301.303ZM231.604 301.303C231.604 302.035 231.818 302.631 232.268 303.1C232.707 303.568 233.254 303.803 233.908 303.803C234.514 303.803 235.031 303.568 235.461 303.1C235.891 302.631 236.105 302.035 236.105 301.303C236.105 300.57 235.891 299.975 235.461 299.506C235.031 299.037 234.514 298.803 233.908 298.803C233.254 298.803 232.707 299.037 232.268 299.506C231.818 299.975 231.604 300.57 231.604 301.303ZM242.014 296.195L249.914 296.205V306.01H247.219V298.607H244.621V299.213C244.621 301.039 244.465 302.494 244.152 303.568C243.84 304.643 243.449 305.375 242.961 305.746C242.473 306.117 241.857 306.303 241.115 306.303C240.871 306.303 240.637 306.283 240.402 306.225C240.168 306.166 240.002 306.117 239.895 306.078L239.719 306V303.598C239.914 303.666 240.119 303.695 240.314 303.695C240.705 303.695 241.018 303.598 241.252 303.393C241.477 303.188 241.662 302.729 241.799 302.016C241.936 301.303 242.014 300.268 242.014 298.9V296.195ZM259.465 296.195H261.818V306H259.123V300.502L254.855 306H252.521V296.195H255.217V301.703L259.465 296.195ZM269.611 306V303.197L268.713 302.201L266.115 306H263.117L267.014 300.404L263.312 296.195H266.418L269.611 299.896V296.195H272.316V299.896L275.52 296.195H278.615L274.914 300.404L278.811 306H275.812L273.215 302.201L272.316 303.197V306H269.611ZM285.52 306L285.51 305.004C285.432 305.102 285.324 305.209 285.188 305.346C285.051 305.482 284.738 305.658 284.27 305.873C283.801 306.088 283.312 306.195 282.805 306.195C281.828 306.195 281.037 305.932 280.422 305.385C279.816 304.838 279.504 304.184 279.504 303.402C279.504 302.602 279.768 301.938 280.275 301.4C280.793 300.873 281.506 300.521 282.404 300.355L285.51 299.799C285.51 299.389 285.363 299.057 285.061 298.793C284.768 298.539 284.348 298.402 283.811 298.402C283.371 298.402 282.971 298.49 282.6 298.656C282.238 298.822 281.984 298.988 281.828 299.164L281.604 299.398L280.109 297.904C280.148 297.855 280.207 297.787 280.275 297.699C280.344 297.611 280.5 297.455 280.734 297.24C280.969 297.025 281.232 296.84 281.506 296.674C281.789 296.508 282.16 296.352 282.609 296.215C283.068 296.078 283.537 296 284.016 296C285.246 296 286.262 296.371 287.043 297.113C287.824 297.855 288.215 298.783 288.215 299.896V306H285.52ZM283.508 303.998C284.123 303.998 284.611 303.812 284.973 303.422C285.334 303.031 285.51 302.494 285.51 301.801V301.498L283.312 301.898C282.58 302.016 282.209 302.387 282.209 303.002C282.209 303.666 282.648 303.998 283.508 303.998ZM295.422 293.1C295.764 293.1 296.047 292.992 296.281 292.758C296.506 292.533 296.623 292.25 296.623 291.908H298.625C298.625 292.758 298.322 293.471 297.717 294.047C297.111 294.613 296.35 294.906 295.422 294.906C294.484 294.906 293.723 294.613 293.117 294.047C292.512 293.471 292.219 292.758 292.219 291.908H294.221C294.221 292.25 294.328 292.533 294.562 292.758C294.787 292.992 295.07 293.1 295.422 293.1ZM297.766 296.195H300.119V306H297.424V300.502L293.156 306H290.822V296.195H293.518V301.703L297.766 296.195ZM301.711 298.803V296.195H310.617V298.803H307.512V306H304.816V298.803H301.711ZM321.506 301.996H314.406C314.504 302.533 314.787 302.982 315.256 303.354C315.715 303.725 316.301 303.9 317.004 303.9C317.512 303.9 317.98 303.803 318.41 303.607C318.84 303.412 319.152 303.207 319.328 303.002L319.611 302.699L321.008 304.496L320.822 304.682C320.744 304.76 320.568 304.896 320.305 305.092C320.031 305.287 319.748 305.463 319.455 305.619C319.152 305.775 318.762 305.902 318.283 306.02C317.805 306.137 317.316 306.195 316.809 306.195C315.363 306.195 314.143 305.697 313.127 304.701C312.111 303.705 311.604 302.504 311.604 301.098C311.604 299.701 312.102 298.5 313.107 297.504C314.104 296.508 315.305 296 316.711 296C318.107 296 319.27 296.469 320.207 297.406C321.135 298.344 321.604 299.506 321.604 300.902L321.506 301.996ZM316.711 298.305C316.135 298.305 315.646 298.471 315.246 298.803C314.846 299.135 314.562 299.574 314.406 300.102H318.908C318.801 299.584 318.547 299.154 318.156 298.812C317.766 298.48 317.277 298.305 316.711 298.305ZM329.914 301.107C329.914 301.84 330.148 302.455 330.627 302.953C331.096 303.451 331.662 303.695 332.316 303.695C332.961 303.695 333.527 303.451 334.006 302.953C334.475 302.455 334.719 301.84 334.719 301.107C334.719 300.375 334.475 299.76 334.006 299.252C333.527 298.754 332.961 298.5 332.316 298.5C331.662 298.5 331.096 298.754 330.627 299.252C330.148 299.76 329.914 300.375 329.914 301.107ZM337.512 301.098C337.512 302.465 336.994 303.656 335.959 304.672C334.924 305.688 333.713 306.195 332.316 306.195C330.91 306.195 329.699 305.688 328.664 304.672C327.629 303.656 327.111 302.465 327.111 301.098C327.111 299.74 327.629 298.549 328.664 297.533C329.699 296.518 330.91 296.01 332.316 296.01C333.713 296.01 334.924 296.518 335.959 297.533C336.994 298.549 337.512 299.74 337.512 301.098ZM348.811 296.195L345.109 300.404L349.016 306H346.008L343.41 302.201L342.209 303.598V306H339.514V296.195H342.209V300.199L345.715 296.195H348.811ZM353.01 302.299V306H350.314V296.195H353.01V299.896H356.809V296.195H359.514V306H356.809V302.299H353.01ZM367.512 306L367.502 305.004C367.424 305.102 367.316 305.209 367.18 305.346C367.043 305.482 366.73 305.658 366.262 305.873C365.793 306.088 365.305 306.195 364.797 306.195C363.82 306.195 363.029 305.932 362.414 305.385C361.809 304.838 361.496 304.184 361.496 303.402C361.496 302.602 361.76 301.938 362.268 301.4C362.785 300.873 363.498 300.521 364.396 300.355L367.502 299.799C367.502 299.389 367.355 299.057 367.053 298.793C366.76 298.539 366.34 298.402 365.803 298.402C365.363 298.402 364.963 298.49 364.592 298.656C364.23 298.822 363.977 298.988 363.82 299.164L363.596 299.398L362.102 297.904C362.141 297.855 362.199 297.787 362.268 297.699C362.336 297.611 362.492 297.455 362.727 297.24C362.961 297.025 363.225 296.84 363.498 296.674C363.781 296.508 364.152 296.352 364.602 296.215C365.061 296.078 365.529 296 366.008 296C367.238 296 368.254 296.371 369.035 297.113C369.816 297.855 370.207 298.783 370.207 299.896V306H367.512ZM365.5 303.998C366.115 303.998 366.604 303.812 366.965 303.422C367.326 303.031 367.502 302.494 367.502 301.801V301.498L365.305 301.898C364.572 302.016 364.201 302.387 364.201 303.002C364.201 303.666 364.641 303.998 365.5 303.998ZM383.859 296.195H386.213V306H383.518V300.502L379.25 306H376.916V296.195H379.611V301.703L383.859 296.195ZM392.307 301.098C392.307 299.74 392.824 298.549 393.869 297.533C394.924 296.518 396.164 296 397.6 296C398.107 296 398.596 296.078 399.055 296.215C399.514 296.352 399.885 296.518 400.178 296.713C400.471 296.908 400.734 297.094 400.959 297.289C401.193 297.484 401.359 297.66 401.457 297.797L401.604 298.002L399.904 299.701C399.855 299.613 399.768 299.496 399.65 299.34C399.533 299.193 399.27 298.998 398.869 298.764C398.469 298.529 398.049 298.402 397.6 298.402C396.896 298.402 396.281 298.666 395.773 299.193C395.266 299.721 395.002 300.365 395.002 301.107C395.002 301.85 395.266 302.484 395.773 303.012C396.291 303.539 396.896 303.803 397.6 303.803C398.049 303.803 398.469 303.695 398.869 303.48C399.27 303.266 399.562 303.051 399.738 302.836L400.002 302.504L401.604 304.203C401.564 304.262 401.516 304.33 401.447 304.428C401.379 304.525 401.223 304.682 400.969 304.906C400.725 305.131 400.461 305.326 400.168 305.502C399.885 305.678 399.514 305.834 399.055 305.98C398.596 306.127 398.107 306.195 397.6 306.195C396.164 306.195 394.924 305.688 393.879 304.672C392.824 303.656 392.307 302.465 392.307 301.098ZM408.723 303.598L406.115 300.199V306H403.42V296.195H405.715L408.723 300.102L411.721 296.195H414.016V306H411.32V300.199L408.723 303.598ZM425.92 301.996H418.82C418.918 302.533 419.201 302.982 419.67 303.354C420.129 303.725 420.715 303.9 421.418 303.9C421.926 303.9 422.395 303.803 422.824 303.607C423.254 303.412 423.566 303.207 423.742 303.002L424.025 302.699L425.422 304.496L425.236 304.682C425.158 304.76 424.982 304.896 424.719 305.092C424.445 305.287 424.162 305.463 423.869 305.619C423.566 305.775 423.176 305.902 422.697 306.02C422.219 306.137 421.73 306.195 421.223 306.195C419.777 306.195 418.557 305.697 417.541 304.701C416.525 303.705 416.018 302.504 416.018 301.098C416.018 299.701 416.516 298.5 417.521 297.504C418.518 296.508 419.719 296 421.125 296C422.521 296 423.684 296.469 424.621 297.406C425.549 298.344 426.018 299.506 426.018 300.902L425.92 301.996ZM421.125 298.305C420.549 298.305 420.061 298.471 419.66 298.803C419.26 299.135 418.977 299.574 418.82 300.102H423.322C423.215 299.584 422.961 299.154 422.57 298.812C422.18 298.48 421.691 298.305 421.125 298.305ZM429.025 296.195L436.926 296.205V306.01H434.23V298.607H431.633V299.213C431.633 301.039 431.477 302.494 431.164 303.568C430.852 304.643 430.461 305.375 429.973 305.746C429.484 306.117 428.869 306.303 428.127 306.303C427.883 306.303 427.648 306.283 427.414 306.225C427.18 306.166 427.014 306.117 426.906 306.078L426.73 306V303.598C426.926 303.666 427.131 303.695 427.326 303.695C427.717 303.695 428.029 303.598 428.264 303.393C428.488 303.188 428.674 302.729 428.811 302.016C428.947 301.303 429.025 300.268 429.025 298.9V296.195ZM441.73 301.107C441.73 301.84 441.965 302.455 442.443 302.953C442.912 303.451 443.479 303.695 444.133 303.695C444.777 303.695 445.344 303.451 445.822 302.953C446.291 302.455 446.535 301.84 446.535 301.107C446.535 300.375 446.291 299.76 445.822 299.252C445.344 298.754 444.777 298.5 444.133 298.5C443.479 298.5 442.912 298.754 442.443 299.252C441.965 299.76 441.73 300.375 441.73 301.107ZM449.328 301.098C449.328 302.465 448.811 303.656 447.775 304.672C446.74 305.688 445.529 306.195 444.133 306.195C442.727 306.195 441.516 305.688 440.48 304.672C439.445 303.656 438.928 302.465 438.928 301.098C438.928 299.74 439.445 298.549 440.48 297.533C441.516 296.518 442.727 296.01 444.133 296.01C445.529 296.01 446.74 296.518 447.775 297.533C448.811 298.549 449.328 299.74 449.328 301.098ZM191.896 330.598V338H189.201V328.195H198.4V338H195.695V330.598H191.896ZM203.195 333.107C203.195 333.84 203.43 334.455 203.908 334.953C204.377 335.451 204.943 335.695 205.598 335.695C206.242 335.695 206.809 335.451 207.287 334.953C207.756 334.455 208 333.84 208 333.107C208 332.375 207.756 331.76 207.287 331.252C206.809 330.754 206.242 330.5 205.598 330.5C204.943 330.5 204.377 330.754 203.908 331.252C203.43 331.76 203.195 332.375 203.195 333.107ZM210.793 333.098C210.793 334.465 210.275 335.656 209.24 336.672C208.205 337.688 206.994 338.195 205.598 338.195C204.191 338.195 202.98 337.688 201.945 336.672C200.91 335.656 200.393 334.465 200.393 333.098C200.393 331.74 200.91 330.549 201.945 329.533C202.98 328.518 204.191 328.01 205.598 328.01C206.994 328.01 208.205 328.518 209.24 329.533C210.275 330.549 210.793 331.74 210.793 333.098ZM211.496 335.598L212.092 335.607C212.131 335.568 212.18 335.51 212.258 335.441C212.336 335.363 212.463 335.188 212.648 334.914C212.834 334.631 213 334.318 213.137 333.986C213.273 333.654 213.4 333.205 213.518 332.658C213.635 332.102 213.693 331.516 213.693 330.9V328.195H221.193V335.598H222.492V340.305H219.797V338H214.191V340.305H211.496V335.598ZM216.193 330.607V331.213C216.193 331.984 216.086 332.736 215.871 333.469C215.656 334.201 215.451 334.738 215.236 335.09L214.895 335.607H218.498V330.607H216.193ZM231.398 328.195V330.695H226.994V338H224.299V328.195H231.398ZM233.889 328.195L241.789 328.205V338.01H239.094V330.607H236.496V331.213C236.496 333.039 236.34 334.494 236.027 335.568C235.715 336.643 235.324 337.375 234.836 337.746C234.348 338.117 233.732 338.303 232.99 338.303C232.746 338.303 232.512 338.283 232.277 338.225C232.043 338.166 231.877 338.117 231.77 338.078L231.594 338V335.598C231.789 335.666 231.994 335.695 232.189 335.695C232.58 335.695 232.893 335.598 233.127 335.393C233.352 335.188 233.537 334.729 233.674 334.016C233.811 333.303 233.889 332.268 233.889 330.9V328.195ZM247.795 328.195H252.482V338H249.787V335.1H248.381L246.584 338H243.684L245.783 334.699C245.734 334.68 245.666 334.641 245.588 334.602C245.51 334.562 245.363 334.455 245.158 334.279C244.953 334.104 244.768 333.918 244.611 333.713C244.455 333.508 244.309 333.225 244.182 332.863C244.055 332.502 243.996 332.111 243.996 331.701C243.996 330.744 244.357 329.924 245.08 329.23C245.803 328.547 246.711 328.195 247.795 328.195ZM249.787 330.5H247.99C247.6 330.5 247.277 330.617 247.043 330.832C246.809 331.057 246.682 331.35 246.682 331.701C246.682 332.062 246.799 332.355 247.033 332.57C247.268 332.795 247.59 332.902 247.99 332.902H249.787V330.5ZM253.801 335.598L254.396 335.607C254.436 335.568 254.484 335.51 254.562 335.441C254.641 335.363 254.768 335.188 254.953 334.914C255.139 334.631 255.305 334.318 255.441 333.986C255.578 333.654 255.705 333.205 255.822 332.658C255.939 332.102 255.998 331.516 255.998 330.9V328.195H263.498V335.598H264.797V340.305H262.102V338H256.496V340.305H253.801V335.598ZM258.498 330.607V331.213C258.498 331.984 258.391 332.736 258.176 333.469C257.961 334.201 257.756 334.738 257.541 335.09L257.199 335.607H260.803V330.607H258.498ZM278.703 328.195V338H275.998V328.195H278.703ZM269.299 335.803H270.9C271.242 335.803 271.525 335.695 271.75 335.461C271.984 335.236 272.092 334.953 272.092 334.602C272.092 334.26 271.984 333.977 271.75 333.742C271.525 333.518 271.242 333.4 270.9 333.4H269.299V335.803ZM274.807 334.602C274.807 335.617 274.465 336.438 273.791 337.062C273.117 337.688 272.189 338 270.998 338H266.604V328.195H269.299V331.203H270.998C272.18 331.203 273.107 331.516 273.791 332.141C274.465 332.766 274.807 333.586 274.807 334.602ZM281.311 328.195H286.213C287.189 328.195 287.98 328.469 288.596 328.996C289.201 329.533 289.514 330.168 289.514 330.9C289.514 331.35 289.406 331.73 289.211 332.062C289.006 332.395 288.801 332.619 288.605 332.717L288.312 332.902C288.352 332.922 288.4 332.941 288.479 332.961C288.547 332.99 288.674 333.068 288.869 333.186C289.055 333.303 289.221 333.439 289.357 333.596C289.494 333.752 289.621 333.957 289.738 334.221C289.855 334.494 289.914 334.787 289.914 335.1C289.914 335.93 289.592 336.623 288.957 337.17C288.322 337.727 287.473 338 286.408 338H281.311V328.195ZM286.213 333.801H284.006V335.803H286.213C286.516 335.803 286.76 335.715 286.936 335.52C287.111 335.334 287.209 335.09 287.209 334.797C287.209 334.504 287.111 334.27 286.936 334.084C286.76 333.898 286.516 333.801 286.213 333.801ZM286.809 331.203C286.809 330.676 286.535 330.402 286.008 330.402H284.006V332.004H286.008C286.535 332.004 286.809 331.74 286.809 331.203ZM297.316 338L297.307 337.004C297.229 337.102 297.121 337.209 296.984 337.346C296.848 337.482 296.535 337.658 296.066 337.873C295.598 338.088 295.109 338.195 294.602 338.195C293.625 338.195 292.834 337.932 292.219 337.385C291.613 336.838 291.301 336.184 291.301 335.402C291.301 334.602 291.564 333.938 292.072 333.4C292.59 332.873 293.303 332.521 294.201 332.355L297.307 331.799C297.307 331.389 297.16 331.057 296.857 330.793C296.564 330.539 296.145 330.402 295.607 330.402C295.168 330.402 294.768 330.49 294.396 330.656C294.035 330.822 293.781 330.988 293.625 331.164L293.4 331.398L291.906 329.904C291.945 329.855 292.004 329.787 292.072 329.699C292.141 329.611 292.297 329.455 292.531 329.24C292.766 329.025 293.029 328.84 293.303 328.674C293.586 328.508 293.957 328.352 294.406 328.215C294.865 328.078 295.334 328 295.812 328C297.043 328 298.059 328.371 298.84 329.113C299.621 329.855 300.012 330.783 300.012 331.896V338H297.316ZM295.305 335.998C295.92 335.998 296.408 335.812 296.77 335.422C297.131 335.031 297.307 334.494 297.307 333.801V333.498L295.109 333.898C294.377 334.016 294.006 334.387 294.006 335.002C294.006 335.666 294.445 335.998 295.305 335.998ZM307.219 325.1C307.561 325.1 307.844 324.992 308.078 324.758C308.303 324.533 308.42 324.25 308.42 323.908H310.422C310.422 324.758 310.119 325.471 309.514 326.047C308.908 326.613 308.146 326.906 307.219 326.906C306.281 326.906 305.52 326.613 304.914 326.047C304.309 325.471 304.016 324.758 304.016 323.908H306.018C306.018 324.25 306.125 324.533 306.359 324.758C306.584 324.992 306.867 325.1 307.219 325.1ZM309.562 328.195H311.916V338H309.221V332.502L304.953 338H302.619V328.195H305.314V333.703L309.562 328.195ZM313.508 330.803V328.195H322.414V330.803H319.309V338H316.613V330.803H313.508ZM333.303 333.996H326.203C326.301 334.533 326.584 334.982 327.053 335.354C327.512 335.725 328.098 335.9 328.801 335.9C329.309 335.9 329.777 335.803 330.207 335.607C330.637 335.412 330.949 335.207 331.125 335.002L331.408 334.699L332.805 336.496L332.619 336.682C332.541 336.76 332.365 336.896 332.102 337.092C331.828 337.287 331.545 337.463 331.252 337.619C330.949 337.775 330.559 337.902 330.08 338.02C329.602 338.137 329.113 338.195 328.605 338.195C327.16 338.195 325.939 337.697 324.924 336.701C323.908 335.705 323.4 334.504 323.4 333.098C323.4 331.701 323.898 330.5 324.904 329.504C325.9 328.508 327.102 328 328.508 328C329.904 328 331.066 328.469 332.004 329.406C332.932 330.344 333.4 331.506 333.4 332.902L333.303 333.996ZM328.508 330.305C327.932 330.305 327.443 330.471 327.043 330.803C326.643 331.135 326.359 331.574 326.203 332.102H330.705C330.598 331.584 330.344 331.154 329.953 330.812C329.562 330.48 329.074 330.305 328.508 330.305Z" fill="#4039A3"/>
<path d="M345.324 330.9C345.324 331.223 345.266 331.516 345.168 331.779C345.07 332.033 344.943 332.238 344.797 332.385C344.65 332.531 344.504 332.658 344.348 332.756C344.191 332.854 344.074 332.932 343.977 332.971L343.82 333.01C343.869 333.02 343.938 333.039 344.025 333.059C344.113 333.078 344.26 333.137 344.475 333.244C344.689 333.352 344.875 333.479 345.041 333.635C345.207 333.791 345.363 334.016 345.5 334.309C345.637 334.602 345.715 334.934 345.715 335.314C345.715 336.125 345.393 336.809 344.758 337.365C344.113 337.922 343.205 338.205 342.023 338.205C341.564 338.205 341.135 338.146 340.725 338.029C340.314 337.912 339.982 337.766 339.709 337.609C339.436 337.443 339.191 337.277 338.996 337.111C338.801 336.945 338.654 336.809 338.557 336.691L338.42 336.506L339.318 335.607C339.396 335.695 339.504 335.812 339.641 335.959C339.777 336.115 340.09 336.311 340.559 336.545C341.027 336.779 341.516 336.896 342.023 336.896C342.785 336.896 343.352 336.75 343.742 336.457C344.123 336.164 344.318 335.783 344.318 335.305C344.318 334.826 344.123 334.436 343.732 334.143C343.342 333.85 342.775 333.703 342.023 333.703H340.92V332.404H342.023C342.59 332.404 343.049 332.258 343.4 331.965C343.742 331.672 343.918 331.311 343.918 330.9C343.918 330.49 343.752 330.148 343.439 329.895C343.117 329.641 342.648 329.514 342.023 329.514C341.574 329.514 341.154 329.602 340.754 329.777C340.354 329.953 340.07 330.139 339.904 330.324L339.621 330.598L338.615 329.602C338.703 329.504 338.84 329.367 339.016 329.211C339.191 329.055 339.572 328.85 340.158 328.586C340.744 328.332 341.359 328.195 342.023 328.195C343 328.195 343.791 328.469 344.406 328.996C345.012 329.533 345.324 330.168 345.324 330.9ZM350.432 332.502L354.133 331.896C354.133 331.193 353.908 330.617 353.459 330.168C353.01 329.729 352.434 329.504 351.73 329.504C351.223 329.504 350.744 329.621 350.295 329.855C349.846 330.09 349.523 330.324 349.328 330.559L349.025 330.9L348.127 330.002C348.166 329.953 348.215 329.885 348.283 329.807C348.352 329.729 348.498 329.582 348.732 329.377C348.967 329.172 349.211 328.986 349.465 328.82C349.719 328.664 350.051 328.518 350.461 328.391C350.871 328.264 351.301 328.195 351.73 328.195C352.824 328.195 353.723 328.557 354.445 329.26C355.168 329.973 355.529 330.852 355.529 331.896V338H354.133V336.701C354.104 336.74 354.064 336.799 354.006 336.867C353.947 336.936 353.83 337.053 353.635 337.229C353.439 337.404 353.234 337.551 353.02 337.688C352.795 337.824 352.502 337.941 352.141 338.039C351.779 338.146 351.408 338.195 351.027 338.195C350.07 338.195 349.26 337.912 348.605 337.346C347.951 336.779 347.629 336.135 347.629 335.402C347.629 334.602 347.863 333.957 348.352 333.469C348.83 332.98 349.523 332.658 350.432 332.502ZM351.027 336.896C351.926 336.896 352.668 336.604 353.254 336.008C353.84 335.422 354.133 334.65 354.133 333.703V333.098L350.832 333.703C349.631 333.938 349.025 334.504 349.025 335.402C349.025 335.832 349.201 336.193 349.553 336.477C349.904 336.76 350.402 336.896 351.027 336.896ZM363.928 335.305V338H362.531V328.4H363.928V333.498L368.723 328.4H370.432L366.73 332.297L370.832 338H369.23L365.832 333.303L363.928 335.305ZM379.914 333.205C379.914 332.17 379.562 331.291 378.879 330.578C378.195 329.865 377.365 329.504 376.408 329.504C375.451 329.504 374.621 329.865 373.938 330.578C373.254 331.291 372.912 332.16 372.912 333.195C372.912 334.23 373.254 335.1 373.938 335.822C374.621 336.545 375.451 336.896 376.408 336.896C377.365 336.896 378.195 336.545 378.879 335.832C379.562 335.119 379.914 334.24 379.914 333.205ZM371.516 333.205C371.516 331.799 371.984 330.617 372.941 329.65C373.898 328.684 375.051 328.195 376.418 328.195C377.775 328.195 378.928 328.684 379.875 329.65C380.832 330.617 381.301 331.799 381.301 333.205C381.301 334.611 380.832 335.793 379.875 336.76C378.928 337.717 377.775 338.205 376.418 338.205C375.051 338.205 373.898 337.717 372.941 336.76C371.984 335.793 371.516 334.611 371.516 333.205ZM384.816 328.4L391.818 328.41V338.01H390.412V329.709H386.213V331.213C386.213 332.619 386.135 333.801 385.998 334.738C385.861 335.676 385.646 336.398 385.373 336.887C385.09 337.375 384.777 337.717 384.445 337.912C384.104 338.107 383.693 338.205 383.215 338.205C383.049 338.205 382.883 338.186 382.717 338.156C382.551 338.117 382.434 338.088 382.355 338.049L382.219 338.01V336.613C382.482 336.74 382.746 336.809 383.02 336.809C383.43 336.809 383.752 336.691 383.986 336.457C384.221 336.223 384.416 335.676 384.572 334.836C384.729 333.986 384.816 332.775 384.816 331.203V328.4ZM396.008 328.4L403.01 328.41V338.01H401.604V329.709H397.404V331.213C397.404 332.619 397.326 333.801 397.189 334.738C397.053 335.676 396.838 336.398 396.564 336.887C396.281 337.375 395.969 337.717 395.637 337.912C395.295 338.107 394.885 338.205 394.406 338.205C394.24 338.205 394.074 338.186 393.908 338.156C393.742 338.117 393.625 338.088 393.547 338.049L393.41 338.01V336.613C393.674 336.74 393.938 336.809 394.211 336.809C394.621 336.809 394.943 336.691 395.178 336.457C395.412 336.223 395.607 335.676 395.764 334.836C395.92 333.986 396.008 332.775 396.008 331.203V328.4ZM414.699 333.723L406.896 333.703C406.945 334.572 407.297 335.324 407.961 335.949C408.625 336.584 409.396 336.896 410.295 336.896C410.891 336.896 411.447 336.77 411.965 336.496C412.473 336.232 412.844 335.969 413.059 335.695L413.4 335.305L414.299 336.203C414.26 336.262 414.201 336.33 414.123 336.428C414.045 336.525 413.889 336.682 413.635 336.906C413.381 337.131 413.117 337.326 412.824 337.502C412.531 337.678 412.16 337.834 411.701 337.98C411.242 338.127 410.773 338.195 410.295 338.195C408.986 338.195 407.854 337.717 406.916 336.74C405.969 335.764 405.5 334.582 405.5 333.195C405.5 331.809 405.959 330.637 406.896 329.66C407.834 328.684 408.928 328.195 410.197 328.195C411.506 328.195 412.6 328.654 413.479 329.562C414.357 330.471 414.797 331.613 414.797 333L414.699 333.723ZM410.197 329.504C409.357 329.504 408.625 329.807 408 330.393C407.375 330.988 407.004 331.691 406.896 332.502H413.4C413.293 331.643 412.941 330.92 412.346 330.354C411.75 329.787 411.037 329.504 410.197 329.504ZM423.693 328.4V329.699H418.693V338H417.297V328.4H423.693ZM427.6 332.502L431.301 331.896C431.301 331.193 431.076 330.617 430.627 330.168C430.178 329.729 429.602 329.504 428.898 329.504C428.391 329.504 427.912 329.621 427.463 329.855C427.014 330.09 426.691 330.324 426.496 330.559L426.193 330.9L425.295 330.002C425.334 329.953 425.383 329.885 425.451 329.807C425.52 329.729 425.666 329.582 425.9 329.377C426.135 329.172 426.379 328.986 426.633 328.82C426.887 328.664 427.219 328.518 427.629 328.391C428.039 328.264 428.469 328.195 428.898 328.195C429.992 328.195 430.891 328.557 431.613 329.26C432.336 329.973 432.697 330.852 432.697 331.896V338H431.301V336.701C431.271 336.74 431.232 336.799 431.174 336.867C431.115 336.936 430.998 337.053 430.803 337.229C430.607 337.404 430.402 337.551 430.188 337.688C429.963 337.824 429.67 337.941 429.309 338.039C428.947 338.146 428.576 338.195 428.195 338.195C427.238 338.195 426.428 337.912 425.773 337.346C425.119 336.779 424.797 336.135 424.797 335.402C424.797 334.602 425.031 333.957 425.52 333.469C425.998 332.98 426.691 332.658 427.6 332.502ZM428.195 336.896C429.094 336.896 429.836 336.604 430.422 336.008C431.008 335.422 431.301 334.65 431.301 333.703V333.098L428 333.703C426.799 333.938 426.193 334.504 426.193 335.402C426.193 335.832 426.369 336.193 426.721 336.477C427.072 336.76 427.57 336.896 428.195 336.896ZM444.289 330.9L440.783 335.305L437.287 330.9V338H435.891V328.4H436.984L440.783 333.195L444.582 328.4H445.686V338H444.289V330.9ZM456.096 328.4H457.297V338H455.891V330.803L450.09 338H448.898V328.4H450.295V335.598L456.096 328.4ZM196.701 360.4H197.902V370H196.496V362.803L190.695 370H189.504V360.4H190.9V367.598L196.701 360.4ZM213.811 368.701V372.402H212.414V370H204.709V372.402H203.312V368.701H204.006C204.045 368.662 204.104 368.604 204.182 368.506C204.26 368.408 204.406 368.193 204.602 367.861C204.797 367.529 204.963 367.178 205.119 366.787C205.275 366.396 205.412 365.879 205.529 365.234C205.646 364.59 205.715 363.906 205.715 363.203V360.4H212.307V368.701H213.811ZM207.111 361.699L207.102 363.203C207.102 364.297 206.975 365.303 206.701 366.211C206.438 367.129 206.174 367.773 205.91 368.145L205.51 368.701H210.91V361.699H207.111ZM217.404 365.205C217.404 366.191 217.746 367.051 218.449 367.793C219.152 368.535 219.934 368.896 220.803 368.896C221.623 368.896 222.365 368.545 223.02 367.822C223.674 367.1 224.006 366.23 224.006 365.205C224.006 364.18 223.674 363.311 223.02 362.588C222.365 361.865 221.623 361.504 220.803 361.504C219.934 361.504 219.152 361.875 218.449 362.617C217.746 363.359 217.404 364.219 217.404 365.205ZM217.404 368.496V374.209H216.008V360.41H217.404V361.914C217.424 361.875 217.473 361.807 217.541 361.729C217.609 361.65 217.746 361.514 217.961 361.318C218.176 361.123 218.4 360.947 218.654 360.791C218.898 360.635 219.211 360.498 219.602 360.381C219.992 360.264 220.393 360.205 220.803 360.205C222.023 360.205 223.098 360.693 224.016 361.68C224.934 362.656 225.402 363.838 225.402 365.205C225.402 366.572 224.943 367.754 224.025 368.73C223.107 369.707 222.033 370.195 220.803 370.195C220.393 370.195 219.992 370.137 219.611 370.02C219.23 369.902 218.908 369.766 218.654 369.6C218.391 369.443 218.166 369.277 217.971 369.111C217.775 368.945 217.639 368.799 217.541 368.682L217.404 368.496ZM230.002 371.396L230.5 370L226.594 360.4H228.098L231.203 368.203L234.299 360.4H235.803L231.398 371.396C230.998 372.412 230.568 373.135 230.119 373.564C229.66 373.994 229.084 374.199 228.391 374.199C228.176 374.199 227.971 374.189 227.775 374.15C227.58 374.121 227.424 374.082 227.326 374.043L227.189 374.004V372.695C227.521 372.832 227.854 372.9 228.186 372.9C229.035 372.9 229.641 372.402 230.002 371.396ZM243.508 362.9C243.508 363.223 243.449 363.516 243.352 363.779C243.254 364.033 243.127 364.238 242.98 364.385C242.834 364.531 242.688 364.658 242.531 364.756C242.375 364.854 242.258 364.932 242.16 364.971L242.004 365.01C242.053 365.02 242.121 365.039 242.209 365.059C242.297 365.078 242.443 365.137 242.658 365.244C242.873 365.352 243.059 365.479 243.225 365.635C243.391 365.791 243.547 366.016 243.684 366.309C243.82 366.602 243.898 366.934 243.898 367.314C243.898 368.125 243.576 368.809 242.941 369.365C242.297 369.922 241.389 370.205 240.207 370.205C239.748 370.205 239.318 370.146 238.908 370.029C238.498 369.912 238.166 369.766 237.893 369.609C237.619 369.443 237.375 369.277 237.18 369.111C236.984 368.945 236.838 368.809 236.74 368.691L236.604 368.506L237.502 367.607C237.58 367.695 237.688 367.812 237.824 367.959C237.961 368.115 238.273 368.311 238.742 368.545C239.211 368.779 239.699 368.896 240.207 368.896C240.969 368.896 241.535 368.75 241.926 368.457C242.307 368.164 242.502 367.783 242.502 367.305C242.502 366.826 242.307 366.436 241.916 366.143C241.525 365.85 240.959 365.703 240.207 365.703H239.104V364.404H240.207C240.773 364.404 241.232 364.258 241.584 363.965C241.926 363.672 242.102 363.311 242.102 362.9C242.102 362.49 241.936 362.148 241.623 361.895C241.301 361.641 240.832 361.514 240.207 361.514C239.758 361.514 239.338 361.602 238.938 361.777C238.537 361.953 238.254 362.139 238.088 362.324L237.805 362.598L236.799 361.602C236.887 361.504 237.023 361.367 237.199 361.211C237.375 361.055 237.756 360.85 238.342 360.586C238.928 360.332 239.543 360.195 240.207 360.195C241.184 360.195 241.975 360.469 242.59 360.996C243.195 361.533 243.508 362.168 243.508 362.9ZM247.912 368.701H250.432C251.057 368.701 251.555 368.525 251.936 368.174C252.316 367.822 252.512 367.363 252.512 366.797C252.512 366.24 252.316 365.781 251.936 365.43C251.555 365.078 251.047 364.902 250.412 364.902H247.912V368.701ZM253.908 366.807C253.908 367.764 253.596 368.535 252.98 369.121C252.355 369.707 251.506 370 250.432 370H246.516V360.4H247.912V363.604H250.412C251.486 363.604 252.346 363.896 252.971 364.482C253.596 365.068 253.908 365.85 253.908 366.807ZM255.812 363.604C255.812 362.686 256.135 361.924 256.779 361.318C257.424 360.713 258.273 360.4 259.318 360.4H263.41V370H262.014V366.797H259.211L257.219 370H255.617L257.814 366.504C257.756 366.494 257.688 366.475 257.59 366.436C257.492 366.396 257.336 366.309 257.111 366.172C256.877 366.035 256.682 365.859 256.506 365.664C256.33 365.469 256.174 365.186 256.027 364.834C255.881 364.473 255.812 364.062 255.812 363.604ZM262.014 361.699L259.318 361.709C258.674 361.709 258.166 361.885 257.785 362.236C257.404 362.588 257.219 363.047 257.219 363.604C257.219 364.17 257.404 364.619 257.785 364.971C258.156 365.322 258.674 365.498 259.318 365.498H262.014V361.699ZM275.012 362.9L271.506 367.305L268.01 362.9V370H266.613V360.4H267.707L271.506 365.195L275.305 360.4H276.408V370H275.012V362.9ZM286.818 360.4H288.02V370H286.613V362.803L280.812 370H279.621V360.4H281.018V367.598L286.818 360.4ZM290.822 369.199C290.822 368.906 290.91 368.672 291.086 368.486C291.262 368.301 291.506 368.203 291.809 368.203C292.121 368.203 292.365 368.301 292.541 368.486C292.717 368.672 292.805 368.906 292.805 369.199C292.805 369.492 292.717 369.736 292.541 369.922C292.365 370.107 292.121 370.195 291.809 370.195C291.506 370.195 291.262 370.107 291.086 369.922C290.91 369.736 290.822 369.492 290.822 369.199ZM305.529 362.598C305.607 362.617 305.705 362.646 305.832 362.695C305.959 362.744 306.193 362.861 306.525 363.037C306.857 363.213 307.15 363.428 307.414 363.672C307.668 363.906 307.902 364.248 308.117 364.678C308.322 365.107 308.43 365.586 308.43 366.113C308.43 367.207 307.951 368.154 306.994 368.975C306.037 369.795 304.816 370.205 303.322 370.205C302.707 370.205 302.111 370.127 301.545 369.971C300.969 369.814 300.49 369.639 300.119 369.424C299.748 369.209 299.416 368.994 299.133 368.779C298.84 368.564 298.645 368.389 298.527 368.242L298.322 367.998L299.328 367.002C299.367 367.061 299.416 367.129 299.494 367.207C299.572 367.285 299.729 367.432 299.982 367.637C300.236 367.842 300.5 368.027 300.793 368.184C301.076 368.34 301.447 368.486 301.916 368.613C302.375 368.74 302.844 368.799 303.322 368.799C304.426 368.799 305.305 368.535 305.949 367.998C306.594 367.471 306.926 366.836 306.926 366.104C306.926 365.322 306.594 364.658 305.949 364.111C305.305 363.574 304.426 363.301 303.322 363.301H301.73V361.904H303.322C304.279 361.904 305.031 361.68 305.588 361.23C306.145 360.781 306.428 360.244 306.428 359.6C306.428 358.926 306.145 358.359 305.598 357.891C305.041 357.432 304.279 357.197 303.322 357.197C302.668 357.197 302.053 357.334 301.477 357.598C300.891 357.871 300.471 358.135 300.207 358.398L299.826 358.799L298.83 357.803C298.869 357.754 298.928 357.686 299.016 357.588C299.094 357.49 299.279 357.334 299.572 357.1C299.855 356.875 300.158 356.68 300.48 356.504C300.803 356.328 301.223 356.172 301.73 356.025C302.238 355.879 302.775 355.801 303.322 355.801C304.719 355.801 305.832 356.162 306.672 356.875C307.502 357.588 307.922 358.467 307.922 359.502C307.922 359.961 307.834 360.371 307.668 360.742C307.502 361.113 307.307 361.416 307.072 361.631C306.838 361.855 306.613 362.041 306.379 362.197C306.145 362.354 305.939 362.461 305.764 362.52L305.529 362.598ZM320.021 368.701V372.402H318.625V370H310.92V372.402H309.523V368.701H310.217C310.256 368.662 310.314 368.604 310.393 368.506C310.471 368.408 310.617 368.193 310.812 367.861C311.008 367.529 311.174 367.178 311.33 366.787C311.486 366.396 311.623 365.879 311.74 365.234C311.857 364.59 311.926 363.906 311.926 363.203V360.4H318.518V368.701H320.021ZM313.322 361.699L313.312 363.203C313.312 364.297 313.186 365.303 312.912 366.211C312.648 367.129 312.385 367.773 312.121 368.145L311.721 368.701H317.121V361.699H313.322ZM330.715 365.723L322.912 365.703C322.961 366.572 323.312 367.324 323.977 367.949C324.641 368.584 325.412 368.896 326.311 368.896C326.906 368.896 327.463 368.77 327.98 368.496C328.488 368.232 328.859 367.969 329.074 367.695L329.416 367.305L330.314 368.203C330.275 368.262 330.217 368.33 330.139 368.428C330.061 368.525 329.904 368.682 329.65 368.906C329.396 369.131 329.133 369.326 328.84 369.502C328.547 369.678 328.176 369.834 327.717 369.98C327.258 370.127 326.789 370.195 326.311 370.195C325.002 370.195 323.869 369.717 322.932 368.74C321.984 367.764 321.516 366.582 321.516 365.195C321.516 363.809 321.975 362.637 322.912 361.66C323.85 360.684 324.943 360.195 326.213 360.195C327.521 360.195 328.615 360.654 329.494 361.562C330.373 362.471 330.812 363.613 330.812 365L330.715 365.723ZM326.213 361.504C325.373 361.504 324.641 361.807 324.016 362.393C323.391 362.988 323.02 363.691 322.912 364.502H329.416C329.309 363.643 328.957 362.92 328.361 362.354C327.766 361.787 327.053 361.504 326.213 361.504ZM332.609 365.195C332.609 363.809 333.078 362.637 334.025 361.66C334.973 360.684 336.096 360.195 337.395 360.195C338.146 360.195 338.85 360.361 339.494 360.684C340.139 361.006 340.607 361.328 340.881 361.641L341.301 362.1L340.295 363.096C340.275 363.057 340.236 363.008 340.178 362.93C340.129 362.861 340.012 362.734 339.836 362.539C339.66 362.354 339.465 362.188 339.26 362.051C339.045 361.914 338.781 361.787 338.449 361.67C338.117 361.562 337.766 361.504 337.404 361.504C336.486 361.504 335.686 361.865 335.012 362.578C334.338 363.291 334.006 364.17 334.006 365.205C334.006 366.24 334.338 367.119 335.012 367.832C335.686 368.545 336.486 368.896 337.404 368.896C337.961 368.896 338.488 368.77 338.996 368.496C339.494 368.232 339.855 367.969 340.08 367.695L340.402 367.305L341.398 368.203C341.359 368.262 341.301 368.33 341.223 368.428C341.145 368.525 340.969 368.682 340.705 368.906C340.451 369.131 340.178 369.326 339.885 369.502C339.602 369.678 339.23 369.834 338.781 369.98C338.332 370.127 337.873 370.195 337.404 370.195C336.096 370.195 334.963 369.717 334.025 368.74C333.078 367.764 332.609 366.582 332.609 365.195ZM345.002 368.701H347.521C348.146 368.701 348.645 368.525 349.025 368.174C349.406 367.822 349.602 367.363 349.602 366.797C349.602 366.24 349.406 365.781 349.025 365.43C348.645 365.078 348.137 364.902 347.502 364.902H345.002V368.701ZM350.998 366.807C350.998 367.764 350.686 368.535 350.07 369.121C349.445 369.707 348.596 370 347.521 370H343.605V360.4H345.002V363.604H347.502C348.576 363.604 349.436 363.896 350.061 364.482C350.686 365.068 350.998 365.85 350.998 366.807ZM365.012 365.195C365.012 366.582 364.533 367.764 363.586 368.74C362.639 369.717 361.516 370.205 360.217 370.205C359.748 370.205 359.289 370.127 358.84 369.99C358.391 369.854 358.02 369.688 357.707 369.492C357.395 369.297 357.131 369.111 356.896 368.916C356.662 368.721 356.486 368.555 356.369 368.408L356.213 368.213L357.209 367.314C357.229 367.354 357.277 367.402 357.336 367.48C357.395 367.549 357.521 367.676 357.717 367.861C357.912 368.057 358.117 368.223 358.332 368.359C358.547 368.496 358.82 368.623 359.162 368.73C359.494 368.848 359.846 368.896 360.217 368.896C361.057 368.896 361.799 368.584 362.463 367.949C363.117 367.324 363.498 366.572 363.615 365.703H358.811V364.404H363.508C363.4 363.633 363.029 362.959 362.404 362.373C361.77 361.797 361.037 361.504 360.217 361.504C359.855 361.504 359.514 361.562 359.182 361.66C358.85 361.768 358.576 361.904 358.352 362.061C358.137 362.227 357.941 362.393 357.775 362.549C357.609 362.705 357.482 362.842 357.404 362.939L357.307 363.096L356.301 362.1C356.34 362.051 356.398 361.982 356.477 361.895C356.555 361.807 356.711 361.66 356.955 361.445C357.209 361.23 357.473 361.045 357.746 360.869C358.029 360.703 358.391 360.547 358.84 360.41C359.289 360.273 359.748 360.195 360.217 360.195C361.525 360.195 362.648 360.684 363.596 361.66C364.533 362.637 365.012 363.809 365.012 365.195ZM366.311 361.699V360.4H374.504V361.699H371.105V370H369.709V361.699H366.311ZM384.211 365.205C384.211 364.17 383.859 363.291 383.176 362.578C382.492 361.865 381.662 361.504 380.705 361.504C379.748 361.504 378.918 361.865 378.234 362.578C377.551 363.291 377.209 364.16 377.209 365.195C377.209 366.23 377.551 367.1 378.234 367.822C378.918 368.545 379.748 368.896 380.705 368.896C381.662 368.896 382.492 368.545 383.176 367.832C383.859 367.119 384.211 366.24 384.211 365.205ZM375.812 365.205C375.812 363.799 376.281 362.617 377.238 361.65C378.195 360.684 379.348 360.195 380.715 360.195C382.072 360.195 383.225 360.684 384.172 361.65C385.129 362.617 385.598 363.799 385.598 365.205C385.598 366.611 385.129 367.793 384.172 368.76C383.225 369.717 382.072 370.205 380.715 370.205C379.348 370.205 378.195 369.717 377.238 368.76C376.281 367.793 375.812 366.611 375.812 365.205ZM400.324 362.9L396.818 367.305L393.322 362.9V370H391.926V360.4H393.02L396.818 365.195L400.617 360.4H401.721V370H400.324V362.9ZM412.629 365.205C412.629 364.17 412.277 363.291 411.594 362.578C410.91 361.865 410.08 361.504 409.123 361.504C408.166 361.504 407.336 361.865 406.652 362.578C405.969 363.291 405.627 364.16 405.627 365.195C405.627 366.23 405.969 367.1 406.652 367.822C407.336 368.545 408.166 368.896 409.123 368.896C410.08 368.896 410.91 368.545 411.594 367.832C412.277 367.119 412.629 366.24 412.629 365.205ZM404.23 365.205C404.23 363.799 404.699 362.617 405.656 361.65C406.613 360.684 407.766 360.195 409.133 360.195C410.49 360.195 411.643 360.684 412.59 361.65C413.547 362.617 414.016 363.799 414.016 365.205C414.016 366.611 413.547 367.793 412.59 368.76C411.643 369.717 410.49 370.205 409.133 370.205C407.766 370.205 406.613 369.717 405.656 368.76C404.699 367.793 404.23 366.611 404.23 365.205ZM421.125 366.797L419.719 365.303L416.32 370H414.719L418.82 364.297L415.119 360.4H416.818L421.125 365V360.4H422.521V365L426.818 360.4H428.518L424.816 364.297L428.918 370H427.316L423.918 365.303L422.521 366.797V370H421.125V366.797ZM437.629 370V365.801H432.131V370H430.734V360.4H432.131V364.502H437.629V360.4H439.035V370H437.629ZM449.934 365.205C449.934 364.17 449.582 363.291 448.898 362.578C448.215 361.865 447.385 361.504 446.428 361.504C445.471 361.504 444.641 361.865 443.957 362.578C443.273 363.291 442.932 364.16 442.932 365.195C442.932 366.23 443.273 367.1 443.957 367.822C444.641 368.545 445.471 368.896 446.428 368.896C447.385 368.896 448.215 368.545 448.898 367.832C449.582 367.119 449.934 366.24 449.934 365.205ZM441.535 365.205C441.535 363.799 442.004 362.617 442.961 361.65C443.918 360.684 445.07 360.195 446.438 360.195C447.795 360.195 448.947 360.684 449.895 361.65C450.852 362.617 451.32 363.799 451.32 365.205C451.32 366.611 450.852 367.793 449.895 368.76C448.947 369.717 447.795 370.205 446.438 370.205C445.07 370.205 443.918 369.717 442.961 368.76C442.004 367.793 441.535 366.611 441.535 365.205ZM457.941 368.203L459.348 369.004L457.043 372.598L456.145 372.1L457.941 368.203ZM457.443 361.201C457.443 360.908 457.531 360.674 457.707 360.479C457.883 360.293 458.127 360.195 458.439 360.195C458.752 360.195 458.996 360.293 459.172 360.479C459.348 360.674 459.445 360.908 459.445 361.201C459.445 361.494 459.348 361.738 459.172 361.924C458.996 362.109 458.752 362.197 458.439 362.197C458.127 362.197 457.883 362.109 457.707 361.924C457.531 361.738 457.443 361.494 457.443 361.201ZM464.338 365C464.338 364.014 464.23 363.037 464.016 362.07C463.801 361.104 463.547 360.283 463.234 359.6C462.922 358.926 462.619 358.32 462.326 357.783C462.023 357.256 461.77 356.855 461.555 356.602L461.242 356.201L462.336 355.596C462.424 355.693 462.541 355.83 462.697 356.016C462.844 356.211 463.107 356.611 463.488 357.236C463.859 357.861 464.191 358.506 464.484 359.18C464.777 359.863 465.041 360.732 465.275 361.787C465.51 362.852 465.637 363.926 465.637 365C465.637 366.084 465.52 367.148 465.295 368.193C465.07 369.238 464.797 370.117 464.465 370.83C464.133 371.553 463.811 372.188 463.498 372.744C463.176 373.311 462.902 373.73 462.678 374.004L462.336 374.404L461.242 373.799C461.32 373.711 461.428 373.574 461.564 373.389C461.701 373.213 461.955 372.822 462.316 372.227C462.678 371.641 462.99 371.025 463.254 370.381C463.518 369.746 463.762 368.936 463.996 367.959C464.221 366.982 464.338 365.996 464.338 365Z" fill="#1D1717"/>
</g>
<defs>
<clipPath id="clip0_1_1512">
<rect width="948" height="566" fill="white" transform="translate(-95)"/>
</clipPath>
</defs>
</svg>
