<svg width="546" height="339" viewBox="0 0 546 339" fill="none" xmlns="http://www.w3.org/2000/svg">
<g clip-path="url(#clip0_1_1516)">
<path d="M114.409 68.4877C123.611 63.5537 119.509 46.5856 109.974 42.7347C100.329 39.0042 89.7974 44.0585 81.1501 49.7145C17.293 92.0745 -24.2806 211.573 15.7409 238.529C45.7848 258.746 86.1389 238.529 114.52 207.361C97.4469 240.936 107.314 272.826 129.154 287.027C152.213 302.069 224.496 294.849 267.732 252.248C262.078 266.328 251.325 319.278 282.145 333.959C332.92 358.028 410.635 289.794 439.459 257.663C437.353 267.652 429.038 281.852 442.674 287.508C471.498 304.476 578.481 164.881 536.242 126.733C500.212 94.1203 398.772 111.329 359.859 147.672C367.066 126.492 372.387 98.2118 355.314 85.3354C346.445 78.5963 334.25 79.4387 324.051 83.1692C299.993 91.9541 282.477 114.217 266.402 135.638C288.131 95.3237 311.191 30.2193 270.504 7.23421C210.971 -26.4612 114.409 68.4877 114.409 68.4877Z" fill="#FAFAFA"/>
<g clip-path="url(#clip1_1_1516)">
<path d="M203.282 142.8C209.378 136.971 213.691 129.449 215.695 121.151C215.935 120.321 216.02 119.452 215.945 118.59C215.898 118.164 215.747 117.757 215.504 117.407C215.261 117.057 214.936 116.777 214.558 116.592C213.456 116.141 212.245 116.835 211.338 117.612C208.861 119.746 207.097 122.621 206.292 125.834" stroke="#F9BBDE" stroke-width="3" stroke-linecap="round" stroke-linejoin="round"/>
<path d="M182.521 129.914C180.83 124.271 179.308 118.581 177.955 112.845C177.353 110.153 176.887 106.878 178.896 105.011C179.628 104.42 180.514 104.064 181.443 103.988C182.372 103.911 183.303 104.118 184.118 104.581C185.723 105.567 186.925 107.118 187.5 108.945C188.068 110.766 188.418 112.651 188.542 114.559" stroke="#F9BBDE" stroke-width="3" stroke-linecap="round" stroke-linejoin="round"/>
<path d="M211.906 116.849C211.928 116.222 211.789 115.6 211.502 115.046C211.216 114.492 210.792 114.026 210.273 113.694C209.754 113.361 209.159 113.175 208.548 113.154C207.937 113.133 207.331 113.278 206.792 113.574C205.898 114.157 205.155 114.955 204.628 115.898C203.424 117.705 202.331 119.587 201.354 121.532" stroke="#F9BBDE" stroke-width="3" stroke-linecap="round" stroke-linejoin="round"/>
<path d="M188.562 114.587C191.225 108.524 194.564 102.798 198.513 97.5242C199.22 96.4776 200.096 95.5624 201.104 94.8181C201.612 94.4521 202.195 94.2104 202.808 94.1118C203.421 94.0131 204.049 94.0601 204.641 94.2492C206.136 94.832 206.948 96.5806 206.948 98.2181C206.836 99.8618 206.374 101.46 205.595 102.902C202.797 109.02 199.351 114.805 195.32 120.151" stroke="#F9BBDE" stroke-width="3" stroke-linecap="round" stroke-linejoin="round"/>
<path d="M182.257 130.365C188.029 136.606 195.523 140.887 203.735 142.633" stroke="#F9BBDE" stroke-width="3" stroke-linecap="round" stroke-linejoin="round"/>
<path d="M202.815 109.008C203.362 109.043 203.892 109.21 204.364 109.495C204.836 109.78 205.236 110.175 205.531 110.648C205.826 111.121 206.009 111.659 206.063 112.218C206.118 112.777 206.043 113.341 205.845 113.865" stroke="#F9BBDE" stroke-width="3" stroke-linecap="round" stroke-linejoin="round"/>
<path d="M176.115 138.942C176.609 141.287 178.598 142.959 180.519 144.298C183.523 146.41 186.691 148.266 189.989 149.849C191.914 150.884 193.991 151.588 196.138 151.931C198.307 152.261 200.516 151.702 202.287 150.377C203.985 148.989 204.912 146.533 204.174 144.444C203.194 141.669 199.994 140.593 197.261 139.587C192.448 137.814 187.924 135.306 183.84 132.149C181.811 130.608 180.526 130.393 178.591 132.336C176.907 134.022 175.594 136.464 176.115 138.942Z" fill="#F9BBDE"/>
</g>
<path d="M177.004 180.598C177.062 180.627 177.16 180.666 177.277 180.715C177.395 180.764 177.609 180.881 177.902 181.076C178.205 181.271 178.469 181.486 178.693 181.721C178.918 181.965 179.123 182.297 179.309 182.727C179.504 183.156 179.592 183.615 179.592 184.113C179.592 185.285 179.094 186.271 178.098 187.092C177.102 187.902 175.725 188.312 173.986 188.312C173.322 188.312 172.678 188.225 172.053 188.059C171.428 187.893 170.9 187.697 170.49 187.463C170.08 187.229 169.719 186.994 169.406 186.76C169.094 186.525 168.859 186.33 168.713 186.174L168.488 185.91L170.295 184.113L170.451 184.27C170.52 184.328 170.666 184.455 170.891 184.631C171.125 184.807 171.359 184.953 171.613 185.09C171.867 185.217 172.189 185.334 172.58 185.441C172.971 185.549 173.381 185.607 173.791 185.607C174.621 185.607 175.266 185.432 175.715 185.09C176.164 184.738 176.389 184.318 176.389 183.811C176.389 183.283 176.184 182.854 175.764 182.521C175.344 182.18 174.719 182.014 173.889 182.014H172.092V179.406H173.791C174.475 179.406 174.992 179.26 175.354 178.986C175.715 178.703 175.891 178.342 175.891 177.912C175.891 177.482 175.705 177.121 175.324 176.838C174.943 176.545 174.396 176.408 173.693 176.408C173.186 176.408 172.697 176.516 172.209 176.73C171.73 176.945 171.379 177.15 171.154 177.365L170.793 177.707L168.986 175.812C169.025 175.754 169.094 175.686 169.191 175.588C169.289 175.49 169.484 175.324 169.797 175.08C170.109 174.826 170.451 174.611 170.803 174.436C171.154 174.26 171.623 174.094 172.199 173.938C172.785 173.781 173.381 173.713 173.986 173.713C175.529 173.713 176.76 174.094 177.697 174.865C178.635 175.637 179.094 176.555 179.094 177.609C179.094 178.049 179.025 178.449 178.879 178.82C178.732 179.182 178.557 179.465 178.342 179.67C178.137 179.885 177.932 180.061 177.736 180.217C177.541 180.373 177.365 180.471 177.219 180.52L177.004 180.598ZM187.199 188L187.189 187.004C187.111 187.102 187.004 187.209 186.867 187.346C186.73 187.482 186.418 187.658 185.949 187.873C185.48 188.088 184.992 188.195 184.484 188.195C183.508 188.195 182.717 187.932 182.102 187.385C181.496 186.838 181.184 186.184 181.184 185.402C181.184 184.602 181.447 183.938 181.955 183.4C182.473 182.873 183.186 182.521 184.084 182.355L187.189 181.799C187.189 181.389 187.043 181.057 186.74 180.793C186.447 180.539 186.027 180.402 185.49 180.402C185.051 180.402 184.65 180.49 184.279 180.656C183.918 180.822 183.664 180.988 183.508 181.164L183.283 181.398L181.789 179.904C181.828 179.855 181.887 179.787 181.955 179.699C182.023 179.611 182.18 179.455 182.414 179.24C182.648 179.025 182.912 178.84 183.186 178.674C183.469 178.508 183.84 178.352 184.289 178.215C184.748 178.078 185.217 178 185.695 178C186.926 178 187.941 178.371 188.723 179.113C189.504 179.855 189.895 180.783 189.895 181.896V188H187.199ZM185.188 185.998C185.803 185.998 186.291 185.812 186.652 185.422C187.014 185.031 187.189 184.494 187.189 183.801V183.498L184.992 183.898C184.26 184.016 183.889 184.387 183.889 185.002C183.889 185.666 184.328 185.998 185.188 185.998ZM199.602 178.195V180.695H195.197V188H192.502V178.195H199.602ZM202.092 178.195L209.992 178.205V188.01H207.297V180.607H204.699V181.213C204.699 183.039 204.543 184.494 204.23 185.568C203.918 186.643 203.527 187.375 203.039 187.746C202.551 188.117 201.936 188.303 201.193 188.303C200.949 188.303 200.715 188.283 200.48 188.225C200.246 188.166 200.08 188.117 199.973 188.078L199.797 188V185.598C199.992 185.666 200.197 185.695 200.393 185.695C200.783 185.695 201.096 185.598 201.33 185.393C201.555 185.188 201.74 184.729 201.877 184.016C202.014 183.303 202.092 182.268 202.092 180.9V178.195ZM215.998 178.195H220.686V188H217.99V185.1H216.584L214.787 188H211.887L213.986 184.699C213.938 184.68 213.869 184.641 213.791 184.602C213.713 184.562 213.566 184.455 213.361 184.279C213.156 184.104 212.971 183.918 212.814 183.713C212.658 183.508 212.512 183.225 212.385 182.863C212.258 182.502 212.199 182.111 212.199 181.701C212.199 180.744 212.561 179.924 213.283 179.23C214.006 178.547 214.914 178.195 215.998 178.195ZM217.99 180.5H216.193C215.803 180.5 215.48 180.617 215.246 180.832C215.012 181.057 214.885 181.35 214.885 181.701C214.885 182.062 215.002 182.355 215.236 182.57C215.471 182.795 215.793 182.902 216.193 182.902H217.99V180.5ZM222.004 185.598L222.6 185.607C222.639 185.568 222.688 185.51 222.766 185.441C222.844 185.363 222.971 185.188 223.156 184.914C223.342 184.631 223.508 184.318 223.645 183.986C223.781 183.654 223.908 183.205 224.025 182.658C224.143 182.102 224.201 181.516 224.201 180.9V178.195H231.701V185.598H233V190.305H230.305V188H224.699V190.305H222.004V185.598ZM226.701 180.607V181.213C226.701 181.984 226.594 182.736 226.379 183.469C226.164 184.201 225.959 184.738 225.744 185.09L225.402 185.607H229.006V180.607H226.701ZM246.906 178.195V188H244.201V178.195H246.906ZM237.502 185.803H239.104C239.445 185.803 239.729 185.695 239.953 185.461C240.188 185.236 240.295 184.953 240.295 184.602C240.295 184.26 240.188 183.977 239.953 183.742C239.729 183.518 239.445 183.4 239.104 183.4H237.502V185.803ZM243.01 184.602C243.01 185.617 242.668 186.438 241.994 187.062C241.32 187.688 240.393 188 239.201 188H234.807V178.195H237.502V181.203H239.201C240.383 181.203 241.311 181.516 241.994 182.141C242.668 182.766 243.01 183.586 243.01 184.602ZM249.514 178.195H254.416C255.393 178.195 256.184 178.469 256.799 178.996C257.404 179.533 257.717 180.168 257.717 180.9C257.717 181.35 257.609 181.73 257.414 182.062C257.209 182.395 257.004 182.619 256.809 182.717L256.516 182.902C256.555 182.922 256.604 182.941 256.682 182.961C256.75 182.99 256.877 183.068 257.072 183.186C257.258 183.303 257.424 183.439 257.561 183.596C257.697 183.752 257.824 183.957 257.941 184.221C258.059 184.494 258.117 184.787 258.117 185.1C258.117 185.93 257.795 186.623 257.16 187.17C256.525 187.727 255.676 188 254.611 188H249.514V178.195ZM254.416 183.801H252.209V185.803H254.416C254.719 185.803 254.963 185.715 255.139 185.52C255.314 185.334 255.412 185.09 255.412 184.797C255.412 184.504 255.314 184.27 255.139 184.084C254.963 183.898 254.719 183.801 254.416 183.801ZM255.012 181.203C255.012 180.676 254.738 180.402 254.211 180.402H252.209V182.004H254.211C254.738 182.004 255.012 181.74 255.012 181.203ZM265.52 188L265.51 187.004C265.432 187.102 265.324 187.209 265.188 187.346C265.051 187.482 264.738 187.658 264.27 187.873C263.801 188.088 263.312 188.195 262.805 188.195C261.828 188.195 261.037 187.932 260.422 187.385C259.816 186.838 259.504 186.184 259.504 185.402C259.504 184.602 259.768 183.938 260.275 183.4C260.793 182.873 261.506 182.521 262.404 182.355L265.51 181.799C265.51 181.389 265.363 181.057 265.061 180.793C264.768 180.539 264.348 180.402 263.811 180.402C263.371 180.402 262.971 180.49 262.6 180.656C262.238 180.822 261.984 180.988 261.828 181.164L261.604 181.398L260.109 179.904C260.148 179.855 260.207 179.787 260.275 179.699C260.344 179.611 260.5 179.455 260.734 179.24C260.969 179.025 261.232 178.84 261.506 178.674C261.789 178.508 262.16 178.352 262.609 178.215C263.068 178.078 263.537 178 264.016 178C265.246 178 266.262 178.371 267.043 179.113C267.824 179.855 268.215 180.783 268.215 181.896V188H265.52ZM263.508 185.998C264.123 185.998 264.611 185.812 264.973 185.422C265.334 185.031 265.51 184.494 265.51 183.801V183.498L263.312 183.898C262.58 184.016 262.209 184.387 262.209 185.002C262.209 185.666 262.648 185.998 263.508 185.998ZM275.422 175.1C275.764 175.1 276.047 174.992 276.281 174.758C276.506 174.533 276.623 174.25 276.623 173.908H278.625C278.625 174.758 278.322 175.471 277.717 176.047C277.111 176.613 276.35 176.906 275.422 176.906C274.484 176.906 273.723 176.613 273.117 176.047C272.512 175.471 272.219 174.758 272.219 173.908H274.221C274.221 174.25 274.328 174.533 274.562 174.758C274.787 174.992 275.07 175.1 275.422 175.1ZM277.766 178.195H280.119V188H277.424V182.502L273.156 188H270.822V178.195H273.518V183.703L277.766 178.195ZM281.711 180.803V178.195H290.617V180.803H287.512V188H284.816V180.803H281.711ZM301.506 183.996H294.406C294.504 184.533 294.787 184.982 295.256 185.354C295.715 185.725 296.301 185.9 297.004 185.9C297.512 185.9 297.98 185.803 298.41 185.607C298.84 185.412 299.152 185.207 299.328 185.002L299.611 184.699L301.008 186.496L300.822 186.682C300.744 186.76 300.568 186.896 300.305 187.092C300.031 187.287 299.748 187.463 299.455 187.619C299.152 187.775 298.762 187.902 298.283 188.02C297.805 188.137 297.316 188.195 296.809 188.195C295.363 188.195 294.143 187.697 293.127 186.701C292.111 185.705 291.604 184.504 291.604 183.098C291.604 181.701 292.102 180.5 293.107 179.504C294.104 178.508 295.305 178 296.711 178C298.107 178 299.27 178.469 300.207 179.406C301.135 180.344 301.604 181.506 301.604 182.902L301.506 183.996ZM296.711 180.305C296.135 180.305 295.646 180.471 295.246 180.803C294.846 181.135 294.562 181.574 294.406 182.102H298.908C298.801 181.584 298.547 181.154 298.156 180.812C297.766 180.48 297.277 180.305 296.711 180.305ZM307.717 178.195H312.619C313.596 178.195 314.387 178.469 315.002 178.996C315.607 179.533 315.92 180.168 315.92 180.9C315.92 181.35 315.812 181.73 315.617 182.062C315.412 182.395 315.207 182.619 315.012 182.717L314.719 182.902C314.758 182.922 314.807 182.941 314.885 182.961C314.953 182.99 315.08 183.068 315.275 183.186C315.461 183.303 315.627 183.439 315.764 183.596C315.9 183.752 316.027 183.957 316.145 184.221C316.262 184.494 316.32 184.787 316.32 185.1C316.32 185.93 315.998 186.623 315.363 187.17C314.729 187.727 313.879 188 312.814 188H307.717V178.195ZM312.619 183.801H310.412V185.803H312.619C312.922 185.803 313.166 185.715 313.342 185.52C313.518 185.334 313.615 185.09 313.615 184.797C313.615 184.504 313.518 184.27 313.342 184.084C313.166 183.898 312.922 183.801 312.619 183.801ZM313.215 181.203C313.215 180.676 312.941 180.402 312.414 180.402H310.412V182.004H312.414C312.941 182.004 313.215 181.74 313.215 181.203ZM331.721 178.195L328.02 182.404L331.926 188H328.918L326.32 184.201L325.119 185.598V188H322.424V178.195H325.119V182.199L328.625 178.195H331.721ZM338.625 188L338.615 187.004C338.537 187.102 338.43 187.209 338.293 187.346C338.156 187.482 337.844 187.658 337.375 187.873C336.906 188.088 336.418 188.195 335.91 188.195C334.934 188.195 334.143 187.932 333.527 187.385C332.922 186.838 332.609 186.184 332.609 185.402C332.609 184.602 332.873 183.938 333.381 183.4C333.898 182.873 334.611 182.521 335.51 182.355L338.615 181.799C338.615 181.389 338.469 181.057 338.166 180.793C337.873 180.539 337.453 180.402 336.916 180.402C336.477 180.402 336.076 180.49 335.705 180.656C335.344 180.822 335.09 180.988 334.934 181.164L334.709 181.398L333.215 179.904C333.254 179.855 333.312 179.787 333.381 179.699C333.449 179.611 333.605 179.455 333.84 179.24C334.074 179.025 334.338 178.84 334.611 178.674C334.895 178.508 335.266 178.352 335.715 178.215C336.174 178.078 336.643 178 337.121 178C338.352 178 339.367 178.371 340.148 179.113C340.93 179.855 341.32 180.783 341.32 181.896V188H338.625ZM336.613 185.998C337.229 185.998 337.717 185.812 338.078 185.422C338.439 185.031 338.615 184.494 338.615 183.801V183.498L336.418 183.898C335.686 184.016 335.314 184.387 335.314 185.002C335.314 185.666 335.754 185.998 336.613 185.998ZM349.123 188V185.197L348.225 184.201L345.627 188H342.629L346.525 182.404L342.824 178.195H345.93L349.123 181.896V178.195H351.828V181.896L355.031 178.195H358.127L354.426 182.404L358.322 188H355.324L352.727 184.201L351.828 185.197V188H349.123ZM358.332 185.598L358.928 185.607C358.967 185.568 359.016 185.51 359.094 185.441C359.172 185.363 359.299 185.188 359.484 184.914C359.67 184.631 359.836 184.318 359.973 183.986C360.109 183.654 360.236 183.205 360.354 182.658C360.471 182.102 360.529 181.516 360.529 180.9V178.195H368.029V185.598H369.328V190.305H366.633V188H361.027V190.305H358.332V185.598ZM363.029 180.607V181.213C363.029 181.984 362.922 182.736 362.707 183.469C362.492 184.201 362.287 184.738 362.072 185.09L361.73 185.607H365.334V180.607H363.029ZM373.332 183.107C373.332 183.84 373.566 184.455 374.045 184.953C374.514 185.451 375.08 185.695 375.734 185.695C376.379 185.695 376.945 185.451 377.424 184.953C377.893 184.455 378.137 183.84 378.137 183.107C378.137 182.375 377.893 181.76 377.424 181.252C376.945 180.754 376.379 180.5 375.734 180.5C375.08 180.5 374.514 180.754 374.045 181.252C373.566 181.76 373.332 182.375 373.332 183.107ZM380.93 183.098C380.93 184.465 380.412 185.656 379.377 186.672C378.342 187.688 377.131 188.195 375.734 188.195C374.328 188.195 373.117 187.688 372.082 186.672C371.047 185.656 370.529 184.465 370.529 183.098C370.529 181.74 371.047 180.549 372.082 179.533C373.117 178.518 374.328 178.01 375.734 178.01C377.131 178.01 378.342 178.518 379.377 179.533C380.412 180.549 380.93 181.74 380.93 183.098ZM392.229 183.996H385.129C385.227 184.533 385.51 184.982 385.979 185.354C386.438 185.725 387.023 185.9 387.727 185.9C388.234 185.9 388.703 185.803 389.133 185.607C389.562 185.412 389.875 185.207 390.051 185.002L390.334 184.699L391.73 186.496L391.545 186.682C391.467 186.76 391.291 186.896 391.027 187.092C390.754 187.287 390.471 187.463 390.178 187.619C389.875 187.775 389.484 187.902 389.006 188.02C388.527 188.137 388.039 188.195 387.531 188.195C386.086 188.195 384.865 187.697 383.85 186.701C382.834 185.705 382.326 184.504 382.326 183.098C382.326 181.701 382.824 180.5 383.83 179.504C384.826 178.508 386.027 178 387.434 178C388.83 178 389.992 178.469 390.93 179.406C391.857 180.344 392.326 181.506 392.326 182.902L392.229 183.996ZM387.434 180.305C386.857 180.305 386.369 180.471 385.969 180.803C385.568 181.135 385.285 181.574 385.129 182.102H389.631C389.523 181.584 389.27 181.154 388.879 180.812C388.488 180.48 388 180.305 387.434 180.305ZM400.637 183.107C400.637 183.84 400.871 184.455 401.35 184.953C401.818 185.451 402.385 185.695 403.039 185.695C403.684 185.695 404.25 185.451 404.729 184.953C405.197 184.455 405.441 183.84 405.441 183.107C405.441 182.375 405.197 181.76 404.729 181.252C404.25 180.754 403.684 180.5 403.039 180.5C402.385 180.5 401.818 180.754 401.35 181.252C400.871 181.76 400.637 182.375 400.637 183.107ZM408.234 183.098C408.234 184.465 407.717 185.656 406.682 186.672C405.646 187.688 404.436 188.195 403.039 188.195C401.633 188.195 400.422 187.688 399.387 186.672C398.352 185.656 397.834 184.465 397.834 183.098C397.834 181.74 398.352 180.549 399.387 179.533C400.422 178.518 401.633 178.01 403.039 178.01C404.436 178.01 405.646 178.518 406.682 179.533C407.717 180.549 408.234 181.74 408.234 183.098ZM419.533 178.195L415.832 182.404L419.738 188H416.73L414.133 184.201L412.932 185.598V188H410.236V178.195H412.932V182.199L416.438 178.195H419.533ZM423.732 184.299V188H421.037V178.195H423.732V181.896H427.531V178.195H430.236V188H427.531V184.299H423.732ZM435.031 183.107C435.031 183.84 435.266 184.455 435.744 184.953C436.213 185.451 436.779 185.695 437.434 185.695C438.078 185.695 438.645 185.451 439.123 184.953C439.592 184.455 439.836 183.84 439.836 183.107C439.836 182.375 439.592 181.76 439.123 181.252C438.645 180.754 438.078 180.5 437.434 180.5C436.779 180.5 436.213 180.754 435.744 181.252C435.266 181.76 435.031 182.375 435.031 183.107ZM442.629 183.098C442.629 184.465 442.111 185.656 441.076 186.672C440.041 187.688 438.83 188.195 437.434 188.195C436.027 188.195 434.816 187.688 433.781 186.672C432.746 185.656 432.229 184.465 432.229 183.098C432.229 181.74 432.746 180.549 433.781 179.533C434.816 178.518 436.027 178.01 437.434 178.01C438.83 178.01 440.041 178.518 441.076 179.533C442.111 180.549 442.629 181.74 442.629 183.098ZM445.529 185.1L447.727 186.398L445.129 190.598L443.332 189.699L445.529 185.1Z" fill="#4039A3"/>
<path d="M175.695 220V216.104C174.953 216.641 174.055 216.904 173 216.904C171.906 216.904 171.008 216.562 170.324 215.879C169.641 215.195 169.299 214.297 169.299 213.203V210.4H170.695V213.203C170.695 213.896 170.92 214.473 171.369 214.922C171.818 215.371 172.395 215.596 173.098 215.596C173.576 215.596 174.035 215.527 174.465 215.381C174.895 215.234 175.207 215.078 175.402 214.922L175.695 214.697V210.4H177.102V220H175.695ZM179.104 211.699V210.4H187.297V211.699H183.898V220H182.502V211.699H179.104ZM197.004 215.205C197.004 214.17 196.652 213.291 195.969 212.578C195.285 211.865 194.455 211.504 193.498 211.504C192.541 211.504 191.711 211.865 191.027 212.578C190.344 213.291 190.002 214.16 190.002 215.195C190.002 216.23 190.344 217.1 191.027 217.822C191.711 218.545 192.541 218.896 193.498 218.896C194.455 218.896 195.285 218.545 195.969 217.832C196.652 217.119 197.004 216.24 197.004 215.205ZM188.605 215.205C188.605 213.799 189.074 212.617 190.031 211.65C190.988 210.684 192.141 210.195 193.508 210.195C194.865 210.195 196.018 210.684 196.965 211.65C197.922 212.617 198.391 213.799 198.391 215.205C198.391 216.611 197.922 217.793 196.965 218.76C196.018 219.717 194.865 220.205 193.508 220.205C192.141 220.205 190.988 219.717 190.031 218.76C189.074 217.793 188.605 216.611 188.605 215.205ZM210.002 215.4C210.002 216.748 209.543 217.891 208.635 218.809C207.717 219.736 206.613 220.195 205.305 220.195C203.889 220.195 202.736 219.658 201.848 218.584C200.949 217.51 200.51 215.977 200.51 214.004C200.51 209.59 202.141 207.09 205.402 206.504C206.105 206.387 206.74 206.24 207.297 206.045C207.844 205.859 208.215 205.703 208.41 205.576L208.703 205.4L209.406 206.504C208.869 206.973 207.6 207.412 205.607 207.803C204.553 208.018 203.693 208.525 203.049 209.307C202.404 210.088 202.053 211.152 202.004 212.5C202.023 212.451 202.072 212.383 202.131 212.295C202.189 212.207 202.326 212.061 202.531 211.846C202.736 211.631 202.961 211.445 203.215 211.27C203.459 211.104 203.781 210.947 204.172 210.811C204.562 210.674 204.973 210.596 205.402 210.596C206.672 210.596 207.756 211.064 208.654 212.002C209.553 212.939 210.002 214.072 210.002 215.4ZM202.004 215.4C202.004 216.396 202.326 217.227 202.971 217.891C203.615 218.564 204.396 218.896 205.305 218.896C206.203 218.896 206.984 218.564 207.629 217.891C208.273 217.227 208.605 216.396 208.605 215.4C208.605 214.414 208.273 213.584 207.629 212.91C206.984 212.246 206.203 211.904 205.305 211.904C204.396 211.904 203.615 212.246 202.971 212.91C202.326 213.584 202.004 214.414 202.004 215.4ZM223.107 210.4V220H221.701V210.4H223.107ZM214.006 218.701H216.428C217.053 218.701 217.551 218.525 217.932 218.174C218.312 217.822 218.508 217.363 218.508 216.797C218.508 216.24 218.312 215.781 217.932 215.43C217.551 215.078 217.043 214.902 216.408 214.902H214.006V218.701ZM219.904 216.807C219.904 217.764 219.592 218.535 218.977 219.121C218.352 219.707 217.502 220 216.428 220H212.609V210.4H214.006V213.604H216.408C217.482 213.604 218.342 213.896 218.967 214.482C219.592 215.068 219.904 215.85 219.904 216.807ZM237.805 215.205C237.805 214.17 237.453 213.291 236.77 212.578C236.086 211.865 235.256 211.504 234.299 211.504C233.342 211.504 232.512 211.865 231.828 212.578C231.145 213.291 230.803 214.16 230.803 215.195C230.803 216.23 231.145 217.1 231.828 217.822C232.512 218.545 233.342 218.896 234.299 218.896C235.256 218.896 236.086 218.545 236.77 217.832C237.453 217.119 237.805 216.24 237.805 215.205ZM229.406 215.205C229.406 213.799 229.875 212.617 230.832 211.65C231.789 210.684 232.941 210.195 234.309 210.195C235.666 210.195 236.818 210.684 237.766 211.65C238.723 212.617 239.191 213.799 239.191 215.205C239.191 216.611 238.723 217.793 237.766 218.76C236.818 219.717 235.666 220.205 234.309 220.205C232.941 220.205 231.789 219.717 230.832 218.76C229.875 217.793 229.406 216.611 229.406 215.205ZM240.51 211.699V210.4H248.703V211.699H245.305V220H243.908V211.699H240.51ZM261.213 210.4V220H259.807V210.4H261.213ZM252.111 218.701H254.533C255.158 218.701 255.656 218.525 256.037 218.174C256.418 217.822 256.613 217.363 256.613 216.797C256.613 216.24 256.418 215.781 256.037 215.43C255.656 215.078 255.148 214.902 254.514 214.902H252.111V218.701ZM258.01 216.807C258.01 217.764 257.697 218.535 257.082 219.121C256.457 219.707 255.607 220 254.533 220H250.715V210.4H252.111V213.604H254.514C255.588 213.604 256.447 213.896 257.072 214.482C257.697 215.068 258.01 215.85 258.01 216.807ZM263.703 215.195C263.703 213.809 264.172 212.637 265.119 211.66C266.066 210.684 267.189 210.195 268.488 210.195C269.24 210.195 269.943 210.361 270.588 210.684C271.232 211.006 271.701 211.328 271.975 211.641L272.395 212.1L271.389 213.096C271.369 213.057 271.33 213.008 271.271 212.93C271.223 212.861 271.105 212.734 270.93 212.539C270.754 212.354 270.559 212.188 270.354 212.051C270.139 211.914 269.875 211.787 269.543 211.67C269.211 211.562 268.859 211.504 268.498 211.504C267.58 211.504 266.779 211.865 266.105 212.578C265.432 213.291 265.1 214.17 265.1 215.205C265.1 216.24 265.432 217.119 266.105 217.832C266.779 218.545 267.58 218.896 268.498 218.896C269.055 218.896 269.582 218.77 270.09 218.496C270.588 218.232 270.949 217.969 271.174 217.695L271.496 217.305L272.492 218.203C272.453 218.262 272.395 218.33 272.316 218.428C272.238 218.525 272.062 218.682 271.799 218.906C271.545 219.131 271.271 219.326 270.979 219.502C270.695 219.678 270.324 219.834 269.875 219.98C269.426 220.127 268.967 220.195 268.498 220.195C267.189 220.195 266.057 219.717 265.119 218.74C264.172 217.764 263.703 216.582 263.703 215.195ZM276.096 217.305V220H274.699V210.4H276.096V215.498L280.891 210.4H282.6L278.898 214.297L283 220H281.398L278 215.303L276.096 217.305ZM286.896 214.502L290.598 213.896C290.598 213.193 290.373 212.617 289.924 212.168C289.475 211.729 288.898 211.504 288.195 211.504C287.688 211.504 287.209 211.621 286.76 211.855C286.311 212.09 285.988 212.324 285.793 212.559L285.49 212.9L284.592 212.002C284.631 211.953 284.68 211.885 284.748 211.807C284.816 211.729 284.963 211.582 285.197 211.377C285.432 211.172 285.676 210.986 285.93 210.82C286.184 210.664 286.516 210.518 286.926 210.391C287.336 210.264 287.766 210.195 288.195 210.195C289.289 210.195 290.188 210.557 290.91 211.26C291.633 211.973 291.994 212.852 291.994 213.896V220H290.598V218.701C290.568 218.74 290.529 218.799 290.471 218.867C290.412 218.936 290.295 219.053 290.1 219.229C289.904 219.404 289.699 219.551 289.484 219.688C289.26 219.824 288.967 219.941 288.605 220.039C288.244 220.146 287.873 220.195 287.492 220.195C286.535 220.195 285.725 219.912 285.07 219.346C284.416 218.779 284.094 218.135 284.094 217.402C284.094 216.602 284.328 215.957 284.816 215.469C285.295 214.98 285.988 214.658 286.896 214.502ZM287.492 218.896C288.391 218.896 289.133 218.604 289.719 218.008C290.305 217.422 290.598 216.65 290.598 215.703V215.098L287.297 215.703C286.096 215.938 285.49 216.504 285.49 217.402C285.49 217.832 285.666 218.193 286.018 218.477C286.369 218.76 286.867 218.896 287.492 218.896ZM293.986 211.699V210.4H302.18V211.699H298.781V220H297.385V211.699H293.986ZM305.588 218.701H308.107C308.732 218.701 309.23 218.525 309.611 218.174C309.992 217.822 310.188 217.363 310.188 216.797C310.188 216.24 309.992 215.781 309.611 215.43C309.23 215.078 308.723 214.902 308.088 214.902H305.588V218.701ZM311.584 216.807C311.584 217.764 311.271 218.535 310.656 219.121C310.031 219.707 309.182 220 308.107 220H304.191V210.4H305.588V213.604H308.088C309.162 213.604 310.021 213.896 310.646 214.482C311.271 215.068 311.584 215.85 311.584 216.807ZM317.902 210.4H322.297C323.176 210.4 323.879 210.645 324.406 211.113C324.934 211.582 325.197 212.178 325.197 212.9C325.197 213.311 325.09 213.691 324.895 214.023C324.699 214.355 324.494 214.59 324.299 214.717L323.996 214.902C324.035 214.922 324.084 214.941 324.162 214.961C324.24 214.99 324.367 215.059 324.553 215.176C324.738 215.293 324.904 215.42 325.041 215.576C325.178 215.732 325.305 215.947 325.422 216.23C325.539 216.523 325.598 216.846 325.598 217.197C325.598 218.066 325.324 218.75 324.787 219.248C324.24 219.756 323.479 220 322.502 220H317.902V210.4ZM322.502 215.498H319.299V218.701H322.502C323.049 218.701 323.469 218.564 323.762 218.281C324.055 218.008 324.201 217.607 324.201 217.1C324.201 216.592 324.055 216.201 323.762 215.918C323.469 215.645 323.049 215.498 322.502 215.498ZM323.801 212.998C323.801 212.139 323.293 211.699 322.297 211.699H319.299V214.297H322.297C323.293 214.297 323.801 213.867 323.801 212.998ZM327.59 215.195C327.59 213.809 328.059 212.637 329.006 211.66C329.953 210.684 331.076 210.195 332.375 210.195C333.127 210.195 333.83 210.361 334.475 210.684C335.119 211.006 335.588 211.328 335.861 211.641L336.281 212.1L335.275 213.096C335.256 213.057 335.217 213.008 335.158 212.93C335.109 212.861 334.992 212.734 334.816 212.539C334.641 212.354 334.445 212.188 334.24 212.051C334.025 211.914 333.762 211.787 333.43 211.67C333.098 211.562 332.746 211.504 332.385 211.504C331.467 211.504 330.666 211.865 329.992 212.578C329.318 213.291 328.986 214.17 328.986 215.205C328.986 216.24 329.318 217.119 329.992 217.832C330.666 218.545 331.467 218.896 332.385 218.896C332.941 218.896 333.469 218.77 333.977 218.496C334.475 218.232 334.836 217.969 335.061 217.695L335.383 217.305L336.379 218.203C336.34 218.262 336.281 218.33 336.203 218.428C336.125 218.525 335.949 218.682 335.686 218.906C335.432 219.131 335.158 219.326 334.865 219.502C334.582 219.678 334.211 219.834 333.762 219.98C333.312 220.127 332.854 220.195 332.385 220.195C331.076 220.195 329.943 219.717 329.006 218.74C328.059 217.764 327.59 216.582 327.59 215.195ZM347.082 215.723L339.279 215.703C339.328 216.572 339.68 217.324 340.344 217.949C341.008 218.584 341.779 218.896 342.678 218.896C343.273 218.896 343.83 218.77 344.348 218.496C344.855 218.232 345.227 217.969 345.441 217.695L345.783 217.305L346.682 218.203C346.643 218.262 346.584 218.33 346.506 218.428C346.428 218.525 346.271 218.682 346.018 218.906C345.764 219.131 345.5 219.326 345.207 219.502C344.914 219.678 344.543 219.834 344.084 219.98C343.625 220.127 343.156 220.195 342.678 220.195C341.369 220.195 340.236 219.717 339.299 218.74C338.352 217.764 337.883 216.582 337.883 215.195C337.883 213.809 338.342 212.637 339.279 211.66C340.217 210.684 341.311 210.195 342.58 210.195C343.889 210.195 344.982 210.654 345.861 211.562C346.74 212.471 347.18 213.613 347.18 215L347.082 215.723ZM342.58 211.504C341.74 211.504 341.008 211.807 340.383 212.393C339.758 212.988 339.387 213.691 339.279 214.502H345.783C345.676 213.643 345.324 212.92 344.729 212.354C344.133 211.787 343.42 211.504 342.58 211.504ZM354.182 215.195C354.182 216.279 354.553 217.168 355.314 217.861C356.066 218.555 357.053 218.906 358.273 218.906V211.514C357.053 211.514 356.066 211.855 355.314 212.559C354.553 213.252 354.182 214.131 354.182 215.195ZM363.781 215.205C363.781 214.131 363.4 213.252 362.648 212.559C361.896 211.855 360.91 211.514 359.68 211.514V218.906C360.9 218.906 361.887 218.555 362.648 217.861C363.4 217.168 363.781 216.279 363.781 215.205ZM359.68 220.195V224.199H358.283V220.195C356.652 220.195 355.324 219.727 354.309 218.77C353.293 217.822 352.785 216.631 352.785 215.205C352.785 213.779 353.293 212.588 354.309 211.631C355.324 210.674 356.652 210.205 358.283 210.205V206.006H359.68V210.205C361.301 210.205 362.629 210.674 363.654 211.631C364.67 212.588 365.188 213.779 365.188 215.205C365.188 216.631 364.67 217.822 363.654 218.77C362.629 219.727 361.301 220.195 359.68 220.195ZM369.787 214.502L373.488 213.896C373.488 213.193 373.264 212.617 372.814 212.168C372.365 211.729 371.789 211.504 371.086 211.504C370.578 211.504 370.1 211.621 369.65 211.855C369.201 212.09 368.879 212.324 368.684 212.559L368.381 212.9L367.482 212.002C367.521 211.953 367.57 211.885 367.639 211.807C367.707 211.729 367.854 211.582 368.088 211.377C368.322 211.172 368.566 210.986 368.82 210.82C369.074 210.664 369.406 210.518 369.816 210.391C370.227 210.264 370.656 210.195 371.086 210.195C372.18 210.195 373.078 210.557 373.801 211.26C374.523 211.973 374.885 212.852 374.885 213.896V220H373.488V218.701C373.459 218.74 373.42 218.799 373.361 218.867C373.303 218.936 373.186 219.053 372.99 219.229C372.795 219.404 372.59 219.551 372.375 219.688C372.15 219.824 371.857 219.941 371.496 220.039C371.135 220.146 370.764 220.195 370.383 220.195C369.426 220.195 368.615 219.912 367.961 219.346C367.307 218.779 366.984 218.135 366.984 217.402C366.984 216.602 367.219 215.957 367.707 215.469C368.186 214.98 368.879 214.658 369.787 214.502ZM370.383 218.896C371.281 218.896 372.023 218.604 372.609 218.008C373.195 217.422 373.488 216.65 373.488 215.703V215.098L370.188 215.703C368.986 215.938 368.381 216.504 368.381 217.402C368.381 217.832 368.557 218.193 368.908 218.477C369.26 218.76 369.758 218.896 370.383 218.896ZM379.475 217.305V220H378.078V210.4H379.475V215.498L384.27 210.4H385.979L382.277 214.297L386.379 220H384.777L381.379 215.303L379.475 217.305ZM386.975 211.699V210.4H395.168V211.699H391.77V220H390.373V211.699H386.975ZM407.678 210.4V220H406.271V210.4H407.678ZM398.576 218.701H400.998C401.623 218.701 402.121 218.525 402.502 218.174C402.883 217.822 403.078 217.363 403.078 216.797C403.078 216.24 402.883 215.781 402.502 215.43C402.121 215.078 401.613 214.902 400.979 214.902H398.576V218.701ZM404.475 216.807C404.475 217.764 404.162 218.535 403.547 219.121C402.922 219.707 402.072 220 400.998 220H397.18V210.4H398.576V213.604H400.979C402.053 213.604 402.912 213.896 403.537 214.482C404.162 215.068 404.475 215.85 404.475 216.807ZM410.471 219.199C410.471 218.906 410.559 218.672 410.734 218.486C410.91 218.301 411.154 218.203 411.457 218.203C411.77 218.203 412.014 218.301 412.189 218.486C412.365 218.672 412.453 218.906 412.453 219.199C412.453 219.492 412.365 219.736 412.189 219.922C412.014 220.107 411.77 220.195 411.457 220.195C411.154 220.195 410.91 220.107 410.734 219.922C410.559 219.736 410.471 219.492 410.471 219.199Z" fill="#1D1717"/>
</g>
<defs>
<clipPath id="clip0_1_1516">
<rect width="546" height="339" fill="white"/>
</clipPath>
<clipPath id="clip1_1_1516">
<rect width="41" height="59" fill="white" transform="translate(176 93)"/>
</clipPath>
</defs>
</svg>
