<svg width="376" height="253" viewBox="0 0 376 253" fill="none" xmlns="http://www.w3.org/2000/svg">
<path d="M213.414 207.95C245.429 214.094 296.39 216.569 315 178.144C320.667 159.221 311 151.484 321 129.059C327.771 119.694 341.151 102.354 346.129 89.5691C352.806 72.4217 353.356 57.4357 346.129 39.9559C338.903 22.4761 318.553 10.0849 296.39 9.57591C251.319 8.51661 217.277 49.9258 172.814 59.3916C138.629 66.6511 103.001 53.8754 68.9698 61.9275C35.3249 69.8855 9.47212 100.176 12.3903 129.059C16.7763 172.509 66.458 184.203 109.667 172.64C153.243 160.93 172.561 200.114 213.414 207.95Z" fill="#FAFAFA"/>
<path d="M41.3984 99.5654V103.765C41.3984 104.888 41.7012 105.757 42.3164 106.362C42.9316 106.968 43.791 107.271 44.9043 107.271C45.334 107.271 45.7441 107.222 46.1543 107.124C46.5547 107.026 46.8965 106.899 47.1699 106.753C47.4434 106.606 47.6777 106.46 47.8828 106.304C48.0879 106.147 48.2441 106.03 48.3613 105.933L48.498 105.767V99.5654H50.002V113.569H48.498V107.466C48.3906 107.563 48.2344 107.671 48.0195 107.808C47.8047 107.944 47.3652 108.13 46.7109 108.345C46.0469 108.56 45.3828 108.667 44.6992 108.667C43.2148 108.667 42.0527 108.237 41.1934 107.358C40.334 106.489 39.9043 105.288 39.9043 103.765V99.5654H41.3984ZM62.1016 109.292L54.2988 109.272C54.3477 110.142 54.6992 110.894 55.3633 111.519C56.0273 112.153 56.7988 112.466 57.6973 112.466C58.293 112.466 58.8496 112.339 59.3672 112.065C59.875 111.802 60.2461 111.538 60.4609 111.265L60.8027 110.874L61.7012 111.772C61.6621 111.831 61.6035 111.899 61.5254 111.997C61.4473 112.095 61.291 112.251 61.0371 112.476C60.7832 112.7 60.5195 112.896 60.2266 113.071C59.9336 113.247 59.5625 113.403 59.1035 113.55C58.6445 113.696 58.1758 113.765 57.6973 113.765C56.3887 113.765 55.2559 113.286 54.3184 112.31C53.3711 111.333 52.9023 110.151 52.9023 108.765C52.9023 107.378 53.3613 106.206 54.2988 105.229C55.2363 104.253 56.3301 103.765 57.5996 103.765C58.9082 103.765 60.002 104.224 60.8809 105.132C61.7598 106.04 62.1992 107.183 62.1992 108.569L62.1016 109.292ZM57.5996 105.073C56.7598 105.073 56.0273 105.376 55.4023 105.962C54.7773 106.558 54.4062 107.261 54.2988 108.071H60.8027C60.6953 107.212 60.3438 106.489 59.748 105.923C59.1523 105.356 58.4395 105.073 57.5996 105.073ZM73.0977 106.47L69.5918 110.874L66.0957 106.47V113.569H64.6992V103.97H65.793L69.5918 108.765L73.3906 103.97H74.4941V113.569H73.0977V106.47ZM90.6074 108.97C90.6074 110.317 90.1484 111.46 89.2402 112.378C88.3223 113.306 87.2188 113.765 85.9102 113.765C84.4941 113.765 83.3418 113.228 82.4531 112.153C81.5547 111.079 81.1152 109.546 81.1152 107.573C81.1152 103.159 82.7461 100.659 86.0078 100.073C86.7109 99.9561 87.3457 99.8096 87.9023 99.6143C88.4492 99.4287 88.8203 99.2725 89.0156 99.1455L89.3086 98.9697L90.0117 100.073C89.4746 100.542 88.2051 100.981 86.2129 101.372C85.1582 101.587 84.2988 102.095 83.6543 102.876C83.0098 103.657 82.6582 104.722 82.6094 106.069C82.6289 106.021 82.6777 105.952 82.7363 105.864C82.7949 105.776 82.9316 105.63 83.1367 105.415C83.3418 105.2 83.5664 105.015 83.8203 104.839C84.0645 104.673 84.3867 104.517 84.7773 104.38C85.168 104.243 85.5781 104.165 86.0078 104.165C87.2773 104.165 88.3613 104.634 89.2598 105.571C90.1582 106.509 90.6074 107.642 90.6074 108.97ZM82.6094 108.97C82.6094 109.966 82.9316 110.796 83.5762 111.46C84.2207 112.134 85.002 112.466 85.9102 112.466C86.8086 112.466 87.5898 112.134 88.2344 111.46C88.8789 110.796 89.2109 109.966 89.2109 108.97C89.2109 107.983 88.8789 107.153 88.2344 106.479C87.5898 105.815 86.8086 105.474 85.9102 105.474C85.002 105.474 84.2207 105.815 83.5762 106.479C82.9316 107.153 82.6094 107.983 82.6094 108.97ZM100.91 108.774C100.91 107.739 100.559 106.86 99.875 106.147C99.1914 105.435 98.3613 105.073 97.4043 105.073C96.4473 105.073 95.6172 105.435 94.9336 106.147C94.25 106.86 93.9082 107.729 93.9082 108.765C93.9082 109.8 94.25 110.669 94.9336 111.392C95.6172 112.114 96.4473 112.466 97.4043 112.466C98.3613 112.466 99.1914 112.114 99.875 111.401C100.559 110.688 100.91 109.81 100.91 108.774ZM92.5117 108.774C92.5117 107.368 92.9805 106.187 93.9375 105.22C94.8945 104.253 96.0469 103.765 97.4141 103.765C98.7715 103.765 99.9238 104.253 100.871 105.22C101.828 106.187 102.297 107.368 102.297 108.774C102.297 110.181 101.828 111.362 100.871 112.329C99.9238 113.286 98.7715 113.774 97.4141 113.774C96.0469 113.774 94.8945 113.286 93.9375 112.329C92.9805 111.362 92.5117 110.181 92.5117 108.774ZM105.812 103.97L112.814 103.979V113.579H111.408V105.278H107.209V106.782C107.209 108.188 107.131 109.37 106.994 110.308C106.857 111.245 106.643 111.968 106.369 112.456C106.086 112.944 105.773 113.286 105.441 113.481C105.1 113.677 104.689 113.774 104.211 113.774C104.045 113.774 103.879 113.755 103.713 113.726C103.547 113.687 103.43 113.657 103.352 113.618L103.215 113.579V112.183C103.479 112.31 103.742 112.378 104.016 112.378C104.426 112.378 104.748 112.261 104.982 112.026C105.217 111.792 105.412 111.245 105.568 110.405C105.725 109.556 105.812 108.345 105.812 106.772V103.97ZM117.404 112.271H119.924C120.549 112.271 121.047 112.095 121.428 111.743C121.809 111.392 122.004 110.933 122.004 110.366C122.004 109.81 121.809 109.351 121.428 108.999C121.047 108.647 120.539 108.472 119.904 108.472H117.404V112.271ZM123.4 110.376C123.4 111.333 123.088 112.104 122.473 112.69C121.848 113.276 120.998 113.569 119.924 113.569H116.008V103.97H117.404V107.173H119.904C120.979 107.173 121.838 107.466 122.463 108.052C123.088 108.638 123.4 109.419 123.4 110.376ZM125.91 113.569V103.97H127.307V112.271H131.408V103.97H132.824V112.271H136.906V103.97H138.303V113.569H125.91ZM150.012 109.292L142.209 109.272C142.258 110.142 142.609 110.894 143.273 111.519C143.938 112.153 144.709 112.466 145.607 112.466C146.203 112.466 146.76 112.339 147.277 112.065C147.785 111.802 148.156 111.538 148.371 111.265L148.713 110.874L149.611 111.772C149.572 111.831 149.514 111.899 149.436 111.997C149.357 112.095 149.201 112.251 148.947 112.476C148.693 112.7 148.43 112.896 148.137 113.071C147.844 113.247 147.473 113.403 147.014 113.55C146.555 113.696 146.086 113.765 145.607 113.765C144.299 113.765 143.166 113.286 142.229 112.31C141.281 111.333 140.812 110.151 140.812 108.765C140.812 107.378 141.271 106.206 142.209 105.229C143.146 104.253 144.24 103.765 145.51 103.765C146.818 103.765 147.912 104.224 148.791 105.132C149.67 106.04 150.109 107.183 150.109 108.569L150.012 109.292ZM145.51 105.073C144.67 105.073 143.938 105.376 143.312 105.962C142.688 106.558 142.316 107.261 142.209 108.071H148.713C148.605 107.212 148.254 106.489 147.658 105.923C147.062 105.356 146.35 105.073 145.51 105.073ZM156.418 103.97H160.812C161.691 103.97 162.395 104.214 162.922 104.683C163.449 105.151 163.713 105.747 163.713 106.47C163.713 106.88 163.605 107.261 163.41 107.593C163.215 107.925 163.01 108.159 162.814 108.286L162.512 108.472C162.551 108.491 162.6 108.511 162.678 108.53C162.756 108.56 162.883 108.628 163.068 108.745C163.254 108.862 163.42 108.989 163.557 109.146C163.693 109.302 163.82 109.517 163.938 109.8C164.055 110.093 164.113 110.415 164.113 110.767C164.113 111.636 163.84 112.319 163.303 112.817C162.756 113.325 161.994 113.569 161.018 113.569H156.418V103.97ZM161.018 109.067H157.814V112.271H161.018C161.564 112.271 161.984 112.134 162.277 111.851C162.57 111.577 162.717 111.177 162.717 110.669C162.717 110.161 162.57 109.771 162.277 109.487C161.984 109.214 161.564 109.067 161.018 109.067ZM162.316 106.567C162.316 105.708 161.809 105.269 160.812 105.269H157.814V107.866H160.812C161.809 107.866 162.316 107.437 162.316 106.567ZM175.305 109.292L167.502 109.272C167.551 110.142 167.902 110.894 168.566 111.519C169.23 112.153 170.002 112.466 170.9 112.466C171.496 112.466 172.053 112.339 172.57 112.065C173.078 111.802 173.449 111.538 173.664 111.265L174.006 110.874L174.904 111.772C174.865 111.831 174.807 111.899 174.729 111.997C174.65 112.095 174.494 112.251 174.24 112.476C173.986 112.7 173.723 112.896 173.43 113.071C173.137 113.247 172.766 113.403 172.307 113.55C171.848 113.696 171.379 113.765 170.9 113.765C169.592 113.765 168.459 113.286 167.521 112.31C166.574 111.333 166.105 110.151 166.105 108.765C166.105 107.378 166.564 106.206 167.502 105.229C168.439 104.253 169.533 103.765 170.803 103.765C172.111 103.765 173.205 104.224 174.084 105.132C174.963 106.04 175.402 107.183 175.402 108.569L175.305 109.292ZM170.803 105.073C169.963 105.073 169.23 105.376 168.605 105.962C167.98 106.558 167.609 107.261 167.502 108.071H174.006C173.898 107.212 173.547 106.489 172.951 105.923C172.355 105.356 171.643 105.073 170.803 105.073ZM177.199 108.765C177.199 107.378 177.668 106.206 178.615 105.229C179.562 104.253 180.686 103.765 181.984 103.765C182.736 103.765 183.439 103.931 184.084 104.253C184.729 104.575 185.197 104.897 185.471 105.21L185.891 105.669L184.885 106.665C184.865 106.626 184.826 106.577 184.768 106.499C184.719 106.431 184.602 106.304 184.426 106.108C184.25 105.923 184.055 105.757 183.85 105.62C183.635 105.483 183.371 105.356 183.039 105.239C182.707 105.132 182.355 105.073 181.994 105.073C181.076 105.073 180.275 105.435 179.602 106.147C178.928 106.86 178.596 107.739 178.596 108.774C178.596 109.81 178.928 110.688 179.602 111.401C180.275 112.114 181.076 112.466 181.994 112.466C182.551 112.466 183.078 112.339 183.586 112.065C184.084 111.802 184.445 111.538 184.67 111.265L184.992 110.874L185.988 111.772C185.949 111.831 185.891 111.899 185.812 111.997C185.734 112.095 185.559 112.251 185.295 112.476C185.041 112.7 184.768 112.896 184.475 113.071C184.191 113.247 183.82 113.403 183.371 113.55C182.922 113.696 182.463 113.765 181.994 113.765C180.686 113.765 179.553 113.286 178.615 112.31C177.668 111.333 177.199 110.151 177.199 108.765ZM204.709 112.271V115.972H203.312V113.569H195.607V115.972H194.211V112.271H194.904C194.943 112.231 195.002 112.173 195.08 112.075C195.158 111.978 195.305 111.763 195.5 111.431C195.695 111.099 195.861 110.747 196.018 110.356C196.174 109.966 196.311 109.448 196.428 108.804C196.545 108.159 196.613 107.476 196.613 106.772V103.97H203.205V112.271H204.709ZM198.01 105.269L198 106.772C198 107.866 197.873 108.872 197.6 109.78C197.336 110.698 197.072 111.343 196.809 111.714L196.408 112.271H201.809V105.269H198.01ZM209.006 108.071L212.707 107.466C212.707 106.763 212.482 106.187 212.033 105.737C211.584 105.298 211.008 105.073 210.305 105.073C209.797 105.073 209.318 105.19 208.869 105.425C208.42 105.659 208.098 105.894 207.902 106.128L207.6 106.47L206.701 105.571C206.74 105.522 206.789 105.454 206.857 105.376C206.926 105.298 207.072 105.151 207.307 104.946C207.541 104.741 207.785 104.556 208.039 104.39C208.293 104.233 208.625 104.087 209.035 103.96C209.445 103.833 209.875 103.765 210.305 103.765C211.398 103.765 212.297 104.126 213.02 104.829C213.742 105.542 214.104 106.421 214.104 107.466V113.569H212.707V112.271C212.678 112.31 212.639 112.368 212.58 112.437C212.521 112.505 212.404 112.622 212.209 112.798C212.014 112.974 211.809 113.12 211.594 113.257C211.369 113.394 211.076 113.511 210.715 113.608C210.354 113.716 209.982 113.765 209.602 113.765C208.645 113.765 207.834 113.481 207.18 112.915C206.525 112.349 206.203 111.704 206.203 110.972C206.203 110.171 206.438 109.526 206.926 109.038C207.404 108.55 208.098 108.228 209.006 108.071ZM209.602 112.466C210.5 112.466 211.242 112.173 211.828 111.577C212.414 110.991 212.707 110.22 212.707 109.272V108.667L209.406 109.272C208.205 109.507 207.6 110.073 207.6 110.972C207.6 111.401 207.775 111.763 208.127 112.046C208.479 112.329 208.977 112.466 209.602 112.466ZM224.191 113.569V109.37H218.693V113.569H217.297V103.97H218.693V108.071H224.191V103.97H225.598V113.569H224.191ZM235.695 113.569V109.37H230.197V113.569H228.801V103.97H230.197V108.071H235.695V103.97H237.102V113.569H235.695ZM250.803 103.97V113.569H249.396V103.97H250.803ZM241.701 112.271H244.123C244.748 112.271 245.246 112.095 245.627 111.743C246.008 111.392 246.203 110.933 246.203 110.366C246.203 109.81 246.008 109.351 245.627 108.999C245.246 108.647 244.738 108.472 244.104 108.472H241.701V112.271ZM247.6 110.376C247.6 111.333 247.287 112.104 246.672 112.69C246.047 113.276 245.197 113.569 244.123 113.569H240.305V103.97H241.701V107.173H244.104C245.178 107.173 246.037 107.466 246.662 108.052C247.287 108.638 247.6 109.419 247.6 110.376ZM257.189 109.673L254.396 113.569H252.688L256.291 108.569L252.99 103.97H254.689L257.189 107.466L259.689 103.97H261.389L258.088 108.569L261.691 113.569H259.992L257.189 109.673ZM263.898 111.772L265.305 112.573L263 116.167L262.102 115.669L263.898 111.772ZM270.51 105.269V103.97H278.703V105.269H275.305V113.569H273.908V105.269H270.51ZM289.211 109.292L281.408 109.272C281.457 110.142 281.809 110.894 282.473 111.519C283.137 112.153 283.908 112.466 284.807 112.466C285.402 112.466 285.959 112.339 286.477 112.065C286.984 111.802 287.355 111.538 287.57 111.265L287.912 110.874L288.811 111.772C288.771 111.831 288.713 111.899 288.635 111.997C288.557 112.095 288.4 112.251 288.146 112.476C287.893 112.7 287.629 112.896 287.336 113.071C287.043 113.247 286.672 113.403 286.213 113.55C285.754 113.696 285.285 113.765 284.807 113.765C283.498 113.765 282.365 113.286 281.428 112.31C280.48 111.333 280.012 110.151 280.012 108.765C280.012 107.378 280.471 106.206 281.408 105.229C282.346 104.253 283.439 103.765 284.709 103.765C286.018 103.765 287.111 104.224 287.99 105.132C288.869 106.04 289.309 107.183 289.309 108.569L289.211 109.292ZM284.709 105.073C283.869 105.073 283.137 105.376 282.512 105.962C281.887 106.558 281.516 107.261 281.408 108.071H287.912C287.805 107.212 287.453 106.489 286.857 105.923C286.262 105.356 285.549 105.073 284.709 105.073ZM300.207 106.47L296.701 110.874L293.205 106.47V113.569H291.809V103.97H292.902L296.701 108.765L300.5 103.97H301.604V113.569H300.207V106.47ZM48.5957 140.97C48.5957 142.317 48.1367 143.46 47.2285 144.378C46.3105 145.306 45.207 145.765 43.8984 145.765C42.4824 145.765 41.3301 145.228 40.4414 144.153C39.543 143.079 39.1035 141.546 39.1035 139.573C39.1035 135.159 40.7344 132.659 43.9961 132.073C44.6992 131.956 45.334 131.81 45.8906 131.614C46.4375 131.429 46.8086 131.272 47.0039 131.146L47.2969 130.97L48 132.073C47.4629 132.542 46.1934 132.981 44.2012 133.372C43.1465 133.587 42.2871 134.095 41.6426 134.876C40.998 135.657 40.6465 136.722 40.5977 138.069C40.6172 138.021 40.666 137.952 40.7246 137.864C40.7832 137.776 40.9199 137.63 41.125 137.415C41.3301 137.2 41.5547 137.015 41.8086 136.839C42.0527 136.673 42.375 136.517 42.7656 136.38C43.1562 136.243 43.5664 136.165 43.9961 136.165C45.2656 136.165 46.3496 136.634 47.248 137.571C48.1465 138.509 48.5957 139.642 48.5957 140.97ZM40.5977 140.97C40.5977 141.966 40.9199 142.796 41.5645 143.46C42.209 144.134 42.9902 144.466 43.8984 144.466C44.7969 144.466 45.5781 144.134 46.2227 143.46C46.8672 142.796 47.1992 141.966 47.1992 140.97C47.1992 139.983 46.8672 139.153 46.2227 138.479C45.5781 137.815 44.7969 137.474 43.8984 137.474C42.9902 137.474 42.209 137.815 41.5645 138.479C40.9199 139.153 40.5977 139.983 40.5977 140.97ZM58.8984 140.774C58.8984 139.739 58.5469 138.86 57.8633 138.147C57.1797 137.435 56.3496 137.073 55.3926 137.073C54.4355 137.073 53.6055 137.435 52.9219 138.147C52.2383 138.86 51.8965 139.729 51.8965 140.765C51.8965 141.8 52.2383 142.669 52.9219 143.392C53.6055 144.114 54.4355 144.466 55.3926 144.466C56.3496 144.466 57.1797 144.114 57.8633 143.401C58.5469 142.688 58.8984 141.81 58.8984 140.774ZM50.5 140.774C50.5 139.368 50.9688 138.187 51.9258 137.22C52.8828 136.253 54.0352 135.765 55.4023 135.765C56.7598 135.765 57.9121 136.253 58.8594 137.22C59.8164 138.187 60.2852 139.368 60.2852 140.774C60.2852 142.181 59.8164 143.362 58.8594 144.329C57.9121 145.286 56.7598 145.774 55.4023 145.774C54.0352 145.774 52.8828 145.286 51.9258 144.329C50.9688 143.362 50.5 142.181 50.5 140.774ZM63.8008 135.97L70.8027 135.979V145.579H69.3965V137.278H65.1973V138.782C65.1973 140.188 65.1191 141.37 64.9824 142.308C64.8457 143.245 64.6309 143.968 64.3574 144.456C64.0742 144.944 63.7617 145.286 63.4297 145.481C63.0879 145.677 62.6777 145.774 62.1992 145.774C62.0332 145.774 61.8672 145.755 61.7012 145.726C61.5352 145.687 61.418 145.657 61.3398 145.618L61.2031 145.579V144.183C61.4668 144.31 61.7305 144.378 62.0039 144.378C62.4141 144.378 62.7363 144.261 62.9707 144.026C63.2051 143.792 63.4004 143.245 63.5566 142.405C63.7129 141.556 63.8008 140.345 63.8008 138.772V135.97ZM75.3926 144.271H77.9121C78.5371 144.271 79.0352 144.095 79.416 143.743C79.7969 143.392 79.9922 142.933 79.9922 142.366C79.9922 141.81 79.7969 141.351 79.416 140.999C79.0352 140.647 78.5273 140.472 77.8926 140.472H75.3926V144.271ZM81.3887 142.376C81.3887 143.333 81.0762 144.104 80.4609 144.69C79.8359 145.276 78.9863 145.569 77.9121 145.569H73.9961V135.97H75.3926V139.173H77.8926C78.9668 139.173 79.8262 139.466 80.4512 140.052C81.0762 140.638 81.3887 141.419 81.3887 142.376ZM83.8984 145.569V135.97H85.2949V144.271H89.3965V135.97H90.8125V144.271H94.8945V135.97H96.291V145.569H83.8984ZM108 141.292L100.197 141.272C100.246 142.142 100.598 142.894 101.262 143.519C101.926 144.153 102.697 144.466 103.596 144.466C104.191 144.466 104.748 144.339 105.266 144.065C105.773 143.802 106.145 143.538 106.359 143.265L106.701 142.874L107.6 143.772C107.561 143.831 107.502 143.899 107.424 143.997C107.346 144.095 107.189 144.251 106.936 144.476C106.682 144.7 106.418 144.896 106.125 145.071C105.832 145.247 105.461 145.403 105.002 145.55C104.543 145.696 104.074 145.765 103.596 145.765C102.287 145.765 101.154 145.286 100.217 144.31C99.2695 143.333 98.8008 142.151 98.8008 140.765C98.8008 139.378 99.2598 138.206 100.197 137.229C101.135 136.253 102.229 135.765 103.498 135.765C104.807 135.765 105.9 136.224 106.779 137.132C107.658 138.04 108.098 139.183 108.098 140.569L108 141.292ZM103.498 137.073C102.658 137.073 101.926 137.376 101.301 137.962C100.676 138.558 100.305 139.261 100.197 140.071H106.701C106.594 139.212 106.242 138.489 105.646 137.923C105.051 137.356 104.338 137.073 103.498 137.073ZM121.604 135.97H122.805V145.569H121.398V138.372L115.598 145.569H114.406V135.97H115.803V143.167L121.604 135.97ZM129.201 141.673L126.408 145.569H124.699L128.303 140.569L125.002 135.97H126.701L129.201 139.466L131.701 135.97H133.4L130.1 140.569L133.703 145.569H132.004L129.201 141.673ZM141.525 146.966L142.023 145.569L138.117 135.97H139.621L142.727 143.772L145.822 135.97H147.326L142.922 146.966C142.521 147.981 142.092 148.704 141.643 149.134C141.184 149.563 140.607 149.769 139.914 149.769C139.699 149.769 139.494 149.759 139.299 149.72C139.104 149.69 138.947 149.651 138.85 149.612L138.713 149.573V148.265C139.045 148.401 139.377 148.47 139.709 148.47C140.559 148.47 141.164 147.972 141.525 146.966ZM155.627 135.97V137.269H150.627V145.569H149.23V135.97H155.627ZM158.43 135.97L165.432 135.979V145.579H164.025V137.278H159.826V138.782C159.826 140.188 159.748 141.37 159.611 142.308C159.475 143.245 159.26 143.968 158.986 144.456C158.703 144.944 158.391 145.286 158.059 145.481C157.717 145.677 157.307 145.774 156.828 145.774C156.662 145.774 156.496 145.755 156.33 145.726C156.164 145.687 156.047 145.657 155.969 145.618L155.832 145.579V144.183C156.096 144.31 156.359 144.378 156.633 144.378C157.043 144.378 157.365 144.261 157.6 144.026C157.834 143.792 158.029 143.245 158.186 142.405C158.342 141.556 158.43 140.345 158.43 138.772V135.97ZM177.121 141.292L169.318 141.272C169.367 142.142 169.719 142.894 170.383 143.519C171.047 144.153 171.818 144.466 172.717 144.466C173.312 144.466 173.869 144.339 174.387 144.065C174.895 143.802 175.266 143.538 175.48 143.265L175.822 142.874L176.721 143.772C176.682 143.831 176.623 143.899 176.545 143.997C176.467 144.095 176.311 144.251 176.057 144.476C175.803 144.7 175.539 144.896 175.246 145.071C174.953 145.247 174.582 145.403 174.123 145.55C173.664 145.696 173.195 145.765 172.717 145.765C171.408 145.765 170.275 145.286 169.338 144.31C168.391 143.333 167.922 142.151 167.922 140.765C167.922 139.378 168.381 138.206 169.318 137.229C170.256 136.253 171.35 135.765 172.619 135.765C173.928 135.765 175.021 136.224 175.9 137.132C176.779 138.04 177.219 139.183 177.219 140.569L177.121 141.292ZM172.619 137.073C171.779 137.073 171.047 137.376 170.422 137.962C169.797 138.558 169.426 139.261 169.318 140.071H175.822C175.715 139.212 175.363 138.489 174.768 137.923C174.172 137.356 173.459 137.073 172.619 137.073ZM181.115 140.774C181.115 141.761 181.457 142.62 182.16 143.362C182.863 144.104 183.645 144.466 184.514 144.466C185.334 144.466 186.076 144.114 186.73 143.392C187.385 142.669 187.717 141.8 187.717 140.774C187.717 139.749 187.385 138.88 186.73 138.157C186.076 137.435 185.334 137.073 184.514 137.073C183.645 137.073 182.863 137.444 182.16 138.187C181.457 138.929 181.115 139.788 181.115 140.774ZM181.115 144.065V149.778H179.719V135.979H181.115V137.483C181.135 137.444 181.184 137.376 181.252 137.298C181.32 137.22 181.457 137.083 181.672 136.888C181.887 136.692 182.111 136.517 182.365 136.36C182.609 136.204 182.922 136.067 183.312 135.95C183.703 135.833 184.104 135.774 184.514 135.774C185.734 135.774 186.809 136.263 187.727 137.249C188.645 138.226 189.113 139.407 189.113 140.774C189.113 142.142 188.654 143.323 187.736 144.3C186.818 145.276 185.744 145.765 184.514 145.765C184.104 145.765 183.703 145.706 183.322 145.589C182.941 145.472 182.619 145.335 182.365 145.169C182.102 145.013 181.877 144.847 181.682 144.681C181.486 144.515 181.35 144.368 181.252 144.251L181.115 144.065ZM199.309 140.774C199.309 139.739 198.957 138.86 198.273 138.147C197.59 137.435 196.76 137.073 195.803 137.073C194.846 137.073 194.016 137.435 193.332 138.147C192.648 138.86 192.307 139.729 192.307 140.765C192.307 141.8 192.648 142.669 193.332 143.392C194.016 144.114 194.846 144.466 195.803 144.466C196.76 144.466 197.59 144.114 198.273 143.401C198.957 142.688 199.309 141.81 199.309 140.774ZM190.91 140.774C190.91 139.368 191.379 138.187 192.336 137.22C193.293 136.253 194.445 135.765 195.812 135.765C197.17 135.765 198.322 136.253 199.27 137.22C200.227 138.187 200.695 139.368 200.695 140.774C200.695 142.181 200.227 143.362 199.27 144.329C198.322 145.286 197.17 145.774 195.812 145.774C194.445 145.774 193.293 145.286 192.336 144.329C191.379 143.362 190.91 142.181 190.91 140.774ZM212.111 144.271V147.972H210.715V145.569H203.01V147.972H201.613V144.271H202.307C202.346 144.231 202.404 144.173 202.482 144.075C202.561 143.978 202.707 143.763 202.902 143.431C203.098 143.099 203.264 142.747 203.42 142.356C203.576 141.966 203.713 141.448 203.83 140.804C203.947 140.159 204.016 139.476 204.016 138.772V135.97H210.607V144.271H212.111ZM205.412 137.269L205.402 138.772C205.402 139.866 205.275 140.872 205.002 141.78C204.738 142.698 204.475 143.343 204.211 143.714L203.811 144.271H209.211V137.269H205.412ZM221.203 145.569V141.37H215.705V145.569H214.309V135.97H215.705V140.071H221.203V135.97H222.609V145.569H221.203ZM236.311 135.97V145.569H234.904V135.97H236.311ZM227.209 144.271H229.631C230.256 144.271 230.754 144.095 231.135 143.743C231.516 143.392 231.711 142.933 231.711 142.366C231.711 141.81 231.516 141.351 231.135 140.999C230.754 140.647 230.246 140.472 229.611 140.472H227.209V144.271ZM233.107 142.376C233.107 143.333 232.795 144.104 232.18 144.69C231.555 145.276 230.705 145.569 229.631 145.569H225.812V135.97H227.209V139.173H229.611C230.686 139.173 231.545 139.466 232.17 140.052C232.795 140.638 233.107 141.419 233.107 142.376ZM243.703 133.265C244.211 133.265 244.602 133.118 244.885 132.825C245.158 132.532 245.305 132.112 245.305 131.565H246.398C246.398 132.366 246.145 133.021 245.646 133.519C245.148 134.026 244.504 134.271 243.703 134.271C242.902 134.271 242.248 134.026 241.75 133.519C241.242 133.021 240.998 132.366 240.998 131.565H242.102C242.102 132.112 242.238 132.532 242.521 132.825C242.795 133.118 243.195 133.265 243.703 133.265ZM246.701 135.97H247.902V145.569H246.496V138.372L240.695 145.569H239.504V135.97H240.9V143.167L246.701 135.97ZM254.211 140.765C254.211 139.378 254.68 138.206 255.627 137.229C256.574 136.253 257.697 135.765 258.996 135.765C259.748 135.765 260.451 135.931 261.096 136.253C261.74 136.575 262.209 136.897 262.482 137.21L262.902 137.669L261.896 138.665C261.877 138.626 261.838 138.577 261.779 138.499C261.73 138.431 261.613 138.304 261.438 138.108C261.262 137.923 261.066 137.757 260.861 137.62C260.646 137.483 260.383 137.356 260.051 137.239C259.719 137.132 259.367 137.073 259.006 137.073C258.088 137.073 257.287 137.435 256.613 138.147C255.939 138.86 255.607 139.739 255.607 140.774C255.607 141.81 255.939 142.688 256.613 143.401C257.287 144.114 258.088 144.466 259.006 144.466C259.562 144.466 260.09 144.339 260.598 144.065C261.096 143.802 261.457 143.538 261.682 143.265L262.004 142.874L263 143.772C262.961 143.831 262.902 143.899 262.824 143.997C262.746 144.095 262.57 144.251 262.307 144.476C262.053 144.7 261.779 144.896 261.486 145.071C261.203 145.247 260.832 145.403 260.383 145.55C259.934 145.696 259.475 145.765 259.006 145.765C257.697 145.765 256.564 145.286 255.627 144.31C254.68 143.333 254.211 142.151 254.211 140.765ZM266.203 135.97L273.205 135.979V145.579H271.799V137.278H267.6V138.782C267.6 140.188 267.521 141.37 267.385 142.308C267.248 143.245 267.033 143.968 266.76 144.456C266.477 144.944 266.164 145.286 265.832 145.481C265.49 145.677 265.08 145.774 264.602 145.774C264.436 145.774 264.27 145.755 264.104 145.726C263.938 145.687 263.82 145.657 263.742 145.618L263.605 145.579V144.183C263.869 144.31 264.133 144.378 264.406 144.378C264.816 144.378 265.139 144.261 265.373 144.026C265.607 143.792 265.803 143.245 265.959 142.405C266.115 141.556 266.203 140.345 266.203 138.772V135.97ZM284.895 141.292L277.092 141.272C277.141 142.142 277.492 142.894 278.156 143.519C278.82 144.153 279.592 144.466 280.49 144.466C281.086 144.466 281.643 144.339 282.16 144.065C282.668 143.802 283.039 143.538 283.254 143.265L283.596 142.874L284.494 143.772C284.455 143.831 284.396 143.899 284.318 143.997C284.24 144.095 284.084 144.251 283.83 144.476C283.576 144.7 283.312 144.896 283.02 145.071C282.727 145.247 282.355 145.403 281.896 145.55C281.438 145.696 280.969 145.765 280.49 145.765C279.182 145.765 278.049 145.286 277.111 144.31C276.164 143.333 275.695 142.151 275.695 140.765C275.695 139.378 276.154 138.206 277.092 137.229C278.029 136.253 279.123 135.765 280.393 135.765C281.701 135.765 282.795 136.224 283.674 137.132C284.553 138.04 284.992 139.183 284.992 140.569L284.895 141.292ZM280.393 137.073C279.553 137.073 278.82 137.376 278.195 137.962C277.57 138.558 277.199 139.261 277.092 140.071H283.596C283.488 139.212 283.137 138.489 282.541 137.923C281.945 137.356 281.232 137.073 280.393 137.073ZM296.389 144.271V147.972H294.992V145.569H287.287V147.972H285.891V144.271H286.584C286.623 144.231 286.682 144.173 286.76 144.075C286.838 143.978 286.984 143.763 287.18 143.431C287.375 143.099 287.541 142.747 287.697 142.356C287.854 141.966 287.99 141.448 288.107 140.804C288.225 140.159 288.293 139.476 288.293 138.772V135.97H294.885V144.271H296.389ZM289.689 137.269L289.68 138.772C289.68 139.866 289.553 140.872 289.279 141.78C289.016 142.698 288.752 143.343 288.488 143.714L288.088 144.271H293.488V137.269H289.689ZM298.186 144.769C298.186 144.476 298.273 144.241 298.449 144.056C298.625 143.87 298.869 143.772 299.172 143.772C299.484 143.772 299.729 143.87 299.904 144.056C300.08 144.241 300.168 144.476 300.168 144.769C300.168 145.062 300.08 145.306 299.904 145.491C299.729 145.677 299.484 145.765 299.172 145.765C298.869 145.765 298.625 145.677 298.449 145.491C298.273 145.306 298.186 145.062 298.186 144.769Z" fill="#1D1717"/>
</svg>
