<svg width="547" height="379" viewBox="0 0 547 379" fill="none" xmlns="http://www.w3.org/2000/svg">
<path d="M313.853 318.403C366.323 328.616 419.93 316.137 458.425 270.582C488.001 235.581 468.284 212.582 480.346 172.699C497.86 153.582 505.171 139.582 509.69 121.582C518.005 88.4647 507.161 72.2111 486.029 55.5815C450.538 33.5815 429.835 33.2389 393.359 39.5817C324.348 51.5817 320.184 55.697 247.312 71.4333C191.285 83.5018 164.777 58.047 109.002 71.4333C53.8606 84.6629 13.5204 141.683 18.3031 189.699C25.4915 261.933 66.776 318.921 137.593 299.699C199.702 292.699 246.897 305.376 313.853 318.403Z" fill="#FAFAFA"/>
<path d="M92.8047 104.5C92.8633 104.529 92.9512 104.568 93.0488 104.607C93.1465 104.656 93.3223 104.783 93.5957 104.979C93.8594 105.184 94.0938 105.408 94.2988 105.643C94.4941 105.887 94.6797 106.219 94.8457 106.648C95.0117 107.078 95.0996 107.527 95.0996 107.996C95.0996 109.158 94.6992 110.115 93.9082 110.867C93.1074 111.629 92.0723 112 90.8027 112H85.0996V97.9961H90.5C91.6328 97.9961 92.5605 98.3477 93.293 99.041C94.0254 99.7344 94.3965 100.584 94.3965 101.6C94.3965 102.01 94.3379 102.391 94.2402 102.742C94.1328 103.094 93.9961 103.367 93.8398 103.572C93.6738 103.787 93.5078 103.963 93.3516 104.109C93.1953 104.256 93.0586 104.354 92.9609 104.402L92.8047 104.5ZM86.6035 110.604H90.8027C91.6426 110.604 92.3164 110.359 92.8242 109.871C93.332 109.383 93.5957 108.758 93.5957 107.996C93.5957 107.225 93.332 106.57 92.8145 106.023C92.2969 105.477 91.623 105.203 90.8027 105.203H86.6035V110.604ZM90.5 99.4023H86.6035V103.885H90.5C91.2422 103.885 91.8281 103.689 92.2578 103.279C92.6875 102.869 92.9023 102.312 92.9023 101.6C92.9023 100.955 92.6875 100.428 92.2578 100.018C91.8281 99.6074 91.2422 99.4023 90.5 99.4023ZM105.598 107.205C105.598 106.17 105.246 105.291 104.562 104.578C103.879 103.865 103.049 103.504 102.092 103.504C101.135 103.504 100.305 103.865 99.6211 104.578C98.9375 105.291 98.5957 106.16 98.5957 107.195C98.5957 108.23 98.9375 109.1 99.6211 109.822C100.305 110.545 101.135 110.896 102.092 110.896C103.049 110.896 103.879 110.545 104.562 109.832C105.246 109.119 105.598 108.24 105.598 107.205ZM97.1992 107.205C97.1992 105.799 97.668 104.617 98.625 103.65C99.582 102.684 100.734 102.195 102.102 102.195C103.459 102.195 104.611 102.684 105.559 103.65C106.516 104.617 106.984 105.799 106.984 107.205C106.984 108.611 106.516 109.793 105.559 110.76C104.611 111.717 103.459 112.205 102.102 112.205C100.734 112.205 99.582 111.717 98.625 110.76C97.668 109.793 97.1992 108.611 97.1992 107.205ZM117.199 107.205C117.199 106.17 116.848 105.291 116.164 104.578C115.48 103.865 114.65 103.504 113.693 103.504C112.736 103.504 111.906 103.865 111.223 104.578C110.539 105.291 110.197 106.16 110.197 107.195C110.197 108.23 110.539 109.1 111.223 109.822C111.906 110.545 112.736 110.896 113.693 110.896C114.65 110.896 115.48 110.545 116.164 109.832C116.848 109.119 117.199 108.24 117.199 107.205ZM108.801 107.205C108.801 105.799 109.27 104.617 110.227 103.65C111.184 102.684 112.336 102.195 113.703 102.195C115.061 102.195 116.213 102.684 117.16 103.65C118.117 104.617 118.586 105.799 118.586 107.205C118.586 108.611 118.117 109.793 117.16 110.76C116.213 111.717 115.061 112.205 113.703 112.205C112.336 112.205 111.184 111.717 110.227 110.76C109.27 109.793 108.801 108.611 108.801 107.205ZM130.197 107.4C130.197 108.748 129.738 109.891 128.83 110.809C127.912 111.736 126.809 112.195 125.5 112.195C124.084 112.195 122.932 111.658 122.043 110.584C121.145 109.51 120.705 107.977 120.705 106.004C120.705 101.59 122.336 99.0898 125.598 98.5039C126.301 98.3867 126.936 98.2402 127.492 98.0449C128.039 97.8594 128.41 97.7031 128.605 97.5762L128.898 97.4004L129.602 98.5039C129.064 98.9727 127.795 99.4121 125.803 99.8027C124.748 100.018 123.889 100.525 123.244 101.307C122.6 102.088 122.248 103.152 122.199 104.5C122.219 104.451 122.268 104.383 122.326 104.295C122.385 104.207 122.521 104.061 122.727 103.846C122.932 103.631 123.156 103.445 123.41 103.27C123.654 103.104 123.977 102.947 124.367 102.811C124.758 102.674 125.168 102.596 125.598 102.596C126.867 102.596 127.951 103.064 128.85 104.002C129.748 104.939 130.197 106.072 130.197 107.4ZM122.199 107.4C122.199 108.396 122.521 109.227 123.166 109.891C123.811 110.564 124.592 110.896 125.5 110.896C126.398 110.896 127.18 110.564 127.824 109.891C128.469 109.227 128.801 108.396 128.801 107.4C128.801 106.414 128.469 105.584 127.824 104.91C127.18 104.246 126.398 103.904 125.5 103.904C124.592 103.904 123.811 104.246 123.166 104.91C122.521 105.584 122.199 106.414 122.199 107.4ZM132.805 112V102.4H134.201V110.701H138.303V102.4H139.719V110.701H143.801V102.4H145.197V110.701H146.701V114.402H145.305V112H132.805ZM157.395 107.723L149.592 107.703C149.641 108.572 149.992 109.324 150.656 109.949C151.32 110.584 152.092 110.896 152.99 110.896C153.586 110.896 154.143 110.77 154.66 110.496C155.168 110.232 155.539 109.969 155.754 109.695L156.096 109.305L156.994 110.203C156.955 110.262 156.896 110.33 156.818 110.428C156.74 110.525 156.584 110.682 156.33 110.906C156.076 111.131 155.812 111.326 155.52 111.502C155.227 111.678 154.855 111.834 154.396 111.98C153.938 112.127 153.469 112.195 152.99 112.195C151.682 112.195 150.549 111.717 149.611 110.74C148.664 109.764 148.195 108.582 148.195 107.195C148.195 105.809 148.654 104.637 149.592 103.66C150.529 102.684 151.623 102.195 152.893 102.195C154.201 102.195 155.295 102.654 156.174 103.562C157.053 104.471 157.492 105.613 157.492 107L157.395 107.723ZM152.893 103.504C152.053 103.504 151.32 103.807 150.695 104.393C150.07 104.988 149.699 105.691 149.592 106.502H156.096C155.988 105.643 155.637 104.92 155.041 104.354C154.445 103.787 153.732 103.504 152.893 103.504ZM160.285 110.203L161.691 111.004L159.387 114.598L158.488 114.1L160.285 110.203ZM167.395 107.195C167.395 105.809 167.863 104.637 168.811 103.66C169.758 102.684 170.881 102.195 172.18 102.195C172.932 102.195 173.635 102.361 174.279 102.684C174.924 103.006 175.393 103.328 175.666 103.641L176.086 104.1L175.08 105.096C175.061 105.057 175.021 105.008 174.963 104.93C174.914 104.861 174.797 104.734 174.621 104.539C174.445 104.354 174.25 104.188 174.045 104.051C173.83 103.914 173.566 103.787 173.234 103.67C172.902 103.562 172.551 103.504 172.189 103.504C171.271 103.504 170.471 103.865 169.797 104.578C169.123 105.291 168.791 106.17 168.791 107.205C168.791 108.24 169.123 109.119 169.797 109.832C170.471 110.545 171.271 110.896 172.189 110.896C172.746 110.896 173.273 110.77 173.781 110.496C174.279 110.232 174.641 109.969 174.865 109.695L175.188 109.305L176.184 110.203C176.145 110.262 176.086 110.33 176.008 110.428C175.93 110.525 175.754 110.682 175.49 110.906C175.236 111.131 174.963 111.326 174.67 111.502C174.387 111.678 174.016 111.834 173.566 111.98C173.117 112.127 172.658 112.195 172.189 112.195C170.881 112.195 169.748 111.717 168.811 110.74C167.863 109.764 167.395 108.582 167.395 107.195ZM185.285 112V103.719H179.787V112H178.391V102.4H186.691V112H185.285ZM197.59 107.205C197.59 106.17 197.238 105.291 196.555 104.578C195.871 103.865 195.041 103.504 194.084 103.504C193.127 103.504 192.297 103.865 191.613 104.578C190.93 105.291 190.588 106.16 190.588 107.195C190.588 108.23 190.93 109.1 191.613 109.822C192.297 110.545 193.127 110.896 194.084 110.896C195.041 110.896 195.871 110.545 196.555 109.832C197.238 109.119 197.59 108.24 197.59 107.205ZM189.191 107.205C189.191 105.799 189.66 104.617 190.617 103.65C191.574 102.684 192.727 102.195 194.094 102.195C195.451 102.195 196.604 102.684 197.551 103.65C198.508 104.617 198.977 105.799 198.977 107.205C198.977 108.611 198.508 109.793 197.551 110.76C196.604 111.717 195.451 112.205 194.094 112.205C192.727 112.205 191.574 111.717 190.617 110.76C189.66 109.793 189.191 108.611 189.191 107.205ZM200.793 107.195C200.793 105.809 201.262 104.637 202.209 103.66C203.156 102.684 204.279 102.195 205.578 102.195C206.33 102.195 207.033 102.361 207.678 102.684C208.322 103.006 208.791 103.328 209.064 103.641L209.484 104.1L208.479 105.096C208.459 105.057 208.42 105.008 208.361 104.93C208.312 104.861 208.195 104.734 208.02 104.539C207.844 104.354 207.648 104.188 207.443 104.051C207.229 103.914 206.965 103.787 206.633 103.67C206.301 103.562 205.949 103.504 205.588 103.504C204.67 103.504 203.869 103.865 203.195 104.578C202.521 105.291 202.189 106.17 202.189 107.205C202.189 108.24 202.521 109.119 203.195 109.832C203.869 110.545 204.67 110.896 205.588 110.896C206.145 110.896 206.672 110.77 207.18 110.496C207.678 110.232 208.039 109.969 208.264 109.695L208.586 109.305L209.582 110.203C209.543 110.262 209.484 110.33 209.406 110.428C209.328 110.525 209.152 110.682 208.889 110.906C208.635 111.131 208.361 111.326 208.068 111.502C207.785 111.678 207.414 111.834 206.965 111.98C206.516 112.127 206.057 112.195 205.588 112.195C204.279 112.195 203.146 111.717 202.209 110.74C201.262 109.764 200.793 108.582 200.793 107.195ZM219.484 107.205C219.484 106.17 219.133 105.291 218.449 104.578C217.766 103.865 216.936 103.504 215.979 103.504C215.021 103.504 214.191 103.865 213.508 104.578C212.824 105.291 212.482 106.16 212.482 107.195C212.482 108.23 212.824 109.1 213.508 109.822C214.191 110.545 215.021 110.896 215.979 110.896C216.936 110.896 217.766 110.545 218.449 109.832C219.133 109.119 219.484 108.24 219.484 107.205ZM211.086 107.205C211.086 105.799 211.555 104.617 212.512 103.65C213.469 102.684 214.621 102.195 215.988 102.195C217.346 102.195 218.498 102.684 219.445 103.65C220.402 104.617 220.871 105.799 220.871 107.205C220.871 108.611 220.402 109.793 219.445 110.76C218.498 111.717 217.346 112.205 215.988 112.205C214.621 112.205 213.469 111.717 212.512 110.76C211.555 109.793 211.086 108.611 211.086 107.205ZM232.482 107.4C232.482 108.748 232.023 109.891 231.115 110.809C230.197 111.736 229.094 112.195 227.785 112.195C226.369 112.195 225.217 111.658 224.328 110.584C223.43 109.51 222.99 107.977 222.99 106.004C222.99 101.59 224.621 99.0898 227.883 98.5039C228.586 98.3867 229.221 98.2402 229.777 98.0449C230.324 97.8594 230.695 97.7031 230.891 97.5762L231.184 97.4004L231.887 98.5039C231.35 98.9727 230.08 99.4121 228.088 99.8027C227.033 100.018 226.174 100.525 225.529 101.307C224.885 102.088 224.533 103.152 224.484 104.5C224.504 104.451 224.553 104.383 224.611 104.295C224.67 104.207 224.807 104.061 225.012 103.846C225.217 103.631 225.441 103.445 225.695 103.27C225.939 103.104 226.262 102.947 226.652 102.811C227.043 102.674 227.453 102.596 227.883 102.596C229.152 102.596 230.236 103.064 231.135 104.002C232.033 104.939 232.482 106.072 232.482 107.4ZM224.484 107.4C224.484 108.396 224.807 109.227 225.451 109.891C226.096 110.564 226.877 110.896 227.785 110.896C228.684 110.896 229.465 110.564 230.109 109.891C230.754 109.227 231.086 108.396 231.086 107.4C231.086 106.414 230.754 105.584 230.109 104.91C229.465 104.246 228.684 103.904 227.785 103.904C226.877 103.904 226.096 104.246 225.451 104.91C224.807 105.584 224.484 106.414 224.484 107.4ZM242.785 107.205C242.785 106.17 242.434 105.291 241.75 104.578C241.066 103.865 240.236 103.504 239.279 103.504C238.322 103.504 237.492 103.865 236.809 104.578C236.125 105.291 235.783 106.16 235.783 107.195C235.783 108.23 236.125 109.1 236.809 109.822C237.492 110.545 238.322 110.896 239.279 110.896C240.236 110.896 241.066 110.545 241.75 109.832C242.434 109.119 242.785 108.24 242.785 107.205ZM234.387 107.205C234.387 105.799 234.855 104.617 235.812 103.65C236.77 102.684 237.922 102.195 239.289 102.195C240.646 102.195 241.799 102.684 242.746 103.65C243.703 104.617 244.172 105.799 244.172 107.205C244.172 108.611 243.703 109.793 242.746 110.76C241.799 111.717 240.646 112.205 239.289 112.205C237.922 112.205 236.77 111.717 235.812 110.76C234.855 109.793 234.387 108.611 234.387 107.205ZM246.691 102.4H251.086C251.965 102.4 252.668 102.645 253.195 103.113C253.723 103.582 253.986 104.178 253.986 104.9C253.986 105.311 253.879 105.691 253.684 106.023C253.488 106.355 253.283 106.59 253.088 106.717L252.785 106.902C252.824 106.922 252.873 106.941 252.951 106.961C253.029 106.99 253.156 107.059 253.342 107.176C253.527 107.293 253.693 107.42 253.83 107.576C253.967 107.732 254.094 107.947 254.211 108.23C254.328 108.523 254.387 108.846 254.387 109.197C254.387 110.066 254.113 110.75 253.576 111.248C253.029 111.756 252.268 112 251.291 112H246.691V102.4ZM251.291 107.498H248.088V110.701H251.291C251.838 110.701 252.258 110.564 252.551 110.281C252.844 110.008 252.99 109.607 252.99 109.1C252.99 108.592 252.844 108.201 252.551 107.918C252.258 107.645 251.838 107.498 251.291 107.498ZM252.59 104.998C252.59 104.139 252.082 103.699 251.086 103.699H248.088V106.297H251.086C252.082 106.297 252.59 105.867 252.59 104.998ZM264.084 108.104L261.291 112H259.582L263.186 107L259.885 102.4H261.584L264.084 105.896L266.584 102.4H268.283L264.982 107L268.586 112H266.887L264.084 108.104ZM271.896 107.205C271.896 108.191 272.238 109.051 272.941 109.793C273.645 110.535 274.426 110.896 275.295 110.896C276.115 110.896 276.857 110.545 277.512 109.822C278.166 109.1 278.498 108.23 278.498 107.205C278.498 106.18 278.166 105.311 277.512 104.588C276.857 103.865 276.115 103.504 275.295 103.504C274.426 103.504 273.645 103.875 272.941 104.617C272.238 105.359 271.896 106.219 271.896 107.205ZM271.896 110.496V116.209H270.5V102.41H271.896V103.914C271.916 103.875 271.965 103.807 272.033 103.729C272.102 103.65 272.238 103.514 272.453 103.318C272.668 103.123 272.893 102.947 273.146 102.791C273.391 102.635 273.703 102.498 274.094 102.381C274.484 102.264 274.885 102.205 275.295 102.205C276.516 102.205 277.59 102.693 278.508 103.68C279.426 104.656 279.895 105.838 279.895 107.205C279.895 108.572 279.436 109.754 278.518 110.73C277.6 111.707 276.525 112.195 275.295 112.195C274.885 112.195 274.484 112.137 274.104 112.02C273.723 111.902 273.4 111.766 273.146 111.6C272.883 111.443 272.658 111.277 272.463 111.111C272.268 110.945 272.131 110.799 272.033 110.682L271.896 110.496ZM284.494 106.502L288.195 105.896C288.195 105.193 287.971 104.617 287.521 104.168C287.072 103.729 286.496 103.504 285.793 103.504C285.285 103.504 284.807 103.621 284.357 103.855C283.908 104.09 283.586 104.324 283.391 104.559L283.088 104.9L282.189 104.002C282.229 103.953 282.277 103.885 282.346 103.807C282.414 103.729 282.561 103.582 282.795 103.377C283.029 103.172 283.273 102.986 283.527 102.82C283.781 102.664 284.113 102.518 284.523 102.391C284.934 102.264 285.363 102.195 285.793 102.195C286.887 102.195 287.785 102.557 288.508 103.26C289.23 103.973 289.592 104.852 289.592 105.896V112H288.195V110.701C288.166 110.74 288.127 110.799 288.068 110.867C288.01 110.936 287.893 111.053 287.697 111.229C287.502 111.404 287.297 111.551 287.082 111.688C286.857 111.824 286.564 111.941 286.203 112.039C285.842 112.146 285.471 112.195 285.09 112.195C284.133 112.195 283.322 111.912 282.668 111.346C282.014 110.779 281.691 110.135 281.691 109.402C281.691 108.602 281.926 107.957 282.414 107.469C282.893 106.98 283.586 106.658 284.494 106.502ZM285.09 110.896C285.988 110.896 286.73 110.604 287.316 110.008C287.902 109.422 288.195 108.65 288.195 107.703V107.098L284.895 107.703C283.693 107.938 283.088 108.504 283.088 109.402C283.088 109.832 283.264 110.193 283.615 110.477C283.967 110.76 284.465 110.896 285.09 110.896ZM299.68 112V107.801H294.182V112H292.785V102.4H294.182V106.502H299.68V102.4H301.086V112H299.68ZM312.785 107.723L304.982 107.703C305.031 108.572 305.383 109.324 306.047 109.949C306.711 110.584 307.482 110.896 308.381 110.896C308.977 110.896 309.533 110.77 310.051 110.496C310.559 110.232 310.93 109.969 311.145 109.695L311.486 109.305L312.385 110.203C312.346 110.262 312.287 110.33 312.209 110.428C312.131 110.525 311.975 110.682 311.721 110.906C311.467 111.131 311.203 111.326 310.91 111.502C310.617 111.678 310.246 111.834 309.787 111.98C309.328 112.127 308.859 112.195 308.381 112.195C307.072 112.195 305.939 111.717 305.002 110.74C304.055 109.764 303.586 108.582 303.586 107.195C303.586 105.809 304.045 104.637 304.982 103.66C305.92 102.684 307.014 102.195 308.283 102.195C309.592 102.195 310.686 102.654 311.564 103.562C312.443 104.471 312.883 105.613 312.883 107L312.785 107.723ZM308.283 103.504C307.443 103.504 306.711 103.807 306.086 104.393C305.461 104.988 305.09 105.691 304.982 106.502H311.486C311.379 105.643 311.027 104.92 310.432 104.354C309.836 103.787 309.123 103.504 308.283 103.504ZM322.277 112V107.801H316.779V112H315.383V102.4H316.779V106.502H322.277V102.4H323.684V112H322.277ZM334.084 102.4H335.285V112H333.879V104.803L328.078 112H326.887V102.4H328.283V109.598L334.084 102.4ZM337.883 105.604C337.883 104.686 338.205 103.924 338.85 103.318C339.494 102.713 340.344 102.4 341.389 102.4H345.48V112H344.084V108.797H341.281L339.289 112H337.688L339.885 108.504C339.826 108.494 339.758 108.475 339.66 108.436C339.562 108.396 339.406 108.309 339.182 108.172C338.947 108.035 338.752 107.859 338.576 107.664C338.4 107.469 338.244 107.186 338.098 106.834C337.951 106.473 337.883 106.062 337.883 105.604ZM344.084 103.699L341.389 103.709C340.744 103.709 340.236 103.885 339.855 104.236C339.475 104.588 339.289 105.047 339.289 105.604C339.289 106.17 339.475 106.619 339.855 106.971C340.227 107.322 340.744 107.498 341.389 107.498H344.084V103.699ZM360.891 104.9L357.385 109.305L353.889 104.9V112H352.492V102.4H353.586L357.385 107.195L361.184 102.4H362.287V112H360.891V104.9ZM372.395 112V107.801H366.896V112H365.5V102.4H366.896V106.502H372.395V102.4H373.801V112H372.395ZM384.699 107.205C384.699 106.17 384.348 105.291 383.664 104.578C382.98 103.865 382.15 103.504 381.193 103.504C380.236 103.504 379.406 103.865 378.723 104.578C378.039 105.291 377.697 106.16 377.697 107.195C377.697 108.23 378.039 109.1 378.723 109.822C379.406 110.545 380.236 110.896 381.193 110.896C382.15 110.896 382.98 110.545 383.664 109.832C384.348 109.119 384.699 108.24 384.699 107.205ZM376.301 107.205C376.301 105.799 376.77 104.617 377.727 103.65C378.684 102.684 379.836 102.195 381.203 102.195C382.561 102.195 383.713 102.684 384.66 103.65C385.617 104.617 386.086 105.799 386.086 107.205C386.086 108.611 385.617 109.793 384.66 110.76C383.713 111.717 382.561 112.205 381.203 112.205C379.836 112.205 378.684 111.717 377.727 110.76C376.77 109.793 376.301 108.611 376.301 107.205ZM395.002 102.4V103.699H390.002V112H388.605V102.4H395.002ZM404.504 107.205C404.504 106.17 404.152 105.291 403.469 104.578C402.785 103.865 401.955 103.504 400.998 103.504C400.041 103.504 399.211 103.865 398.527 104.578C397.844 105.291 397.502 106.16 397.502 107.195C397.502 108.23 397.844 109.1 398.527 109.822C399.211 110.545 400.041 110.896 400.998 110.896C401.955 110.896 402.785 110.545 403.469 109.832C404.152 109.119 404.504 108.24 404.504 107.205ZM396.105 107.205C396.105 105.799 396.574 104.617 397.531 103.65C398.488 102.684 399.641 102.195 401.008 102.195C402.365 102.195 403.518 102.684 404.465 103.65C405.422 104.617 405.891 105.799 405.891 107.205C405.891 108.611 405.422 109.793 404.465 110.76C403.518 111.717 402.365 112.205 401.008 112.205C399.641 112.205 398.488 111.717 397.531 110.76C396.574 109.793 396.105 108.611 396.105 107.205ZM408.01 111.199C408.01 110.906 408.098 110.672 408.273 110.486C408.449 110.301 408.693 110.203 408.996 110.203C409.309 110.203 409.553 110.301 409.729 110.486C409.904 110.672 409.992 110.906 409.992 111.199C409.992 111.492 409.904 111.736 409.729 111.922C409.553 112.107 409.309 112.195 408.996 112.195C408.693 112.195 408.449 112.107 408.273 111.922C408.098 111.736 408.01 111.492 408.01 111.199ZM92.8047 136.5C92.8633 136.529 92.9512 136.568 93.0488 136.607C93.1465 136.656 93.3223 136.783 93.5957 136.979C93.8594 137.184 94.0938 137.408 94.2988 137.643C94.4941 137.887 94.6797 138.219 94.8457 138.648C95.0117 139.078 95.0996 139.527 95.0996 139.996C95.0996 141.158 94.6992 142.115 93.9082 142.867C93.1074 143.629 92.0723 144 90.8027 144H85.0996V129.996H90.5C91.6328 129.996 92.5605 130.348 93.293 131.041C94.0254 131.734 94.3965 132.584 94.3965 133.6C94.3965 134.01 94.3379 134.391 94.2402 134.742C94.1328 135.094 93.9961 135.367 93.8398 135.572C93.6738 135.787 93.5078 135.963 93.3516 136.109C93.1953 136.256 93.0586 136.354 92.9609 136.402L92.8047 136.5ZM86.6035 142.604H90.8027C91.6426 142.604 92.3164 142.359 92.8242 141.871C93.332 141.383 93.5957 140.758 93.5957 139.996C93.5957 139.225 93.332 138.57 92.8145 138.023C92.2969 137.477 91.623 137.203 90.8027 137.203H86.6035V142.604ZM90.5 131.402H86.6035V135.885H90.5C91.2422 135.885 91.8281 135.689 92.2578 135.279C92.6875 134.869 92.9023 134.312 92.9023 133.6C92.9023 132.955 92.6875 132.428 92.2578 132.018C91.8281 131.607 91.2422 131.402 90.5 131.402ZM97.1992 139.195C97.1992 137.809 97.668 136.637 98.6152 135.66C99.5625 134.684 100.686 134.195 101.984 134.195C102.736 134.195 103.439 134.361 104.084 134.684C104.729 135.006 105.197 135.328 105.471 135.641L105.891 136.1L104.885 137.096C104.865 137.057 104.826 137.008 104.768 136.93C104.719 136.861 104.602 136.734 104.426 136.539C104.25 136.354 104.055 136.188 103.85 136.051C103.635 135.914 103.371 135.787 103.039 135.67C102.707 135.562 102.355 135.504 101.994 135.504C101.076 135.504 100.275 135.865 99.6016 136.578C98.9277 137.291 98.5957 138.17 98.5957 139.205C98.5957 140.24 98.9277 141.119 99.6016 141.832C100.275 142.545 101.076 142.896 101.994 142.896C102.551 142.896 103.078 142.77 103.586 142.496C104.084 142.232 104.445 141.969 104.67 141.695L104.992 141.305L105.988 142.203C105.949 142.262 105.891 142.33 105.812 142.428C105.734 142.525 105.559 142.682 105.295 142.906C105.041 143.131 104.768 143.326 104.475 143.502C104.191 143.678 103.82 143.834 103.371 143.98C102.922 144.127 102.463 144.195 101.994 144.195C100.686 144.195 99.5527 143.717 98.6152 142.74C97.668 141.764 97.1992 140.582 97.1992 139.195ZM116.691 139.723L108.889 139.703C108.938 140.572 109.289 141.324 109.953 141.949C110.617 142.584 111.389 142.896 112.287 142.896C112.883 142.896 113.439 142.77 113.957 142.496C114.465 142.232 114.836 141.969 115.051 141.695L115.393 141.305L116.291 142.203C116.252 142.262 116.193 142.33 116.115 142.428C116.037 142.525 115.881 142.682 115.627 142.906C115.373 143.131 115.109 143.326 114.816 143.502C114.523 143.678 114.152 143.834 113.693 143.98C113.234 144.127 112.766 144.195 112.287 144.195C110.979 144.195 109.846 143.717 108.908 142.74C107.961 141.764 107.492 140.582 107.492 139.195C107.492 137.809 107.951 136.637 108.889 135.66C109.826 134.684 110.92 134.195 112.189 134.195C113.498 134.195 114.592 134.654 115.471 135.562C116.35 136.471 116.789 137.613 116.789 139L116.691 139.723ZM112.189 135.504C111.35 135.504 110.617 135.807 109.992 136.393C109.367 136.988 108.996 137.691 108.889 138.502H115.393C115.285 137.643 114.934 136.92 114.338 136.354C113.742 135.787 113.029 135.504 112.189 135.504ZM130.793 139.205C130.793 138.17 130.441 137.291 129.758 136.578C129.074 135.865 128.244 135.504 127.287 135.504C126.33 135.504 125.5 135.865 124.816 136.578C124.133 137.291 123.791 138.16 123.791 139.195C123.791 140.23 124.133 141.1 124.816 141.822C125.5 142.545 126.33 142.896 127.287 142.896C128.244 142.896 129.074 142.545 129.758 141.832C130.441 141.119 130.793 140.24 130.793 139.205ZM122.395 139.205C122.395 137.799 122.863 136.617 123.82 135.65C124.777 134.684 125.93 134.195 127.297 134.195C128.654 134.195 129.807 134.684 130.754 135.65C131.711 136.617 132.18 137.799 132.18 139.205C132.18 140.611 131.711 141.793 130.754 142.76C129.807 143.717 128.654 144.205 127.297 144.205C125.93 144.205 124.777 143.717 123.82 142.76C122.863 141.793 122.395 140.611 122.395 139.205ZM141.594 144V139.801H136.096V144H134.699V134.4H136.096V138.502H141.594V134.4H143V144H141.594ZM153.4 134.4H154.602V144H153.195V136.803L147.395 144H146.203V134.4H147.6V141.598L153.4 134.4ZM160.412 135.699V134.4H168.605V135.699H165.207V144H163.811V135.699H160.412ZM172.717 138.502L176.418 137.896C176.418 137.193 176.193 136.617 175.744 136.168C175.295 135.729 174.719 135.504 174.016 135.504C173.508 135.504 173.029 135.621 172.58 135.855C172.131 136.09 171.809 136.324 171.613 136.559L171.311 136.9L170.412 136.002C170.451 135.953 170.5 135.885 170.568 135.807C170.637 135.729 170.783 135.582 171.018 135.377C171.252 135.172 171.496 134.986 171.75 134.82C172.004 134.664 172.336 134.518 172.746 134.391C173.156 134.264 173.586 134.195 174.016 134.195C175.109 134.195 176.008 134.557 176.73 135.26C177.453 135.973 177.814 136.852 177.814 137.896V144H176.418V142.701C176.389 142.74 176.35 142.799 176.291 142.867C176.232 142.936 176.115 143.053 175.92 143.229C175.725 143.404 175.52 143.551 175.305 143.688C175.08 143.824 174.787 143.941 174.426 144.039C174.064 144.146 173.693 144.195 173.312 144.195C172.355 144.195 171.545 143.912 170.891 143.346C170.236 142.779 169.914 142.135 169.914 141.402C169.914 140.602 170.148 139.957 170.637 139.469C171.115 138.98 171.809 138.658 172.717 138.502ZM173.312 142.896C174.211 142.896 174.953 142.604 175.539 142.008C176.125 141.422 176.418 140.65 176.418 139.703V139.098L173.117 139.703C171.916 139.938 171.311 140.504 171.311 141.402C171.311 141.832 171.486 142.193 171.838 142.477C172.189 142.76 172.688 142.896 173.312 142.896ZM182.404 141.305V144H181.008V134.4H182.404V139.498L187.199 134.4H188.908L185.207 138.297L189.309 144H187.707L184.309 139.303L182.404 141.305ZM202.111 134.4H203.312V144H201.906V136.803L196.105 144H194.914V134.4H196.311V141.598L202.111 134.4ZM207.512 134.4L214.514 134.41V144.01H213.107V135.709H208.908V137.213C208.908 138.619 208.83 139.801 208.693 140.738C208.557 141.676 208.342 142.398 208.068 142.887C207.785 143.375 207.473 143.717 207.141 143.912C206.799 144.107 206.389 144.205 205.91 144.205C205.744 144.205 205.578 144.186 205.412 144.156C205.246 144.117 205.129 144.088 205.051 144.049L204.914 144.01V142.613C205.178 142.74 205.441 142.809 205.715 142.809C206.125 142.809 206.447 142.691 206.682 142.457C206.916 142.223 207.111 141.676 207.268 140.836C207.424 139.986 207.512 138.775 207.512 137.203V134.4ZM224.904 134.4H226.105V144H224.699V136.803L218.898 144H217.707V134.4H219.104V141.598L224.904 134.4ZM240.314 134.4H241.516V144H240.109V136.803L234.309 144H233.117V134.4H234.514V141.598L240.314 134.4ZM251.613 144V139.801H246.115V144H244.719V134.4H246.115V138.502H251.613V134.4H253.02V144H251.613ZM258.322 138.502L262.023 137.896C262.023 137.193 261.799 136.617 261.35 136.168C260.9 135.729 260.324 135.504 259.621 135.504C259.113 135.504 258.635 135.621 258.186 135.855C257.736 136.09 257.414 136.324 257.219 136.559L256.916 136.9L256.018 136.002C256.057 135.953 256.105 135.885 256.174 135.807C256.242 135.729 256.389 135.582 256.623 135.377C256.857 135.172 257.102 134.986 257.355 134.82C257.609 134.664 257.941 134.518 258.352 134.391C258.762 134.264 259.191 134.195 259.621 134.195C260.715 134.195 261.613 134.557 262.336 135.26C263.059 135.973 263.42 136.852 263.42 137.896V144H262.023V142.701C261.994 142.74 261.955 142.799 261.896 142.867C261.838 142.936 261.721 143.053 261.525 143.229C261.33 143.404 261.125 143.551 260.91 143.688C260.686 143.824 260.393 143.941 260.031 144.039C259.67 144.146 259.299 144.195 258.918 144.195C257.961 144.195 257.15 143.912 256.496 143.346C255.842 142.779 255.52 142.135 255.52 141.402C255.52 140.602 255.754 139.957 256.242 139.469C256.721 138.98 257.414 138.658 258.322 138.502ZM258.918 142.896C259.816 142.896 260.559 142.604 261.145 142.008C261.73 141.422 262.023 140.65 262.023 139.703V139.098L258.723 139.703C257.521 139.938 256.916 140.504 256.916 141.402C256.916 141.832 257.092 142.193 257.443 142.477C257.795 142.76 258.293 142.896 258.918 142.896ZM272.805 144V140.104C272.062 140.641 271.164 140.904 270.109 140.904C269.016 140.904 268.117 140.562 267.434 139.879C266.75 139.195 266.408 138.297 266.408 137.203V134.4H267.805V137.203C267.805 137.896 268.029 138.473 268.479 138.922C268.928 139.371 269.504 139.596 270.207 139.596C270.686 139.596 271.145 139.527 271.574 139.381C272.004 139.234 272.316 139.078 272.512 138.922L272.805 138.697V134.4H274.211V144H272.805ZM285.91 139.723L278.107 139.703C278.156 140.572 278.508 141.324 279.172 141.949C279.836 142.584 280.607 142.896 281.506 142.896C282.102 142.896 282.658 142.77 283.176 142.496C283.684 142.232 284.055 141.969 284.27 141.695L284.611 141.305L285.51 142.203C285.471 142.262 285.412 142.33 285.334 142.428C285.256 142.525 285.1 142.682 284.846 142.906C284.592 143.131 284.328 143.326 284.035 143.502C283.742 143.678 283.371 143.834 282.912 143.98C282.453 144.127 281.984 144.195 281.506 144.195C280.197 144.195 279.064 143.717 278.127 142.74C277.18 141.764 276.711 140.582 276.711 139.195C276.711 137.809 277.17 136.637 278.107 135.66C279.045 134.684 280.139 134.195 281.408 134.195C282.717 134.195 283.811 134.654 284.689 135.562C285.568 136.471 286.008 137.613 286.008 139L285.91 139.723ZM281.408 135.504C280.568 135.504 279.836 135.807 279.211 136.393C278.586 136.988 278.215 137.691 278.107 138.502H284.611C284.504 137.643 284.152 136.92 283.557 136.354C282.961 135.787 282.248 135.504 281.408 135.504ZM291.115 135.699V134.4H299.309V135.699H295.91V144H294.514V135.699H291.115ZM302.717 139.205C302.717 140.191 303.059 141.051 303.762 141.793C304.465 142.535 305.246 142.896 306.115 142.896C306.936 142.896 307.678 142.545 308.332 141.822C308.986 141.1 309.318 140.23 309.318 139.205C309.318 138.18 308.986 137.311 308.332 136.588C307.678 135.865 306.936 135.504 306.115 135.504C305.246 135.504 304.465 135.875 303.762 136.617C303.059 137.359 302.717 138.219 302.717 139.205ZM302.717 142.496V148.209H301.32V134.41H302.717V135.914C302.736 135.875 302.785 135.807 302.854 135.729C302.922 135.65 303.059 135.514 303.273 135.318C303.488 135.123 303.713 134.947 303.967 134.791C304.211 134.635 304.523 134.498 304.914 134.381C305.305 134.264 305.705 134.205 306.115 134.205C307.336 134.205 308.41 134.693 309.328 135.68C310.246 136.656 310.715 137.838 310.715 139.205C310.715 140.572 310.256 141.754 309.338 142.73C308.42 143.707 307.346 144.195 306.115 144.195C305.705 144.195 305.305 144.137 304.924 144.02C304.543 143.902 304.221 143.766 303.967 143.6C303.703 143.443 303.479 143.277 303.283 143.111C303.088 142.945 302.951 142.799 302.854 142.682L302.717 142.496ZM321.711 139.723L313.908 139.703C313.957 140.572 314.309 141.324 314.973 141.949C315.637 142.584 316.408 142.896 317.307 142.896C317.902 142.896 318.459 142.77 318.977 142.496C319.484 142.232 319.855 141.969 320.07 141.695L320.412 141.305L321.311 142.203C321.271 142.262 321.213 142.33 321.135 142.428C321.057 142.525 320.9 142.682 320.646 142.906C320.393 143.131 320.129 143.326 319.836 143.502C319.543 143.678 319.172 143.834 318.713 143.98C318.254 144.127 317.785 144.195 317.307 144.195C315.998 144.195 314.865 143.717 313.928 142.74C312.98 141.764 312.512 140.582 312.512 139.195C312.512 137.809 312.971 136.637 313.908 135.66C314.846 134.684 315.939 134.195 317.209 134.195C318.518 134.195 319.611 134.654 320.49 135.562C321.369 136.471 321.809 137.613 321.809 139L321.711 139.723ZM317.209 135.504C316.369 135.504 315.637 135.807 315.012 136.393C314.387 136.988 314.016 137.691 313.908 138.502H320.412C320.305 137.643 319.953 136.92 319.357 136.354C318.762 135.787 318.049 135.504 317.209 135.504ZM333.4 139.4C333.4 140.748 332.941 141.891 332.033 142.809C331.115 143.736 330.012 144.195 328.703 144.195C327.287 144.195 326.135 143.658 325.246 142.584C324.348 141.51 323.908 139.977 323.908 138.004C323.908 133.59 325.539 131.09 328.801 130.504C329.504 130.387 330.139 130.24 330.695 130.045C331.242 129.859 331.613 129.703 331.809 129.576L332.102 129.4L332.805 130.504C332.268 130.973 330.998 131.412 329.006 131.803C327.951 132.018 327.092 132.525 326.447 133.307C325.803 134.088 325.451 135.152 325.402 136.5C325.422 136.451 325.471 136.383 325.529 136.295C325.588 136.207 325.725 136.061 325.93 135.846C326.135 135.631 326.359 135.445 326.613 135.27C326.857 135.104 327.18 134.947 327.57 134.811C327.961 134.674 328.371 134.596 328.801 134.596C330.07 134.596 331.154 135.064 332.053 136.002C332.951 136.939 333.4 138.072 333.4 139.4ZM325.402 139.4C325.402 140.396 325.725 141.227 326.369 141.891C327.014 142.564 327.795 142.896 328.703 142.896C329.602 142.896 330.383 142.564 331.027 141.891C331.672 141.227 332.004 140.396 332.004 139.4C332.004 138.414 331.672 137.584 331.027 136.91C330.383 136.246 329.602 135.904 328.703 135.904C327.795 135.904 327.014 136.246 326.369 136.91C325.725 137.584 325.402 138.414 325.402 139.4ZM338.107 145.396L338.605 144L334.699 134.4H336.203L339.309 142.203L342.404 134.4H343.908L339.504 145.396C339.104 146.412 338.674 147.135 338.225 147.564C337.766 147.994 337.189 148.199 336.496 148.199C336.281 148.199 336.076 148.189 335.881 148.15C335.686 148.121 335.529 148.082 335.432 148.043L335.295 148.004V146.695C335.627 146.832 335.959 146.9 336.291 146.9C337.141 146.9 337.746 146.402 338.107 145.396ZM358.908 139.195C358.908 140.582 358.43 141.764 357.482 142.74C356.535 143.717 355.412 144.195 354.104 144.195C352.883 144.195 351.818 143.775 350.9 142.916C349.982 142.066 349.455 141.031 349.299 139.801H347.199V144H345.803V134.4H347.199V138.502H349.299C349.465 137.33 350.002 136.324 350.91 135.475C351.809 134.625 352.883 134.195 354.113 134.195C355.422 134.195 356.545 134.684 357.492 135.66C358.43 136.637 358.908 137.809 358.908 139.195ZM350.695 139.205C350.695 140.24 351.037 141.119 351.711 141.832C352.385 142.545 353.186 142.896 354.104 142.896C355.021 142.896 355.822 142.545 356.496 141.832C357.17 141.119 357.502 140.24 357.502 139.205C357.502 138.17 357.17 137.291 356.496 136.578C355.822 135.865 355.021 135.504 354.104 135.504C353.186 135.504 352.385 135.865 351.711 136.578C351.037 137.291 350.695 138.17 350.695 139.205ZM360.217 135.699V134.4H368.41V135.699H365.012V144H363.615V135.699H360.217ZM381.926 139.195C381.926 140.582 381.447 141.764 380.5 142.74C379.553 143.717 378.43 144.205 377.131 144.205C376.662 144.205 376.203 144.127 375.754 143.99C375.305 143.854 374.934 143.688 374.621 143.492C374.309 143.297 374.045 143.111 373.811 142.916C373.576 142.721 373.4 142.555 373.283 142.408L373.127 142.213L374.123 141.314C374.143 141.354 374.191 141.402 374.25 141.48C374.309 141.549 374.436 141.676 374.631 141.861C374.826 142.057 375.031 142.223 375.246 142.359C375.461 142.496 375.734 142.623 376.076 142.73C376.408 142.848 376.76 142.896 377.131 142.896C377.971 142.896 378.713 142.584 379.377 141.949C380.031 141.324 380.412 140.572 380.529 139.703H375.725V138.404H380.422C380.314 137.633 379.943 136.959 379.318 136.373C378.684 135.797 377.951 135.504 377.131 135.504C376.77 135.504 376.428 135.562 376.096 135.66C375.764 135.768 375.49 135.904 375.266 136.061C375.051 136.227 374.855 136.393 374.689 136.549C374.523 136.705 374.396 136.842 374.318 136.939L374.221 137.096L373.215 136.1C373.254 136.051 373.312 135.982 373.391 135.895C373.469 135.807 373.625 135.66 373.869 135.445C374.123 135.23 374.387 135.045 374.66 134.869C374.943 134.703 375.305 134.547 375.754 134.41C376.203 134.273 376.662 134.195 377.131 134.195C378.439 134.195 379.562 134.684 380.51 135.66C381.447 136.637 381.926 137.809 381.926 139.195ZM391.32 144V139.801H385.822V144H384.426V134.4H385.822V138.502H391.32V134.4H392.727V144H391.32ZM404.426 139.723L396.623 139.703C396.672 140.572 397.023 141.324 397.688 141.949C398.352 142.584 399.123 142.896 400.021 142.896C400.617 142.896 401.174 142.77 401.691 142.496C402.199 142.232 402.57 141.969 402.785 141.695L403.127 141.305L404.025 142.203C403.986 142.262 403.928 142.33 403.85 142.428C403.771 142.525 403.615 142.682 403.361 142.906C403.107 143.131 402.844 143.326 402.551 143.502C402.258 143.678 401.887 143.834 401.428 143.98C400.969 144.127 400.5 144.195 400.021 144.195C398.713 144.195 397.58 143.717 396.643 142.74C395.695 141.764 395.227 140.582 395.227 139.195C395.227 137.809 395.686 136.637 396.623 135.66C397.561 134.684 398.654 134.195 399.924 134.195C401.232 134.195 402.326 134.654 403.205 135.562C404.084 136.471 404.523 137.613 404.523 139L404.426 139.723ZM399.924 135.504C399.084 135.504 398.352 135.807 397.727 136.393C397.102 136.988 396.73 137.691 396.623 138.502H403.127C403.02 137.643 402.668 136.92 402.072 136.354C401.477 135.787 400.764 135.504 399.924 135.504ZM408.42 139.205C408.42 140.191 408.762 141.051 409.465 141.793C410.168 142.535 410.949 142.896 411.818 142.896C412.639 142.896 413.381 142.545 414.035 141.822C414.689 141.1 415.021 140.23 415.021 139.205C415.021 138.18 414.689 137.311 414.035 136.588C413.381 135.865 412.639 135.504 411.818 135.504C410.949 135.504 410.168 135.875 409.465 136.617C408.762 137.359 408.42 138.219 408.42 139.205ZM408.42 142.496V148.209H407.023V134.41H408.42V135.914C408.439 135.875 408.488 135.807 408.557 135.729C408.625 135.65 408.762 135.514 408.977 135.318C409.191 135.123 409.416 134.947 409.67 134.791C409.914 134.635 410.227 134.498 410.617 134.381C411.008 134.264 411.408 134.205 411.818 134.205C413.039 134.205 414.113 134.693 415.031 135.68C415.949 136.656 416.418 137.838 416.418 139.205C416.418 140.572 415.959 141.754 415.041 142.73C414.123 143.707 413.049 144.195 411.818 144.195C411.408 144.195 411.008 144.137 410.627 144.02C410.246 143.902 409.924 143.766 409.67 143.6C409.406 143.443 409.182 143.277 408.986 143.111C408.791 142.945 408.654 142.799 408.557 142.682L408.42 142.496ZM425.314 134.4V135.699H420.314V144H418.918V134.4H425.314ZM434.318 134.4H435.52V144H434.113V136.803L428.312 144H427.121V134.4H428.518V141.598L434.318 134.4ZM445.92 134.4H447.121V144H445.715V136.803L439.914 144H438.723V134.4H440.119V141.598L445.92 134.4ZM449.924 143.199C449.924 142.906 450.012 142.672 450.188 142.486C450.363 142.301 450.607 142.203 450.91 142.203C451.223 142.203 451.467 142.301 451.643 142.486C451.818 142.672 451.906 142.906 451.906 143.199C451.906 143.492 451.818 143.736 451.643 143.922C451.467 144.107 451.223 144.195 450.91 144.195C450.607 144.195 450.363 144.107 450.188 143.922C450.012 143.736 449.924 143.492 449.924 143.199ZM97.8047 164.604L92.1992 171.996L86.6035 164.604V176H85.0996V161.996H86.3984L92.1992 169.604L98 161.996H99.2988V176H97.8047V164.604ZM111.398 171.723L103.596 171.703C103.645 172.572 103.996 173.324 104.66 173.949C105.324 174.584 106.096 174.896 106.994 174.896C107.59 174.896 108.146 174.77 108.664 174.496C109.172 174.232 109.543 173.969 109.758 173.695L110.1 173.305L110.998 174.203C110.959 174.262 110.9 174.33 110.822 174.428C110.744 174.525 110.588 174.682 110.334 174.906C110.08 175.131 109.816 175.326 109.523 175.502C109.23 175.678 108.859 175.834 108.4 175.98C107.941 176.127 107.473 176.195 106.994 176.195C105.686 176.195 104.553 175.717 103.615 174.74C102.668 173.764 102.199 172.582 102.199 171.195C102.199 169.809 102.658 168.637 103.596 167.66C104.533 166.684 105.627 166.195 106.896 166.195C108.205 166.195 109.299 166.654 110.178 167.562C111.057 168.471 111.496 169.613 111.496 171L111.398 171.723ZM106.896 167.504C106.057 167.504 105.324 167.807 104.699 168.393C104.074 168.988 103.703 169.691 103.596 170.502H110.1C109.992 169.643 109.641 168.92 109.045 168.354C108.449 167.787 107.736 167.504 106.896 167.504ZM120.891 176V171.801H115.393V176H113.996V166.4H115.393V170.502H120.891V166.4H122.297V176H120.891ZM126.896 174.701H129.416C130.041 174.701 130.539 174.525 130.92 174.174C131.301 173.822 131.496 173.363 131.496 172.797C131.496 172.24 131.301 171.781 130.92 171.43C130.539 171.078 130.031 170.902 129.396 170.902H126.896V174.701ZM132.893 172.807C132.893 173.764 132.58 174.535 131.965 175.121C131.34 175.707 130.49 176 129.416 176H125.5V166.4H126.896V169.604H129.396C130.471 169.604 131.33 169.896 131.955 170.482C132.58 171.068 132.893 171.85 132.893 172.807ZM135.402 176V166.4H136.799V174.701H140.9V166.4H142.316V174.701H146.398V166.4H147.795V176H135.402ZM159.504 171.723L151.701 171.703C151.75 172.572 152.102 173.324 152.766 173.949C153.43 174.584 154.201 174.896 155.1 174.896C155.695 174.896 156.252 174.77 156.77 174.496C157.277 174.232 157.648 173.969 157.863 173.695L158.205 173.305L159.104 174.203C159.064 174.262 159.006 174.33 158.928 174.428C158.85 174.525 158.693 174.682 158.439 174.906C158.186 175.131 157.922 175.326 157.629 175.502C157.336 175.678 156.965 175.834 156.506 175.98C156.047 176.127 155.578 176.195 155.1 176.195C153.791 176.195 152.658 175.717 151.721 174.74C150.773 173.764 150.305 172.582 150.305 171.195C150.305 169.809 150.764 168.637 151.701 167.66C152.639 166.684 153.732 166.195 155.002 166.195C156.311 166.195 157.404 166.654 158.283 167.562C159.162 168.471 159.602 169.613 159.602 171L159.504 171.723ZM155.002 167.504C154.162 167.504 153.43 167.807 152.805 168.393C152.18 168.988 151.809 169.691 151.701 170.502H158.205C158.098 169.643 157.746 168.92 157.15 168.354C156.555 167.787 155.842 167.504 155.002 167.504ZM165.91 166.4H170.305C171.184 166.4 171.887 166.645 172.414 167.113C172.941 167.582 173.205 168.178 173.205 168.9C173.205 169.311 173.098 169.691 172.902 170.023C172.707 170.355 172.502 170.59 172.307 170.717L172.004 170.902C172.043 170.922 172.092 170.941 172.17 170.961C172.248 170.99 172.375 171.059 172.561 171.176C172.746 171.293 172.912 171.42 173.049 171.576C173.186 171.732 173.312 171.947 173.43 172.23C173.547 172.523 173.605 172.846 173.605 173.197C173.605 174.066 173.332 174.75 172.795 175.248C172.248 175.756 171.486 176 170.51 176H165.91V166.4ZM170.51 171.498H167.307V174.701H170.51C171.057 174.701 171.477 174.564 171.77 174.281C172.062 174.008 172.209 173.607 172.209 173.1C172.209 172.592 172.062 172.201 171.77 171.918C171.477 171.645 171.057 171.498 170.51 171.498ZM171.809 168.998C171.809 168.139 171.301 167.699 170.305 167.699H167.307V170.297H170.305C171.301 170.297 171.809 169.867 171.809 168.998ZM175.598 171.195C175.598 169.809 176.066 168.637 177.014 167.66C177.961 166.684 179.084 166.195 180.383 166.195C181.135 166.195 181.838 166.361 182.482 166.684C183.127 167.006 183.596 167.328 183.869 167.641L184.289 168.1L183.283 169.096C183.264 169.057 183.225 169.008 183.166 168.93C183.117 168.861 183 168.734 182.824 168.539C182.648 168.354 182.453 168.188 182.248 168.051C182.033 167.914 181.77 167.787 181.438 167.67C181.105 167.562 180.754 167.504 180.393 167.504C179.475 167.504 178.674 167.865 178 168.578C177.326 169.291 176.994 170.17 176.994 171.205C176.994 172.24 177.326 173.119 178 173.832C178.674 174.545 179.475 174.896 180.393 174.896C180.949 174.896 181.477 174.77 181.984 174.496C182.482 174.232 182.844 173.969 183.068 173.695L183.391 173.305L184.387 174.203C184.348 174.262 184.289 174.33 184.211 174.428C184.133 174.525 183.957 174.682 183.693 174.906C183.439 175.131 183.166 175.326 182.873 175.502C182.59 175.678 182.219 175.834 181.77 175.98C181.32 176.127 180.861 176.195 180.393 176.195C179.084 176.195 177.951 175.717 177.014 174.74C176.066 173.764 175.598 172.582 175.598 171.195ZM195.09 171.723L187.287 171.703C187.336 172.572 187.688 173.324 188.352 173.949C189.016 174.584 189.787 174.896 190.686 174.896C191.281 174.896 191.838 174.77 192.355 174.496C192.863 174.232 193.234 173.969 193.449 173.695L193.791 173.305L194.689 174.203C194.65 174.262 194.592 174.33 194.514 174.428C194.436 174.525 194.279 174.682 194.025 174.906C193.771 175.131 193.508 175.326 193.215 175.502C192.922 175.678 192.551 175.834 192.092 175.98C191.633 176.127 191.164 176.195 190.686 176.195C189.377 176.195 188.244 175.717 187.307 174.74C186.359 173.764 185.891 172.582 185.891 171.195C185.891 169.809 186.35 168.637 187.287 167.66C188.225 166.684 189.318 166.195 190.588 166.195C191.896 166.195 192.99 166.654 193.869 167.562C194.748 168.471 195.188 169.613 195.188 171L195.09 171.723ZM190.588 167.504C189.748 167.504 189.016 167.807 188.391 168.393C187.766 168.988 187.395 169.691 187.287 170.502H193.791C193.684 169.643 193.332 168.92 192.736 168.354C192.141 167.787 191.428 167.504 190.588 167.504ZM204.084 166.4V167.699H199.084V176H197.688V166.4H204.084ZM213.586 171.205C213.586 170.17 213.234 169.291 212.551 168.578C211.867 167.865 211.037 167.504 210.08 167.504C209.123 167.504 208.293 167.865 207.609 168.578C206.926 169.291 206.584 170.16 206.584 171.195C206.584 172.23 206.926 173.1 207.609 173.822C208.293 174.545 209.123 174.896 210.08 174.896C211.037 174.896 211.867 174.545 212.551 173.832C213.234 173.119 213.586 172.24 213.586 171.205ZM205.188 171.205C205.188 169.799 205.656 168.617 206.613 167.65C207.57 166.684 208.723 166.195 210.09 166.195C211.447 166.195 212.6 166.684 213.547 167.65C214.504 168.617 214.973 169.799 214.973 171.205C214.973 172.611 214.504 173.793 213.547 174.76C212.6 175.717 211.447 176.205 210.09 176.205C208.723 176.205 207.57 175.717 206.613 174.76C205.656 173.793 205.188 172.611 205.188 171.205ZM229.797 171.723L221.994 171.703C222.043 172.572 222.395 173.324 223.059 173.949C223.723 174.584 224.494 174.896 225.393 174.896C225.988 174.896 226.545 174.77 227.062 174.496C227.57 174.232 227.941 173.969 228.156 173.695L228.498 173.305L229.396 174.203C229.357 174.262 229.299 174.33 229.221 174.428C229.143 174.525 228.986 174.682 228.732 174.906C228.479 175.131 228.215 175.326 227.922 175.502C227.629 175.678 227.258 175.834 226.799 175.98C226.34 176.127 225.871 176.195 225.393 176.195C224.084 176.195 222.951 175.717 222.014 174.74C221.066 173.764 220.598 172.582 220.598 171.195C220.598 169.809 221.057 168.637 221.994 167.66C222.932 166.684 224.025 166.195 225.295 166.195C226.604 166.195 227.697 166.654 228.576 167.562C229.455 168.471 229.895 169.613 229.895 171L229.797 171.723ZM225.295 167.504C224.455 167.504 223.723 167.807 223.098 168.393C222.473 168.988 222.102 169.691 221.994 170.502H228.498C228.391 169.643 228.039 168.92 227.443 168.354C226.848 167.787 226.135 167.504 225.295 167.504ZM240.891 171.723L233.088 171.703C233.137 172.572 233.488 173.324 234.152 173.949C234.816 174.584 235.588 174.896 236.486 174.896C237.082 174.896 237.639 174.77 238.156 174.496C238.664 174.232 239.035 173.969 239.25 173.695L239.592 173.305L240.49 174.203C240.451 174.262 240.393 174.33 240.314 174.428C240.236 174.525 240.08 174.682 239.826 174.906C239.572 175.131 239.309 175.326 239.016 175.502C238.723 175.678 238.352 175.834 237.893 175.98C237.434 176.127 236.965 176.195 236.486 176.195C235.178 176.195 234.045 175.717 233.107 174.74C232.16 173.764 231.691 172.582 231.691 171.195C231.691 169.809 232.15 168.637 233.088 167.66C234.025 166.684 235.119 166.195 236.389 166.195C237.697 166.195 238.791 166.654 239.67 167.562C240.549 168.471 240.988 169.613 240.988 171L240.891 171.723ZM236.389 167.504C235.549 167.504 234.816 167.807 234.191 168.393C233.566 168.988 233.195 169.691 233.088 170.502H239.592C239.484 169.643 239.133 168.92 238.537 168.354C237.941 167.787 237.229 167.504 236.389 167.504ZM233.566 163.383C233.566 163.129 233.654 162.924 233.83 162.748C234.006 162.572 234.221 162.484 234.475 162.484C234.729 162.484 234.934 162.572 235.109 162.748C235.285 162.924 235.373 163.129 235.373 163.383C235.373 163.637 235.285 163.852 235.109 164.027C234.934 164.203 234.729 164.281 234.475 164.281C234.221 164.281 234.006 164.203 233.83 164.027C233.654 163.852 233.566 163.637 233.566 163.383ZM237.375 163.383C237.375 163.129 237.453 162.924 237.629 162.748C237.805 162.572 238.02 162.484 238.273 162.484C238.527 162.484 238.732 162.572 238.908 162.748C239.084 162.924 239.172 163.129 239.172 163.383C239.172 163.637 239.084 163.852 238.908 164.027C238.732 164.203 238.527 164.281 238.273 164.281C238.02 164.281 237.805 164.203 237.629 164.027C237.453 163.852 237.375 163.637 237.375 163.383ZM254.191 176V171.801H248.693V176H247.297V166.4H248.693V170.502H254.191V166.4H255.598V176H254.191ZM260.9 177.396L261.398 176L257.492 166.4H258.996L262.102 174.203L265.197 166.4H266.701L262.297 177.396C261.896 178.412 261.467 179.135 261.018 179.564C260.559 179.994 259.982 180.199 259.289 180.199C259.074 180.199 258.869 180.189 258.674 180.15C258.479 180.121 258.322 180.082 258.225 180.043L258.088 180.004V178.695C258.42 178.832 258.752 178.9 259.084 178.9C259.934 178.9 260.539 178.402 260.9 177.396ZM273.605 172.797L272.199 171.303L268.801 176H267.199L271.301 170.297L267.6 166.4H269.299L273.605 171V166.4H275.002V171L279.299 166.4H280.998L277.297 170.297L281.398 176H279.797L276.398 171.303L275.002 172.797V176H273.605V172.797ZM290.109 176V171.801H284.611V176H283.215V166.4H284.611V170.502H290.109V166.4H291.516V176H290.109ZM302.414 171.205C302.414 170.17 302.062 169.291 301.379 168.578C300.695 167.865 299.865 167.504 298.908 167.504C297.951 167.504 297.121 167.865 296.438 168.578C295.754 169.291 295.412 170.16 295.412 171.195C295.412 172.23 295.754 173.1 296.438 173.822C297.121 174.545 297.951 174.896 298.908 174.896C299.865 174.896 300.695 174.545 301.379 173.832C302.062 173.119 302.414 172.24 302.414 171.205ZM294.016 171.205C294.016 169.799 294.484 168.617 295.441 167.65C296.398 166.684 297.551 166.195 298.918 166.195C300.275 166.195 301.428 166.684 302.375 167.65C303.332 168.617 303.801 169.799 303.801 171.205C303.801 172.611 303.332 173.793 302.375 174.76C301.428 175.717 300.275 176.205 298.918 176.205C297.551 176.205 296.398 175.717 295.441 174.76C294.484 173.793 294.016 172.611 294.016 171.205ZM310.822 171.195C310.822 172.279 311.193 173.168 311.955 173.861C312.707 174.555 313.693 174.906 314.914 174.906V167.514C313.693 167.514 312.707 167.855 311.955 168.559C311.193 169.252 310.822 170.131 310.822 171.195ZM320.422 171.205C320.422 170.131 320.041 169.252 319.289 168.559C318.537 167.855 317.551 167.514 316.32 167.514V174.906C317.541 174.906 318.527 174.555 319.289 173.861C320.041 173.168 320.422 172.279 320.422 171.205ZM316.32 176.195V180.199H314.924V176.195C313.293 176.195 311.965 175.727 310.949 174.77C309.934 173.822 309.426 172.631 309.426 171.205C309.426 169.779 309.934 168.588 310.949 167.631C311.965 166.674 313.293 166.205 314.924 166.205V162.006H316.32V166.205C317.941 166.205 319.27 166.674 320.295 167.631C321.311 168.588 321.828 169.779 321.828 171.205C321.828 172.631 321.311 173.822 320.295 174.77C319.27 175.727 317.941 176.195 316.32 176.195ZM331.525 166.4H332.727V176H331.32V168.803L325.52 176H324.328V166.4H325.725V173.598L331.525 166.4ZM341.73 168.9C341.73 169.223 341.672 169.516 341.574 169.779C341.477 170.033 341.35 170.238 341.203 170.385C341.057 170.531 340.91 170.658 340.754 170.756C340.598 170.854 340.48 170.932 340.383 170.971L340.227 171.01C340.275 171.02 340.344 171.039 340.432 171.059C340.52 171.078 340.666 171.137 340.881 171.244C341.096 171.352 341.281 171.479 341.447 171.635C341.613 171.791 341.77 172.016 341.906 172.309C342.043 172.602 342.121 172.934 342.121 173.314C342.121 174.125 341.799 174.809 341.164 175.365C340.52 175.922 339.611 176.205 338.43 176.205C337.971 176.205 337.541 176.146 337.131 176.029C336.721 175.912 336.389 175.766 336.115 175.609C335.842 175.443 335.598 175.277 335.402 175.111C335.207 174.945 335.061 174.809 334.963 174.691L334.826 174.506L335.725 173.607C335.803 173.695 335.91 173.812 336.047 173.959C336.184 174.115 336.496 174.311 336.965 174.545C337.434 174.779 337.922 174.896 338.43 174.896C339.191 174.896 339.758 174.75 340.148 174.457C340.529 174.164 340.725 173.783 340.725 173.305C340.725 172.826 340.529 172.436 340.139 172.143C339.748 171.85 339.182 171.703 338.43 171.703H337.326V170.404H338.43C338.996 170.404 339.455 170.258 339.807 169.965C340.148 169.672 340.324 169.311 340.324 168.9C340.324 168.49 340.158 168.148 339.846 167.895C339.523 167.641 339.055 167.514 338.43 167.514C337.98 167.514 337.561 167.602 337.16 167.777C336.76 167.953 336.477 168.139 336.311 168.324L336.027 168.598L335.021 167.602C335.109 167.504 335.246 167.367 335.422 167.211C335.598 167.055 335.979 166.85 336.564 166.586C337.15 166.332 337.766 166.195 338.43 166.195C339.406 166.195 340.197 166.469 340.812 166.996C341.418 167.533 341.73 168.168 341.73 168.9ZM351.936 166.4H353.137V176H351.73V168.803L345.93 176H344.738V166.4H346.135V173.598L351.936 166.4ZM362.531 176V172.104C361.789 172.641 360.891 172.904 359.836 172.904C358.742 172.904 357.844 172.562 357.16 171.879C356.477 171.195 356.135 170.297 356.135 169.203V166.4H357.531V169.203C357.531 169.896 357.756 170.473 358.205 170.922C358.654 171.371 359.23 171.596 359.934 171.596C360.412 171.596 360.871 171.527 361.301 171.381C361.73 171.234 362.043 171.078 362.238 170.922L362.531 170.697V166.4H363.938V176H362.531ZM375.637 171.723L367.834 171.703C367.883 172.572 368.234 173.324 368.898 173.949C369.562 174.584 370.334 174.896 371.232 174.896C371.828 174.896 372.385 174.77 372.902 174.496C373.41 174.232 373.781 173.969 373.996 173.695L374.338 173.305L375.236 174.203C375.197 174.262 375.139 174.33 375.061 174.428C374.982 174.525 374.826 174.682 374.572 174.906C374.318 175.131 374.055 175.326 373.762 175.502C373.469 175.678 373.098 175.834 372.639 175.98C372.18 176.127 371.711 176.195 371.232 176.195C369.924 176.195 368.791 175.717 367.854 174.74C366.906 173.764 366.438 172.582 366.438 171.195C366.438 169.809 366.896 168.637 367.834 167.66C368.771 166.684 369.865 166.195 371.135 166.195C372.443 166.195 373.537 166.654 374.416 167.562C375.295 168.471 375.734 169.613 375.734 171L375.637 171.723ZM371.135 167.504C370.295 167.504 369.562 167.807 368.938 168.393C368.312 168.988 367.941 169.691 367.834 170.502H374.338C374.23 169.643 373.879 168.92 373.283 168.354C372.688 167.787 371.975 167.504 371.135 167.504ZM377.531 171.195C377.531 169.809 378 168.637 378.947 167.66C379.895 166.684 381.018 166.195 382.316 166.195C383.068 166.195 383.771 166.361 384.416 166.684C385.061 167.006 385.529 167.328 385.803 167.641L386.223 168.1L385.217 169.096C385.197 169.057 385.158 169.008 385.1 168.93C385.051 168.861 384.934 168.734 384.758 168.539C384.582 168.354 384.387 168.188 384.182 168.051C383.967 167.914 383.703 167.787 383.371 167.67C383.039 167.562 382.688 167.504 382.326 167.504C381.408 167.504 380.607 167.865 379.934 168.578C379.26 169.291 378.928 170.17 378.928 171.205C378.928 172.24 379.26 173.119 379.934 173.832C380.607 174.545 381.408 174.896 382.326 174.896C382.883 174.896 383.41 174.77 383.918 174.496C384.416 174.232 384.777 173.969 385.002 173.695L385.324 173.305L386.32 174.203C386.281 174.262 386.223 174.33 386.145 174.428C386.066 174.525 385.891 174.682 385.627 174.906C385.373 175.131 385.1 175.326 384.807 175.502C384.523 175.678 384.152 175.834 383.703 175.98C383.254 176.127 382.795 176.195 382.326 176.195C381.018 176.195 379.885 175.717 378.947 174.74C378 173.764 377.531 172.582 377.531 171.195ZM389.924 173.305V176H388.527V166.4H389.924V171.498L394.719 166.4H396.428L392.727 170.297L396.828 176H395.227L391.828 171.303L389.924 173.305ZM405.822 166.4H407.023V176H405.617V168.803L399.816 176H398.625V166.4H400.021V173.598L405.822 166.4ZM418.625 168.9L415.119 173.305L411.623 168.9V176H410.227V166.4H411.32L415.119 171.195L418.918 166.4H420.021V176H418.625V168.9ZM91.3984 208V203.801H85.9004V208H84.5039V198.4H85.9004V202.502H91.3984V198.4H92.8047V208H91.3984ZM103.703 203.205C103.703 202.17 103.352 201.291 102.668 200.578C101.984 199.865 101.154 199.504 100.197 199.504C99.2402 199.504 98.4102 199.865 97.7266 200.578C97.043 201.291 96.7012 202.16 96.7012 203.195C96.7012 204.23 97.043 205.1 97.7266 205.822C98.4102 206.545 99.2402 206.896 100.197 206.896C101.154 206.896 101.984 206.545 102.668 205.832C103.352 205.119 103.703 204.24 103.703 203.205ZM95.3047 203.205C95.3047 201.799 95.7734 200.617 96.7305 199.65C97.6875 198.684 98.8398 198.195 100.207 198.195C101.564 198.195 102.717 198.684 103.664 199.65C104.621 200.617 105.09 201.799 105.09 203.205C105.09 204.611 104.621 205.793 103.664 206.76C102.717 207.717 101.564 208.205 100.207 208.205C98.8398 208.205 97.6875 207.717 96.7305 206.76C95.7734 205.793 95.3047 204.611 95.3047 203.205ZM106.906 203.195C106.906 201.809 107.375 200.637 108.322 199.66C109.27 198.684 110.393 198.195 111.691 198.195C112.443 198.195 113.146 198.361 113.791 198.684C114.436 199.006 114.904 199.328 115.178 199.641L115.598 200.1L114.592 201.096C114.572 201.057 114.533 201.008 114.475 200.93C114.426 200.861 114.309 200.734 114.133 200.539C113.957 200.354 113.762 200.188 113.557 200.051C113.342 199.914 113.078 199.787 112.746 199.67C112.414 199.562 112.062 199.504 111.701 199.504C110.783 199.504 109.982 199.865 109.309 200.578C108.635 201.291 108.303 202.17 108.303 203.205C108.303 204.24 108.635 205.119 109.309 205.832C109.982 206.545 110.783 206.896 111.701 206.896C112.258 206.896 112.785 206.77 113.293 206.496C113.791 206.232 114.152 205.969 114.377 205.695L114.699 205.305L115.695 206.203C115.656 206.262 115.598 206.33 115.52 206.428C115.441 206.525 115.266 206.682 115.002 206.906C114.748 207.131 114.475 207.326 114.182 207.502C113.898 207.678 113.527 207.834 113.078 207.98C112.629 208.127 112.17 208.195 111.701 208.195C110.393 208.195 109.26 207.717 108.322 206.74C107.375 205.764 106.906 204.582 106.906 203.195ZM125.1 198.4H126.301V208H124.895V200.803L119.094 208H117.902V198.4H119.299V205.598L125.1 198.4ZM128.303 199.699V198.4H136.496V199.699H133.098V208H131.701V199.699H128.303ZM147.004 203.723L139.201 203.703C139.25 204.572 139.602 205.324 140.266 205.949C140.93 206.584 141.701 206.896 142.6 206.896C143.195 206.896 143.752 206.77 144.27 206.496C144.777 206.232 145.148 205.969 145.363 205.695L145.705 205.305L146.604 206.203C146.564 206.262 146.506 206.33 146.428 206.428C146.35 206.525 146.193 206.682 145.939 206.906C145.686 207.131 145.422 207.326 145.129 207.502C144.836 207.678 144.465 207.834 144.006 207.98C143.547 208.127 143.078 208.195 142.6 208.195C141.291 208.195 140.158 207.717 139.221 206.74C138.273 205.764 137.805 204.582 137.805 203.195C137.805 201.809 138.264 200.637 139.201 199.66C140.139 198.684 141.232 198.195 142.502 198.195C143.811 198.195 144.904 198.654 145.783 199.562C146.662 200.471 147.102 201.613 147.102 203L147.004 203.723ZM142.502 199.504C141.662 199.504 140.93 199.807 140.305 200.393C139.68 200.988 139.309 201.691 139.201 202.502H145.705C145.598 201.643 145.246 200.92 144.65 200.354C144.055 199.787 143.342 199.504 142.502 199.504ZM150.598 198.4L157.6 198.41V208.01H156.193V199.709H151.994V201.213C151.994 202.619 151.916 203.801 151.779 204.738C151.643 205.676 151.428 206.398 151.154 206.887C150.871 207.375 150.559 207.717 150.227 207.912C149.885 208.107 149.475 208.205 148.996 208.205C148.83 208.205 148.664 208.186 148.498 208.156C148.332 208.117 148.215 208.088 148.137 208.049L148 208.01V206.613C148.264 206.74 148.527 206.809 148.801 206.809C149.211 206.809 149.533 206.691 149.768 206.457C150.002 206.223 150.197 205.676 150.354 204.836C150.51 203.986 150.598 202.775 150.598 201.203V198.4ZM160.188 201.604C160.188 200.686 160.51 199.924 161.154 199.318C161.799 198.713 162.648 198.4 163.693 198.4H167.785V208H166.389V204.797H163.586L161.594 208H159.992L162.189 204.504C162.131 204.494 162.062 204.475 161.965 204.436C161.867 204.396 161.711 204.309 161.486 204.172C161.252 204.035 161.057 203.859 160.881 203.664C160.705 203.469 160.549 203.186 160.402 202.834C160.256 202.473 160.188 202.062 160.188 201.604ZM166.389 199.699L163.693 199.709C163.049 199.709 162.541 199.885 162.16 200.236C161.779 200.588 161.594 201.047 161.594 201.604C161.594 202.17 161.779 202.619 162.16 202.971C162.531 203.322 163.049 203.498 163.693 203.498H166.389V199.699ZM179.387 200.9L175.881 205.305L172.385 200.9V208H170.988V198.4H172.082L175.881 203.195L179.68 198.4H180.783V208H179.387V200.9ZM189.201 203C189.201 203.996 189.299 204.973 189.514 205.939C189.729 206.906 189.982 207.727 190.285 208.4C190.588 209.084 190.891 209.689 191.193 210.217C191.506 210.754 191.76 211.145 191.975 211.398L192.287 211.799L191.193 212.404C191.105 212.316 190.988 212.18 190.842 211.994C190.686 211.799 190.422 211.398 190.051 210.773C189.67 210.148 189.338 209.504 189.055 208.83C188.762 208.146 188.498 207.277 188.264 206.223C188.02 205.158 187.902 204.084 187.902 203C187.902 201.926 188.01 200.861 188.234 199.816C188.459 198.771 188.732 197.893 189.055 197.17C189.377 196.457 189.699 195.822 190.031 195.266C190.354 194.699 190.627 194.279 190.852 194.006L191.193 193.605L192.287 194.211C192.209 194.299 192.102 194.436 191.965 194.621C191.828 194.797 191.574 195.188 191.213 195.783C190.861 196.369 190.549 196.984 190.275 197.629C190.012 198.264 189.768 199.074 189.543 200.051C189.309 201.027 189.201 202.014 189.201 203ZM195.1 208V193.996H196.604V200.197H204.396V193.996H205.9V208H204.396V201.604H196.604V208H195.1ZM210.1 193.996H214.504C216.535 193.996 218.264 194.689 219.68 196.057C221.086 197.434 221.799 199.084 221.799 200.998C221.799 202.922 221.086 204.572 219.68 205.939C218.264 207.316 216.535 208 214.504 208H210.1V193.996ZM214.504 195.402H211.604V206.604H214.504C216.145 206.604 217.521 206.066 218.635 204.973C219.748 203.889 220.305 202.57 220.305 201.008C220.305 199.445 219.748 198.127 218.635 197.033C217.521 195.949 216.145 195.402 214.504 195.402ZM225.1 193.996H229.504C231.535 193.996 233.264 194.689 234.68 196.057C236.086 197.434 236.799 199.084 236.799 200.998C236.799 202.922 236.086 204.572 234.68 205.939C233.264 207.316 231.535 208 229.504 208H225.1V193.996ZM229.504 195.402H226.604V206.604H229.504C231.145 206.604 232.521 206.066 233.635 204.973C234.748 203.889 235.305 202.57 235.305 201.008C235.305 199.445 234.748 198.127 233.635 197.033C232.521 195.949 231.145 195.402 229.504 195.402ZM239.797 206.203L241.203 207.004L238.898 210.598L238 210.1L239.797 206.203ZM254.904 204.201C254.904 203.723 254.758 203.312 254.475 202.971C254.201 202.639 253.84 202.375 253.391 202.18C252.941 201.994 252.453 201.828 251.906 201.672C251.369 201.516 250.832 201.35 250.285 201.164C249.748 200.979 249.26 200.754 248.811 200.48C248.361 200.217 248 199.836 247.717 199.348C247.443 198.859 247.297 198.283 247.297 197.6C247.297 196.545 247.717 195.656 248.537 194.914C249.367 194.172 250.451 193.801 251.799 193.801C252.307 193.801 252.795 193.869 253.254 193.996C253.713 194.123 254.094 194.27 254.396 194.445C254.709 194.621 254.982 194.787 255.217 194.963C255.461 195.139 255.637 195.285 255.734 195.402L255.9 195.598L254.895 196.604C254.875 196.564 254.836 196.516 254.777 196.457C254.729 196.398 254.602 196.281 254.406 196.125C254.211 195.969 254.006 195.822 253.791 195.695C253.576 195.568 253.283 195.451 252.922 195.354C252.561 195.256 252.189 195.197 251.799 195.197C250.881 195.197 250.158 195.432 249.611 195.9C249.064 196.369 248.791 196.936 248.791 197.6C248.791 198.088 248.938 198.498 249.211 198.83C249.494 199.172 249.855 199.436 250.305 199.621C250.754 199.816 251.252 199.982 251.789 200.139C252.336 200.295 252.873 200.461 253.41 200.646C253.947 200.832 254.436 201.057 254.885 201.32C255.334 201.594 255.705 201.965 255.979 202.453C256.262 202.941 256.398 203.518 256.398 204.201C256.398 205.393 255.988 206.35 255.148 207.092C254.318 207.834 253.166 208.195 251.691 208.195C251.096 208.195 250.529 208.127 249.982 207.98C249.445 207.834 249.006 207.658 248.654 207.463C248.312 207.268 248.01 207.062 247.746 206.857C247.473 206.643 247.287 206.467 247.189 206.33L247.004 206.105L247.922 205.09C247.941 205.129 247.99 205.188 248.059 205.266C248.127 205.344 248.273 205.49 248.508 205.686C248.732 205.881 248.977 206.057 249.24 206.203C249.504 206.35 249.865 206.486 250.314 206.613C250.764 206.74 251.223 206.799 251.701 206.799C252.727 206.799 253.518 206.564 254.074 206.086C254.621 205.607 254.904 204.982 254.904 204.201ZM266.213 204.201C266.213 203.723 266.066 203.312 265.783 202.971C265.51 202.639 265.148 202.375 264.699 202.18C264.25 201.994 263.762 201.828 263.215 201.672C262.678 201.516 262.141 201.35 261.594 201.164C261.057 200.979 260.568 200.754 260.119 200.48C259.67 200.217 259.309 199.836 259.025 199.348C258.752 198.859 258.605 198.283 258.605 197.6C258.605 196.545 259.025 195.656 259.846 194.914C260.676 194.172 261.76 193.801 263.107 193.801C263.615 193.801 264.104 193.869 264.562 193.996C265.021 194.123 265.402 194.27 265.705 194.445C266.018 194.621 266.291 194.787 266.525 194.963C266.77 195.139 266.945 195.285 267.043 195.402L267.209 195.598L266.203 196.604C266.184 196.564 266.145 196.516 266.086 196.457C266.037 196.398 265.91 196.281 265.715 196.125C265.52 195.969 265.314 195.822 265.1 195.695C264.885 195.568 264.592 195.451 264.23 195.354C263.869 195.256 263.498 195.197 263.107 195.197C262.189 195.197 261.467 195.432 260.92 195.9C260.373 196.369 260.1 196.936 260.1 197.6C260.1 198.088 260.246 198.498 260.52 198.83C260.803 199.172 261.164 199.436 261.613 199.621C262.062 199.816 262.561 199.982 263.098 200.139C263.645 200.295 264.182 200.461 264.719 200.646C265.256 200.832 265.744 201.057 266.193 201.32C266.643 201.594 267.014 201.965 267.287 202.453C267.57 202.941 267.707 203.518 267.707 204.201C267.707 205.393 267.297 206.35 266.457 207.092C265.627 207.834 264.475 208.195 263 208.195C262.404 208.195 261.838 208.127 261.291 207.98C260.754 207.834 260.314 207.658 259.963 207.463C259.621 207.268 259.318 207.062 259.055 206.857C258.781 206.643 258.596 206.467 258.498 206.33L258.312 206.105L259.23 205.09C259.25 205.129 259.299 205.188 259.367 205.266C259.436 205.344 259.582 205.49 259.816 205.686C260.041 205.881 260.285 206.057 260.549 206.203C260.812 206.35 261.174 206.486 261.623 206.613C262.072 206.74 262.531 206.799 263.01 206.799C264.035 206.799 264.826 206.564 265.383 206.086C265.93 205.607 266.213 204.982 266.213 204.201ZM270.822 193.996H275.227C277.258 193.996 278.986 194.689 280.402 196.057C281.809 197.434 282.521 199.084 282.521 200.998C282.521 202.922 281.809 204.572 280.402 205.939C278.986 207.316 277.258 208 275.227 208H270.822V193.996ZM275.227 195.402H272.326V206.604H275.227C276.867 206.604 278.244 206.066 279.357 204.973C280.471 203.889 281.027 202.57 281.027 201.008C281.027 199.445 280.471 198.127 279.357 197.033C278.244 195.949 276.867 195.402 275.227 195.402ZM285.52 206.203L286.926 207.004L284.621 210.598L283.723 210.1L285.52 206.203ZM293.928 193.996H298.332C300.363 193.996 302.092 194.689 303.508 196.057C304.914 197.434 305.627 199.084 305.627 200.998C305.627 202.922 304.914 204.572 303.508 205.939C302.092 207.316 300.363 208 298.332 208H293.928V193.996ZM298.332 195.402H295.432V206.604H298.332C299.973 206.604 301.35 206.066 302.463 204.973C303.576 203.889 304.133 202.57 304.133 201.008C304.133 199.445 303.576 198.127 302.463 197.033C301.35 195.949 299.973 195.402 298.332 195.402ZM312.131 208L306.623 193.996H308.225L312.824 205.9L317.424 193.996H319.025L313.527 208H312.131ZM321.721 193.996H326.125C328.156 193.996 329.885 194.689 331.301 196.057C332.707 197.434 333.42 199.084 333.42 200.998C333.42 202.922 332.707 204.572 331.301 205.939C329.885 207.316 328.156 208 326.125 208H321.721V193.996ZM326.125 195.402H323.225V206.604H326.125C327.766 206.604 329.143 206.066 330.256 204.973C331.369 203.889 331.926 202.57 331.926 201.008C331.926 199.445 331.369 198.127 330.256 197.033C329.143 195.949 327.766 195.402 326.125 195.402ZM336.418 206.203L337.824 207.004L335.52 210.598L334.621 210.1L336.418 206.203ZM344.924 203.195C344.924 204.279 345.295 205.168 346.057 205.861C346.809 206.555 347.795 206.906 349.016 206.906V199.514C347.795 199.514 346.809 199.855 346.057 200.559C345.295 201.252 344.924 202.131 344.924 203.195ZM354.523 203.205C354.523 202.131 354.143 201.252 353.391 200.559C352.639 199.855 351.652 199.514 350.422 199.514V206.906C351.643 206.906 352.629 206.555 353.391 205.861C354.143 205.168 354.523 204.279 354.523 203.205ZM350.422 208.195V212.199H349.025V208.195C347.395 208.195 346.066 207.727 345.051 206.77C344.035 205.822 343.527 204.631 343.527 203.205C343.527 201.779 344.035 200.588 345.051 199.631C346.066 198.674 347.395 198.205 349.025 198.205V194.006H350.422V198.205C352.043 198.205 353.371 198.674 354.396 199.631C355.412 200.588 355.93 201.779 355.93 203.205C355.93 204.631 355.412 205.822 354.396 206.77C353.371 207.727 352.043 208.195 350.422 208.195ZM359.426 198.4L366.428 198.41V208.01H365.021V199.709H360.822V201.213C360.822 202.619 360.744 203.801 360.607 204.738C360.471 205.676 360.256 206.398 359.982 206.887C359.699 207.375 359.387 207.717 359.055 207.912C358.713 208.107 358.303 208.205 357.824 208.205C357.658 208.205 357.492 208.186 357.326 208.156C357.16 208.117 357.043 208.088 356.965 208.049L356.828 208.01V206.613C357.092 206.74 357.355 206.809 357.629 206.809C358.039 206.809 358.361 206.691 358.596 206.457C358.83 206.223 359.025 205.676 359.182 204.836C359.338 203.986 359.426 202.775 359.426 201.203V198.4ZM378.117 203.723L370.314 203.703C370.363 204.572 370.715 205.324 371.379 205.949C372.043 206.584 372.814 206.896 373.713 206.896C374.309 206.896 374.865 206.77 375.383 206.496C375.891 206.232 376.262 205.969 376.477 205.695L376.818 205.305L377.717 206.203C377.678 206.262 377.619 206.33 377.541 206.428C377.463 206.525 377.307 206.682 377.053 206.906C376.799 207.131 376.535 207.326 376.242 207.502C375.949 207.678 375.578 207.834 375.119 207.98C374.66 208.127 374.191 208.195 373.713 208.195C372.404 208.195 371.271 207.717 370.334 206.74C369.387 205.764 368.918 204.582 368.918 203.195C368.918 201.809 369.377 200.637 370.314 199.66C371.252 198.684 372.346 198.195 373.615 198.195C374.924 198.195 376.018 198.654 376.896 199.562C377.775 200.471 378.215 201.613 378.215 203L378.117 203.723ZM373.615 199.504C372.775 199.504 372.043 199.807 371.418 200.393C370.793 200.988 370.422 201.691 370.314 202.502H376.818C376.711 201.643 376.359 200.92 375.764 200.354C375.168 199.787 374.455 199.504 373.615 199.504ZM380.715 208V198.4H382.111V206.701H386.213V198.4H387.629V206.701H391.711V198.4H393.107V208H380.715ZM397.717 205.305V208H396.32V198.4H397.717V203.498L402.512 198.4H404.221L400.52 202.297L404.621 208H403.02L399.621 203.303L397.717 205.305ZM408.518 202.502L412.219 201.896C412.219 201.193 411.994 200.617 411.545 200.168C411.096 199.729 410.52 199.504 409.816 199.504C409.309 199.504 408.83 199.621 408.381 199.855C407.932 200.09 407.609 200.324 407.414 200.559L407.111 200.9L406.213 200.002C406.252 199.953 406.301 199.885 406.369 199.807C406.438 199.729 406.584 199.582 406.818 199.377C407.053 199.172 407.297 198.986 407.551 198.82C407.805 198.664 408.137 198.518 408.547 198.391C408.957 198.264 409.387 198.195 409.816 198.195C410.91 198.195 411.809 198.557 412.531 199.26C413.254 199.973 413.615 200.852 413.615 201.896V208H412.219V206.701C412.189 206.74 412.15 206.799 412.092 206.867C412.033 206.936 411.916 207.053 411.721 207.229C411.525 207.404 411.32 207.551 411.105 207.688C410.881 207.824 410.588 207.941 410.227 208.039C409.865 208.146 409.494 208.195 409.113 208.195C408.156 208.195 407.346 207.912 406.691 207.346C406.037 206.779 405.715 206.135 405.715 205.402C405.715 204.602 405.949 203.957 406.438 203.469C406.916 202.98 407.609 202.658 408.518 202.502ZM409.113 206.896C410.012 206.896 410.754 206.604 411.34 206.008C411.926 205.422 412.219 204.65 412.219 203.703V203.098L408.918 203.703C407.717 203.938 407.111 204.504 407.111 205.402C407.111 205.832 407.287 206.193 407.639 206.477C407.99 206.76 408.488 206.896 409.113 206.896ZM425.207 200.9L421.701 205.305L418.205 200.9V208H416.809V198.4H417.902L421.701 203.195L425.5 198.4H426.604V208H425.207V200.9ZM432.111 203C432.111 202.014 432.004 201.037 431.789 200.07C431.574 199.104 431.32 198.283 431.008 197.6C430.695 196.926 430.393 196.32 430.1 195.783C429.797 195.256 429.543 194.855 429.328 194.602L429.016 194.201L430.109 193.596C430.197 193.693 430.314 193.83 430.471 194.016C430.617 194.211 430.881 194.611 431.262 195.236C431.633 195.861 431.965 196.506 432.258 197.18C432.551 197.863 432.814 198.732 433.049 199.787C433.283 200.852 433.41 201.926 433.41 203C433.41 204.084 433.293 205.148 433.068 206.193C432.844 207.238 432.57 208.117 432.238 208.83C431.906 209.553 431.584 210.188 431.271 210.744C430.949 211.311 430.676 211.73 430.451 212.004L430.109 212.404L429.016 211.799C429.094 211.711 429.201 211.574 429.338 211.389C429.475 211.213 429.729 210.822 430.09 210.227C430.451 209.641 430.764 209.025 431.027 208.381C431.291 207.746 431.535 206.936 431.77 205.959C431.994 204.982 432.111 203.996 432.111 203ZM436.809 206.203L438.215 207.004L435.91 210.598L435.012 210.1L436.809 206.203ZM91.3984 240V235.801H85.9004V240H84.5039V230.4H85.9004V234.502H91.3984V230.4H92.8047V240H91.3984ZM98.1074 241.396L98.6055 240L94.6992 230.4H96.2031L99.3086 238.203L102.404 230.4H103.908L99.5039 241.396C99.1035 242.412 98.6738 243.135 98.2246 243.564C97.7656 243.994 97.1895 244.199 96.4961 244.199C96.2812 244.199 96.0762 244.189 95.8809 244.15C95.6855 244.121 95.5293 244.082 95.4316 244.043L95.2949 244.004V242.695C95.627 242.832 95.959 242.9 96.291 242.9C97.1406 242.9 97.7461 242.402 98.1074 241.396ZM111.721 234.502L115.422 233.896C115.422 233.193 115.197 232.617 114.748 232.168C114.299 231.729 113.723 231.504 113.02 231.504C112.512 231.504 112.033 231.621 111.584 231.855C111.135 232.09 110.812 232.324 110.617 232.559L110.314 232.9L109.416 232.002C109.455 231.953 109.504 231.885 109.572 231.807C109.641 231.729 109.787 231.582 110.021 231.377C110.256 231.172 110.5 230.986 110.754 230.82C111.008 230.664 111.34 230.518 111.75 230.391C112.16 230.264 112.59 230.195 113.02 230.195C114.113 230.195 115.012 230.557 115.734 231.26C116.457 231.973 116.818 232.852 116.818 233.896V240H115.422V238.701C115.393 238.74 115.354 238.799 115.295 238.867C115.236 238.936 115.119 239.053 114.924 239.229C114.729 239.404 114.523 239.551 114.309 239.688C114.084 239.824 113.791 239.941 113.43 240.039C113.068 240.146 112.697 240.195 112.316 240.195C111.359 240.195 110.549 239.912 109.895 239.346C109.24 238.779 108.918 238.135 108.918 237.402C108.918 236.602 109.152 235.957 109.641 235.469C110.119 234.98 110.812 234.658 111.721 234.502ZM112.316 238.896C113.215 238.896 113.957 238.604 114.543 238.008C115.129 237.422 115.422 236.65 115.422 235.703V235.098L112.121 235.703C110.92 235.938 110.314 236.504 110.314 237.402C110.314 237.832 110.49 238.193 110.842 238.477C111.193 238.76 111.691 238.896 112.316 238.896ZM123.117 235.195C123.117 233.809 123.586 232.637 124.533 231.66C125.48 230.684 126.604 230.195 127.902 230.195C128.654 230.195 129.357 230.361 130.002 230.684C130.646 231.006 131.115 231.328 131.389 231.641L131.809 232.1L130.803 233.096C130.783 233.057 130.744 233.008 130.686 232.93C130.637 232.861 130.52 232.734 130.344 232.539C130.168 232.354 129.973 232.188 129.768 232.051C129.553 231.914 129.289 231.787 128.957 231.67C128.625 231.562 128.273 231.504 127.912 231.504C126.994 231.504 126.193 231.865 125.52 232.578C124.846 233.291 124.514 234.17 124.514 235.205C124.514 236.24 124.846 237.119 125.52 237.832C126.193 238.545 126.994 238.896 127.912 238.896C128.469 238.896 128.996 238.77 129.504 238.496C130.002 238.232 130.363 237.969 130.588 237.695L130.91 237.305L131.906 238.203C131.867 238.262 131.809 238.33 131.73 238.428C131.652 238.525 131.477 238.682 131.213 238.906C130.959 239.131 130.686 239.326 130.393 239.502C130.109 239.678 129.738 239.834 129.289 239.98C128.84 240.127 128.381 240.195 127.912 240.195C126.604 240.195 125.471 239.717 124.533 238.74C123.586 237.764 123.117 236.582 123.117 235.195ZM142.609 235.723L134.807 235.703C134.855 236.572 135.207 237.324 135.871 237.949C136.535 238.584 137.307 238.896 138.205 238.896C138.801 238.896 139.357 238.77 139.875 238.496C140.383 238.232 140.754 237.969 140.969 237.695L141.311 237.305L142.209 238.203C142.17 238.262 142.111 238.33 142.033 238.428C141.955 238.525 141.799 238.682 141.545 238.906C141.291 239.131 141.027 239.326 140.734 239.502C140.441 239.678 140.07 239.834 139.611 239.98C139.152 240.127 138.684 240.195 138.205 240.195C136.896 240.195 135.764 239.717 134.826 238.74C133.879 237.764 133.41 236.582 133.41 235.195C133.41 233.809 133.869 232.637 134.807 231.66C135.744 230.684 136.838 230.195 138.107 230.195C139.416 230.195 140.51 230.654 141.389 231.562C142.268 232.471 142.707 233.613 142.707 235L142.609 235.723ZM138.107 231.504C137.268 231.504 136.535 231.807 135.91 232.393C135.285 232.988 134.914 233.691 134.807 234.502H141.311C141.203 233.643 140.852 232.92 140.256 232.354C139.66 231.787 138.947 231.504 138.107 231.504ZM144.006 231.699V230.4H152.199V231.699H148.801V240H147.404V231.699H144.006ZM162.707 235.723L154.904 235.703C154.953 236.572 155.305 237.324 155.969 237.949C156.633 238.584 157.404 238.896 158.303 238.896C158.898 238.896 159.455 238.77 159.973 238.496C160.48 238.232 160.852 237.969 161.066 237.695L161.408 237.305L162.307 238.203C162.268 238.262 162.209 238.33 162.131 238.428C162.053 238.525 161.896 238.682 161.643 238.906C161.389 239.131 161.125 239.326 160.832 239.502C160.539 239.678 160.168 239.834 159.709 239.98C159.25 240.127 158.781 240.195 158.303 240.195C156.994 240.195 155.861 239.717 154.924 238.74C153.977 237.764 153.508 236.582 153.508 235.195C153.508 233.809 153.967 232.637 154.904 231.66C155.842 230.684 156.936 230.195 158.205 230.195C159.514 230.195 160.607 230.654 161.486 231.562C162.365 232.471 162.805 233.613 162.805 235L162.707 235.723ZM158.205 231.504C157.365 231.504 156.633 231.807 156.008 232.393C155.383 232.988 155.012 233.691 154.904 234.502H161.408C161.301 233.643 160.949 232.92 160.354 232.354C159.758 231.787 159.045 231.504 158.205 231.504ZM165.305 230.4H169.699C170.578 230.4 171.281 230.645 171.809 231.113C172.336 231.582 172.6 232.178 172.6 232.9C172.6 233.311 172.492 233.691 172.297 234.023C172.102 234.355 171.896 234.59 171.701 234.717L171.398 234.902C171.438 234.922 171.486 234.941 171.564 234.961C171.643 234.99 171.77 235.059 171.955 235.176C172.141 235.293 172.307 235.42 172.443 235.576C172.58 235.732 172.707 235.947 172.824 236.23C172.941 236.523 173 236.846 173 237.197C173 238.066 172.727 238.75 172.189 239.248C171.643 239.756 170.881 240 169.904 240H165.305V230.4ZM169.904 235.498H166.701V238.701H169.904C170.451 238.701 170.871 238.564 171.164 238.281C171.457 238.008 171.604 237.607 171.604 237.1C171.604 236.592 171.457 236.201 171.164 235.918C170.871 235.645 170.451 235.498 169.904 235.498ZM171.203 232.998C171.203 232.139 170.695 231.699 169.699 231.699H166.701V234.297H169.699C170.695 234.297 171.203 233.867 171.203 232.998ZM186.193 230.4V240H184.787V230.4H186.193ZM177.092 238.701H179.514C180.139 238.701 180.637 238.525 181.018 238.174C181.398 237.822 181.594 237.363 181.594 236.797C181.594 236.24 181.398 235.781 181.018 235.43C180.637 235.078 180.129 234.902 179.494 234.902H177.092V238.701ZM182.99 236.807C182.99 237.764 182.678 238.535 182.062 239.121C181.438 239.707 180.588 240 179.514 240H175.695V230.4H177.092V233.604H179.494C180.568 233.604 181.428 233.896 182.053 234.482C182.678 235.068 182.99 235.85 182.99 236.807ZM197.883 235.723L190.08 235.703C190.129 236.572 190.48 237.324 191.145 237.949C191.809 238.584 192.58 238.896 193.479 238.896C194.074 238.896 194.631 238.77 195.148 238.496C195.656 238.232 196.027 237.969 196.242 237.695L196.584 237.305L197.482 238.203C197.443 238.262 197.385 238.33 197.307 238.428C197.229 238.525 197.072 238.682 196.818 238.906C196.564 239.131 196.301 239.326 196.008 239.502C195.715 239.678 195.344 239.834 194.885 239.98C194.426 240.127 193.957 240.195 193.479 240.195C192.17 240.195 191.037 239.717 190.1 238.74C189.152 237.764 188.684 236.582 188.684 235.195C188.684 233.809 189.143 232.637 190.08 231.66C191.018 230.684 192.111 230.195 193.381 230.195C194.689 230.195 195.783 230.654 196.662 231.562C197.541 232.471 197.98 233.613 197.98 235L197.883 235.723ZM193.381 231.504C192.541 231.504 191.809 231.807 191.184 232.393C190.559 232.988 190.188 233.691 190.08 234.502H196.584C196.477 233.643 196.125 232.92 195.529 232.354C194.934 231.787 194.221 231.504 193.381 231.504ZM203.586 235.195C203.586 233.809 204.055 232.637 205.002 231.66C205.949 230.684 207.072 230.195 208.371 230.195C209.123 230.195 209.826 230.361 210.471 230.684C211.115 231.006 211.584 231.328 211.857 231.641L212.277 232.1L211.271 233.096C211.252 233.057 211.213 233.008 211.154 232.93C211.105 232.861 210.988 232.734 210.812 232.539C210.637 232.354 210.441 232.188 210.236 232.051C210.021 231.914 209.758 231.787 209.426 231.67C209.094 231.562 208.742 231.504 208.381 231.504C207.463 231.504 206.662 231.865 205.988 232.578C205.314 233.291 204.982 234.17 204.982 235.205C204.982 236.24 205.314 237.119 205.988 237.832C206.662 238.545 207.463 238.896 208.381 238.896C208.938 238.896 209.465 238.77 209.973 238.496C210.471 238.232 210.832 237.969 211.057 237.695L211.379 237.305L212.375 238.203C212.336 238.262 212.277 238.33 212.199 238.428C212.121 238.525 211.945 238.682 211.682 238.906C211.428 239.131 211.154 239.326 210.861 239.502C210.578 239.678 210.207 239.834 209.758 239.98C209.309 240.127 208.85 240.195 208.381 240.195C207.072 240.195 205.939 239.717 205.002 238.74C204.055 237.764 203.586 236.582 203.586 235.195ZM221.477 240V231.719H215.979V240H214.582V230.4H222.883V240H221.477ZM233.781 235.205C233.781 234.17 233.43 233.291 232.746 232.578C232.062 231.865 231.232 231.504 230.275 231.504C229.318 231.504 228.488 231.865 227.805 232.578C227.121 233.291 226.779 234.16 226.779 235.195C226.779 236.23 227.121 237.1 227.805 237.822C228.488 238.545 229.318 238.896 230.275 238.896C231.232 238.896 232.062 238.545 232.746 237.832C233.43 237.119 233.781 236.24 233.781 235.205ZM225.383 235.205C225.383 233.799 225.852 232.617 226.809 231.65C227.766 230.684 228.918 230.195 230.285 230.195C231.643 230.195 232.795 230.684 233.742 231.65C234.699 232.617 235.168 233.799 235.168 235.205C235.168 236.611 234.699 237.793 233.742 238.76C232.795 239.717 231.643 240.205 230.285 240.205C228.918 240.205 227.766 239.717 226.809 238.76C225.852 237.793 225.383 236.611 225.383 235.205ZM236.984 235.195C236.984 233.809 237.453 232.637 238.4 231.66C239.348 230.684 240.471 230.195 241.77 230.195C242.521 230.195 243.225 230.361 243.869 230.684C244.514 231.006 244.982 231.328 245.256 231.641L245.676 232.1L244.67 233.096C244.65 233.057 244.611 233.008 244.553 232.93C244.504 232.861 244.387 232.734 244.211 232.539C244.035 232.354 243.84 232.188 243.635 232.051C243.42 231.914 243.156 231.787 242.824 231.67C242.492 231.562 242.141 231.504 241.779 231.504C240.861 231.504 240.061 231.865 239.387 232.578C238.713 233.291 238.381 234.17 238.381 235.205C238.381 236.24 238.713 237.119 239.387 237.832C240.061 238.545 240.861 238.896 241.779 238.896C242.336 238.896 242.863 238.77 243.371 238.496C243.869 238.232 244.23 237.969 244.455 237.695L244.777 237.305L245.773 238.203C245.734 238.262 245.676 238.33 245.598 238.428C245.52 238.525 245.344 238.682 245.08 238.906C244.826 239.131 244.553 239.326 244.26 239.502C243.977 239.678 243.605 239.834 243.156 239.98C242.707 240.127 242.248 240.195 241.779 240.195C240.471 240.195 239.338 239.717 238.4 238.74C237.453 237.764 236.984 236.582 236.984 235.195ZM255.676 235.205C255.676 234.17 255.324 233.291 254.641 232.578C253.957 231.865 253.127 231.504 252.17 231.504C251.213 231.504 250.383 231.865 249.699 232.578C249.016 233.291 248.674 234.16 248.674 235.195C248.674 236.23 249.016 237.1 249.699 237.822C250.383 238.545 251.213 238.896 252.17 238.896C253.127 238.896 253.957 238.545 254.641 237.832C255.324 237.119 255.676 236.24 255.676 235.205ZM247.277 235.205C247.277 233.799 247.746 232.617 248.703 231.65C249.66 230.684 250.812 230.195 252.18 230.195C253.537 230.195 254.689 230.684 255.637 231.65C256.594 232.617 257.062 233.799 257.062 235.205C257.062 236.611 256.594 237.793 255.637 238.76C254.689 239.717 253.537 240.205 252.18 240.205C250.812 240.205 249.66 239.717 248.703 238.76C247.746 237.793 247.277 236.611 247.277 235.205ZM268.674 235.4C268.674 236.748 268.215 237.891 267.307 238.809C266.389 239.736 265.285 240.195 263.977 240.195C262.561 240.195 261.408 239.658 260.52 238.584C259.621 237.51 259.182 235.977 259.182 234.004C259.182 229.59 260.812 227.09 264.074 226.504C264.777 226.387 265.412 226.24 265.969 226.045C266.516 225.859 266.887 225.703 267.082 225.576L267.375 225.4L268.078 226.504C267.541 226.973 266.271 227.412 264.279 227.803C263.225 228.018 262.365 228.525 261.721 229.307C261.076 230.088 260.725 231.152 260.676 232.5C260.695 232.451 260.744 232.383 260.803 232.295C260.861 232.207 260.998 232.061 261.203 231.846C261.408 231.631 261.633 231.445 261.887 231.27C262.131 231.104 262.453 230.947 262.844 230.811C263.234 230.674 263.645 230.596 264.074 230.596C265.344 230.596 266.428 231.064 267.326 232.002C268.225 232.939 268.674 234.072 268.674 235.4ZM260.676 235.4C260.676 236.396 260.998 237.227 261.643 237.891C262.287 238.564 263.068 238.896 263.977 238.896C264.875 238.896 265.656 238.564 266.301 237.891C266.945 237.227 267.277 236.396 267.277 235.4C267.277 234.414 266.945 233.584 266.301 232.91C265.656 232.246 264.875 231.904 263.977 231.904C263.068 231.904 262.287 232.246 261.643 232.91C260.998 233.584 260.676 234.414 260.676 235.4ZM281.779 230.4V240H280.373V230.4H281.779ZM272.678 238.701H275.1C275.725 238.701 276.223 238.525 276.604 238.174C276.984 237.822 277.18 237.363 277.18 236.797C277.18 236.24 276.984 235.781 276.604 235.43C276.223 235.078 275.715 234.902 275.08 234.902H272.678V238.701ZM278.576 236.807C278.576 237.764 278.264 238.535 277.648 239.121C277.023 239.707 276.174 240 275.1 240H271.281V230.4H272.678V233.604H275.08C276.154 233.604 277.014 233.896 277.639 234.482C278.264 235.068 278.576 235.85 278.576 236.807ZM291.975 236.104L289.182 240H287.473L291.076 235L287.775 230.4H289.475L291.975 233.896L294.475 230.4H296.174L292.873 235L296.477 240H294.777L291.975 236.104ZM299.787 235.205C299.787 236.191 300.129 237.051 300.832 237.793C301.535 238.535 302.316 238.896 303.186 238.896C304.006 238.896 304.748 238.545 305.402 237.822C306.057 237.1 306.389 236.23 306.389 235.205C306.389 234.18 306.057 233.311 305.402 232.588C304.748 231.865 304.006 231.504 303.186 231.504C302.316 231.504 301.535 231.875 300.832 232.617C300.129 233.359 299.787 234.219 299.787 235.205ZM299.787 238.496V244.209H298.391V230.41H299.787V231.914C299.807 231.875 299.855 231.807 299.924 231.729C299.992 231.65 300.129 231.514 300.344 231.318C300.559 231.123 300.783 230.947 301.037 230.791C301.281 230.635 301.594 230.498 301.984 230.381C302.375 230.264 302.775 230.205 303.186 230.205C304.406 230.205 305.48 230.693 306.398 231.68C307.316 232.656 307.785 233.838 307.785 235.205C307.785 236.572 307.326 237.754 306.408 238.73C305.49 239.707 304.416 240.195 303.186 240.195C302.775 240.195 302.375 240.137 301.994 240.02C301.613 239.902 301.291 239.766 301.037 239.6C300.773 239.443 300.549 239.277 300.354 239.111C300.158 238.945 300.021 238.799 299.924 238.682L299.787 238.496ZM312.385 234.502L316.086 233.896C316.086 233.193 315.861 232.617 315.412 232.168C314.963 231.729 314.387 231.504 313.684 231.504C313.176 231.504 312.697 231.621 312.248 231.855C311.799 232.09 311.477 232.324 311.281 232.559L310.979 232.9L310.08 232.002C310.119 231.953 310.168 231.885 310.236 231.807C310.305 231.729 310.451 231.582 310.686 231.377C310.92 231.172 311.164 230.986 311.418 230.82C311.672 230.664 312.004 230.518 312.414 230.391C312.824 230.264 313.254 230.195 313.684 230.195C314.777 230.195 315.676 230.557 316.398 231.26C317.121 231.973 317.482 232.852 317.482 233.896V240H316.086V238.701C316.057 238.74 316.018 238.799 315.959 238.867C315.9 238.936 315.783 239.053 315.588 239.229C315.393 239.404 315.188 239.551 314.973 239.688C314.748 239.824 314.455 239.941 314.094 240.039C313.732 240.146 313.361 240.195 312.98 240.195C312.023 240.195 311.213 239.912 310.559 239.346C309.904 238.779 309.582 238.135 309.582 237.402C309.582 236.602 309.816 235.957 310.305 235.469C310.783 234.98 311.477 234.658 312.385 234.502ZM312.98 238.896C313.879 238.896 314.621 238.604 315.207 238.008C315.793 237.422 316.086 236.65 316.086 235.703V235.098L312.785 235.703C311.584 235.938 310.979 236.504 310.979 237.402C310.979 237.832 311.154 238.193 311.506 238.477C311.857 238.76 312.355 238.896 312.98 238.896ZM327.57 240V235.801H322.072V240H320.676V230.4H322.072V234.502H327.57V230.4H328.977V240H327.57ZM340.676 235.723L332.873 235.703C332.922 236.572 333.273 237.324 333.938 237.949C334.602 238.584 335.373 238.896 336.271 238.896C336.867 238.896 337.424 238.77 337.941 238.496C338.449 238.232 338.82 237.969 339.035 237.695L339.377 237.305L340.275 238.203C340.236 238.262 340.178 238.33 340.1 238.428C340.021 238.525 339.865 238.682 339.611 238.906C339.357 239.131 339.094 239.326 338.801 239.502C338.508 239.678 338.137 239.834 337.678 239.98C337.219 240.127 336.75 240.195 336.271 240.195C334.963 240.195 333.83 239.717 332.893 238.74C331.945 237.764 331.477 236.582 331.477 235.195C331.477 233.809 331.936 232.637 332.873 231.66C333.811 230.684 334.904 230.195 336.174 230.195C337.482 230.195 338.576 230.654 339.455 231.562C340.334 232.471 340.773 233.613 340.773 235L340.676 235.723ZM336.174 231.504C335.334 231.504 334.602 231.807 333.977 232.393C333.352 232.988 332.98 233.691 332.873 234.502H339.377C339.27 233.643 338.918 232.92 338.322 232.354C337.727 231.787 337.014 231.504 336.174 231.504ZM350.168 240V235.801H344.67V240H343.273V230.4H344.67V234.502H350.168V230.4H351.574V240H350.168ZM361.975 230.4H363.176V240H361.77V232.803L355.969 240H354.777V230.4H356.174V237.598L361.975 230.4ZM365.773 233.604C365.773 232.686 366.096 231.924 366.74 231.318C367.385 230.713 368.234 230.4 369.279 230.4H373.371V240H371.975V236.797H369.172L367.18 240H365.578L367.775 236.504C367.717 236.494 367.648 236.475 367.551 236.436C367.453 236.396 367.297 236.309 367.072 236.172C366.838 236.035 366.643 235.859 366.467 235.664C366.291 235.469 366.135 235.186 365.988 234.834C365.842 234.473 365.773 234.062 365.773 233.604ZM371.975 231.699L369.279 231.709C368.635 231.709 368.127 231.885 367.746 232.236C367.365 232.588 367.18 233.047 367.18 233.604C367.18 234.17 367.365 234.619 367.746 234.971C368.117 235.322 368.635 235.498 369.279 235.498H371.975V231.699ZM83.8008 267.195C83.8008 265.809 84.2695 264.637 85.2168 263.66C86.1641 262.684 87.2871 262.195 88.5859 262.195C89.3379 262.195 90.041 262.361 90.6855 262.684C91.3301 263.006 91.7988 263.328 92.0723 263.641L92.4922 264.1L91.4863 265.096C91.4668 265.057 91.4277 265.008 91.3691 264.93C91.3203 264.861 91.2031 264.734 91.0273 264.539C90.8516 264.354 90.6562 264.188 90.4512 264.051C90.2363 263.914 89.9727 263.787 89.6406 263.67C89.3086 263.562 88.957 263.504 88.5957 263.504C87.6777 263.504 86.877 263.865 86.2031 264.578C85.5293 265.291 85.1973 266.17 85.1973 267.205C85.1973 268.24 85.5293 269.119 86.2031 269.832C86.877 270.545 87.6777 270.896 88.5957 270.896C89.1523 270.896 89.6797 270.77 90.1875 270.496C90.6855 270.232 91.0469 269.969 91.2715 269.695L91.5938 269.305L92.5898 270.203C92.5508 270.262 92.4922 270.33 92.4141 270.428C92.3359 270.525 92.1602 270.682 91.8965 270.906C91.6426 271.131 91.3691 271.326 91.0762 271.502C90.793 271.678 90.4219 271.834 89.9727 271.98C89.5234 272.127 89.0645 272.195 88.5957 272.195C87.2871 272.195 86.1543 271.717 85.2168 270.74C84.2695 269.764 83.8008 268.582 83.8008 267.195ZM103.293 267.723L95.4902 267.703C95.5391 268.572 95.8906 269.324 96.5547 269.949C97.2188 270.584 97.9902 270.896 98.8887 270.896C99.4844 270.896 100.041 270.77 100.559 270.496C101.066 270.232 101.438 269.969 101.652 269.695L101.994 269.305L102.893 270.203C102.854 270.262 102.795 270.33 102.717 270.428C102.639 270.525 102.482 270.682 102.229 270.906C101.975 271.131 101.711 271.326 101.418 271.502C101.125 271.678 100.754 271.834 100.295 271.98C99.8359 272.127 99.3672 272.195 98.8887 272.195C97.5801 272.195 96.4473 271.717 95.5098 270.74C94.5625 269.764 94.0938 268.582 94.0938 267.195C94.0938 265.809 94.5527 264.637 95.4902 263.66C96.4277 262.684 97.5215 262.195 98.791 262.195C100.1 262.195 101.193 262.654 102.072 263.562C102.951 264.471 103.391 265.613 103.391 267L103.293 267.723ZM98.791 263.504C97.9512 263.504 97.2188 263.807 96.5938 264.393C95.9688 264.988 95.5977 265.691 95.4902 266.502H101.994C101.887 265.643 101.535 264.92 100.939 264.354C100.344 263.787 99.6309 263.504 98.791 263.504ZM104.689 263.699V262.4H112.883V263.699H109.484V272H108.088V263.699H104.689ZM123.391 267.723L115.588 267.703C115.637 268.572 115.988 269.324 116.652 269.949C117.316 270.584 118.088 270.896 118.986 270.896C119.582 270.896 120.139 270.77 120.656 270.496C121.164 270.232 121.535 269.969 121.75 269.695L122.092 269.305L122.99 270.203C122.951 270.262 122.893 270.33 122.814 270.428C122.736 270.525 122.58 270.682 122.326 270.906C122.072 271.131 121.809 271.326 121.516 271.502C121.223 271.678 120.852 271.834 120.393 271.98C119.934 272.127 119.465 272.195 118.986 272.195C117.678 272.195 116.545 271.717 115.607 270.74C114.66 269.764 114.191 268.582 114.191 267.195C114.191 265.809 114.65 264.637 115.588 263.66C116.525 262.684 117.619 262.195 118.889 262.195C120.197 262.195 121.291 262.654 122.17 263.562C123.049 264.471 123.488 265.613 123.488 267L123.391 267.723ZM118.889 263.504C118.049 263.504 117.316 263.807 116.691 264.393C116.066 264.988 115.695 265.691 115.588 266.502H122.092C121.984 265.643 121.633 264.92 121.037 264.354C120.441 263.787 119.729 263.504 118.889 263.504ZM125.988 262.4H130.383C131.262 262.4 131.965 262.645 132.492 263.113C133.02 263.582 133.283 264.178 133.283 264.9C133.283 265.311 133.176 265.691 132.98 266.023C132.785 266.355 132.58 266.59 132.385 266.717L132.082 266.902C132.121 266.922 132.17 266.941 132.248 266.961C132.326 266.99 132.453 267.059 132.639 267.176C132.824 267.293 132.99 267.42 133.127 267.576C133.264 267.732 133.391 267.947 133.508 268.23C133.625 268.523 133.684 268.846 133.684 269.197C133.684 270.066 133.41 270.75 132.873 271.248C132.326 271.756 131.564 272 130.588 272H125.988V262.4ZM130.588 267.498H127.385V270.701H130.588C131.135 270.701 131.555 270.564 131.848 270.281C132.141 270.008 132.287 269.607 132.287 269.1C132.287 268.592 132.141 268.201 131.848 267.918C131.555 267.645 131.135 267.498 130.588 267.498ZM131.887 264.998C131.887 264.139 131.379 263.699 130.383 263.699H127.385V266.297H130.383C131.379 266.297 131.887 265.867 131.887 264.998ZM146.877 262.4V272H145.471V262.4H146.877ZM137.775 270.701H140.197C140.822 270.701 141.32 270.525 141.701 270.174C142.082 269.822 142.277 269.363 142.277 268.797C142.277 268.24 142.082 267.781 141.701 267.43C141.32 267.078 140.812 266.902 140.178 266.902H137.775V270.701ZM143.674 268.807C143.674 269.764 143.361 270.535 142.746 271.121C142.121 271.707 141.271 272 140.197 272H136.379V262.4H137.775V265.604H140.178C141.252 265.604 142.111 265.896 142.736 266.482C143.361 267.068 143.674 267.85 143.674 268.807ZM158.469 264.9L154.963 269.305L151.467 264.9V272H150.07V262.4H151.164L154.963 267.195L158.762 262.4H159.865V272H158.469V264.9ZM178.879 265.496V266.805H166.281V265.496H178.879ZM186.486 267.205C186.486 268.191 186.828 269.051 187.531 269.793C188.234 270.535 189.016 270.896 189.885 270.896C190.705 270.896 191.447 270.545 192.102 269.822C192.756 269.1 193.088 268.23 193.088 267.205C193.088 266.18 192.756 265.311 192.102 264.588C191.447 263.865 190.705 263.504 189.885 263.504C189.016 263.504 188.234 263.875 187.531 264.617C186.828 265.359 186.486 266.219 186.486 267.205ZM186.486 270.496V276.209H185.09V262.41H186.486V263.914C186.506 263.875 186.555 263.807 186.623 263.729C186.691 263.65 186.828 263.514 187.043 263.318C187.258 263.123 187.482 262.947 187.736 262.791C187.98 262.635 188.293 262.498 188.684 262.381C189.074 262.264 189.475 262.205 189.885 262.205C191.105 262.205 192.18 262.693 193.098 263.68C194.016 264.656 194.484 265.838 194.484 267.205C194.484 268.572 194.025 269.754 193.107 270.73C192.189 271.707 191.115 272.195 189.885 272.195C189.475 272.195 189.074 272.137 188.693 272.02C188.312 271.902 187.99 271.766 187.736 271.6C187.473 271.443 187.248 271.277 187.053 271.111C186.857 270.945 186.721 270.799 186.623 270.682L186.486 270.496ZM204.68 267.205C204.68 266.17 204.328 265.291 203.645 264.578C202.961 263.865 202.131 263.504 201.174 263.504C200.217 263.504 199.387 263.865 198.703 264.578C198.02 265.291 197.678 266.16 197.678 267.195C197.678 268.23 198.02 269.1 198.703 269.822C199.387 270.545 200.217 270.896 201.174 270.896C202.131 270.896 202.961 270.545 203.645 269.832C204.328 269.119 204.68 268.24 204.68 267.205ZM196.281 267.205C196.281 265.799 196.75 264.617 197.707 263.65C198.664 262.684 199.816 262.195 201.184 262.195C202.541 262.195 203.693 262.684 204.641 263.65C205.598 264.617 206.066 265.799 206.066 267.205C206.066 268.611 205.598 269.793 204.641 270.76C203.693 271.717 202.541 272.205 201.184 272.205C199.816 272.205 198.664 271.717 197.707 270.76C196.75 269.793 196.281 268.611 196.281 267.205ZM214.387 264.9C214.387 265.223 214.328 265.516 214.23 265.779C214.133 266.033 214.006 266.238 213.859 266.385C213.713 266.531 213.566 266.658 213.41 266.756C213.254 266.854 213.137 266.932 213.039 266.971L212.883 267.01C212.932 267.02 213 267.039 213.088 267.059C213.176 267.078 213.322 267.137 213.537 267.244C213.752 267.352 213.938 267.479 214.104 267.635C214.27 267.791 214.426 268.016 214.562 268.309C214.699 268.602 214.777 268.934 214.777 269.314C214.777 270.125 214.455 270.809 213.82 271.365C213.176 271.922 212.268 272.205 211.086 272.205C210.627 272.205 210.197 272.146 209.787 272.029C209.377 271.912 209.045 271.766 208.771 271.609C208.498 271.443 208.254 271.277 208.059 271.111C207.863 270.945 207.717 270.809 207.619 270.691L207.482 270.506L208.381 269.607C208.459 269.695 208.566 269.812 208.703 269.959C208.84 270.115 209.152 270.311 209.621 270.545C210.09 270.779 210.578 270.896 211.086 270.896C211.848 270.896 212.414 270.75 212.805 270.457C213.186 270.164 213.381 269.783 213.381 269.305C213.381 268.826 213.186 268.436 212.795 268.143C212.404 267.85 211.838 267.703 211.086 267.703H209.982V266.404H211.086C211.652 266.404 212.111 266.258 212.463 265.965C212.805 265.672 212.98 265.311 212.98 264.9C212.98 264.49 212.814 264.148 212.502 263.895C212.18 263.641 211.711 263.514 211.086 263.514C210.637 263.514 210.217 263.602 209.816 263.777C209.416 263.953 209.133 264.139 208.967 264.324L208.684 264.598L207.678 263.602C207.766 263.504 207.902 263.367 208.078 263.211C208.254 263.055 208.635 262.85 209.221 262.586C209.807 262.332 210.422 262.195 211.086 262.195C212.062 262.195 212.854 262.469 213.469 262.996C214.074 263.533 214.387 264.168 214.387 264.9ZM224.289 272V267.801H218.791V272H217.395V262.4H218.791V266.502H224.289V262.4H225.695V272H224.289ZM230.295 270.701H232.814C233.439 270.701 233.938 270.525 234.318 270.174C234.699 269.822 234.895 269.363 234.895 268.797C234.895 268.24 234.699 267.781 234.318 267.43C233.938 267.078 233.43 266.902 232.795 266.902H230.295V270.701ZM236.291 268.807C236.291 269.764 235.979 270.535 235.363 271.121C234.738 271.707 233.889 272 232.814 272H228.898V262.4H230.295V265.604H232.795C233.869 265.604 234.729 265.896 235.354 266.482C235.979 267.068 236.291 267.85 236.291 268.807ZM238.4 271.199C238.4 270.906 238.488 270.672 238.664 270.486C238.84 270.301 239.084 270.203 239.387 270.203C239.699 270.203 239.943 270.301 240.119 270.486C240.295 270.672 240.383 270.906 240.383 271.199C240.383 271.492 240.295 271.736 240.119 271.922C239.943 272.107 239.699 272.195 239.387 272.195C239.084 272.195 238.84 272.107 238.664 271.922C238.488 271.736 238.4 271.492 238.4 271.199Z" fill="#1D1717"/>
</svg>
