<svg width="770" height="573" viewBox="0 0 770 573" fill="none" xmlns="http://www.w3.org/2000/svg">
<path d="M27.5992 274.407C28.185 273.822 28.185 272.872 27.5992 272.286L18.0533 262.74C17.4675 262.154 16.5178 262.154 15.932 262.74C15.3462 263.326 15.3462 264.276 15.932 264.861L24.4173 273.347L15.932 281.832C15.3462 282.418 15.3462 283.367 15.932 283.953C16.5178 284.539 17.4675 284.539 18.0533 283.953L27.5992 274.407ZM26.5386 271.847H2.00005V274.847H26.5386V271.847Z" fill="#1D1717"/>
<path d="M2 272.183L1.99999 450.537" stroke="#1D1717" stroke-width="3"/>
<path d="M2 449.762L272.587 449.762" stroke="#1D1717" stroke-width="3"/>
<path d="M31.2163 273.654L147.57 210.22L272.385 273.654L147.57 331.053L31.2163 273.654Z" fill="#7292E5"/>
<path d="M114.497 265.996V280H112.994V267.402H105.201V280H103.697V265.996H114.497ZM126.597 275.723L118.794 275.703C118.843 276.572 119.195 277.324 119.859 277.949C120.523 278.584 121.294 278.896 122.193 278.896C122.788 278.896 123.345 278.77 123.863 278.496C124.37 278.232 124.742 277.969 124.956 277.695L125.298 277.305L126.197 278.203C126.158 278.262 126.099 278.33 126.021 278.428C125.943 278.525 125.787 278.682 125.533 278.906C125.279 279.131 125.015 279.326 124.722 279.502C124.429 279.678 124.058 279.834 123.599 279.98C123.14 280.127 122.671 280.195 122.193 280.195C120.884 280.195 119.751 279.717 118.814 278.74C117.867 277.764 117.398 276.582 117.398 275.195C117.398 273.809 117.857 272.637 118.794 271.66C119.732 270.684 120.826 270.195 122.095 270.195C123.404 270.195 124.497 270.654 125.376 271.562C126.255 272.471 126.695 273.613 126.695 275L126.597 275.723ZM122.095 271.504C121.255 271.504 120.523 271.807 119.898 272.393C119.273 272.988 118.902 273.691 118.794 274.502H125.298C125.191 273.643 124.839 272.92 124.244 272.354C123.648 271.787 122.935 271.504 122.095 271.504ZM130.591 275.205C130.591 276.191 130.933 277.051 131.636 277.793C132.339 278.535 133.12 278.896 133.99 278.896C134.81 278.896 135.552 278.545 136.206 277.822C136.861 277.1 137.193 276.23 137.193 275.205C137.193 274.18 136.861 273.311 136.206 272.588C135.552 271.865 134.81 271.504 133.99 271.504C133.12 271.504 132.339 271.875 131.636 272.617C130.933 273.359 130.591 274.219 130.591 275.205ZM130.591 278.496V284.209H129.195V270.41H130.591V271.914C130.611 271.875 130.66 271.807 130.728 271.729C130.796 271.65 130.933 271.514 131.148 271.318C131.363 271.123 131.587 270.947 131.841 270.791C132.085 270.635 132.398 270.498 132.788 270.381C133.179 270.264 133.579 270.205 133.99 270.205C135.21 270.205 136.285 270.693 137.203 271.68C138.12 272.656 138.589 273.838 138.589 275.205C138.589 276.572 138.13 277.754 137.212 278.73C136.294 279.707 135.22 280.195 133.99 280.195C133.579 280.195 133.179 280.137 132.798 280.02C132.417 279.902 132.095 279.766 131.841 279.6C131.578 279.443 131.353 279.277 131.158 279.111C130.962 278.945 130.826 278.799 130.728 278.682L130.591 278.496ZM149.585 275.723L141.783 275.703C141.831 276.572 142.183 277.324 142.847 277.949C143.511 278.584 144.283 278.896 145.181 278.896C145.777 278.896 146.333 278.77 146.851 278.496C147.359 278.232 147.73 277.969 147.945 277.695L148.287 277.305L149.185 278.203C149.146 278.262 149.087 278.33 149.009 278.428C148.931 278.525 148.775 278.682 148.521 278.906C148.267 279.131 148.003 279.326 147.71 279.502C147.417 279.678 147.046 279.834 146.587 279.98C146.128 280.127 145.66 280.195 145.181 280.195C143.872 280.195 142.74 279.717 141.802 278.74C140.855 277.764 140.386 276.582 140.386 275.195C140.386 273.809 140.845 272.637 141.783 271.66C142.72 270.684 143.814 270.195 145.083 270.195C146.392 270.195 147.486 270.654 148.365 271.562C149.244 272.471 149.683 273.613 149.683 275L149.585 275.723ZM145.083 271.504C144.244 271.504 143.511 271.807 142.886 272.393C142.261 272.988 141.89 273.691 141.783 274.502H148.287C148.179 273.643 147.828 272.92 147.232 272.354C146.636 271.787 145.923 271.504 145.083 271.504ZM161.079 278.701V282.402H159.683V280H151.978V282.402H150.581V278.701H151.275C151.314 278.662 151.372 278.604 151.451 278.506C151.529 278.408 151.675 278.193 151.87 277.861C152.066 277.529 152.232 277.178 152.388 276.787C152.544 276.396 152.681 275.879 152.798 275.234C152.915 274.59 152.984 273.906 152.984 273.203V270.4H159.576V278.701H161.079ZM154.38 271.699L154.37 273.203C154.37 274.297 154.244 275.303 153.97 276.211C153.706 277.129 153.443 277.773 153.179 278.145L152.779 278.701H158.179V271.699H154.38ZM165.376 274.502L169.078 273.896C169.078 273.193 168.853 272.617 168.404 272.168C167.954 271.729 167.378 271.504 166.675 271.504C166.167 271.504 165.689 271.621 165.24 271.855C164.79 272.09 164.468 272.324 164.273 272.559L163.97 272.9L163.072 272.002C163.111 271.953 163.16 271.885 163.228 271.807C163.296 271.729 163.443 271.582 163.677 271.377C163.912 271.172 164.156 270.986 164.41 270.82C164.663 270.664 164.995 270.518 165.406 270.391C165.816 270.264 166.245 270.195 166.675 270.195C167.769 270.195 168.667 270.557 169.39 271.26C170.113 271.973 170.474 272.852 170.474 273.896V280H169.078V278.701C169.048 278.74 169.009 278.799 168.951 278.867C168.892 278.936 168.775 279.053 168.579 279.229C168.384 279.404 168.179 279.551 167.964 279.688C167.74 279.824 167.447 279.941 167.085 280.039C166.724 280.146 166.353 280.195 165.972 280.195C165.015 280.195 164.204 279.912 163.55 279.346C162.896 278.779 162.574 278.135 162.574 277.402C162.574 276.602 162.808 275.957 163.296 275.469C163.775 274.98 164.468 274.658 165.376 274.502ZM165.972 278.896C166.87 278.896 167.613 278.604 168.199 278.008C168.785 277.422 169.078 276.65 169.078 275.703V275.098L165.777 275.703C164.576 275.938 163.97 276.504 163.97 277.402C163.97 277.832 164.146 278.193 164.497 278.477C164.849 278.76 165.347 278.896 165.972 278.896ZM179.859 280V276.104C179.117 276.641 178.218 276.904 177.163 276.904C176.07 276.904 175.171 276.562 174.488 275.879C173.804 275.195 173.462 274.297 173.462 273.203V270.4H174.859V273.203C174.859 273.896 175.083 274.473 175.533 274.922C175.982 275.371 176.558 275.596 177.261 275.596C177.74 275.596 178.199 275.527 178.628 275.381C179.058 275.234 179.37 275.078 179.566 274.922L179.859 274.697V270.4H181.265V280H179.859ZM186.568 274.502L190.269 273.896C190.269 273.193 190.044 272.617 189.595 272.168C189.146 271.729 188.57 271.504 187.867 271.504C187.359 271.504 186.88 271.621 186.431 271.855C185.982 272.09 185.66 272.324 185.464 272.559L185.162 272.9L184.263 272.002C184.302 271.953 184.351 271.885 184.419 271.807C184.488 271.729 184.634 271.582 184.869 271.377C185.103 271.172 185.347 270.986 185.601 270.82C185.855 270.664 186.187 270.518 186.597 270.391C187.007 270.264 187.437 270.195 187.867 270.195C188.96 270.195 189.859 270.557 190.581 271.26C191.304 271.973 191.665 272.852 191.665 273.896V280H190.269V278.701C190.24 278.74 190.201 278.799 190.142 278.867C190.083 278.936 189.966 279.053 189.771 279.229C189.576 279.404 189.37 279.551 189.156 279.688C188.931 279.824 188.638 279.941 188.277 280.039C187.915 280.146 187.544 280.195 187.163 280.195C186.206 280.195 185.396 279.912 184.742 279.346C184.087 278.779 183.765 278.135 183.765 277.402C183.765 276.602 183.999 275.957 184.488 275.469C184.966 274.98 185.66 274.658 186.568 274.502ZM187.163 278.896C188.062 278.896 188.804 278.604 189.39 278.008C189.976 277.422 190.269 276.65 190.269 275.703V275.098L186.968 275.703C185.767 275.938 185.162 276.504 185.162 277.402C185.162 277.832 185.337 278.193 185.689 278.477C186.04 278.76 186.538 278.896 187.163 278.896Z" fill="#FAFAFA"/>
<path d="M494.334 273.654L610.688 210.22L735.503 273.654L610.688 331.053L494.334 273.654Z" fill="#7292E5"/>
<path d="M575.218 271.504L579.114 265.996H580.911L576.116 272.695L581.311 280H579.515L575.218 273.896L570.911 280H569.114L574.309 272.695L569.515 265.996H571.311L575.218 271.504ZM584.622 275.205C584.622 276.191 584.964 277.051 585.667 277.793C586.37 278.535 587.151 278.896 588.02 278.896C588.841 278.896 589.583 278.545 590.237 277.822C590.891 277.1 591.224 276.23 591.224 275.205C591.224 274.18 590.891 273.311 590.237 272.588C589.583 271.865 588.841 271.504 588.02 271.504C587.151 271.504 586.37 271.875 585.667 272.617C584.964 273.359 584.622 274.219 584.622 275.205ZM584.622 278.496V284.209H583.225V270.41H584.622V271.914C584.641 271.875 584.69 271.807 584.759 271.729C584.827 271.65 584.964 271.514 585.179 271.318C585.393 271.123 585.618 270.947 585.872 270.791C586.116 270.635 586.429 270.498 586.819 270.381C587.21 270.264 587.61 270.205 588.02 270.205C589.241 270.205 590.315 270.693 591.233 271.68C592.151 272.656 592.62 273.838 592.62 275.205C592.62 276.572 592.161 277.754 591.243 278.73C590.325 279.707 589.251 280.195 588.02 280.195C587.61 280.195 587.21 280.137 586.829 280.02C586.448 279.902 586.126 279.766 585.872 279.6C585.608 279.443 585.384 279.277 585.188 279.111C584.993 278.945 584.856 278.799 584.759 278.682L584.622 278.496ZM597.22 274.502L600.921 273.896C600.921 273.193 600.696 272.617 600.247 272.168C599.798 271.729 599.222 271.504 598.518 271.504C598.011 271.504 597.532 271.621 597.083 271.855C596.634 272.09 596.311 272.324 596.116 272.559L595.813 272.9L594.915 272.002C594.954 271.953 595.003 271.885 595.071 271.807C595.14 271.729 595.286 271.582 595.52 271.377C595.755 271.172 595.999 270.986 596.253 270.82C596.507 270.664 596.839 270.518 597.249 270.391C597.659 270.264 598.089 270.195 598.518 270.195C599.612 270.195 600.511 270.557 601.233 271.26C601.956 271.973 602.317 272.852 602.317 273.896V280H600.921V278.701C600.891 278.74 600.852 278.799 600.794 278.867C600.735 278.936 600.618 279.053 600.423 279.229C600.227 279.404 600.022 279.551 599.808 279.688C599.583 279.824 599.29 279.941 598.929 280.039C598.567 280.146 598.196 280.195 597.815 280.195C596.858 280.195 596.048 279.912 595.393 279.346C594.739 278.779 594.417 278.135 594.417 277.402C594.417 276.602 594.651 275.957 595.14 275.469C595.618 274.98 596.311 274.658 597.22 274.502ZM597.815 278.896C598.714 278.896 599.456 278.604 600.042 278.008C600.628 277.422 600.921 276.65 600.921 275.703V275.098L597.62 275.703C596.419 275.938 595.813 276.504 595.813 277.402C595.813 277.832 595.989 278.193 596.341 278.477C596.692 278.76 597.19 278.896 597.815 278.896ZM612.405 280V275.801H606.907V280H605.511V270.4H606.907V274.502H612.405V270.4H613.811V280H612.405ZM625.511 275.723L617.708 275.703C617.757 276.572 618.108 277.324 618.772 277.949C619.436 278.584 620.208 278.896 621.106 278.896C621.702 278.896 622.259 278.77 622.776 278.496C623.284 278.232 623.655 277.969 623.87 277.695L624.212 277.305L625.11 278.203C625.071 278.262 625.013 278.33 624.934 278.428C624.856 278.525 624.7 278.682 624.446 278.906C624.192 279.131 623.929 279.326 623.636 279.502C623.343 279.678 622.972 279.834 622.513 279.98C622.054 280.127 621.585 280.195 621.106 280.195C619.798 280.195 618.665 279.717 617.727 278.74C616.78 277.764 616.311 276.582 616.311 275.195C616.311 273.809 616.77 272.637 617.708 271.66C618.645 270.684 619.739 270.195 621.009 270.195C622.317 270.195 623.411 270.654 624.29 271.562C625.169 272.471 625.608 273.613 625.608 275L625.511 275.723ZM621.009 271.504C620.169 271.504 619.436 271.807 618.811 272.393C618.186 272.988 617.815 273.691 617.708 274.502H624.212C624.104 273.643 623.753 272.92 623.157 272.354C622.561 271.787 621.849 271.504 621.009 271.504ZM635.003 280V275.801H629.505V280H628.108V270.4H629.505V274.502H635.003V270.4H636.409V280H635.003ZM646.809 270.4H648.011V280H646.604V272.803L640.804 280H639.612V270.4H641.009V277.598L646.809 270.4ZM659.71 275.723L651.907 275.703C651.956 276.572 652.308 277.324 652.972 277.949C653.636 278.584 654.407 278.896 655.306 278.896C655.901 278.896 656.458 278.77 656.975 278.496C657.483 278.232 657.854 277.969 658.069 277.695L658.411 277.305L659.309 278.203C659.27 278.262 659.212 278.33 659.134 278.428C659.056 278.525 658.899 278.682 658.645 278.906C658.391 279.131 658.128 279.326 657.835 279.502C657.542 279.678 657.171 279.834 656.712 279.98C656.253 280.127 655.784 280.195 655.306 280.195C653.997 280.195 652.864 279.717 651.927 278.74C650.979 277.764 650.511 276.582 650.511 275.195C650.511 273.809 650.97 272.637 651.907 271.66C652.845 270.684 653.938 270.195 655.208 270.195C656.516 270.195 657.61 270.654 658.489 271.562C659.368 272.471 659.808 273.613 659.808 275L659.71 275.723ZM655.208 271.504C654.368 271.504 653.636 271.807 653.011 272.393C652.386 272.988 652.015 273.691 651.907 274.502H658.411C658.304 273.643 657.952 272.92 657.356 272.354C656.761 271.787 656.048 271.504 655.208 271.504Z" fill="#FAFAFA"/>
<line x1="312" y1="30.5" x2="147" y2="30.5" stroke="#1D1717" stroke-width="3"/>
<path d="M378.302 374.894C378.888 375.48 379.838 375.48 380.423 374.894L389.969 365.348C390.555 364.762 390.555 363.812 389.969 363.227C389.384 362.641 388.434 362.641 387.848 363.227L379.363 371.712L370.878 363.227C370.292 362.641 369.342 362.641 368.756 363.227C368.17 363.812 368.17 364.762 368.756 365.348L378.302 374.894ZM377.863 59L377.863 373.833L380.863 373.833L380.863 59L377.863 59Z" fill="#1D1717"/>
<path d="M280.605 272.939C280.02 273.525 280.02 274.475 280.605 275.061L290.151 284.607C290.737 285.192 291.687 285.192 292.273 284.607C292.858 284.021 292.858 283.071 292.273 282.485L283.787 274L292.273 265.515C292.858 264.929 292.858 263.979 292.273 263.393C291.687 262.808 290.737 262.808 290.151 263.393L280.605 272.939ZM488.842 275.061C489.427 274.475 489.427 273.525 488.842 272.939L479.296 263.393C478.71 262.808 477.76 262.808 477.174 263.393C476.588 263.979 476.588 264.929 477.174 265.515L485.66 274L477.174 282.485C476.588 283.071 476.588 284.021 477.174 284.607C477.76 285.192 478.71 285.192 479.296 284.607L488.842 275.061ZM281.666 275.5L487.781 275.5L487.781 272.5L281.666 272.5L281.666 275.5Z" fill="#1D1717"/>
<path d="M145.939 205.005C146.525 205.59 147.475 205.59 148.061 205.005L157.607 195.459C158.192 194.873 158.192 193.923 157.607 193.337C157.021 192.751 156.071 192.751 155.485 193.337L147 201.823L138.515 193.337C137.929 192.751 136.979 192.751 136.393 193.337C135.808 193.923 135.808 194.873 136.393 195.459L145.939 205.005ZM145.5 29.4673L145.5 203.944L148.5 203.944L148.5 29.4673L145.5 29.4673Z" fill="black"/>
<line y1="-1.5" x2="164.327" y2="-1.5" transform="matrix(1 -8.25087e-08 -9.26295e-08 -1 447.673 29.4668)" stroke="black" stroke-width="3"/>
<path d="M613.061 205.004C612.475 205.59 611.525 205.59 610.939 205.004L601.393 195.458C600.808 194.872 600.808 193.923 601.393 193.337C601.979 192.751 602.929 192.751 603.515 193.337L612 201.822L620.485 193.337C621.071 192.751 622.021 192.751 622.607 193.337C623.192 193.923 623.192 194.872 622.607 195.458L613.061 205.004ZM613.5 29.4668L613.5 203.943L610.5 203.943L610.5 29.4668L613.5 29.4668Z" fill="black"/>
<path d="M742.401 269.96C741.815 270.546 741.815 271.495 742.401 272.081L751.947 281.627C752.532 282.213 753.482 282.213 754.068 281.627C754.654 281.041 754.654 280.092 754.068 279.506L745.583 271.021L754.068 262.535C754.654 261.949 754.654 261 754.068 260.414C753.482 259.828 752.532 259.828 751.947 260.414L742.401 269.96ZM743.461 272.521L768 272.521L768 269.521L743.461 269.521L743.461 272.521Z" fill="#1D1717"/>
<path d="M768 269.857L768 450.538" stroke="#1D1717" stroke-width="3"/>
<path d="M768 449.762L476.19 449.762" stroke="#1D1717" stroke-width="3"/>
<rect x="300.675" width="165.351" height="59.3244" rx="29.6622" fill="#A6EFAA"/>
<path d="M339.974 31.5C340.032 31.5293 340.12 31.5684 340.218 31.6074C340.315 31.6562 340.491 31.7832 340.765 31.9785C341.028 32.1836 341.263 32.4082 341.468 32.6426C341.663 32.8867 341.849 33.2188 342.015 33.6484C342.181 34.0781 342.268 34.5273 342.268 34.9961C342.268 36.1582 341.868 37.1152 341.077 37.8672C340.276 38.6289 339.241 39 337.972 39H332.268V24.9961H337.669C338.802 24.9961 339.729 25.3477 340.462 26.041C341.194 26.7344 341.565 27.584 341.565 28.5996C341.565 29.0098 341.507 29.3906 341.409 29.7422C341.302 30.0938 341.165 30.3672 341.009 30.5723C340.843 30.7871 340.677 30.9629 340.52 31.1094C340.364 31.2559 340.227 31.3535 340.13 31.4023L339.974 31.5ZM333.772 37.6035H337.972C338.811 37.6035 339.485 37.3594 339.993 36.8711C340.501 36.3828 340.765 35.7578 340.765 34.9961C340.765 34.2246 340.501 33.5703 339.983 33.0234C339.466 32.4766 338.792 32.2031 337.972 32.2031H333.772V37.6035ZM337.669 26.4023H333.772V30.8848H337.669C338.411 30.8848 338.997 30.6895 339.427 30.2793C339.856 29.8691 340.071 29.3125 340.071 28.5996C340.071 27.9551 339.856 27.4277 339.427 27.0176C338.997 26.6074 338.411 26.4023 337.669 26.4023ZM353.567 34.7227L345.765 34.7031C345.813 35.5723 346.165 36.3242 346.829 36.9492C347.493 37.584 348.265 37.8965 349.163 37.8965C349.759 37.8965 350.315 37.7695 350.833 37.4961C351.341 37.2324 351.712 36.9688 351.927 36.6953L352.268 36.3047L353.167 37.2031C353.128 37.2617 353.069 37.3301 352.991 37.4277C352.913 37.5254 352.757 37.6816 352.503 37.9062C352.249 38.1309 351.985 38.3262 351.692 38.502C351.399 38.6777 351.028 38.834 350.569 38.9805C350.11 39.127 349.641 39.1953 349.163 39.1953C347.854 39.1953 346.722 38.7168 345.784 37.7402C344.837 36.7637 344.368 35.582 344.368 34.1953C344.368 32.8086 344.827 31.6367 345.765 30.6602C346.702 29.6836 347.796 29.1953 349.065 29.1953C350.374 29.1953 351.468 29.6543 352.347 30.5625C353.225 31.4707 353.665 32.6133 353.665 34L353.567 34.7227ZM349.065 30.5039C348.225 30.5039 347.493 30.8066 346.868 31.3926C346.243 31.9883 345.872 32.6914 345.765 33.502H352.268C352.161 32.6426 351.809 31.9199 351.214 31.3535C350.618 30.7871 349.905 30.5039 349.065 30.5039ZM355.462 34.1953C355.462 32.8086 355.931 31.6367 356.878 30.6602C357.825 29.6836 358.948 29.1953 360.247 29.1953C360.999 29.1953 361.702 29.3613 362.347 29.6836C362.991 30.0059 363.46 30.3281 363.733 30.6406L364.153 31.0996L363.147 32.0957C363.128 32.0566 363.089 32.0078 363.03 31.9297C362.981 31.8613 362.864 31.7344 362.688 31.5391C362.513 31.3535 362.317 31.1875 362.112 31.0508C361.897 30.9141 361.634 30.7871 361.302 30.6699C360.97 30.5625 360.618 30.5039 360.257 30.5039C359.339 30.5039 358.538 30.8652 357.864 31.5781C357.19 32.291 356.858 33.1699 356.858 34.2051C356.858 35.2402 357.19 36.1191 357.864 36.832C358.538 37.5449 359.339 37.8965 360.257 37.8965C360.813 37.8965 361.341 37.7695 361.849 37.4961C362.347 37.2324 362.708 36.9688 362.933 36.6953L363.255 36.3047L364.251 37.2031C364.212 37.2617 364.153 37.3301 364.075 37.4277C363.997 37.5254 363.821 37.6816 363.558 37.9062C363.304 38.1309 363.03 38.3262 362.737 38.502C362.454 38.6777 362.083 38.834 361.634 38.9805C361.184 39.127 360.725 39.1953 360.257 39.1953C358.948 39.1953 357.815 38.7168 356.878 37.7402C355.931 36.7637 355.462 35.582 355.462 34.1953ZM379.163 37.7012V41.4023H377.766V39H370.061V41.4023H368.665V37.7012H369.358C369.397 37.6621 369.456 37.6035 369.534 37.5059C369.612 37.4082 369.759 37.1934 369.954 36.8613C370.149 36.5293 370.315 36.1777 370.472 35.7871C370.628 35.3965 370.765 34.8789 370.882 34.2344C370.999 33.5898 371.067 32.9062 371.067 32.2031V29.4004H377.659V37.7012H379.163ZM372.464 30.6992L372.454 32.2031C372.454 33.2969 372.327 34.3027 372.054 35.2109C371.79 36.1289 371.526 36.7734 371.263 37.1445L370.862 37.7012H376.263V30.6992H372.464ZM383.46 33.502L387.161 32.8965C387.161 32.1934 386.936 31.6172 386.487 31.168C386.038 30.7285 385.462 30.5039 384.759 30.5039C384.251 30.5039 383.772 30.6211 383.323 30.8555C382.874 31.0898 382.552 31.3242 382.356 31.5586L382.054 31.9004L381.155 31.002C381.194 30.9531 381.243 30.8848 381.311 30.8066C381.38 30.7285 381.526 30.582 381.761 30.377C381.995 30.1719 382.239 29.9863 382.493 29.8203C382.747 29.6641 383.079 29.5176 383.489 29.3906C383.899 29.2637 384.329 29.1953 384.759 29.1953C385.852 29.1953 386.751 29.5566 387.474 30.2598C388.196 30.9727 388.558 31.8516 388.558 32.8965V39H387.161V37.7012C387.132 37.7402 387.093 37.7988 387.034 37.8672C386.975 37.9355 386.858 38.0527 386.663 38.2285C386.468 38.4043 386.263 38.5508 386.048 38.6875C385.823 38.8242 385.53 38.9414 385.169 39.0391C384.808 39.1465 384.436 39.1953 384.056 39.1953C383.099 39.1953 382.288 38.9121 381.634 38.3457C380.979 37.7793 380.657 37.1348 380.657 36.4023C380.657 35.6016 380.891 34.957 381.38 34.4688C381.858 33.9805 382.552 33.6582 383.46 33.502ZM384.056 37.8965C384.954 37.8965 385.696 37.6035 386.282 37.0078C386.868 36.4219 387.161 35.6504 387.161 34.7031V34.0977L383.86 34.7031C382.659 34.9375 382.054 35.5039 382.054 36.4023C382.054 36.832 382.229 37.1934 382.581 37.4766C382.933 37.7598 383.431 37.8965 384.056 37.8965ZM398.645 39V34.8008H393.147V39H391.751V29.4004H393.147V33.502H398.645V29.4004H400.052V39H398.645ZM410.149 39V34.8008H404.651V39H403.255V29.4004H404.651V33.502H410.149V29.4004H411.556V39H410.149ZM425.257 29.4004V39H423.85V29.4004H425.257ZM416.155 37.7012H418.577C419.202 37.7012 419.7 37.5254 420.081 37.1738C420.462 36.8223 420.657 36.3633 420.657 35.7969C420.657 35.2402 420.462 34.7812 420.081 34.4297C419.7 34.0781 419.192 33.9023 418.558 33.9023H416.155V37.7012ZM422.054 35.8066C422.054 36.7637 421.741 37.5352 421.126 38.1211C420.501 38.707 419.651 39 418.577 39H414.759V29.4004H416.155V32.6035H418.558C419.632 32.6035 420.491 32.8965 421.116 33.4824C421.741 34.0684 422.054 34.8496 422.054 35.8066ZM431.643 35.1035L428.85 39H427.141L430.745 34L427.444 29.4004H429.143L431.643 32.8965L434.143 29.4004H435.843L432.542 34L436.145 39H434.446L431.643 35.1035Z" fill="#1D1717"/>
<path d="M247 448.832L379.62 376.652L523.046 451.019L380.688 516.155L247 448.832Z" fill="#7292E5"/>
<path d="M336.716 449.52C336.775 449.549 336.863 449.588 336.96 449.627C337.058 449.676 337.234 449.803 337.507 449.998C337.771 450.203 338.005 450.428 338.21 450.662C338.406 450.906 338.591 451.238 338.757 451.668C338.923 452.098 339.011 452.547 339.011 453.016C339.011 454.178 338.611 455.135 337.82 455.887C337.019 456.648 335.984 457.02 334.714 457.02H329.011V443.016H334.412C335.544 443.016 336.472 443.367 337.205 444.061C337.937 444.754 338.308 445.604 338.308 446.619C338.308 447.029 338.25 447.41 338.152 447.762C338.044 448.113 337.908 448.387 337.751 448.592C337.585 448.807 337.419 448.982 337.263 449.129C337.107 449.275 336.97 449.373 336.873 449.422L336.716 449.52ZM330.515 455.623H334.714C335.554 455.623 336.228 455.379 336.736 454.891C337.244 454.402 337.507 453.777 337.507 453.016C337.507 452.244 337.244 451.59 336.726 451.043C336.208 450.496 335.535 450.223 334.714 450.223H330.515V455.623ZM334.412 444.422H330.515V448.904H334.412C335.154 448.904 335.74 448.709 336.169 448.299C336.599 447.889 336.814 447.332 336.814 446.619C336.814 445.975 336.599 445.447 336.169 445.037C335.74 444.627 335.154 444.422 334.412 444.422ZM352.312 447.42V457.02H350.906V447.42H352.312ZM343.21 455.721H345.632C346.257 455.721 346.755 455.545 347.136 455.193C347.517 454.842 347.712 454.383 347.712 453.816C347.712 453.26 347.517 452.801 347.136 452.449C346.755 452.098 346.248 451.922 345.613 451.922H343.21V455.721ZM349.109 453.826C349.109 454.783 348.796 455.555 348.181 456.141C347.556 456.727 346.707 457.02 345.632 457.02H341.814V447.42H343.21V450.623H345.613C346.687 450.623 347.546 450.916 348.171 451.502C348.796 452.088 349.109 452.869 349.109 453.826ZM361.697 457.02V453.123C360.955 453.66 360.056 453.924 359.001 453.924C357.908 453.924 357.009 453.582 356.326 452.898C355.642 452.215 355.3 451.316 355.3 450.223V447.42H356.697V450.223C356.697 450.916 356.921 451.492 357.371 451.941C357.82 452.391 358.396 452.615 359.099 452.615C359.578 452.615 360.037 452.547 360.466 452.4C360.896 452.254 361.208 452.098 361.404 451.941L361.697 451.717V447.42H363.103V457.02H361.697ZM373.503 447.42H374.705V457.02H373.298V449.822L367.498 457.02H366.306V447.42H367.703V454.617L373.503 447.42ZM377.205 452.215C377.205 450.828 377.673 449.656 378.621 448.68C379.568 447.703 380.691 447.215 381.99 447.215C382.742 447.215 383.445 447.381 384.089 447.703C384.734 448.025 385.203 448.348 385.476 448.66L385.896 449.119L384.89 450.115C384.871 450.076 384.832 450.027 384.773 449.949C384.724 449.881 384.607 449.754 384.431 449.559C384.255 449.373 384.06 449.207 383.855 449.07C383.64 448.934 383.376 448.807 383.044 448.689C382.712 448.582 382.361 448.523 382 448.523C381.082 448.523 380.281 448.885 379.607 449.598C378.933 450.311 378.601 451.189 378.601 452.225C378.601 453.26 378.933 454.139 379.607 454.852C380.281 455.564 381.082 455.916 382 455.916C382.556 455.916 383.083 455.789 383.591 455.516C384.089 455.252 384.451 454.988 384.675 454.715L384.998 454.324L385.994 455.223C385.955 455.281 385.896 455.35 385.818 455.447C385.74 455.545 385.564 455.701 385.3 455.926C385.046 456.15 384.773 456.346 384.48 456.521C384.197 456.697 383.826 456.854 383.376 457C382.927 457.146 382.468 457.215 382 457.215C380.691 457.215 379.558 456.736 378.621 455.76C377.673 454.783 377.205 453.602 377.205 452.215ZM389.197 447.42L396.199 447.43V457.029H394.792V448.729H390.593V450.232C390.593 451.639 390.515 452.82 390.378 453.758C390.242 454.695 390.027 455.418 389.753 455.906C389.47 456.395 389.158 456.736 388.826 456.932C388.484 457.127 388.074 457.225 387.595 457.225C387.429 457.225 387.263 457.205 387.097 457.176C386.931 457.137 386.814 457.107 386.736 457.068L386.599 457.029V455.633C386.863 455.76 387.126 455.828 387.4 455.828C387.81 455.828 388.132 455.711 388.367 455.477C388.601 455.242 388.796 454.695 388.953 453.855C389.109 453.006 389.197 451.795 389.197 450.223V447.42ZM407.888 452.742L400.085 452.723C400.134 453.592 400.486 454.344 401.15 454.969C401.814 455.604 402.585 455.916 403.484 455.916C404.08 455.916 404.636 455.789 405.154 455.516C405.662 455.252 406.033 454.988 406.248 454.715L406.589 454.324L407.488 455.223C407.449 455.281 407.39 455.35 407.312 455.447C407.234 455.545 407.078 455.701 406.824 455.926C406.57 456.15 406.306 456.346 406.013 456.521C405.72 456.697 405.349 456.854 404.89 457C404.431 457.146 403.962 457.215 403.484 457.215C402.175 457.215 401.042 456.736 400.105 455.76C399.158 454.783 398.689 453.602 398.689 452.215C398.689 450.828 399.148 449.656 400.085 448.68C401.023 447.703 402.117 447.215 403.386 447.215C404.695 447.215 405.789 447.674 406.667 448.582C407.546 449.49 407.986 450.633 407.986 452.02L407.888 452.742ZM403.386 448.523C402.546 448.523 401.814 448.826 401.189 449.412C400.564 450.008 400.193 450.711 400.085 451.521H406.589C406.482 450.662 406.13 449.939 405.535 449.373C404.939 448.807 404.226 448.523 403.386 448.523ZM417.38 457.02V452.82H411.882V457.02H410.486V447.42H411.882V451.521H417.38V447.42H418.787V457.02H417.38ZM429.187 447.42H430.388V457.02H428.982V449.822L423.181 457.02H421.99V447.42H423.386V454.617L429.187 447.42ZM442.087 452.742L434.285 452.723C434.333 453.592 434.685 454.344 435.349 454.969C436.013 455.604 436.785 455.916 437.683 455.916C438.279 455.916 438.835 455.789 439.353 455.516C439.861 455.252 440.232 454.988 440.447 454.715L440.789 454.324L441.687 455.223C441.648 455.281 441.589 455.35 441.511 455.447C441.433 455.545 441.277 455.701 441.023 455.926C440.769 456.15 440.505 456.346 440.212 456.521C439.919 456.697 439.548 456.854 439.089 457C438.63 457.146 438.162 457.215 437.683 457.215C436.375 457.215 435.242 456.736 434.304 455.76C433.357 454.783 432.888 453.602 432.888 452.215C432.888 450.828 433.347 449.656 434.285 448.68C435.222 447.703 436.316 447.215 437.585 447.215C438.894 447.215 439.988 447.674 440.867 448.582C441.746 449.49 442.185 450.633 442.185 452.02L442.087 452.742ZM437.585 448.523C436.746 448.523 436.013 448.826 435.388 449.412C434.763 450.008 434.392 450.711 434.285 451.521H440.789C440.681 450.662 440.33 449.939 439.734 449.373C439.138 448.807 438.425 448.523 437.585 448.523Z" fill="#FAFAFA"/>
</svg>
