<svg width="547" height="379" viewBox="0 0 547 379" fill="none" xmlns="http://www.w3.org/2000/svg">
<path d="M313.853 318.403C366.323 328.616 419.93 316.137 458.425 270.582C488.001 235.581 468.284 212.582 480.346 172.699C497.86 153.582 505.171 139.582 509.69 121.582C518.005 88.4647 507.161 72.2111 486.029 55.5815C450.538 33.5815 429.835 33.2389 393.359 39.5817C324.348 51.5817 320.184 55.697 247.312 71.4333C191.285 83.5018 164.777 58.047 109.002 71.4333C53.8606 84.6629 13.5204 141.683 18.3031 189.699C25.4915 261.933 66.776 318.921 137.593 299.699C199.702 292.699 246.897 305.376 313.853 318.403Z" fill="#FAFAFA"/>
<path d="M104.523 122.998C104.523 125 103.82 126.699 102.424 128.096C101.018 129.502 99.3184 130.195 97.3262 130.195C96.6133 130.195 95.9297 130.098 95.2754 129.902C94.6113 129.707 94.0645 129.463 93.6348 129.18C93.1953 128.906 92.8145 128.623 92.4824 128.33C92.1504 128.047 91.9062 127.803 91.7598 127.598L91.5254 127.305L92.5215 126.396C92.5605 126.465 92.6191 126.553 92.707 126.66C92.7949 126.768 92.9902 126.953 93.293 127.227C93.5859 127.5 93.9082 127.744 94.25 127.959C94.5918 128.174 95.041 128.369 95.5977 128.545C96.1445 128.721 96.7207 128.799 97.3262 128.799C98.8398 128.799 100.129 128.311 101.203 127.314C102.268 126.318 102.873 125.088 103.029 123.604H95.627V122.197H103.029C102.824 120.762 102.199 119.57 101.164 118.623C100.119 117.676 98.8398 117.197 97.3262 117.197C96.7207 117.197 96.1543 117.285 95.6172 117.451C95.0703 117.617 94.6309 117.812 94.2793 118.047C93.9277 118.281 93.625 118.516 93.3711 118.75C93.1074 118.984 92.9219 119.189 92.8047 119.355L92.6289 119.6L91.623 118.701C91.6719 118.623 91.75 118.525 91.8477 118.398C91.9453 118.271 92.1797 118.037 92.5312 117.705C92.8828 117.373 93.2637 117.07 93.6738 116.807C94.084 116.553 94.6113 116.318 95.2754 116.113C95.9297 115.908 96.6133 115.801 97.3262 115.801C99.3184 115.801 101.018 116.504 102.424 117.9C103.82 119.307 104.523 121.006 104.523 122.998ZM106.027 121.699V120.4H114.221V121.699H110.822V130H109.426V121.699H106.027ZM123.928 125.205C123.928 124.17 123.576 123.291 122.893 122.578C122.209 121.865 121.379 121.504 120.422 121.504C119.465 121.504 118.635 121.865 117.951 122.578C117.268 123.291 116.926 124.16 116.926 125.195C116.926 126.23 117.268 127.1 117.951 127.822C118.635 128.545 119.465 128.896 120.422 128.896C121.379 128.896 122.209 128.545 122.893 127.832C123.576 127.119 123.928 126.24 123.928 125.205ZM115.529 125.205C115.529 123.799 115.998 122.617 116.955 121.65C117.912 120.684 119.064 120.195 120.432 120.195C121.789 120.195 122.941 120.684 123.889 121.65C124.846 122.617 125.314 123.799 125.314 125.205C125.314 126.611 124.846 127.793 123.889 128.76C122.941 129.717 121.789 130.205 120.432 130.205C119.064 130.205 117.912 129.717 116.955 128.76C115.998 127.793 115.529 126.611 115.529 125.205ZM128.127 128.203L129.533 129.004L127.229 132.598L126.33 132.1L128.127 128.203ZM142.834 130V125.801H137.336V130H135.939V120.4H137.336V124.502H142.834V120.4H144.24V130H142.834ZM149.543 124.502L153.244 123.896C153.244 123.193 153.02 122.617 152.57 122.168C152.121 121.729 151.545 121.504 150.842 121.504C150.334 121.504 149.855 121.621 149.406 121.855C148.957 122.09 148.635 122.324 148.439 122.559L148.137 122.9L147.238 122.002C147.277 121.953 147.326 121.885 147.395 121.807C147.463 121.729 147.609 121.582 147.844 121.377C148.078 121.172 148.322 120.986 148.576 120.82C148.83 120.664 149.162 120.518 149.572 120.391C149.982 120.264 150.412 120.195 150.842 120.195C151.936 120.195 152.834 120.557 153.557 121.26C154.279 121.973 154.641 122.852 154.641 123.896V130H153.244V128.701C153.215 128.74 153.176 128.799 153.117 128.867C153.059 128.936 152.941 129.053 152.746 129.229C152.551 129.404 152.346 129.551 152.131 129.688C151.906 129.824 151.613 129.941 151.252 130.039C150.891 130.146 150.52 130.195 150.139 130.195C149.182 130.195 148.371 129.912 147.717 129.346C147.062 128.779 146.74 128.135 146.74 127.402C146.74 126.602 146.975 125.957 147.463 125.469C147.941 124.98 148.635 124.658 149.543 124.502ZM150.139 128.896C151.037 128.896 151.779 128.604 152.365 128.008C152.951 127.422 153.244 126.65 153.244 125.703V125.098L149.943 125.703C148.742 125.938 148.137 126.504 148.137 127.402C148.137 127.832 148.312 128.193 148.664 128.477C149.016 128.76 149.514 128.896 150.139 128.896ZM157.834 120.4H162.229C163.107 120.4 163.811 120.645 164.338 121.113C164.865 121.582 165.129 122.178 165.129 122.9C165.129 123.311 165.021 123.691 164.826 124.023C164.631 124.355 164.426 124.59 164.23 124.717L163.928 124.902C163.967 124.922 164.016 124.941 164.094 124.961C164.172 124.99 164.299 125.059 164.484 125.176C164.67 125.293 164.836 125.42 164.973 125.576C165.109 125.732 165.236 125.947 165.354 126.23C165.471 126.523 165.529 126.846 165.529 127.197C165.529 128.066 165.256 128.75 164.719 129.248C164.172 129.756 163.41 130 162.434 130H157.834V120.4ZM162.434 125.498H159.23V128.701H162.434C162.98 128.701 163.4 128.564 163.693 128.281C163.986 128.008 164.133 127.607 164.133 127.1C164.133 126.592 163.986 126.201 163.693 125.918C163.4 125.645 162.98 125.498 162.434 125.498ZM163.732 122.998C163.732 122.139 163.225 121.699 162.229 121.699H159.23V124.297H162.229C163.225 124.297 163.732 123.867 163.732 122.998ZM176.721 125.723L168.918 125.703C168.967 126.572 169.318 127.324 169.982 127.949C170.646 128.584 171.418 128.896 172.316 128.896C172.912 128.896 173.469 128.77 173.986 128.496C174.494 128.232 174.865 127.969 175.08 127.695L175.422 127.305L176.32 128.203C176.281 128.262 176.223 128.33 176.145 128.428C176.066 128.525 175.91 128.682 175.656 128.906C175.402 129.131 175.139 129.326 174.846 129.502C174.553 129.678 174.182 129.834 173.723 129.98C173.264 130.127 172.795 130.195 172.316 130.195C171.008 130.195 169.875 129.717 168.938 128.74C167.99 127.764 167.521 126.582 167.521 125.195C167.521 123.809 167.98 122.637 168.918 121.66C169.855 120.684 170.949 120.195 172.219 120.195C173.527 120.195 174.621 120.654 175.5 121.562C176.379 122.471 176.818 123.613 176.818 125L176.721 125.723ZM172.219 121.504C171.379 121.504 170.646 121.807 170.021 122.393C169.396 122.988 169.025 123.691 168.918 124.502H175.422C175.314 123.643 174.963 122.92 174.367 122.354C173.771 121.787 173.059 121.504 172.219 121.504ZM180.715 125.205C180.715 126.191 181.057 127.051 181.76 127.793C182.463 128.535 183.244 128.896 184.113 128.896C184.934 128.896 185.676 128.545 186.33 127.822C186.984 127.1 187.316 126.23 187.316 125.205C187.316 124.18 186.984 123.311 186.33 122.588C185.676 121.865 184.934 121.504 184.113 121.504C183.244 121.504 182.463 121.875 181.76 122.617C181.057 123.359 180.715 124.219 180.715 125.205ZM180.715 128.496V134.209H179.318V120.41H180.715V121.914C180.734 121.875 180.783 121.807 180.852 121.729C180.92 121.65 181.057 121.514 181.271 121.318C181.486 121.123 181.711 120.947 181.965 120.791C182.209 120.635 182.521 120.498 182.912 120.381C183.303 120.264 183.703 120.205 184.113 120.205C185.334 120.205 186.408 120.693 187.326 121.68C188.244 122.656 188.713 123.838 188.713 125.205C188.713 126.572 188.254 127.754 187.336 128.73C186.418 129.707 185.344 130.195 184.113 130.195C183.703 130.195 183.303 130.137 182.922 130.02C182.541 129.902 182.219 129.766 181.965 129.6C181.701 129.443 181.477 129.277 181.281 129.111C181.086 128.945 180.949 128.799 180.852 128.682L180.715 128.496ZM198.107 130V125.801H192.609V130H191.213V120.4H192.609V124.502H198.107V120.4H199.514V130H198.107ZM210.412 125.205C210.412 124.17 210.061 123.291 209.377 122.578C208.693 121.865 207.863 121.504 206.906 121.504C205.949 121.504 205.119 121.865 204.436 122.578C203.752 123.291 203.41 124.16 203.41 125.195C203.41 126.23 203.752 127.1 204.436 127.822C205.119 128.545 205.949 128.896 206.906 128.896C207.863 128.896 208.693 128.545 209.377 127.832C210.061 127.119 210.412 126.24 210.412 125.205ZM202.014 125.205C202.014 123.799 202.482 122.617 203.439 121.65C204.396 120.684 205.549 120.195 206.916 120.195C208.273 120.195 209.426 120.684 210.373 121.65C211.33 122.617 211.799 123.799 211.799 125.205C211.799 126.611 211.33 127.793 210.373 128.76C209.426 129.717 208.273 130.205 206.916 130.205C205.549 130.205 204.396 129.717 203.439 128.76C202.482 127.793 202.014 126.611 202.014 125.205ZM222.814 125.723L215.012 125.703C215.061 126.572 215.412 127.324 216.076 127.949C216.74 128.584 217.512 128.896 218.41 128.896C219.006 128.896 219.562 128.77 220.08 128.496C220.588 128.232 220.959 127.969 221.174 127.695L221.516 127.305L222.414 128.203C222.375 128.262 222.316 128.33 222.238 128.428C222.16 128.525 222.004 128.682 221.75 128.906C221.496 129.131 221.232 129.326 220.939 129.502C220.646 129.678 220.275 129.834 219.816 129.98C219.357 130.127 218.889 130.195 218.41 130.195C217.102 130.195 215.969 129.717 215.031 128.74C214.084 127.764 213.615 126.582 213.615 125.195C213.615 123.809 214.074 122.637 215.012 121.66C215.949 120.684 217.043 120.195 218.312 120.195C219.621 120.195 220.715 120.654 221.594 121.562C222.473 122.471 222.912 123.613 222.912 125L222.814 125.723ZM218.312 121.504C217.473 121.504 216.74 121.807 216.115 122.393C215.49 122.988 215.119 123.691 215.012 124.502H221.516C221.408 123.643 221.057 122.92 220.461 122.354C219.865 121.787 219.152 121.504 218.312 121.504ZM225.705 128.203L227.111 129.004L224.807 132.598L223.908 132.1L225.705 128.203ZM232.814 125.195C232.814 123.809 233.283 122.637 234.23 121.66C235.178 120.684 236.301 120.195 237.6 120.195C238.352 120.195 239.055 120.361 239.699 120.684C240.344 121.006 240.812 121.328 241.086 121.641L241.506 122.1L240.5 123.096C240.48 123.057 240.441 123.008 240.383 122.93C240.334 122.861 240.217 122.734 240.041 122.539C239.865 122.354 239.67 122.188 239.465 122.051C239.25 121.914 238.986 121.787 238.654 121.67C238.322 121.562 237.971 121.504 237.609 121.504C236.691 121.504 235.891 121.865 235.217 122.578C234.543 123.291 234.211 124.17 234.211 125.205C234.211 126.24 234.543 127.119 235.217 127.832C235.891 128.545 236.691 128.896 237.609 128.896C238.166 128.896 238.693 128.77 239.201 128.496C239.699 128.232 240.061 127.969 240.285 127.695L240.607 127.305L241.604 128.203C241.564 128.262 241.506 128.33 241.428 128.428C241.35 128.525 241.174 128.682 240.91 128.906C240.656 129.131 240.383 129.326 240.09 129.502C239.807 129.678 239.436 129.834 238.986 129.98C238.537 130.127 238.078 130.195 237.609 130.195C236.301 130.195 235.168 129.717 234.23 128.74C233.283 127.764 232.814 126.582 232.814 125.195ZM245.91 124.502L249.611 123.896C249.611 123.193 249.387 122.617 248.938 122.168C248.488 121.729 247.912 121.504 247.209 121.504C246.701 121.504 246.223 121.621 245.773 121.855C245.324 122.09 245.002 122.324 244.807 122.559L244.504 122.9L243.605 122.002C243.645 121.953 243.693 121.885 243.762 121.807C243.83 121.729 243.977 121.582 244.211 121.377C244.445 121.172 244.689 120.986 244.943 120.82C245.197 120.664 245.529 120.518 245.939 120.391C246.35 120.264 246.779 120.195 247.209 120.195C248.303 120.195 249.201 120.557 249.924 121.26C250.646 121.973 251.008 122.852 251.008 123.896V130H249.611V128.701C249.582 128.74 249.543 128.799 249.484 128.867C249.426 128.936 249.309 129.053 249.113 129.229C248.918 129.404 248.713 129.551 248.498 129.688C248.273 129.824 247.98 129.941 247.619 130.039C247.258 130.146 246.887 130.195 246.506 130.195C245.549 130.195 244.738 129.912 244.084 129.346C243.43 128.779 243.107 128.135 243.107 127.402C243.107 126.602 243.342 125.957 243.83 125.469C244.309 124.98 245.002 124.658 245.91 124.502ZM246.506 128.896C247.404 128.896 248.146 128.604 248.732 128.008C249.318 127.422 249.611 126.65 249.611 125.703V125.098L246.311 125.703C245.109 125.938 244.504 126.504 244.504 127.402C244.504 127.832 244.68 128.193 245.031 128.477C245.383 128.76 245.881 128.896 246.506 128.896ZM262.6 122.9L259.094 127.305L255.598 122.9V130H254.201V120.4H255.295L259.094 125.195L262.893 120.4H263.996V130H262.6V122.9ZM274.904 125.205C274.904 124.17 274.553 123.291 273.869 122.578C273.186 121.865 272.355 121.504 271.398 121.504C270.441 121.504 269.611 121.865 268.928 122.578C268.244 123.291 267.902 124.16 267.902 125.195C267.902 126.23 268.244 127.1 268.928 127.822C269.611 128.545 270.441 128.896 271.398 128.896C272.355 128.896 273.186 128.545 273.869 127.832C274.553 127.119 274.904 126.24 274.904 125.205ZM266.506 125.205C266.506 123.799 266.975 122.617 267.932 121.65C268.889 120.684 270.041 120.195 271.408 120.195C272.766 120.195 273.918 120.684 274.865 121.65C275.822 122.617 276.291 123.799 276.291 125.205C276.291 126.611 275.822 127.793 274.865 128.76C273.918 129.717 272.766 130.205 271.408 130.205C270.041 130.205 268.889 129.717 267.932 128.76C266.975 127.793 266.506 126.611 266.506 125.205ZM287.307 125.723L279.504 125.703C279.553 126.572 279.904 127.324 280.568 127.949C281.232 128.584 282.004 128.896 282.902 128.896C283.498 128.896 284.055 128.77 284.572 128.496C285.08 128.232 285.451 127.969 285.666 127.695L286.008 127.305L286.906 128.203C286.867 128.262 286.809 128.33 286.73 128.428C286.652 128.525 286.496 128.682 286.242 128.906C285.988 129.131 285.725 129.326 285.432 129.502C285.139 129.678 284.768 129.834 284.309 129.98C283.85 130.127 283.381 130.195 282.902 130.195C281.594 130.195 280.461 129.717 279.523 128.74C278.576 127.764 278.107 126.582 278.107 125.195C278.107 123.809 278.566 122.637 279.504 121.66C280.441 120.684 281.535 120.195 282.805 120.195C284.113 120.195 285.207 120.654 286.086 121.562C286.965 122.471 287.404 123.613 287.404 125L287.307 125.723ZM282.805 121.504C281.965 121.504 281.232 121.807 280.607 122.393C279.982 122.988 279.611 123.691 279.504 124.502H286.008C285.9 123.643 285.549 122.92 284.953 122.354C284.357 121.787 283.645 121.504 282.805 121.504ZM301.408 125.195C301.408 126.582 300.93 127.764 299.982 128.74C299.035 129.717 297.912 130.205 296.613 130.205C296.145 130.205 295.686 130.127 295.236 129.99C294.787 129.854 294.416 129.688 294.104 129.492C293.791 129.297 293.527 129.111 293.293 128.916C293.059 128.721 292.883 128.555 292.766 128.408L292.609 128.213L293.605 127.314C293.625 127.354 293.674 127.402 293.732 127.48C293.791 127.549 293.918 127.676 294.113 127.861C294.309 128.057 294.514 128.223 294.729 128.359C294.943 128.496 295.217 128.623 295.559 128.73C295.891 128.848 296.242 128.896 296.613 128.896C297.453 128.896 298.195 128.584 298.859 127.949C299.514 127.324 299.895 126.572 300.012 125.703H295.207V124.404H299.904C299.797 123.633 299.426 122.959 298.801 122.373C298.166 121.797 297.434 121.504 296.613 121.504C296.252 121.504 295.91 121.562 295.578 121.66C295.246 121.768 294.973 121.904 294.748 122.061C294.533 122.227 294.338 122.393 294.172 122.549C294.006 122.705 293.879 122.842 293.801 122.939L293.703 123.096L292.697 122.1C292.736 122.051 292.795 121.982 292.873 121.895C292.951 121.807 293.107 121.66 293.352 121.445C293.605 121.23 293.869 121.045 294.143 120.869C294.426 120.703 294.787 120.547 295.236 120.41C295.686 120.273 296.145 120.195 296.613 120.195C297.922 120.195 299.045 120.684 299.992 121.66C300.93 122.637 301.408 123.809 301.408 125.195ZM310.803 130V125.801H305.305V130H303.908V120.4H305.305V124.502H310.803V120.4H312.209V130H310.803ZM323.908 125.723L316.105 125.703C316.154 126.572 316.506 127.324 317.17 127.949C317.834 128.584 318.605 128.896 319.504 128.896C320.1 128.896 320.656 128.77 321.174 128.496C321.682 128.232 322.053 127.969 322.268 127.695L322.609 127.305L323.508 128.203C323.469 128.262 323.41 128.33 323.332 128.428C323.254 128.525 323.098 128.682 322.844 128.906C322.59 129.131 322.326 129.326 322.033 129.502C321.74 129.678 321.369 129.834 320.91 129.98C320.451 130.127 319.982 130.195 319.504 130.195C318.195 130.195 317.062 129.717 316.125 128.74C315.178 127.764 314.709 126.582 314.709 125.195C314.709 123.809 315.168 122.637 316.105 121.66C317.043 120.684 318.137 120.195 319.406 120.195C320.715 120.195 321.809 120.654 322.688 121.562C323.566 122.471 324.006 123.613 324.006 125L323.908 125.723ZM319.406 121.504C318.566 121.504 317.834 121.807 317.209 122.393C316.584 122.988 316.213 123.691 316.105 124.502H322.609C322.502 123.643 322.15 122.92 321.555 122.354C320.959 121.787 320.246 121.504 319.406 121.504ZM327.902 125.205C327.902 126.191 328.244 127.051 328.947 127.793C329.65 128.535 330.432 128.896 331.301 128.896C332.121 128.896 332.863 128.545 333.518 127.822C334.172 127.1 334.504 126.23 334.504 125.205C334.504 124.18 334.172 123.311 333.518 122.588C332.863 121.865 332.121 121.504 331.301 121.504C330.432 121.504 329.65 121.875 328.947 122.617C328.244 123.359 327.902 124.219 327.902 125.205ZM327.902 128.496V134.209H326.506V120.41H327.902V121.914C327.922 121.875 327.971 121.807 328.039 121.729C328.107 121.65 328.244 121.514 328.459 121.318C328.674 121.123 328.898 120.947 329.152 120.791C329.396 120.635 329.709 120.498 330.1 120.381C330.49 120.264 330.891 120.205 331.301 120.205C332.521 120.205 333.596 120.693 334.514 121.68C335.432 122.656 335.9 123.838 335.9 125.205C335.9 126.572 335.441 127.754 334.523 128.73C333.605 129.707 332.531 130.195 331.301 130.195C330.891 130.195 330.49 130.137 330.109 130.02C329.729 129.902 329.406 129.766 329.152 129.6C328.889 129.443 328.664 129.277 328.469 129.111C328.273 128.945 328.137 128.799 328.039 128.682L327.902 128.496ZM344.797 120.4V121.699H339.797V130H338.4V120.4H344.797ZM354.299 125.205C354.299 124.17 353.947 123.291 353.264 122.578C352.58 121.865 351.75 121.504 350.793 121.504C349.836 121.504 349.006 121.865 348.322 122.578C347.639 123.291 347.297 124.16 347.297 125.195C347.297 126.23 347.639 127.1 348.322 127.822C349.006 128.545 349.836 128.896 350.793 128.896C351.75 128.896 352.58 128.545 353.264 127.832C353.947 127.119 354.299 126.24 354.299 125.205ZM345.9 125.205C345.9 123.799 346.369 122.617 347.326 121.65C348.283 120.684 349.436 120.195 350.803 120.195C352.16 120.195 353.312 120.684 354.26 121.65C355.217 122.617 355.686 123.799 355.686 125.205C355.686 126.611 355.217 127.793 354.26 128.76C353.312 129.717 352.16 130.205 350.803 130.205C349.436 130.205 348.283 129.717 347.326 128.76C346.369 127.793 345.9 126.611 345.9 125.205ZM366.701 125.723L358.898 125.703C358.947 126.572 359.299 127.324 359.963 127.949C360.627 128.584 361.398 128.896 362.297 128.896C362.893 128.896 363.449 128.77 363.967 128.496C364.475 128.232 364.846 127.969 365.061 127.695L365.402 127.305L366.301 128.203C366.262 128.262 366.203 128.33 366.125 128.428C366.047 128.525 365.891 128.682 365.637 128.906C365.383 129.131 365.119 129.326 364.826 129.502C364.533 129.678 364.162 129.834 363.703 129.98C363.244 130.127 362.775 130.195 362.297 130.195C360.988 130.195 359.855 129.717 358.918 128.74C357.971 127.764 357.502 126.582 357.502 125.195C357.502 123.809 357.961 122.637 358.898 121.66C359.836 120.684 360.93 120.195 362.199 120.195C363.508 120.195 364.602 120.654 365.48 121.562C366.359 122.471 366.799 123.613 366.799 125L366.701 125.723ZM362.199 121.504C361.359 121.504 360.627 121.807 360.002 122.393C359.377 122.988 359.006 123.691 358.898 124.502H365.402C365.295 123.643 364.943 122.92 364.348 122.354C363.752 121.787 363.039 121.504 362.199 121.504ZM359.377 117.383C359.377 117.129 359.465 116.924 359.641 116.748C359.816 116.572 360.031 116.484 360.285 116.484C360.539 116.484 360.744 116.572 360.92 116.748C361.096 116.924 361.184 117.129 361.184 117.383C361.184 117.637 361.096 117.852 360.92 118.027C360.744 118.203 360.539 118.281 360.285 118.281C360.031 118.281 359.816 118.203 359.641 118.027C359.465 117.852 359.377 117.637 359.377 117.383ZM363.186 117.383C363.186 117.129 363.264 116.924 363.439 116.748C363.615 116.572 363.83 116.484 364.084 116.484C364.338 116.484 364.543 116.572 364.719 116.748C364.895 116.924 364.982 117.129 364.982 117.383C364.982 117.637 364.895 117.852 364.719 118.027C364.543 118.203 364.338 118.281 364.084 118.281C363.83 118.281 363.615 118.203 363.439 118.027C363.264 117.852 363.186 117.637 363.186 117.383ZM377.697 122.9L374.191 127.305L370.695 122.9V130H369.299V120.4H370.393L374.191 125.195L377.99 120.4H379.094V130H377.697V122.9ZM383.703 127.305V130H382.307V120.4H383.703V125.498L388.498 120.4H390.207L386.506 124.297L390.607 130H389.006L385.607 125.303L383.703 127.305ZM399.689 125.205C399.689 124.17 399.338 123.291 398.654 122.578C397.971 121.865 397.141 121.504 396.184 121.504C395.227 121.504 394.396 121.865 393.713 122.578C393.029 123.291 392.688 124.16 392.688 125.195C392.688 126.23 393.029 127.1 393.713 127.822C394.396 128.545 395.227 128.896 396.184 128.896C397.141 128.896 397.971 128.545 398.654 127.832C399.338 127.119 399.689 126.24 399.689 125.205ZM391.291 125.205C391.291 123.799 391.76 122.617 392.717 121.65C393.674 120.684 394.826 120.195 396.193 120.195C397.551 120.195 398.703 120.684 399.65 121.65C400.607 122.617 401.076 123.799 401.076 125.205C401.076 126.611 400.607 127.793 399.65 128.76C398.703 129.717 397.551 130.205 396.193 130.205C394.826 130.205 393.674 129.717 392.717 128.76C391.76 127.793 391.291 126.611 391.291 125.205ZM412.092 125.723L404.289 125.703C404.338 126.572 404.689 127.324 405.354 127.949C406.018 128.584 406.789 128.896 407.688 128.896C408.283 128.896 408.84 128.77 409.357 128.496C409.865 128.232 410.236 127.969 410.451 127.695L410.793 127.305L411.691 128.203C411.652 128.262 411.594 128.33 411.516 128.428C411.438 128.525 411.281 128.682 411.027 128.906C410.773 129.131 410.51 129.326 410.217 129.502C409.924 129.678 409.553 129.834 409.094 129.98C408.635 130.127 408.166 130.195 407.688 130.195C406.379 130.195 405.246 129.717 404.309 128.74C403.361 127.764 402.893 126.582 402.893 125.195C402.893 123.809 403.352 122.637 404.289 121.66C405.227 120.684 406.32 120.195 407.59 120.195C408.898 120.195 409.992 120.654 410.871 121.562C411.75 122.471 412.189 123.613 412.189 125L412.092 125.723ZM407.59 121.504C406.75 121.504 406.018 121.807 405.393 122.393C404.768 122.988 404.396 123.691 404.289 124.502H410.793C410.686 123.643 410.334 122.92 409.738 122.354C409.143 121.787 408.43 121.504 407.59 121.504ZM414.289 129.199C414.289 128.906 414.377 128.672 414.553 128.486C414.729 128.301 414.973 128.203 415.275 128.203C415.588 128.203 415.832 128.301 416.008 128.486C416.184 128.672 416.271 128.906 416.271 129.199C416.271 129.492 416.184 129.736 416.008 129.922C415.832 130.107 415.588 130.195 415.275 130.195C414.973 130.195 414.729 130.107 414.553 129.922C414.377 129.736 414.289 129.492 414.289 129.199ZM105.529 150.604L99.9238 157.996L94.3281 150.604V162H92.8242V147.996H94.123L99.9238 155.604L105.725 147.996H107.023V162H105.529V150.604ZM117.521 162V157.801H112.023V162H110.627V152.4H112.023V156.502H117.521V152.4H118.928V162H117.521ZM129.826 157.205C129.826 156.17 129.475 155.291 128.791 154.578C128.107 153.865 127.277 153.504 126.32 153.504C125.363 153.504 124.533 153.865 123.85 154.578C123.166 155.291 122.824 156.16 122.824 157.195C122.824 158.23 123.166 159.1 123.85 159.822C124.533 160.545 125.363 160.896 126.32 160.896C127.277 160.896 128.107 160.545 128.791 159.832C129.475 159.119 129.826 158.24 129.826 157.205ZM121.428 157.205C121.428 155.799 121.896 154.617 122.854 153.65C123.811 152.684 124.963 152.195 126.33 152.195C127.688 152.195 128.84 152.684 129.787 153.65C130.744 154.617 131.213 155.799 131.213 157.205C131.213 158.611 130.744 159.793 129.787 160.76C128.84 161.717 127.688 162.205 126.33 162.205C124.963 162.205 123.811 161.717 122.854 160.76C121.896 159.793 121.428 158.611 121.428 157.205ZM140.129 152.4V153.699H135.129V162H133.732V152.4H140.129ZM149.133 152.4H150.334V162H148.928V154.803L143.127 162H141.936V152.4H143.332V159.598L149.133 152.4ZM162.033 157.723L154.23 157.703C154.279 158.572 154.631 159.324 155.295 159.949C155.959 160.584 156.73 160.896 157.629 160.896C158.225 160.896 158.781 160.77 159.299 160.496C159.807 160.232 160.178 159.969 160.393 159.695L160.734 159.305L161.633 160.203C161.594 160.262 161.535 160.33 161.457 160.428C161.379 160.525 161.223 160.682 160.969 160.906C160.715 161.131 160.451 161.326 160.158 161.502C159.865 161.678 159.494 161.834 159.035 161.98C158.576 162.127 158.107 162.195 157.629 162.195C156.32 162.195 155.188 161.717 154.25 160.74C153.303 159.764 152.834 158.582 152.834 157.195C152.834 155.809 153.293 154.637 154.23 153.66C155.168 152.684 156.262 152.195 157.531 152.195C158.84 152.195 159.934 152.654 160.812 153.562C161.691 154.471 162.131 155.613 162.131 157L162.033 157.723ZM157.531 153.504C156.691 153.504 155.959 153.807 155.334 154.393C154.709 154.988 154.338 155.691 154.23 156.502H160.734C160.627 155.643 160.275 154.92 159.68 154.354C159.084 153.787 158.371 153.504 157.531 153.504ZM175.637 152.4H176.838V162H175.432V154.803L169.631 162H168.439V152.4H169.836V159.598L175.637 152.4ZM185.842 154.9C185.842 155.223 185.783 155.516 185.686 155.779C185.588 156.033 185.461 156.238 185.314 156.385C185.168 156.531 185.021 156.658 184.865 156.756C184.709 156.854 184.592 156.932 184.494 156.971L184.338 157.01C184.387 157.02 184.455 157.039 184.543 157.059C184.631 157.078 184.777 157.137 184.992 157.244C185.207 157.352 185.393 157.479 185.559 157.635C185.725 157.791 185.881 158.016 186.018 158.309C186.154 158.602 186.232 158.934 186.232 159.314C186.232 160.125 185.91 160.809 185.275 161.365C184.631 161.922 183.723 162.205 182.541 162.205C182.082 162.205 181.652 162.146 181.242 162.029C180.832 161.912 180.5 161.766 180.227 161.609C179.953 161.443 179.709 161.277 179.514 161.111C179.318 160.945 179.172 160.809 179.074 160.691L178.938 160.506L179.836 159.607C179.914 159.695 180.021 159.812 180.158 159.959C180.295 160.115 180.607 160.311 181.076 160.545C181.545 160.779 182.033 160.896 182.541 160.896C183.303 160.896 183.869 160.75 184.26 160.457C184.641 160.164 184.836 159.783 184.836 159.305C184.836 158.826 184.641 158.436 184.25 158.143C183.859 157.85 183.293 157.703 182.541 157.703H181.438V156.404H182.541C183.107 156.404 183.566 156.258 183.918 155.965C184.26 155.672 184.436 155.311 184.436 154.9C184.436 154.49 184.27 154.148 183.957 153.895C183.635 153.641 183.166 153.514 182.541 153.514C182.092 153.514 181.672 153.602 181.271 153.777C180.871 153.953 180.588 154.139 180.422 154.324L180.139 154.598L179.133 153.602C179.221 153.504 179.357 153.367 179.533 153.211C179.709 153.055 180.09 152.85 180.676 152.586C181.262 152.332 181.877 152.195 182.541 152.195C183.518 152.195 184.309 152.469 184.924 152.996C185.529 153.533 185.842 154.168 185.842 154.9ZM199.553 162V157.801H194.055V162H192.658V152.4H194.055V156.502H199.553V152.4H200.959V162H199.553ZM206.262 156.502L209.963 155.896C209.963 155.193 209.738 154.617 209.289 154.168C208.84 153.729 208.264 153.504 207.561 153.504C207.053 153.504 206.574 153.621 206.125 153.855C205.676 154.09 205.354 154.324 205.158 154.559L204.855 154.9L203.957 154.002C203.996 153.953 204.045 153.885 204.113 153.807C204.182 153.729 204.328 153.582 204.562 153.377C204.797 153.172 205.041 152.986 205.295 152.82C205.549 152.664 205.881 152.518 206.291 152.391C206.701 152.264 207.131 152.195 207.561 152.195C208.654 152.195 209.553 152.557 210.275 153.26C210.998 153.973 211.359 154.852 211.359 155.896V162H209.963V160.701C209.934 160.74 209.895 160.799 209.836 160.867C209.777 160.936 209.66 161.053 209.465 161.229C209.27 161.404 209.064 161.551 208.85 161.688C208.625 161.824 208.332 161.941 207.971 162.039C207.609 162.146 207.238 162.195 206.857 162.195C205.9 162.195 205.09 161.912 204.436 161.346C203.781 160.779 203.459 160.135 203.459 159.402C203.459 158.602 203.693 157.957 204.182 157.469C204.66 156.98 205.354 156.658 206.262 156.502ZM206.857 160.896C207.756 160.896 208.498 160.604 209.084 160.008C209.67 159.422 209.963 158.65 209.963 157.703V157.098L206.662 157.703C205.461 157.938 204.855 158.504 204.855 159.402C204.855 159.832 205.031 160.193 205.383 160.477C205.734 160.76 206.232 160.896 206.857 160.896ZM213.85 157.195C213.85 155.809 214.318 154.637 215.266 153.66C216.213 152.684 217.336 152.195 218.635 152.195C219.387 152.195 220.09 152.361 220.734 152.684C221.379 153.006 221.848 153.328 222.121 153.641L222.541 154.1L221.535 155.096C221.516 155.057 221.477 155.008 221.418 154.93C221.369 154.861 221.252 154.734 221.076 154.539C220.9 154.354 220.705 154.188 220.5 154.051C220.285 153.914 220.021 153.787 219.689 153.67C219.357 153.562 219.006 153.504 218.645 153.504C217.727 153.504 216.926 153.865 216.252 154.578C215.578 155.291 215.246 156.17 215.246 157.205C215.246 158.24 215.578 159.119 216.252 159.832C216.926 160.545 217.727 160.896 218.645 160.896C219.201 160.896 219.729 160.77 220.236 160.496C220.734 160.232 221.096 159.969 221.32 159.695L221.643 159.305L222.639 160.203C222.6 160.262 222.541 160.33 222.463 160.428C222.385 160.525 222.209 160.682 221.945 160.906C221.691 161.131 221.418 161.326 221.125 161.502C220.842 161.678 220.471 161.834 220.021 161.98C219.572 162.127 219.113 162.195 218.645 162.195C217.336 162.195 216.203 161.717 215.266 160.74C214.318 159.764 213.85 158.582 213.85 157.195ZM237.551 160.701V164.402H236.154V162H228.449V164.402H227.053V160.701H227.746C227.785 160.662 227.844 160.604 227.922 160.506C228 160.408 228.146 160.193 228.342 159.861C228.537 159.529 228.703 159.178 228.859 158.787C229.016 158.396 229.152 157.879 229.27 157.234C229.387 156.59 229.455 155.906 229.455 155.203V152.4H236.047V160.701H237.551ZM230.852 153.699L230.842 155.203C230.842 156.297 230.715 157.303 230.441 158.211C230.178 159.129 229.914 159.773 229.65 160.145L229.25 160.701H234.65V153.699H230.852ZM241.848 156.502L245.549 155.896C245.549 155.193 245.324 154.617 244.875 154.168C244.426 153.729 243.85 153.504 243.146 153.504C242.639 153.504 242.16 153.621 241.711 153.855C241.262 154.09 240.939 154.324 240.744 154.559L240.441 154.9L239.543 154.002C239.582 153.953 239.631 153.885 239.699 153.807C239.768 153.729 239.914 153.582 240.148 153.377C240.383 153.172 240.627 152.986 240.881 152.82C241.135 152.664 241.467 152.518 241.877 152.391C242.287 152.264 242.717 152.195 243.146 152.195C244.24 152.195 245.139 152.557 245.861 153.26C246.584 153.973 246.945 154.852 246.945 155.896V162H245.549V160.701C245.52 160.74 245.48 160.799 245.422 160.867C245.363 160.936 245.246 161.053 245.051 161.229C244.855 161.404 244.65 161.551 244.436 161.688C244.211 161.824 243.918 161.941 243.557 162.039C243.195 162.146 242.824 162.195 242.443 162.195C241.486 162.195 240.676 161.912 240.021 161.346C239.367 160.779 239.045 160.135 239.045 159.402C239.045 158.602 239.279 157.957 239.768 157.469C240.246 156.98 240.939 156.658 241.848 156.502ZM242.443 160.896C243.342 160.896 244.084 160.604 244.67 160.008C245.256 159.422 245.549 158.65 245.549 157.703V157.098L242.248 157.703C241.047 157.938 240.441 158.504 240.441 159.402C240.441 159.832 240.617 160.193 240.969 160.477C241.32 160.76 241.818 160.896 242.443 160.896ZM255.139 158.797L253.732 157.303L250.334 162H248.732L252.834 156.297L249.133 152.4H250.832L255.139 157V152.4H256.535V157L260.832 152.4H262.531L258.83 156.297L262.932 162H261.33L257.932 157.303L256.535 158.797V162H255.139V158.797ZM273.244 157.723L265.441 157.703C265.49 158.572 265.842 159.324 266.506 159.949C267.17 160.584 267.941 160.896 268.84 160.896C269.436 160.896 269.992 160.77 270.51 160.496C271.018 160.232 271.389 159.969 271.604 159.695L271.945 159.305L272.844 160.203C272.805 160.262 272.746 160.33 272.668 160.428C272.59 160.525 272.434 160.682 272.18 160.906C271.926 161.131 271.662 161.326 271.369 161.502C271.076 161.678 270.705 161.834 270.246 161.98C269.787 162.127 269.318 162.195 268.84 162.195C267.531 162.195 266.398 161.717 265.461 160.74C264.514 159.764 264.045 158.582 264.045 157.195C264.045 155.809 264.504 154.637 265.441 153.66C266.379 152.684 267.473 152.195 268.742 152.195C270.051 152.195 271.145 152.654 272.023 153.562C272.902 154.471 273.342 155.613 273.342 157L273.244 157.723ZM268.742 153.504C267.902 153.504 267.17 153.807 266.545 154.393C265.92 154.988 265.549 155.691 265.441 156.502H271.945C271.838 155.643 271.486 154.92 270.891 154.354C270.295 153.787 269.582 153.504 268.742 153.504ZM286.545 162V157.801H281.047V162H279.65V152.4H281.047V156.502H286.545V152.4H287.951V162H286.545ZM299.65 157.723L291.848 157.703C291.896 158.572 292.248 159.324 292.912 159.949C293.576 160.584 294.348 160.896 295.246 160.896C295.842 160.896 296.398 160.77 296.916 160.496C297.424 160.232 297.795 159.969 298.01 159.695L298.352 159.305L299.25 160.203C299.211 160.262 299.152 160.33 299.074 160.428C298.996 160.525 298.84 160.682 298.586 160.906C298.332 161.131 298.068 161.326 297.775 161.502C297.482 161.678 297.111 161.834 296.652 161.98C296.193 162.127 295.725 162.195 295.246 162.195C293.938 162.195 292.805 161.717 291.867 160.74C290.92 159.764 290.451 158.582 290.451 157.195C290.451 155.809 290.91 154.637 291.848 153.66C292.785 152.684 293.879 152.195 295.148 152.195C296.457 152.195 297.551 152.654 298.43 153.562C299.309 154.471 299.748 155.613 299.748 157L299.65 157.723ZM295.148 153.504C294.309 153.504 293.576 153.807 292.951 154.393C292.326 154.988 291.955 155.691 291.848 156.502H298.352C298.244 155.643 297.893 154.92 297.297 154.354C296.701 153.787 295.988 153.504 295.148 153.504ZM312.951 162V153.719H307.453V162H306.057V152.4H314.357V162H312.951ZM325.256 157.205C325.256 156.17 324.904 155.291 324.221 154.578C323.537 153.865 322.707 153.504 321.75 153.504C320.793 153.504 319.963 153.865 319.279 154.578C318.596 155.291 318.254 156.16 318.254 157.195C318.254 158.23 318.596 159.1 319.279 159.822C319.963 160.545 320.793 160.896 321.75 160.896C322.707 160.896 323.537 160.545 324.221 159.832C324.904 159.119 325.256 158.24 325.256 157.205ZM316.857 157.205C316.857 155.799 317.326 154.617 318.283 153.65C319.24 152.684 320.393 152.195 321.76 152.195C323.117 152.195 324.27 152.684 325.217 153.65C326.174 154.617 326.643 155.799 326.643 157.205C326.643 158.611 326.174 159.793 325.217 160.76C324.27 161.717 323.117 162.205 321.76 162.205C320.393 162.205 319.24 161.717 318.283 160.76C317.326 159.793 316.857 158.611 316.857 157.205ZM338.059 160.701V164.402H336.662V162H328.957V164.402H327.561V160.701H328.254C328.293 160.662 328.352 160.604 328.43 160.506C328.508 160.408 328.654 160.193 328.85 159.861C329.045 159.529 329.211 159.178 329.367 158.787C329.523 158.396 329.66 157.879 329.777 157.234C329.895 156.59 329.963 155.906 329.963 155.203V152.4H336.555V160.701H338.059ZM331.359 153.699L331.35 155.203C331.35 156.297 331.223 157.303 330.949 158.211C330.686 159.129 330.422 159.773 330.158 160.145L329.758 160.701H335.158V153.699H331.359ZM347.951 157.205C347.951 156.17 347.6 155.291 346.916 154.578C346.232 153.865 345.402 153.504 344.445 153.504C343.488 153.504 342.658 153.865 341.975 154.578C341.291 155.291 340.949 156.16 340.949 157.195C340.949 158.23 341.291 159.1 341.975 159.822C342.658 160.545 343.488 160.896 344.445 160.896C345.402 160.896 346.232 160.545 346.916 159.832C347.6 159.119 347.951 158.24 347.951 157.205ZM339.553 157.205C339.553 155.799 340.021 154.617 340.979 153.65C341.936 152.684 343.088 152.195 344.455 152.195C345.812 152.195 346.965 152.684 347.912 153.65C348.869 154.617 349.338 155.799 349.338 157.205C349.338 158.611 348.869 159.793 347.912 160.76C346.965 161.717 345.812 162.205 344.455 162.205C343.088 162.205 341.936 161.717 340.979 160.76C340.021 159.793 339.553 158.611 339.553 157.205ZM357.658 154.9C357.658 155.223 357.6 155.516 357.502 155.779C357.404 156.033 357.277 156.238 357.131 156.385C356.984 156.531 356.838 156.658 356.682 156.756C356.525 156.854 356.408 156.932 356.311 156.971L356.154 157.01C356.203 157.02 356.271 157.039 356.359 157.059C356.447 157.078 356.594 157.137 356.809 157.244C357.023 157.352 357.209 157.479 357.375 157.635C357.541 157.791 357.697 158.016 357.834 158.309C357.971 158.602 358.049 158.934 358.049 159.314C358.049 160.125 357.727 160.809 357.092 161.365C356.447 161.922 355.539 162.205 354.357 162.205C353.898 162.205 353.469 162.146 353.059 162.029C352.648 161.912 352.316 161.766 352.043 161.609C351.77 161.443 351.525 161.277 351.33 161.111C351.135 160.945 350.988 160.809 350.891 160.691L350.754 160.506L351.652 159.607C351.73 159.695 351.838 159.812 351.975 159.959C352.111 160.115 352.424 160.311 352.893 160.545C353.361 160.779 353.85 160.896 354.357 160.896C355.119 160.896 355.686 160.75 356.076 160.457C356.457 160.164 356.652 159.783 356.652 159.305C356.652 158.826 356.457 158.436 356.066 158.143C355.676 157.85 355.109 157.703 354.357 157.703H353.254V156.404H354.357C354.924 156.404 355.383 156.258 355.734 155.965C356.076 155.672 356.252 155.311 356.252 154.9C356.252 154.49 356.086 154.148 355.773 153.895C355.451 153.641 354.982 153.514 354.357 153.514C353.908 153.514 353.488 153.602 353.088 153.777C352.688 153.953 352.404 154.139 352.238 154.324L351.955 154.598L350.949 153.602C351.037 153.504 351.174 153.367 351.35 153.211C351.525 153.055 351.906 152.85 352.492 152.586C353.078 152.332 353.693 152.195 354.357 152.195C355.334 152.195 356.125 152.469 356.74 152.996C357.346 153.533 357.658 154.168 357.658 154.9ZM362.062 157.205C362.062 158.191 362.404 159.051 363.107 159.793C363.811 160.535 364.592 160.896 365.461 160.896C366.281 160.896 367.023 160.545 367.678 159.822C368.332 159.1 368.664 158.23 368.664 157.205C368.664 156.18 368.332 155.311 367.678 154.588C367.023 153.865 366.281 153.504 365.461 153.504C364.592 153.504 363.811 153.875 363.107 154.617C362.404 155.359 362.062 156.219 362.062 157.205ZM362.062 160.496V166.209H360.666V152.41H362.062V153.914C362.082 153.875 362.131 153.807 362.199 153.729C362.268 153.65 362.404 153.514 362.619 153.318C362.834 153.123 363.059 152.947 363.312 152.791C363.557 152.635 363.869 152.498 364.26 152.381C364.65 152.264 365.051 152.205 365.461 152.205C366.682 152.205 367.756 152.693 368.674 153.68C369.592 154.656 370.061 155.838 370.061 157.205C370.061 158.572 369.602 159.754 368.684 160.73C367.766 161.707 366.691 162.195 365.461 162.195C365.051 162.195 364.65 162.137 364.27 162.02C363.889 161.902 363.566 161.766 363.312 161.6C363.049 161.443 362.824 161.277 362.629 161.111C362.434 160.945 362.297 160.799 362.199 160.682L362.062 160.496ZM381.057 157.723L373.254 157.703C373.303 158.572 373.654 159.324 374.318 159.949C374.982 160.584 375.754 160.896 376.652 160.896C377.248 160.896 377.805 160.77 378.322 160.496C378.83 160.232 379.201 159.969 379.416 159.695L379.758 159.305L380.656 160.203C380.617 160.262 380.559 160.33 380.48 160.428C380.402 160.525 380.246 160.682 379.992 160.906C379.738 161.131 379.475 161.326 379.182 161.502C378.889 161.678 378.518 161.834 378.059 161.98C377.6 162.127 377.131 162.195 376.652 162.195C375.344 162.195 374.211 161.717 373.273 160.74C372.326 159.764 371.857 158.582 371.857 157.195C371.857 155.809 372.316 154.637 373.254 153.66C374.191 152.684 375.285 152.195 376.555 152.195C377.863 152.195 378.957 152.654 379.836 153.562C380.715 154.471 381.154 155.613 381.154 157L381.057 157.723ZM376.555 153.504C375.715 153.504 374.982 153.807 374.357 154.393C373.732 154.988 373.361 155.691 373.254 156.502H379.758C379.65 155.643 379.299 154.92 378.703 154.354C378.107 153.787 377.395 153.504 376.555 153.504ZM383.654 152.4H388.049C388.928 152.4 389.631 152.645 390.158 153.113C390.686 153.582 390.949 154.178 390.949 154.9C390.949 155.311 390.842 155.691 390.646 156.023C390.451 156.355 390.246 156.59 390.051 156.717L389.748 156.902C389.787 156.922 389.836 156.941 389.914 156.961C389.992 156.99 390.119 157.059 390.305 157.176C390.49 157.293 390.656 157.42 390.793 157.576C390.93 157.732 391.057 157.947 391.174 158.23C391.291 158.523 391.35 158.846 391.35 159.197C391.35 160.066 391.076 160.75 390.539 161.248C389.992 161.756 389.23 162 388.254 162H383.654V152.4ZM388.254 157.498H385.051V160.701H388.254C388.801 160.701 389.221 160.564 389.514 160.281C389.807 160.008 389.953 159.607 389.953 159.1C389.953 158.592 389.807 158.201 389.514 157.918C389.221 157.645 388.801 157.498 388.254 157.498ZM389.553 154.998C389.553 154.139 389.045 153.699 388.049 153.699H385.051V156.297H388.049C389.045 156.297 389.553 155.867 389.553 154.998ZM396.145 156.502L399.846 155.896C399.846 155.193 399.621 154.617 399.172 154.168C398.723 153.729 398.146 153.504 397.443 153.504C396.936 153.504 396.457 153.621 396.008 153.855C395.559 154.09 395.236 154.324 395.041 154.559L394.738 154.9L393.84 154.002C393.879 153.953 393.928 153.885 393.996 153.807C394.064 153.729 394.211 153.582 394.445 153.377C394.68 153.172 394.924 152.986 395.178 152.82C395.432 152.664 395.764 152.518 396.174 152.391C396.584 152.264 397.014 152.195 397.443 152.195C398.537 152.195 399.436 152.557 400.158 153.26C400.881 153.973 401.242 154.852 401.242 155.896V162H399.846V160.701C399.816 160.74 399.777 160.799 399.719 160.867C399.66 160.936 399.543 161.053 399.348 161.229C399.152 161.404 398.947 161.551 398.732 161.688C398.508 161.824 398.215 161.941 397.854 162.039C397.492 162.146 397.121 162.195 396.74 162.195C395.783 162.195 394.973 161.912 394.318 161.346C393.664 160.779 393.342 160.135 393.342 159.402C393.342 158.602 393.576 157.957 394.064 157.469C394.543 156.98 395.236 156.658 396.145 156.502ZM396.74 160.896C397.639 160.896 398.381 160.604 398.967 160.008C399.553 159.422 399.846 158.65 399.846 157.703V157.098L396.545 157.703C395.344 157.938 394.738 158.504 394.738 159.402C394.738 159.832 394.914 160.193 395.266 160.477C395.617 160.76 396.115 160.896 396.74 160.896ZM417.531 157.195C417.531 158.582 417.053 159.764 416.105 160.74C415.158 161.717 414.035 162.195 412.727 162.195C411.506 162.195 410.441 161.775 409.523 160.916C408.605 160.066 408.078 159.031 407.922 157.801H405.822V162H404.426V152.4H405.822V156.502H407.922C408.088 155.33 408.625 154.324 409.533 153.475C410.432 152.625 411.506 152.195 412.736 152.195C414.045 152.195 415.168 152.684 416.115 153.66C417.053 154.637 417.531 155.809 417.531 157.195ZM409.318 157.205C409.318 158.24 409.66 159.119 410.334 159.832C411.008 160.545 411.809 160.896 412.727 160.896C413.645 160.896 414.445 160.545 415.119 159.832C415.793 159.119 416.125 158.24 416.125 157.205C416.125 156.17 415.793 155.291 415.119 154.578C414.445 153.865 413.645 153.504 412.727 153.504C411.809 153.504 411.008 153.865 410.334 154.578C409.66 155.291 409.318 156.17 409.318 157.205ZM418.84 153.699V152.4H427.033V153.699H423.635V162H422.238V153.699H418.84ZM428.127 160.203L429.533 161.004L427.229 164.598L426.33 164.1L428.127 160.203ZM98.4199 194V190.104C97.6777 190.641 96.7793 190.904 95.7246 190.904C94.6309 190.904 93.7324 190.562 93.0488 189.879C92.3652 189.195 92.0234 188.297 92.0234 187.203V184.4H93.4199V187.203C93.4199 187.896 93.6445 188.473 94.0938 188.922C94.543 189.371 95.1191 189.596 95.8223 189.596C96.3008 189.596 96.7598 189.527 97.1895 189.381C97.6191 189.234 97.9316 189.078 98.127 188.922L98.4199 188.697V184.4H99.8262V194H98.4199ZM101.828 185.699V184.4H110.021V185.699H106.623V194H105.227V185.699H101.828ZM119.729 189.205C119.729 188.17 119.377 187.291 118.693 186.578C118.01 185.865 117.18 185.504 116.223 185.504C115.266 185.504 114.436 185.865 113.752 186.578C113.068 187.291 112.727 188.16 112.727 189.195C112.727 190.23 113.068 191.1 113.752 191.822C114.436 192.545 115.266 192.896 116.223 192.896C117.18 192.896 118.01 192.545 118.693 191.832C119.377 191.119 119.729 190.24 119.729 189.205ZM111.33 189.205C111.33 187.799 111.799 186.617 112.756 185.65C113.713 184.684 114.865 184.195 116.232 184.195C117.59 184.195 118.742 184.684 119.689 185.65C120.646 186.617 121.115 187.799 121.115 189.205C121.115 190.611 120.646 191.793 119.689 192.76C118.742 193.717 117.59 194.205 116.232 194.205C114.865 194.205 113.713 193.717 112.756 192.76C111.799 191.793 111.33 190.611 111.33 189.205ZM134.338 194V185.719H128.84V194H127.443V184.4H135.744V194H134.338ZM140.344 189.205C140.344 190.191 140.686 191.051 141.389 191.793C142.092 192.535 142.873 192.896 143.742 192.896C144.562 192.896 145.305 192.545 145.959 191.822C146.613 191.1 146.945 190.23 146.945 189.205C146.945 188.18 146.613 187.311 145.959 186.588C145.305 185.865 144.562 185.504 143.742 185.504C142.873 185.504 142.092 185.875 141.389 186.617C140.686 187.359 140.344 188.219 140.344 189.205ZM140.344 192.496V198.209H138.947V184.41H140.344V185.914C140.363 185.875 140.412 185.807 140.48 185.729C140.549 185.65 140.686 185.514 140.9 185.318C141.115 185.123 141.34 184.947 141.594 184.791C141.838 184.635 142.15 184.498 142.541 184.381C142.932 184.264 143.332 184.205 143.742 184.205C144.963 184.205 146.037 184.693 146.955 185.68C147.873 186.656 148.342 187.838 148.342 189.205C148.342 190.572 147.883 191.754 146.965 192.73C146.047 193.707 144.973 194.195 143.742 194.195C143.332 194.195 142.932 194.137 142.551 194.02C142.17 193.902 141.848 193.766 141.594 193.6C141.33 193.443 141.105 193.277 140.91 193.111C140.715 192.945 140.578 192.799 140.48 192.682L140.344 192.496ZM159.338 189.723L151.535 189.703C151.584 190.572 151.936 191.324 152.6 191.949C153.264 192.584 154.035 192.896 154.934 192.896C155.529 192.896 156.086 192.77 156.604 192.496C157.111 192.232 157.482 191.969 157.697 191.695L158.039 191.305L158.938 192.203C158.898 192.262 158.84 192.33 158.762 192.428C158.684 192.525 158.527 192.682 158.273 192.906C158.02 193.131 157.756 193.326 157.463 193.502C157.17 193.678 156.799 193.834 156.34 193.98C155.881 194.127 155.412 194.195 154.934 194.195C153.625 194.195 152.492 193.717 151.555 192.74C150.607 191.764 150.139 190.582 150.139 189.195C150.139 187.809 150.598 186.637 151.535 185.66C152.473 184.684 153.566 184.195 154.836 184.195C156.145 184.195 157.238 184.654 158.117 185.562C158.996 186.471 159.436 187.613 159.436 189L159.338 189.723ZM154.836 185.504C153.996 185.504 153.264 185.807 152.639 186.393C152.014 186.988 151.643 187.691 151.535 188.502H158.039C157.932 187.643 157.58 186.92 156.984 186.354C156.389 185.787 155.676 185.504 154.836 185.504ZM169.631 189.205C169.631 188.17 169.279 187.291 168.596 186.578C167.912 185.865 167.082 185.504 166.125 185.504C165.168 185.504 164.338 185.865 163.654 186.578C162.971 187.291 162.629 188.16 162.629 189.195C162.629 190.23 162.971 191.1 163.654 191.822C164.338 192.545 165.168 192.896 166.125 192.896C167.082 192.896 167.912 192.545 168.596 191.832C169.279 191.119 169.631 190.24 169.631 189.205ZM161.232 189.205C161.232 187.799 161.701 186.617 162.658 185.65C163.615 184.684 164.768 184.195 166.135 184.195C167.492 184.195 168.645 184.684 169.592 185.65C170.549 186.617 171.018 187.799 171.018 189.205C171.018 190.611 170.549 191.793 169.592 192.76C168.645 193.717 167.492 194.205 166.135 194.205C164.768 194.205 163.615 193.717 162.658 192.76C161.701 191.793 161.232 190.611 161.232 189.205ZM182.629 189.4C182.629 190.748 182.17 191.891 181.262 192.809C180.344 193.736 179.24 194.195 177.932 194.195C176.516 194.195 175.363 193.658 174.475 192.584C173.576 191.51 173.137 189.977 173.137 188.004C173.137 183.59 174.768 181.09 178.029 180.504C178.732 180.387 179.367 180.24 179.924 180.045C180.471 179.859 180.842 179.703 181.037 179.576L181.33 179.4L182.033 180.504C181.496 180.973 180.227 181.412 178.234 181.803C177.18 182.018 176.32 182.525 175.676 183.307C175.031 184.088 174.68 185.152 174.631 186.5C174.65 186.451 174.699 186.383 174.758 186.295C174.816 186.207 174.953 186.061 175.158 185.846C175.363 185.631 175.588 185.445 175.842 185.27C176.086 185.104 176.408 184.947 176.799 184.811C177.189 184.674 177.6 184.596 178.029 184.596C179.299 184.596 180.383 185.064 181.281 186.002C182.18 186.939 182.629 188.072 182.629 189.4ZM174.631 189.4C174.631 190.396 174.953 191.227 175.598 191.891C176.242 192.564 177.023 192.896 177.932 192.896C178.83 192.896 179.611 192.564 180.256 191.891C180.9 191.227 181.232 190.396 181.232 189.4C181.232 188.414 180.9 187.584 180.256 186.91C179.611 186.246 178.83 185.904 177.932 185.904C177.023 185.904 176.242 186.246 175.598 186.91C174.953 187.584 174.631 188.414 174.631 189.4ZM186.633 189.205C186.633 190.191 186.975 191.051 187.678 191.793C188.381 192.535 189.162 192.896 190.031 192.896C190.852 192.896 191.594 192.545 192.248 191.822C192.902 191.1 193.234 190.23 193.234 189.205C193.234 188.18 192.902 187.311 192.248 186.588C191.594 185.865 190.852 185.504 190.031 185.504C189.162 185.504 188.381 185.875 187.678 186.617C186.975 187.359 186.633 188.219 186.633 189.205ZM186.633 192.496V198.209H185.236V184.41H186.633V185.914C186.652 185.875 186.701 185.807 186.77 185.729C186.838 185.65 186.975 185.514 187.189 185.318C187.404 185.123 187.629 184.947 187.883 184.791C188.127 184.635 188.439 184.498 188.83 184.381C189.221 184.264 189.621 184.205 190.031 184.205C191.252 184.205 192.326 184.693 193.244 185.68C194.162 186.656 194.631 187.838 194.631 189.205C194.631 190.572 194.172 191.754 193.254 192.73C192.336 193.707 191.262 194.195 190.031 194.195C189.621 194.195 189.221 194.137 188.84 194.02C188.459 193.902 188.137 193.766 187.883 193.6C187.619 193.443 187.395 193.277 187.199 193.111C187.004 192.945 186.867 192.799 186.77 192.682L186.633 192.496ZM199.23 188.502L202.932 187.896C202.932 187.193 202.707 186.617 202.258 186.168C201.809 185.729 201.232 185.504 200.529 185.504C200.021 185.504 199.543 185.621 199.094 185.855C198.645 186.09 198.322 186.324 198.127 186.559L197.824 186.9L196.926 186.002C196.965 185.953 197.014 185.885 197.082 185.807C197.15 185.729 197.297 185.582 197.531 185.377C197.766 185.172 198.01 184.986 198.264 184.82C198.518 184.664 198.85 184.518 199.26 184.391C199.67 184.264 200.1 184.195 200.529 184.195C201.623 184.195 202.521 184.557 203.244 185.26C203.967 185.973 204.328 186.852 204.328 187.896V194H202.932V192.701C202.902 192.74 202.863 192.799 202.805 192.867C202.746 192.936 202.629 193.053 202.434 193.229C202.238 193.404 202.033 193.551 201.818 193.688C201.594 193.824 201.301 193.941 200.939 194.039C200.578 194.146 200.207 194.195 199.826 194.195C198.869 194.195 198.059 193.912 197.404 193.346C196.75 192.779 196.428 192.135 196.428 191.402C196.428 190.602 196.662 189.957 197.15 189.469C197.629 188.98 198.322 188.658 199.23 188.502ZM199.826 192.896C200.725 192.896 201.467 192.604 202.053 192.008C202.639 191.422 202.932 190.65 202.932 189.703V189.098L199.631 189.703C198.43 189.938 197.824 190.504 197.824 191.402C197.824 191.832 198 192.193 198.352 192.477C198.703 192.76 199.201 192.896 199.826 192.896ZM213.322 186.9C213.322 187.223 213.264 187.516 213.166 187.779C213.068 188.033 212.941 188.238 212.795 188.385C212.648 188.531 212.502 188.658 212.346 188.756C212.189 188.854 212.072 188.932 211.975 188.971L211.818 189.01C211.867 189.02 211.936 189.039 212.023 189.059C212.111 189.078 212.258 189.137 212.473 189.244C212.688 189.352 212.873 189.479 213.039 189.635C213.205 189.791 213.361 190.016 213.498 190.309C213.635 190.602 213.713 190.934 213.713 191.314C213.713 192.125 213.391 192.809 212.756 193.365C212.111 193.922 211.203 194.205 210.021 194.205C209.562 194.205 209.133 194.146 208.723 194.029C208.312 193.912 207.98 193.766 207.707 193.609C207.434 193.443 207.189 193.277 206.994 193.111C206.799 192.945 206.652 192.809 206.555 192.691L206.418 192.506L207.316 191.607C207.395 191.695 207.502 191.812 207.639 191.959C207.775 192.115 208.088 192.311 208.557 192.545C209.025 192.779 209.514 192.896 210.021 192.896C210.783 192.896 211.35 192.75 211.74 192.457C212.121 192.164 212.316 191.783 212.316 191.305C212.316 190.826 212.121 190.436 211.73 190.143C211.34 189.85 210.773 189.703 210.021 189.703H208.918V188.404H210.021C210.588 188.404 211.047 188.258 211.398 187.965C211.74 187.672 211.916 187.311 211.916 186.9C211.916 186.49 211.75 186.148 211.438 185.895C211.115 185.641 210.646 185.514 210.021 185.514C209.572 185.514 209.152 185.602 208.752 185.777C208.352 185.953 208.068 186.139 207.902 186.324L207.619 186.598L206.613 185.602C206.701 185.504 206.838 185.367 207.014 185.211C207.189 185.055 207.57 184.85 208.156 184.586C208.742 184.332 209.357 184.195 210.021 184.195C210.998 184.195 211.789 184.469 212.404 184.996C213.01 185.533 213.322 186.168 213.322 186.9ZM218.43 195.396L218.928 194L215.021 184.4H216.525L219.631 192.203L222.727 184.4H224.23L219.826 195.396C219.426 196.412 218.996 197.135 218.547 197.564C218.088 197.994 217.512 198.199 216.818 198.199C216.604 198.199 216.398 198.189 216.203 198.15C216.008 198.121 215.852 198.082 215.754 198.043L215.617 198.004V196.695C215.949 196.832 216.281 196.9 216.613 196.9C217.463 196.9 218.068 196.402 218.43 195.396ZM239.23 189.195C239.23 190.582 238.752 191.764 237.805 192.74C236.857 193.717 235.734 194.195 234.426 194.195C233.205 194.195 232.141 193.775 231.223 192.916C230.305 192.066 229.777 191.031 229.621 189.801H227.521V194H226.125V184.4H227.521V188.502H229.621C229.787 187.33 230.324 186.324 231.232 185.475C232.131 184.625 233.205 184.195 234.436 184.195C235.744 184.195 236.867 184.684 237.814 185.66C238.752 186.637 239.23 187.809 239.23 189.195ZM231.018 189.205C231.018 190.24 231.359 191.119 232.033 191.832C232.707 192.545 233.508 192.896 234.426 192.896C235.344 192.896 236.145 192.545 236.818 191.832C237.492 191.119 237.824 190.24 237.824 189.205C237.824 188.17 237.492 187.291 236.818 186.578C236.145 185.865 235.344 185.504 234.426 185.504C233.508 185.504 232.707 185.865 232.033 186.578C231.359 187.291 231.018 188.17 231.018 189.205ZM240.539 185.699V184.4H248.732V185.699H245.334V194H243.938V185.699H240.539ZM263.449 192.701V196.402H262.053V194H254.348V196.402H252.951V192.701H253.645C253.684 192.662 253.742 192.604 253.82 192.506C253.898 192.408 254.045 192.193 254.24 191.861C254.436 191.529 254.602 191.178 254.758 190.787C254.914 190.396 255.051 189.879 255.168 189.234C255.285 188.59 255.354 187.906 255.354 187.203V184.4H261.945V192.701H263.449ZM256.75 185.699L256.74 187.203C256.74 188.297 256.613 189.303 256.34 190.211C256.076 191.129 255.812 191.773 255.549 192.145L255.148 192.701H260.549V185.699H256.75ZM267.746 188.502L271.447 187.896C271.447 187.193 271.223 186.617 270.773 186.168C270.324 185.729 269.748 185.504 269.045 185.504C268.537 185.504 268.059 185.621 267.609 185.855C267.16 186.09 266.838 186.324 266.643 186.559L266.34 186.9L265.441 186.002C265.48 185.953 265.529 185.885 265.598 185.807C265.666 185.729 265.812 185.582 266.047 185.377C266.281 185.172 266.525 184.986 266.779 184.82C267.033 184.664 267.365 184.518 267.775 184.391C268.186 184.264 268.615 184.195 269.045 184.195C270.139 184.195 271.037 184.557 271.76 185.26C272.482 185.973 272.844 186.852 272.844 187.896V194H271.447V192.701C271.418 192.74 271.379 192.799 271.32 192.867C271.262 192.936 271.145 193.053 270.949 193.229C270.754 193.404 270.549 193.551 270.334 193.688C270.109 193.824 269.816 193.941 269.455 194.039C269.094 194.146 268.723 194.195 268.342 194.195C267.385 194.195 266.574 193.912 265.92 193.346C265.266 192.779 264.943 192.135 264.943 191.402C264.943 190.602 265.178 189.957 265.666 189.469C266.145 188.98 266.838 188.658 267.746 188.502ZM268.342 192.896C269.24 192.896 269.982 192.604 270.568 192.008C271.154 191.422 271.447 190.65 271.447 189.703V189.098L268.146 189.703C266.945 189.938 266.34 190.504 266.34 191.402C266.34 191.832 266.516 192.193 266.867 192.477C267.219 192.76 267.717 192.896 268.342 192.896ZM282.932 194V189.801H277.434V194H276.037V184.4H277.434V188.502H282.932V184.4H284.338V194H282.932ZM294.436 194V189.801H288.938V194H287.541V184.4H288.938V188.502H294.436V184.4H295.842V194H294.436ZM309.543 184.4V194H308.137V184.4H309.543ZM300.441 192.701H302.863C303.488 192.701 303.986 192.525 304.367 192.174C304.748 191.822 304.943 191.363 304.943 190.797C304.943 190.24 304.748 189.781 304.367 189.43C303.986 189.078 303.479 188.902 302.844 188.902H300.441V192.701ZM306.34 190.807C306.34 191.764 306.027 192.535 305.412 193.121C304.787 193.707 303.938 194 302.863 194H299.045V184.4H300.441V187.604H302.844C303.918 187.604 304.777 187.896 305.402 188.482C306.027 189.068 306.34 189.85 306.34 190.807ZM321.232 189.723L313.43 189.703C313.479 190.572 313.83 191.324 314.494 191.949C315.158 192.584 315.93 192.896 316.828 192.896C317.424 192.896 317.98 192.77 318.498 192.496C319.006 192.232 319.377 191.969 319.592 191.695L319.934 191.305L320.832 192.203C320.793 192.262 320.734 192.33 320.656 192.428C320.578 192.525 320.422 192.682 320.168 192.906C319.914 193.131 319.65 193.326 319.357 193.502C319.064 193.678 318.693 193.834 318.234 193.98C317.775 194.127 317.307 194.195 316.828 194.195C315.52 194.195 314.387 193.717 313.449 192.74C312.502 191.764 312.033 190.582 312.033 189.195C312.033 187.809 312.492 186.637 313.43 185.66C314.367 184.684 315.461 184.195 316.73 184.195C318.039 184.195 319.133 184.654 320.012 185.562C320.891 186.471 321.33 187.613 321.33 189L321.232 189.723ZM316.73 185.504C315.891 185.504 315.158 185.807 314.533 186.393C313.908 186.988 313.537 187.691 313.43 188.502H319.934C319.826 187.643 319.475 186.92 318.879 186.354C318.283 185.787 317.57 185.504 316.73 185.504ZM334.533 194V185.719H329.035V194H327.639V184.4H335.939V194H334.533ZM346.838 189.205C346.838 188.17 346.486 187.291 345.803 186.578C345.119 185.865 344.289 185.504 343.332 185.504C342.375 185.504 341.545 185.865 340.861 186.578C340.178 187.291 339.836 188.16 339.836 189.195C339.836 190.23 340.178 191.1 340.861 191.822C341.545 192.545 342.375 192.896 343.332 192.896C344.289 192.896 345.119 192.545 345.803 191.832C346.486 191.119 346.838 190.24 346.838 189.205ZM338.439 189.205C338.439 187.799 338.908 186.617 339.865 185.65C340.822 184.684 341.975 184.195 343.342 184.195C344.699 184.195 345.852 184.684 346.799 185.65C347.756 186.617 348.225 187.799 348.225 189.205C348.225 190.611 347.756 191.793 346.799 192.76C345.852 193.717 344.699 194.205 343.342 194.205C341.975 194.205 340.822 193.717 339.865 192.76C338.908 191.793 338.439 190.611 338.439 189.205ZM362.951 186.9L359.445 191.305L355.949 186.9V194H354.553V184.4H355.646L359.445 189.195L363.244 184.4H364.348V194H362.951V186.9ZM374.455 194V189.801H368.957V194H367.561V184.4H368.957V188.502H374.455V184.4H375.861V194H374.455ZM386.76 189.205C386.76 188.17 386.408 187.291 385.725 186.578C385.041 185.865 384.211 185.504 383.254 185.504C382.297 185.504 381.467 185.865 380.783 186.578C380.1 187.291 379.758 188.16 379.758 189.195C379.758 190.23 380.1 191.1 380.783 191.822C381.467 192.545 382.297 192.896 383.254 192.896C384.211 192.896 385.041 192.545 385.725 191.832C386.408 191.119 386.76 190.24 386.76 189.205ZM378.361 189.205C378.361 187.799 378.83 186.617 379.787 185.65C380.744 184.684 381.896 184.195 383.264 184.195C384.621 184.195 385.773 184.684 386.721 185.65C387.678 186.617 388.146 187.799 388.146 189.205C388.146 190.611 387.678 191.793 386.721 192.76C385.773 193.717 384.621 194.205 383.264 194.205C381.896 194.205 380.744 193.717 379.787 192.76C378.83 191.793 378.361 190.611 378.361 189.205ZM397.062 184.4V185.699H392.062V194H390.666V184.4H397.062ZM406.564 189.205C406.564 188.17 406.213 187.291 405.529 186.578C404.846 185.865 404.016 185.504 403.059 185.504C402.102 185.504 401.271 185.865 400.588 186.578C399.904 187.291 399.562 188.16 399.562 189.195C399.562 190.23 399.904 191.1 400.588 191.822C401.271 192.545 402.102 192.896 403.059 192.896C404.016 192.896 404.846 192.545 405.529 191.832C406.213 191.119 406.564 190.24 406.564 189.205ZM398.166 189.205C398.166 187.799 398.635 186.617 399.592 185.65C400.549 184.684 401.701 184.195 403.068 184.195C404.426 184.195 405.578 184.684 406.525 185.65C407.482 186.617 407.951 187.799 407.951 189.205C407.951 190.611 407.482 191.793 406.525 192.76C405.578 193.717 404.426 194.205 403.068 194.205C401.701 194.205 400.549 193.717 399.592 192.76C398.635 191.793 398.166 190.611 398.166 189.205ZM415.676 189.205C415.676 190.191 416.018 191.051 416.721 191.793C417.424 192.535 418.205 192.896 419.074 192.896C419.895 192.896 420.637 192.545 421.291 191.822C421.945 191.1 422.277 190.23 422.277 189.205C422.277 188.18 421.945 187.311 421.291 186.588C420.637 185.865 419.895 185.504 419.074 185.504C418.205 185.504 417.424 185.875 416.721 186.617C416.018 187.359 415.676 188.219 415.676 189.205ZM415.676 192.496V198.209H414.279V184.41H415.676V185.914C415.695 185.875 415.744 185.807 415.812 185.729C415.881 185.65 416.018 185.514 416.232 185.318C416.447 185.123 416.672 184.947 416.926 184.791C417.17 184.635 417.482 184.498 417.873 184.381C418.264 184.264 418.664 184.205 419.074 184.205C420.295 184.205 421.369 184.693 422.287 185.68C423.205 186.656 423.674 187.838 423.674 189.205C423.674 190.572 423.215 191.754 422.297 192.73C421.379 193.707 420.305 194.195 419.074 194.195C418.664 194.195 418.264 194.137 417.883 194.02C417.502 193.902 417.18 193.766 416.926 193.6C416.662 193.443 416.438 193.277 416.242 193.111C416.047 192.945 415.91 192.799 415.812 192.682L415.676 192.496ZM428.273 188.502L431.975 187.896C431.975 187.193 431.75 186.617 431.301 186.168C430.852 185.729 430.275 185.504 429.572 185.504C429.064 185.504 428.586 185.621 428.137 185.855C427.688 186.09 427.365 186.324 427.17 186.559L426.867 186.9L425.969 186.002C426.008 185.953 426.057 185.885 426.125 185.807C426.193 185.729 426.34 185.582 426.574 185.377C426.809 185.172 427.053 184.986 427.307 184.82C427.561 184.664 427.893 184.518 428.303 184.391C428.713 184.264 429.143 184.195 429.572 184.195C430.666 184.195 431.564 184.557 432.287 185.26C433.01 185.973 433.371 186.852 433.371 187.896V194H431.975V192.701C431.945 192.74 431.906 192.799 431.848 192.867C431.789 192.936 431.672 193.053 431.477 193.229C431.281 193.404 431.076 193.551 430.861 193.688C430.637 193.824 430.344 193.941 429.982 194.039C429.621 194.146 429.25 194.195 428.869 194.195C427.912 194.195 427.102 193.912 426.447 193.346C425.793 192.779 425.471 192.135 425.471 191.402C425.471 190.602 425.705 189.957 426.193 189.469C426.672 188.98 427.365 188.658 428.273 188.502ZM428.869 192.896C429.768 192.896 430.51 192.604 431.096 192.008C431.682 191.422 431.975 190.65 431.975 189.703V189.098L428.674 189.703C427.473 189.938 426.867 190.504 426.867 191.402C426.867 191.832 427.043 192.193 427.395 192.477C427.746 192.76 428.244 192.896 428.869 192.896ZM442.365 186.9C442.365 187.223 442.307 187.516 442.209 187.779C442.111 188.033 441.984 188.238 441.838 188.385C441.691 188.531 441.545 188.658 441.389 188.756C441.232 188.854 441.115 188.932 441.018 188.971L440.861 189.01C440.91 189.02 440.979 189.039 441.066 189.059C441.154 189.078 441.301 189.137 441.516 189.244C441.73 189.352 441.916 189.479 442.082 189.635C442.248 189.791 442.404 190.016 442.541 190.309C442.678 190.602 442.756 190.934 442.756 191.314C442.756 192.125 442.434 192.809 441.799 193.365C441.154 193.922 440.246 194.205 439.064 194.205C438.605 194.205 438.176 194.146 437.766 194.029C437.355 193.912 437.023 193.766 436.75 193.609C436.477 193.443 436.232 193.277 436.037 193.111C435.842 192.945 435.695 192.809 435.598 192.691L435.461 192.506L436.359 191.607C436.438 191.695 436.545 191.812 436.682 191.959C436.818 192.115 437.131 192.311 437.6 192.545C438.068 192.779 438.557 192.896 439.064 192.896C439.826 192.896 440.393 192.75 440.783 192.457C441.164 192.164 441.359 191.783 441.359 191.305C441.359 190.826 441.164 190.436 440.773 190.143C440.383 189.85 439.816 189.703 439.064 189.703H437.961V188.404H439.064C439.631 188.404 440.09 188.258 440.441 187.965C440.783 187.672 440.959 187.311 440.959 186.9C440.959 186.49 440.793 186.148 440.48 185.895C440.158 185.641 439.689 185.514 439.064 185.514C438.615 185.514 438.195 185.602 437.795 185.777C437.395 185.953 437.111 186.139 436.945 186.324L436.662 186.598L435.656 185.602C435.744 185.504 435.881 185.367 436.057 185.211C436.232 185.055 436.613 184.85 437.199 184.586C437.785 184.332 438.4 184.195 439.064 184.195C440.041 184.195 440.832 184.469 441.447 184.996C442.053 185.533 442.365 186.168 442.365 186.9ZM99.123 226V221.801H93.625V226H92.2285V216.4H93.625V220.502H99.123V216.4H100.529V226H99.123ZM105.832 220.502L109.533 219.896C109.533 219.193 109.309 218.617 108.859 218.168C108.41 217.729 107.834 217.504 107.131 217.504C106.623 217.504 106.145 217.621 105.695 217.855C105.246 218.09 104.924 218.324 104.729 218.559L104.426 218.9L103.527 218.002C103.566 217.953 103.615 217.885 103.684 217.807C103.752 217.729 103.898 217.582 104.133 217.377C104.367 217.172 104.611 216.986 104.865 216.82C105.119 216.664 105.451 216.518 105.861 216.391C106.271 216.264 106.701 216.195 107.131 216.195C108.225 216.195 109.123 216.557 109.846 217.26C110.568 217.973 110.93 218.852 110.93 219.896V226H109.533V224.701C109.504 224.74 109.465 224.799 109.406 224.867C109.348 224.936 109.23 225.053 109.035 225.229C108.84 225.404 108.635 225.551 108.42 225.688C108.195 225.824 107.902 225.941 107.541 226.039C107.18 226.146 106.809 226.195 106.428 226.195C105.471 226.195 104.66 225.912 104.006 225.346C103.352 224.779 103.029 224.135 103.029 223.402C103.029 222.602 103.264 221.957 103.752 221.469C104.23 220.98 104.924 220.658 105.832 220.502ZM106.428 224.896C107.326 224.896 108.068 224.604 108.654 224.008C109.24 223.422 109.533 222.65 109.533 221.703V221.098L106.232 221.703C105.031 221.938 104.426 222.504 104.426 223.402C104.426 223.832 104.602 224.193 104.953 224.477C105.305 224.76 105.803 224.896 106.428 224.896ZM126.828 224.701V228.402H125.432V226H117.727V228.402H116.33V224.701H117.023C117.062 224.662 117.121 224.604 117.199 224.506C117.277 224.408 117.424 224.193 117.619 223.861C117.814 223.529 117.98 223.178 118.137 222.787C118.293 222.396 118.43 221.879 118.547 221.234C118.664 220.59 118.732 219.906 118.732 219.203V216.4H125.324V224.701H126.828ZM120.129 217.699L120.119 219.203C120.119 220.297 119.992 221.303 119.719 222.211C119.455 223.129 119.191 223.773 118.928 224.145L118.527 224.701H123.928V217.699H120.129ZM135.92 226V221.801H130.422V226H129.025V216.4H130.422V220.502H135.92V216.4H137.326V226H135.92ZM153.625 221.195C153.625 222.582 153.146 223.764 152.199 224.74C151.252 225.717 150.129 226.195 148.82 226.195C147.6 226.195 146.535 225.775 145.617 224.916C144.699 224.066 144.172 223.031 144.016 221.801H141.916V226H140.52V216.4H141.916V220.502H144.016C144.182 219.33 144.719 218.324 145.627 217.475C146.525 216.625 147.6 216.195 148.83 216.195C150.139 216.195 151.262 216.684 152.209 217.66C153.146 218.637 153.625 219.809 153.625 221.195ZM145.412 221.205C145.412 222.24 145.754 223.119 146.428 223.832C147.102 224.545 147.902 224.896 148.82 224.896C149.738 224.896 150.539 224.545 151.213 223.832C151.887 223.119 152.219 222.24 152.219 221.205C152.219 220.17 151.887 219.291 151.213 218.578C150.539 217.865 149.738 217.504 148.82 217.504C147.902 217.504 147.102 217.865 146.428 218.578C145.754 219.291 145.412 220.17 145.412 221.205ZM171.936 219.496V220.805H159.338V219.496H171.936ZM178.146 216.4H182.541C183.42 216.4 184.123 216.645 184.65 217.113C185.178 217.582 185.441 218.178 185.441 218.9C185.441 219.311 185.334 219.691 185.139 220.023C184.943 220.355 184.738 220.59 184.543 220.717L184.24 220.902C184.279 220.922 184.328 220.941 184.406 220.961C184.484 220.99 184.611 221.059 184.797 221.176C184.982 221.293 185.148 221.42 185.285 221.576C185.422 221.732 185.549 221.947 185.666 222.23C185.783 222.523 185.842 222.846 185.842 223.197C185.842 224.066 185.568 224.75 185.031 225.248C184.484 225.756 183.723 226 182.746 226H178.146V216.4ZM182.746 221.498H179.543V224.701H182.746C183.293 224.701 183.713 224.564 184.006 224.281C184.299 224.008 184.445 223.607 184.445 223.1C184.445 222.592 184.299 222.201 184.006 221.918C183.713 221.645 183.293 221.498 182.746 221.498ZM184.045 218.998C184.045 218.139 183.537 217.699 182.541 217.699H179.543V220.297H182.541C183.537 220.297 184.045 219.867 184.045 218.998ZM191.145 217.699V216.4H199.338V217.699H195.939V226H194.543V217.699H191.145ZM209.846 221.723L202.043 221.703C202.092 222.572 202.443 223.324 203.107 223.949C203.771 224.584 204.543 224.896 205.441 224.896C206.037 224.896 206.594 224.77 207.111 224.496C207.619 224.232 207.99 223.969 208.205 223.695L208.547 223.305L209.445 224.203C209.406 224.262 209.348 224.33 209.27 224.428C209.191 224.525 209.035 224.682 208.781 224.906C208.527 225.131 208.264 225.326 207.971 225.502C207.678 225.678 207.307 225.834 206.848 225.98C206.389 226.127 205.92 226.195 205.441 226.195C204.133 226.195 203 225.717 202.062 224.74C201.115 223.764 200.646 222.582 200.646 221.195C200.646 219.809 201.105 218.637 202.043 217.66C202.98 216.684 204.074 216.195 205.344 216.195C206.652 216.195 207.746 216.654 208.625 217.562C209.504 218.471 209.943 219.613 209.943 221L209.846 221.723ZM205.344 217.504C204.504 217.504 203.771 217.807 203.146 218.393C202.521 218.988 202.15 219.691 202.043 220.502H208.547C208.439 219.643 208.088 218.92 207.492 218.354C206.896 217.787 206.184 217.504 205.344 217.504ZM213.439 216.4L220.441 216.41V226.01H219.035V217.709H214.836V219.213C214.836 220.619 214.758 221.801 214.621 222.738C214.484 223.676 214.27 224.398 213.996 224.887C213.713 225.375 213.4 225.717 213.068 225.912C212.727 226.107 212.316 226.205 211.838 226.205C211.672 226.205 211.506 226.186 211.34 226.156C211.174 226.117 211.057 226.088 210.979 226.049L210.842 226.01V224.613C211.105 224.74 211.369 224.809 211.643 224.809C212.053 224.809 212.375 224.691 212.609 224.457C212.844 224.223 213.039 223.676 213.195 222.836C213.352 221.986 213.439 220.775 213.439 219.203V216.4ZM232.131 221.723L224.328 221.703C224.377 222.572 224.729 223.324 225.393 223.949C226.057 224.584 226.828 224.896 227.727 224.896C228.322 224.896 228.879 224.77 229.396 224.496C229.904 224.232 230.275 223.969 230.49 223.695L230.832 223.305L231.73 224.203C231.691 224.262 231.633 224.33 231.555 224.428C231.477 224.525 231.32 224.682 231.066 224.906C230.812 225.131 230.549 225.326 230.256 225.502C229.963 225.678 229.592 225.834 229.133 225.98C228.674 226.127 228.205 226.195 227.727 226.195C226.418 226.195 225.285 225.717 224.348 224.74C223.4 223.764 222.932 222.582 222.932 221.195C222.932 219.809 223.391 218.637 224.328 217.66C225.266 216.684 226.359 216.195 227.629 216.195C228.938 216.195 230.031 216.654 230.91 217.562C231.789 218.471 232.229 219.613 232.229 221L232.131 221.723ZM227.629 217.504C226.789 217.504 226.057 217.807 225.432 218.393C224.807 218.988 224.436 219.691 224.328 220.502H230.832C230.725 219.643 230.373 218.92 229.777 218.354C229.182 217.787 228.469 217.504 227.629 217.504ZM235.422 221.195C235.422 222.279 235.793 223.168 236.555 223.861C237.307 224.555 238.293 224.906 239.514 224.906V217.514C238.293 217.514 237.307 217.855 236.555 218.559C235.793 219.252 235.422 220.131 235.422 221.195ZM245.021 221.205C245.021 220.131 244.641 219.252 243.889 218.559C243.137 217.855 242.15 217.514 240.92 217.514V224.906C242.141 224.906 243.127 224.555 243.889 223.861C244.641 223.168 245.021 222.279 245.021 221.205ZM240.92 226.195V230.199H239.523V226.195C237.893 226.195 236.564 225.727 235.549 224.77C234.533 223.822 234.025 222.631 234.025 221.205C234.025 219.779 234.533 218.588 235.549 217.631C236.564 216.674 237.893 216.205 239.523 216.205V212.006H240.92V216.205C242.541 216.205 243.869 216.674 244.895 217.631C245.91 218.588 246.428 219.779 246.428 221.205C246.428 222.631 245.91 223.822 244.895 224.77C243.869 225.727 242.541 226.195 240.92 226.195ZM256.623 221.205C256.623 220.17 256.271 219.291 255.588 218.578C254.904 217.865 254.074 217.504 253.117 217.504C252.16 217.504 251.33 217.865 250.646 218.578C249.963 219.291 249.621 220.16 249.621 221.195C249.621 222.23 249.963 223.1 250.646 223.822C251.33 224.545 252.16 224.896 253.117 224.896C254.074 224.896 254.904 224.545 255.588 223.832C256.271 223.119 256.623 222.24 256.623 221.205ZM248.225 221.205C248.225 219.799 248.693 218.617 249.65 217.65C250.607 216.684 251.76 216.195 253.127 216.195C254.484 216.195 255.637 216.684 256.584 217.65C257.541 218.617 258.01 219.799 258.01 221.205C258.01 222.611 257.541 223.793 256.584 224.76C255.637 225.717 254.484 226.205 253.127 226.205C251.76 226.205 250.607 225.717 249.65 224.76C248.693 223.793 248.225 222.611 248.225 221.205ZM267.424 226V221.801H261.926V226H260.529V216.4H261.926V220.502H267.424V216.4H268.83V226H267.424ZM280.529 221.723L272.727 221.703C272.775 222.572 273.127 223.324 273.791 223.949C274.455 224.584 275.227 224.896 276.125 224.896C276.721 224.896 277.277 224.77 277.795 224.496C278.303 224.232 278.674 223.969 278.889 223.695L279.23 223.305L280.129 224.203C280.09 224.262 280.031 224.33 279.953 224.428C279.875 224.525 279.719 224.682 279.465 224.906C279.211 225.131 278.947 225.326 278.654 225.502C278.361 225.678 277.99 225.834 277.531 225.98C277.072 226.127 276.604 226.195 276.125 226.195C274.816 226.195 273.684 225.717 272.746 224.74C271.799 223.764 271.33 222.582 271.33 221.195C271.33 219.809 271.789 218.637 272.727 217.66C273.664 216.684 274.758 216.195 276.027 216.195C277.336 216.195 278.43 216.654 279.309 217.562C280.188 218.471 280.627 219.613 280.627 221L280.529 221.723ZM276.027 217.504C275.188 217.504 274.455 217.807 273.83 218.393C273.205 218.988 272.834 219.691 272.727 220.502H279.23C279.123 219.643 278.771 218.92 278.176 218.354C277.58 217.787 276.867 217.504 276.027 217.504ZM294.133 216.4H295.334V226H293.928V218.803L288.127 226H286.936V216.4H288.332V223.598L294.133 216.4ZM299.533 216.4L306.535 216.41V226.01H305.129V217.709H300.93V219.213C300.93 220.619 300.852 221.801 300.715 222.738C300.578 223.676 300.363 224.398 300.09 224.887C299.807 225.375 299.494 225.717 299.162 225.912C298.82 226.107 298.41 226.205 297.932 226.205C297.766 226.205 297.6 226.186 297.434 226.156C297.268 226.117 297.15 226.088 297.072 226.049L296.936 226.01V224.613C297.199 224.74 297.463 224.809 297.736 224.809C298.146 224.809 298.469 224.691 298.703 224.457C298.938 224.223 299.133 223.676 299.289 222.836C299.445 221.986 299.533 220.775 299.533 219.203V216.4ZM316.926 216.4H318.127V226H316.721V218.803L310.92 226H309.729V216.4H311.125V223.598L316.926 216.4ZM332.033 226V221.801H326.535V226H325.139V216.4H326.535V220.502H332.033V216.4H333.439V226H332.033ZM338.742 220.502L342.443 219.896C342.443 219.193 342.219 218.617 341.77 218.168C341.32 217.729 340.744 217.504 340.041 217.504C339.533 217.504 339.055 217.621 338.605 217.855C338.156 218.09 337.834 218.324 337.639 218.559L337.336 218.9L336.438 218.002C336.477 217.953 336.525 217.885 336.594 217.807C336.662 217.729 336.809 217.582 337.043 217.377C337.277 217.172 337.521 216.986 337.775 216.82C338.029 216.664 338.361 216.518 338.771 216.391C339.182 216.264 339.611 216.195 340.041 216.195C341.135 216.195 342.033 216.557 342.756 217.26C343.479 217.973 343.84 218.852 343.84 219.896V226H342.443V224.701C342.414 224.74 342.375 224.799 342.316 224.867C342.258 224.936 342.141 225.053 341.945 225.229C341.75 225.404 341.545 225.551 341.33 225.688C341.105 225.824 340.812 225.941 340.451 226.039C340.09 226.146 339.719 226.195 339.338 226.195C338.381 226.195 337.57 225.912 336.916 225.346C336.262 224.779 335.939 224.135 335.939 223.402C335.939 222.602 336.174 221.957 336.662 221.469C337.141 220.98 337.834 220.658 338.742 220.502ZM339.338 224.896C340.236 224.896 340.979 224.604 341.564 224.008C342.15 223.422 342.443 222.65 342.443 221.703V221.098L339.143 221.703C337.941 221.938 337.336 222.504 337.336 223.402C337.336 223.832 337.512 224.193 337.863 224.477C338.215 224.76 338.713 224.896 339.338 224.896ZM352.238 223.305V226H350.842V216.4H352.238V221.498L357.033 216.4H358.742L355.041 220.297L359.143 226H357.541L354.143 221.303L352.238 223.305ZM368.225 221.205C368.225 220.17 367.873 219.291 367.189 218.578C366.506 217.865 365.676 217.504 364.719 217.504C363.762 217.504 362.932 217.865 362.248 218.578C361.564 219.291 361.223 220.16 361.223 221.195C361.223 222.23 361.564 223.1 362.248 223.822C362.932 224.545 363.762 224.896 364.719 224.896C365.676 224.896 366.506 224.545 367.189 223.832C367.873 223.119 368.225 222.24 368.225 221.205ZM359.826 221.205C359.826 219.799 360.295 218.617 361.252 217.65C362.209 216.684 363.361 216.195 364.729 216.195C366.086 216.195 367.238 216.684 368.186 217.65C369.143 218.617 369.611 219.799 369.611 221.205C369.611 222.611 369.143 223.793 368.186 224.76C367.238 225.717 366.086 226.205 364.729 226.205C363.361 226.205 362.209 225.717 361.252 224.76C360.295 223.793 359.826 222.611 359.826 221.205ZM380.529 218.9L377.023 223.305L373.527 218.9V226H372.131V216.4H373.225L377.023 221.195L380.822 216.4H381.926V226H380.529V218.9ZM392.033 226V217.719H386.535V226H385.139V216.4H393.439V226H392.033ZM405.139 221.723L397.336 221.703C397.385 222.572 397.736 223.324 398.4 223.949C399.064 224.584 399.836 224.896 400.734 224.896C401.33 224.896 401.887 224.77 402.404 224.496C402.912 224.232 403.283 223.969 403.498 223.695L403.84 223.305L404.738 224.203C404.699 224.262 404.641 224.33 404.562 224.428C404.484 224.525 404.328 224.682 404.074 224.906C403.82 225.131 403.557 225.326 403.264 225.502C402.971 225.678 402.6 225.834 402.141 225.98C401.682 226.127 401.213 226.195 400.734 226.195C399.426 226.195 398.293 225.717 397.355 224.74C396.408 223.764 395.939 222.582 395.939 221.195C395.939 219.809 396.398 218.637 397.336 217.66C398.273 216.684 399.367 216.195 400.637 216.195C401.945 216.195 403.039 216.654 403.918 217.562C404.797 218.471 405.236 219.613 405.236 221L405.139 221.723ZM400.637 217.504C399.797 217.504 399.064 217.807 398.439 218.393C397.814 218.988 397.443 219.691 397.336 220.502H403.84C403.732 219.643 403.381 218.92 402.785 218.354C402.189 217.787 401.477 217.504 400.637 217.504ZM407.336 225.199C407.336 224.906 407.424 224.672 407.6 224.486C407.775 224.301 408.02 224.203 408.322 224.203C408.635 224.203 408.879 224.301 409.055 224.486C409.23 224.672 409.318 224.906 409.318 225.199C409.318 225.492 409.23 225.736 409.055 225.922C408.879 226.107 408.635 226.195 408.322 226.195C408.02 226.195 407.775 226.107 407.6 225.922C407.424 225.736 407.336 225.492 407.336 225.199ZM407.336 217.201C407.336 216.908 407.424 216.674 407.6 216.479C407.775 216.293 408.02 216.195 408.322 216.195C408.635 216.195 408.879 216.293 409.055 216.479C409.23 216.674 409.318 216.908 409.318 217.201C409.318 217.494 409.23 217.738 409.055 217.924C408.879 218.109 408.635 218.197 408.322 218.197C408.02 218.197 407.775 218.109 407.6 217.924C407.424 217.738 407.336 217.494 407.336 217.201ZM99.123 258V253.801H93.625V258H92.2285V248.4H93.625V252.502H99.123V248.4H100.529V258H99.123ZM105.832 252.502L109.533 251.896C109.533 251.193 109.309 250.617 108.859 250.168C108.41 249.729 107.834 249.504 107.131 249.504C106.623 249.504 106.145 249.621 105.695 249.855C105.246 250.09 104.924 250.324 104.729 250.559L104.426 250.9L103.527 250.002C103.566 249.953 103.615 249.885 103.684 249.807C103.752 249.729 103.898 249.582 104.133 249.377C104.367 249.172 104.611 248.986 104.865 248.82C105.119 248.664 105.451 248.518 105.861 248.391C106.271 248.264 106.701 248.195 107.131 248.195C108.225 248.195 109.123 248.557 109.846 249.26C110.568 249.973 110.93 250.852 110.93 251.896V258H109.533V256.701C109.504 256.74 109.465 256.799 109.406 256.867C109.348 256.936 109.23 257.053 109.035 257.229C108.84 257.404 108.635 257.551 108.42 257.688C108.195 257.824 107.902 257.941 107.541 258.039C107.18 258.146 106.809 258.195 106.428 258.195C105.471 258.195 104.66 257.912 104.006 257.346C103.352 256.779 103.029 256.135 103.029 255.402C103.029 254.602 103.264 253.957 103.752 253.469C104.23 252.98 104.924 252.658 105.832 252.502ZM106.428 256.896C107.326 256.896 108.068 256.604 108.654 256.008C109.24 255.422 109.533 254.65 109.533 253.703V253.098L106.232 253.703C105.031 253.938 104.426 254.504 104.426 255.402C104.426 255.832 104.602 256.193 104.953 256.477C105.305 256.76 105.803 256.896 106.428 256.896ZM121.018 258V249.719H115.52V258H114.123V248.4H122.424V258H121.018ZM127.023 253.205C127.023 254.191 127.365 255.051 128.068 255.793C128.771 256.535 129.553 256.896 130.422 256.896C131.242 256.896 131.984 256.545 132.639 255.822C133.293 255.1 133.625 254.23 133.625 253.205C133.625 252.18 133.293 251.311 132.639 250.588C131.984 249.865 131.242 249.504 130.422 249.504C129.553 249.504 128.771 249.875 128.068 250.617C127.365 251.359 127.023 252.219 127.023 253.205ZM127.023 256.496V262.209H125.627V248.41H127.023V249.914C127.043 249.875 127.092 249.807 127.16 249.729C127.229 249.65 127.365 249.514 127.58 249.318C127.795 249.123 128.02 248.947 128.273 248.791C128.518 248.635 128.83 248.498 129.221 248.381C129.611 248.264 130.012 248.205 130.422 248.205C131.643 248.205 132.717 248.693 133.635 249.68C134.553 250.656 135.021 251.838 135.021 253.205C135.021 254.572 134.562 255.754 133.645 256.73C132.727 257.707 131.652 258.195 130.422 258.195C130.012 258.195 129.611 258.137 129.23 258.02C128.85 257.902 128.527 257.766 128.273 257.6C128.01 257.443 127.785 257.277 127.59 257.111C127.395 256.945 127.258 256.799 127.16 256.682L127.023 256.496ZM144.719 248.4H145.92V258H144.514V250.803L138.713 258H137.521V248.4H138.918V255.598L144.719 248.4ZM157.521 250.9L154.016 255.305L150.52 250.9V258H149.123V248.4H150.217L154.016 253.195L157.814 248.4H158.918V258H157.521V250.9ZM170.627 253.723L162.824 253.703C162.873 254.572 163.225 255.324 163.889 255.949C164.553 256.584 165.324 256.896 166.223 256.896C166.818 256.896 167.375 256.77 167.893 256.496C168.4 256.232 168.771 255.969 168.986 255.695L169.328 255.305L170.227 256.203C170.188 256.262 170.129 256.33 170.051 256.428C169.973 256.525 169.816 256.682 169.562 256.906C169.309 257.131 169.045 257.326 168.752 257.502C168.459 257.678 168.088 257.834 167.629 257.98C167.17 258.127 166.701 258.195 166.223 258.195C164.914 258.195 163.781 257.717 162.844 256.74C161.896 255.764 161.428 254.582 161.428 253.195C161.428 251.809 161.887 250.637 162.824 249.66C163.762 248.684 164.855 248.195 166.125 248.195C167.434 248.195 168.527 248.654 169.406 249.562C170.285 250.471 170.725 251.613 170.725 253L170.627 253.723ZM166.125 249.504C165.285 249.504 164.553 249.807 163.928 250.393C163.303 250.988 162.932 251.691 162.824 252.502H169.328C169.221 251.643 168.869 250.92 168.273 250.354C167.678 249.787 166.965 249.504 166.125 249.504ZM174.621 253.205C174.621 254.191 174.963 255.051 175.666 255.793C176.369 256.535 177.15 256.896 178.02 256.896C178.84 256.896 179.582 256.545 180.236 255.822C180.891 255.1 181.223 254.23 181.223 253.205C181.223 252.18 180.891 251.311 180.236 250.588C179.582 249.865 178.84 249.504 178.02 249.504C177.15 249.504 176.369 249.875 175.666 250.617C174.963 251.359 174.621 252.219 174.621 253.205ZM174.621 256.496V262.209H173.225V248.41H174.621V249.914C174.641 249.875 174.689 249.807 174.758 249.729C174.826 249.65 174.963 249.514 175.178 249.318C175.393 249.123 175.617 248.947 175.871 248.791C176.115 248.635 176.428 248.498 176.818 248.381C177.209 248.264 177.609 248.205 178.02 248.205C179.24 248.205 180.314 248.693 181.232 249.68C182.15 250.656 182.619 251.838 182.619 253.205C182.619 254.572 182.16 255.754 181.242 256.73C180.324 257.707 179.25 258.195 178.02 258.195C177.609 258.195 177.209 258.137 176.828 258.02C176.447 257.902 176.125 257.766 175.871 257.6C175.607 257.443 175.383 257.277 175.188 257.111C174.992 256.945 174.855 256.799 174.758 256.682L174.621 256.496ZM185.412 256.203L186.818 257.004L184.514 260.598L183.615 260.1L185.412 256.203ZM200.92 253.205C200.92 252.17 200.568 251.291 199.885 250.578C199.201 249.865 198.371 249.504 197.414 249.504C196.457 249.504 195.627 249.865 194.943 250.578C194.26 251.291 193.918 252.16 193.918 253.195C193.918 254.23 194.26 255.1 194.943 255.822C195.627 256.545 196.457 256.896 197.414 256.896C198.371 256.896 199.201 256.545 199.885 255.832C200.568 255.119 200.92 254.24 200.92 253.205ZM192.521 253.205C192.521 251.799 192.99 250.617 193.947 249.65C194.904 248.684 196.057 248.195 197.424 248.195C198.781 248.195 199.934 248.684 200.881 249.65C201.838 250.617 202.307 251.799 202.307 253.205C202.307 254.611 201.838 255.793 200.881 256.76C199.934 257.717 198.781 258.205 197.424 258.205C196.057 258.205 194.904 257.717 193.947 256.76C192.99 255.793 192.521 254.611 192.521 253.205ZM213.918 253.4C213.918 254.748 213.459 255.891 212.551 256.809C211.633 257.736 210.529 258.195 209.221 258.195C207.805 258.195 206.652 257.658 205.764 256.584C204.865 255.51 204.426 253.977 204.426 252.004C204.426 247.59 206.057 245.09 209.318 244.504C210.021 244.387 210.656 244.24 211.213 244.045C211.76 243.859 212.131 243.703 212.326 243.576L212.619 243.4L213.322 244.504C212.785 244.973 211.516 245.412 209.523 245.803C208.469 246.018 207.609 246.525 206.965 247.307C206.32 248.088 205.969 249.152 205.92 250.5C205.939 250.451 205.988 250.383 206.047 250.295C206.105 250.207 206.242 250.061 206.447 249.846C206.652 249.631 206.877 249.445 207.131 249.27C207.375 249.104 207.697 248.947 208.088 248.811C208.479 248.674 208.889 248.596 209.318 248.596C210.588 248.596 211.672 249.064 212.57 250.002C213.469 250.939 213.918 252.072 213.918 253.4ZM205.92 253.4C205.92 254.396 206.242 255.227 206.887 255.891C207.531 256.564 208.312 256.896 209.221 256.896C210.119 256.896 210.9 256.564 211.545 255.891C212.189 255.227 212.521 254.396 212.521 253.4C212.521 252.414 212.189 251.584 211.545 250.91C210.9 250.246 210.119 249.904 209.221 249.904C208.312 249.904 207.531 250.246 206.887 250.91C206.242 251.584 205.92 252.414 205.92 253.4ZM217.922 253.205C217.922 254.191 218.264 255.051 218.967 255.793C219.67 256.535 220.451 256.896 221.32 256.896C222.141 256.896 222.883 256.545 223.537 255.822C224.191 255.1 224.523 254.23 224.523 253.205C224.523 252.18 224.191 251.311 223.537 250.588C222.883 249.865 222.141 249.504 221.32 249.504C220.451 249.504 219.67 249.875 218.967 250.617C218.264 251.359 217.922 252.219 217.922 253.205ZM217.922 256.496V262.209H216.525V248.41H217.922V249.914C217.941 249.875 217.99 249.807 218.059 249.729C218.127 249.65 218.264 249.514 218.479 249.318C218.693 249.123 218.918 248.947 219.172 248.791C219.416 248.635 219.729 248.498 220.119 248.381C220.51 248.264 220.91 248.205 221.32 248.205C222.541 248.205 223.615 248.693 224.533 249.68C225.451 250.656 225.92 251.838 225.92 253.205C225.92 254.572 225.461 255.754 224.543 256.73C223.625 257.707 222.551 258.195 221.32 258.195C220.91 258.195 220.51 258.137 220.129 258.02C219.748 257.902 219.426 257.766 219.172 257.6C218.908 257.443 218.684 257.277 218.488 257.111C218.293 256.945 218.156 256.799 218.059 256.682L217.922 256.496ZM230.52 252.502L234.221 251.896C234.221 251.193 233.996 250.617 233.547 250.168C233.098 249.729 232.521 249.504 231.818 249.504C231.311 249.504 230.832 249.621 230.383 249.855C229.934 250.09 229.611 250.324 229.416 250.559L229.113 250.9L228.215 250.002C228.254 249.953 228.303 249.885 228.371 249.807C228.439 249.729 228.586 249.582 228.82 249.377C229.055 249.172 229.299 248.986 229.553 248.82C229.807 248.664 230.139 248.518 230.549 248.391C230.959 248.264 231.389 248.195 231.818 248.195C232.912 248.195 233.811 248.557 234.533 249.26C235.256 249.973 235.617 250.852 235.617 251.896V258H234.221V256.701C234.191 256.74 234.152 256.799 234.094 256.867C234.035 256.936 233.918 257.053 233.723 257.229C233.527 257.404 233.322 257.551 233.107 257.688C232.883 257.824 232.59 257.941 232.229 258.039C231.867 258.146 231.496 258.195 231.115 258.195C230.158 258.195 229.348 257.912 228.693 257.346C228.039 256.779 227.717 256.135 227.717 255.402C227.717 254.602 227.951 253.957 228.439 253.469C228.918 252.98 229.611 252.658 230.52 252.502ZM231.115 256.896C232.014 256.896 232.756 256.604 233.342 256.008C233.928 255.422 234.221 254.65 234.221 253.703V253.098L230.92 253.703C229.719 253.938 229.113 254.504 229.113 255.402C229.113 255.832 229.289 256.193 229.641 256.477C229.992 256.76 230.49 256.896 231.115 256.896ZM247.902 253.4C247.902 254.748 247.443 255.891 246.535 256.809C245.617 257.736 244.514 258.195 243.205 258.195C241.789 258.195 240.637 257.658 239.748 256.584C238.85 255.51 238.41 253.977 238.41 252.004C238.41 247.59 240.041 245.09 243.303 244.504C244.006 244.387 244.641 244.24 245.197 244.045C245.744 243.859 246.115 243.703 246.311 243.576L246.604 243.4L247.307 244.504C246.77 244.973 245.5 245.412 243.508 245.803C242.453 246.018 241.594 246.525 240.949 247.307C240.305 248.088 239.953 249.152 239.904 250.5C239.924 250.451 239.973 250.383 240.031 250.295C240.09 250.207 240.227 250.061 240.432 249.846C240.637 249.631 240.861 249.445 241.115 249.27C241.359 249.104 241.682 248.947 242.072 248.811C242.463 248.674 242.873 248.596 243.303 248.596C244.572 248.596 245.656 249.064 246.555 250.002C247.453 250.939 247.902 252.072 247.902 253.4ZM239.904 253.4C239.904 254.396 240.227 255.227 240.871 255.891C241.516 256.564 242.297 256.896 243.205 256.896C244.104 256.896 244.885 256.564 245.529 255.891C246.174 255.227 246.506 254.396 246.506 253.4C246.506 252.414 246.174 251.584 245.529 250.91C244.885 250.246 244.104 249.904 243.205 249.904C242.297 249.904 241.516 250.246 240.871 250.91C240.227 251.584 239.904 252.414 239.904 253.4ZM252.609 252.502L256.311 251.896C256.311 251.193 256.086 250.617 255.637 250.168C255.188 249.729 254.611 249.504 253.908 249.504C253.4 249.504 252.922 249.621 252.473 249.855C252.023 250.09 251.701 250.324 251.506 250.559L251.203 250.9L250.305 250.002C250.344 249.953 250.393 249.885 250.461 249.807C250.529 249.729 250.676 249.582 250.91 249.377C251.145 249.172 251.389 248.986 251.643 248.82C251.896 248.664 252.229 248.518 252.639 248.391C253.049 248.264 253.479 248.195 253.908 248.195C255.002 248.195 255.9 248.557 256.623 249.26C257.346 249.973 257.707 250.852 257.707 251.896V258H256.311V256.701C256.281 256.74 256.242 256.799 256.184 256.867C256.125 256.936 256.008 257.053 255.812 257.229C255.617 257.404 255.412 257.551 255.197 257.688C254.973 257.824 254.68 257.941 254.318 258.039C253.957 258.146 253.586 258.195 253.205 258.195C252.248 258.195 251.438 257.912 250.783 257.346C250.129 256.779 249.807 256.135 249.807 255.402C249.807 254.602 250.041 253.957 250.529 253.469C251.008 252.98 251.701 252.658 252.609 252.502ZM253.205 256.896C254.104 256.896 254.846 256.604 255.432 256.008C256.018 255.422 256.311 254.65 256.311 253.703V253.098L253.01 253.703C251.809 253.938 251.203 254.504 251.203 255.402C251.203 255.832 251.379 256.193 251.73 256.477C252.082 256.76 252.58 256.896 253.205 256.896ZM259.699 249.699V248.4H267.893V249.699H264.494V258H263.098V249.699H259.699ZM280.402 248.4V258H278.996V248.4H280.402ZM271.301 256.701H273.723C274.348 256.701 274.846 256.525 275.227 256.174C275.607 255.822 275.803 255.363 275.803 254.797C275.803 254.24 275.607 253.781 275.227 253.43C274.846 253.078 274.338 252.902 273.703 252.902H271.301V256.701ZM277.199 254.807C277.199 255.764 276.887 256.535 276.271 257.121C275.646 257.707 274.797 258 273.723 258H269.904V248.4H271.301V251.604H273.703C274.777 251.604 275.637 251.896 276.262 252.482C276.887 253.068 277.199 253.85 277.199 254.807ZM283.596 248.4H287.99C288.869 248.4 289.572 248.645 290.1 249.113C290.627 249.582 290.891 250.178 290.891 250.9C290.891 251.311 290.783 251.691 290.588 252.023C290.393 252.355 290.188 252.59 289.992 252.717L289.689 252.902C289.729 252.922 289.777 252.941 289.855 252.961C289.934 252.99 290.061 253.059 290.246 253.176C290.432 253.293 290.598 253.42 290.734 253.576C290.871 253.732 290.998 253.947 291.115 254.23C291.232 254.523 291.291 254.846 291.291 255.197C291.291 256.066 291.018 256.75 290.48 257.248C289.934 257.756 289.172 258 288.195 258H283.596V248.4ZM288.195 253.498H284.992V256.701H288.195C288.742 256.701 289.162 256.564 289.455 256.281C289.748 256.008 289.895 255.607 289.895 255.1C289.895 254.592 289.748 254.201 289.455 253.918C289.162 253.645 288.742 253.498 288.195 253.498ZM289.494 250.998C289.494 250.139 288.986 249.699 287.99 249.699H284.992V252.297H287.99C288.986 252.297 289.494 251.867 289.494 250.998ZM296.086 252.502L299.787 251.896C299.787 251.193 299.562 250.617 299.113 250.168C298.664 249.729 298.088 249.504 297.385 249.504C296.877 249.504 296.398 249.621 295.949 249.855C295.5 250.09 295.178 250.324 294.982 250.559L294.68 250.9L293.781 250.002C293.82 249.953 293.869 249.885 293.938 249.807C294.006 249.729 294.152 249.582 294.387 249.377C294.621 249.172 294.865 248.986 295.119 248.82C295.373 248.664 295.705 248.518 296.115 248.391C296.525 248.264 296.955 248.195 297.385 248.195C298.479 248.195 299.377 248.557 300.1 249.26C300.822 249.973 301.184 250.852 301.184 251.896V258H299.787V256.701C299.758 256.74 299.719 256.799 299.66 256.867C299.602 256.936 299.484 257.053 299.289 257.229C299.094 257.404 298.889 257.551 298.674 257.688C298.449 257.824 298.156 257.941 297.795 258.039C297.434 258.146 297.062 258.195 296.682 258.195C295.725 258.195 294.914 257.912 294.26 257.346C293.605 256.779 293.283 256.135 293.283 255.402C293.283 254.602 293.518 253.957 294.006 253.469C294.484 252.98 295.178 252.658 296.086 252.502ZM296.682 256.896C297.58 256.896 298.322 256.604 298.908 256.008C299.494 255.422 299.787 254.65 299.787 253.703V253.098L296.486 253.703C295.285 253.938 294.68 254.504 294.68 255.402C294.68 255.832 294.855 256.193 295.207 256.477C295.559 256.76 296.057 256.896 296.682 256.896ZM303.771 251.604C303.771 250.686 304.094 249.924 304.738 249.318C305.383 248.713 306.232 248.4 307.277 248.4H311.369V258H309.973V254.797H307.17L305.178 258H303.576L305.773 254.504C305.715 254.494 305.646 254.475 305.549 254.436C305.451 254.396 305.295 254.309 305.07 254.172C304.836 254.035 304.641 253.859 304.465 253.664C304.289 253.469 304.133 253.186 303.986 252.834C303.84 252.473 303.771 252.062 303.771 251.604ZM309.973 249.699L307.277 249.709C306.633 249.709 306.125 249.885 305.744 250.236C305.363 250.588 305.178 251.047 305.178 251.604C305.178 252.17 305.363 252.619 305.744 252.971C306.115 253.322 306.633 253.498 307.277 253.498H309.973V249.699ZM319.074 253.195C319.074 254.279 319.445 255.168 320.207 255.861C320.959 256.555 321.945 256.906 323.166 256.906V249.514C321.945 249.514 320.959 249.855 320.207 250.559C319.445 251.252 319.074 252.131 319.074 253.195ZM328.674 253.205C328.674 252.131 328.293 251.252 327.541 250.559C326.789 249.855 325.803 249.514 324.572 249.514V256.906C325.793 256.906 326.779 256.555 327.541 255.861C328.293 255.168 328.674 254.279 328.674 253.205ZM324.572 258.195V262.199H323.176V258.195C321.545 258.195 320.217 257.727 319.201 256.77C318.186 255.822 317.678 254.631 317.678 253.205C317.678 251.779 318.186 250.588 319.201 249.631C320.217 248.674 321.545 248.205 323.176 248.205V244.006H324.572V248.205C326.193 248.205 327.521 248.674 328.547 249.631C329.562 250.588 330.08 251.779 330.08 253.205C330.08 254.631 329.562 255.822 328.547 256.77C327.521 257.727 326.193 258.195 324.572 258.195ZM340.275 253.205C340.275 252.17 339.924 251.291 339.24 250.578C338.557 249.865 337.727 249.504 336.77 249.504C335.812 249.504 334.982 249.865 334.299 250.578C333.615 251.291 333.273 252.16 333.273 253.195C333.273 254.23 333.615 255.1 334.299 255.822C334.982 256.545 335.812 256.896 336.77 256.896C337.727 256.896 338.557 256.545 339.24 255.832C339.924 255.119 340.275 254.24 340.275 253.205ZM331.877 253.205C331.877 251.799 332.346 250.617 333.303 249.65C334.26 248.684 335.412 248.195 336.779 248.195C338.137 248.195 339.289 248.684 340.236 249.65C341.193 250.617 341.662 251.799 341.662 253.205C341.662 254.611 341.193 255.793 340.236 256.76C339.289 257.717 338.137 258.205 336.779 258.205C335.412 258.205 334.26 257.717 333.303 256.76C332.346 255.793 331.877 254.611 331.877 253.205ZM342.98 249.699V248.4H351.174V249.699H347.775V258H346.379V249.699H342.98ZM360.881 253.205C360.881 252.17 360.529 251.291 359.846 250.578C359.162 249.865 358.332 249.504 357.375 249.504C356.418 249.504 355.588 249.865 354.904 250.578C354.221 251.291 353.879 252.16 353.879 253.195C353.879 254.23 354.221 255.1 354.904 255.822C355.588 256.545 356.418 256.896 357.375 256.896C358.332 256.896 359.162 256.545 359.846 255.832C360.529 255.119 360.881 254.24 360.881 253.205ZM352.482 253.205C352.482 251.799 352.951 250.617 353.908 249.65C354.865 248.684 356.018 248.195 357.385 248.195C358.742 248.195 359.895 248.684 360.842 249.65C361.799 250.617 362.268 251.799 362.268 253.205C362.268 254.611 361.799 255.793 360.842 256.76C359.895 257.717 358.742 258.205 357.385 258.205C356.018 258.205 354.865 257.717 353.908 256.76C352.951 255.793 352.482 254.611 352.482 253.205ZM364.387 257.199C364.387 256.906 364.475 256.672 364.65 256.486C364.826 256.301 365.07 256.203 365.373 256.203C365.686 256.203 365.93 256.301 366.105 256.486C366.281 256.672 366.369 256.906 366.369 257.199C366.369 257.492 366.281 257.736 366.105 257.922C365.93 258.107 365.686 258.195 365.373 258.195C365.07 258.195 364.826 258.107 364.65 257.922C364.475 257.736 364.387 257.492 364.387 257.199Z" fill="#1D1717"/>
</svg>
