<svg width="555" height="380" viewBox="0 0 555 380" fill="none" xmlns="http://www.w3.org/2000/svg">
<path d="M318.354 318.821C371.577 329.035 425.953 316.555 465 271C495 236 475 213 487.235 173.117C505 154 512.416 140 517 122C525.434 88.8833 514.434 72.6297 493 56.0001C457 34.0001 436 33.6574 399 40.0003C329 52.0003 324.776 56.1156 250.859 71.8519C194.029 83.9204 167.14 58.4656 110.566 71.8519C54.6332 85.0815 13.7144 142.102 18.5657 190.117C25.8572 262.352 67.7339 319.34 139.566 300.117C202.566 293.117 250.438 305.795 318.354 318.821Z" fill="#FAFAFA"/>
<path d="M96.8027 106.598C96.8809 106.617 96.9785 106.647 97.1055 106.695C97.2324 106.744 97.4668 106.861 97.7988 107.037C98.1309 107.213 98.4238 107.428 98.6875 107.672C98.9414 107.906 99.1758 108.248 99.3906 108.678C99.5957 109.108 99.7031 109.586 99.7031 110.113C99.7031 111.207 99.2246 112.154 98.2676 112.975C97.3105 113.795 96.0898 114.205 94.5957 114.205C93.9805 114.205 93.3848 114.127 92.8184 113.971C92.2422 113.815 91.7637 113.639 91.3926 113.424C91.0215 113.209 90.6895 112.994 90.4062 112.779C90.1133 112.565 89.918 112.389 89.8008 112.242L89.5957 111.998L90.6016 111.002C90.6406 111.061 90.6895 111.129 90.7676 111.207C90.8457 111.285 91.002 111.432 91.2559 111.637C91.5098 111.842 91.7734 112.027 92.0664 112.184C92.3496 112.34 92.7207 112.486 93.1895 112.613C93.6484 112.74 94.1172 112.799 94.5957 112.799C95.6992 112.799 96.5781 112.535 97.2227 111.998C97.8672 111.471 98.1992 110.836 98.1992 110.104C98.1992 109.322 97.8672 108.658 97.2227 108.111C96.5781 107.574 95.6992 107.301 94.5957 107.301H93.0039V105.904H94.5957C95.5527 105.904 96.3047 105.68 96.8613 105.231C97.418 104.781 97.7012 104.244 97.7012 103.6C97.7012 102.926 97.418 102.359 96.8711 101.891C96.3145 101.432 95.5527 101.197 94.5957 101.197C93.9414 101.197 93.3262 101.334 92.75 101.598C92.1641 101.871 91.7441 102.135 91.4805 102.399L91.0996 102.799L90.1035 101.803C90.1426 101.754 90.2012 101.686 90.2891 101.588C90.3672 101.49 90.5527 101.334 90.8457 101.1C91.1289 100.875 91.4316 100.68 91.7539 100.504C92.0762 100.328 92.4961 100.172 93.0039 100.026C93.5117 99.879 94.0488 99.8009 94.5957 99.8009C95.9922 99.8009 97.1055 100.162 97.9453 100.875C98.7754 101.588 99.1953 102.467 99.1953 103.502C99.1953 103.961 99.1074 104.371 98.9414 104.742C98.7754 105.113 98.5801 105.416 98.3457 105.631C98.1113 105.856 97.8867 106.041 97.6523 106.197C97.418 106.354 97.2129 106.461 97.0371 106.52L96.8027 106.598ZM104.498 108.502L108.199 107.897C108.199 107.193 107.975 106.617 107.525 106.168C107.076 105.729 106.5 105.504 105.797 105.504C105.289 105.504 104.811 105.621 104.361 105.856C103.912 106.09 103.59 106.324 103.395 106.559L103.092 106.901L102.193 106.002C102.232 105.953 102.281 105.885 102.35 105.807C102.418 105.729 102.564 105.582 102.799 105.377C103.033 105.172 103.277 104.986 103.531 104.82C103.785 104.664 104.117 104.518 104.527 104.391C104.938 104.264 105.367 104.195 105.797 104.195C106.891 104.195 107.789 104.557 108.512 105.26C109.234 105.973 109.596 106.852 109.596 107.897V114H108.199V112.701C108.17 112.74 108.131 112.799 108.072 112.867C108.014 112.936 107.896 113.053 107.701 113.229C107.506 113.404 107.301 113.551 107.086 113.688C106.861 113.824 106.568 113.942 106.207 114.039C105.846 114.147 105.475 114.195 105.094 114.195C104.137 114.195 103.326 113.912 102.672 113.346C102.018 112.779 101.695 112.135 101.695 111.402C101.695 110.602 101.93 109.957 102.418 109.469C102.896 108.981 103.59 108.658 104.498 108.502ZM105.094 112.897C105.992 112.897 106.734 112.604 107.32 112.008C107.906 111.422 108.199 110.651 108.199 109.703V109.098L104.898 109.703C103.697 109.938 103.092 110.504 103.092 111.402C103.092 111.832 103.268 112.193 103.619 112.477C103.971 112.76 104.469 112.897 105.094 112.897ZM119.186 104.401V105.699H114.186V114H112.789V104.401H119.186ZM122.389 109.205C122.389 110.192 122.73 111.051 123.434 111.793C124.137 112.535 124.918 112.897 125.787 112.897C126.607 112.897 127.35 112.545 128.004 111.822C128.658 111.1 128.99 110.231 128.99 109.205C128.99 108.18 128.658 107.311 128.004 106.588C127.35 105.865 126.607 105.504 125.787 105.504C124.918 105.504 124.137 105.875 123.434 106.617C122.73 107.359 122.389 108.219 122.389 109.205ZM122.389 112.496V118.209H120.992V104.41H122.389V105.914C122.408 105.875 122.457 105.807 122.525 105.729C122.594 105.651 122.73 105.514 122.945 105.318C123.16 105.123 123.385 104.947 123.639 104.791C123.883 104.635 124.195 104.498 124.586 104.381C124.977 104.264 125.377 104.205 125.787 104.205C127.008 104.205 128.082 104.693 129 105.68C129.918 106.656 130.387 107.838 130.387 109.205C130.387 110.572 129.928 111.754 129.01 112.731C128.092 113.707 127.018 114.195 125.787 114.195C125.377 114.195 124.977 114.137 124.596 114.02C124.215 113.902 123.893 113.766 123.639 113.6C123.375 113.443 123.15 113.277 122.955 113.111C122.76 112.945 122.623 112.799 122.525 112.682L122.389 112.496ZM134.986 115.397L135.484 114L131.578 104.401H133.082L136.188 112.203L139.283 104.401H140.787L136.383 115.397C135.982 116.412 135.553 117.135 135.104 117.565C134.645 117.994 134.068 118.199 133.375 118.199C133.16 118.199 132.955 118.19 132.76 118.151C132.564 118.121 132.408 118.082 132.311 118.043L132.174 118.004V116.695C132.506 116.832 132.838 116.901 133.17 116.901C134.02 116.901 134.625 116.402 134.986 115.397ZM148.492 106.901C148.492 107.223 148.434 107.516 148.336 107.779C148.238 108.033 148.111 108.238 147.965 108.385C147.818 108.531 147.672 108.658 147.516 108.756C147.359 108.854 147.242 108.932 147.145 108.971L146.988 109.01C147.037 109.02 147.105 109.039 147.193 109.059C147.281 109.078 147.428 109.137 147.643 109.244C147.857 109.352 148.043 109.479 148.209 109.635C148.375 109.791 148.531 110.016 148.668 110.309C148.805 110.602 148.883 110.934 148.883 111.315C148.883 112.125 148.561 112.809 147.926 113.365C147.281 113.922 146.373 114.205 145.191 114.205C144.732 114.205 144.303 114.147 143.893 114.029C143.482 113.912 143.15 113.766 142.877 113.609C142.604 113.443 142.359 113.277 142.164 113.111C141.969 112.945 141.822 112.809 141.725 112.692L141.588 112.506L142.486 111.608C142.564 111.695 142.672 111.813 142.809 111.959C142.945 112.115 143.258 112.311 143.727 112.545C144.195 112.779 144.684 112.897 145.191 112.897C145.953 112.897 146.52 112.75 146.91 112.457C147.291 112.164 147.486 111.783 147.486 111.305C147.486 110.826 147.291 110.436 146.9 110.143C146.51 109.85 145.943 109.703 145.191 109.703H144.088V108.404H145.191C145.758 108.404 146.217 108.258 146.568 107.965C146.91 107.672 147.086 107.311 147.086 106.901C147.086 106.49 146.92 106.149 146.607 105.895C146.285 105.641 145.816 105.514 145.191 105.514C144.742 105.514 144.322 105.602 143.922 105.777C143.521 105.953 143.238 106.139 143.072 106.324L142.789 106.598L141.783 105.602C141.871 105.504 142.008 105.367 142.184 105.211C142.359 105.055 142.74 104.85 143.326 104.586C143.912 104.332 144.527 104.195 145.191 104.195C146.168 104.195 146.959 104.469 147.574 104.996C148.18 105.533 148.492 106.168 148.492 106.901ZM158.697 104.401H159.898V114H158.492V106.803L152.691 114H151.5V104.401H152.896V111.598L158.697 104.401ZM161.9 105.699V104.401H170.094V105.699H166.695V114H165.299V105.699H161.9ZM173.502 112.701H176.021C176.646 112.701 177.145 112.526 177.525 112.174C177.906 111.822 178.102 111.363 178.102 110.797C178.102 110.24 177.906 109.781 177.525 109.43C177.145 109.078 176.637 108.902 176.002 108.902H173.502V112.701ZM179.498 110.807C179.498 111.764 179.186 112.535 178.57 113.121C177.945 113.707 177.096 114 176.021 114H172.105V104.401H173.502V107.604H176.002C177.076 107.604 177.936 107.897 178.561 108.483C179.186 109.068 179.498 109.85 179.498 110.807ZM185.816 104.401H190.211C191.09 104.401 191.793 104.645 192.32 105.113C192.848 105.582 193.111 106.178 193.111 106.901C193.111 107.311 193.004 107.692 192.809 108.024C192.613 108.356 192.408 108.59 192.213 108.717L191.91 108.902C191.949 108.922 191.998 108.942 192.076 108.961C192.154 108.99 192.281 109.059 192.467 109.176C192.652 109.293 192.818 109.42 192.955 109.576C193.092 109.733 193.219 109.947 193.336 110.231C193.453 110.524 193.512 110.846 193.512 111.197C193.512 112.067 193.238 112.75 192.701 113.248C192.154 113.756 191.393 114 190.416 114H185.816V104.401ZM190.416 109.498H187.213V112.701H190.416C190.963 112.701 191.383 112.565 191.676 112.281C191.969 112.008 192.115 111.608 192.115 111.1C192.115 110.592 191.969 110.201 191.676 109.918C191.383 109.645 190.963 109.498 190.416 109.498ZM191.715 106.998C191.715 106.139 191.207 105.699 190.211 105.699H187.213V108.297H190.211C191.207 108.297 191.715 107.867 191.715 106.998ZM203.404 104.401H204.605V114H203.199V106.803L197.398 114H196.207V104.401H197.604V111.598L203.404 104.401ZM216.705 112.701V116.402H215.309V114H207.604V116.402H206.207V112.701H206.9C206.939 112.662 206.998 112.604 207.076 112.506C207.154 112.408 207.301 112.193 207.496 111.861C207.691 111.529 207.857 111.178 208.014 110.787C208.17 110.397 208.307 109.879 208.424 109.234C208.541 108.59 208.609 107.906 208.609 107.203V104.401H215.201V112.701H216.705ZM210.006 105.699L209.996 107.203C209.996 108.297 209.869 109.303 209.596 110.211C209.332 111.129 209.068 111.774 208.805 112.145L208.404 112.701H213.805V105.699H210.006ZM227.398 109.723L219.596 109.703C219.645 110.572 219.996 111.324 220.66 111.949C221.324 112.584 222.096 112.897 222.994 112.897C223.59 112.897 224.146 112.77 224.664 112.496C225.172 112.233 225.543 111.969 225.758 111.695L226.1 111.305L226.998 112.203C226.959 112.262 226.9 112.33 226.822 112.428C226.744 112.526 226.588 112.682 226.334 112.906C226.08 113.131 225.816 113.326 225.523 113.502C225.23 113.678 224.859 113.834 224.4 113.981C223.941 114.127 223.473 114.195 222.994 114.195C221.686 114.195 220.553 113.717 219.615 112.74C218.668 111.764 218.199 110.582 218.199 109.195C218.199 107.809 218.658 106.637 219.596 105.66C220.533 104.684 221.627 104.195 222.896 104.195C224.205 104.195 225.299 104.654 226.178 105.563C227.057 106.471 227.496 107.613 227.496 109L227.398 109.723ZM222.896 105.504C222.057 105.504 221.324 105.807 220.699 106.393C220.074 106.988 219.703 107.692 219.596 108.502H226.1C225.992 107.643 225.641 106.92 225.045 106.354C224.449 105.787 223.736 105.504 222.896 105.504ZM237.691 109.205C237.691 108.17 237.34 107.291 236.656 106.578C235.973 105.865 235.143 105.504 234.186 105.504C233.229 105.504 232.398 105.865 231.715 106.578C231.031 107.291 230.689 108.16 230.689 109.195C230.689 110.231 231.031 111.1 231.715 111.822C232.398 112.545 233.229 112.897 234.186 112.897C235.143 112.897 235.973 112.545 236.656 111.832C237.34 111.119 237.691 110.24 237.691 109.205ZM229.293 109.205C229.293 107.799 229.762 106.617 230.719 105.651C231.676 104.684 232.828 104.195 234.195 104.195C235.553 104.195 236.705 104.684 237.652 105.651C238.609 106.617 239.078 107.799 239.078 109.205C239.078 110.611 238.609 111.793 237.652 112.76C236.705 113.717 235.553 114.205 234.195 114.205C232.828 114.205 231.676 113.717 230.719 112.76C229.762 111.793 229.293 110.611 229.293 109.205ZM241.891 112.203L243.297 113.004L240.992 116.598L240.094 116.1L241.891 112.203ZM256.598 114V105.719H251.1V114H249.703V104.401H258.004V114H256.598ZM269.703 109.723L261.9 109.703C261.949 110.572 262.301 111.324 262.965 111.949C263.629 112.584 264.4 112.897 265.299 112.897C265.895 112.897 266.451 112.77 266.969 112.496C267.477 112.233 267.848 111.969 268.062 111.695L268.404 111.305L269.303 112.203C269.264 112.262 269.205 112.33 269.127 112.428C269.049 112.526 268.893 112.682 268.639 112.906C268.385 113.131 268.121 113.326 267.828 113.502C267.535 113.678 267.164 113.834 266.705 113.981C266.246 114.127 265.777 114.195 265.299 114.195C263.99 114.195 262.857 113.717 261.92 112.74C260.973 111.764 260.504 110.582 260.504 109.195C260.504 107.809 260.963 106.637 261.9 105.66C262.838 104.684 263.932 104.195 265.201 104.195C266.51 104.195 267.604 104.654 268.482 105.563C269.361 106.471 269.801 107.613 269.801 109L269.703 109.723ZM265.201 105.504C264.361 105.504 263.629 105.807 263.004 106.393C262.379 106.988 262.008 107.692 261.9 108.502H268.404C268.297 107.643 267.945 106.92 267.35 106.354C266.754 105.787 266.041 105.504 265.201 105.504ZM273.697 109.205C273.697 110.192 274.039 111.051 274.742 111.793C275.445 112.535 276.227 112.897 277.096 112.897C277.916 112.897 278.658 112.545 279.312 111.822C279.967 111.1 280.299 110.231 280.299 109.205C280.299 108.18 279.967 107.311 279.312 106.588C278.658 105.865 277.916 105.504 277.096 105.504C276.227 105.504 275.445 105.875 274.742 106.617C274.039 107.359 273.697 108.219 273.697 109.205ZM273.697 112.496V118.209H272.301V104.41H273.697V105.914C273.717 105.875 273.766 105.807 273.834 105.729C273.902 105.651 274.039 105.514 274.254 105.318C274.469 105.123 274.693 104.947 274.947 104.791C275.191 104.635 275.504 104.498 275.895 104.381C276.285 104.264 276.686 104.205 277.096 104.205C278.316 104.205 279.391 104.693 280.309 105.68C281.227 106.656 281.695 107.838 281.695 109.205C281.695 110.572 281.236 111.754 280.318 112.731C279.4 113.707 278.326 114.195 277.096 114.195C276.686 114.195 276.285 114.137 275.904 114.02C275.523 113.902 275.201 113.766 274.947 113.6C274.684 113.443 274.459 113.277 274.264 113.111C274.068 112.945 273.932 112.799 273.834 112.682L273.697 112.496ZM292.691 109.723L284.889 109.703C284.938 110.572 285.289 111.324 285.953 111.949C286.617 112.584 287.389 112.897 288.287 112.897C288.883 112.897 289.439 112.77 289.957 112.496C290.465 112.233 290.836 111.969 291.051 111.695L291.393 111.305L292.291 112.203C292.252 112.262 292.193 112.33 292.115 112.428C292.037 112.526 291.881 112.682 291.627 112.906C291.373 113.131 291.109 113.326 290.816 113.502C290.523 113.678 290.152 113.834 289.693 113.981C289.234 114.127 288.766 114.195 288.287 114.195C286.979 114.195 285.846 113.717 284.908 112.74C283.961 111.764 283.492 110.582 283.492 109.195C283.492 107.809 283.951 106.637 284.889 105.66C285.826 104.684 286.92 104.195 288.189 104.195C289.498 104.195 290.592 104.654 291.471 105.563C292.35 106.471 292.789 107.613 292.789 109L292.691 109.723ZM288.189 105.504C287.35 105.504 286.617 105.807 285.992 106.393C285.367 106.988 284.996 107.692 284.889 108.502H291.393C291.285 107.643 290.934 106.92 290.338 106.354C289.742 105.787 289.029 105.504 288.189 105.504ZM294.586 109.195C294.586 107.809 295.055 106.637 296.002 105.66C296.949 104.684 298.072 104.195 299.371 104.195C300.123 104.195 300.826 104.361 301.471 104.684C302.115 105.006 302.584 105.328 302.857 105.641L303.277 106.1L302.271 107.096C302.252 107.057 302.213 107.008 302.154 106.93C302.105 106.861 301.988 106.734 301.812 106.539C301.637 106.354 301.441 106.188 301.236 106.051C301.021 105.914 300.758 105.787 300.426 105.67C300.094 105.563 299.742 105.504 299.381 105.504C298.463 105.504 297.662 105.865 296.988 106.578C296.314 107.291 295.982 108.17 295.982 109.205C295.982 110.24 296.314 111.119 296.988 111.832C297.662 112.545 298.463 112.897 299.381 112.897C299.938 112.897 300.465 112.77 300.973 112.496C301.471 112.233 301.832 111.969 302.057 111.695L302.379 111.305L303.375 112.203C303.336 112.262 303.277 112.33 303.199 112.428C303.121 112.526 302.945 112.682 302.682 112.906C302.428 113.131 302.154 113.326 301.861 113.502C301.578 113.678 301.207 113.834 300.758 113.981C300.309 114.127 299.85 114.195 299.381 114.195C298.072 114.195 296.939 113.717 296.002 112.74C295.055 111.764 294.586 110.582 294.586 109.195ZM306.578 104.401L313.58 104.41V114.01H312.174V105.709H307.975V107.213C307.975 108.619 307.896 109.801 307.76 110.738C307.623 111.676 307.408 112.399 307.135 112.887C306.852 113.375 306.539 113.717 306.207 113.912C305.865 114.108 305.455 114.205 304.977 114.205C304.811 114.205 304.645 114.186 304.479 114.156C304.312 114.117 304.195 114.088 304.117 114.049L303.98 114.01V112.613C304.244 112.74 304.508 112.809 304.781 112.809C305.191 112.809 305.514 112.692 305.748 112.457C305.982 112.223 306.178 111.676 306.334 110.836C306.49 109.986 306.578 108.776 306.578 107.203V104.401ZM318.873 108.502L322.574 107.897C322.574 107.193 322.35 106.617 321.9 106.168C321.451 105.729 320.875 105.504 320.172 105.504C319.664 105.504 319.186 105.621 318.736 105.856C318.287 106.09 317.965 106.324 317.77 106.559L317.467 106.901L316.568 106.002C316.607 105.953 316.656 105.885 316.725 105.807C316.793 105.729 316.939 105.582 317.174 105.377C317.408 105.172 317.652 104.986 317.906 104.82C318.16 104.664 318.492 104.518 318.902 104.391C319.312 104.264 319.742 104.195 320.172 104.195C321.266 104.195 322.164 104.557 322.887 105.26C323.609 105.973 323.971 106.852 323.971 107.897V114H322.574V112.701C322.545 112.74 322.506 112.799 322.447 112.867C322.389 112.936 322.271 113.053 322.076 113.229C321.881 113.404 321.676 113.551 321.461 113.688C321.236 113.824 320.943 113.942 320.582 114.039C320.221 114.147 319.85 114.195 319.469 114.195C318.512 114.195 317.701 113.912 317.047 113.346C316.393 112.779 316.07 112.135 316.07 111.402C316.07 110.602 316.305 109.957 316.793 109.469C317.271 108.981 317.965 108.658 318.873 108.502ZM319.469 112.897C320.367 112.897 321.109 112.604 321.695 112.008C322.281 111.422 322.574 110.651 322.574 109.703V109.098L319.273 109.703C318.072 109.938 317.467 110.504 317.467 111.402C317.467 111.832 317.643 112.193 317.994 112.477C318.346 112.76 318.844 112.897 319.469 112.897ZM325.963 105.699V104.401H334.156V105.699H330.758V114H329.361V105.699H325.963ZM337.564 112.701H340.084C340.709 112.701 341.207 112.526 341.588 112.174C341.969 111.822 342.164 111.363 342.164 110.797C342.164 110.24 341.969 109.781 341.588 109.43C341.207 109.078 340.699 108.902 340.064 108.902H337.564V112.701ZM343.561 110.807C343.561 111.764 343.248 112.535 342.633 113.121C342.008 113.707 341.158 114 340.084 114H336.168V104.401H337.564V107.604H340.064C341.139 107.604 341.998 107.897 342.623 108.483C343.248 109.068 343.561 109.85 343.561 110.807ZM356.773 114V105.719H351.275V114H349.879V104.401H358.18V114H356.773ZM362.779 109.205C362.779 110.192 363.121 111.051 363.824 111.793C364.527 112.535 365.309 112.897 366.178 112.897C366.998 112.897 367.74 112.545 368.395 111.822C369.049 111.1 369.381 110.231 369.381 109.205C369.381 108.18 369.049 107.311 368.395 106.588C367.74 105.865 366.998 105.504 366.178 105.504C365.309 105.504 364.527 105.875 363.824 106.617C363.121 107.359 362.779 108.219 362.779 109.205ZM362.779 112.496V118.209H361.383V104.41H362.779V105.914C362.799 105.875 362.848 105.807 362.916 105.729C362.984 105.651 363.121 105.514 363.336 105.318C363.551 105.123 363.775 104.947 364.029 104.791C364.273 104.635 364.586 104.498 364.977 104.381C365.367 104.264 365.768 104.205 366.178 104.205C367.398 104.205 368.473 104.693 369.391 105.68C370.309 106.656 370.777 107.838 370.777 109.205C370.777 110.572 370.318 111.754 369.4 112.731C368.482 113.707 367.408 114.195 366.178 114.195C365.768 114.195 365.367 114.137 364.986 114.02C364.605 113.902 364.283 113.766 364.029 113.6C363.766 113.443 363.541 113.277 363.346 113.111C363.15 112.945 363.014 112.799 362.916 112.682L362.779 112.496ZM381.773 109.723L373.971 109.703C374.02 110.572 374.371 111.324 375.035 111.949C375.699 112.584 376.471 112.897 377.369 112.897C377.965 112.897 378.521 112.77 379.039 112.496C379.547 112.233 379.918 111.969 380.133 111.695L380.475 111.305L381.373 112.203C381.334 112.262 381.275 112.33 381.197 112.428C381.119 112.526 380.963 112.682 380.709 112.906C380.455 113.131 380.191 113.326 379.898 113.502C379.605 113.678 379.234 113.834 378.775 113.981C378.316 114.127 377.848 114.195 377.369 114.195C376.061 114.195 374.928 113.717 373.99 112.74C373.043 111.764 372.574 110.582 372.574 109.195C372.574 107.809 373.033 106.637 373.971 105.66C374.908 104.684 376.002 104.195 377.271 104.195C378.58 104.195 379.674 104.654 380.553 105.563C381.432 106.471 381.871 107.613 381.871 109L381.773 109.723ZM377.271 105.504C376.432 105.504 375.699 105.807 375.074 106.393C374.449 106.988 374.078 107.692 373.971 108.502H380.475C380.367 107.643 380.016 106.92 379.42 106.354C378.824 105.787 378.111 105.504 377.271 105.504ZM390.172 106.901C390.172 107.223 390.113 107.516 390.016 107.779C389.918 108.033 389.791 108.238 389.645 108.385C389.498 108.531 389.352 108.658 389.195 108.756C389.039 108.854 388.922 108.932 388.824 108.971L388.668 109.01C388.717 109.02 388.785 109.039 388.873 109.059C388.961 109.078 389.107 109.137 389.322 109.244C389.537 109.352 389.723 109.479 389.889 109.635C390.055 109.791 390.211 110.016 390.348 110.309C390.484 110.602 390.562 110.934 390.562 111.315C390.562 112.125 390.24 112.809 389.605 113.365C388.961 113.922 388.053 114.205 386.871 114.205C386.412 114.205 385.982 114.147 385.572 114.029C385.162 113.912 384.83 113.766 384.557 113.609C384.283 113.443 384.039 113.277 383.844 113.111C383.648 112.945 383.502 112.809 383.404 112.692L383.268 112.506L384.166 111.608C384.244 111.695 384.352 111.813 384.488 111.959C384.625 112.115 384.938 112.311 385.406 112.545C385.875 112.779 386.363 112.897 386.871 112.897C387.633 112.897 388.199 112.75 388.59 112.457C388.971 112.164 389.166 111.783 389.166 111.305C389.166 110.826 388.971 110.436 388.58 110.143C388.189 109.85 387.623 109.703 386.871 109.703H385.768V108.404H386.871C387.438 108.404 387.896 108.258 388.248 107.965C388.59 107.672 388.766 107.311 388.766 106.901C388.766 106.49 388.6 106.149 388.287 105.895C387.965 105.641 387.496 105.514 386.871 105.514C386.422 105.514 386.002 105.602 385.602 105.777C385.201 105.953 384.918 106.139 384.752 106.324L384.469 106.598L383.463 105.602C383.551 105.504 383.688 105.367 383.863 105.211C384.039 105.055 384.42 104.85 385.006 104.586C385.592 104.332 386.207 104.195 386.871 104.195C387.848 104.195 388.639 104.469 389.254 104.996C389.859 105.533 390.172 106.168 390.172 106.901ZM401.676 109.723L393.873 109.703C393.922 110.572 394.273 111.324 394.938 111.949C395.602 112.584 396.373 112.897 397.271 112.897C397.867 112.897 398.424 112.77 398.941 112.496C399.449 112.233 399.82 111.969 400.035 111.695L400.377 111.305L401.275 112.203C401.236 112.262 401.178 112.33 401.1 112.428C401.021 112.526 400.865 112.682 400.611 112.906C400.357 113.131 400.094 113.326 399.801 113.502C399.508 113.678 399.137 113.834 398.678 113.981C398.219 114.127 397.75 114.195 397.271 114.195C395.963 114.195 394.83 113.717 393.893 112.74C392.945 111.764 392.477 110.582 392.477 109.195C392.477 107.809 392.936 106.637 393.873 105.66C394.811 104.684 395.904 104.195 397.174 104.195C398.482 104.195 399.576 104.654 400.455 105.563C401.334 106.471 401.773 107.613 401.773 109L401.676 109.723ZM397.174 105.504C396.334 105.504 395.602 105.807 394.977 106.393C394.352 106.988 393.98 107.692 393.873 108.502H400.377C400.27 107.643 399.918 106.92 399.322 106.354C398.727 105.787 398.014 105.504 397.174 105.504ZM411.168 114V109.801H405.67V114H404.273V104.401H405.67V108.502H411.168V104.401H412.574V114H411.168ZM414.576 105.699V104.401H422.77V105.699H419.371V114H417.975V105.699H414.576ZM426.881 108.502L430.582 107.897C430.582 107.193 430.357 106.617 429.908 106.168C429.459 105.729 428.883 105.504 428.18 105.504C427.672 105.504 427.193 105.621 426.744 105.856C426.295 106.09 425.973 106.324 425.777 106.559L425.475 106.901L424.576 106.002C424.615 105.953 424.664 105.885 424.732 105.807C424.801 105.729 424.947 105.582 425.182 105.377C425.416 105.172 425.66 104.986 425.914 104.82C426.168 104.664 426.5 104.518 426.91 104.391C427.32 104.264 427.75 104.195 428.18 104.195C429.273 104.195 430.172 104.557 430.895 105.26C431.617 105.973 431.979 106.852 431.979 107.897V114H430.582V112.701C430.553 112.74 430.514 112.799 430.455 112.867C430.396 112.936 430.279 113.053 430.084 113.229C429.889 113.404 429.684 113.551 429.469 113.688C429.244 113.824 428.951 113.942 428.59 114.039C428.229 114.147 427.857 114.195 427.477 114.195C426.52 114.195 425.709 113.912 425.055 113.346C424.4 112.779 424.078 112.135 424.078 111.402C424.078 110.602 424.312 109.957 424.801 109.469C425.279 108.981 425.973 108.658 426.881 108.502ZM427.477 112.897C428.375 112.897 429.117 112.604 429.703 112.008C430.289 111.422 430.582 110.651 430.582 109.703V109.098L427.281 109.703C426.08 109.938 425.475 110.504 425.475 111.402C425.475 111.832 425.65 112.193 426.002 112.477C426.354 112.76 426.852 112.897 427.477 112.897ZM435.172 114V104.401H436.568V112.701H441.871V104.401H443.268V112.701H444.771V116.402H443.365V114H435.172ZM454.166 104.401H455.367V114H453.961V106.803L448.16 114H446.969V104.401H448.365V111.598L454.166 104.401ZM471.666 109.195C471.666 110.582 471.188 111.764 470.24 112.74C469.293 113.717 468.17 114.195 466.861 114.195C465.641 114.195 464.576 113.776 463.658 112.916C462.74 112.067 462.213 111.031 462.057 109.801H459.957V114H458.561V104.401H459.957V108.502H462.057C462.223 107.33 462.76 106.324 463.668 105.475C464.566 104.625 465.641 104.195 466.871 104.195C468.18 104.195 469.303 104.684 470.25 105.66C471.188 106.637 471.666 107.809 471.666 109.195ZM463.453 109.205C463.453 110.24 463.795 111.119 464.469 111.832C465.143 112.545 465.943 112.897 466.861 112.897C467.779 112.897 468.58 112.545 469.254 111.832C469.928 111.119 470.26 110.24 470.26 109.205C470.26 108.17 469.928 107.291 469.254 106.578C468.58 105.865 467.779 105.504 466.861 105.504C465.943 105.504 465.143 105.865 464.469 106.578C463.795 107.291 463.453 108.17 463.453 109.205ZM474.469 112.203L475.875 113.004L473.57 116.598L472.672 116.1L474.469 112.203ZM98.1992 141.205C98.1992 140.17 97.8477 139.291 97.1641 138.578C96.4805 137.865 95.6504 137.504 94.6934 137.504C93.7363 137.504 92.9062 137.865 92.2227 138.578C91.5391 139.291 91.1973 140.16 91.1973 141.195C91.1973 142.231 91.5391 143.1 92.2227 143.822C92.9062 144.545 93.7363 144.897 94.6934 144.897C95.6504 144.897 96.4805 144.545 97.1641 143.832C97.8477 143.119 98.1992 142.24 98.1992 141.205ZM89.8008 141.205C89.8008 139.799 90.2695 138.617 91.2266 137.651C92.1836 136.684 93.3359 136.195 94.7031 136.195C96.0605 136.195 97.2129 136.684 98.1602 137.651C99.1172 138.617 99.5859 139.799 99.5859 141.205C99.5859 142.611 99.1172 143.793 98.1602 144.76C97.2129 145.717 96.0605 146.205 94.7031 146.205C93.3359 146.205 92.1836 145.717 91.2266 144.76C90.2695 143.793 89.8008 142.611 89.8008 141.205ZM100.904 137.699V136.401H109.098V137.699H105.699V146H104.303V137.699H100.904ZM118.004 146V137.719H112.506V146H111.109V136.401H119.41V146H118.004ZM124.01 141.205C124.01 142.192 124.352 143.051 125.055 143.793C125.758 144.535 126.539 144.897 127.408 144.897C128.229 144.897 128.971 144.545 129.625 143.822C130.279 143.1 130.611 142.231 130.611 141.205C130.611 140.18 130.279 139.311 129.625 138.588C128.971 137.865 128.229 137.504 127.408 137.504C126.539 137.504 125.758 137.875 125.055 138.617C124.352 139.359 124.01 140.219 124.01 141.205ZM124.01 144.496V150.209H122.613V136.41H124.01V137.914C124.029 137.875 124.078 137.807 124.146 137.729C124.215 137.651 124.352 137.514 124.566 137.318C124.781 137.123 125.006 136.947 125.26 136.791C125.504 136.635 125.816 136.498 126.207 136.381C126.598 136.264 126.998 136.205 127.408 136.205C128.629 136.205 129.703 136.693 130.621 137.68C131.539 138.656 132.008 139.838 132.008 141.205C132.008 142.572 131.549 143.754 130.631 144.731C129.713 145.707 128.639 146.195 127.408 146.195C126.998 146.195 126.598 146.137 126.217 146.02C125.836 145.902 125.514 145.766 125.26 145.6C124.996 145.443 124.771 145.277 124.576 145.111C124.381 144.945 124.244 144.799 124.146 144.682L124.01 144.496ZM136.607 140.502L140.309 139.897C140.309 139.193 140.084 138.617 139.635 138.168C139.186 137.729 138.609 137.504 137.906 137.504C137.398 137.504 136.92 137.621 136.471 137.856C136.021 138.09 135.699 138.324 135.504 138.559L135.201 138.901L134.303 138.002C134.342 137.953 134.391 137.885 134.459 137.807C134.527 137.729 134.674 137.582 134.908 137.377C135.143 137.172 135.387 136.986 135.641 136.82C135.895 136.664 136.227 136.518 136.637 136.391C137.047 136.264 137.477 136.195 137.906 136.195C139 136.195 139.898 136.557 140.621 137.26C141.344 137.973 141.705 138.852 141.705 139.897V146H140.309V144.701C140.279 144.74 140.24 144.799 140.182 144.867C140.123 144.936 140.006 145.053 139.811 145.229C139.615 145.404 139.41 145.551 139.195 145.688C138.971 145.824 138.678 145.942 138.316 146.039C137.955 146.147 137.584 146.195 137.203 146.195C136.246 146.195 135.436 145.912 134.781 145.346C134.127 144.779 133.805 144.135 133.805 143.402C133.805 142.602 134.039 141.957 134.527 141.469C135.006 140.981 135.699 140.658 136.607 140.502ZM137.203 144.897C138.102 144.897 138.844 144.604 139.43 144.008C140.016 143.422 140.309 142.651 140.309 141.703V141.098L137.008 141.703C135.807 141.938 135.201 142.504 135.201 143.402C135.201 143.832 135.377 144.193 135.729 144.477C136.08 144.76 136.578 144.897 137.203 144.897ZM144.898 136.401H149.293C150.172 136.401 150.875 136.645 151.402 137.113C151.93 137.582 152.193 138.178 152.193 138.901C152.193 139.311 152.086 139.692 151.891 140.024C151.695 140.356 151.49 140.59 151.295 140.717L150.992 140.902C151.031 140.922 151.08 140.942 151.158 140.961C151.236 140.99 151.363 141.059 151.549 141.176C151.734 141.293 151.9 141.42 152.037 141.576C152.174 141.733 152.301 141.947 152.418 142.231C152.535 142.524 152.594 142.846 152.594 143.197C152.594 144.067 152.32 144.75 151.783 145.248C151.236 145.756 150.475 146 149.498 146H144.898V136.401ZM149.498 141.498H146.295V144.701H149.498C150.045 144.701 150.465 144.565 150.758 144.281C151.051 144.008 151.197 143.608 151.197 143.1C151.197 142.592 151.051 142.201 150.758 141.918C150.465 141.645 150.045 141.498 149.498 141.498ZM150.797 138.998C150.797 138.139 150.289 137.699 149.293 137.699H146.295V140.297H149.293C150.289 140.297 150.797 139.867 150.797 138.998ZM162.486 136.401H163.688V146H162.281V138.803L156.48 146H155.289V136.401H156.686V143.598L162.486 136.401ZM165.689 137.699V136.401H173.883V137.699H170.484V146H169.088V137.699H165.689ZM177.291 144.701H179.811C180.436 144.701 180.934 144.526 181.314 144.174C181.695 143.822 181.891 143.363 181.891 142.797C181.891 142.24 181.695 141.781 181.314 141.43C180.934 141.078 180.426 140.902 179.791 140.902H177.291V144.701ZM183.287 142.807C183.287 143.764 182.975 144.535 182.359 145.121C181.734 145.707 180.885 146 179.811 146H175.895V136.401H177.291V139.604H179.791C180.865 139.604 181.725 139.897 182.35 140.483C182.975 141.068 183.287 141.85 183.287 142.807ZM188.902 141.195C188.902 139.809 189.371 138.637 190.318 137.66C191.266 136.684 192.389 136.195 193.688 136.195C194.439 136.195 195.143 136.361 195.787 136.684C196.432 137.006 196.9 137.328 197.174 137.641L197.594 138.1L196.588 139.096C196.568 139.057 196.529 139.008 196.471 138.93C196.422 138.861 196.305 138.734 196.129 138.539C195.953 138.354 195.758 138.188 195.553 138.051C195.338 137.914 195.074 137.787 194.742 137.67C194.41 137.563 194.059 137.504 193.697 137.504C192.779 137.504 191.979 137.865 191.305 138.578C190.631 139.291 190.299 140.17 190.299 141.205C190.299 142.24 190.631 143.119 191.305 143.832C191.979 144.545 192.779 144.897 193.697 144.897C194.254 144.897 194.781 144.77 195.289 144.496C195.787 144.233 196.148 143.969 196.373 143.695L196.695 143.305L197.691 144.203C197.652 144.262 197.594 144.33 197.516 144.428C197.438 144.526 197.262 144.682 196.998 144.906C196.744 145.131 196.471 145.326 196.178 145.502C195.895 145.678 195.523 145.834 195.074 145.981C194.625 146.127 194.166 146.195 193.697 146.195C192.389 146.195 191.256 145.717 190.318 144.74C189.371 143.764 188.902 142.582 188.902 141.195ZM207.594 141.205C207.594 140.17 207.242 139.291 206.559 138.578C205.875 137.865 205.045 137.504 204.088 137.504C203.131 137.504 202.301 137.865 201.617 138.578C200.934 139.291 200.592 140.16 200.592 141.195C200.592 142.231 200.934 143.1 201.617 143.822C202.301 144.545 203.131 144.897 204.088 144.897C205.045 144.897 205.875 144.545 206.559 143.832C207.242 143.119 207.594 142.24 207.594 141.205ZM199.195 141.205C199.195 139.799 199.664 138.617 200.621 137.651C201.578 136.684 202.73 136.195 204.098 136.195C205.455 136.195 206.607 136.684 207.555 137.651C208.512 138.617 208.98 139.799 208.98 141.205C208.98 142.611 208.512 143.793 207.555 144.76C206.607 145.717 205.455 146.205 204.098 146.205C202.73 146.205 201.578 145.717 200.621 144.76C199.664 143.793 199.195 142.611 199.195 141.205ZM219.195 141.205C219.195 140.17 218.844 139.291 218.16 138.578C217.477 137.865 216.646 137.504 215.689 137.504C214.732 137.504 213.902 137.865 213.219 138.578C212.535 139.291 212.193 140.16 212.193 141.195C212.193 142.231 212.535 143.1 213.219 143.822C213.902 144.545 214.732 144.897 215.689 144.897C216.646 144.897 217.477 144.545 218.16 143.832C218.844 143.119 219.195 142.24 219.195 141.205ZM210.797 141.205C210.797 139.799 211.266 138.617 212.223 137.651C213.18 136.684 214.332 136.195 215.699 136.195C217.057 136.195 218.209 136.684 219.156 137.651C220.113 138.617 220.582 139.799 220.582 141.205C220.582 142.611 220.113 143.793 219.156 144.76C218.209 145.717 217.057 146.205 215.699 146.205C214.332 146.205 213.18 145.717 212.223 144.76C211.266 143.793 210.797 142.611 210.797 141.205ZM232.193 141.401C232.193 142.748 231.734 143.891 230.826 144.809C229.908 145.736 228.805 146.195 227.496 146.195C226.08 146.195 224.928 145.658 224.039 144.584C223.141 143.51 222.701 141.977 222.701 140.004C222.701 135.59 224.332 133.09 227.594 132.504C228.297 132.387 228.932 132.24 229.488 132.045C230.035 131.859 230.406 131.703 230.602 131.576L230.895 131.401L231.598 132.504C231.061 132.973 229.791 133.412 227.799 133.803C226.744 134.018 225.885 134.526 225.24 135.307C224.596 136.088 224.244 137.152 224.195 138.5C224.215 138.451 224.264 138.383 224.322 138.295C224.381 138.207 224.518 138.061 224.723 137.846C224.928 137.631 225.152 137.445 225.406 137.27C225.65 137.104 225.973 136.947 226.363 136.811C226.754 136.674 227.164 136.596 227.594 136.596C228.863 136.596 229.947 137.065 230.846 138.002C231.744 138.94 232.193 140.072 232.193 141.401ZM224.195 141.401C224.195 142.397 224.518 143.227 225.162 143.891C225.807 144.565 226.588 144.897 227.496 144.897C228.395 144.897 229.176 144.565 229.82 143.891C230.465 143.227 230.797 142.397 230.797 141.401C230.797 140.414 230.465 139.584 229.82 138.91C229.176 138.246 228.395 137.904 227.496 137.904C226.588 137.904 225.807 138.246 225.162 138.91C224.518 139.584 224.195 140.414 224.195 141.401ZM234.801 146V136.401H236.197V144.701H240.299V136.401H241.715V144.701H245.797V136.401H247.193V144.701H248.697V148.402H247.301V146H234.801ZM259.391 141.723L251.588 141.703C251.637 142.572 251.988 143.324 252.652 143.949C253.316 144.584 254.088 144.897 254.986 144.897C255.582 144.897 256.139 144.77 256.656 144.496C257.164 144.233 257.535 143.969 257.75 143.695L258.092 143.305L258.99 144.203C258.951 144.262 258.893 144.33 258.814 144.428C258.736 144.526 258.58 144.682 258.326 144.906C258.072 145.131 257.809 145.326 257.516 145.502C257.223 145.678 256.852 145.834 256.393 145.981C255.934 146.127 255.465 146.195 254.986 146.195C253.678 146.195 252.545 145.717 251.607 144.74C250.66 143.764 250.191 142.582 250.191 141.195C250.191 139.809 250.65 138.637 251.588 137.66C252.525 136.684 253.619 136.195 254.889 136.195C256.197 136.195 257.291 136.654 258.17 137.563C259.049 138.471 259.488 139.613 259.488 141L259.391 141.723ZM254.889 137.504C254.049 137.504 253.316 137.807 252.691 138.393C252.066 138.988 251.695 139.692 251.588 140.502H258.092C257.984 139.643 257.633 138.92 257.037 138.354C256.441 137.787 255.729 137.504 254.889 137.504ZM268.883 146V141.801H263.385V146H261.988V136.401H263.385V140.502H268.883V136.401H270.289V146H268.883ZM280.689 136.401H281.891V146H280.484V138.803L274.684 146H273.492V136.401H274.889V143.598L280.689 136.401ZM293.59 141.723L285.787 141.703C285.836 142.572 286.188 143.324 286.852 143.949C287.516 144.584 288.287 144.897 289.186 144.897C289.781 144.897 290.338 144.77 290.855 144.496C291.363 144.233 291.734 143.969 291.949 143.695L292.291 143.305L293.189 144.203C293.15 144.262 293.092 144.33 293.014 144.428C292.936 144.526 292.779 144.682 292.525 144.906C292.271 145.131 292.008 145.326 291.715 145.502C291.422 145.678 291.051 145.834 290.592 145.981C290.133 146.127 289.664 146.195 289.186 146.195C287.877 146.195 286.744 145.717 285.807 144.74C284.859 143.764 284.391 142.582 284.391 141.195C284.391 139.809 284.85 138.637 285.787 137.66C286.725 136.684 287.818 136.195 289.088 136.195C290.396 136.195 291.49 136.654 292.369 137.563C293.248 138.471 293.688 139.613 293.688 141L293.59 141.723ZM289.088 137.504C288.248 137.504 287.516 137.807 286.891 138.393C286.266 138.988 285.895 139.692 285.787 140.502H292.291C292.184 139.643 291.832 138.92 291.236 138.354C290.641 137.787 289.928 137.504 289.088 137.504ZM307.193 136.401H308.395V146H306.988V138.803L301.188 146H299.996V136.401H301.393V143.598L307.193 136.401ZM312.594 136.401L319.596 136.41V146.01H318.189V137.709H313.99V139.213C313.99 140.619 313.912 141.801 313.775 142.738C313.639 143.676 313.424 144.399 313.15 144.887C312.867 145.375 312.555 145.717 312.223 145.912C311.881 146.108 311.471 146.205 310.992 146.205C310.826 146.205 310.66 146.186 310.494 146.156C310.328 146.117 310.211 146.088 310.133 146.049L309.996 146.01V144.613C310.26 144.74 310.523 144.809 310.797 144.809C311.207 144.809 311.529 144.692 311.764 144.457C311.998 144.223 312.193 143.676 312.35 142.836C312.506 141.986 312.594 140.776 312.594 139.203V136.401ZM329.986 136.401H331.188V146H329.781V138.803L323.98 146H322.789V136.401H324.186V143.598L329.986 136.401ZM338.893 141.195C338.893 142.279 339.264 143.168 340.025 143.861C340.777 144.555 341.764 144.906 342.984 144.906V137.514C341.764 137.514 340.777 137.856 340.025 138.559C339.264 139.252 338.893 140.131 338.893 141.195ZM348.492 141.205C348.492 140.131 348.111 139.252 347.359 138.559C346.607 137.856 345.621 137.514 344.391 137.514V144.906C345.611 144.906 346.598 144.555 347.359 143.861C348.111 143.168 348.492 142.279 348.492 141.205ZM344.391 146.195V150.199H342.994V146.195C341.363 146.195 340.035 145.727 339.02 144.77C338.004 143.822 337.496 142.631 337.496 141.205C337.496 139.779 338.004 138.588 339.02 137.631C340.035 136.674 341.363 136.205 342.994 136.205V132.006H344.391V136.205C346.012 136.205 347.34 136.674 348.365 137.631C349.381 138.588 349.898 139.779 349.898 141.205C349.898 142.631 349.381 143.822 348.365 144.77C347.34 145.727 346.012 146.195 344.391 146.195ZM360.094 141.205C360.094 140.17 359.742 139.291 359.059 138.578C358.375 137.865 357.545 137.504 356.588 137.504C355.631 137.504 354.801 137.865 354.117 138.578C353.434 139.291 353.092 140.16 353.092 141.195C353.092 142.231 353.434 143.1 354.117 143.822C354.801 144.545 355.631 144.897 356.588 144.897C357.545 144.897 358.375 144.545 359.059 143.832C359.742 143.119 360.094 142.24 360.094 141.205ZM351.695 141.205C351.695 139.799 352.164 138.617 353.121 137.651C354.078 136.684 355.23 136.195 356.598 136.195C357.955 136.195 359.107 136.684 360.055 137.651C361.012 138.617 361.48 139.799 361.48 141.205C361.48 142.611 361.012 143.793 360.055 144.76C359.107 145.717 357.955 146.205 356.598 146.205C355.23 146.205 354.078 145.717 353.121 144.76C352.164 143.793 351.695 142.611 351.695 141.205ZM362.799 137.699V136.401H370.992V137.699H367.594V146H366.197V137.699H362.799ZM380.699 141.205C380.699 140.17 380.348 139.291 379.664 138.578C378.98 137.865 378.15 137.504 377.193 137.504C376.236 137.504 375.406 137.865 374.723 138.578C374.039 139.291 373.697 140.16 373.697 141.195C373.697 142.231 374.039 143.1 374.723 143.822C375.406 144.545 376.236 144.897 377.193 144.897C378.15 144.897 378.98 144.545 379.664 143.832C380.348 143.119 380.699 142.24 380.699 141.205ZM372.301 141.205C372.301 139.799 372.77 138.617 373.727 137.651C374.684 136.684 375.836 136.195 377.203 136.195C378.561 136.195 379.713 136.684 380.66 137.651C381.617 138.617 382.086 139.799 382.086 141.205C382.086 142.611 381.617 143.793 380.66 144.76C379.713 145.717 378.561 146.205 377.203 146.205C375.836 146.205 374.684 145.717 373.727 144.76C372.77 143.793 372.301 142.611 372.301 141.205ZM390.797 146V142.104C390.055 142.641 389.156 142.904 388.102 142.904C387.008 142.904 386.109 142.563 385.426 141.879C384.742 141.195 384.4 140.297 384.4 139.203V136.401H385.797V139.203C385.797 139.897 386.021 140.473 386.471 140.922C386.92 141.371 387.496 141.596 388.199 141.596C388.678 141.596 389.137 141.527 389.566 141.381C389.996 141.234 390.309 141.078 390.504 140.922L390.797 140.697V136.401H392.203V146H390.797ZM396.803 143.305V146H395.406V136.401H396.803V141.498L401.598 136.401H403.307L399.605 140.297L403.707 146H402.105L398.707 141.303L396.803 143.305ZM407.604 147.397L408.102 146L404.195 136.401H405.699L408.805 144.203L411.9 136.401H413.404L409 147.397C408.6 148.412 408.17 149.135 407.721 149.565C407.262 149.994 406.686 150.199 405.992 150.199C405.777 150.199 405.572 150.19 405.377 150.151C405.182 150.121 405.025 150.082 404.928 150.043L404.791 150.004V148.695C405.123 148.832 405.455 148.901 405.787 148.901C406.637 148.901 407.242 148.402 407.604 147.397ZM414.801 144.203L416.207 145.004L413.902 148.598L413.004 148.1L414.801 144.203ZM97.3984 178V169.719H91.9004V178H90.5039V168.401H98.8047V178H97.3984ZM109.703 173.205C109.703 172.17 109.352 171.291 108.668 170.578C107.984 169.865 107.154 169.504 106.197 169.504C105.24 169.504 104.41 169.865 103.727 170.578C103.043 171.291 102.701 172.16 102.701 173.195C102.701 174.231 103.043 175.1 103.727 175.822C104.41 176.545 105.24 176.897 106.197 176.897C107.154 176.897 107.984 176.545 108.668 175.832C109.352 175.119 109.703 174.24 109.703 173.205ZM101.305 173.205C101.305 171.799 101.773 170.617 102.73 169.651C103.688 168.684 104.84 168.195 106.207 168.195C107.564 168.195 108.717 168.684 109.664 169.651C110.621 170.617 111.09 171.799 111.09 173.205C111.09 174.611 110.621 175.793 109.664 176.76C108.717 177.717 107.564 178.205 106.207 178.205C104.84 178.205 103.688 177.717 102.73 176.76C101.773 175.793 101.305 174.611 101.305 173.205ZM112.906 173.195C112.906 171.809 113.375 170.637 114.322 169.66C115.27 168.684 116.393 168.195 117.691 168.195C118.443 168.195 119.146 168.361 119.791 168.684C120.436 169.006 120.904 169.328 121.178 169.641L121.598 170.1L120.592 171.096C120.572 171.057 120.533 171.008 120.475 170.93C120.426 170.861 120.309 170.734 120.133 170.539C119.957 170.354 119.762 170.188 119.557 170.051C119.342 169.914 119.078 169.787 118.746 169.67C118.414 169.563 118.062 169.504 117.701 169.504C116.783 169.504 115.982 169.865 115.309 170.578C114.635 171.291 114.303 172.17 114.303 173.205C114.303 174.24 114.635 175.119 115.309 175.832C115.982 176.545 116.783 176.897 117.701 176.897C118.258 176.897 118.785 176.77 119.293 176.496C119.791 176.233 120.152 175.969 120.377 175.695L120.699 175.305L121.695 176.203C121.656 176.262 121.598 176.33 121.52 176.428C121.441 176.526 121.266 176.682 121.002 176.906C120.748 177.131 120.475 177.326 120.182 177.502C119.898 177.678 119.527 177.834 119.078 177.981C118.629 178.127 118.17 178.195 117.701 178.195C116.393 178.195 115.26 177.717 114.322 176.74C113.375 175.764 112.906 174.582 112.906 173.195ZM132.301 170.901L128.795 175.305L125.299 170.901V178H123.902V168.401H124.996L128.795 173.195L132.594 168.401H133.697V178H132.301V170.901ZM144.605 173.205C144.605 172.17 144.254 171.291 143.57 170.578C142.887 169.865 142.057 169.504 141.1 169.504C140.143 169.504 139.312 169.865 138.629 170.578C137.945 171.291 137.604 172.16 137.604 173.195C137.604 174.231 137.945 175.1 138.629 175.822C139.312 176.545 140.143 176.897 141.1 176.897C142.057 176.897 142.887 176.545 143.57 175.832C144.254 175.119 144.605 174.24 144.605 173.205ZM136.207 173.205C136.207 171.799 136.676 170.617 137.633 169.651C138.59 168.684 139.742 168.195 141.109 168.195C142.467 168.195 143.619 168.684 144.566 169.651C145.523 170.617 145.992 171.799 145.992 173.205C145.992 174.611 145.523 175.793 144.566 176.76C143.619 177.717 142.467 178.205 141.109 178.205C139.742 178.205 138.59 177.717 137.633 176.76C136.676 175.793 136.207 174.611 136.207 173.205ZM147.311 169.699V168.401H155.504V169.699H152.105V178H150.709V169.699H147.311ZM158.912 173.205C158.912 174.192 159.254 175.051 159.957 175.793C160.66 176.535 161.441 176.897 162.311 176.897C163.131 176.897 163.873 176.545 164.527 175.822C165.182 175.1 165.514 174.231 165.514 173.205C165.514 172.18 165.182 171.311 164.527 170.588C163.873 169.865 163.131 169.504 162.311 169.504C161.441 169.504 160.66 169.875 159.957 170.617C159.254 171.359 158.912 172.219 158.912 173.205ZM158.912 176.496V182.209H157.516V168.41H158.912V169.914C158.932 169.875 158.98 169.807 159.049 169.729C159.117 169.651 159.254 169.514 159.469 169.318C159.684 169.123 159.908 168.947 160.162 168.791C160.406 168.635 160.719 168.498 161.109 168.381C161.5 168.264 161.9 168.205 162.311 168.205C163.531 168.205 164.605 168.693 165.523 169.68C166.441 170.656 166.91 171.838 166.91 173.205C166.91 174.572 166.451 175.754 165.533 176.731C164.615 177.707 163.541 178.195 162.311 178.195C161.9 178.195 161.5 178.137 161.119 178.02C160.738 177.902 160.416 177.766 160.162 177.6C159.898 177.443 159.674 177.277 159.479 177.111C159.283 176.945 159.146 176.799 159.049 176.682L158.912 176.496ZM177.906 173.723L170.104 173.703C170.152 174.572 170.504 175.324 171.168 175.949C171.832 176.584 172.604 176.897 173.502 176.897C174.098 176.897 174.654 176.77 175.172 176.496C175.68 176.233 176.051 175.969 176.266 175.695L176.607 175.305L177.506 176.203C177.467 176.262 177.408 176.33 177.33 176.428C177.252 176.526 177.096 176.682 176.842 176.906C176.588 177.131 176.324 177.326 176.031 177.502C175.738 177.678 175.367 177.834 174.908 177.981C174.449 178.127 173.98 178.195 173.502 178.195C172.193 178.195 171.061 177.717 170.123 176.74C169.176 175.764 168.707 174.582 168.707 173.195C168.707 171.809 169.166 170.637 170.104 169.66C171.041 168.684 172.135 168.195 173.404 168.195C174.713 168.195 175.807 168.654 176.686 169.563C177.564 170.471 178.004 171.613 178.004 173L177.906 173.723ZM173.404 169.504C172.564 169.504 171.832 169.807 171.207 170.393C170.582 170.988 170.211 171.692 170.104 172.502H176.607C176.5 171.643 176.148 170.92 175.553 170.354C174.957 169.787 174.244 169.504 173.404 169.504ZM179.303 169.699V168.401H187.496V169.699H184.098V178H182.701V169.699H179.303ZM190.904 176.701H193.424C194.049 176.701 194.547 176.526 194.928 176.174C195.309 175.822 195.504 175.363 195.504 174.797C195.504 174.24 195.309 173.781 194.928 173.43C194.547 173.078 194.039 172.902 193.404 172.902H190.904V176.701ZM196.9 174.807C196.9 175.764 196.588 176.535 195.973 177.121C195.348 177.707 194.498 178 193.424 178H189.508V168.401H190.904V171.604H193.404C194.479 171.604 195.338 171.897 195.963 172.483C196.588 173.068 196.9 173.85 196.9 174.807ZM203.219 168.401H207.613C208.492 168.401 209.195 168.645 209.723 169.113C210.25 169.582 210.514 170.178 210.514 170.901C210.514 171.311 210.406 171.692 210.211 172.024C210.016 172.356 209.811 172.59 209.615 172.717L209.312 172.902C209.352 172.922 209.4 172.942 209.479 172.961C209.557 172.99 209.684 173.059 209.869 173.176C210.055 173.293 210.221 173.42 210.357 173.576C210.494 173.733 210.621 173.947 210.738 174.231C210.855 174.524 210.914 174.846 210.914 175.197C210.914 176.067 210.641 176.75 210.104 177.248C209.557 177.756 208.795 178 207.818 178H203.219V168.401ZM207.818 173.498H204.615V176.701H207.818C208.365 176.701 208.785 176.565 209.078 176.281C209.371 176.008 209.518 175.608 209.518 175.1C209.518 174.592 209.371 174.201 209.078 173.918C208.785 173.645 208.365 173.498 207.818 173.498ZM209.117 170.998C209.117 170.139 208.609 169.699 207.613 169.699H204.615V172.297H207.613C208.609 172.297 209.117 171.867 209.117 170.998ZM220.807 168.401H222.008V178H220.602V170.803L214.801 178H213.609V168.401H215.006V175.598L220.807 168.401ZM234.107 176.701V180.402H232.711V178H225.006V180.402H223.609V176.701H224.303C224.342 176.662 224.4 176.604 224.479 176.506C224.557 176.408 224.703 176.193 224.898 175.861C225.094 175.529 225.26 175.178 225.416 174.787C225.572 174.397 225.709 173.879 225.826 173.234C225.943 172.59 226.012 171.906 226.012 171.203V168.401H232.604V176.701H234.107ZM227.408 169.699L227.398 171.203C227.398 172.297 227.271 173.303 226.998 174.211C226.734 175.129 226.471 175.774 226.207 176.145L225.807 176.701H231.207V169.699H227.408ZM244.801 173.723L236.998 173.703C237.047 174.572 237.398 175.324 238.062 175.949C238.727 176.584 239.498 176.897 240.396 176.897C240.992 176.897 241.549 176.77 242.066 176.496C242.574 176.233 242.945 175.969 243.16 175.695L243.502 175.305L244.4 176.203C244.361 176.262 244.303 176.33 244.225 176.428C244.146 176.526 243.99 176.682 243.736 176.906C243.482 177.131 243.219 177.326 242.926 177.502C242.633 177.678 242.262 177.834 241.803 177.981C241.344 178.127 240.875 178.195 240.396 178.195C239.088 178.195 237.955 177.717 237.018 176.74C236.07 175.764 235.602 174.582 235.602 173.195C235.602 171.809 236.061 170.637 236.998 169.66C237.936 168.684 239.029 168.195 240.299 168.195C241.607 168.195 242.701 168.654 243.58 169.563C244.459 170.471 244.898 171.613 244.898 173L244.801 173.723ZM240.299 169.504C239.459 169.504 238.727 169.807 238.102 170.393C237.477 170.988 237.105 171.692 236.998 172.502H243.502C243.395 171.643 243.043 170.92 242.447 170.354C241.852 169.787 241.139 169.504 240.299 169.504ZM255.094 173.205C255.094 172.17 254.742 171.291 254.059 170.578C253.375 169.865 252.545 169.504 251.588 169.504C250.631 169.504 249.801 169.865 249.117 170.578C248.434 171.291 248.092 172.16 248.092 173.195C248.092 174.231 248.434 175.1 249.117 175.822C249.801 176.545 250.631 176.897 251.588 176.897C252.545 176.897 253.375 176.545 254.059 175.832C254.742 175.119 255.094 174.24 255.094 173.205ZM246.695 173.205C246.695 171.799 247.164 170.617 248.121 169.651C249.078 168.684 250.23 168.195 251.598 168.195C252.955 168.195 254.107 168.684 255.055 169.651C256.012 170.617 256.48 171.799 256.48 173.205C256.48 174.611 256.012 175.793 255.055 176.76C254.107 177.717 252.955 178.205 251.598 178.205C250.23 178.205 249.078 177.717 248.121 176.76C247.164 175.793 246.695 174.611 246.695 173.205ZM269.703 178V173.801H264.205V178H262.809V168.401H264.205V172.502H269.703V168.401H271.109V178H269.703ZM276.412 172.502L280.113 171.897C280.113 171.193 279.889 170.617 279.439 170.168C278.99 169.729 278.414 169.504 277.711 169.504C277.203 169.504 276.725 169.621 276.275 169.856C275.826 170.09 275.504 170.324 275.309 170.559L275.006 170.901L274.107 170.002C274.146 169.953 274.195 169.885 274.264 169.807C274.332 169.729 274.479 169.582 274.713 169.377C274.947 169.172 275.191 168.986 275.445 168.82C275.699 168.664 276.031 168.518 276.441 168.391C276.852 168.264 277.281 168.195 277.711 168.195C278.805 168.195 279.703 168.557 280.426 169.26C281.148 169.973 281.51 170.852 281.51 171.897V178H280.113V176.701C280.084 176.74 280.045 176.799 279.986 176.867C279.928 176.936 279.811 177.053 279.615 177.229C279.42 177.404 279.215 177.551 279 177.688C278.775 177.824 278.482 177.942 278.121 178.039C277.76 178.147 277.389 178.195 277.008 178.195C276.051 178.195 275.24 177.912 274.586 177.346C273.932 176.779 273.609 176.135 273.609 175.402C273.609 174.602 273.844 173.957 274.332 173.469C274.811 172.981 275.504 172.658 276.412 172.502ZM277.008 176.897C277.906 176.897 278.648 176.604 279.234 176.008C279.82 175.422 280.113 174.651 280.113 173.703V173.098L276.812 173.703C275.611 173.938 275.006 174.504 275.006 175.402C275.006 175.832 275.182 176.193 275.533 176.477C275.885 176.76 276.383 176.897 277.008 176.897ZM293.307 171.496H293.404L297.604 163.996H299.312L294.107 173.098V178H292.604V173.098L287.408 163.996H289.107L293.307 171.496ZM307.301 173.205C307.301 172.17 306.949 171.291 306.266 170.578C305.582 169.865 304.752 169.504 303.795 169.504C302.838 169.504 302.008 169.865 301.324 170.578C300.641 171.291 300.299 172.16 300.299 173.195C300.299 174.231 300.641 175.1 301.324 175.822C302.008 176.545 302.838 176.897 303.795 176.897C304.752 176.897 305.582 176.545 306.266 175.832C306.949 175.119 307.301 174.24 307.301 173.205ZM298.902 173.205C298.902 171.799 299.371 170.617 300.328 169.651C301.285 168.684 302.438 168.195 303.805 168.195C305.162 168.195 306.314 168.684 307.262 169.651C308.219 170.617 308.688 171.799 308.688 173.205C308.688 174.611 308.219 175.793 307.262 176.76C306.314 177.717 305.162 178.205 303.805 178.205C302.438 178.205 301.285 177.717 300.328 176.76C299.371 175.793 298.902 174.611 298.902 173.205ZM318.199 178V176.701C318.17 176.74 318.131 176.799 318.082 176.867C318.023 176.936 317.906 177.053 317.711 177.229C317.516 177.404 317.311 177.551 317.096 177.688C316.871 177.824 316.578 177.942 316.217 178.039C315.855 178.147 315.484 178.195 315.104 178.195C313.98 178.195 313.053 177.815 312.311 177.033C311.568 176.252 311.207 175.246 311.207 173.996V168.401H312.604V173.996C312.604 174.836 312.857 175.529 313.385 176.076C313.902 176.623 314.537 176.897 315.299 176.897C316.109 176.897 316.793 176.604 317.359 175.998C317.916 175.402 318.199 174.641 318.199 173.703V168.401H319.605V178H318.199ZM321.803 163.996H332.105V165.402H327.701V178H326.207V165.402H321.803V163.996ZM339.996 178V176.701C339.967 176.74 339.928 176.799 339.879 176.867C339.82 176.936 339.703 177.053 339.508 177.229C339.312 177.404 339.107 177.551 338.893 177.688C338.668 177.824 338.375 177.942 338.014 178.039C337.652 178.147 337.281 178.195 336.9 178.195C335.777 178.195 334.85 177.815 334.107 177.033C333.365 176.252 333.004 175.246 333.004 173.996V168.401H334.4V173.996C334.4 174.836 334.654 175.529 335.182 176.076C335.699 176.623 336.334 176.897 337.096 176.897C337.906 176.897 338.59 176.604 339.156 175.998C339.713 175.402 339.996 174.641 339.996 173.703V168.401H341.402V178H339.996ZM346.197 173.205C346.197 174.192 346.539 175.051 347.242 175.793C347.945 176.535 348.727 176.897 349.596 176.897C350.416 176.897 351.158 176.545 351.812 175.822C352.467 175.1 352.799 174.231 352.799 173.205C352.799 172.18 352.467 171.311 351.812 170.588C351.158 169.865 350.416 169.504 349.596 169.504C348.727 169.504 347.945 169.875 347.242 170.617C346.539 171.359 346.197 172.219 346.197 173.205ZM346.197 163.996V169.914C346.217 169.875 346.266 169.807 346.334 169.729C346.402 169.651 346.539 169.514 346.754 169.318C346.969 169.123 347.193 168.947 347.447 168.791C347.691 168.635 348.004 168.498 348.395 168.381C348.785 168.264 349.186 168.205 349.596 168.205C350.816 168.205 351.891 168.693 352.809 169.68C353.727 170.656 354.195 171.838 354.195 173.205C354.195 174.572 353.736 175.754 352.818 176.731C351.9 177.707 350.826 178.195 349.596 178.195C349.186 178.195 348.785 178.137 348.404 178.02C348.023 177.902 347.701 177.766 347.447 177.6C347.184 177.443 346.959 177.277 346.764 177.111C346.568 176.945 346.432 176.799 346.344 176.682L346.197 176.496V178H344.801V163.996H346.197ZM365.191 173.723L357.389 173.703C357.438 174.572 357.789 175.324 358.453 175.949C359.117 176.584 359.889 176.897 360.787 176.897C361.383 176.897 361.939 176.77 362.457 176.496C362.965 176.233 363.336 175.969 363.551 175.695L363.893 175.305L364.791 176.203C364.752 176.262 364.693 176.33 364.615 176.428C364.537 176.526 364.381 176.682 364.127 176.906C363.873 177.131 363.609 177.326 363.316 177.502C363.023 177.678 362.652 177.834 362.193 177.981C361.734 178.127 361.266 178.195 360.787 178.195C359.479 178.195 358.346 177.717 357.408 176.74C356.461 175.764 355.992 174.582 355.992 173.195C355.992 171.809 356.451 170.637 357.389 169.66C358.326 168.684 359.42 168.195 360.689 168.195C361.998 168.195 363.092 168.654 363.971 169.563C364.85 170.471 365.289 171.613 365.289 173L365.191 173.723ZM360.689 169.504C359.85 169.504 359.117 169.807 358.492 170.393C357.867 170.988 357.496 171.692 357.389 172.502H363.893C363.785 171.643 363.434 170.92 362.838 170.354C362.242 169.787 361.529 169.504 360.689 169.504ZM378.795 168.401H379.996V178H378.59V170.803L372.789 178H371.598V168.401H372.994V175.598L378.795 168.401ZM385.807 169.699V168.401H394V169.699H390.602V178H389.205V169.699H385.807ZM394.4 177.199C394.4 176.906 394.488 176.672 394.664 176.486C394.84 176.301 395.084 176.203 395.387 176.203C395.699 176.203 395.943 176.301 396.119 176.486C396.295 176.672 396.383 176.906 396.383 177.199C396.383 177.492 396.295 177.736 396.119 177.922C395.943 178.108 395.699 178.195 395.387 178.195C395.084 178.195 394.84 178.108 394.664 177.922C394.488 177.736 394.4 177.492 394.4 177.199ZM411.705 176.701V180.402H410.309V178H402.604V180.402H401.207V176.701H401.9C401.939 176.662 401.998 176.604 402.076 176.506C402.154 176.408 402.301 176.193 402.496 175.861C402.691 175.529 402.857 175.178 403.014 174.787C403.17 174.397 403.307 173.879 403.424 173.234C403.541 172.59 403.609 171.906 403.609 171.203V168.401H410.201V176.701H411.705ZM405.006 169.699L404.996 171.203C404.996 172.297 404.869 173.303 404.596 174.211C404.332 175.129 404.068 175.774 403.805 176.145L403.404 176.701H408.805V169.699H405.006ZM413.502 177.199C413.502 176.906 413.59 176.672 413.766 176.486C413.941 176.301 414.186 176.203 414.488 176.203C414.801 176.203 415.045 176.301 415.221 176.486C415.396 176.672 415.484 176.906 415.484 177.199C415.484 177.492 415.396 177.736 415.221 177.922C415.045 178.108 414.801 178.195 414.488 178.195C414.186 178.195 413.941 178.108 413.766 177.922C413.59 177.736 413.502 177.492 413.502 177.199ZM433.902 171.496V172.805H421.305V171.496H433.902ZM91.5 200.401L98.502 200.41V210.01H97.0957V201.709H92.8965V203.213C92.8965 204.619 92.8184 205.801 92.6816 206.738C92.5449 207.676 92.3301 208.399 92.0566 208.887C91.7734 209.375 91.4609 209.717 91.1289 209.912C90.7871 210.108 90.377 210.205 89.8984 210.205C89.7324 210.205 89.5664 210.186 89.4004 210.156C89.2344 210.117 89.1172 210.088 89.0391 210.049L88.9023 210.01V208.613C89.166 208.74 89.4297 208.809 89.7031 208.809C90.1133 208.809 90.4355 208.692 90.6699 208.457C90.9043 208.223 91.0996 207.676 91.2559 206.836C91.4121 205.986 91.5 204.776 91.5 203.203V200.401ZM114.791 205.195C114.791 206.582 114.312 207.764 113.365 208.74C112.418 209.717 111.295 210.195 109.986 210.195C108.766 210.195 107.701 209.776 106.783 208.916C105.865 208.067 105.338 207.031 105.182 205.801H103.082V210H101.686V200.401H103.082V204.502H105.182C105.348 203.33 105.885 202.324 106.793 201.475C107.691 200.625 108.766 200.195 109.996 200.195C111.305 200.195 112.428 200.684 113.375 201.66C114.312 202.637 114.791 203.809 114.791 205.195ZM106.578 205.205C106.578 206.24 106.92 207.119 107.594 207.832C108.268 208.545 109.068 208.897 109.986 208.897C110.904 208.897 111.705 208.545 112.379 207.832C113.053 207.119 113.385 206.24 113.385 205.205C113.385 204.17 113.053 203.291 112.379 202.578C111.705 201.865 110.904 201.504 109.986 201.504C109.068 201.504 108.268 201.865 107.594 202.578C106.92 203.291 106.578 204.17 106.578 205.205ZM126.393 205.401C126.393 206.748 125.934 207.891 125.025 208.809C124.107 209.736 123.004 210.195 121.695 210.195C120.279 210.195 119.127 209.658 118.238 208.584C117.34 207.51 116.9 205.977 116.9 204.004C116.9 199.59 118.531 197.09 121.793 196.504C122.496 196.387 123.131 196.24 123.688 196.045C124.234 195.859 124.605 195.703 124.801 195.576L125.094 195.401L125.797 196.504C125.26 196.973 123.99 197.412 121.998 197.803C120.943 198.018 120.084 198.526 119.439 199.307C118.795 200.088 118.443 201.152 118.395 202.5C118.414 202.451 118.463 202.383 118.521 202.295C118.58 202.207 118.717 202.061 118.922 201.846C119.127 201.631 119.352 201.445 119.605 201.27C119.85 201.104 120.172 200.947 120.562 200.811C120.953 200.674 121.363 200.596 121.793 200.596C123.062 200.596 124.146 201.065 125.045 202.002C125.943 202.94 126.393 204.072 126.393 205.401ZM118.395 205.401C118.395 206.397 118.717 207.227 119.361 207.891C120.006 208.565 120.787 208.897 121.695 208.897C122.594 208.897 123.375 208.565 124.02 207.891C124.664 207.227 124.996 206.397 124.996 205.401C124.996 204.414 124.664 203.584 124.02 202.91C123.375 202.246 122.594 201.904 121.695 201.904C120.787 201.904 120.006 202.246 119.361 202.91C118.717 203.584 118.395 204.414 118.395 205.401ZM131.1 204.502L134.801 203.897C134.801 203.193 134.576 202.617 134.127 202.168C133.678 201.729 133.102 201.504 132.398 201.504C131.891 201.504 131.412 201.621 130.963 201.856C130.514 202.09 130.191 202.324 129.996 202.559L129.693 202.901L128.795 202.002C128.834 201.953 128.883 201.885 128.951 201.807C129.02 201.729 129.166 201.582 129.4 201.377C129.635 201.172 129.879 200.986 130.133 200.82C130.387 200.664 130.719 200.518 131.129 200.391C131.539 200.264 131.969 200.195 132.398 200.195C133.492 200.195 134.391 200.557 135.113 201.26C135.836 201.973 136.197 202.852 136.197 203.897V210H134.801V208.701C134.771 208.74 134.732 208.799 134.674 208.867C134.615 208.936 134.498 209.053 134.303 209.229C134.107 209.404 133.902 209.551 133.688 209.688C133.463 209.824 133.17 209.942 132.809 210.039C132.447 210.147 132.076 210.195 131.695 210.195C130.738 210.195 129.928 209.912 129.273 209.346C128.619 208.779 128.297 208.135 128.297 207.402C128.297 206.602 128.531 205.957 129.02 205.469C129.498 204.981 130.191 204.658 131.1 204.502ZM131.695 208.897C132.594 208.897 133.336 208.604 133.922 208.008C134.508 207.422 134.801 206.651 134.801 205.703V205.098L131.5 205.703C130.299 205.938 129.693 206.504 129.693 207.402C129.693 207.832 129.869 208.193 130.221 208.477C130.572 208.76 131.07 208.897 131.695 208.897ZM138.785 203.604C138.785 202.686 139.107 201.924 139.752 201.318C140.396 200.713 141.246 200.401 142.291 200.401H146.383V210H144.986V206.797H142.184L140.191 210H138.59L140.787 206.504C140.729 206.494 140.66 206.475 140.562 206.436C140.465 206.397 140.309 206.309 140.084 206.172C139.85 206.035 139.654 205.859 139.479 205.664C139.303 205.469 139.146 205.186 139 204.834C138.854 204.473 138.785 204.063 138.785 203.604ZM144.986 201.699L142.291 201.709C141.646 201.709 141.139 201.885 140.758 202.236C140.377 202.588 140.191 203.047 140.191 203.604C140.191 204.17 140.377 204.619 140.758 204.971C141.129 205.322 141.646 205.498 142.291 205.498H144.986V201.699ZM160.289 210V201.719H154.791V210H153.395V200.401H161.695V210H160.289ZM173.395 205.723L165.592 205.703C165.641 206.572 165.992 207.324 166.656 207.949C167.32 208.584 168.092 208.897 168.99 208.897C169.586 208.897 170.143 208.77 170.66 208.496C171.168 208.233 171.539 207.969 171.754 207.695L172.096 207.305L172.994 208.203C172.955 208.262 172.896 208.33 172.818 208.428C172.74 208.526 172.584 208.682 172.33 208.906C172.076 209.131 171.812 209.326 171.52 209.502C171.227 209.678 170.855 209.834 170.396 209.981C169.938 210.127 169.469 210.195 168.99 210.195C167.682 210.195 166.549 209.717 165.611 208.74C164.664 207.764 164.195 206.582 164.195 205.195C164.195 203.809 164.654 202.637 165.592 201.66C166.529 200.684 167.623 200.195 168.893 200.195C170.201 200.195 171.295 200.654 172.174 201.563C173.053 202.471 173.492 203.613 173.492 205L173.395 205.723ZM168.893 201.504C168.053 201.504 167.32 201.807 166.695 202.393C166.07 202.988 165.699 203.692 165.592 204.502H172.096C171.988 203.643 171.637 202.92 171.041 202.354C170.445 201.787 169.732 201.504 168.893 201.504ZM177.389 205.205C177.389 206.192 177.73 207.051 178.434 207.793C179.137 208.535 179.918 208.897 180.787 208.897C181.607 208.897 182.35 208.545 183.004 207.822C183.658 207.1 183.99 206.231 183.99 205.205C183.99 204.18 183.658 203.311 183.004 202.588C182.35 201.865 181.607 201.504 180.787 201.504C179.918 201.504 179.137 201.875 178.434 202.617C177.73 203.359 177.389 204.219 177.389 205.205ZM177.389 208.496V214.209H175.992V200.41H177.389V201.914C177.408 201.875 177.457 201.807 177.525 201.729C177.594 201.651 177.73 201.514 177.945 201.318C178.16 201.123 178.385 200.947 178.639 200.791C178.883 200.635 179.195 200.498 179.586 200.381C179.977 200.264 180.377 200.205 180.787 200.205C182.008 200.205 183.082 200.693 184 201.68C184.918 202.656 185.387 203.838 185.387 205.205C185.387 206.572 184.928 207.754 184.01 208.731C183.092 209.707 182.018 210.195 180.787 210.195C180.377 210.195 179.977 210.137 179.596 210.02C179.215 209.902 178.893 209.766 178.639 209.6C178.375 209.443 178.15 209.277 177.955 209.111C177.76 208.945 177.623 208.799 177.525 208.682L177.389 208.496ZM196.383 205.723L188.58 205.703C188.629 206.572 188.98 207.324 189.645 207.949C190.309 208.584 191.08 208.897 191.979 208.897C192.574 208.897 193.131 208.77 193.648 208.496C194.156 208.233 194.527 207.969 194.742 207.695L195.084 207.305L195.982 208.203C195.943 208.262 195.885 208.33 195.807 208.428C195.729 208.526 195.572 208.682 195.318 208.906C195.064 209.131 194.801 209.326 194.508 209.502C194.215 209.678 193.844 209.834 193.385 209.981C192.926 210.127 192.457 210.195 191.979 210.195C190.67 210.195 189.537 209.717 188.6 208.74C187.652 207.764 187.184 206.582 187.184 205.195C187.184 203.809 187.643 202.637 188.58 201.66C189.518 200.684 190.611 200.195 191.881 200.195C193.189 200.195 194.283 200.654 195.162 201.563C196.041 202.471 196.48 203.613 196.48 205L196.383 205.723ZM191.881 201.504C191.041 201.504 190.309 201.807 189.684 202.393C189.059 202.988 188.688 203.692 188.58 204.502H195.084C194.977 203.643 194.625 202.92 194.029 202.354C193.434 201.787 192.721 201.504 191.881 201.504ZM207.877 208.701V212.402H206.48V210H198.775V212.402H197.379V208.701H198.072C198.111 208.662 198.17 208.604 198.248 208.506C198.326 208.408 198.473 208.193 198.668 207.861C198.863 207.529 199.029 207.178 199.186 206.787C199.342 206.397 199.479 205.879 199.596 205.234C199.713 204.59 199.781 203.906 199.781 203.203V200.401H206.373V208.701H207.877ZM201.178 201.699L201.168 203.203C201.168 204.297 201.041 205.303 200.768 206.211C200.504 207.129 200.24 207.774 199.977 208.145L199.576 208.701H204.977V201.699H201.178ZM212.174 204.502L215.875 203.897C215.875 203.193 215.65 202.617 215.201 202.168C214.752 201.729 214.176 201.504 213.473 201.504C212.965 201.504 212.486 201.621 212.037 201.856C211.588 202.09 211.266 202.324 211.07 202.559L210.768 202.901L209.869 202.002C209.908 201.953 209.957 201.885 210.025 201.807C210.094 201.729 210.24 201.582 210.475 201.377C210.709 201.172 210.953 200.986 211.207 200.82C211.461 200.664 211.793 200.518 212.203 200.391C212.613 200.264 213.043 200.195 213.473 200.195C214.566 200.195 215.465 200.557 216.188 201.26C216.91 201.973 217.271 202.852 217.271 203.897V210H215.875V208.701C215.846 208.74 215.807 208.799 215.748 208.867C215.689 208.936 215.572 209.053 215.377 209.229C215.182 209.404 214.977 209.551 214.762 209.688C214.537 209.824 214.244 209.942 213.883 210.039C213.521 210.147 213.15 210.195 212.77 210.195C211.812 210.195 211.002 209.912 210.348 209.346C209.693 208.779 209.371 208.135 209.371 207.402C209.371 206.602 209.605 205.957 210.094 205.469C210.572 204.981 211.266 204.658 212.174 204.502ZM212.77 208.897C213.668 208.897 214.41 208.604 214.996 208.008C215.582 207.422 215.875 206.651 215.875 205.703V205.098L212.574 205.703C211.373 205.938 210.768 206.504 210.768 207.402C210.768 207.832 210.943 208.193 211.295 208.477C211.646 208.76 212.145 208.897 212.77 208.897ZM226.656 210V206.104C225.914 206.641 225.016 206.904 223.961 206.904C222.867 206.904 221.969 206.563 221.285 205.879C220.602 205.195 220.26 204.297 220.26 203.203V200.401H221.656V203.203C221.656 203.897 221.881 204.473 222.33 204.922C222.779 205.371 223.355 205.596 224.059 205.596C224.537 205.596 224.996 205.527 225.426 205.381C225.855 205.234 226.168 205.078 226.363 204.922L226.656 204.697V200.401H228.062V210H226.656ZM233.365 204.502L237.066 203.897C237.066 203.193 236.842 202.617 236.393 202.168C235.943 201.729 235.367 201.504 234.664 201.504C234.156 201.504 233.678 201.621 233.229 201.856C232.779 202.09 232.457 202.324 232.262 202.559L231.959 202.901L231.061 202.002C231.1 201.953 231.148 201.885 231.217 201.807C231.285 201.729 231.432 201.582 231.666 201.377C231.9 201.172 232.145 200.986 232.398 200.82C232.652 200.664 232.984 200.518 233.395 200.391C233.805 200.264 234.234 200.195 234.664 200.195C235.758 200.195 236.656 200.557 237.379 201.26C238.102 201.973 238.463 202.852 238.463 203.897V210H237.066V208.701C237.037 208.74 236.998 208.799 236.939 208.867C236.881 208.936 236.764 209.053 236.568 209.229C236.373 209.404 236.168 209.551 235.953 209.688C235.729 209.824 235.436 209.942 235.074 210.039C234.713 210.147 234.342 210.195 233.961 210.195C233.004 210.195 232.193 209.912 231.539 209.346C230.885 208.779 230.562 208.135 230.562 207.402C230.562 206.602 230.797 205.957 231.285 205.469C231.764 204.981 232.457 204.658 233.365 204.502ZM233.961 208.897C234.859 208.897 235.602 208.604 236.188 208.008C236.773 207.422 237.066 206.651 237.066 205.703V205.098L233.766 205.703C232.564 205.938 231.959 206.504 231.959 207.402C231.959 207.832 232.135 208.193 232.486 208.477C232.838 208.76 233.336 208.897 233.961 208.897ZM254.361 208.701V212.402H252.965V210H245.26V212.402H243.863V208.701H244.557C244.596 208.662 244.654 208.604 244.732 208.506C244.811 208.408 244.957 208.193 245.152 207.861C245.348 207.529 245.514 207.178 245.67 206.787C245.826 206.397 245.963 205.879 246.08 205.234C246.197 204.59 246.266 203.906 246.266 203.203V200.401H252.857V208.701H254.361ZM247.662 201.699L247.652 203.203C247.652 204.297 247.525 205.303 247.252 206.211C246.988 207.129 246.725 207.774 246.461 208.145L246.061 208.701H251.461V201.699H247.662ZM258.658 204.502L262.359 203.897C262.359 203.193 262.135 202.617 261.686 202.168C261.236 201.729 260.66 201.504 259.957 201.504C259.449 201.504 258.971 201.621 258.521 201.856C258.072 202.09 257.75 202.324 257.555 202.559L257.252 202.901L256.354 202.002C256.393 201.953 256.441 201.885 256.51 201.807C256.578 201.729 256.725 201.582 256.959 201.377C257.193 201.172 257.438 200.986 257.691 200.82C257.945 200.664 258.277 200.518 258.688 200.391C259.098 200.264 259.527 200.195 259.957 200.195C261.051 200.195 261.949 200.557 262.672 201.26C263.395 201.973 263.756 202.852 263.756 203.897V210H262.359V208.701C262.33 208.74 262.291 208.799 262.232 208.867C262.174 208.936 262.057 209.053 261.861 209.229C261.666 209.404 261.461 209.551 261.246 209.688C261.021 209.824 260.729 209.942 260.367 210.039C260.006 210.147 259.635 210.195 259.254 210.195C258.297 210.195 257.486 209.912 256.832 209.346C256.178 208.779 255.855 208.135 255.855 207.402C255.855 206.602 256.09 205.957 256.578 205.469C257.057 204.981 257.75 204.658 258.658 204.502ZM259.254 208.897C260.152 208.897 260.895 208.604 261.48 208.008C262.066 207.422 262.359 206.651 262.359 205.703V205.098L259.059 205.703C257.857 205.938 257.252 206.504 257.252 207.402C257.252 207.832 257.428 208.193 257.779 208.477C258.131 208.76 258.629 208.897 259.254 208.897ZM273.844 210V205.801H268.346V210H266.949V200.401H268.346V204.502H273.844V200.401H275.25V210H273.844ZM285.348 210V205.801H279.85V210H278.453V200.401H279.85V204.502H285.348V200.401H286.754V210H285.348ZM300.455 200.401V210H299.049V200.401H300.455ZM291.354 208.701H293.775C294.4 208.701 294.898 208.526 295.279 208.174C295.66 207.822 295.855 207.363 295.855 206.797C295.855 206.24 295.66 205.781 295.279 205.43C294.898 205.078 294.391 204.902 293.756 204.902H291.354V208.701ZM297.252 206.807C297.252 207.764 296.939 208.535 296.324 209.121C295.699 209.707 294.85 210 293.775 210H289.957V200.401H291.354V203.604H293.756C294.83 203.604 295.689 203.897 296.314 204.483C296.939 205.068 297.252 205.85 297.252 206.807ZM306.842 206.104L304.049 210H302.34L305.943 205L302.643 200.401H304.342L306.842 203.897L309.342 200.401H311.041L307.74 205L311.344 210H309.645L306.842 206.104ZM323.961 210V201.719H318.463V210H317.066V200.401H325.367V210H323.961ZM336.266 205.205C336.266 204.17 335.914 203.291 335.23 202.578C334.547 201.865 333.717 201.504 332.76 201.504C331.803 201.504 330.973 201.865 330.289 202.578C329.605 203.291 329.264 204.16 329.264 205.195C329.264 206.231 329.605 207.1 330.289 207.822C330.973 208.545 331.803 208.897 332.76 208.897C333.717 208.897 334.547 208.545 335.23 207.832C335.914 207.119 336.266 206.24 336.266 205.205ZM327.867 205.205C327.867 203.799 328.336 202.617 329.293 201.651C330.25 200.684 331.402 200.195 332.77 200.195C334.127 200.195 335.279 200.684 336.227 201.651C337.184 202.617 337.652 203.799 337.652 205.205C337.652 206.611 337.184 207.793 336.227 208.76C335.279 209.717 334.127 210.205 332.77 210.205C331.402 210.205 330.25 209.717 329.293 208.76C328.336 207.793 327.867 206.611 327.867 205.205ZM343.277 205.195C343.277 203.809 343.746 202.637 344.693 201.66C345.641 200.684 346.764 200.195 348.062 200.195C348.814 200.195 349.518 200.361 350.162 200.684C350.807 201.006 351.275 201.328 351.549 201.641L351.969 202.1L350.963 203.096C350.943 203.057 350.904 203.008 350.846 202.93C350.797 202.861 350.68 202.734 350.504 202.539C350.328 202.354 350.133 202.188 349.928 202.051C349.713 201.914 349.449 201.787 349.117 201.67C348.785 201.563 348.434 201.504 348.072 201.504C347.154 201.504 346.354 201.865 345.68 202.578C345.006 203.291 344.674 204.17 344.674 205.205C344.674 206.24 345.006 207.119 345.68 207.832C346.354 208.545 347.154 208.897 348.072 208.897C348.629 208.897 349.156 208.77 349.664 208.496C350.162 208.233 350.523 207.969 350.748 207.695L351.07 207.305L352.066 208.203C352.027 208.262 351.969 208.33 351.891 208.428C351.812 208.526 351.637 208.682 351.373 208.906C351.119 209.131 350.846 209.326 350.553 209.502C350.27 209.678 349.898 209.834 349.449 209.981C349 210.127 348.541 210.195 348.072 210.195C346.764 210.195 345.631 209.717 344.693 208.74C343.746 207.764 343.277 206.582 343.277 205.195ZM362.77 205.723L354.967 205.703C355.016 206.572 355.367 207.324 356.031 207.949C356.695 208.584 357.467 208.897 358.365 208.897C358.961 208.897 359.518 208.77 360.035 208.496C360.543 208.233 360.914 207.969 361.129 207.695L361.471 207.305L362.369 208.203C362.33 208.262 362.271 208.33 362.193 208.428C362.115 208.526 361.959 208.682 361.705 208.906C361.451 209.131 361.188 209.326 360.895 209.502C360.602 209.678 360.23 209.834 359.771 209.981C359.312 210.127 358.844 210.195 358.365 210.195C357.057 210.195 355.924 209.717 354.986 208.74C354.039 207.764 353.57 206.582 353.57 205.195C353.57 203.809 354.029 202.637 354.967 201.66C355.904 200.684 356.998 200.195 358.268 200.195C359.576 200.195 360.67 200.654 361.549 201.563C362.428 202.471 362.867 203.613 362.867 205L362.77 205.723ZM358.268 201.504C357.428 201.504 356.695 201.807 356.07 202.393C355.445 202.988 355.074 203.692 354.967 204.502H361.471C361.363 203.643 361.012 202.92 360.416 202.354C359.82 201.787 359.107 201.504 358.268 201.504ZM364.166 201.699V200.401H372.359V201.699H368.961V210H367.564V201.699H364.166ZM381.568 200.401H382.77V210H381.363V202.803L375.562 210H374.371V200.401H375.768V207.598L381.568 200.401ZM398.18 202.901L394.674 207.305L391.178 202.901V210H389.781V200.401H390.875L394.674 205.195L398.473 200.401H399.576V210H398.18V202.901ZM411.285 205.723L403.482 205.703C403.531 206.572 403.883 207.324 404.547 207.949C405.211 208.584 405.982 208.897 406.881 208.897C407.477 208.897 408.033 208.77 408.551 208.496C409.059 208.233 409.43 207.969 409.645 207.695L409.986 207.305L410.885 208.203C410.846 208.262 410.787 208.33 410.709 208.428C410.631 208.526 410.475 208.682 410.221 208.906C409.967 209.131 409.703 209.326 409.41 209.502C409.117 209.678 408.746 209.834 408.287 209.981C407.828 210.127 407.359 210.195 406.881 210.195C405.572 210.195 404.439 209.717 403.502 208.74C402.555 207.764 402.086 206.582 402.086 205.195C402.086 203.809 402.545 202.637 403.482 201.66C404.42 200.684 405.514 200.195 406.783 200.195C408.092 200.195 409.186 200.654 410.064 201.563C410.943 202.471 411.383 203.613 411.383 205L411.285 205.723ZM406.783 201.504C405.943 201.504 405.211 201.807 404.586 202.393C403.961 202.988 403.59 203.692 403.482 204.502H409.986C409.879 203.643 409.527 202.92 408.932 202.354C408.336 201.787 407.623 201.504 406.783 201.504ZM418.883 206.797L417.477 205.303L414.078 210H412.477L416.578 204.297L412.877 200.401H414.576L418.883 205V200.401H420.279V205L424.576 200.401H426.275L422.574 204.297L426.676 210H425.074L421.676 205.303L420.279 206.797V210H418.883V206.797ZM437.389 208.701V212.402H435.992V210H428.287V212.402H426.891V208.701H427.584C427.623 208.662 427.682 208.604 427.76 208.506C427.838 208.408 427.984 208.193 428.18 207.861C428.375 207.529 428.541 207.178 428.697 206.787C428.854 206.397 428.99 205.879 429.107 205.234C429.225 204.59 429.293 203.906 429.293 203.203V200.401H435.885V208.701H437.389ZM430.689 201.699L430.68 203.203C430.68 204.297 430.553 205.303 430.279 206.211C430.016 207.129 429.752 207.774 429.488 208.145L429.088 208.701H434.488V201.699H430.689ZM441.686 211.397L442.184 210L438.277 200.401H439.781L442.887 208.203L445.982 200.401H447.486L443.082 211.397C442.682 212.412 442.252 213.135 441.803 213.565C441.344 213.994 440.768 214.199 440.074 214.199C439.859 214.199 439.654 214.19 439.459 214.151C439.264 214.121 439.107 214.082 439.01 214.043L438.873 214.004V212.695C439.205 212.832 439.537 212.901 439.869 212.901C440.719 212.901 441.324 212.402 441.686 211.397ZM92.6035 243.397L93.1016 242L89.1953 232.401H90.6992L93.8047 240.203L96.9004 232.401H98.4043L94 243.397C93.5996 244.412 93.1699 245.135 92.7207 245.565C92.2617 245.994 91.6855 246.199 90.9922 246.199C90.7773 246.199 90.5723 246.19 90.377 246.151C90.1816 246.121 90.0254 246.082 89.9277 246.043L89.791 246.004V244.695C90.123 244.832 90.4551 244.901 90.7871 244.901C91.6367 244.901 92.2422 244.402 92.6035 243.397ZM99.6055 237.195C99.6055 235.809 100.074 234.637 101.021 233.66C101.969 232.684 103.092 232.195 104.391 232.195C105.143 232.195 105.846 232.361 106.49 232.684C107.135 233.006 107.604 233.328 107.877 233.641L108.297 234.1L107.291 235.096C107.271 235.057 107.232 235.008 107.174 234.93C107.125 234.861 107.008 234.734 106.832 234.539C106.656 234.354 106.461 234.188 106.256 234.051C106.041 233.914 105.777 233.787 105.445 233.67C105.113 233.563 104.762 233.504 104.4 233.504C103.482 233.504 102.682 233.865 102.008 234.578C101.334 235.291 101.002 236.17 101.002 237.205C101.002 238.24 101.334 239.119 102.008 239.832C102.682 240.545 103.482 240.897 104.4 240.897C104.957 240.897 105.484 240.77 105.992 240.496C106.49 240.233 106.852 239.969 107.076 239.695L107.398 239.305L108.395 240.203C108.355 240.262 108.297 240.33 108.219 240.428C108.141 240.526 107.965 240.682 107.701 240.906C107.447 241.131 107.174 241.326 106.881 241.502C106.598 241.678 106.227 241.834 105.777 241.981C105.328 242.127 104.869 242.195 104.4 242.195C103.092 242.195 101.959 241.717 101.021 240.74C100.074 239.764 99.6055 238.582 99.6055 237.195ZM109.4 233.699V232.401H117.594V233.699H114.195V242H112.799V233.699H109.4ZM121.002 237.205C121.002 238.192 121.344 239.051 122.047 239.793C122.75 240.535 123.531 240.897 124.4 240.897C125.221 240.897 125.963 240.545 126.617 239.822C127.271 239.1 127.604 238.231 127.604 237.205C127.604 236.18 127.271 235.311 126.617 234.588C125.963 233.865 125.221 233.504 124.4 233.504C123.531 233.504 122.75 233.875 122.047 234.617C121.344 235.359 121.002 236.219 121.002 237.205ZM121.002 240.496V246.209H119.605V232.41H121.002V233.914C121.021 233.875 121.07 233.807 121.139 233.729C121.207 233.651 121.344 233.514 121.559 233.318C121.773 233.123 121.998 232.947 122.252 232.791C122.496 232.635 122.809 232.498 123.199 232.381C123.59 232.264 123.99 232.205 124.4 232.205C125.621 232.205 126.695 232.693 127.613 233.68C128.531 234.656 129 235.838 129 237.205C129 238.572 128.541 239.754 127.623 240.731C126.705 241.707 125.631 242.195 124.4 242.195C123.99 242.195 123.59 242.137 123.209 242.02C122.828 241.902 122.506 241.766 122.252 241.6C121.988 241.443 121.764 241.277 121.568 241.111C121.373 240.945 121.236 240.799 121.139 240.682L121.002 240.496ZM139.195 237.205C139.195 236.17 138.844 235.291 138.16 234.578C137.477 233.865 136.646 233.504 135.689 233.504C134.732 233.504 133.902 233.865 133.219 234.578C132.535 235.291 132.193 236.16 132.193 237.195C132.193 238.231 132.535 239.1 133.219 239.822C133.902 240.545 134.732 240.897 135.689 240.897C136.646 240.897 137.477 240.545 138.16 239.832C138.844 239.119 139.195 238.24 139.195 237.205ZM130.797 237.205C130.797 235.799 131.266 234.617 132.223 233.651C133.18 232.684 134.332 232.195 135.699 232.195C137.057 232.195 138.209 232.684 139.156 233.651C140.113 234.617 140.582 235.799 140.582 237.205C140.582 238.611 140.113 239.793 139.156 240.76C138.209 241.717 137.057 242.205 135.699 242.205C134.332 242.205 133.18 241.717 132.223 240.76C131.266 239.793 130.797 238.611 130.797 237.205ZM147.301 229.695C147.809 229.695 148.199 229.549 148.482 229.256C148.756 228.963 148.902 228.543 148.902 227.996H149.996C149.996 228.797 149.742 229.451 149.244 229.949C148.746 230.457 148.102 230.701 147.301 230.701C146.5 230.701 145.846 230.457 145.348 229.949C144.84 229.451 144.596 228.797 144.596 227.996H145.699C145.699 228.543 145.836 228.963 146.119 229.256C146.393 229.549 146.793 229.695 147.301 229.695ZM150.299 232.401H151.5V242H150.094V234.803L144.293 242H143.102V232.401H144.498V239.598L150.299 232.401ZM154 237.195C154 235.809 154.469 234.637 155.416 233.66C156.363 232.684 157.486 232.195 158.785 232.195C159.537 232.195 160.24 232.361 160.885 232.684C161.529 233.006 161.998 233.328 162.271 233.641L162.691 234.1L161.686 235.096C161.666 235.057 161.627 235.008 161.568 234.93C161.52 234.861 161.402 234.734 161.227 234.539C161.051 234.354 160.855 234.188 160.65 234.051C160.436 233.914 160.172 233.787 159.84 233.67C159.508 233.563 159.156 233.504 158.795 233.504C157.877 233.504 157.076 233.865 156.402 234.578C155.729 235.291 155.396 236.17 155.396 237.205C155.396 238.24 155.729 239.119 156.402 239.832C157.076 240.545 157.877 240.897 158.795 240.897C159.352 240.897 159.879 240.77 160.387 240.496C160.885 240.233 161.246 239.969 161.471 239.695L161.793 239.305L162.789 240.203C162.75 240.262 162.691 240.33 162.613 240.428C162.535 240.526 162.359 240.682 162.096 240.906C161.842 241.131 161.568 241.326 161.275 241.502C160.992 241.678 160.621 241.834 160.172 241.981C159.723 242.127 159.264 242.195 158.795 242.195C157.486 242.195 156.354 241.717 155.416 240.74C154.469 239.764 154 238.582 154 237.195ZM163.795 233.699V232.401H171.988V233.699H168.59V242H167.193V233.699H163.795ZM174 232.401H178.395C179.273 232.401 179.977 232.645 180.504 233.113C181.031 233.582 181.295 234.178 181.295 234.901C181.295 235.311 181.188 235.692 180.992 236.024C180.797 236.356 180.592 236.59 180.396 236.717L180.094 236.902C180.133 236.922 180.182 236.942 180.26 236.961C180.338 236.99 180.465 237.059 180.65 237.176C180.836 237.293 181.002 237.42 181.139 237.576C181.275 237.733 181.402 237.947 181.52 238.231C181.637 238.524 181.695 238.846 181.695 239.197C181.695 240.067 181.422 240.75 180.885 241.248C180.338 241.756 179.576 242 178.6 242H174V232.401ZM178.6 237.498H175.396V240.701H178.6C179.146 240.701 179.566 240.565 179.859 240.281C180.152 240.008 180.299 239.608 180.299 239.1C180.299 238.592 180.152 238.201 179.859 237.918C179.566 237.645 179.146 237.498 178.6 237.498ZM179.898 234.998C179.898 234.139 179.391 233.699 178.395 233.699H175.396V236.297H178.395C179.391 236.297 179.898 235.867 179.898 234.998ZM186.49 236.502L190.191 235.897C190.191 235.193 189.967 234.617 189.518 234.168C189.068 233.729 188.492 233.504 187.789 233.504C187.281 233.504 186.803 233.621 186.354 233.856C185.904 234.09 185.582 234.324 185.387 234.559L185.084 234.901L184.186 234.002C184.225 233.953 184.273 233.885 184.342 233.807C184.41 233.729 184.557 233.582 184.791 233.377C185.025 233.172 185.27 232.986 185.523 232.82C185.777 232.664 186.109 232.518 186.52 232.391C186.93 232.264 187.359 232.195 187.789 232.195C188.883 232.195 189.781 232.557 190.504 233.26C191.227 233.973 191.588 234.852 191.588 235.897V242H190.191V240.701C190.162 240.74 190.123 240.799 190.064 240.867C190.006 240.936 189.889 241.053 189.693 241.229C189.498 241.404 189.293 241.551 189.078 241.688C188.854 241.824 188.561 241.942 188.199 242.039C187.838 242.147 187.467 242.195 187.086 242.195C186.129 242.195 185.318 241.912 184.664 241.346C184.01 240.779 183.688 240.135 183.688 239.402C183.688 238.602 183.922 237.957 184.41 237.469C184.889 236.981 185.582 236.658 186.49 236.502ZM187.086 240.897C187.984 240.897 188.727 240.604 189.312 240.008C189.898 239.422 190.191 238.651 190.191 237.703V237.098L186.891 237.703C185.689 237.938 185.084 238.504 185.084 239.402C185.084 239.832 185.26 240.193 185.611 240.477C185.963 240.76 186.461 240.897 187.086 240.897ZM203.18 234.901L199.674 239.305L196.178 234.901V242H194.781V232.401H195.875L199.674 237.195L203.473 232.401H204.576V242H203.18V234.901ZM214.986 232.401H216.188V242H214.781V234.803L208.98 242H207.789V232.401H209.186V239.598L214.986 232.401ZM230.396 232.401H231.598V242H230.191V234.803L224.391 242H223.199V232.401H224.596V239.598L230.396 232.401ZM235.797 232.401L242.799 232.41V242.01H241.393V233.709H237.193V235.213C237.193 236.619 237.115 237.801 236.979 238.738C236.842 239.676 236.627 240.399 236.354 240.887C236.07 241.375 235.758 241.717 235.426 241.912C235.084 242.108 234.674 242.205 234.195 242.205C234.029 242.205 233.863 242.186 233.697 242.156C233.531 242.117 233.414 242.088 233.336 242.049L233.199 242.01V240.613C233.463 240.74 233.727 240.809 234 240.809C234.41 240.809 234.732 240.692 234.967 240.457C235.201 240.223 235.396 239.676 235.553 238.836C235.709 237.986 235.797 236.776 235.797 235.203V232.401ZM253.189 232.401H254.391V242H252.984V234.803L247.184 242H245.992V232.401H247.389V239.598L253.189 232.401ZM262.398 232.401L269.4 232.41V242.01H267.994V233.709H263.795V235.213C263.795 236.619 263.717 237.801 263.58 238.738C263.443 239.676 263.229 240.399 262.955 240.887C262.672 241.375 262.359 241.717 262.027 241.912C261.686 242.108 261.275 242.205 260.797 242.205C260.631 242.205 260.465 242.186 260.299 242.156C260.133 242.117 260.016 242.088 259.938 242.049L259.801 242.01V240.613C260.064 240.74 260.328 240.809 260.602 240.809C261.012 240.809 261.334 240.692 261.568 240.457C261.803 240.223 261.998 239.676 262.154 238.836C262.311 237.986 262.398 236.776 262.398 235.203V232.401ZM285.689 237.195C285.689 238.582 285.211 239.764 284.264 240.74C283.316 241.717 282.193 242.195 280.885 242.195C279.664 242.195 278.6 241.776 277.682 240.916C276.764 240.067 276.236 239.031 276.08 237.801H273.98V242H272.584V232.401H273.98V236.502H276.08C276.246 235.33 276.783 234.324 277.691 233.475C278.59 232.625 279.664 232.195 280.895 232.195C282.203 232.195 283.326 232.684 284.273 233.66C285.211 234.637 285.689 235.809 285.689 237.195ZM277.477 237.205C277.477 238.24 277.818 239.119 278.492 239.832C279.166 240.545 279.967 240.897 280.885 240.897C281.803 240.897 282.604 240.545 283.277 239.832C283.951 239.119 284.283 238.24 284.283 237.205C284.283 236.17 283.951 235.291 283.277 234.578C282.604 233.865 281.803 233.504 280.885 233.504C279.967 233.504 279.166 233.865 278.492 234.578C277.818 235.291 277.477 236.17 277.477 237.205ZM297.096 240.701V244.402H295.699V242H287.994V244.402H286.598V240.701H287.291C287.33 240.662 287.389 240.604 287.467 240.506C287.545 240.408 287.691 240.193 287.887 239.861C288.082 239.529 288.248 239.178 288.404 238.787C288.561 238.397 288.697 237.879 288.814 237.234C288.932 236.59 289 235.906 289 235.203V232.401H295.592V240.701H297.096ZM290.396 233.699L290.387 235.203C290.387 236.297 290.26 237.303 289.986 238.211C289.723 239.129 289.459 239.774 289.195 240.145L288.795 240.701H294.195V233.699H290.396ZM300.689 240.701H303.209C303.834 240.701 304.332 240.526 304.713 240.174C305.094 239.822 305.289 239.363 305.289 238.797C305.289 238.24 305.094 237.781 304.713 237.43C304.332 237.078 303.824 236.902 303.189 236.902H300.689V240.701ZM306.686 238.807C306.686 239.764 306.373 240.535 305.758 241.121C305.133 241.707 304.283 242 303.209 242H299.293V232.401H300.689V235.604H303.189C304.264 235.604 305.123 235.897 305.748 236.483C306.373 237.068 306.686 237.85 306.686 238.807ZM317.594 234.901L314.088 239.305L310.592 234.901V242H309.195V232.401H310.289L314.088 237.195L317.887 232.401H318.99V242H317.594V234.901ZM329.4 232.401H330.602V242H329.195V234.803L323.395 242H322.203V232.401H323.6V239.598L329.4 232.401ZM336.412 233.699V232.401H344.605V233.699H341.207V242H339.811V233.699H336.412ZM348.014 237.205C348.014 238.192 348.355 239.051 349.059 239.793C349.762 240.535 350.543 240.897 351.412 240.897C352.232 240.897 352.975 240.545 353.629 239.822C354.283 239.1 354.615 238.231 354.615 237.205C354.615 236.18 354.283 235.311 353.629 234.588C352.975 233.865 352.232 233.504 351.412 233.504C350.543 233.504 349.762 233.875 349.059 234.617C348.355 235.359 348.014 236.219 348.014 237.205ZM348.014 240.496V246.209H346.617V232.41H348.014V233.914C348.033 233.875 348.082 233.807 348.15 233.729C348.219 233.651 348.355 233.514 348.57 233.318C348.785 233.123 349.01 232.947 349.264 232.791C349.508 232.635 349.82 232.498 350.211 232.381C350.602 232.264 351.002 232.205 351.412 232.205C352.633 232.205 353.707 232.693 354.625 233.68C355.543 234.656 356.012 235.838 356.012 237.205C356.012 238.572 355.553 239.754 354.635 240.731C353.717 241.707 352.643 242.195 351.412 242.195C351.002 242.195 350.602 242.137 350.221 242.02C349.84 241.902 349.518 241.766 349.264 241.6C349 241.443 348.775 241.277 348.58 241.111C348.385 240.945 348.248 240.799 348.15 240.682L348.014 240.496ZM367.008 237.723L359.205 237.703C359.254 238.572 359.605 239.324 360.27 239.949C360.934 240.584 361.705 240.897 362.604 240.897C363.199 240.897 363.756 240.77 364.273 240.496C364.781 240.233 365.152 239.969 365.367 239.695L365.709 239.305L366.607 240.203C366.568 240.262 366.51 240.33 366.432 240.428C366.354 240.526 366.197 240.682 365.943 240.906C365.689 241.131 365.426 241.326 365.133 241.502C364.84 241.678 364.469 241.834 364.01 241.981C363.551 242.127 363.082 242.195 362.604 242.195C361.295 242.195 360.162 241.717 359.225 240.74C358.277 239.764 357.809 238.582 357.809 237.195C357.809 235.809 358.268 234.637 359.205 233.66C360.143 232.684 361.236 232.195 362.506 232.195C363.814 232.195 364.908 232.654 365.787 233.563C366.666 234.471 367.105 235.613 367.105 237L367.008 237.723ZM362.506 233.504C361.666 233.504 360.934 233.807 360.309 234.393C359.684 234.988 359.312 235.692 359.205 236.502H365.709C365.602 235.643 365.25 234.92 364.654 234.354C364.059 233.787 363.346 233.504 362.506 233.504ZM378.697 237.401C378.697 238.748 378.238 239.891 377.33 240.809C376.412 241.736 375.309 242.195 374 242.195C372.584 242.195 371.432 241.658 370.543 240.584C369.645 239.51 369.205 237.977 369.205 236.004C369.205 231.59 370.836 229.09 374.098 228.504C374.801 228.387 375.436 228.24 375.992 228.045C376.539 227.859 376.91 227.703 377.105 227.576L377.398 227.401L378.102 228.504C377.564 228.973 376.295 229.412 374.303 229.803C373.248 230.018 372.389 230.526 371.744 231.307C371.1 232.088 370.748 233.152 370.699 234.5C370.719 234.451 370.768 234.383 370.826 234.295C370.885 234.207 371.021 234.061 371.227 233.846C371.432 233.631 371.656 233.445 371.91 233.27C372.154 233.104 372.477 232.947 372.867 232.811C373.258 232.674 373.668 232.596 374.098 232.596C375.367 232.596 376.451 233.065 377.35 234.002C378.248 234.94 378.697 236.072 378.697 237.401ZM370.699 237.401C370.699 238.397 371.021 239.227 371.666 239.891C372.311 240.565 373.092 240.897 374 240.897C374.898 240.897 375.68 240.565 376.324 239.891C376.969 239.227 377.301 238.397 377.301 237.401C377.301 236.414 376.969 235.584 376.324 234.91C375.68 234.246 374.898 233.904 374 233.904C373.092 233.904 372.311 234.246 371.666 234.91C371.021 235.584 370.699 236.414 370.699 237.401ZM383.404 243.397L383.902 242L379.996 232.401H381.5L384.605 240.203L387.701 232.401H389.205L384.801 243.397C384.4 244.412 383.971 245.135 383.521 245.565C383.062 245.994 382.486 246.199 381.793 246.199C381.578 246.199 381.373 246.19 381.178 246.151C380.982 246.121 380.826 246.082 380.729 246.043L380.592 246.004V244.695C380.924 244.832 381.256 244.901 381.588 244.901C382.438 244.901 383.043 244.402 383.404 243.397ZM399.605 237.723L391.803 237.703C391.852 238.572 392.203 239.324 392.867 239.949C393.531 240.584 394.303 240.897 395.201 240.897C395.797 240.897 396.354 240.77 396.871 240.496C397.379 240.233 397.75 239.969 397.965 239.695L398.307 239.305L399.205 240.203C399.166 240.262 399.107 240.33 399.029 240.428C398.951 240.526 398.795 240.682 398.541 240.906C398.287 241.131 398.023 241.326 397.73 241.502C397.438 241.678 397.066 241.834 396.607 241.981C396.148 242.127 395.68 242.195 395.201 242.195C393.893 242.195 392.76 241.717 391.822 240.74C390.875 239.764 390.406 238.582 390.406 237.195C390.406 235.809 390.865 234.637 391.803 233.66C392.74 232.684 393.834 232.195 395.104 232.195C396.412 232.195 397.506 232.654 398.385 233.563C399.264 234.471 399.703 235.613 399.703 237L399.605 237.723ZM395.104 233.504C394.264 233.504 393.531 233.807 392.906 234.393C392.281 234.988 391.91 235.692 391.803 236.502H398.307C398.199 235.643 397.848 234.92 397.252 234.354C396.656 233.787 395.943 233.504 395.104 233.504ZM401.002 233.699V232.401H409.195V233.699H405.797V242H404.4V233.699H401.002ZM98.1992 269.195C98.1992 270.582 97.7207 271.764 96.7734 272.74C95.8262 273.717 94.7031 274.205 93.4043 274.205C92.9355 274.205 92.4766 274.127 92.0273 273.99C91.5781 273.854 91.207 273.688 90.8945 273.492C90.582 273.297 90.3184 273.111 90.084 272.916C89.8496 272.721 89.6738 272.555 89.5566 272.408L89.4004 272.213L90.3965 271.315C90.416 271.354 90.4648 271.402 90.5234 271.481C90.582 271.549 90.709 271.676 90.9043 271.861C91.0996 272.057 91.3047 272.223 91.5195 272.359C91.7344 272.496 92.0078 272.623 92.3496 272.731C92.6816 272.848 93.0332 272.897 93.4043 272.897C94.2441 272.897 94.9863 272.584 95.6504 271.949C96.3047 271.324 96.6855 270.572 96.8027 269.703H91.998V268.404H96.6953C96.5879 267.633 96.2168 266.959 95.5918 266.373C94.957 265.797 94.2246 265.504 93.4043 265.504C93.043 265.504 92.7012 265.563 92.3691 265.66C92.0371 265.768 91.7637 265.904 91.5391 266.061C91.3242 266.227 91.1289 266.393 90.9629 266.549C90.7969 266.705 90.6699 266.842 90.5918 266.94L90.4941 267.096L89.4883 266.1C89.5273 266.051 89.5859 265.983 89.6641 265.895C89.7422 265.807 89.8984 265.66 90.1426 265.445C90.3965 265.231 90.6602 265.045 90.9336 264.869C91.2168 264.703 91.5781 264.547 92.0273 264.41C92.4766 264.274 92.9355 264.195 93.4043 264.195C94.7129 264.195 95.8359 264.684 96.7832 265.66C97.7207 266.637 98.1992 267.809 98.1992 269.195ZM107.594 274V269.801H102.096V274H100.699V264.401H102.096V268.502H107.594V264.401H109V274H107.594ZM120.699 269.723L112.896 269.703C112.945 270.572 113.297 271.324 113.961 271.949C114.625 272.584 115.396 272.897 116.295 272.897C116.891 272.897 117.447 272.77 117.965 272.496C118.473 272.233 118.844 271.969 119.059 271.695L119.4 271.305L120.299 272.203C120.26 272.262 120.201 272.33 120.123 272.428C120.045 272.526 119.889 272.682 119.635 272.906C119.381 273.131 119.117 273.326 118.824 273.502C118.531 273.678 118.16 273.834 117.701 273.981C117.242 274.127 116.773 274.195 116.295 274.195C114.986 274.195 113.854 273.717 112.916 272.74C111.969 271.764 111.5 270.582 111.5 269.195C111.5 267.809 111.959 266.637 112.896 265.66C113.834 264.684 114.928 264.195 116.197 264.195C117.506 264.195 118.6 264.654 119.479 265.563C120.357 266.471 120.797 267.613 120.797 269L120.699 269.723ZM116.197 265.504C115.357 265.504 114.625 265.807 114 266.393C113.375 266.988 113.004 267.692 112.896 268.502H119.4C119.293 267.643 118.941 266.92 118.346 266.354C117.75 265.787 117.037 265.504 116.197 265.504ZM124.693 269.205C124.693 270.192 125.035 271.051 125.738 271.793C126.441 272.535 127.223 272.897 128.092 272.897C128.912 272.897 129.654 272.545 130.309 271.822C130.963 271.1 131.295 270.231 131.295 269.205C131.295 268.18 130.963 267.311 130.309 266.588C129.654 265.865 128.912 265.504 128.092 265.504C127.223 265.504 126.441 265.875 125.738 266.617C125.035 267.359 124.693 268.219 124.693 269.205ZM124.693 272.496V278.209H123.297V264.41H124.693V265.914C124.713 265.875 124.762 265.807 124.83 265.729C124.898 265.651 125.035 265.514 125.25 265.318C125.465 265.123 125.689 264.947 125.943 264.791C126.188 264.635 126.5 264.498 126.891 264.381C127.281 264.264 127.682 264.205 128.092 264.205C129.312 264.205 130.387 264.693 131.305 265.68C132.223 266.656 132.691 267.838 132.691 269.205C132.691 270.572 132.232 271.754 131.314 272.731C130.396 273.707 129.322 274.195 128.092 274.195C127.682 274.195 127.281 274.137 126.9 274.02C126.52 273.902 126.197 273.766 125.943 273.6C125.68 273.443 125.455 273.277 125.26 273.111C125.064 272.945 124.928 272.799 124.83 272.682L124.693 272.496ZM141.588 264.401V265.699H136.588V274H135.191V264.401H141.588ZM150.592 264.401H151.793V274H150.387V266.803L144.586 274H143.395V264.401H144.791V271.598L150.592 264.401ZM162.193 264.401H163.395V274H161.988V266.803L156.188 274H154.996V264.401H156.393V271.598L162.193 264.401ZM166.197 273.199C166.197 272.906 166.285 272.672 166.461 272.486C166.637 272.301 166.881 272.203 167.184 272.203C167.496 272.203 167.74 272.301 167.916 272.486C168.092 272.672 168.18 272.906 168.18 273.199C168.18 273.492 168.092 273.736 167.916 273.922C167.74 274.108 167.496 274.195 167.184 274.195C166.881 274.195 166.637 274.108 166.461 273.922C166.285 273.736 166.197 273.492 166.197 273.199Z" fill="#1D1717"/>
</svg>
