<svg width="43" height="42" viewBox="0 0 43 42" fill="none" xmlns="http://www.w3.org/2000/svg">
<g clip-path="url(#clip0_284_2480)">
<path d="M20.6764 12.4249C26.4198 12.3122 32.324 14.607 36.3078 18.6917C40.2916 22.7764 33.2753 26.3923 30.1267 27.7494C22.0386 31.2254 12.9456 29.7782 6.95651 23.0966C6.13475 22.1948 5.1924 21.1489 5.61668 19.882C5.99184 18.7548 7.84974 17.4519 8.74296 16.726C11.0866 14.868 13.8118 13.5618 16.7194 12.9028C18.0189 12.6079 19.3447 12.4477 20.6764 12.4249Z" stroke="#3F39A3" stroke-width="3" stroke-linecap="round" stroke-linejoin="round"/>
<path d="M17.4518 13.6783C15.801 14.8787 14.5802 16.5873 13.9727 18.5475C13.1733 20.9099 13.1018 23.6331 14.3166 25.8107C14.9309 26.8453 15.7753 27.7212 16.783 28.3691C17.7908 29.0171 18.9342 29.4193 20.1226 29.5438C22.5253 29.7588 24.9254 29.1036 26.8932 27.6953C27.9192 27.0051 28.8008 26.1182 29.488 25.0848C30.2255 23.917 30.647 22.5744 30.7105 21.1908C30.774 19.8073 30.4772 18.4311 29.8497 17.1994C27.7775 13.295 21.1855 11.149 17.4518 13.6783Z" fill="#3F39A3"/>
</g>
<path d="M2.5 29L39.5 11" stroke="#3F39A3" stroke-width="3" stroke-linecap="round"/>
<defs>
<clipPath id="clip0_284_2480">
<rect width="36" height="20" fill="white" transform="translate(3.5 11)"/>
</clipPath>
</defs>
</svg>
