<svg width="36" height="20" viewBox="0 0 36 20" fill="none" xmlns="http://www.w3.org/2000/svg">
<g clip-path="url(#clip0_1_1430)">
<path d="M17.1766 1.42486C22.9201 1.31215 28.8243 3.60699 32.808 7.69172C36.7918 11.7764 29.7755 15.3923 26.6269 16.7494C18.5388 20.2254 9.44581 18.7782 3.45676 12.0966C2.63499 11.1948 1.69265 10.1489 2.11693 8.88197C2.49208 7.75484 4.34998 6.45187 5.2432 5.726C7.58689 3.86797 10.312 2.56177 13.2197 1.90277C14.5191 1.60787 15.845 1.44773 17.1766 1.42486Z" stroke="#3F39A3" stroke-width="3" stroke-linecap="round" stroke-linejoin="round"/>
<path d="M13.9522 2.67826C12.3013 3.87874 11.0806 5.58725 10.4731 7.54747C9.67366 9.90994 9.6022 12.6331 10.817 14.8107C11.4312 15.8453 12.2757 16.7212 13.2834 17.3691C14.2912 18.0171 15.4345 18.4193 16.6229 18.5438C19.0256 18.7588 21.4257 18.1036 23.3935 16.6953C24.4195 16.0051 25.3012 15.1182 25.9884 14.0848C26.7259 12.917 27.1474 11.5744 27.2108 10.1908C27.2743 8.80729 26.9775 7.43112 26.3501 6.19942C24.2778 2.29503 17.6859 0.148973 13.9522 2.67826Z" fill="#3F39A3"/>
</g>
<defs>
<clipPath id="clip0_1_1430">
<rect width="36" height="20" fill="white"/>
</clipPath>
</defs>
</svg>
