<svg width="161" height="23" viewBox="0 0 161 23" fill="none" xmlns="http://www.w3.org/2000/svg">
<g clip-path="url(#clip0_1_1041)">
<path fill-rule="evenodd" clip-rule="evenodd" d="M46.9594 12.557C47.0148 13.4725 47.3928 14.2643 48.0934 14.9323C48.7939 15.6004 49.6171 15.9337 50.5628 15.9337C51.1991 15.9337 51.7887 15.794 52.3346 15.5116C52.8804 15.2293 53.2672 14.9469 53.4948 14.6645L53.8568 14.2512L54.8098 15.2016C54.7503 15.2794 54.69 15.3566 54.6288 15.433C54.4681 15.6136 54.295 15.7829 54.1107 15.9395C53.8451 16.1772 53.5567 16.3883 53.2496 16.5698C52.8729 16.7814 52.474 16.9513 52.0602 17.0763C51.576 17.2301 51.0709 17.3082 50.5628 17.3077C49.1763 17.3077 47.9795 16.7939 46.9798 15.7634C45.9786 14.7344 45.4766 13.4871 45.4766 12.02C45.4766 10.5528 45.9728 9.30551 46.9652 8.27503C47.9547 7.24602 49.1208 6.73224 50.4592 6.73224C51.8486 6.73224 53.0074 7.21254 53.94 8.17169C54.8726 9.1323 55.3381 10.3462 55.3381 11.8133L55.2345 12.5774L46.9594 12.557ZM48.1299 9.05516C47.4895 9.63909 47.0752 10.4288 46.9594 11.2864H53.8568C53.7459 10.3695 53.3752 9.61261 52.7432 9.01441C52.4409 8.72158 52.0834 8.49134 51.6914 8.33696C51.2993 8.18258 50.8806 8.10712 50.4592 8.11493C49.5689 8.11493 48.7925 8.42931 48.1299 9.05516ZM63.2893 21.5431H61.8079V6.9491H63.2893V8.53993C63.317 8.49626 63.3666 8.43513 63.4396 8.34781C63.5126 8.26048 63.6585 8.11493 63.8847 7.90971C64.1098 7.7027 64.3542 7.51751 64.6145 7.35663C64.8772 7.19508 65.2128 7.05098 65.6244 6.9229C66.036 6.79628 66.4592 6.73224 66.8941 6.73224C68.1916 6.73224 69.33 7.25184 70.3064 8.28959C71.2827 9.3317 71.7716 10.5747 71.7716 12.0258C71.7716 13.4754 71.2842 14.7184 70.3107 15.7518C69.3373 16.7895 68.1989 17.3091 66.8941 17.3091C66.4592 17.3091 66.0389 17.2465 65.6346 17.1228C65.2765 17.0189 64.9332 16.8697 64.613 16.6789C64.3608 16.5224 64.1208 16.3473 63.8949 16.1549C63.7299 16.0181 63.5757 15.8687 63.4338 15.7081L63.2878 15.5116V21.5431H63.2893ZM64.4028 14.7606C65.1442 15.5436 65.9747 15.9352 66.8941 15.9352C67.7698 15.9352 68.5565 15.5538 69.2497 14.7941C69.9444 14.0329 70.2903 13.1101 70.2903 12.0258C70.2903 10.9415 69.9444 10.0172 69.2497 9.25747C68.5565 8.49626 67.7698 8.11639 66.8941 8.11639C65.9747 8.11639 65.1428 8.50645 64.4028 9.28804C63.6585 10.0696 63.2893 10.9822 63.2893 12.0243C63.2893 13.0679 63.66 13.9805 64.4028 14.7606ZM85.0965 16.1724C84.4427 16.7924 83.5407 17.1025 82.3951 17.1025H78.2414V6.9491H79.7228V10.336H82.3746C83.5203 10.336 84.4252 10.646 85.0878 11.266C85.7504 11.8861 86.0802 12.704 86.0802 13.7185C86.0802 14.7344 85.7533 15.5524 85.098 16.1724H85.0965ZM82.3951 15.7285C83.0576 15.7285 83.5904 15.5393 83.9946 15.1652C84.3989 14.7897 84.6003 14.3065 84.6003 13.7141C84.6003 13.1217 84.3989 12.64 83.9946 12.2688C83.5904 11.8962 83.0504 11.7099 82.3746 11.7099H79.7228V15.727H82.3936L82.3951 15.7285ZM97.6099 14.4491C97.8347 15.4723 98.1061 16.3412 98.4272 17.0573C98.7483 17.7734 99.0723 18.4138 99.3963 18.9785C99.7218 19.5433 99.9976 19.9595 100.225 20.2273L100.557 20.6494L99.3963 21.2898C99.2607 21.1492 99.1326 21.0015 99.0125 20.8474C98.8548 20.648 98.5746 20.2186 98.1747 19.5622C97.7724 18.9019 97.4192 18.2131 97.1181 17.5012C96.8145 16.7852 96.5343 15.8653 96.2789 14.7431C96.0245 13.6281 95.8962 12.4881 95.8965 11.3446C95.8965 10.2021 96.0133 9.07845 96.2526 7.97375C96.492 6.86759 96.7809 5.93609 97.1225 5.17925C97.4654 4.42241 97.8084 3.74707 98.1543 3.15469C98.4987 2.56232 98.7921 2.1184 99.0344 1.82294L99.3963 1.3994L100.557 2.03981C100.437 2.18126 100.321 2.32589 100.209 2.47353C100.062 2.66566 99.7962 3.0761 99.4167 3.70195C99.0373 4.3278 98.706 4.97985 98.4228 5.65228C98.1397 6.32907 97.877 7.18489 97.6347 8.22118C97.3944 9.24504 97.2729 10.2931 97.2728 11.3446C97.2728 12.3926 97.3852 13.4259 97.6085 14.4491H97.6099ZM107.987 6.48044H116.676V7.8544H113.071V16.6338H111.592V7.8544H107.987V6.48044ZM129.194 10.1788C129.194 9.42776 128.956 8.81938 128.479 8.35072C128.003 7.88206 127.392 7.64773 126.646 7.64773C126.107 7.64773 125.602 7.76999 125.129 8.0145C124.657 8.25902 124.312 8.50936 124.099 8.76407L123.778 9.12503L122.825 8.17461C122.866 8.1193 122.923 8.04944 122.996 7.96356C123.146 7.80284 123.304 7.65075 123.472 7.508C123.717 7.29259 123.974 7.09756 124.245 6.92581C124.576 6.72556 124.932 6.57085 125.305 6.46589C125.744 6.33198 126.191 6.26212 126.647 6.26212C127.806 6.26212 128.768 6.63909 129.531 7.39011C130.293 8.14113 130.675 9.06972 130.675 10.1788V16.6338H129.194V15.2598C129.154 15.3186 129.11 15.3755 129.064 15.4301C129.006 15.5029 128.874 15.631 128.672 15.8129C128.467 15.9948 128.248 16.1579 128.015 16.299C127.723 16.4634 127.411 16.5901 127.087 16.676C126.701 16.7858 126.301 16.8412 125.9 16.8405C124.886 16.8405 124.032 16.5406 123.337 15.9424C122.643 15.3428 122.297 14.6587 122.297 13.8873C122.297 13.0402 122.552 12.3562 123.063 11.8351C123.574 11.317 124.309 10.9764 125.268 10.8192L129.194 10.1788ZM128.267 14.5248C128.885 13.899 129.194 13.0868 129.194 12.0884V11.448L125.694 12.0884C124.425 12.3285 123.784 12.9282 123.778 13.8859C123.778 14.34 123.965 14.7155 124.341 15.0168C124.718 15.3151 125.237 15.465 125.9 15.465C126.86 15.465 127.649 15.1521 128.267 14.5248ZM139.362 16.6338H137.881V6.48044H139.362V11.873L144.447 6.48044H146.26L142.334 10.6023L146.683 16.6338H144.985L141.381 11.6663L139.362 13.7825V16.6338ZM158.325 8.24156C158.1 7.21836 157.824 6.34945 157.496 5.63336C157.199 4.98027 156.877 4.33934 156.528 3.71214C156.21 3.14742 155.937 2.73115 155.71 2.46335L155.378 2.03981L156.539 1.3994C156.635 1.49546 156.762 1.64392 156.921 1.84332C157.08 2.04272 157.359 2.47062 157.76 3.1285C158.161 3.78637 158.515 4.47335 158.821 5.18944C159.128 5.90553 159.408 6.82539 159.66 7.94755C159.913 9.06972 160.038 10.2021 160.038 11.3446C160.038 12.4886 159.92 13.6122 159.682 14.7169C159.443 15.8231 159.149 16.7546 158.801 17.5114C158.45 18.2683 158.109 18.9436 157.77 19.536C157.516 20.0019 157.225 20.4472 156.9 20.8678L156.539 21.2913L155.378 20.6509C155.498 20.5094 155.614 20.3648 155.726 20.2172C155.872 20.025 156.139 19.6146 156.522 18.9887C156.906 18.3614 157.238 17.7108 157.515 17.037C157.797 16.3616 158.058 15.5058 158.299 14.4695C158.539 13.4452 158.661 12.3966 158.661 11.3446C158.661 10.2981 158.55 9.26475 158.325 8.24156Z" fill="#2D2D2D"/>
<path fill-rule="evenodd" clip-rule="evenodd" d="M100.532 6.31014L99.6081 1.99904L95.3275 3.10374L95.04 1.99468L100.479 0.591604L101.654 6.07144L100.532 6.31014ZM155.016 22.3654L154.009 16.8536L155.139 16.6483L155.932 20.9856L160.243 20.0105L160.497 21.1283L155.016 22.3654ZM0 6.94764H8.68962V8.32305H5.08476V17.1024H3.60486V8.32305H0V6.94764ZM15.3666 12.557C15.4221 13.4725 15.8001 14.2643 16.5006 14.9323C17.2012 15.6004 18.0243 15.9337 18.9701 15.9337C19.6064 15.9337 20.196 15.794 20.7418 15.5116C21.2877 15.2293 21.6744 14.9469 21.9021 14.6645L22.2641 14.2512L23.2171 15.2016C23.1576 15.2794 23.0973 15.3565 23.0361 15.433C22.8754 15.6136 22.7023 15.7829 22.518 15.9395C22.2523 16.1772 21.9639 16.3883 21.6569 16.5697C21.2802 16.7814 20.8813 16.9513 20.4675 17.0762C19.9833 17.2301 19.4782 17.3082 18.9701 17.3077C17.5836 17.3077 16.3868 16.7939 15.3871 15.7634C14.3859 14.7344 13.8838 13.4871 13.8838 12.0199C13.8838 10.5528 14.3801 9.3055 15.3725 8.27502C16.362 7.24601 17.5281 6.73223 18.8664 6.73223C20.2558 6.73223 21.4146 7.21253 22.3472 8.17168C23.2798 9.13229 23.7454 10.3462 23.7454 11.8133L23.6418 12.5774L15.3666 12.557ZM16.5371 9.05515C15.8968 9.63908 15.4825 10.4288 15.3666 11.2864H22.2641C22.1531 10.3694 21.7824 9.6126 21.1505 9.0144C20.8481 8.72157 20.4906 8.49133 20.0986 8.33695C19.7066 8.18257 19.2878 8.10711 18.8664 8.11492C17.9762 8.11492 17.1997 8.4293 16.5371 9.05515ZM37.5271 8.34343H31.6965V17.1024H30.2152V6.94909H39.0187V17.1024H37.5271V8.34343Z" fill="#2D2D2D"/>
</g>
<defs>
<clipPath id="clip0_1_1041">
<rect width="160.497" height="21.7738" fill="white" transform="translate(0 0.591604)"/>
</clipPath>
</defs>
</svg>
