<svg width="142" height="29" viewBox="0 0 142 29" fill="none" xmlns="http://www.w3.org/2000/svg">
<path d="M37.6982 19.0474V10.9056C37.6982 10.6025 37.8715 10.4293 38.1746 10.4293H40.2101C40.5132 10.4293 40.6864 10.6025 40.6864 10.9056V18.7443C40.6864 20.4766 41.7691 21.0396 42.8951 21.0396C44.0211 21.0396 45.1038 20.4766 45.1038 18.7443V10.9056C45.1038 10.6025 45.277 10.4293 45.5802 10.4293H47.6589C47.9621 10.4293 48.1353 10.6025 48.1353 10.9056V19.0474C48.1353 21.6892 46.2731 23.9845 42.8518 23.9845C39.4305 23.9845 37.6982 21.6892 37.6982 19.0474Z" fill="black"/>
<path d="M50.3872 23.3349V10.9056C50.3872 10.6025 50.5604 10.4293 50.8636 10.4293H52.899C53.1589 10.4293 53.3754 10.5159 53.5053 10.7757L58.4424 18.5277V10.9056C58.4424 10.6025 58.6156 10.4293 58.9188 10.4293H60.9542C61.2574 10.4293 61.4306 10.6025 61.4306 10.9056V23.3349C61.4306 23.638 61.2574 23.8112 60.9542 23.8112H58.8754C58.6156 23.8112 58.3991 23.7246 58.2691 23.4648L53.3754 15.7561V23.2915C53.3754 23.5947 53.2022 23.7679 52.899 23.7679H50.8636C50.5604 23.8545 50.3872 23.638 50.3872 23.3349Z" fill="black"/>
<path d="M63.6826 23.3349V10.9056C63.6826 10.6025 63.8558 10.4293 64.159 10.4293H66.1944C66.4976 10.4293 66.6708 10.6025 66.6708 10.9056V23.3349C66.6708 23.638 66.4976 23.8112 66.1944 23.8112H64.159C63.8558 23.8545 63.6826 23.638 63.6826 23.3349Z" fill="black"/>
<path d="M68.6631 21.1262C68.5332 20.8663 68.6198 20.6498 68.8363 20.4766L70.5253 19.264C70.7852 19.0907 71.0017 19.134 71.2182 19.3506C71.8245 20.0435 73.2104 20.9963 74.7261 20.9963C76.112 20.9963 76.4151 20.4766 76.4151 19.8703C76.4151 18.9608 74.4663 18.6144 73.5135 18.2679C72.5608 17.9214 69.0529 17.2285 69.0529 14.197C69.0529 11.2088 71.6946 10.0828 74.3797 10.0828C76.7183 10.0828 78.7537 11.3387 79.4899 12.6379C79.6632 12.8978 79.5332 13.1143 79.3167 13.2876L77.7143 14.3702C77.4545 14.5435 77.2379 14.5002 77.0214 14.2836C76.4584 13.7639 75.2891 13.1143 73.9899 13.1143C73.0371 13.1143 72.5608 13.4608 72.5608 14.0238C72.5608 14.9332 74.3797 15.2797 75.3757 15.6262C76.3285 15.9726 79.8364 16.8388 79.8364 19.697C79.8364 22.512 77.6277 23.9845 74.3797 23.9845C71.4348 24.0711 69.4859 22.6419 68.6631 21.1262Z" fill="black"/>
<path d="M81.5684 23.3349V10.9056C81.5684 10.6025 81.7416 10.4293 82.0447 10.4293H90.2731C90.5763 10.4293 90.7495 10.6025 90.7495 10.9056V12.6812C90.7495 12.9844 90.5763 13.1576 90.2731 13.1576H84.5999V15.7128H89.8401C90.1432 15.7128 90.3164 15.886 90.3164 16.1891V17.9647C90.3164 18.2679 90.1432 18.4411 89.8401 18.4411H84.5999V20.9963H90.2731C90.5763 20.9963 90.7495 21.1695 90.7495 21.4726V23.2482C90.7495 23.5514 90.5763 23.7246 90.2731 23.7246H82.0447C81.7416 23.8545 81.5684 23.638 81.5684 23.3349Z" fill="black"/>
<path d="M92.8716 23.3349V10.9056C92.8716 10.6025 93.0448 10.4293 93.348 10.4293H95.3834C95.6433 10.4293 95.8598 10.5159 95.9897 10.7757L100.927 18.5277V10.9056C100.927 10.6025 101.1 10.4293 101.403 10.4293H103.439C103.742 10.4293 103.915 10.6025 103.915 10.9056V23.3349C103.915 23.638 103.742 23.8112 103.439 23.8112H101.403C101.143 23.8112 100.927 23.7246 100.797 23.4648L95.9031 15.7561V23.2915C95.9031 23.5947 95.7299 23.7679 95.4267 23.7679H93.3913C93.0448 23.8545 92.8716 23.638 92.8716 23.3349Z" fill="black"/>
<path d="M106.167 23.3349V10.9056C106.167 10.6025 106.34 10.4293 106.643 10.4293H111.234C115.175 10.4293 117.817 13.1576 117.817 17.1419C117.817 21.1262 115.132 23.8545 111.234 23.8545H106.643C106.34 23.8545 106.167 23.638 106.167 23.3349ZM111.277 20.8663C112.187 20.8663 114.872 20.39 114.828 17.0986C114.828 13.8505 112.187 13.3309 111.277 13.3309H109.199V20.8663H111.277Z" fill="black"/>
<path d="M119.722 23.3349V10.9056C119.722 10.6025 119.895 10.4293 120.199 10.4293H128.427C128.73 10.4293 128.903 10.6025 128.903 10.9056V12.6812C128.903 12.9844 128.73 13.1576 128.427 13.1576H122.754V15.7128H127.994C128.297 15.7128 128.47 15.886 128.47 16.1891V17.9647C128.47 18.2679 128.297 18.4411 127.994 18.4411H122.754V20.9963H128.427C128.73 20.9963 128.903 21.1695 128.903 21.4726V23.2482C128.903 23.5514 128.73 23.7246 128.427 23.7246H120.199C119.939 23.8545 119.722 23.638 119.722 23.3349Z" fill="black"/>
<path d="M131.025 23.3349V10.9056C131.025 10.6025 131.199 10.4293 131.502 10.4293H137.521C139.514 10.4293 141.679 11.9017 141.679 14.9765C141.679 17.1852 140.51 18.6144 139.081 19.1773L141.592 23.2915C141.809 23.638 141.636 23.8978 141.246 23.8978H138.821C138.561 23.8978 138.344 23.8112 138.214 23.5514L135.746 19.4805H133.97V23.3782C133.97 23.6813 133.797 23.8545 133.494 23.8545H131.458C131.242 23.8545 131.025 23.638 131.025 23.3349ZM137.045 16.5356C137.911 16.5356 138.691 15.9726 138.691 14.9332C138.691 13.8939 137.911 13.3742 137.045 13.3742H134.1V16.5356H137.045Z" fill="black"/>
<path d="M27.0882 10.7757C26.915 9.56312 26.2221 6.14184 23.4937 4.7127C21.6748 3.75993 18.6433 2.72056 14.5724 3.63001C11.7574 4.27962 10.8913 5.18908 10.0684 6.27176C9.11567 7.48437 9.15897 9.13004 8.98574 11.2088C8.94244 11.5553 8.68259 11.7718 8.33613 11.7718C6.64715 11.7285 4.78493 11.5553 3.00933 11.4253C2.66287 11.382 2.35972 11.6852 2.31641 12.0316C2.09988 17.5317 3.31248 20.5199 6.3873 22.2955C7.90306 23.1616 9.54874 23.6813 12.2771 23.075C12.3204 23.1616 12.3637 23.2915 12.407 23.3782C14.0094 27.1892 13.6629 28.2719 17.5173 27.7522C18.2102 27.6656 18.8598 27.4924 19.4661 27.2325C22.5843 25.9766 26.1355 22.8585 26.1788 19.4805C26.2221 15.4529 27.5213 13.7639 27.0882 10.7757Z" fill="white"/>
<path opacity="0.2" d="M20.8087 6.27176C27.478 15.4096 14.0094 16.9254 13.2299 11.512C12.4936 6.4883 19.163 3.97647 20.8087 6.27176Z" fill="#131313"/>
<path d="M21.0685 8.65366C20.5488 7.44106 19.163 6.35837 17.7338 6.61822C17.3874 6.66152 17.4307 7.18121 17.7771 7.1379C18.9464 6.92137 20.1157 7.83082 20.5488 8.8702C20.6787 9.17335 21.1984 9.00012 21.0685 8.65366Z" fill="#131313"/>
<path d="M14.1823 20.5199C14.0091 20.5632 13.8358 20.5632 13.7492 20.5632C13.3595 20.6065 13.0563 20.3466 13.013 19.9569C12.9697 19.6104 13.2295 19.264 13.6193 19.2207C13.9658 19.1773 17.1272 18.8309 18.1233 16.9687C18.2965 16.6222 18.6863 16.4923 19.0327 16.6655C19.3792 16.8388 19.5091 17.2285 19.3359 17.575C18.2099 19.697 15.3949 20.3466 14.1823 20.5199Z" fill="#131313"/>
<path d="M7.68647 15.8427C8.03293 15.7128 8.29277 15.3663 8.16285 15.0632C8.07624 14.7167 7.68647 14.5435 7.34001 14.6734C6.99355 14.8033 6.73371 15.1498 6.86363 15.4529C6.95025 15.7561 7.2967 15.9726 7.68647 15.8427Z" fill="#131313"/>
<path d="M7.59952 17.1852C7.85937 17.0986 7.98929 16.8821 7.94598 16.6222C7.85937 16.4057 7.64283 16.2758 7.38299 16.3624C7.12314 16.449 6.99322 16.6655 7.03653 16.9254C7.12314 17.1419 7.38299 17.2718 7.59952 17.1852Z" fill="#131313"/>
<path d="M9.20206 16.6222C9.46191 16.5356 9.59183 16.3191 9.54852 16.0592C9.46191 15.8427 9.24537 15.7128 8.98552 15.7994C8.72568 15.886 8.59576 16.1025 8.63907 16.3624C8.72568 16.5356 8.98552 16.6655 9.20206 16.6222Z" fill="#131313"/>
<path d="M19.2062 11.2954C19.3794 10.1694 18.9463 9.17336 18.2101 9.04344C17.4739 8.91351 16.7377 9.73635 16.5644 10.8623C16.3912 11.9883 16.8243 12.9844 17.5605 13.1143C18.2967 13.2442 19.0329 12.4214 19.2062 11.2954Z" fill="#131313"/>
<path d="M12.5366 11.1222C12.7532 10.2993 12.4933 9.56312 11.9736 9.38989C11.454 9.25997 10.8043 9.77966 10.5878 10.5592C10.3713 11.382 10.6311 12.1183 11.1508 12.2915C11.7138 12.4647 12.3201 11.9017 12.5366 11.1222Z" fill="#131313"/>
<path d="M18.1235 11.0789C18.1235 11.4686 18.47 11.8151 18.8598 11.8151C18.9464 11.8151 19.033 11.8151 19.1196 11.7718C19.1629 11.6419 19.2062 11.4686 19.2495 11.2954C19.2928 10.9923 19.2928 10.7324 19.2495 10.4726C19.1196 10.386 18.9897 10.386 18.8598 10.386C18.47 10.386 18.1235 10.6891 18.1235 11.0789Z" fill="white"/>
<path d="M12.1468 10.386C11.8004 10.386 11.5405 10.6458 11.5405 10.9923C11.5405 11.3387 11.8004 11.5986 12.1468 11.5986C12.2334 11.5986 12.3201 11.5986 12.4067 11.5553C12.45 11.4253 12.4933 11.2954 12.5366 11.1655C12.5799 10.9923 12.6232 10.819 12.6232 10.6458C12.5366 10.4726 12.3634 10.386 12.1468 10.386Z" fill="white"/>
<path d="M30.4227 3.84656C28.4739 0.944966 24.0132 2.20088 19.5525 0.598506C19.2494 1.46465 19.2494 2.24418 19.4659 2.9371C18.9462 2.85049 18.3832 2.80718 17.7769 2.80718C17.2573 2.80718 16.7376 2.85049 16.2179 2.8938C16.2179 2.85049 16.2179 2.80718 16.1746 2.76387C15.6116 0.468585 8.33594 2.72057 6.3438 1.50796C6.51703 3.93317 7.94617 5.31901 9.33201 7.0513C8.94224 8.13398 8.94224 9.47651 8.81232 11.0356C8.76901 11.382 8.50917 11.6419 8.16271 11.5986C7.46979 11.5986 6.73357 11.5553 5.95404 11.512C5.26112 9.95289 -0.195608 9.00013 0.410695 12.5513C0.713847 14.2403 1.32015 15.4962 2.09968 16.1892C2.57606 19.264 3.83198 21.1695 6.12727 22.512C7.16664 23.1183 8.50917 23.4648 10.1115 23.4648C10.9344 23.4648 11.2808 23.5081 12.2336 23.2916C12.2769 23.3782 12.3635 23.5081 12.4068 23.5947C13.836 26.9294 13.1864 28.2286 16.1313 28.2286C16.6509 28.2286 17.2139 28.1853 17.7769 28.0987C18.4699 28.0121 19.1628 27.7955 19.8124 27.5357C23.0171 26.2365 27.4345 23.1183 27.4778 19.6537C27.5211 15.7994 27.9975 13.8939 27.651 11.1222C29.5998 9.73636 30.466 7.00799 30.8125 5.62216C30.8991 5.01586 30.7691 4.36625 30.4227 3.84656ZM26.0486 19.6537C26.0053 22.6853 21.9344 25.1971 19.2494 26.3231C18.6864 26.5396 18.1234 26.7128 17.5604 26.7995C16.9974 26.8428 16.521 26.8861 16.088 26.8861C14.0958 26.8861 15.0053 26.3664 13.6194 23.075C13.5761 22.9884 13.5328 22.9018 13.4895 22.8152C13.4895 22.7719 13.4462 22.7719 13.4462 22.7286L13.0131 21.7758L11.9738 21.9923C11.1509 22.1656 10.8911 22.1223 10.1115 22.1223C8.85563 22.1223 7.68633 21.8624 6.77688 21.3427C5.30443 20.4766 4.30836 19.3073 3.78867 17.6183C3.65875 17.1852 3.78867 16.6655 4.13513 16.4057C4.69812 15.9726 5.21781 15.1498 5.60758 13.7639C5.7375 13.2443 6.25719 12.8978 6.77688 12.9411C7.20995 12.9844 7.64302 12.9844 8.0761 12.9844H8.1194C9.15878 12.9844 9.98162 12.2049 10.1115 11.1655C10.1548 10.819 10.1548 10.4726 10.1982 10.1694C10.2848 9.30328 10.3281 8.56706 10.458 7.91745C10.9777 7.22453 11.8438 6.79146 12.6667 6.79146C13.0131 6.79146 13.0131 6.22846 12.6667 6.27177C12.1037 6.27177 11.4974 6.48831 10.9777 6.79146C11.6273 5.96862 12.2769 5.18908 14.8753 4.58278C15.8714 4.36624 16.8242 4.23632 17.7769 4.23632C18.6864 4.23632 19.5525 4.32294 20.3754 4.53947C22.151 6.53161 25.529 8.2206 26.2652 11.512C26.525 14.0238 26.092 15.8427 26.0486 19.6537Z" fill="#131313"/>
<path d="M2.31635 11.6852C2.66281 11.5553 2.92266 11.2088 2.79273 10.9056C2.70612 10.5592 2.31635 10.386 1.9699 10.5159C1.62344 10.6458 1.36359 10.9923 1.49351 11.2954C1.58013 11.5986 1.92659 11.7718 2.31635 11.6852Z" fill="white"/>
</svg>
