<svg width="161" height="23" viewBox="0 0 161 23" fill="none" xmlns="http://www.w3.org/2000/svg">
<g clip-path="url(#clip0_1_1896)">
<path fill-rule="evenodd" clip-rule="evenodd" d="M46.9594 12.557C47.0148 13.4725 47.3928 14.2643 48.0934 14.9324C48.7939 15.6004 49.6171 15.9337 50.5628 15.9337C51.1991 15.9337 51.7887 15.794 52.3346 15.5116C52.8804 15.2293 53.2672 14.9469 53.4948 14.6646L53.8568 14.2512L54.8098 15.2016C54.7503 15.2794 54.69 15.3566 54.6288 15.433C54.4681 15.6137 54.295 15.7829 54.1107 15.9395C53.8451 16.1772 53.5567 16.3883 53.2496 16.5698C52.8729 16.7815 52.474 16.9513 52.0602 17.0763C51.576 17.2302 51.0709 17.3082 50.5628 17.3077C49.1763 17.3077 47.9795 16.7939 46.9798 15.7634C45.9786 14.7344 45.4766 13.4871 45.4766 12.02C45.4766 10.5529 45.9728 9.30552 46.9652 8.27505C47.9547 7.24603 49.1208 6.73225 50.4592 6.73225C51.8486 6.73225 53.0074 7.21256 53.94 8.17171C54.8726 9.13232 55.3381 10.3462 55.3381 11.8133L55.2345 12.5774L46.9594 12.557ZM48.1299 9.05518C47.4895 9.6391 47.0752 10.4288 46.9594 11.2864H53.8568C53.7459 10.3695 53.3752 9.61262 52.7432 9.01443C52.4409 8.7216 52.0834 8.49135 51.6914 8.33698C51.2993 8.1826 50.8806 8.10714 50.4592 8.11495C49.5689 8.11495 48.7925 8.42933 48.1299 9.05518ZM63.2893 21.5431H61.8079V6.94912H63.2893V8.53994C63.317 8.49628 63.3666 8.43515 63.4396 8.34782C63.5126 8.26049 63.6585 8.11495 63.8847 7.90973C64.1098 7.70272 64.3542 7.51753 64.6145 7.35665C64.8772 7.19509 65.2128 7.051 65.6244 6.92292C66.036 6.79629 66.4592 6.73225 66.8941 6.73225C68.1916 6.73225 69.33 7.25185 70.3064 8.2896C71.2827 9.33172 71.7716 10.5747 71.7716 12.0258C71.7716 13.4754 71.2842 14.7184 70.3107 15.7518C69.3373 16.7895 68.1989 17.3091 66.8941 17.3091C66.4592 17.3091 66.0389 17.2466 65.6346 17.1228C65.2765 17.0189 64.9332 16.8697 64.613 16.6789C64.3608 16.5224 64.1208 16.3473 63.8949 16.155C63.7299 16.0181 63.5757 15.8687 63.4338 15.7081L63.2878 15.5116V21.5431H63.2893ZM64.4028 14.7606C65.1442 15.5437 65.9747 15.9352 66.8941 15.9352C67.7698 15.9352 68.5565 15.5538 69.2497 14.7941C69.9444 14.0329 70.2903 13.1101 70.2903 12.0258C70.2903 10.9415 69.9444 10.0172 69.2497 9.25749C68.5565 8.49628 67.7698 8.1164 66.8941 8.1164C65.9747 8.1164 65.1428 8.50647 64.4028 9.28805C63.6585 10.0696 63.2893 10.9822 63.2893 12.0243C63.2893 13.0679 63.66 13.9805 64.4028 14.7606ZM85.0965 16.1724C84.4427 16.7925 83.5407 17.1025 82.3951 17.1025H78.2414V6.94912H79.7228V10.336H82.3746C83.5203 10.336 84.4252 10.646 85.0878 11.266C85.7504 11.8861 86.0802 12.704 86.0802 13.7185C86.0802 14.7344 85.7533 15.5524 85.098 16.1724H85.0965ZM82.3951 15.7285C83.0576 15.7285 83.5904 15.5393 83.9946 15.1652C84.3989 14.7897 84.6003 14.3065 84.6003 13.7141C84.6003 13.1218 84.3989 12.64 83.9946 12.2689C83.5904 11.8963 83.0504 11.71 82.3746 11.71H79.7228V15.727H82.3936L82.3951 15.7285ZM97.6099 14.4491C97.8347 15.4723 98.1061 16.3413 98.4272 17.0573C98.7483 17.7734 99.0723 18.4138 99.3963 18.9786C99.7218 19.5433 99.9976 19.9596 100.225 20.2274L100.557 20.6494L99.3963 21.2899C99.2607 21.1492 99.1326 21.0015 99.0125 20.8474C98.8548 20.648 98.5746 20.2186 98.1747 19.5622C97.7724 18.902 97.4192 18.2131 97.1181 17.5013C96.8145 16.7852 96.5343 15.8653 96.2789 14.7432C96.0245 13.6281 95.8962 12.4882 95.8965 11.3446C95.8965 10.2021 96.0133 9.07847 96.2526 7.97377C96.492 6.86761 96.7809 5.93611 97.1225 5.17927C97.4654 4.42242 97.8084 3.74709 98.1543 3.15471C98.4987 2.56233 98.7921 2.11842 99.0344 1.82296L99.3963 1.39941L100.557 2.03982C100.437 2.18127 100.321 2.3259 100.209 2.47355C100.062 2.66567 99.7962 3.07611 99.4167 3.70197C99.0373 4.32782 98.706 4.97987 98.4228 5.65229C98.1397 6.32909 97.877 7.1849 97.6347 8.2212C97.3944 9.24505 97.2729 10.2931 97.2728 11.3446C97.2728 12.3926 97.3852 13.426 97.6085 14.4491H97.6099ZM107.987 6.48046H116.676V7.85442H113.071V16.6338H111.592V7.85442H107.987V6.48046ZM129.194 10.1788C129.194 9.42778 128.956 8.81939 128.479 8.35073C128.003 7.88207 127.392 7.64774 126.646 7.64774C126.107 7.64774 125.602 7.77 125.129 8.01452C124.657 8.25904 124.312 8.50938 124.099 8.76409L123.778 9.12504L122.825 8.17462C122.866 8.11931 122.923 8.04945 122.996 7.96358C123.146 7.80286 123.304 7.65076 123.472 7.50802C123.717 7.29261 123.974 7.09757 124.245 6.92583C124.576 6.72557 124.932 6.57086 125.305 6.4659C125.744 6.332 126.191 6.26214 126.647 6.26214C127.806 6.26214 128.768 6.6391 129.531 7.39012C130.293 8.14115 130.675 9.06973 130.675 10.1788V16.6338H129.194V15.2598C129.154 15.3186 129.11 15.3755 129.064 15.4301C129.006 15.5029 128.874 15.631 128.672 15.8129C128.467 15.9949 128.248 16.1579 128.015 16.299C127.723 16.4634 127.411 16.5901 127.087 16.676C126.701 16.7858 126.301 16.8412 125.9 16.8405C124.886 16.8405 124.032 16.5407 123.337 15.9425C122.643 15.3428 122.297 14.6587 122.297 13.8873C122.297 13.0403 122.552 12.3562 123.063 11.8351C123.574 11.317 124.309 10.9764 125.268 10.8192L129.194 10.1788ZM128.267 14.5248C128.885 13.899 129.194 13.0868 129.194 12.0884V11.448L125.694 12.0884C124.425 12.3285 123.784 12.9282 123.778 13.8859C123.778 14.34 123.965 14.7155 124.341 15.0168C124.718 15.3152 125.237 15.4651 125.9 15.4651C126.86 15.4651 127.649 15.1521 128.267 14.5248ZM139.362 16.6338H137.881V6.48046H139.362V11.873L144.447 6.48046H146.26L142.334 10.6023L146.683 16.6338H144.985L141.381 11.6663L139.362 13.7825V16.6338ZM158.325 8.24157C158.1 7.21838 157.824 6.34946 157.496 5.63337C157.199 4.98028 156.877 4.33936 156.528 3.71215C156.21 3.14743 155.937 2.73117 155.71 2.46336L155.378 2.03982L156.539 1.39941C156.635 1.49548 156.762 1.64393 156.921 1.84333C157.08 2.04273 157.359 2.47064 157.76 3.12851C158.161 3.78638 158.515 4.47336 158.821 5.18945C159.128 5.90555 159.408 6.8254 159.66 7.94757C159.913 9.06973 160.038 10.2021 160.038 11.3446C160.038 12.4886 159.92 13.6123 159.682 14.717C159.443 15.8231 159.149 16.7546 158.801 17.5115C158.45 18.2683 158.109 18.9436 157.77 19.536C157.516 20.002 157.225 20.4473 156.9 20.8678L156.539 21.2913L155.378 20.6509C155.498 20.5094 155.614 20.3648 155.726 20.2172C155.872 20.025 156.139 19.6146 156.522 18.9888C156.906 18.3614 157.238 17.7109 157.515 17.037C157.797 16.3616 158.058 15.5058 158.299 14.4695C158.539 13.4452 158.661 12.3967 158.661 11.3446C158.661 10.2982 158.55 9.26477 158.325 8.24157Z" fill="#2D2D2D"/>
<path fill-rule="evenodd" clip-rule="evenodd" d="M100.532 6.31033L99.6081 1.99924L95.3275 3.10394L95.04 1.99487L100.479 0.591797L101.654 6.07164L100.532 6.31033ZM155.016 22.3656L154.009 16.8537L155.139 16.6485L155.932 20.9858L160.243 20.0107L160.497 21.1285L155.016 22.3656ZM0 6.94783H8.68962V8.32325H5.08476V17.1026H3.60486V8.32325H0V6.94783ZM15.3666 12.5572C15.4221 13.4727 15.8001 14.2645 16.5006 14.9325C17.2012 15.6006 18.0243 15.9339 18.9701 15.9339C19.6064 15.9339 20.196 15.7942 20.7418 15.5118C21.2877 15.2294 21.6744 14.9471 21.9021 14.6647L22.2641 14.2514L23.2171 15.2018C23.1576 15.2796 23.0973 15.3567 23.0361 15.4332C22.8754 15.6138 22.7023 15.7831 22.518 15.9397C22.2523 16.1774 21.9639 16.3885 21.6569 16.5699C21.2802 16.7816 20.8813 16.9515 20.4675 17.0764C19.9833 17.2303 19.4782 17.3084 18.9701 17.3079C17.5836 17.3079 16.3868 16.7941 15.3871 15.7636C14.3859 14.7346 13.8838 13.4872 13.8838 12.0201C13.8838 10.553 14.3801 9.30569 15.3725 8.27522C16.362 7.2462 17.5281 6.73242 18.8664 6.73242C20.2558 6.73242 21.4146 7.21272 22.3472 8.17188C23.2798 9.13249 23.7454 10.3463 23.7454 11.8135L23.6418 12.5776L15.3666 12.5572ZM16.5371 9.05535C15.8968 9.63927 15.4825 10.429 15.3666 11.2866H22.2641C22.1531 10.3696 21.7824 9.61279 21.1505 9.01459C20.8481 8.72176 20.4906 8.49152 20.0986 8.33714C19.7066 8.18276 19.2878 8.1073 18.8664 8.11511C17.9762 8.11511 17.1997 8.42949 16.5371 9.05535ZM37.5271 8.34362H31.6965V17.1026H30.2152V6.94928H39.0187V17.1026H37.5271V8.34362Z" fill="#2D2D2D"/>
</g>
<defs>
<clipPath id="clip0_1_1896">
<rect width="160.497" height="21.7738" fill="white" transform="translate(0 0.591797)"/>
</clipPath>
</defs>
</svg>
