<svg width="142" height="29" viewBox="0 0 142 29" fill="none" xmlns="http://www.w3.org/2000/svg">
<path d="M37.6982 19.0478V10.9061C37.6982 10.6029 37.8715 10.4297 38.1746 10.4297H40.2101C40.5132 10.4297 40.6864 10.6029 40.6864 10.9061V18.7447C40.6864 20.477 41.7691 21.04 42.8951 21.04C44.0211 21.04 45.1038 20.477 45.1038 18.7447V10.9061C45.1038 10.6029 45.277 10.4297 45.5802 10.4297H47.6589C47.9621 10.4297 48.1353 10.6029 48.1353 10.9061V19.0478C48.1353 21.6896 46.2731 23.9849 42.8518 23.9849C39.4305 23.9849 37.6982 21.6896 37.6982 19.0478Z" fill="black"/>
<path d="M50.3872 23.3353V10.9061C50.3872 10.6029 50.5604 10.4297 50.8636 10.4297H52.899C53.1589 10.4297 53.3754 10.5163 53.5053 10.7761L58.4424 18.5282V10.9061C58.4424 10.6029 58.6156 10.4297 58.9188 10.4297H60.9542C61.2574 10.4297 61.4306 10.6029 61.4306 10.9061V23.3353C61.4306 23.6384 61.2574 23.8117 60.9542 23.8117H58.8754C58.6156 23.8117 58.3991 23.725 58.2691 23.4652L53.3754 15.7565V23.292C53.3754 23.5951 53.2022 23.7684 52.899 23.7684H50.8636C50.5604 23.855 50.3872 23.6384 50.3872 23.3353Z" fill="black"/>
<path d="M63.6826 23.3353V10.9061C63.6826 10.6029 63.8558 10.4297 64.159 10.4297H66.1944C66.4976 10.4297 66.6708 10.6029 66.6708 10.9061V23.3353C66.6708 23.6384 66.4976 23.8117 66.1944 23.8117H64.159C63.8558 23.855 63.6826 23.6384 63.6826 23.3353Z" fill="black"/>
<path d="M68.6631 21.1264C68.5332 20.8665 68.6198 20.65 68.8363 20.4768L70.5253 19.2642C70.7852 19.0909 71.0017 19.1342 71.2182 19.3508C71.8245 20.0437 73.2104 20.9965 74.7261 20.9965C76.112 20.9965 76.4151 20.4768 76.4151 19.8705C76.4151 18.961 74.4663 18.6146 73.5135 18.2681C72.5608 17.9216 69.0529 17.2287 69.0529 14.1972C69.0529 11.209 71.6946 10.083 74.3797 10.083C76.7183 10.083 78.7537 11.3389 79.4899 12.6381C79.6632 12.898 79.5332 13.1145 79.3167 13.2878L77.7143 14.3704C77.4545 14.5437 77.2379 14.5004 77.0214 14.2838C76.4584 13.7641 75.2891 13.1145 73.9899 13.1145C73.0371 13.1145 72.5608 13.461 72.5608 14.024C72.5608 14.9334 74.3797 15.2799 75.3757 15.6263C76.3285 15.9728 79.8364 16.839 79.8364 19.6972C79.8364 22.5122 77.6277 23.9847 74.3797 23.9847C71.4348 24.0713 69.4859 22.6421 68.6631 21.1264Z" fill="black"/>
<path d="M81.5684 23.3353V10.9061C81.5684 10.6029 81.7416 10.4297 82.0447 10.4297H90.2731C90.5763 10.4297 90.7495 10.6029 90.7495 10.9061V12.6817C90.7495 12.9848 90.5763 13.1581 90.2731 13.1581H84.5999V15.7132H89.8401C90.1432 15.7132 90.3164 15.8864 90.3164 16.1896V17.9652C90.3164 18.2683 90.1432 18.4415 89.8401 18.4415H84.5999V20.9967H90.2731C90.5763 20.9967 90.7495 21.1699 90.7495 21.4731V23.2487C90.7495 23.5518 90.5763 23.725 90.2731 23.725H82.0447C81.7416 23.855 81.5684 23.6384 81.5684 23.3353Z" fill="black"/>
<path d="M92.8716 23.3353V10.9061C92.8716 10.6029 93.0448 10.4297 93.348 10.4297H95.3834C95.6433 10.4297 95.8598 10.5163 95.9897 10.7761L100.927 18.5282V10.9061C100.927 10.6029 101.1 10.4297 101.403 10.4297H103.439C103.742 10.4297 103.915 10.6029 103.915 10.9061V23.3353C103.915 23.6384 103.742 23.8117 103.439 23.8117H101.403C101.143 23.8117 100.927 23.725 100.797 23.4652L95.9031 15.7565V23.292C95.9031 23.5951 95.7299 23.7684 95.4267 23.7684H93.3913C93.0448 23.855 92.8716 23.6384 92.8716 23.3353Z" fill="black"/>
<path d="M106.167 23.3353V10.9061C106.167 10.6029 106.34 10.4297 106.643 10.4297H111.234C115.175 10.4297 117.817 13.1581 117.817 17.1423C117.817 21.1266 115.132 23.855 111.234 23.855H106.643C106.34 23.855 106.167 23.6384 106.167 23.3353ZM111.277 20.8668C112.187 20.8668 114.872 20.3904 114.828 17.099C114.828 13.851 112.187 13.3313 111.277 13.3313H109.199V20.8668H111.277Z" fill="black"/>
<path d="M119.722 23.3353V10.9061C119.722 10.6029 119.895 10.4297 120.199 10.4297H128.427C128.73 10.4297 128.903 10.6029 128.903 10.9061V12.6817C128.903 12.9848 128.73 13.1581 128.427 13.1581H122.754V15.7132H127.994C128.297 15.7132 128.47 15.8864 128.47 16.1896V17.9652C128.47 18.2683 128.297 18.4415 127.994 18.4415H122.754V20.9967H128.427C128.73 20.9967 128.903 21.1699 128.903 21.4731V23.2487C128.903 23.5518 128.73 23.725 128.427 23.725H120.199C119.939 23.855 119.722 23.6384 119.722 23.3353Z" fill="black"/>
<path d="M131.025 23.3353V10.9061C131.025 10.6029 131.199 10.4297 131.502 10.4297H137.521C139.514 10.4297 141.679 11.9021 141.679 14.977C141.679 17.1856 140.51 18.6148 139.081 19.1778L141.592 23.292C141.809 23.6384 141.636 23.8983 141.246 23.8983H138.821C138.561 23.8983 138.344 23.8117 138.214 23.5518L135.746 19.4809H133.97V23.3786C133.97 23.6817 133.797 23.855 133.494 23.855H131.458C131.242 23.855 131.025 23.6384 131.025 23.3353ZM137.045 16.536C137.911 16.536 138.691 15.973 138.691 14.9337C138.691 13.8943 137.911 13.3746 137.045 13.3746H134.1V16.536H137.045Z" fill="black"/>
<path d="M27.0882 10.7755C26.915 9.56293 26.2221 6.14165 23.4937 4.71251C21.6748 3.75975 18.6433 2.72037 14.5724 3.62983C11.7574 4.27944 10.8913 5.18889 10.0684 6.27157C9.11567 7.48418 9.15897 9.12986 8.98574 11.2086C8.94244 11.5551 8.68259 11.7716 8.33613 11.7716C6.64715 11.7283 4.78493 11.5551 3.00933 11.4251C2.66287 11.3818 2.35972 11.685 2.31641 12.0314C2.09988 17.5315 3.31248 20.5197 6.3873 22.2953C7.90306 23.1614 9.54874 23.6811 12.2771 23.0748C12.3204 23.1614 12.3637 23.2914 12.407 23.378C14.0094 27.189 13.6629 28.2717 17.5173 27.752C18.2102 27.6654 18.8598 27.4922 19.4661 27.2323C22.5843 25.9764 26.1355 22.8583 26.1788 19.4803C26.2221 15.4527 27.5213 13.7637 27.0882 10.7755Z" fill="white"/>
<path opacity="0.2" d="M20.8087 6.27223C27.478 15.4101 14.0094 16.9258 13.2299 11.5124C12.4936 6.48877 19.163 3.97694 20.8087 6.27223Z" fill="#131313"/>
<path d="M21.0685 8.65344C20.5488 7.44084 19.163 6.35815 17.7338 6.618C17.3874 6.66131 17.4307 7.18099 17.7771 7.13769C18.9464 6.92115 20.1157 7.8306 20.5488 8.86998C20.6787 9.17313 21.1984 8.9999 21.0685 8.65344Z" fill="#131313"/>
<path d="M14.1823 20.5196C14.0091 20.5629 13.8358 20.5629 13.7492 20.5629C13.3595 20.6062 13.0563 20.3464 13.013 19.9566C12.9697 19.6102 13.2295 19.2637 13.6193 19.2204C13.9658 19.1771 17.1272 18.8306 18.1233 16.9684C18.2965 16.622 18.6863 16.492 19.0327 16.6653C19.3792 16.8385 19.5091 17.2283 19.3359 17.5747C18.2099 19.6968 15.3949 20.3464 14.1823 20.5196Z" fill="#131313"/>
<path d="M7.68647 15.8433C8.03293 15.7134 8.29277 15.3669 8.16285 15.0638C8.07624 14.7173 7.68647 14.5441 7.34001 14.674C6.99355 14.8039 6.73371 15.1504 6.86363 15.4535C6.95025 15.7567 7.2967 15.9732 7.68647 15.8433Z" fill="#131313"/>
<path d="M7.59952 17.1849C7.85937 17.0983 7.98929 16.8818 7.94598 16.6219C7.85937 16.4054 7.64283 16.2755 7.38299 16.3621C7.12314 16.4487 6.99322 16.6652 7.03653 16.9251C7.12314 17.1416 7.38299 17.2715 7.59952 17.1849Z" fill="#131313"/>
<path d="M9.20206 16.6224C9.46191 16.5358 9.59183 16.3193 9.54852 16.0594C9.46191 15.8429 9.24537 15.713 8.98552 15.7996C8.72568 15.8862 8.59576 16.1027 8.63907 16.3626C8.72568 16.5358 8.98552 16.6657 9.20206 16.6224Z" fill="#131313"/>
<path d="M19.2062 11.2958C19.3794 10.1698 18.9463 9.1737 18.2101 9.04377C17.4739 8.91385 16.7377 9.73669 16.5644 10.8627C16.3912 11.9887 16.8243 12.9847 17.5605 13.1147C18.2967 13.2446 19.0329 12.4217 19.2062 11.2958Z" fill="#131313"/>
<path d="M12.5366 11.1223C12.7532 10.2995 12.4933 9.56324 11.9736 9.39001C11.454 9.26009 10.8043 9.77978 10.5878 10.5593C10.3713 11.3822 10.6311 12.1184 11.1508 12.2916C11.7138 12.4648 12.3201 11.9018 12.5366 11.1223Z" fill="#131313"/>
<path d="M18.1235 11.0787C18.1235 11.4684 18.47 11.8149 18.8598 11.8149C18.9464 11.8149 19.033 11.8149 19.1196 11.7716C19.1629 11.6417 19.2062 11.4684 19.2495 11.2952C19.2928 10.992 19.2928 10.7322 19.2495 10.4724C19.1196 10.3857 18.9897 10.3857 18.8598 10.3857C18.47 10.3857 18.1235 10.6889 18.1235 11.0787Z" fill="white"/>
<path d="M12.1468 10.3857C11.8004 10.3857 11.5405 10.6456 11.5405 10.992C11.5405 11.3385 11.8004 11.5983 12.1468 11.5983C12.2334 11.5983 12.3201 11.5983 12.4067 11.555C12.45 11.4251 12.4933 11.2952 12.5366 11.1653C12.5799 10.992 12.6232 10.8188 12.6232 10.6456C12.5366 10.4724 12.3634 10.3857 12.1468 10.3857Z" fill="white"/>
<path d="M30.4227 3.84668C28.4739 0.945092 24.0132 2.201 19.5525 0.598633C19.2494 1.46478 19.2494 2.24431 19.4659 2.93723C18.9462 2.85061 18.3832 2.80731 17.7769 2.80731C17.2573 2.80731 16.7376 2.85062 16.2179 2.89392C16.2179 2.85062 16.2179 2.80731 16.1746 2.764C15.6116 0.468712 8.33594 2.72069 6.3438 1.50809C6.51703 3.9333 7.94617 5.31913 9.33201 7.05143C8.94224 8.13411 8.94224 9.47664 8.81232 11.0357C8.76901 11.3822 8.50917 11.642 8.16271 11.5987C7.46979 11.5987 6.73357 11.5554 5.95404 11.5121C5.26112 9.95302 -0.195608 9.00026 0.410695 12.5515C0.713847 14.2404 1.32015 15.4964 2.09968 16.1893C2.57606 19.2641 3.83198 21.1696 6.12727 22.5121C7.16664 23.1185 8.50917 23.4649 10.1115 23.4649C10.9344 23.4649 11.2808 23.5082 12.2336 23.2917C12.2769 23.3783 12.3635 23.5082 12.4068 23.5948C13.836 26.9295 13.1864 28.2287 16.1313 28.2287C16.6509 28.2287 17.2139 28.1854 17.7769 28.0988C18.4699 28.0122 19.1628 27.7956 19.8124 27.5358C23.0171 26.2366 27.4345 23.1185 27.4778 19.6539C27.5211 15.7995 27.9975 13.894 27.651 11.1223C29.5998 9.73648 30.466 7.00812 30.8125 5.62228C30.8991 5.01598 30.7691 4.36637 30.4227 3.84668ZM26.0486 19.6539C26.0053 22.6854 21.9344 25.1972 19.2494 26.3232C18.6864 26.5397 18.1234 26.713 17.5604 26.7996C16.9974 26.8429 16.521 26.8862 16.088 26.8862C14.0958 26.8862 15.0053 26.3665 13.6194 23.0751C13.5761 22.9885 13.5328 22.9019 13.4895 22.8153C13.4895 22.772 13.4462 22.772 13.4462 22.7287L13.0131 21.7759L11.9738 21.9925C11.1509 22.1657 10.8911 22.1224 10.1115 22.1224C8.85563 22.1224 7.68633 21.8625 6.77688 21.3429C5.30443 20.4767 4.30836 19.3074 3.78867 17.6184C3.65875 17.1853 3.78867 16.6657 4.13513 16.4058C4.69812 15.9727 5.21781 15.1499 5.60758 13.7641C5.7375 13.2444 6.25719 12.8979 6.77688 12.9412C7.20995 12.9845 7.64302 12.9845 8.0761 12.9845H8.1194C9.15878 12.9845 9.98162 12.205 10.1115 11.1656C10.1548 10.8192 10.1548 10.4727 10.1982 10.1696C10.2848 9.30341 10.3281 8.56718 10.458 7.91757C10.9777 7.22466 11.8438 6.79158 12.6667 6.79158C13.0131 6.79158 13.0131 6.22859 12.6667 6.2719C12.1037 6.2719 11.4974 6.48843 10.9777 6.79158C11.6273 5.96874 12.2769 5.18921 14.8753 4.58291C15.8714 4.36637 16.8242 4.23645 17.7769 4.23645C18.6864 4.23645 19.5525 4.32306 20.3754 4.5396C22.151 6.53174 25.529 8.22073 26.2652 11.5121C26.525 14.0239 26.092 15.8428 26.0486 19.6539Z" fill="#131313"/>
<path d="M2.31635 11.6851C2.66281 11.5552 2.92266 11.2087 2.79273 10.9056C2.70612 10.5591 2.31635 10.3859 1.9699 10.5158C1.62344 10.6457 1.36359 10.9922 1.49351 11.2953C1.58013 11.5985 1.92659 11.7717 2.31635 11.6851Z" fill="white"/>
</svg>
