<svg width="246" height="246" viewBox="0 0 246 246" fill="none" xmlns="http://www.w3.org/2000/svg">
<mask id="mask0_1_1197" style="mask-type:alpha" maskUnits="userSpaceOnUse" x="0" y="0" width="246" height="246">
<rect width="246" height="246" rx="10" fill="#D9D9D9"/>
</mask>
<g mask="url(#mask0_1_1197)">
</g>
<g clip-path="url(#clip0_1_1197)">
<path d="M211.531 239.575C210.582 231.187 209.386 222.837 206.118 214.94C203.538 208.247 199.601 202.153 194.551 197.037C187.769 190.428 179.051 188.453 170.098 187.104C165.03 186.332 159.913 185.756 155.091 183.879C153.155 183.28 151.389 182.234 149.937 180.826L154.869 180.311C162.354 179.465 169.778 178.263 176.782 175.345C184.859 171.973 189.976 166.16 191.888 157.552C192.876 152.614 193.376 147.591 193.38 142.556C193.649 127.854 192.704 113.155 190.556 98.6076C189.367 89.2808 186.769 80.186 182.849 71.6306C174.217 53.4702 161.183 40.0675 141.847 33.2864C133.327 30.2699 124.744 28.7739 115.853 31.3367C115.449 31.4406 115.024 31.4406 114.62 31.3367C111.047 30.6398 107.363 30.7319 103.83 31.6065C96.1422 33.2505 88.8704 36.4308 82.456 40.9543C76.0416 45.4779 70.6185 51.2503 66.5157 57.9214C59.5609 68.8348 57.8838 81.281 57.3536 93.8989C56.7863 107.508 56.9098 121.136 57.7235 134.732C58.1157 142.911 59.6513 150.996 62.2861 158.754C64.3844 165.377 68.7018 171.086 74.5187 174.928C81.019 178.879 88.4148 181.139 96.0244 181.501C100.085 181.803 104.167 181.659 108.195 181.071C108.105 181.383 107.99 181.686 107.85 181.979C105.002 186.246 100.821 188.417 95.9381 189.606C90.611 190.894 85.1483 191.359 79.7965 192.451C72.669 193.898 65.8498 196.129 60.5351 201.341C52.865 208.895 48.4258 218.202 45.8855 228.502C44.4674 234.253 43.9002 240.151 43 246H211.482C212.469 243.867 211.778 241.708 211.531 239.575ZM151.885 188.686C152.859 186.871 153.833 186.442 155.584 187.387C156.469 187.745 157.386 188.02 158.322 188.208C158.655 188.306 159.161 188.306 159.111 188.883C158.147 190.771 156.853 192.473 155.288 193.91C154.684 194.388 153.747 193.334 152.983 192.929C150.183 191.421 150.356 191.482 151.885 188.686ZM143.611 196.657C143.599 196.613 143.599 196.566 143.611 196.522C143.685 196.191 143.944 196.142 144.19 195.995C144.544 195.78 144.886 195.547 145.214 195.296C145.88 194.838 146.533 194.36 147.175 193.861C147.4 193.664 147.689 193.556 147.988 193.556C148.288 193.556 148.577 193.664 148.802 193.861C149.542 194.339 150.319 194.768 151.084 195.21C153.352 196.51 153.352 196.51 151.379 198.361C148.913 200.716 148.913 200.703 146.176 198.766C145.695 198.41 145.202 198.079 144.708 197.736C144.215 197.393 143.623 197.172 143.611 196.657ZM145.695 202.432C145.695 202.984 145.091 203.18 144.659 203.438C144.227 203.695 143.426 204.112 142.871 204.419C141.67 205.01 140.435 205.53 139.172 205.976C138.284 206.295 137.938 206.074 137.815 205.179C137.63 203.953 137.236 202.727 137.063 201.586C136.94 200.679 135.916 199.465 137.186 198.901C138.456 198.337 139.973 197.503 141.514 198.974C142.191 199.587 142.926 200.134 143.709 200.605C144.277 200.985 145.633 201.562 145.707 202.322C145.709 202.359 145.705 202.396 145.695 202.432ZM149.394 186.81C147.52 189.592 145.026 191.907 142.107 193.576C139.188 195.245 135.922 196.224 132.562 196.436C126.33 197.109 120.042 195.822 114.583 192.757C112.43 191.559 110.537 189.951 109.009 188.024C108.504 187.386 108.06 186.7 108.763 185.854C112.955 180.826 113.584 174.732 113.695 168.576C113.695 166.553 114.176 165.915 116.161 166.259C116.982 166.327 117.807 166.327 118.628 166.259C125.829 166.111 132.969 165.511 139.751 162.874C140.984 162.371 141.219 162.764 141.231 163.953C141.09 169.016 142.097 174.045 144.178 178.668C145.271 180.866 146.936 182.733 149 184.076C150.282 184.934 150.183 185.731 149.431 186.81H149.394ZM133.573 207.178H132.969C131.586 207.335 130.192 207.388 128.801 207.337C128.012 207.337 126.816 207.19 127.112 206.111C127.413 204.812 127.647 203.498 127.814 202.175C127.909 201.235 128.348 200.362 129.048 199.722C130.15 199.178 131.421 199.073 132.599 199.428C133.832 199.71 133.906 200.826 134.128 201.881C134.424 203.217 134.806 204.566 135.041 205.927C135.065 206.106 135.065 206.288 135.041 206.467C135.041 206.601 134.843 206.822 134.843 206.908C134.456 207.12 134.014 207.214 133.573 207.178ZM125.373 200.36C124.978 202.15 124.571 203.928 124.226 205.731C124.053 206.651 123.634 207.055 122.672 206.822C121.082 206.454 118.973 206.552 118.023 205.596C116.79 204.37 118.689 202.861 119.047 201.415C119.294 200.409 119.454 198.815 120.49 198.705C122.046 198.711 123.593 198.95 125.077 199.416C125.681 199.502 125.459 199.968 125.373 200.36ZM116.852 198.974C116.433 199.931 116.013 200.875 115.619 201.844C115.434 202.334 115.249 202.812 115.089 203.303C114.928 203.793 114.879 204.174 114.534 204.394C114.188 204.615 113.757 204.394 113.399 204.21C112.363 203.769 111.303 203.34 110.267 202.874C109.576 202.567 107.801 201.966 108.824 201.071C110.452 199.624 112.092 198.202 113.683 196.706C114.62 195.823 116.149 196.608 116.988 197.233C117.134 197.335 117.249 197.475 117.321 197.638C117.444 197.969 117.111 198.349 116.988 198.643L116.852 198.974ZM129.504 33.4336C150.467 37.0387 166.004 48.1483 176.572 66.5417C182.738 77.1731 185.981 88.6138 187.67 100.655C189.792 115.891 190.617 131.278 190.137 146.651C190.048 150.871 189.397 155.06 188.201 159.11C185.734 167.129 179.754 171.262 171.874 173.739C172.898 169.287 173.859 165.069 174.821 160.863C177.743 148.114 178.876 135.025 178.188 121.967C177.719 112.954 177.152 103.929 175.154 95.0761C170.641 75.0518 160.936 58.3996 143.34 46.9221C142.661 46.4807 141.958 46.0515 141.231 45.6959C140.503 45.3403 139.628 45.1441 139.061 46.0147C138.493 46.8853 139.061 47.5475 139.763 48.0502C141.453 49.2151 143.192 50.3065 144.819 51.5327C158.384 61.6981 166.596 75.3215 170.986 91.4342C171.331 92.6604 170.814 92.8075 169.827 92.7708C167.757 92.666 165.705 93.2061 163.957 94.3158C162.638 95.1742 162.28 94.7205 161.898 93.4697C159.73 86.2722 156.01 79.6312 150.997 74.0095C145.029 67.2897 137.31 63.2309 128.986 60.2757C119.161 56.638 108.798 54.641 98.3181 54.3653C96.7766 54.3653 96.641 53.9239 97.0849 52.575C101.697 39.81 116.198 31.1528 129.504 33.4336ZM89.8588 177.528C74.8517 174.769 66.4294 165.596 63.1863 150.955C61.4541 142.89 60.5167 134.677 60.3871 126.431C60.1733 116.09 60.1733 105.744 60.3871 95.3949C60.4647 87.1658 61.6678 78.9854 63.9632 71.0788C68.2668 56.9772 77.6015 47.2777 90.0561 40.0552C95.051 37.0664 100.577 35.0599 106.333 34.1448C106.741 34.0712 107.153 34.022 107.567 33.9977C108.084 33.9977 108.602 33.9977 109.589 33.9977C105.023 36.6162 101.092 40.1993 98.0714 44.4942C96.175 47.1673 94.7567 50.1457 93.8788 53.2985C93.8023 53.7179 93.602 54.1052 93.3033 54.4109C93.0046 54.7167 92.6211 54.927 92.2018 55.0152C72.669 61.0973 63.3219 76.8175 64.4071 96.2165C64.7342 101.191 66.0768 106.048 68.3531 110.49C68.6135 110.994 68.7656 111.546 68.7995 112.112C68.8335 112.678 68.7487 113.245 68.5504 113.776C64.4934 126.983 65.6155 139.429 74.1734 150.747C77.6706 155.239 82.2749 158.757 87.5405 160.961C87.9272 161.061 88.2869 161.245 88.5939 161.5C88.9008 161.754 89.1475 162.073 89.3162 162.433C91.3882 167.84 94.0952 172.985 97.3809 177.761C97.4885 177.991 97.5672 178.234 97.6152 178.484C95.0058 178.401 92.4095 178.081 89.8588 177.528ZM89.8588 158.533C74.8023 152.77 68.686 137.074 69.2779 126.369C69.4824 121.677 70.4012 117.042 72.0031 112.623C72.1661 112.228 72.2342 111.801 72.2021 111.375C72.17 110.95 72.0385 110.537 71.8182 110.171C61.4969 91.6058 68.9943 62.6178 96.2094 57.063C99.1319 56.4622 102.375 57.2224 105.372 57.6516C115.968 59.0073 126.282 62.0245 135.928 66.5908C146.842 71.9249 153.809 80.6679 158.026 91.7775C158.936 93.9786 159.646 96.2562 160.147 98.5831C160.167 98.9634 160.322 99.3243 160.584 99.6024C160.845 99.8805 161.197 100.058 161.577 100.104C162.527 100.177 163.02 99.6131 163.39 98.7547C164.34 96.5353 169.556 94.7082 171.615 95.8241C171.791 95.9318 171.94 96.0766 172.053 96.2483C172.166 96.4199 172.24 96.6142 172.269 96.8173C172.317 97.2895 172.403 97.757 172.528 98.2152C174.205 102.164 172.281 104.776 169.174 107.069C168.557 105.916 167.94 104.788 167.348 103.647C166.88 102.789 166.374 101.808 165.191 102.311C164.964 102.41 164.766 102.561 164.611 102.753C164.457 102.945 164.352 103.171 164.305 103.412C164.257 103.653 164.27 103.902 164.34 104.137C164.411 104.372 164.537 104.587 164.71 104.763C167.028 107.976 167.459 110.894 163.76 113.433C163.596 113.562 163.463 113.727 163.372 113.915C163.28 114.103 163.233 114.309 163.233 114.518C163.233 114.727 163.28 114.933 163.372 115.12C163.463 115.308 163.596 115.473 163.76 115.603C164.525 116.339 165.326 116.008 165.93 115.37C167.792 113.371 169.63 111.336 171.442 109.313C172.158 108.516 172.861 107.694 173.835 106.603C174.439 111.324 174.821 115.677 174.957 120.091C174.957 121.06 174.353 121.391 173.724 121.734C170.024 123.672 166.436 122.826 163.02 120.839C161.898 120.189 160.554 118.644 159.543 120.336C158.532 122.029 160.32 122.789 161.466 123.537C162.102 124.056 162.836 124.444 163.624 124.677C165.733 125.057 165.881 126.185 165.449 128C162.367 140.778 155.683 150.98 143.993 157.503C137.174 161.163 129.546 163.081 121.797 163.083C110.822 163.303 100.155 162.433 89.8588 158.533ZM108.676 193.162C110.008 192.451 110.612 193.603 111.241 194.18C111.87 194.756 110.871 195.247 110.489 195.651C109.823 196.327 109.123 196.97 108.393 197.576C105.236 200.434 104.619 200.36 101.795 196.657C104.101 195.541 106.42 194.376 108.676 193.162ZM105.063 189.066C105.323 188.937 105.611 188.874 105.902 188.883C106.346 188.968 106.531 189.508 106.79 189.827C107.443 190.648 106.79 190.857 106.235 191.139C104.36 192.132 102.474 193.101 100.612 194.094C100.356 194.272 100.042 194.347 99.7332 194.303C99.4243 194.26 99.1433 194.102 98.9469 193.861C98.6757 193.505 98.2071 193.076 98.1577 192.635C98.1577 191.936 99.1936 191.715 99.6868 191.494L104.212 189.508L105.063 189.066ZM73.002 241.794C73.002 243.02 72.521 243.266 71.4359 243.253C67.5269 243.253 63.6302 243.253 59.7212 243.253C55.8122 243.253 52.0511 243.253 48.2161 243.253C47.131 243.253 46.6007 243.082 46.7487 241.819C48.2408 229.287 51.3729 217.355 59.4499 207.202C61.3118 204.846 63.4853 202.751 65.9115 200.973C67.2433 200.004 67.9215 200.066 68.5134 201.721C70.4569 207.099 71.8089 212.669 72.5457 218.336C73.5322 226.197 72.9896 233.995 72.9773 241.819L73.002 241.794ZM182.146 243.143C181.603 243.143 181.049 243.143 180.506 243.143C163.526 243.143 146.546 243.217 129.565 243.217H78.7607C75.8628 243.217 75.7148 243.143 75.9491 240.274C76.5888 232.876 76.4317 225.431 75.4806 218.067C74.7386 211.779 73.1286 205.622 70.696 199.771C70.2151 198.656 70.5727 198.435 71.4729 198.055C76.0891 196.339 80.8889 195.158 85.7772 194.535C88.2434 194.131 90.7713 193.775 93.2622 193.309C93.7366 193.152 94.2508 193.163 94.7182 193.339C95.1855 193.516 95.5772 193.847 95.8271 194.278C102.782 204.198 112.869 208.527 124.522 210.084C131.785 211.04 138.74 210.268 145.202 206.675C151.972 202.869 157.629 197.375 161.614 190.734C161.865 190.153 162.333 189.69 162.919 189.443C163.505 189.196 164.164 189.184 164.759 189.41C171.023 190.464 177.361 191.126 183.256 193.591L183.638 193.726C186.437 194.854 186.351 194.842 185.599 197.699C182.408 209.549 181.229 221.845 182.109 234.081C182.319 236.791 182.417 239.513 182.861 242.199C183.046 242.959 182.824 243.18 182.121 243.168L182.146 243.143ZM207.437 243.143C200.816 243.082 194.181 243.143 187.547 243.143C186.474 243.143 186.154 242.751 186.03 241.757C185.135 235.02 184.829 228.217 185.118 221.427C185.406 214.096 186.409 206.811 188.114 199.673C188.361 198.692 188.694 197.736 189.076 196.534C192.096 198.73 194.723 201.416 196.845 204.48C202.519 212.607 206.124 221.982 207.351 231.8C207.832 235.087 208.19 238.398 208.584 241.696C208.745 242.714 208.634 243.204 207.413 243.192L207.437 243.143Z" fill="#4039A3"/>
<path d="M124.25 93.6044C123.166 93.8759 122.141 94.3458 121.229 94.9901C120.465 95.4315 119.626 95.6277 119.034 94.7939C118.442 93.96 118.936 93.1017 119.75 92.5744C123.609 90.1219 127.728 89.0551 132.241 90.5634C133.154 90.8543 134.048 91.2024 134.917 91.6057C136.021 92.2275 137.242 92.6179 138.504 92.7529C139.766 92.8879 141.042 92.7645 142.254 92.3905C143.117 92.0839 144.104 92.0594 144.449 93.1875C144.794 94.3156 144.128 94.8674 143.216 95.2476C141.082 96.0326 138.749 96.1058 136.569 95.456C135.719 95.2476 134.905 94.9042 133.832 94.5486C134.621 96.3512 134.263 97.2954 132.303 97.7736C131.67 97.9851 131.139 98.4245 130.815 99.0053C130.491 99.5862 130.397 100.267 130.552 100.913C130.569 101.242 130.652 101.564 130.797 101.86C130.942 102.156 131.145 102.42 131.395 102.636C131.645 102.853 131.936 103.017 132.251 103.119C132.565 103.221 132.898 103.259 133.228 103.23C134.3 103.23 134.337 103.684 134.165 104.457C133.836 106.339 133.104 108.128 132.019 109.705C129.861 112.574 126.396 112.427 124.62 109.263C122.253 104.923 122.684 100.349 123.794 95.7749C123.979 95.1004 124.509 94.5364 124.25 93.6044Z" fill="#4039A3"/>
<path d="M89.489 94.794C89.7603 95.7749 89.9083 96.4248 90.1179 97.0625C90.4015 97.9086 90.2412 98.3868 89.2917 98.7179C88.6928 98.9039 88.1768 99.2898 87.8308 99.8103C87.4848 100.331 87.3301 100.954 87.3927 101.575C87.3954 102.164 87.5994 102.736 87.9713 103.194C88.3433 103.653 88.861 103.973 89.4397 104.101C90.4139 104.359 90.4015 104.898 90.2659 105.609C90.0436 107.303 89.404 108.917 88.4039 110.306C86.5049 112.758 83.6317 112.758 81.893 110.134C79.92 107.228 79.6487 103.905 79.7843 100.533C79.846 99.0735 80.1296 97.6143 80.3269 95.9957C78.3309 96.6133 76.2516 96.9234 74.1613 96.9153C73.4083 96.9061 72.6669 96.7302 71.991 96.4003C71.717 96.2543 71.5037 96.0167 71.3886 95.7296C71.2736 95.4424 71.2642 95.1241 71.3621 94.8307C71.4133 94.5546 71.5707 94.3092 71.801 94.1466C72.0312 93.9841 72.3161 93.9172 72.5952 93.9601C76.5289 94.5487 79.9323 92.8075 83.4714 91.5935C86.5788 90.5267 89.5383 91.3115 92.3499 92.8197C93.361 93.3593 94.0763 94.1441 93.4104 95.2722C92.7445 96.4003 91.7703 95.9589 90.8701 95.4929C90.5248 95.2967 90.1549 95.125 89.489 94.794Z" fill="#4039A3"/>
<path d="M100.069 109.116C100.316 111.213 99.9953 113.322 100.415 115.419C100.498 115.823 100.449 116.243 100.273 116.616C100.098 116.989 99.8056 117.296 99.4404 117.491C98.6784 117.968 98.0999 118.685 97.7979 119.528C97.4959 120.371 97.4881 121.291 97.7757 122.139C98.2442 124.052 99.835 124.8 101.611 125.02C102.756 125.244 103.939 125.196 105.062 124.878C106.185 124.561 107.217 123.983 108.072 123.193C108.787 122.482 109.651 122.176 110.428 122.899C111.204 123.623 110.859 124.628 110.193 125.425C107.727 128.405 99.2924 129.607 95.9753 125.168C95.0548 123.845 94.6015 122.256 94.6863 120.649C94.7711 119.043 95.3892 117.51 96.4439 116.29C97.0729 115.587 97.3966 114.666 97.3441 113.727C97.2577 110.392 97.2331 107.056 97.1838 103.733C97.1838 102.74 97.1838 101.624 98.4169 101.526C99.65 101.428 100.02 102.593 100.045 103.635C100.119 105.438 100.069 107.252 100.069 109.116Z" fill="#4039A3"/>
<path d="M118.356 143.426C117.74 143.379 117.127 143.302 116.519 143.193C113.329 142.326 109.927 142.708 107.012 144.26C104.693 145.486 102.35 144.763 100.316 143.218C100.135 143.117 99.977 142.979 99.8534 142.813C99.7298 142.647 99.643 142.457 99.5987 142.256C99.5544 142.054 99.5537 141.845 99.5965 141.643C99.6393 141.441 99.7247 141.251 99.8471 141.084C99.9537 140.926 100.094 140.793 100.258 140.694C100.422 140.596 100.606 140.534 100.797 140.514C100.987 140.495 101.18 140.517 101.361 140.579C101.542 140.641 101.707 140.743 101.845 140.876C103.768 142.372 105.544 141.942 107.517 140.876C110.452 139.269 113.596 139.649 116.716 140.201C118.122 140.52 119.588 140.468 120.968 140.051C122.347 139.633 123.594 138.865 124.584 137.822C125.299 137.099 126.1 136.473 127.05 137.307C127.999 138.141 127.531 139.171 126.803 139.968C124.621 142.421 121.735 143.267 118.356 143.426Z" fill="#4039A3"/>
<path d="M131.095 80.0424C134.808 80.0475 138.484 80.7852 141.909 82.2128C142.537 82.4759 143.133 82.8091 143.685 83.206C144.523 83.8437 145.424 84.6284 144.634 85.7443C143.845 86.8602 142.896 86.2961 141.946 85.7443C135.978 82.3599 129.689 82.4335 123.264 84.0399C122.87 84.138 122.487 84.2851 122.031 84.4077C121.057 84.702 120.021 84.886 119.651 83.6475C119.281 82.409 120.255 82.0043 121.205 81.6732C124.403 80.6496 127.735 80.1001 131.095 80.0424Z" fill="#4039A3"/>
<path d="M85.9006 81.0111C87.1337 81.1828 88.7738 81.3667 90.4262 81.7101C90.6872 81.7256 90.9409 81.8021 91.1666 81.9334C91.3923 82.0646 91.5838 82.2469 91.7255 82.4654C91.8672 82.6839 91.9552 82.9326 91.9822 83.1912C92.0093 83.4499 91.9747 83.7112 91.8813 83.9541C91.4743 85.1803 90.5372 84.8983 89.5137 84.6285C86.868 83.9061 84.0903 83.8013 81.3973 84.3225C78.7042 84.8436 76.1687 85.9765 73.9886 87.6327C73.1501 88.2336 72.3362 89.2023 71.3867 88.0864C70.4372 86.9706 71.3867 86.0754 72.2129 85.3887C76.0726 82.3109 80.5365 81.1092 85.9006 81.0111Z" fill="#4039A3"/>
<path d="M111.167 131.372C112.24 131.544 113.115 131.887 113.041 133.052C113.05 133.295 113.006 133.537 112.912 133.762C112.818 133.987 112.677 134.189 112.499 134.355C112.32 134.521 112.108 134.648 111.876 134.725C111.644 134.803 111.398 134.83 111.155 134.806C110.914 134.808 110.676 134.756 110.458 134.654C110.241 134.552 110.05 134.402 109.899 134.215C109.748 134.028 109.642 133.81 109.588 133.577C109.534 133.344 109.534 133.101 109.589 132.868C109.588 132.665 109.63 132.465 109.71 132.278C109.79 132.092 109.907 131.923 110.055 131.784C110.203 131.644 110.377 131.535 110.569 131.464C110.76 131.394 110.963 131.362 111.167 131.372Z" fill="#4039A3"/>
</g>
<defs>
<clipPath id="clip0_1_1197">
<rect width="169" height="216" fill="white" transform="translate(43 30)"/>
</clipPath>
</defs>
</svg>
