<svg width="246" height="246" viewBox="0 0 246 246" fill="none" xmlns="http://www.w3.org/2000/svg">
<mask id="mask0_1_1091" style="mask-type:alpha" maskUnits="userSpaceOnUse" x="0" y="0" width="246" height="246">
<rect width="246" height="246" rx="10" fill="#F3A7C5"/>
</mask>
<g mask="url(#mask0_1_1091)">
</g>
<g clip-path="url(#clip0_1_1091)">
<path d="M83.1695 121.566C83.3538 120.41 82.8008 119.798 81.614 119.613C81.2338 119.613 80.8651 119.474 80.4619 119.382C77.881 118.7 77.4662 118.042 77.9616 115.419C78.1805 114.263 78.4801 113.038 78.6299 111.837C78.699 111.317 78.699 110.681 78.0538 110.577C77.4086 110.473 77.2012 111.005 77.0744 111.513C76.8094 112.576 76.6366 113.651 76.2794 114.679C75.8186 115.996 75.1273 116.158 74.2286 115.153C73.3244 114.145 72.5502 113.027 71.9242 111.825C71.6362 111.294 71.2444 110.473 70.5416 110.797C69.8387 111.12 70.1383 112.045 70.4379 112.634C71.4102 114.711 72.7991 116.565 74.5179 118.08C76.2366 119.595 78.2483 120.738 80.4273 121.439C80.5182 121.498 80.6147 121.548 80.7153 121.589C81.0807 121.354 81.5049 121.227 81.9391 121.222C82.3733 121.218 82.7998 121.337 83.1695 121.566Z" fill="#4039A3"/>
<path d="M190.368 231.811C187.419 221.642 182.718 212.572 174.238 205.847C169.343 202.149 163.996 199.096 158.326 196.765C153.314 194.558 148.141 192.617 143.889 188.988C142.092 187.469 140.645 185.577 139.649 183.442C144.534 184.482 149.074 184.228 153.591 184.089C160.677 183.964 167.703 182.768 174.434 180.542C187.338 176.082 194.816 165.336 194.977 151.655C195.113 143.795 192.867 136.079 188.536 129.527C186.023 125.794 184.412 121.524 183.83 117.058C183.248 112.591 183.711 108.05 185.183 103.794C187.89 95.148 188.618 86.001 187.315 77.0334C184.573 57.4479 174.145 43.4204 156.609 34.9275C144.719 29.1848 131.964 28.1449 119.014 29.5777C113.356 30.2132 108.01 31.8886 104.162 36.603C103.586 37.2963 103.114 37.0074 102.503 36.7763C99.9266 35.8271 97.1648 35.4948 94.4376 35.8057C88.3368 36.5299 82.4769 38.6231 77.2932 41.9298C53.3509 56.3271 43.6956 84.9831 46.4724 110.415C47.4347 117.913 49.4681 125.233 52.5098 132.15C55.1343 137.996 56.7436 144.248 57.2683 150.638C57.7522 158.946 55.5055 166.352 49.5026 172.361C47.9011 173.967 47.9241 174.672 49.6869 176.035C50.9811 177.079 52.3878 177.975 53.8809 178.704C66.7968 185.048 80.4617 186.342 94.5298 184.632C97.8741 184.126 101.154 183.258 104.312 182.044C102.972 184.813 100.822 187.107 98.1477 188.619C94.1016 191.045 89.8625 193.132 85.4737 194.858C77.6043 198.232 70.2303 202.415 64.6538 209.105C55.7705 219.77 52.7633 232.677 50.9198 246H192.972C193.218 245.348 193.297 244.645 193.203 243.955C192.408 239.876 191.532 235.832 190.368 231.811ZM109.232 35.6902C112.455 33.7038 116.114 32.5376 119.889 32.293C131.469 31.3109 142.933 32.0619 153.648 36.8457C171.622 44.8416 182.072 58.7999 184.55 78.4431C185.643 86.4041 184.966 94.5089 182.568 102.177C179.273 112.484 180.264 122.236 186.22 131.387C189.908 136.898 191.961 143.345 192.143 149.979C192.546 164.792 184.204 175.4 169.387 178.959C169.156 178.989 168.928 179.044 168.707 179.12L167.993 179.259L166.576 179.513C165.988 179.617 165.423 179.744 164.824 179.814C164.527 179.858 164.227 179.885 163.926 179.895C163.718 179.895 163.373 179.895 163.223 179.744C163.073 179.594 163.292 179.467 163.396 179.375C163.787 179.028 164.191 178.693 164.548 178.335C165.809 177.153 167.005 175.903 168.131 174.591C169.246 173.305 170.284 171.954 171.242 170.547C172.2 169.155 173.069 167.704 173.846 166.202C174.636 164.708 175.328 163.164 175.92 161.58C176.522 159.945 177.022 158.274 177.418 156.577C178.684 152.055 178.791 147.286 177.729 142.711C177.586 142.15 177.586 141.562 177.729 141.001C180.252 132.266 179.25 123.669 177.014 115.026C176.24 112.84 176.281 110.447 177.13 108.289C180.206 101.449 178.627 95.1745 174.33 89.4433C169.445 82.9264 162.739 78.9631 155.169 76.3517C148.141 73.8905 140.755 72.7003 133.566 70.9787C129.079 69.9968 124.718 68.5043 120.569 66.5301C111.352 61.9081 107.192 53.9006 105.303 44.1483C104.462 40.0695 106.144 37.6545 109.232 35.6902ZM87.6398 159.87C85.2317 172.28 75.9567 179.144 63.9394 179.525C60.6442 179.317 56.6231 177.121 52.6365 174.903C51.5535 174.291 52.2563 173.828 52.7287 173.32C57.1181 168.498 59.7215 162.309 60.1027 155.791C60.5198 148.393 59.2674 140.995 56.4387 134.149C53.9731 127.701 51.035 121.439 50.0326 114.506C46.5645 90.5295 51.7609 69.1414 69.274 51.7514C75.4834 45.4051 83.3697 40.9676 92.0065 38.9602C94.8494 38.1745 97.8512 38.1745 100.694 38.9602C101.156 39.0311 101.575 39.2711 101.871 39.6339C102.167 39.9966 102.318 40.4564 102.296 40.9245C102.627 47.2138 104.448 53.3334 107.607 58.7767C108.111 59.671 108.385 60.6772 108.403 61.7043C108.421 62.7313 108.183 63.7466 107.711 64.6582C105.406 69.8578 101.408 73.4398 97.1222 76.8139C92.8361 80.1879 88.3541 82.9957 84.3561 86.5893C80.2628 90.0105 77.0931 94.4091 75.1386 99.3805C75.0463 99.7039 74.864 99.9942 74.613 100.217C74.3619 100.44 74.0527 100.587 73.7214 100.64C70.8792 101.316 68.3237 102.878 66.4215 105.102C64.5192 107.325 63.368 110.095 63.1329 113.015C62.5261 120.549 65.3144 125.706 71.4977 128.487C72.189 128.799 72.7766 128.961 72.7536 130.047C72.625 131.688 73.0617 133.323 73.9907 134.679C74.9197 136.036 76.2848 137.031 77.8578 137.5C78.3331 137.633 78.7623 137.896 79.0979 138.259C79.4335 138.622 79.6622 139.071 79.7589 139.557C81.418 145.23 83.5265 150.696 87.225 155.41C88.2735 156.75 87.9278 158.414 87.6398 159.87ZM76.383 129.827C77.0973 129.827 78.0997 129.539 78.0997 130.983C78.1741 132.218 78.3125 133.448 78.5145 134.669C77.8137 134.392 77.1867 133.956 76.6828 133.394C76.1789 132.833 75.812 132.162 75.611 131.434C75.4036 130.683 75.3921 129.885 76.383 129.839V129.827ZM81.7982 129.631C82.2937 129.539 82.7891 129.412 83.2845 129.331C83.78 129.25 84.7017 128.51 85.1741 129.065C85.6465 129.62 85.4045 130.532 85.1741 131.26C85.0333 131.748 84.8361 132.217 84.5865 132.658C83.9758 133.629 83.1348 134.865 82.0632 134.692C80.9917 134.519 81.3373 133.04 81.1876 132.104C81.1069 131.665 81.0493 131.226 80.9917 130.844C80.7382 130.047 81.153 129.758 81.7982 129.643V129.631ZM101.305 162.239C97.2854 160.56 93.675 158.031 90.7201 154.824C87.7652 151.618 85.5354 147.809 84.1832 143.659C83.9528 142.988 83.6878 142.33 83.4689 141.671C82.9855 140.625 82.6668 139.51 82.5241 138.367C82.5241 137.061 84.2063 137.142 85.0243 136.402C86.0919 135.526 86.9272 134.399 87.4558 133.121C87.9844 131.843 88.1901 130.453 88.0546 129.076C87.9509 127.921 87.9048 127.124 89.057 126.534C89.279 126.458 89.4805 126.331 89.6459 126.163C89.8112 125.996 89.936 125.793 90.0107 125.57C90.0853 125.346 90.1077 125.109 90.0762 124.875C90.0447 124.642 89.9601 124.419 89.8289 124.223C89.2413 123.23 88.285 123.461 87.5246 124.027C86.7641 124.593 86.3724 124.582 85.7502 123.877C84.8515 122.837 82.9274 121.843 81.5447 122.455C81.1822 122.692 80.9133 123.047 80.7843 123.461C80.5539 124.281 81.5102 124.616 82.1208 124.859C82.7531 124.964 83.3215 125.307 83.7108 125.818C76.2217 130.012 66.0018 124.166 65.9097 115.661C65.829 108.821 69.1934 104.303 75.3114 103.147C76.5961 102.864 77.9344 102.948 79.1733 103.392C80.4122 103.835 81.5016 104.619 82.3167 105.655C82.8813 106.336 83.4689 107.018 84.3676 106.36C85.2663 105.701 84.9898 104.8 84.4367 104.049C83.2124 102.293 81.3436 101.096 79.2404 100.721C77.9845 100.467 78.0191 100.016 78.4454 99.0685C80.446 94.8958 83.3418 91.2183 86.9254 88.2994C90.4972 85.2027 94.4722 82.626 98.1822 79.7026C102.975 75.9241 107.549 71.9493 110.038 66.1372C110.418 65.2706 110.718 64.3693 111.11 63.3525C118.991 71.1289 129.199 73.0816 139.292 75.3002C146.701 76.9294 154.155 78.3853 160.93 82.0482C165.485 84.3769 169.431 87.7449 172.452 91.8814C168.012 90.2433 163.164 90.0812 158.626 91.4192C157.948 91.593 157.283 91.8091 156.632 92.0663C155.849 92.3667 155.238 92.8982 155.549 93.811C155.86 94.7239 156.701 94.7354 157.473 94.5274C159.808 93.7832 162.228 93.3444 164.675 93.2217C166.227 93.1556 167.78 93.3231 169.283 93.7186C175.298 95.4749 177.694 100.178 175.044 105.99C173.615 109.219 173.382 112.853 174.387 116.239C175.925 121.599 176.537 127.184 176.196 132.751C174.975 146.085 168.926 156.126 156.609 162.031C147.366 166.609 137.093 168.692 126.802 168.074C118.025 167.665 109.39 165.689 101.305 162.239ZM91.1309 195.551C93.0781 194.766 94.9561 193.795 96.8342 192.836C105.545 188.364 109.877 181.281 109.266 171.39C109.266 170.431 109.266 169.472 109.266 168.305C117.287 170.465 125.591 171.377 133.888 171.009C135.352 171.009 135.547 171.517 135.478 172.777C135.332 174.954 135.394 177.14 135.663 179.305C136.469 185.522 139.845 190.028 144.88 193.414C148.971 195.914 153.283 198.03 157.761 199.734C158.017 199.793 158.259 199.903 158.47 200.059C158.682 200.215 158.859 200.413 158.991 200.641C159.122 200.869 159.206 201.121 159.236 201.382C159.267 201.644 159.243 201.909 159.167 202.161C158.369 207.735 157.258 213.259 155.837 218.707C155.719 219.257 155.477 219.771 155.13 220.212C154.782 220.653 154.338 221.008 153.833 221.249C136.826 230.147 119.509 230.794 101.846 223.341C100.106 222.733 98.5465 221.697 97.3087 220.328C96.0708 218.96 95.1947 217.302 94.7603 215.507C93.2163 209.625 91.3037 203.836 89.8635 197.943C89.5294 196.545 89.898 196.048 91.1309 195.551ZM77.3047 243.25H55.9202C55.0446 243.25 54.0768 243.469 54.3878 241.933C56.4618 231.533 58.9966 221.307 65.587 212.641C70.9447 205.604 78.261 201.294 86.1535 197.782C87.3863 197.227 87.1789 198.221 87.3056 198.833C89.6739 209.043 92.7304 219.08 96.454 228.876C98.3422 233.807 100.551 238.609 103.067 243.25H77.3047ZM144.131 243.389C132.018 243.335 119.905 243.292 107.791 243.261C107.077 243.261 106.443 243.261 106.006 242.499C102.872 236.848 100.22 230.942 98.0785 224.843C106.747 229.285 116.378 231.504 126.111 231.302C135.782 231.325 145.316 229.019 153.913 224.577C151.652 230.67 148.984 236.603 145.929 242.337C145.789 242.676 145.545 242.962 145.232 243.151C144.919 243.34 144.553 243.424 144.189 243.389H144.131ZM188.755 243.643C175.613 243.527 162.47 243.431 149.328 243.354C149.212 243.354 149.109 243.25 148.901 243.146C150.549 239.679 152.254 236.282 153.821 232.746C157.894 223.402 160.506 213.483 161.564 203.339C161.725 201.907 161.944 201.664 163.338 202.334C177.268 209.048 184.688 220.672 188.237 235.277C188.79 237.588 189.274 239.899 189.827 242.21C190.103 243.204 189.93 243.654 188.87 243.643H188.755Z" fill="#4039A3"/>
<path d="M116.778 98.3868C114.891 99.8647 112.735 100.96 110.43 101.611C108.744 102.012 106.975 101.858 105.383 101.171C104.646 100.848 104.001 100.328 104.231 99.4036C104.461 98.4792 105.383 98.3868 106.121 98.6641C109.278 99.8196 111.882 98.4908 114.255 96.6535C116.629 94.8163 119.083 92.852 122.32 92.8173C125.113 92.7667 127.878 93.3846 130.386 94.6199C131.365 95.1168 132.356 95.914 131.63 97.1966C130.904 98.4792 129.925 97.7628 129.014 97.1966C128.465 96.7984 127.813 96.5659 127.136 96.5264C126.894 96.9771 127.136 97.3122 127.275 97.6819C127.54 98.7565 128.139 99.8196 126.238 100.143C125.74 100.303 125.318 100.641 125.052 101.093C124.787 101.545 124.696 102.078 124.797 102.593C124.785 103.118 124.968 103.629 125.311 104.027C125.654 104.424 126.132 104.679 126.652 104.742C128.024 104.846 127.805 105.516 127.586 106.406C127.244 108.367 126.367 110.195 125.051 111.686C124.659 112.158 124.165 112.534 123.608 112.788C123.051 113.042 122.444 113.167 121.832 113.154C121.22 113.141 120.619 112.989 120.073 112.711C119.527 112.433 119.051 112.036 118.679 111.548C117.264 109.875 116.428 107.787 116.294 105.597C116.039 103.184 116.203 100.744 116.778 98.3868Z" fill="#4039A3"/>
<path d="M161.034 98.7681C160.227 98.7104 159.881 99.2072 159.397 99.5077C158.672 99.9583 157.923 100.12 157.37 99.3459C157.257 99.1866 157.179 99.005 157.141 98.8132C157.104 98.6213 157.108 98.4237 157.152 98.2334C157.197 98.0432 157.282 97.8647 157.401 97.7098C157.519 97.5549 157.67 97.4273 157.842 97.3353C160.573 95.267 163.603 94.2964 166.944 95.475C168.195 95.9436 169.362 96.6108 170.401 97.4509C171.362 98.2929 172.506 98.8982 173.742 99.2188C174.549 99.3806 175.194 99.8312 175.033 100.802C174.871 101.772 174.007 101.957 173.131 101.957C171.923 101.822 170.779 101.341 169.836 100.571C169.341 100.236 168.88 99.785 168.834 100.917C168.834 101.53 168.154 101.368 167.774 101.53C167.292 101.709 166.877 102.033 166.585 102.456C166.292 102.88 166.136 103.383 166.138 103.898C166.067 104.417 166.184 104.943 166.467 105.382C166.75 105.821 167.181 106.143 167.682 106.29C168.834 106.591 168.834 107.099 168.592 108.058C168.309 109.501 167.8 110.89 167.082 112.172C166.299 113.466 165.285 114.61 163.626 114.483C162.892 114.37 162.21 114.035 161.67 113.523C161.131 113.011 160.76 112.346 160.607 111.617C159.501 107.991 159.501 104.116 160.607 100.49C160.665 99.8659 160.861 99.3459 161.034 98.7681Z" fill="#4039A3"/>
<path d="M150.468 117.002C149.55 114.521 149.048 111.905 148.982 109.26C148.98 108.626 149.054 107.993 149.201 107.376C149.385 106.556 149.869 105.909 150.802 106.082C151.736 106.256 151.955 107.03 151.816 107.862C151.554 109.967 151.755 112.105 152.404 114.124C152.566 115.05 152.922 115.93 153.448 116.707C153.974 117.483 154.659 118.139 155.457 118.631C158.81 120.63 158.614 125.39 155.319 128.083C152.819 130.128 149.823 130.394 146.827 130.394C143.633 130.509 140.451 129.938 137.495 128.718C136.608 128.325 135.548 127.863 136.043 126.661C136.538 125.46 137.564 125.899 138.509 126.245C141.981 127.554 145.728 127.952 149.397 127.401C150.328 127.367 151.243 127.145 152.086 126.748C152.93 126.351 153.684 125.787 154.305 125.09C155.734 123.195 155.181 121.312 152.957 120.537C151.31 120 149.535 120 147.887 120.537C146.966 120.792 145.998 120.884 145.652 119.752C145.307 118.619 146.182 117.949 147.127 117.66C148.072 117.371 149.201 117.233 150.468 117.002Z" fill="#4039A3"/>
<path d="M133.992 92.3897C133.934 93.6839 132.84 94.0998 131.319 93.3834C127.836 91.6364 124.023 90.6517 120.131 90.4947C114.18 90.19 108.273 91.666 103.16 94.7353C102.307 95.2553 101.431 95.8908 100.671 94.8509C99.9106 93.811 100.844 93.0483 101.639 92.5399C105.244 90.2316 109.297 88.7191 113.529 88.1029C119.9 86.9187 126.481 87.7968 132.321 90.6103C133.139 90.9916 133.934 91.396 133.992 92.3897Z" fill="#4039A3"/>
<path d="M148.049 147.079C147.502 146.996 146.97 146.833 146.47 146.594C144.074 145.138 141.7 145.588 139.315 146.594C136.7 147.634 134.096 148.754 131.181 148.038C130.317 147.818 129.464 147.576 128.623 147.287C127.782 146.998 126.803 145.97 125.915 147.645C125.408 148.604 123.818 148.003 123.611 146.836C123.557 146.225 123.669 145.61 123.937 145.059C124.205 144.507 124.618 144.039 125.132 143.705C125.53 143.372 126.031 143.19 126.549 143.19C127.067 143.19 127.569 143.372 127.966 143.705C131.008 145.773 134.107 145.75 137.414 144.317C140.721 142.885 144.097 142.157 147.519 144.156C148.74 144.872 149.696 143.89 150.641 143.324C151.586 142.757 152.496 142.041 153.257 143.324C154.017 144.606 152.865 145.045 152.104 145.635C150.922 146.502 149.512 147.004 148.049 147.079Z" fill="#4039A3"/>
<path d="M83.3765 121.658C83.1189 121.843 82.8165 121.955 82.5009 121.982C81.4388 122.06 80.3727 121.902 79.3785 121.519C77.2473 120.793 75.3142 119.578 73.7328 117.972C72.172 116.343 70.8632 114.489 69.8499 112.472C69.3891 111.605 69.101 110.519 70.2878 109.999C71.4745 109.479 71.8432 110.496 72.258 111.293C73.1055 112.996 74.2487 114.534 75.6339 115.834C75.9795 114.194 76.3022 112.819 76.5441 111.421C76.7169 110.45 77.0165 109.583 78.1917 109.78C79.367 109.976 79.3439 110.935 79.2056 111.894C78.9918 113.412 78.6761 114.914 78.2609 116.389C78.147 116.601 78.0875 116.837 78.0879 117.077C78.0882 117.318 78.1483 117.554 78.2627 117.765C78.3771 117.976 78.5422 118.155 78.7431 118.286C78.9439 118.417 79.1742 118.496 79.413 118.515C80.3809 118.816 81.3717 119.047 82.3626 119.278C82.9387 119.416 83.7683 119.671 83.895 120.364C83.935 120.716 83.8537 121.07 83.6646 121.369C83.5864 121.482 83.4889 121.58 83.3765 121.658Z" fill="#4039A3"/>
<path d="M147.081 152.094C148.488 152.113 149.891 152.253 151.275 152.51C151.453 152.505 151.631 152.539 151.796 152.609C151.96 152.68 152.107 152.785 152.228 152.918C152.348 153.05 152.438 153.207 152.492 153.378C152.547 153.549 152.564 153.73 152.542 153.908C152.55 154.104 152.513 154.3 152.434 154.48C152.355 154.66 152.236 154.819 152.085 154.945C151.935 155.071 151.758 155.161 151.567 155.208C151.377 155.254 151.178 155.256 150.987 155.213C147.718 154.607 144.355 154.745 141.147 155.618C140.992 155.671 140.827 155.688 140.665 155.668C140.503 155.648 140.347 155.592 140.209 155.503C140.072 155.414 139.956 155.295 139.871 155.155C139.786 155.014 139.734 154.857 139.718 154.693C139.677 154.52 139.671 154.341 139.699 154.165C139.727 153.99 139.789 153.822 139.882 153.67C139.976 153.519 140.098 153.387 140.241 153.283C140.385 153.179 140.548 153.105 140.721 153.064C142.763 152.349 144.919 152.02 147.081 152.094Z" fill="#4039A3"/>
</g>
<defs>
<clipPath id="clip0_1_1091">
<rect width="149" height="217" fill="white" transform="translate(46 29)"/>
</clipPath>
</defs>
</svg>
