<svg width="246" height="246" viewBox="0 0 246 246" fill="none" xmlns="http://www.w3.org/2000/svg">
<mask id="mask0_1_1118" style="mask-type:alpha" maskUnits="userSpaceOnUse" x="0" y="0" width="246" height="246">
<rect width="246" height="246" rx="10" fill="#D9D9D9"/>
</mask>
<g mask="url(#mask0_1_1118)">
</g>
<g clip-path="url(#clip0_1_1118)">
<path d="M107.396 137.226C104.638 137.13 101.987 136.134 99.8483 134.392C98.6006 133.435 97.6613 132.134 97.1468 130.65C96.6322 129.165 96.5649 127.563 96.9532 126.041C97.16 125.054 97.5621 123.85 98.9063 124.171C100.25 124.492 99.6875 125.628 99.4692 126.534C99.19 127.685 99.2743 128.893 99.7103 129.994C100.146 131.095 100.913 132.034 101.905 132.683C103.033 133.536 104.334 134.133 105.717 134.432C107.1 134.732 108.532 134.727 109.913 134.418C111.294 134.109 112.591 133.503 113.714 132.643C114.837 131.783 115.758 130.688 116.414 129.436C116.897 128.576 117.402 127.578 118.574 128.232C119.746 128.886 119.286 129.872 118.907 130.779C117.196 134.851 113.29 137.237 107.396 137.226Z" fill="#4039A3"/>
<path d="M171.041 119.869C172.584 117.963 174.32 116.222 176.222 114.672C176.969 114.11 177.865 113.261 178.692 114.305C179.519 115.349 178.6 116.003 177.854 116.6C174.239 119.644 171.33 123.437 169.329 127.716C168.916 128.588 168.479 129.62 167.25 129.081C166.021 128.542 166.342 127.372 166.905 126.649C169.054 123.896 168.422 120.821 168.203 117.77C168.151 117.006 168.151 116.239 168.203 115.475C168.203 114.638 168.629 113.95 169.594 114.03C170.559 114.11 170.639 114.822 170.616 115.567C170.524 117.015 170.668 118.467 171.041 119.869Z" fill="#4039A3"/>
<path d="M137.449 107.25C137.955 108.604 137.449 109.212 136.381 109.854C135.997 110.054 135.684 110.368 135.486 110.754C135.289 111.139 135.216 111.576 135.277 112.004C135.339 112.432 135.533 112.831 135.831 113.144C136.13 113.458 136.519 113.671 136.944 113.755C137.909 114.076 137.875 114.42 137.714 115.2C137.047 118.252 135.117 120.385 132.912 120.408C130.706 120.431 129.074 118.561 128.316 115.521C127.625 112.667 127.838 109.669 128.925 106.941C127.649 106.94 126.386 107.202 125.214 107.709C124.433 107.95 123.629 108.019 123.284 107.078C122.94 106.138 123.572 105.621 124.353 105.357C129.192 103.47 134.545 103.356 139.46 105.036C140.379 105.357 141.424 105.782 141.022 107.009C140.62 108.237 139.552 107.904 138.633 107.571L137.449 107.25Z" fill="#4039A3"/>
<path d="M80.709 108.57C79.5595 108.848 78.4876 109.381 77.5727 110.13C76.8489 110.703 76.0907 111.07 75.4243 110.21C74.758 109.35 75.275 108.489 76.0447 107.916C77.6161 106.713 79.4508 105.899 81.3983 105.541C84.0128 104.963 86.7348 105.098 89.2792 105.931C90.0489 106.229 90.8876 106.608 90.9795 107.56C91.0714 108.512 89.8996 108.558 89.6468 108.971C88.9001 110.118 87.4411 110.726 86.9816 112.103C86.8526 112.363 86.7881 112.65 86.7934 112.94C86.7988 113.231 86.8739 113.515 87.0124 113.77C87.1508 114.026 87.3487 114.244 87.5892 114.407C87.8298 114.57 88.106 114.673 88.3946 114.707C89.5435 115.017 89.6354 115.682 89.3941 116.68C88.6818 119.663 86.7403 121.773 84.6609 121.773C82.5815 121.773 81.0077 119.892 80.3069 116.691C79.786 113.991 79.9239 111.205 80.709 108.57Z" fill="#4039A3"/>
<path d="M202.14 229.309C199.475 220.499 195.247 212.675 188.251 206.492C182.027 201.238 174.812 197.283 167.032 194.859C158.656 192.192 150.752 188.228 143.607 183.112C141.738 181.815 140.193 180.105 139.091 178.116C137.99 176.127 137.361 173.911 137.254 171.641C137.209 171.493 137.194 171.338 137.21 171.184C137.226 171.031 137.273 170.882 137.348 170.747C137.423 170.612 137.525 170.494 137.647 170.399C137.769 170.304 137.909 170.235 138.058 170.195C144.383 167.297 150.06 163.157 154.751 158.024C155.452 157.301 155.9 157.427 156.704 157.829C159.988 159.525 163.785 159.944 167.361 159.005C170.937 158.066 174.037 155.836 176.062 152.747C178.853 148.548 179.726 143.742 180.507 138.889C180.91 136.331 180.634 133.543 182.081 131.318C182.882 129.953 183.76 128.636 184.712 127.372C185.253 126.722 185.875 126.144 186.562 125.651C186.995 125.415 187.459 125.241 187.94 125.135C188.423 124.974 188.917 124.825 189.388 124.653C190.826 124.07 192.138 123.212 193.248 122.129C194.251 121.233 195.174 120.25 196.005 119.192C197.674 117.056 198.996 114.672 199.923 112.126C200.865 109.543 201.434 106.839 201.611 104.096C201.802 101.372 201.593 98.6362 200.991 95.9736C200.4 93.3376 199.375 90.8179 197.958 88.517C197.099 87.1331 196.09 85.8482 194.948 84.6855C192.311 82.1921 189.313 80.1078 186.056 78.5022C183.646 77.3403 181.392 75.8795 179.347 74.1545C178.404 73.3834 177.707 72.3531 177.344 71.1909C176.98 70.0288 176.966 68.7858 177.302 67.6156C177.67 66.1358 178.06 64.6559 178.451 63.1761C180.036 56.2931 177.969 51.1653 172.098 47.437C167.421 44.6311 162 43.3109 156.554 43.6513C149.903 43.8234 143.481 45.5097 137.024 46.7716C135.042 47.2525 133.01 47.4952 130.97 47.4943C129.683 47.4943 129.063 46.8978 129.614 45.5327C130.039 44.4658 130.43 43.3875 130.763 42.3091C132.739 36.7683 130.694 32.5926 125.019 30.8375C120.526 29.4827 115.702 29.7136 111.359 31.4913C106.006 33.5562 102.088 37.4107 98.7913 41.965C98.2858 42.6533 97.9641 43.2957 96.8613 42.6762C93.237 40.8213 89.1878 39.9509 85.1202 40.1525C76.3776 40.2098 69.1285 43.3301 64.0622 50.7293C61.753 54.0905 61.3395 58.0368 60.363 61.8568C58.8881 67.1443 58.8287 72.7258 60.1906 78.0434C60.2937 78.3711 60.3152 78.7189 60.2531 79.0568C60.191 79.3946 60.0473 79.7123 59.8345 79.9821C57.8868 82.9188 56.8406 86.3598 56.8246 89.8821C56.5259 98.1073 59.5818 105.174 64.5447 111.518C66.074 113.2 67.1355 115.252 67.6236 117.471C68.0283 119.28 68.8374 120.975 69.9901 122.427C70.2124 122.653 70.3853 122.923 70.498 123.219C70.6107 123.515 70.6607 123.832 70.645 124.148C70.4612 125.536 70.3118 126.936 70.2314 128.324C69.5995 138.648 71.1505 148.261 77.963 156.475C85.1712 165.274 95.3309 171.164 106.557 173.052C107.35 173.201 108.292 173.155 108.292 174.359C108.292 179.809 107.408 184.902 102.743 188.538C100.579 190.215 98.2548 191.675 95.8043 192.898C89.6696 195.995 83.374 198.771 77.4231 202.132C60.34 211.711 51.7697 226.544 51 246H206C205.018 240.37 203.73 234.798 202.14 229.309ZM174.442 150.154C171.19 156.016 164.412 158.414 158.806 155.89C157.899 155.489 157.244 155.19 158.14 154.02C161.89 148.855 164.597 143.01 166.113 136.813C166.331 136.01 166.411 135.149 167.618 135.333C169.438 135.624 171.29 135.662 173.121 135.448C174.939 135.155 176.724 134.686 178.451 134.048C177.704 139.692 177.164 145.199 174.442 150.12V150.154ZM97.1485 50.0869L97.8952 48.9398C100.384 43.5823 104.303 39.0137 109.223 35.7359C111.297 34.3585 113.637 33.4287 116.092 33.0059C118.547 32.5832 121.063 32.6769 123.48 33.2809C124.797 33.546 126.024 34.1467 127.041 35.0246C127.765 35.5618 128.302 36.3125 128.576 37.1708C128.851 38.029 128.848 38.9516 128.569 39.8083C128.086 41.3111 127.501 42.7909 126.995 44.3052C125.754 47.9991 127.271 50.1787 131.142 50.236C134.579 50.0976 137.991 49.5938 141.321 48.7333C147.674 47.4714 153.958 46.0374 160.575 46.6454C164.015 46.8998 167.349 47.9441 170.317 49.6969C175.292 52.7025 177.004 56.8552 175.682 62.5222C175.338 64.002 174.936 65.4819 174.603 66.9732C174.121 68.7714 174.192 70.6727 174.807 72.43C175.422 74.1873 176.551 75.7194 178.049 76.8274C180.093 78.4443 182.304 79.8402 184.643 80.9916C187.753 82.4758 190.598 84.46 193.064 86.8651C202.393 96.5472 200.244 114.649 188.882 121.9C188.664 122.037 188.457 122.186 188.228 122.301C187.619 122.599 186.918 123.23 186.309 122.84C185.7 122.45 186.217 121.693 186.229 121.039C186.458 113.869 182.782 107.755 176.567 105.988C173.683 105.174 170.823 104.256 167.882 103.522C164.941 102.788 162.207 103.602 159.381 104.004C157.933 104.21 156.348 104.853 155.084 104.463C153.82 104.073 154.142 102.054 153.59 100.815C152.643 98.5214 151.387 96.3679 149.857 94.4134C149.403 93.8002 148.779 93.3332 148.063 93.0702C147.346 92.8072 146.568 92.7597 145.824 92.9336C140.602 93.677 135.323 93.9573 130.051 93.771C127.983 93.771 126.857 93.0254 126.352 91.1096C126.206 90.5569 126.017 90.0162 125.789 89.4921C125.214 88.1499 125.789 87.8287 127.03 87.9434C132.566 88.2946 138.003 89.5744 143.113 91.7291C143.986 92.1191 145.02 92.7042 145.595 91.4882C146.169 90.2722 145.158 89.6183 144.193 89.1938C139.54 87.1097 134.545 85.8891 129.454 85.5917C124.491 85.3164 124.56 85.3623 124.215 80.3951C123.732 73.5121 123.686 66.6291 121.986 59.9526C121.268 56.782 119.984 53.7665 118.195 51.0505C113.416 44.1675 106.316 43.1351 99.7333 48.2973C99.2738 48.653 98.8372 49.0201 98.4007 49.3757L97.5391 50.4081C97.1714 50.5687 97.0336 50.477 97.1485 50.0869ZM155.429 107.353C159.266 107.17 162.988 105.69 167.388 106.206C163.516 109.04 159.518 108.925 155.647 109.315C155.107 109.315 154.831 109.086 154.854 108.524C154.877 107.961 154.739 107.388 155.429 107.353ZM150.948 114.546C149.999 117.544 148.258 120.231 145.909 122.324C143.56 124.418 140.689 125.84 137.599 126.442C136.544 126.75 135.446 126.886 134.348 126.844C123.434 126.844 115.323 116.29 117.586 105.266C118.208 102.199 119.559 99.3267 121.527 96.8913C121.775 96.5249 122.124 96.238 122.531 96.065C122.939 95.892 123.388 95.8403 123.824 95.9162C129.017 96.4641 134.246 96.5983 139.46 96.3177C141.608 96.203 143.768 96.0539 145.905 95.7441C146.299 95.6399 146.715 95.6612 147.096 95.8052C147.478 95.9492 147.804 96.2086 148.03 96.5472C150.057 99.0268 151.394 101.996 151.907 105.156C152.419 108.316 152.088 111.555 150.948 114.546ZM113.29 64.9886C114.424 65.1268 115.538 65.3963 116.61 65.7916C120.562 67.1912 120.711 68.3269 120.86 71.3898C120.957 75.5814 121.294 79.764 121.871 83.9169C122.078 85.1329 121.802 85.6606 120.447 85.5917C119.561 85.6165 118.682 85.7672 117.839 86.0391C117.524 86.0832 117.239 86.2506 117.047 86.5045C116.855 86.7584 116.772 87.0779 116.816 87.3928C116.861 87.7077 117.028 87.9921 117.282 88.1836C117.537 88.3751 117.857 88.4579 118.172 88.4138H118.367C119.631 88.2876 120.895 88.1614 122.158 88.0581C122.285 88.0581 122.515 88.2532 122.561 88.4023C123.078 89.9624 123.56 91.534 124.157 93.4269C120.837 92.1191 119.734 94.574 118.413 96.4669C116.621 99.0879 115.397 102.053 114.817 105.174C114.186 105.403 113.944 104.921 113.669 104.681C111.81 103.248 109.505 102.514 107.158 102.608C104.812 102.703 102.574 103.619 100.836 105.197C99.6874 106.229 99.2968 105.931 98.8487 104.692C98.5436 103.991 98.1824 103.316 97.7688 102.673C96.0111 99.633 93.9432 97.8894 89.9223 98.9447C85.9014 100 81.3406 99.8281 77.0095 99.6675C76.1594 99.6675 75.0565 99.851 75.0795 98.5203C75.1024 97.1896 74.0225 95.8015 75.9985 94.9182C79.868 93.0499 84.0522 91.9178 88.3369 91.5799C89.233 91.5799 90.1176 91.5799 91.0137 91.5111C91.9098 91.4423 92.9323 91.3964 92.9552 90.1919C92.9782 88.9873 91.9558 88.93 91.0482 88.907C86.0679 88.787 81.1222 89.7622 76.5614 91.7635C74.528 92.6353 74.551 92.6353 74.528 90.341C74.505 88.0467 74.8037 85.5114 74.9186 83.1024C75.3092 75.4164 83.4889 70.3803 88.8539 70.7589C90.2497 70.7826 91.6198 70.3825 92.7829 69.6117C99.1704 66.1702 105.937 64.22 113.29 64.9886ZM68.8068 49.2839C75.1254 42.9057 86.5218 40.8063 94.7359 44.4543C96.126 45.0738 96.643 45.6015 95.7124 47.1961C93.3179 51.4803 91.539 56.0796 90.4278 60.8588C90.3129 61.3177 90.4278 61.8913 89.7615 62.2813C87.2685 57.9909 84.316 54.1594 79.5714 52.1403C74.8267 50.1213 70.151 50.7752 65.5097 54.0905C66.2489 52.2697 67.3737 50.6301 68.8068 49.2839ZM66.9457 109.785C59.8 101.514 57.1577 89.2168 61.5922 82.2535C62.6962 84.4773 63.9875 86.6034 65.4523 88.6088C66.5804 90.226 67.9658 91.6481 69.5536 92.8189C70.3557 93.3579 71.0171 94.0806 71.4827 94.9267C71.9483 95.7728 72.2047 96.7178 72.2304 97.6829C72.4486 99.5069 71.0011 100.321 70.3233 101.491C68.7127 104.034 67.569 106.842 66.9457 109.785ZM69.6685 112.722C69.5879 109.591 70.4743 106.511 72.2074 103.901C72.5202 103.348 72.9797 102.893 73.5352 102.586C74.0907 102.278 74.7205 102.13 75.3552 102.157C77.3886 102.157 79.422 102.157 81.4555 102.157C84.88 102.258 88.3066 102.043 91.6915 101.514C92.0891 101.421 92.5054 101.443 92.8905 101.579C93.2756 101.716 93.6132 101.96 93.8628 102.283C95.9574 104.663 97.2452 107.642 97.5423 110.797C97.8394 113.951 97.1306 117.118 95.5171 119.846C94.0228 122.457 91.7133 124.508 88.9416 125.685C86.1699 126.861 83.0887 127.099 80.1688 126.362C77.1794 125.523 74.5418 123.742 72.6494 121.284C70.757 118.826 69.7114 115.822 69.6685 112.722ZM93.0471 165.366C85.1777 161.006 78.8476 155.041 75.3322 146.564C72.6439 140.128 72.5635 133.245 73.1609 125.983C76.016 128.079 79.4038 129.332 82.9374 129.597C90.9792 130.125 100.492 123.391 100.308 111.85C100.216 111.017 100.329 110.174 100.637 109.395C100.946 108.615 101.44 107.922 102.077 107.376C102.836 106.648 103.739 106.085 104.728 105.726C105.717 105.366 106.771 105.217 107.821 105.289C109.587 105.373 111.262 106.097 112.531 107.326C113.8 108.556 114.576 110.205 114.714 111.965C115.978 121.36 123.514 128.851 132.395 129.528C137.23 129.9 142.042 128.563 145.99 125.751C149.938 122.939 152.77 118.831 153.993 114.145C154.452 112.481 155.084 111.85 156.761 111.919C158.34 111.844 159.913 111.675 161.471 111.414C161.471 112.252 161.058 113.445 162.322 113.709C163.585 113.973 163.792 112.917 164.263 112.206C167.71 106.975 175.82 106.562 180.22 111.391C181.947 113.441 183.037 115.949 183.357 118.608C183.678 121.267 183.214 123.962 182.024 126.362C179.726 130.951 175.131 133.245 169.628 132.752C164.527 132.281 164.481 132.27 163.091 137.34C159.645 149.845 151.959 159.079 140.976 165.595C135.132 168.924 128.571 170.797 121.848 171.056C111.762 171.641 102.019 170.356 93.0471 165.366ZM106.776 188.309C110.142 184.638 110.693 180.015 110.797 175.335C110.797 173.878 111.314 173.648 112.554 173.717C114.14 173.82 115.725 173.717 117.322 173.717C122.654 173.877 127.982 173.27 133.141 171.916C134.095 171.641 134.577 171.629 134.704 172.88C134.903 175.392 135.679 177.825 136.972 179.99C138.265 182.154 140.04 183.992 142.16 185.361C143.308 186.129 142.964 186.657 142.16 187.38C138.598 190.821 134.118 192.175 129.431 192.863C121.958 193.812 114.367 192.91 107.327 190.236C106.144 189.858 105.65 189.559 106.776 188.309ZM106.144 192.668C114.409 196.118 123.518 197.025 132.303 195.272C137.197 194.309 141.654 192.381 145.043 188.538C145.139 188.399 145.266 188.282 145.412 188.197C145.559 188.112 145.723 188.061 145.892 188.046C146.062 188.032 146.232 188.055 146.391 188.115C146.55 188.174 146.694 188.268 146.812 188.389C147.272 188.733 147.754 189.043 148.237 189.341C150.535 190.787 150.535 190.81 148.513 192.703C142.766 197.832 135.512 200.967 127.834 201.639C118.716 202.664 109.517 200.617 101.698 195.823C100.859 195.448 100.125 194.873 99.561 194.148C101.548 192.599 103.122 191.464 106.144 192.668ZM73.2069 218.262C72.5176 226.108 71.8857 233.966 72.7588 241.847C72.8737 242.857 72.4601 242.994 71.61 242.994C66.0114 242.994 60.4242 242.994 54.8486 242.994C54.1133 242.994 53.5964 242.914 53.6997 241.962C55.917 228.047 61.7416 216.208 73.4251 207.799C73.7267 207.633 74.0374 207.484 74.3557 207.352C73.9766 211.252 73.517 214.694 73.2069 218.262ZM182.346 241.102C182.346 242.811 181.76 243.316 180.048 243.304C162.999 243.235 145.962 243.304 128.914 243.304C111.934 243.304 94.9542 243.029 77.9745 243.098C76.1479 243.098 75.4815 242.685 75.3552 240.803C74.9625 233.753 75.0815 226.683 75.7113 219.65C75.9942 215.296 76.5119 210.961 77.2622 206.664C77.3193 206.166 77.5064 205.692 77.8048 205.289C78.1032 204.887 78.5025 204.569 78.9625 204.369C84.7066 201.582 90.3704 198.771 96.0456 195.915C96.8613 195.502 97.2633 195.834 97.8722 196.27C112.807 206.939 132.061 207.627 147.203 197.326C149.053 196.11 150.704 194.617 152.097 192.898C152.511 192.359 152.844 191.934 153.636 192.336C160.679 195.915 168.307 198.071 175.464 201.295C178.279 202.557 179.439 204.381 180.059 207.34C182.118 218.462 182.897 229.781 182.38 241.079L182.346 241.102ZM201.255 243.281C196.292 243.281 191.329 243.281 186.378 243.281C185.091 243.281 184.988 242.799 185.045 241.698C185.642 231.727 185.103 221.721 183.437 211.872C183.081 209.887 182.702 207.891 182.288 205.448C188.449 209.588 193.343 215.349 196.43 222.093C199.169 228.462 201.162 235.125 202.37 241.951C202.645 243.04 202.301 243.293 201.29 243.281H201.255Z" fill="#4039A3"/>
<path d="M133.302 139.451C132.337 138.855 131.613 139.337 130.89 139.922C121.699 147.286 111.36 147.103 100.641 144.418C99.8597 144.223 99.0096 143.581 98.3433 144.418C97.9126 144.841 97.6106 145.377 97.4724 145.963C97.3341 146.55 97.3652 147.164 97.5621 147.734C100.044 154.548 108.051 160.238 115.277 160.203C124.985 159.997 132.854 152.173 134.462 141.665C134.536 141.22 134.463 140.764 134.253 140.364C134.044 139.965 133.71 139.644 133.302 139.451ZM106.488 154.284C113.183 155.229 120.009 154.402 126.283 151.887C123.215 156.728 113.244 160.203 106.488 154.284ZM127.432 148.158C121.769 151.277 115.29 152.601 108.855 151.955C107.277 151.782 105.709 151.53 104.156 151.198C102.031 150.808 101.02 149.305 100.239 147.149C105.409 148.494 110.763 148.994 116.093 148.629C121.49 148.402 126.693 146.559 131.027 143.34C131.027 146.093 129.12 147.137 127.432 148.158Z" fill="#4039A3"/>
</g>
<defs>
<clipPath id="clip0_1_1118">
<rect width="155" height="216" fill="white" transform="translate(51 30)"/>
</clipPath>
</defs>
</svg>
