<svg width="246" height="246" viewBox="0 0 246 246" fill="none" xmlns="http://www.w3.org/2000/svg">
<mask id="mask0_1_1143" style="mask-type:alpha" maskUnits="userSpaceOnUse" x="0" y="0" width="246" height="246">
<rect width="246" height="246" rx="10" fill="#D9D9D9"/>
</mask>
<g mask="url(#mask0_1_1143)">
</g>
<g clip-path="url(#clip0_1_1143)">
<path d="M166.997 79.3C167.465 79.1319 167.439 78.7051 167.53 78.3301C167.83 78.6793 168.35 79.0414 167.921 79.5328C167.7 79.7915 167.296 79.5845 166.997 79.3Z" fill="#4039A3"/>
<path d="M124.756 67.5961C133.16 67.5961 139.561 69.8981 144.751 75.1616C145.238 75.5995 145.674 76.0896 146.052 76.623C146.248 76.8881 146.341 77.2142 146.314 77.5417C146.288 77.8693 146.144 78.1766 145.909 78.4076C145.688 78.6467 145.399 78.8122 145.08 78.8817C144.761 78.9511 144.428 78.921 144.127 78.7956C143.79 78.6669 143.488 78.4634 143.242 78.2007C135.072 69.8593 125.264 69.4972 114.817 72.5104C110.83 73.5083 107.074 75.265 103.759 77.6834C102.927 78.33 101.938 78.9767 101.157 77.8903C100.377 76.804 101.04 76.0151 101.899 75.3038C105.424 72.7021 109.389 70.7486 113.607 69.5359C117.214 68.3737 120.967 67.7207 124.756 67.5961Z" fill="#4039A3"/>
<path d="M161.585 97.4831L166.295 90.7453C166.485 90.4419 166.703 90.1562 166.945 89.8918C167.804 89.0124 168.558 87.3053 170.015 88.4563C171.472 89.6072 170.093 90.7582 169.352 91.754C165.638 96.6897 162.471 102.01 159.907 107.622C159.452 108.657 159.009 110.028 157.513 109.459C156.017 108.89 156.369 107.506 156.941 106.523C157.869 105.056 158.476 103.411 158.722 101.695C158.969 99.9797 158.85 98.2317 158.372 96.5649C158.144 95.0056 158.117 93.4235 158.294 91.8575C158.294 90.7324 158.697 89.7883 160.05 89.9694C161.403 90.1504 161.351 91.1203 161.182 92.1032C160.944 93.905 161.081 95.7363 161.585 97.4831Z" fill="#4039A3"/>
<path d="M118.98 86.8267C117.783 86.6456 116.378 87.0983 116.287 85.5334C116.196 83.9686 117.588 83.7617 118.681 83.6582C122.115 83.3349 125.576 83.1538 128.88 84.4859C129.903 84.8403 130.851 85.3796 131.677 86.0766C132.444 86.7879 132.796 87.6544 132.08 88.5338C131.365 89.4132 130.558 89.1416 129.778 88.5338C129.261 87.9818 128.545 87.6562 127.787 87.6285C127.904 89.0511 127.644 90.0081 125.849 90.3443C124.053 90.6806 123.871 92.4264 125.172 93.668C126.005 94.4827 126.018 94.9612 125.315 95.776C124.879 96.3414 124.41 96.8812 123.91 97.3925C122.609 98.5952 121.113 99.4617 119.24 98.6858C117.367 97.9098 116.82 96.2415 116.768 94.3017C116.827 91.6593 117.59 89.0797 118.98 86.8267Z" fill="#4039A3"/>
<path d="M64.9005 88.9864C64.4712 88.5726 64.0289 88.7407 63.5996 88.7277C63.2721 88.7622 62.9437 88.672 62.6805 88.4752C62.4173 88.2783 62.239 87.9896 62.1816 87.6673C62.1108 87.3521 62.1433 87.0226 62.2744 86.7271C62.4055 86.4316 62.6283 86.1855 62.9101 86.0249C65.6421 84.072 73.3175 83.9815 76.0364 85.8826C76.9471 86.5163 77.6106 87.3052 76.9341 88.4044C76.2576 89.5037 75.36 89.1804 74.4883 88.6243C73.6167 88.0682 73.1094 87.9906 73.1874 89.2321C73.1874 90.0598 72.8362 90.1374 72.1337 90.0339C71.9183 89.9989 71.6981 90.0067 71.4857 90.0568C71.2734 90.1069 71.0732 90.1983 70.8966 90.3258C70.72 90.4532 70.5705 90.6142 70.4568 90.7994C70.3432 90.9846 70.2675 91.1904 70.2343 91.4048C69.9481 92.3359 69.8961 93.4352 70.8458 93.9137C72.1467 94.5862 71.6653 95.2975 71.197 96.1251C70.5501 97.3228 69.5936 98.3272 68.426 99.035C67.9942 99.4186 67.4608 99.6712 66.889 99.7628C66.3173 99.8545 65.731 99.7814 65.1997 99.5523C64.6334 99.2256 64.1746 98.7426 63.879 98.1618C63.5834 97.581 63.4638 96.9274 63.5346 96.2803C63.5991 94.2015 63.9762 92.144 64.6534 90.1762C64.7314 89.7753 64.8095 89.3614 64.9005 88.9864Z" fill="#4039A3"/>
<path d="M98.3471 167.383C96.0965 168.508 93.7289 169.44 91.5823 170.72C84.6354 174.91 78.8723 180.174 76.4396 188.23C76.3591 188.53 76.1936 188.8 75.963 189.009C75.7323 189.217 75.4462 189.356 75.1386 189.407C56.0801 195.654 42.7977 207.784 36.7224 227.248C34.797 233.43 33.444 239.715 32 246H222C221.608 242.368 221.026 238.76 220.257 235.188C217.551 221.48 212.646 208.741 203.865 197.684C197.452 189.588 189.477 183.251 180.995 177.471C176.988 174.729 172.773 172.233 170.171 167.901C169.71 167.257 169.168 166.674 168.558 166.168C161.975 160.102 154.482 156.223 145.141 156.934C144.114 157.011 144.101 156.636 144.101 155.912C144.136 154.618 144.106 153.323 144.01 152.032C143.958 151.61 144.019 151.181 144.185 150.788C144.352 150.396 144.619 150.053 144.959 149.795C148.903 146.082 151.969 141.546 153.936 136.513C156.537 130.306 157.604 123.71 158.801 117.115C158.996 116.08 158.944 115.058 160.531 114.916C165.013 114.374 169.181 112.352 172.37 109.174C181.19 101.143 181.932 86.0637 170.574 80.2829C170.314 80.1406 169.625 80.1794 170.054 79.4552C171.101 77.245 171.617 74.8234 171.563 72.3811C172.485 62.3978 170.81 52.3464 166.698 43.1925C162.626 34.4759 154.04 29.2771 144.127 31.2687C143.242 31.4497 142.826 31.023 142.305 30.4927C139.621 27.7576 136.432 25.5622 132.913 24.0265C118.472 17.6378 103.291 16.9136 87.8487 19.138C79.6061 20.5199 71.4978 22.601 63.6125 25.3585C55.8069 27.945 48.0014 30.6997 41.4967 35.7045C38.934 37.4726 36.8477 39.8397 35.4214 42.5976C34.1205 45.4686 35.0442 47.7706 37.8151 48.9086C39.1161 49.3871 41.0674 48.9086 41.4447 50.0725C41.822 51.2365 40.6251 52.5556 40.2349 53.8488C38.6607 59.0865 40.6772 62.5524 46.037 63.8069C46.9311 64.0693 47.8644 64.1743 48.7949 64.1172C50.6553 63.8845 50.7723 64.8285 50.6032 66.2382C49.9963 70.5647 49.9613 74.9515 50.4991 79.2871C51.0846 83.1668 51.1366 83.1668 47.3899 84.7575C44.5929 85.9344 44.3067 86.4905 44.7881 89.5296C45.6402 94.4473 48.0731 98.9577 51.722 102.385C52.3725 103.018 52.8148 103.471 52.5156 104.557C50.6625 111.056 50.0102 117.834 50.5902 124.564C51.2537 132.879 53.5303 140.626 58.8901 147.247C64.6402 154.373 72.5108 158.124 80.9278 160.995C86.4669 162.831 92.2126 163.982 98.0349 164.422C99.0236 164.499 99.6611 164.758 99.8562 165.806C100.051 166.853 99.0496 167.06 98.3471 167.383ZM83.5166 182.062C82.9182 188.877 86.4047 192.899 91.4262 195.925C96.1851 198.783 101.512 200.579 107.037 201.189C108.151 201.211 109.242 201.498 110.22 202.027C111.198 202.556 112.034 203.311 112.657 204.228C113.642 205.731 114.761 207.142 116.001 208.444C116.32 208.683 116.583 208.99 116.768 209.343C116.953 209.696 117.057 210.085 117.072 210.483C117.087 210.88 117.013 211.276 116.854 211.642C116.696 212.007 116.458 212.333 116.157 212.595C115.681 211.461 114.858 210.504 113.805 209.859C112.753 209.214 111.523 208.913 110.29 209C108.917 209.05 107.577 209.428 106.383 210.104C105.189 210.779 104.177 211.732 103.434 212.88C101.151 216.196 99.4973 219.9 98.5553 223.808C97.7747 226.562 97.4495 226.743 95.1859 224.972C86.6128 218.221 80.8757 209.698 79.2496 198.783C78.2088 192.097 79.5358 186.924 83.5166 182.062ZM51.8391 243.025C47.1688 242.896 42.4854 242.961 37.8151 243.025C36.6573 243.025 36.0719 242.857 36.3711 241.499C38.6217 231.386 41.5748 221.519 47.3769 212.789C47.7855 211.95 48.4036 211.229 49.1722 210.694C50.3829 215.024 51.3385 219.419 52.0342 223.859C52.9969 229.446 53.4522 235.072 54.0246 240.672C54.2068 242.431 53.6994 243.025 51.8391 243.025ZM109.6 240.969C109.678 242.819 108.859 243.025 107.298 243.013C99.2968 243.013 91.2961 243.013 83.2954 243.013C75.2948 243.013 67.2941 243.013 59.2934 243.013C57.6933 243.013 57.2249 242.586 57.1339 240.995C56.6404 230.103 54.8322 219.308 51.748 208.845C51.6013 208.49 51.5701 208.098 51.6587 207.725C51.7474 207.351 51.9515 207.015 52.2424 206.763C58.5128 200.296 66.2273 196.042 74.5662 192.821C75.8672 192.317 75.646 193.197 75.646 193.882C75.5159 206.31 80.8497 216.281 89.5919 224.739C91.0897 226.299 92.8022 227.64 94.6785 228.722C98.0479 230.52 100.168 229.679 101.261 226.045C102.054 222.842 103.202 219.737 104.683 216.785C105.42 215.303 106.482 214.004 107.792 212.983C108.333 212.585 108.96 212.318 109.623 212.204C110.286 212.09 110.967 212.132 111.611 212.327C112.255 212.522 112.844 212.864 113.33 213.326C113.817 213.788 114.188 214.357 114.414 214.988C114.501 215.225 114.517 215.482 114.459 215.728C114.401 215.974 114.273 216.198 114.088 216.372C109.21 221.545 110.42 228.14 109.873 234.322C109.635 236.512 109.544 238.715 109.6 240.917V240.969ZM199.923 198.059C208.796 208.78 213.973 221.17 216.757 234.645C217.161 236.611 217.486 238.603 217.928 240.555C218.292 242.224 218.214 243.142 215.977 243.038C209.784 242.857 203.579 242.974 197.374 243.038C191.168 243.103 184.976 242.948 178.77 243.038C176.78 243.038 176.39 242.534 176.572 240.646C177.664 229.123 179.59 217.872 185.912 207.849C188.459 203.66 191.906 200.082 196.008 197.374C197.647 196.274 198.648 196.468 199.923 198.007V198.059ZM174.555 184.984C175.06 182.386 175.169 179.727 174.881 177.096C182.171 181.729 188.998 187.047 195.266 192.977C195.838 193.546 196.008 193.843 195.136 194.373C185.015 200.478 179.85 210.048 176.598 220.911C174.786 227.48 173.674 234.221 173.28 241.021C173.15 242.612 172.565 242.974 171.03 242.961C152.279 242.909 133.537 242.909 114.804 242.961C113.074 242.961 112.813 242.405 112.891 240.866C113.152 235.628 113.295 230.403 113.425 225.166C113.431 224.021 113.78 222.905 114.427 221.958C116.287 219.139 117.978 216.216 119.877 213.449C121.022 211.793 121.269 209.854 122.011 208.069C122.661 206.53 123.312 206.776 124.353 207.539C126.729 209.425 128.59 211.876 129.764 214.665C131.206 218.034 132.436 221.489 133.446 225.011C134.747 228.981 136.763 229.627 139.951 226.886C149.434 218.725 159.074 210.681 166.594 200.555C170.266 195.926 172.973 190.615 174.555 184.933V184.984ZM151.282 175.776C152.582 174.401 153.762 172.917 154.807 171.341C155.513 170.263 156.102 169.114 156.563 167.913C157.004 166.649 157.343 165.352 157.578 164.034C157.578 163.775 157.747 162.896 158.112 162.909C158.201 162.924 158.285 162.959 158.359 163.012C160.697 164.263 162.902 165.745 164.941 167.435C165.609 168.021 166.247 168.629 166.854 169.258C171.641 174.302 173.046 180.083 170.6 186.691C168.683 191.636 165.986 196.245 162.613 200.348C155.25 209.634 146.156 217.16 137.063 225.127C136.022 222.114 135.124 219.372 134.136 216.669C133.118 213.748 131.648 211.004 129.777 208.535C128.389 206.793 126.702 205.309 124.795 204.15C123.975 203.62 122.362 204.034 122.453 202.198C122.544 200.361 122.674 198.796 124.613 197.529C134.386 191.42 143.346 184.112 151.282 175.776ZM170.796 84.1368C172.534 85.4923 173.893 87.2678 174.745 89.294C175.597 91.3202 175.912 93.5296 175.661 95.7113C174.868 105.372 165.254 113.054 155.679 111.618C154.925 111.58 154.188 111.383 153.515 111.042C152.843 110.701 152.25 110.224 151.776 109.64C151.656 109.434 151.49 109.258 151.292 109.126C151.093 108.993 150.866 108.907 150.629 108.875C150.392 108.843 150.151 108.864 149.924 108.939C149.696 109.013 149.489 109.138 149.317 109.303C148.498 109.963 148.719 110.855 149.187 111.644C149.706 112.47 150.409 113.167 151.241 113.68C152.073 114.193 153.013 114.51 153.988 114.606C155.497 114.839 155.913 115.369 155.575 116.856C154.716 120.736 153.988 124.615 153.155 128.741C147.392 118.615 138.025 115.317 127.696 113.7C122.26 112.924 116.73 113.103 111.356 114.231C110.16 114.451 109.821 114.153 109.691 113.08C109.526 111.055 108.646 109.154 107.206 107.713C106.439 106.988 105.554 106.29 104.605 107.182C103.655 108.075 104.175 108.954 104.956 109.769C105.407 110.23 105.776 110.764 106.049 111.347C107.35 114.166 107.115 114.748 104.266 115.899C102.263 116.701 100.299 117.606 98.3341 118.485C95.4493 119.742 92.1892 119.848 89.2277 118.783C85.1818 117.49 83.6727 114.761 84.5834 110.61C85.2711 108.041 86.2124 105.546 87.3934 103.16C89.748 97.8581 91.5953 92.4524 90.6587 86.5163C90.5546 85.8438 90.7628 85.5205 91.3872 85.5464C93.989 85.6499 96.5909 85.4171 99.0757 86.3482C99.4813 86.4867 99.8328 86.7486 100.08 87.0968C100.328 87.445 100.459 87.8618 100.455 88.2881C101.547 98.3496 106.101 102.617 117.445 105.1C130.571 107.92 138.259 100.419 141.434 90.215C141.563 89.3925 141.977 88.6404 142.604 88.0881C143.23 87.5359 144.031 87.2179 144.868 87.1888C147.704 86.8267 150.488 86.1542 153.402 85.5852C153.276 86.6294 152.958 87.6418 152.466 88.5726C152.14 89.4908 152.244 90.3185 153.246 90.7194C154.248 91.1203 154.768 90.5513 155.211 89.8271C155.52 89.3436 155.752 88.8158 155.9 88.2622C157.305 81.9124 167.088 80.9295 170.861 84.085L170.796 84.1368ZM54.3889 74.903C54.8833 76.4548 56.2752 75.8858 57.342 75.5625C61.8658 74.0656 66.6299 73.4166 71.392 73.6485C77.2071 74.1141 82.1116 76.3126 85.3769 81.408C85.6371 81.796 86.3526 82.3909 85.507 82.8047C84.9346 83.0892 83.9719 83.4772 83.5816 82.6883C81.3701 78.2783 77.1941 79.4035 73.6946 79.4423C67.5706 79.5143 61.4825 80.3838 55.5858 82.0288C54.7011 82.2745 54.2848 82.1969 54.0767 81.1881C52.3334 71.0879 52.9189 61.3756 59.6837 53.0341C63.6645 48.1197 69.5837 46.0247 75.2948 43.8132C86.2519 39.7059 97.9685 37.9859 109.652 38.7695C111.083 38.8471 112.501 39.1058 114.349 39.3386C112.774 40.6289 111.5 42.2439 110.615 44.0719C108.937 48.1197 111.135 51.521 115.519 51.6762C116.889 51.7303 118.259 51.5688 119.578 51.1977C120.879 50.8097 122.18 50.3829 123.481 49.982C123.78 50.3571 123.481 50.6804 123.481 51.0166C122.622 55.5947 125.237 57.9743 129.738 56.5517C134.24 55.1292 137.882 52.3357 141.447 49.3742C141.915 48.9733 142.201 48.3137 143.086 48.2879C143.566 55.8536 145.063 63.3216 147.535 70.493C148.669 74.2004 150.287 77.744 152.349 81.033C153.012 82.0288 152.986 82.4555 151.672 82.6883C149.187 83.1151 146.742 83.7229 144.27 84.2402C143.32 84.4342 142.54 84.667 142.409 83.1151C142.253 81.2011 140.51 80.5286 138.975 80.0372C135.247 78.9054 131.372 78.3259 127.475 78.3171C119.4 77.9674 111.315 78.6938 103.434 80.4769C102.133 80.7743 100.689 81.0071 100.129 82.5202C99.9343 83.0634 99.596 83.1151 99.1277 82.9987C96.369 82.4674 93.5501 82.3151 90.7497 82.5461C90.4281 82.6104 90.0939 82.5515 89.814 82.3812C89.5342 82.211 89.3294 81.9419 89.2407 81.6278C85.9103 73.6097 76.2314 69.4325 65.8891 70.687C62.6688 71.0686 59.493 71.7571 56.4053 72.7432C55.3126 73.1053 53.8946 73.4028 54.3889 74.903ZM139.274 84.7187C138.325 90.7841 136.191 96.2286 130.896 99.8756C127.78 102.011 123.942 102.838 120.216 102.178C117.172 101.746 114.195 100.934 111.356 99.7592C106.829 97.8323 104.566 94.3017 103.824 89.5425C102.887 83.5807 102.796 83.5807 108.702 82.6237C112.584 81.9012 116.516 81.4818 120.463 81.3692C127.67 81.4339 132.757 81.7184 137.713 83.1151C138.676 83.3608 139.469 83.5548 139.274 84.7575V84.7187ZM161.117 40.2309C165.215 45.7014 166.867 52.0642 167.83 58.6339C168.897 64.8063 168.791 71.123 167.517 77.2567C167.472 77.613 167.472 77.9737 167.517 78.3301C167.699 78.8474 167.751 79.2871 166.984 79.3C164.028 78.9844 161.043 79.5044 158.372 80.8002C156.889 81.4985 156.212 81.0718 155.458 79.882C153.158 76.1412 151.344 72.1261 150.059 67.9323C148.068 62.0648 146.758 55.9902 146.156 49.8268C146 48.4703 146.187 47.0965 146.702 45.8307C147.303 44.3246 147.581 42.7105 147.519 41.0915C147.456 39.4725 147.054 37.8844 146.338 36.4288C146.026 35.7175 145.688 35.0191 145.363 34.3078C151.685 32.6395 158.19 36.3382 161.117 40.2309ZM50.2129 61.0652C49.7056 61.0652 49.1982 61.0652 48.7039 61.0652C43.227 60.5479 41.9 58.4787 43.8904 53.3057L44.2027 52.5039C46.011 48.2103 45.4385 47.1369 40.8333 46.2575C37.685 45.6626 37.3988 44.9642 39.3502 42.3777C42.1641 38.8887 45.7895 36.1324 49.9137 34.3466C63.1633 27.9564 77.3747 23.7627 91.9856 21.9314C104.37 20.5864 116.56 21.2589 128.398 25.7594C133.706 27.8028 138.676 30.4022 141.954 35.2778C143.507 37.2936 144.295 39.7895 144.179 42.326C144.179 42.8821 144.257 43.6192 143.697 43.9037C139.404 46.2445 136.36 50.37 131.807 52.284C130.775 52.7763 129.715 53.2081 128.633 53.5773C126.785 54.1075 126.187 53.4867 126.668 51.6632C127.059 50.3538 127.656 49.1141 128.438 47.9904C129.101 46.9817 130.155 45.8953 129.036 44.7314C127.917 43.5675 126.642 44.434 125.51 45.0935C122.919 46.6597 120.069 47.7586 117.093 48.3396C116.509 48.5378 115.88 48.5652 115.28 48.4185C114.681 48.2718 114.136 47.9572 113.711 47.5119C112.774 46.3092 113.711 45.1453 114.349 44.1753C115.502 42.5949 117.1 41.3889 118.941 40.7094C119.812 40.3214 120.723 39.8559 120.606 38.7307C120.489 37.6056 119.461 37.14 118.446 36.959C114.103 36.0541 109.68 35.5776 105.242 35.5364C90.4896 35.6657 78.482 37.9807 67.203 43.4252C60.087 46.8782 54.7011 52.1029 52.0342 59.7202C51.696 60.6772 51.2797 61.1816 50.2129 61.0652ZM51.9952 98.1814C50.2362 95.7337 48.8712 93.0286 47.9493 90.1633C47.494 88.6373 47.9493 88.0036 49.3283 87.4345C56.879 84.5732 64.8855 83.0838 72.9661 83.0375C74.4101 83.0375 75.8542 83.0375 77.2982 83.0375C80.5375 83.2186 80.5375 83.2444 80.4074 86.387C80.3412 90.1909 79.0714 93.8773 76.7782 96.9231C74.485 99.9689 71.2849 102.219 67.6323 103.354C62.5327 104.738 55.2475 103.031 51.9952 98.1814ZM55.2605 106.29C55.4687 105.385 55.898 105.372 56.6525 105.656C70.5594 110.829 82.5799 100.561 83.5036 87.6544C83.6467 85.6628 84.9997 86.0766 86.0144 85.805C87.3153 85.4559 87.3153 86.5034 87.4584 87.3699C88.1479 91.2496 87.0811 94.7802 85.7802 98.2849C84.7004 101.169 83.3215 103.936 82.2547 106.833C80.7717 110.855 80.1862 114.89 83.0353 118.809C78.8593 120.412 74.8004 119.701 70.7545 119.08C67.9836 118.641 65.2386 118.02 62.4546 117.658C59.5275 117.177 56.5246 117.476 53.7515 118.524C53.6543 114.399 54.1626 110.282 55.2605 106.303V106.29ZM73.4735 154.464C61.9213 148.916 55.7809 139.565 54.1157 127.086C54.0377 126.517 53.9596 125.948 53.8685 125.379C53.7574 124.89 53.7489 124.385 53.8436 123.893C53.9382 123.402 54.134 122.935 54.4185 122.522C54.7031 122.109 55.0704 121.759 55.4973 121.494C55.9243 121.229 56.4017 121.055 56.8997 120.981C59.7227 120.244 62.4807 120.865 65.2386 121.292C69.4698 122.178 73.7703 122.697 78.0917 122.844C80.8237 122.844 83.2954 121.253 85.8062 121.266C88.317 121.279 90.7107 122.753 93.3516 122.753C95.5415 122.939 97.7368 122.461 99.6481 121.382C103.941 118.46 108.846 117.8 113.737 116.998C123.766 115.171 134.121 117.052 142.852 122.288C147.483 125.042 150.657 128.754 150.657 134.574C150.631 135.647 150.369 136.702 149.89 137.664C147.161 143.416 142.814 148.259 137.375 151.606C127.664 157.839 116.408 161.28 104.852 161.551C94.0042 161.556 83.2942 159.138 73.5125 154.477L73.4735 154.464ZM103.083 176.449C102.939 172.944 103.343 169.427 103.421 165.909C103.421 165.004 103.603 164.616 104.579 164.616C117.277 164.563 129.676 160.774 140.211 153.727C140.211 153.727 140.354 153.727 140.614 153.804C140.731 156.235 140.952 158.718 140.939 161.189C140.939 164.939 141.512 168.625 141.837 172.336C141.844 172.771 142.004 173.189 142.289 173.517C142.574 173.846 142.967 174.064 143.398 174.134L146.989 175.013C146.989 175.945 146.156 176.307 145.61 176.837C138.166 183.943 130.065 190.334 121.413 195.925C120.896 196.223 120.467 196.649 120.166 197.161C119.865 197.674 119.703 198.255 119.695 198.848C119.61 201.497 119.212 204.128 118.511 206.685C116.547 204.357 114.609 202.301 113.009 200.077C112.597 199.501 112.053 199.031 111.421 198.707C110.79 198.383 110.09 198.214 109.379 198.214C103.833 197.754 98.4511 196.113 93.5988 193.403C91.2095 192.192 89.1953 190.36 87.7706 188.101C91.6734 186.433 95.6933 185.101 99.2318 182.786C101.586 181.247 103.239 179.527 103.122 176.397L103.083 176.449Z" fill="#4039A3"/>
<path d="M116.56 123.749C112.067 122.642 107.381 122.553 102.849 123.49C98.0481 124.344 93.5209 126.426 88.5384 126.659C84.5064 126.753 80.4895 127.185 76.5309 127.952C72.9143 128.741 70.0262 130.461 69.1416 134.302C68.257 138.143 69.9091 141.13 72.7972 143.355C77.4196 146.908 82.639 149.618 88.2132 151.36C93.9916 153.289 100.232 153.375 106.062 151.606C110.496 150.167 114.513 147.682 117.77 144.363C120.126 141.945 121.932 139.052 123.065 135.88C125.172 129.84 122.818 125.404 116.56 123.749ZM107.454 135.686C101.691 137.841 95.5931 138.979 89.436 139.048C88.031 139.048 85.8195 139.578 84.6876 138.505C84.2583 138.104 83.5168 137.445 83.3867 136.837C83.2176 135.763 87.2895 136.074 88.07 136.009C90.9448 135.796 93.8035 135.408 96.6301 134.845C100.514 134.065 104.288 132.818 107.87 131.133C108.794 130.694 109.678 130.202 110.576 129.724C110.697 129.642 110.835 129.589 110.979 129.569C111.034 129.559 111.09 129.561 111.144 129.574C111.198 129.587 111.249 129.61 111.294 129.642C111.339 129.675 111.377 129.716 111.405 129.763C111.434 129.811 111.453 129.863 111.461 129.918C111.527 130.805 111.366 131.695 110.992 132.504C110.647 133.243 110.156 133.906 109.548 134.452C108.94 134.999 108.228 135.418 107.454 135.686ZM106.361 139.785C106.517 140.186 105.216 140.923 104.943 141.079C102.156 142.963 98.7852 143.802 95.4333 143.445C94.5536 143.369 93.6827 143.213 92.8314 142.98C92.4286 142.871 92.0332 142.737 91.6476 142.579C90.9061 142.268 91.5695 142.061 92.0119 141.984C92.7794 141.842 93.586 141.803 94.3665 141.686C97.8065 141.298 101.221 140.711 104.592 139.928C104.985 139.776 105.389 139.655 105.802 139.565C106.153 139.565 106.322 139.643 106.374 139.759L106.361 139.785ZM119.487 135.815C115.689 142.708 110.264 147.687 102.211 149.2C100.08 149.567 97.8973 149.519 95.7845 149.058C89.0388 147.83 82.6105 145.266 76.8821 141.518C74.3713 139.85 71.9126 137.858 72.7322 134.405C73.5517 130.952 76.6349 130.448 79.549 130.138C83.1916 129.75 86.8342 129.349 90.4638 128.844C96.0858 128.008 101.661 126.885 107.168 125.482C107.65 125.327 108.161 125.278 108.664 125.34C109.288 125.469 109.965 126.154 109.652 126.801C109.34 127.448 108.586 127.719 108.039 128.017C102.779 130.704 97.0862 132.455 91.2183 133.19C88.4271 133.541 85.6142 133.692 82.8013 133.642C80.0303 133.642 79.2888 134.936 80.7719 137.302C82.0647 139.395 83.7673 141.208 85.7786 142.635C87.7898 144.061 90.0688 145.071 92.4802 145.605C101.912 147.933 110.407 143.174 113.49 133.966C113.968 132.311 114.17 130.59 114.089 128.87C114.089 128.12 113.971 127.344 113.997 126.607C114.089 124.939 118.551 127.37 119.201 127.9C119.834 128.383 120.322 129.029 120.613 129.767C120.905 130.505 120.988 131.309 120.853 132.09C120.635 133.406 120.172 134.669 119.487 135.815Z" fill="#4039A3"/>
</g>
<defs>
<clipPath id="clip0_1_1143">
<rect width="190" height="228" fill="white" transform="translate(32 18)"/>
</clipPath>
</defs>
</svg>
