<svg width="246" height="246" viewBox="0 0 246 246" fill="none" xmlns="http://www.w3.org/2000/svg">
<mask id="mask0_1_1165" style="mask-type:alpha" maskUnits="userSpaceOnUse" x="0" y="0" width="246" height="246">
<rect width="246" height="246" rx="10" fill="#D9D9D9"/>
</mask>
<g mask="url(#mask0_1_1165)">
</g>
<g clip-path="url(#clip0_1_1165)">
<path d="M214.906 244.464C212.188 235.037 206.898 226.556 199.631 219.974C192.901 213.96 184.941 210.056 176.747 206.551C170.789 204.007 164.609 202.002 158.897 198.872C156.129 197.48 153.715 195.475 151.836 193.009C149.958 190.543 148.666 187.681 148.058 184.64C147.613 182.459 147.59 182.459 149.802 182.612C154.87 182.963 159.763 184.265 164.703 185.308C170.555 186.574 176.513 187.242 182.26 184.862C191.075 181.24 196.307 174.499 198.812 165.437C200.046 160.527 201.526 155.683 203.248 150.923C204.887 146.691 206.76 142.529 208.246 138.25C211.758 128.063 209.92 118.508 203.564 109.833C200.275 105.308 196.307 101.333 192.783 96.937C187.575 90.5243 183.419 83.4551 182.436 75.2019C180.107 55.87 164.223 35.6354 141.409 30.4654C133.719 28.7069 125.947 28.1794 118.385 30.8875C107.23 34.8617 101.143 43.4901 97.819 54.4398C97.4562 55.6121 97.1752 56.8899 96.8592 58.1209C96.5431 58.0271 96.3676 58.0271 96.3208 57.945C92.8092 51.6848 84.9901 48.3553 76.2814 52.3882C70.0425 55.2721 65.3487 59.9615 61.3807 65.4832C56.108 72.5909 53.3375 81.2491 53.503 90.1023C53.7127 96.3511 54.922 102.526 57.0848 108.391C59.3557 114.932 61.2168 121.615 61.4743 128.52C61.9191 141.111 58.9694 152.717 50.3778 162.283C48.0367 164.909 48.224 167.289 49.4179 170.068C50.0247 171.437 50.8121 172.718 51.759 173.878C55.2735 178.182 59.8721 181.469 65.0795 183.397C78.2011 188.438 91.8142 189.329 105.697 187.606C107.956 187.324 110.191 186.855 112.591 186.433C111.565 190.472 109.241 194.06 105.978 196.644C103.133 198.805 100.006 200.564 96.6836 201.873C89.6605 204.804 82.4501 207.477 75.6142 210.888C62.7385 217.313 52.8944 226.715 47.6504 240.431C46.9598 242.225 46 243.948 46.0351 245.988H215C215.027 245.478 214.996 244.967 214.906 244.464ZM161.238 205.859C161.929 205.144 162.795 204.147 164.094 204.687C166.318 205.578 168.53 206.492 170.801 207.43C170.59 207.653 170.473 207.805 170.333 207.922C165.967 211.533 165.955 211.545 162.139 207.5C161.671 207.031 160.618 206.504 161.238 205.859ZM162.326 211.721C162.947 212.448 162.853 212.776 162.057 213.104L161.882 213.186C156.86 215.918 156.392 215.754 153.325 210.267C153.477 210.162 153.641 210.044 153.805 209.951C158.721 207.371 158.698 207.395 162.326 211.686V211.721ZM153.688 215.965C153.758 216.539 153.419 216.598 153.114 216.691L151.078 217.313C146.677 218.579 146.595 218.485 145.541 214.019C145.541 213.772 145.331 213.362 145.424 213.303C146.759 212.354 148.397 212.131 149.872 211.58C150.715 211.24 151.043 212.037 151.347 212.53C152.178 213.69 152.962 214.874 153.688 215.965ZM111.76 37.8511C118.256 32.9156 125.596 31.4619 133.614 32.2474C145.636 33.254 156.886 38.594 165.276 47.2768C173.072 54.9607 178.082 65.0326 179.51 75.8936C179.627 76.7259 179.802 77.5466 179.955 78.3789C180.844 81.7435 181.558 85.1668 183.466 88.1562C187.563 96.2688 193.884 102.693 199.619 109.563C207.661 119.211 208.984 129.809 204.009 141.216C200.746 148.507 198.125 156.071 196.178 163.819C194.846 170.2 191.138 175.834 185.807 179.575C179.662 183.843 172.931 184.265 165.651 182.412C167.957 179.933 169.998 177.218 171.737 174.311C179.639 161.263 182.612 147.031 181.839 131.908C181.799 131.477 181.855 131.043 182.005 130.637C182.155 130.231 182.395 129.864 182.705 129.563C184.758 127.508 186.313 125.008 187.251 122.256C188.188 119.504 188.483 116.574 188.113 113.69C187.575 108.485 182.354 103.608 177.017 103.361C173.37 103.059 169.728 103.988 166.669 105.999C165.073 106.92 163.198 107.232 161.39 106.878C149.006 105.53 139.033 100.114 132.747 88.9651C130.687 84.9683 129.536 80.5644 129.376 76.0694C128.838 68.9533 129.376 61.7434 127.468 54.7446C126.903 52.5396 126.094 50.4046 125.057 48.3788C122.014 42.7164 118.034 38.5311 110.905 39C110.8 38.2497 111.409 38.1091 111.76 37.8511ZM60.1516 177.524C56.5715 175.488 53.6813 172.425 51.8526 168.731C51.4697 168.099 51.3101 167.357 51.3992 166.624C51.4884 165.89 51.8212 165.208 52.3442 164.687C65.0327 149.962 66.7182 133.033 62.2234 114.827C60.7252 108.789 58.2788 103.01 57.1317 96.8433C53.8425 79.2582 63.0779 64.1702 74.7714 56.6086C78.1191 54.4397 81.7946 53.0329 85.9733 53.7246C92.6687 54.8383 98.7203 63.6426 94.4947 71.3097C91.6737 76.2279 87.8917 80.5261 83.3748 83.9475C79.2077 87.2535 74.9002 90.3602 71.295 94.3462C70.3843 95.2176 69.6963 96.2955 69.2888 97.4891C68.8814 98.6827 68.7665 99.957 68.9539 101.204C69.3334 103.975 69.9883 106.7 70.9087 109.34C71.074 109.755 71.1501 110.201 71.132 110.647C71.1138 111.094 71.0018 111.531 70.8034 111.931C64.0026 127.793 66.5193 142.271 77.3934 155.413C78.2428 156.696 78.905 158.093 79.3599 159.563C84.2995 170.443 88.3495 176.304 97.4796 185.484C84.1824 185.355 71.5174 184.487 60.1516 177.524ZM107.3 170.853C90.5618 165.366 76.8667 156.011 71.2599 138.028C68.5326 129.235 69.9138 120.665 73.6009 112.388C73.9355 111.74 74.1101 111.02 74.1101 110.29C74.1101 109.56 73.9355 108.84 73.6009 108.192C72.6593 105.903 72.0294 103.497 71.7281 101.04C71.5897 100.138 71.7854 99.2168 72.2782 98.4494C73.9402 95.7281 76.096 93.3424 78.6342 91.4153C82.8949 87.8983 87.4365 84.7447 91.2056 80.665C94.1714 77.6368 96.4614 74.0126 97.9244 70.0319C98.152 69.4957 98.4976 69.0179 98.9354 68.6343C99.3732 68.2506 99.8919 67.9709 100.453 67.8161C106.61 65.0611 112.825 65.5652 119.041 67.5934C119.591 67.781 120.117 68.0389 120.679 68.2265C124.296 69.4574 126.672 71.3097 126.532 75.8115C126.464 81.681 128.09 87.4453 131.214 92.4118C125.875 92.229 120.608 93.6808 116.114 96.5736C115.623 96.8784 115.143 97.2184 114.675 97.5584C113.879 98.1446 113.235 98.9066 113.914 99.9031C114.593 100.9 115.506 100.349 116.255 99.8093C120.17 96.9793 124.853 95.4129 129.681 95.3192C130.758 95.2847 131.83 95.4873 132.821 95.9126C133.812 96.338 134.698 96.9758 135.416 97.7811C139.15 101.777 143.691 104.931 148.737 107.031C153.783 109.131 159.217 110.131 164.679 109.962C165.838 109.906 166.942 109.45 167.805 108.672C169.334 107.447 171.146 106.626 173.074 106.284C175.003 105.942 176.986 106.09 178.843 106.714C183.349 108.121 185.866 112.201 185.245 117.476C185.054 119.888 184.309 122.224 183.069 124.3C181.828 126.376 180.125 128.137 178.093 129.446C176.248 130.76 174 131.382 171.743 131.204C169.485 131.026 167.362 130.059 165.744 128.473C165.499 128.262 165.276 128.016 165.03 127.793C164.328 127.16 163.497 126.902 162.771 127.582C162.046 128.262 162.326 129.282 163.005 129.997C164.429 131.454 166.144 132.593 168.039 133.338C168.682 133.596 169.116 133.76 168.917 134.686C166.423 146.269 160.992 156.023 150.984 162.658C144.207 167.16 136.481 169.528 128.522 170.982C121.452 172.225 114.113 173.104 107.3 170.853ZM108.295 198.567C113.094 194.452 115.318 189.036 116.114 182.905C116.407 180.642 116.653 178.391 116.875 176.129C116.945 175.367 116.957 174.757 118.046 174.745C126.815 174.71 135.498 173.007 143.633 169.728C143.739 169.728 143.891 169.728 144.172 169.728C143.912 174.516 144.234 179.319 145.132 184.03C146.443 192.084 150.809 197.817 157.843 201.674L159.88 202.788C142.744 215.402 116.781 215.402 102.688 202.424C104.665 201.307 106.541 200.021 108.295 198.579V198.567ZM140.286 219.446C138.881 219.622 137.465 219.763 136.048 219.915C132.736 220.044 132.794 220.044 132.736 216.656C132.736 215.484 133.087 215.121 134.234 215.015C136.575 214.781 138.975 214.382 141.327 213.983C142.147 213.854 142.591 213.983 142.943 214.851C144.581 218.919 144.605 218.919 140.286 219.458V219.446ZM130.09 218.274C130.09 219.282 129.856 220.162 128.697 220.056C127.539 219.951 126.661 219.869 125.642 219.81C124.671 219.832 123.701 219.741 122.751 219.54C121.581 219.165 122.096 217.758 122.295 216.891C122.365 216.598 122.423 216.316 122.494 216.035C122.728 215.027 123.091 214.605 124.144 214.781C125.198 214.956 126.192 215.027 127.223 215.109C130.079 215.32 129.985 215.32 130.09 218.262V218.274ZM119.965 214.605C119.708 215.941 119.403 217.266 119.017 218.567C118.853 219.107 118.233 218.802 117.847 218.72L116.032 218.309C114.402 218.001 112.788 217.61 111.198 217.137C110.543 216.914 109.384 216.809 109.454 215.965C109.547 215.461 109.717 214.975 109.957 214.523C110.238 213.784 110.578 213.057 110.905 212.342C111.233 211.627 111.538 211.545 112.158 211.815C114.436 212.739 116.785 213.48 119.181 214.03C119.567 214.019 120.059 214.089 119.965 214.593V214.605ZM107.464 213.057C106.188 215.965 106.68 215.402 104.105 214.394C103.098 213.983 102.127 213.468 100.944 212.917C102.115 211.416 103.11 210.021 104.128 208.614C104.183 208.501 104.26 208.401 104.357 208.32C104.453 208.24 104.565 208.181 104.686 208.148C104.807 208.114 104.934 208.107 105.058 208.127C105.181 208.147 105.299 208.193 105.404 208.262C108.693 209.681 108.845 209.939 107.464 213.057ZM98.6735 204.312C100.289 203.679 100.944 205.273 101.869 205.988C102.794 206.703 101.576 207.324 101.202 207.829C98.2755 211.732 98.2521 211.721 94.1787 208.684C93.5583 208.227 93.0082 207.723 92.1069 207.031C94.5416 206.023 96.6017 205.12 98.6735 204.312ZM78.1074 243.597C73.5658 243.597 69.0242 243.702 64.4943 243.702C59.9643 243.702 55.5398 243.702 51.0684 243.702C49.8978 243.702 49.6286 243.456 50.0734 242.284C53.6494 232.509 60.2005 224.107 68.8018 218.262C69.9723 217.43 70.5107 217.747 71.1428 218.825C75.7669 225.937 78.5802 234.076 79.3365 242.53C79.5003 243.796 78.7746 243.597 78.1074 243.597ZM177.602 243.21C169.361 243.257 161.125 243.296 152.892 243.327C130.2 243.421 107.499 243.526 84.7911 243.644C82.9885 243.644 82.3915 243.163 82.1223 241.299C80.4719 230.091 78.4235 224.792 72.6177 215.918C76.059 213.808 79.8281 212.401 83.3514 210.49C86.8746 208.579 89.6488 208.532 93.2306 211.393C101.295 217.84 110.976 220.853 121.159 222.213C135.438 224.339 150.025 222.146 163.052 215.918C166.846 214.219 170.347 211.928 173.423 209.13C173.59 208.941 173.821 208.82 174.071 208.79C174.321 208.759 174.574 208.822 174.781 208.966C178.948 210.771 183.103 212.588 187.095 214.757C188.008 215.25 188.019 215.648 187.54 216.539C183.186 224.405 180.478 233.077 179.58 242.026C179.44 243.538 178.456 243.21 177.602 243.21ZM209.51 243.21C205.238 243.104 200.965 243.21 196.693 243.21C192.409 243.21 188.137 243.21 183.817 243.21C182.647 243.21 182.167 242.964 182.342 241.686C183.385 233.627 185.758 225.799 189.366 218.52C190.15 216.961 190.758 216.985 192.069 217.887C200.508 223.607 206.979 231.795 210.599 241.334C211.243 242.764 211.266 243.28 209.51 243.233V243.21Z" fill="#4039A3"/>
<path d="M131.448 104.205C132.01 105.542 132.244 106.468 130.594 106.96C130.072 107.182 129.652 107.592 129.418 108.109C129.184 108.625 129.152 109.212 129.33 109.751C129.378 110.246 129.606 110.707 129.97 111.046C130.335 111.385 130.81 111.579 131.308 111.591C132.677 111.591 132.595 112.377 132.478 113.244C132.242 115.187 131.57 117.051 130.512 118.696C128.416 121.72 125.057 121.779 122.962 118.696C120.551 115.179 120.445 111.275 120.96 107.265C121.089 106.316 121.382 105.39 121.627 104.311C120.85 104.489 120.125 104.847 119.509 105.354C118.654 105.882 117.753 106.187 117.168 105.167C116.583 104.147 117.308 103.549 118.022 103.068C122.084 100.372 126.427 99.3403 131.249 100.946C134.164 101.955 136.973 103.42 140.192 103.291C140.489 103.29 140.775 103.403 140.992 103.605C141.209 103.807 141.342 104.085 141.362 104.381C141.405 104.709 141.331 105.042 141.154 105.32C140.976 105.599 140.706 105.806 140.391 105.905C139.345 106.292 138.195 106.292 137.149 105.905C135.358 105.425 133.579 104.862 131.448 104.205Z" fill="#4039A3"/>
<path d="M82.9298 108.86C80.9751 110.032 79.2076 110.548 77.3582 109.504C76.4803 109 75.6141 108.332 76.1057 107.16C76.5973 105.987 77.6508 106.234 78.5755 106.82C79.8748 107.652 80.7761 106.82 81.654 106.046C83.2576 104.628 84.7793 103.139 86.9564 102.529C88.0235 102.252 89.1349 102.191 90.226 102.348C91.3171 102.505 92.3662 102.877 93.3124 103.444C94.202 103.948 95.2437 104.475 94.8926 105.788C94.6702 106.621 93.8976 106.714 92.0014 106.128C92.1817 106.4 92.297 106.71 92.3382 107.034C92.3794 107.358 92.3454 107.687 92.2389 107.995C92.1325 108.304 91.9564 108.583 91.7243 108.813C91.4923 109.042 91.2106 109.215 90.9011 109.317C90.5445 109.566 90.2643 109.91 90.0919 110.31C89.9194 110.71 89.8616 111.15 89.9248 111.58C89.9879 112.011 90.1697 112.416 90.4497 112.749C90.7296 113.082 91.0967 113.331 91.5098 113.467C92.8442 113.889 92.8676 114.522 92.5867 115.601C91.8024 118.754 90.2456 120.571 88.2089 120.677C86.1722 120.782 84.3228 119.036 83.3981 115.835C83.0568 114.695 82.8948 113.508 82.9181 112.318C82.9415 111.357 82.9298 110.267 82.9298 108.86Z" fill="#4039A3"/>
<path d="M123.173 150.337C120.821 150.381 118.483 149.983 116.278 149.165C115.429 148.838 114.503 148.765 113.613 148.957C112.723 149.148 111.908 149.595 111.268 150.243C108.927 152.436 106.177 152.588 103.285 151.556C102.314 151.228 101.342 150.736 101.764 149.493C102.185 148.25 103.157 148.602 104.105 148.954C105.083 149.379 106.168 149.495 107.214 149.285C108.26 149.076 109.217 148.551 109.957 147.781C110.746 147.002 111.728 146.448 112.802 146.176C113.877 145.904 115.004 145.924 116.067 146.234C117.449 146.609 118.853 146.855 120.246 147.16C121.725 147.537 123.265 147.605 124.771 147.361C126.277 147.117 127.717 146.566 129.002 145.742C129.903 145.167 130.956 144.569 131.729 145.742C132.502 146.914 131.46 147.746 130.559 148.332C128.378 149.785 125.786 150.488 123.173 150.337Z" fill="#4039A3"/>
<path d="M103.789 137.465C102.291 137.522 100.799 137.258 99.4108 136.691C94.5532 134.827 94.401 130.149 95.513 126.621C95.5499 126.425 95.63 126.24 95.7474 126.08C95.8648 125.919 96.0165 125.787 96.1915 125.692C96.3665 125.598 96.5604 125.544 96.7589 125.534C96.9574 125.524 97.1556 125.559 97.339 125.636C98.1935 125.917 98.2052 126.632 98.0881 127.394C97.2102 133.127 100.125 135.742 105.837 134.428C107.827 134.049 109.644 133.043 111.022 131.556C111.713 130.783 112.497 130.278 113.363 130.994C114.23 131.709 113.914 132.799 113.188 133.561C111.973 134.823 110.511 135.821 108.894 136.493C107.277 137.165 105.539 137.495 103.789 137.465Z" fill="#4039A3"/>
<path d="M86.851 95.6592C90.5177 95.7129 94.021 97.1879 96.6248 99.7741C97.3155 100.454 97.7954 101.286 96.9058 102.119C96.0162 102.951 95.3256 102.529 94.6818 101.919C88.8292 96.4212 82.918 98.2735 77.9433 102.295C77.44 102.705 76.9835 103.162 76.4802 103.561C75.9768 103.959 75.0755 104.323 74.42 103.561C73.7645 102.799 74.0923 102.295 74.5956 101.685C76.9484 98.6486 82.9297 95.7061 86.851 95.6592Z" fill="#4039A3"/>
<path d="M172.498 117.137C174.36 115.409 176.414 113.902 178.62 112.646C179.568 112.166 180.657 111.58 181.301 112.893C181.944 114.206 180.774 114.581 179.931 115.073C175.817 117.227 172.568 120.733 170.731 125.003C170.356 125.929 169.736 126.421 168.776 126.081C168.566 126.027 168.372 125.92 168.214 125.771C168.056 125.622 167.938 125.435 167.872 125.228C167.805 125.021 167.792 124.8 167.833 124.587C167.875 124.373 167.97 124.173 168.109 124.006C170.544 120.759 169.771 117.183 169.396 113.631C169.326 112.881 169.209 111.955 170.181 111.65C171.152 111.345 171.691 111.744 171.843 112.74C172.042 114.135 172.252 115.53 172.498 117.137Z" fill="#4039A3"/>
<path d="M115.576 156.152C116.348 156.269 117.308 156.375 118.256 156.574C118.437 156.592 118.613 156.648 118.771 156.737C118.93 156.826 119.069 156.947 119.178 157.092C119.288 157.237 119.367 157.404 119.41 157.581C119.453 157.758 119.458 157.942 119.427 158.121C119.42 158.307 119.372 158.489 119.286 158.654C119.201 158.818 119.079 158.962 118.932 159.074C118.784 159.186 118.613 159.264 118.431 159.302C118.25 159.34 118.062 159.337 117.882 159.294C114.007 158.508 110.472 159.575 106.996 161.134C106.83 161.243 106.643 161.315 106.447 161.344C106.25 161.374 106.05 161.36 105.86 161.304C105.67 161.248 105.494 161.152 105.344 161.021C105.195 160.891 105.075 160.729 104.994 160.548C104.573 159.645 105.158 159.048 105.884 158.661C108.896 157.134 112.202 156.278 115.576 156.152Z" fill="#4039A3"/>
<path d="M182.307 216.985C182.242 217.305 182.127 217.613 181.968 217.899C180.938 219.462 179.88 221.002 178.796 222.518C178.714 222.678 178.6 222.819 178.462 222.933C178.323 223.046 178.162 223.13 177.99 223.179C177.817 223.227 177.636 223.239 177.459 223.214C177.281 223.189 177.111 223.128 176.958 223.034C176.784 222.94 176.633 222.81 176.515 222.653C176.397 222.495 176.314 222.313 176.273 222.12C176.231 221.927 176.233 221.728 176.276 221.535C176.32 221.343 176.405 221.162 176.525 221.006C177.59 219.317 178.761 217.7 179.943 216.094C180.108 215.851 180.352 215.672 180.633 215.586C180.914 215.501 181.216 215.515 181.488 215.625C181.758 215.725 181.985 215.915 182.134 216.162C182.283 216.408 182.344 216.699 182.307 216.985Z" fill="#4039A3"/>
<path d="M172.416 231.017C172.44 230.714 172.516 230.417 172.639 230.138C173.201 228.837 173.809 227.536 174.406 226.246C174.561 225.953 174.824 225.733 175.139 225.632C175.454 225.531 175.796 225.558 176.092 225.707C176.249 225.758 176.394 225.842 176.517 225.953C176.639 226.064 176.737 226.2 176.803 226.352C176.87 226.504 176.903 226.668 176.902 226.833C176.9 226.999 176.863 227.162 176.794 227.313C176.35 228.931 175.696 230.483 174.851 231.932C174.704 232.227 174.45 232.455 174.141 232.568C173.832 232.682 173.491 232.672 173.189 232.542C172.915 232.403 172.692 232.181 172.553 231.906C172.414 231.632 172.366 231.321 172.416 231.017Z" fill="#4039A3"/>
<path d="M84.1706 227.266C84.2388 227.657 84.2148 228.058 84.1004 228.438C84.0158 228.667 83.8658 228.866 83.669 229.01C83.4722 229.154 83.2375 229.237 82.994 229.248C82.7506 229.259 82.5092 229.199 82.3001 229.073C82.0909 228.948 81.9232 228.764 81.8179 228.544C81.2375 227.038 80.7336 225.505 80.3079 223.948C80.2416 223.66 80.2868 223.356 80.4344 223.1C80.5821 222.843 80.8213 222.652 81.1039 222.565C81.2492 222.483 81.4104 222.433 81.5767 222.418C81.7429 222.403 81.9104 222.425 82.0678 222.48C82.2252 222.536 82.3689 222.624 82.4893 222.74C82.6098 222.856 82.7041 222.996 82.766 223.151C83.0586 223.878 83.3513 224.616 83.5854 225.367C83.8231 225.986 84.0186 226.62 84.1706 227.266Z" fill="#4039A3"/>
<path d="M170.532 239.435C170.637 238.767 170.801 237.676 170.988 236.586C171.14 235.73 171.597 235.074 172.533 235.203C172.728 235.227 172.915 235.292 173.082 235.394C173.25 235.496 173.394 235.632 173.504 235.794C173.615 235.956 173.69 236.14 173.724 236.333C173.759 236.526 173.752 236.724 173.704 236.914C173.575 238.005 173.423 239.107 173.201 240.185C172.978 241.264 172.709 242.073 171.492 241.873C170.274 241.674 170.45 240.736 170.532 239.435Z" fill="#4039A3"/>
<path d="M86.7927 236.633C86.7927 237.489 86.5703 238.157 85.7158 238.309C85.5447 238.36 85.3646 238.373 85.188 238.348C85.0114 238.322 84.8423 238.259 84.6923 238.162C84.5423 238.065 84.4149 237.937 84.3188 237.787C84.2228 237.636 84.1603 237.466 84.1356 237.289C83.8781 236.223 83.6323 235.156 83.4684 234.089C83.4274 233.913 83.4223 233.731 83.4535 233.553C83.4847 233.375 83.5516 233.206 83.65 233.055C83.7485 232.903 83.8765 232.774 84.0263 232.674C84.1762 232.573 84.3447 232.504 84.5219 232.471C84.6945 232.426 84.8746 232.419 85.0506 232.448C85.2265 232.477 85.3943 232.543 85.5432 232.642C85.6921 232.74 85.8188 232.868 85.915 233.019C86.0113 233.169 86.075 233.338 86.1021 233.515C86.383 234.57 86.582 235.648 86.7927 236.633Z" fill="#4039A3"/>
<path d="M77.2763 215.636C78.517 215.636 81.1741 218.684 80.9166 219.704C80.6591 220.724 79.828 221.24 78.8682 220.572C77.8076 219.817 76.9607 218.799 76.4101 217.618C76.289 217.439 76.2151 217.232 76.1953 217.017C76.1755 216.802 76.2106 216.585 76.2971 216.387C76.3836 216.19 76.5188 216.017 76.69 215.886C76.8613 215.754 77.063 215.668 77.2763 215.636Z" fill="#4039A3"/>
</g>
<defs>
<clipPath id="clip0_1_1165">
<rect width="169" height="217" fill="white" transform="translate(46 29)"/>
</clipPath>
</defs>
</svg>
