<svg width="246" height="246" viewBox="0 0 246 246" fill="none" xmlns="http://www.w3.org/2000/svg">
<mask id="mask0_1_1184" style="mask-type:alpha" maskUnits="userSpaceOnUse" x="0" y="0" width="246" height="246">
<rect width="246" height="246" rx="10" fill="#D9D9D9"/>
</mask>
<g mask="url(#mask0_1_1184)">
</g>
<g clip-path="url(#clip0_1_1184)">
<path d="M124.51 90.3664L120.857 92.3366C120.139 92.7404 119.384 92.8873 118.872 92.1163C118.743 91.9509 118.652 91.7588 118.605 91.5538C118.558 91.3488 118.556 91.1359 118.6 90.9303C118.645 90.7247 118.733 90.5313 118.86 90.3641C118.987 90.1968 119.149 90.0598 119.335 89.9626C123.085 87.5151 127.018 86.0711 131.511 87.6008C134.028 88.5716 136.416 89.8498 138.622 91.4066C140.473 92.6303 142.275 93.7439 144.601 92.2999C144.763 92.1981 144.945 92.1329 145.134 92.1089C145.323 92.0849 145.516 92.1026 145.698 92.1608C145.88 92.219 146.047 92.3164 146.187 92.4461C146.328 92.5757 146.439 92.7347 146.513 92.9118C146.69 93.2885 146.717 93.7194 146.588 94.1155C146.459 94.5117 146.183 94.843 145.818 95.0411C144.89 95.672 143.807 96.0332 142.688 96.085C141.568 96.1369 140.456 95.8772 139.475 95.3347C137.539 94.4047 135.822 93.0953 133.922 92.0062C133.35 91.6758 132.461 90.7091 132.485 92.4835C132.485 93.1198 131.755 92.9607 131.389 93.2055C130.93 93.4608 130.549 93.8372 130.287 94.2941C130.024 94.7511 129.891 95.2712 129.901 95.7987C129.911 96.3261 130.064 96.8408 130.343 97.2873C130.623 97.7339 131.018 98.0953 131.487 98.3329C131.688 98.3926 131.876 98.4926 132.038 98.6269C132.2 98.7612 132.333 98.9271 132.43 99.1146C132.527 99.302 132.585 99.5072 132.601 99.7178C132.616 99.9283 132.59 100.14 132.522 100.34C132.307 102.083 131.597 103.727 130.476 105.076C127.919 107.976 124.291 107.278 123.17 103.534C122.05 99.7891 122.683 96.2893 123.658 92.7282C123.901 92.1163 124.132 91.5045 124.51 90.3664Z" fill="#4039A3"/>
<path d="M89.3932 92.2754C90.1604 93.7806 90.2943 94.7229 89.0645 95.9466C87.6277 97.2927 88.1147 99.165 89.8072 100.168C90.2578 100.438 90.8301 100.499 90.7935 101.245C90.6718 103.693 90.2334 106.006 88.3583 107.731C86.4831 109.457 84.4984 108.845 83.0737 106.593C81.3775 103.631 80.6932 100.193 81.1255 96.8032C81.1255 96.3382 81.2595 95.8732 81.3812 95.1023C80.1636 95.861 79.0921 96.534 78.0084 97.1214C77.1117 97.6758 76.0937 98.0013 75.0431 98.0696C73.9926 98.1378 72.9413 97.9468 71.9811 97.513C71.1044 97.0969 70.4956 96.4116 70.8609 95.4082C71.2262 94.4047 72.2246 94.4414 73.0526 94.8453C73.6735 95.1231 74.3583 95.2243 75.0324 95.138C75.7066 95.0517 76.3443 94.7811 76.876 94.3558C78.4102 93.3768 79.8714 92.2877 81.3934 91.272C83.511 89.7108 86.0955 88.9229 88.7193 89.0386C91.3431 89.1543 93.8489 90.1667 95.8223 91.9083C96.699 92.6059 97.3687 93.438 96.6382 94.4904C95.9076 95.5428 94.8726 95.0166 93.9959 94.4047C92.6997 93.2612 91.1005 92.5214 89.3932 92.2754Z" fill="#4039A3"/>
<path d="M129.648 130.027C121.928 137.688 112.772 139.695 102.446 137.529C101.528 137.385 100.677 136.957 100.011 136.305C99.7451 136.091 99.5627 135.79 99.4959 135.454C99.4291 135.118 99.4821 134.77 99.6456 134.469C99.72 134.312 99.8271 134.172 99.9598 134.059C100.092 133.946 100.248 133.863 100.415 133.815C100.582 133.768 100.758 133.757 100.929 133.783C101.101 133.809 101.266 133.872 101.411 133.968C107.828 136.868 114.075 135.485 120.224 133.123C123.202 132.126 125.715 130.067 127.286 127.335C128.163 125.757 129.319 125.732 130.61 126.858C131.69 127.78 132.629 128.856 133.398 130.052C133.91 130.859 134.117 131.728 133.179 132.377C132.242 133.025 131.657 132.377 131.109 131.765C130.561 131.153 130.208 130.346 129.648 130.027Z" fill="#4039A3"/>
<path d="M162.025 111.757H161.964C161.599 112.248 161.118 112.639 160.564 112.895C160.302 113.003 160.013 113.026 159.738 112.96C159.463 112.894 159.215 112.743 159.03 112.528C158.372 111.769 158.677 111.023 159.237 110.338C159.334 110.24 159.407 110.105 159.517 110.044C162.877 107.927 163.45 104.733 162.914 101.123C162.877 100.716 162.877 100.306 162.914 99.8993C162.987 98.9815 163.425 98.2962 164.424 98.3696C165.422 98.4431 165.641 99.2874 165.641 100.156C165.641 100.756 165.52 101.38 165.556 101.955C165.62 102.642 165.721 103.324 165.861 103.999L169.769 100.976C170.67 100.279 171.717 99.1895 172.716 100.401C173.86 101.808 172.314 102.518 171.498 103.252C170.366 104.231 169.209 105.149 168.077 106.104C167.541 106.544 167.017 106.997 166.506 107.45C165.471 108.367 164.46 109.31 163.486 110.277C162.963 110.766 162.488 111.268 162.025 111.757Z" fill="#4039A3"/>
<path d="M106.696 119.516C104.72 119.502 102.785 118.953 101.095 117.925C100.34 117.399 99.7189 116.701 100.34 115.71C100.961 114.719 101.691 115 102.471 115.453C103.856 116.312 105.469 116.726 107.095 116.639C108.72 116.551 110.281 115.967 111.566 114.963C112.407 114.4 113.332 113.911 114.002 114.963C114.671 116.016 114.002 116.836 113.076 117.411C111.203 118.73 108.983 119.463 106.696 119.516Z" fill="#4039A3"/>
<path d="M164.886 111.586C165.471 111.365 166.116 111.365 166.701 111.586C167.082 111.693 167.409 111.943 167.614 112.283C167.84 112.7 167.996 113.15 168.076 113.617C168.175 114.22 168.077 114.838 167.796 115.379C167.617 115.689 167.364 115.949 167.06 116.137C166.756 116.325 166.411 116.435 166.055 116.456C165.588 116.532 165.109 116.47 164.676 116.276C164.244 116.083 163.877 115.767 163.62 115.367C163.357 114.903 163.232 114.372 163.26 113.839C163.288 113.305 163.468 112.791 163.778 112.357C164.064 111.996 164.45 111.728 164.886 111.586Z" fill="#4039A3"/>
<path d="M200.758 222.26C199.987 214.895 197.609 207.792 193.793 201.456C189.069 193.955 182.347 188.705 174.737 184.508C172.74 183.394 171.194 181.559 168.965 180.837C166.59 180.159 164.292 179.232 162.11 178.071C154.342 173.751 146.878 168.82 138.537 165.577C138.159 165.43 137.599 165.271 137.733 164.549L140.716 164.133C147.026 163.482 153.254 162.199 159.31 160.302C160.691 159.941 161.939 159.189 162.906 158.134C163.874 157.08 164.519 155.768 164.765 154.355C165.081 152.568 165.422 150.782 165.763 148.995C165.946 148.028 166.141 147.086 166.274 146.107C166.408 145.128 166.871 146.23 166.981 146.523C167.272 147.505 167.468 148.513 167.565 149.534C167.784 150.757 167.991 151.981 168.198 153.205C168.649 155.946 169.501 156.509 171.997 155.481C176.796 153.457 181.338 150.865 185.525 147.759C185.821 147.595 186.074 147.363 186.265 147.083C186.455 146.802 186.577 146.481 186.621 146.144C186.986 140.796 187.839 135.473 187.839 130.113C187.716 113.535 185.527 97.0368 181.324 81.0049C178.224 68.6353 171.572 57.4554 162.195 48.8576C154.062 41.3195 144.369 36.8529 133.946 33.5243C124.32 30.2601 114.074 29.2678 104.005 30.6241C95.4813 31.8478 87.9198 35.6047 80.9428 40.5363C72.7725 46.3123 65.6006 53.0305 61.2658 62.2941C54.5064 76.6251 50.7475 92.1985 50.2219 108.049C49.8523 117.622 50.1167 127.208 51.0134 136.746C51.5055 142.901 52.4497 149.012 53.8383 155.028C53.9786 155.804 54.2927 156.538 54.7568 157.174C55.2208 157.81 55.8228 158.332 56.5171 158.699C60.6421 160.885 65.0649 162.447 69.6432 163.337C80.639 165.22 91.822 165.75 102.945 164.916C103.566 164.916 104.492 164.426 104.723 165.246C104.954 166.066 104.297 166.678 103.384 167.155C99.67 169.089 95.5178 170.606 92.5103 173.372C86.5195 178.879 78.8119 181.559 72.5776 186.576C70.4311 188.056 68.2078 189.42 65.9172 190.663C57.7591 195.864 50.9403 202.24 47.7866 211.797C45.5544 218.571 44.3236 225.638 44.1337 232.772C43.9998 237.177 44.1337 241.595 44.1337 246H201.927C202.183 238.068 201.792 230.128 200.758 222.26ZM152.941 176.982C153.27 176.064 153.757 176.615 154.159 176.872C158.453 179.734 163.083 182.052 167.943 183.773C165.313 187.689 162.731 191.483 160.211 195.313C154.914 203.341 150.043 211.626 145.112 219.886C143.663 222.333 143.627 222.333 141.143 220.865C137.556 218.664 134.486 215.708 132.144 212.201C129.911 208.972 128.002 205.529 126.446 201.921C126.277 201.677 126.162 201.399 126.11 201.106C126.058 200.813 126.069 200.512 126.143 200.224C126.217 199.936 126.352 199.668 126.539 199.437C126.725 199.206 126.96 199.018 127.225 198.887C133.191 194.567 139.146 190.223 144.966 185.707C148.095 183.284 151.468 180.983 152.941 176.982ZM149.581 43.3019C149.776 43.412 149.97 43.5834 150.116 43.6813L151.139 44.3665C152.641 45.2966 154.09 46.296 155.486 47.3647C157.487 48.8784 159.394 50.5131 161.197 52.2596C162.966 53.9495 164.629 55.7478 166.177 57.644C167.713 59.5319 169.136 61.5097 170.439 63.5668C171.744 65.639 172.923 67.7885 173.97 70.0036C175.051 72.2624 175.998 74.5834 176.807 76.9544C177.562 79.1693 178.219 81.4332 178.767 83.7216C182.834 100.854 185.306 118.108 184.405 135.742C184.247 138.716 183.796 141.677 183.492 144.651C183.456 145.019 183.334 145.373 183.134 145.683C182.935 145.994 182.666 146.253 182.347 146.438C179.189 148.526 175.885 150.383 172.46 151.993C171.06 152.666 170.865 151.993 170.768 150.916C170.428 147.745 169.817 144.609 168.941 141.543C168.612 140.319 168.101 138.961 166.506 138.936C164.911 138.912 164.448 140.246 164.071 141.518C163.096 144.92 162.719 148.432 162.086 151.895C161.343 155.921 160.393 156.974 156.85 157.476C158.284 153.175 159.419 148.779 160.247 144.321C161.615 137.195 162.53 129.989 162.987 122.746C163.072 121.278 163.864 121.4 164.826 121.253C167.49 120.917 170.03 119.918 172.215 118.349C174.4 116.78 176.162 114.689 177.342 112.264C178.523 109.84 179.084 107.158 178.976 104.461C178.867 101.764 178.093 99.1365 176.722 96.8155C175.705 94.9874 174.166 93.5083 172.303 92.5701C170.44 91.6318 168.34 91.2776 166.274 91.5534C163.51 91.7982 163.559 91.8839 163.73 89.0203C164.469 78.4979 162.833 67.9436 158.944 58.1457C156.635 52.7704 153.306 47.8989 149.142 43.8036C148.862 43.6935 148.911 43.1795 149.24 43.204C149.358 43.2159 149.474 43.2491 149.581 43.3019ZM80.1757 44.9295C87.3354 39.5328 95.0064 35.1396 103.993 33.7935C122.975 31.0769 141.666 36.0207 153.124 53.6546C157.045 59.6998 158.689 66.5527 160.028 73.5157C161.246 79.9036 160.746 86.3526 160.625 92.7894C160.602 93.1204 160.478 93.4363 160.272 93.695C159.249 94.8453 158.177 95.9711 156.935 97.3661C156.643 95.7386 156.412 94.3558 156.132 92.9974C155.722 90.8118 154.831 88.7458 153.525 86.9504C152.219 85.155 150.53 83.6756 148.582 82.6202C144.233 80.2558 139.446 78.8185 134.519 78.3984C129.904 77.7115 125.225 77.5678 120.577 77.9701C119.201 78.1414 118.86 77.7131 118.848 76.3792C118.762 69.7956 118.969 63.1997 118.409 56.6283C118.227 54.4623 118.081 52.2963 117.922 50.1303C117.809 49.3917 117.557 48.6815 117.18 48.0377C116.875 47.4014 116.595 46.7406 115.804 46.7039C115.012 46.6672 114.513 47.2668 114.172 47.9276C112.639 51.2539 111.456 54.7318 110.641 58.3048C109.043 64.5691 108.334 71.029 108.534 77.4928C108.534 78.7166 107.901 78.4351 107.244 78.3739C103.356 77.9211 99.4418 77.7493 95.53 77.8599C90.8682 78.0453 86.267 78.9875 81.9047 80.65C80.2122 81.3109 79.6764 80.8826 79.4694 79.2305C79.2624 77.5785 78.7632 76.0488 78.3736 74.4702C78.1179 73.4301 77.6186 72.4878 76.4254 72.4266C75.2321 72.3654 74.4893 73.2343 74.051 74.3111C73.1868 76.607 72.5386 78.9791 72.1149 81.3965C71.9352 82.6397 71.4825 83.8271 70.7896 84.8727C70.0967 85.9183 69.181 86.7958 68.1089 87.4417C65.9645 88.8311 63.994 90.4745 62.2399 92.3366C61.4248 89.3022 60.939 86.1881 60.791 83.0485C59.6099 66.3569 67.5854 54.4745 80.2 44.9295H80.1757ZM63.4819 158.626C58.7332 157.219 56.4805 154.502 55.7378 149.423C53.3967 134.318 52.662 119.004 53.546 103.742C53.7043 101.294 53.9357 98.8469 54.2523 96.4728C54.5689 94.0988 54.9829 91.5779 55.4699 89.2406C55.7134 88.0169 55.9813 86.7932 56.2735 85.6551C56.5658 84.517 56.8702 83.2076 57.1624 81.9839C57.1624 81.7881 57.3329 81.4577 57.5642 81.6902C57.7956 81.9227 57.7712 82.4489 57.7956 82.7671C57.7956 83.4034 57.8808 83.9908 57.9661 84.6883C58.1243 85.9121 58.2705 87.1358 58.4409 88.2739C58.7018 90.2685 59.1295 92.2375 59.7194 94.16C60.0969 95.3837 60.0726 96.8522 61.6068 97.305C63.141 97.7577 63.0192 95.7386 64.1273 95.3225C64.7604 96.9623 65.3449 98.5899 66.0511 100.217C66.3434 100.903 66.0511 101.355 65.8076 101.918C60.5353 114.523 61.4728 126.589 69.5701 137.872C70.4383 139.07 71.101 140.406 71.5305 141.824C73.6167 148.827 76.6965 155.492 80.6749 161.612C74.8462 161.307 69.0745 160.304 63.4819 158.626ZM81.1741 145.03C73.0403 139.389 67.6341 131.631 65.9172 121.657C64.7974 115.18 65.7524 108.513 68.6447 102.616C68.9714 102.063 69.1509 101.435 69.1658 100.792C69.1808 100.149 69.0306 99.5125 68.7299 98.9448C65.8441 92.8261 65.8441 92.8261 71.1652 88.9836C73.7344 87.1603 74.5015 84.5048 75.1712 81.6413C75.3904 80.7357 75.5852 79.8179 75.8774 78.4718C76.2062 79.6955 76.401 80.4665 76.6445 81.2374C77.5091 84.052 78.958 84.8352 81.7221 83.8317C84.747 82.6686 87.8681 81.7759 91.0491 81.164C96.8572 80.1483 102.629 80.65 108.425 81.2497C110.86 81.5067 111.688 80.5277 111.53 78.0925C111.167 69.9539 112.268 61.8163 114.781 54.0707C114.998 54.2927 115.163 54.5606 115.264 54.8548C115.365 55.1491 115.4 55.4623 115.365 55.7717C115.657 63.3098 115.95 70.8358 116.193 78.3739C116.278 81.1885 116.656 81.4822 119.42 81.1518C127.493 80.1666 135.682 80.9601 143.42 83.4769C150.129 85.6428 153.526 90.3909 153.928 97.3661C154.143 98.7049 154.2 100.064 154.098 101.417C154.009 101.754 154.052 102.113 154.217 102.42C154.382 102.727 154.657 102.959 154.987 103.069C155.341 103.189 155.727 103.178 156.073 103.036C156.42 102.895 156.704 102.632 156.874 102.298C158.32 100.086 160.085 98.1026 162.11 96.4116C166.847 92.7405 172.911 94.2946 175.054 99.8993C175.989 102.113 176.293 104.544 175.932 106.922C175.571 109.299 174.558 111.528 173.008 113.36C169.647 117.545 165.045 118.745 159.918 118.255C158.895 118.044 157.944 117.572 157.154 116.885C156.996 116.728 156.806 116.608 156.597 116.533C156.388 116.458 156.165 116.429 155.944 116.449C155.723 116.469 155.508 116.537 155.316 116.648C155.123 116.759 154.957 116.911 154.829 117.093C154.147 118.01 154.634 118.794 155.364 119.381C155.998 119.994 156.759 120.458 157.593 120.739C159.517 121.119 159.529 121.963 158.981 123.652C153.587 139.964 142.628 150.659 125.922 153.841C110.129 156.827 94.7507 154.539 81.1741 145.03ZM96.1388 181.13C97.9508 179.954 99.6799 178.654 101.314 177.239C103.379 175.523 105.038 173.366 106.171 170.926C107.304 168.485 107.883 165.822 107.865 163.129C107.865 161.649 108.084 160.156 108.096 158.663C108.096 157.72 108.437 157.586 109.314 157.659C116.441 158.462 123.655 157.923 130.586 156.068C131.998 155.664 131.876 156.558 131.986 157.292C132.303 159.434 132.558 161.587 132.838 163.729C133.825 171.206 138.415 175.489 145.197 177.826L147.633 178.658C147.633 178.658 147.73 178.744 147.949 178.952C143.826 182.719 139.448 186.195 134.847 189.354C131.523 191.801 128.138 194.175 124.924 196.696C124.279 197.236 123.512 197.608 122.69 197.779C121.868 197.95 121.016 197.914 120.211 197.675C110.665 195.423 102.726 190.333 95.7857 183.565C94.702 182.525 94.7873 182.011 96.1388 181.167V181.13ZM79.092 185.658C82.793 183.829 86.3399 181.701 89.6976 179.295C91.5484 185.009 96.0536 188.314 100.388 191.715C105.386 195.707 111.147 198.623 117.313 200.282C118.02 200.465 118.726 200.722 119.663 201.016C113.271 209.582 107.098 218.148 96.5285 221.672C95.2134 222.125 94.5681 222.125 94.0323 220.583C90.0629 209.203 84.4009 198.617 78.4466 188.191C77.6674 186.821 77.7769 186.343 79.0798 185.695L79.092 185.658ZM63.6037 243.308C58.6723 243.222 53.7409 243.308 48.8095 243.308C47.6649 243.308 47.0317 243.075 47.0074 241.778C46.7882 230.642 47.5431 219.665 52.1458 209.3C53.7437 205.654 56.1023 202.395 59.0619 199.743C60.659 205.096 61.8797 210.555 62.7148 216.08C64.0907 224.45 64.6996 232.906 65.284 241.362C65.3206 242.745 65.1501 243.332 63.6037 243.308ZM120.138 243.234C103.506 243.234 86.8645 243.255 70.2154 243.296C68.8273 243.296 68.4012 242.88 68.2916 241.497C67.5366 231.413 66.8182 221.33 64.797 211.405C64.0336 207.274 63.0417 203.188 61.826 199.168C61.6092 198.719 61.5704 198.203 61.7174 197.726C61.8643 197.249 62.186 196.846 62.6174 196.598C66.2522 193.881 70.037 191.372 73.9536 189.084C75.1103 188.375 75.5487 188.766 76.0966 189.782C81.3811 199.474 86.5682 209.227 90.3429 219.653C90.7569 220.803 91.1952 221.929 91.7067 223.043C92.9243 225.796 92.9243 225.747 95.8953 224.989C103.201 223.055 108.924 218.601 113.868 213.033C116.496 210.019 118.967 206.87 121.271 203.598H121.928V217.989C121.928 225.796 121.928 233.604 121.928 241.423C121.928 242.928 121.539 243.234 120.138 243.234ZM175.772 241.705C175.906 242.928 175.602 243.21 174.457 243.21C158.433 243.21 142.417 243.21 126.409 243.21C125.338 243.21 124.851 243.002 124.875 241.766C125.009 229.884 124.875 218.001 124.498 206.131C124.498 205.947 124.497 205.764 124.656 204.968C126.55 209.159 128.955 213.097 131.815 216.692C134.147 219.605 136.985 222.068 140.193 223.961C142.786 225.478 145.465 225.539 147.499 222.113C154.11 210.757 160.807 199.437 168.198 188.583C170.487 185.23 170.487 185.205 173.897 187.298C176.748 188.985 179.489 190.852 182.104 192.89C182.473 193.113 182.745 193.467 182.867 193.881C182.988 194.296 182.951 194.742 182.761 195.13C179.346 205.072 177.095 215.38 176.052 225.845C175.392 231.106 175.298 236.423 175.772 241.705ZM197.568 243.149C191.833 243.149 186.085 243.149 180.35 243.149C179.437 243.149 178.889 243.088 178.828 241.925C178 226.274 180.764 211.148 185.428 195.913C190.681 201.158 194.407 207.747 196.204 214.966C197.641 220.897 198.457 226.963 198.639 233.065C198.761 235.904 198.871 238.756 199.041 241.631C199.114 242.733 198.749 243.136 197.568 243.136V243.149Z" fill="#4039A3"/>
<path d="M117.289 221.146C116.958 220.717 116.533 220.369 116.048 220.13C115.562 219.891 115.029 219.767 114.488 219.767C113.948 219.767 113.414 219.891 112.929 220.13C112.444 220.369 112.019 220.717 111.688 221.146C110.739 222.55 110.217 224.202 110.187 225.899C110.157 227.597 110.619 229.266 111.517 230.703C113.332 233.151 116.157 233.077 117.837 230.471C118.627 229.177 118.986 227.664 118.86 226.151C118.979 224.344 118.419 222.557 117.289 221.146ZM114.622 229.174C113.405 229.235 113.405 227.448 113.234 226.396C113.064 225.172 113.234 223.214 114.452 223.141C115.937 223.055 115.816 224.94 115.925 226.2C115.84 227.363 116.011 229.1 114.622 229.174Z" fill="#4039A3"/>
</g>
<defs>
<clipPath id="clip0_1_1184">
<rect width="158" height="216" fill="white" transform="translate(44 30)"/>
</clipPath>
</defs>
</svg>
