<svg width="246" height="246" viewBox="0 0 246 246" fill="none" xmlns="http://www.w3.org/2000/svg">
<mask id="mask0_1_1221" style="mask-type:alpha" maskUnits="userSpaceOnUse" x="0" y="0" width="246" height="246">
<rect width="246" height="246" rx="10" fill="#D9D9D9"/>
</mask>
<g mask="url(#mask0_1_1221)">
</g>
<g clip-path="url(#clip0_1_1221)">
<path d="M167.918 87.4771L168.111 87.6183C168.819 88.0027 169.389 88.6 169.74 89.3258C169.802 89.5448 169.811 89.7754 169.766 89.9986C169.722 90.2218 169.625 90.4312 169.484 90.6095C168.701 91.7008 167.726 91.1359 166.917 90.6095C158.73 84.8838 149.632 83.3561 139.969 84.7554C139.057 84.9012 138.157 85.1114 137.274 85.3845C136.235 85.6926 134.99 86.1933 134.554 84.7811C134.117 83.3689 135.491 82.9581 136.568 82.6372C140.68 81.4555 144.969 81.0207 149.234 81.3534C153.258 81.6459 157.221 82.5105 161.001 83.921C162.708 84.5352 164.357 85.2999 165.929 86.2061C166.519 86.5528 167.174 87.0278 167.918 87.4771Z" fill="#4039A3"/>
<path d="M229.771 223.482C226.447 215.972 222.302 209.04 215.45 204.135C209.405 199.796 202.553 197.203 195.623 194.751C186.974 191.683 178.146 189.102 169.817 185.135C166.837 183.815 164.235 181.768 162.249 179.183C160.262 176.597 158.956 173.554 158.448 170.333C157.909 167.47 157.96 167.47 160.681 166.623C161.464 166.366 161.784 166.43 161.964 167.303C163.671 174.095 168.265 177.715 174.95 178.858C181.828 179.991 188.888 178.879 195.084 175.687C197.266 174.634 199.294 173.376 201.642 175.212C201.961 175.369 202.312 175.452 202.668 175.456C214.962 177.189 225.446 173.594 233.03 163.76C243.168 150.64 244.271 135.979 238.343 120.727C236.533 116.054 234.005 111.677 229.36 109.173C228.192 108.531 228.077 108.133 228.667 106.965C232.119 99.9186 232.941 91.8699 230.983 84.2709C229.025 76.6719 224.417 70.0231 217.99 65.5242C217.592 65.316 217.278 64.9748 217.105 64.5597C216.932 64.1446 216.909 63.6819 217.041 63.2518C217.546 60.8082 217.753 58.3122 217.657 55.8187C217.484 48.6949 215.607 41.7163 212.182 35.4684C208.757 29.2205 203.884 23.8855 197.972 19.9109C186.281 11.7203 172.961 9.1784 158.91 10.2183C144.076 11.2838 131.243 16.7913 120.9 27.8191C120.105 28.6664 119.694 29.0259 118.95 27.7164C117.227 24.7004 114.503 22.3837 111.25 21.169C93.6697 14.121 74.0361 26.8691 75.9738 46.7679C76.0765 47.8976 76.7951 49.2713 76.3716 50.0801C75.807 51.1713 74.1901 50.4909 73.048 50.6835C58.4062 53.1869 49.7315 68.2073 54.5052 82.9709C55.7629 86.9233 57.7958 90.585 60.4851 93.742C61.5758 95.0258 61.3833 95.3467 59.7536 95.5778C56.9358 96.068 54.2467 97.1249 51.8488 98.6846C45.2454 102.764 40.1525 108.888 37.3433 116.126C34.5341 123.364 34.1619 131.321 36.2831 138.79C39.3372 149.934 45.6636 158.394 57.3668 161.719C58.7655 162.104 58.2394 162.81 57.9827 163.632C56.6152 167.766 56.2502 172.166 56.9177 176.47C57.5296 180.371 59.3582 183.978 62.1422 186.777C64.9262 189.576 68.5231 191.423 72.4192 192.055C80.8116 193.146 87.5102 189.128 90.9493 180.835C91.4241 179.718 91.6166 179.191 92.9126 180.154C103.41 187.972 123.467 184.404 127.804 169.884C128.292 168.266 129.087 168.241 130.473 168.6C132.116 168.985 131.756 170.064 131.525 171.091C129.947 179.974 124.365 185.379 116.306 188.64C111.633 190.383 106.849 191.811 101.985 192.915C94.6963 194.866 87.7412 197.434 82.0564 202.659C69.3138 214.277 64.6556 229.49 62.9874 246H237.034C236.918 244.113 235.904 242.508 235.417 240.724C233.96 234.846 232.072 229.083 229.771 223.482ZM165.3 186.15C165.444 186.182 165.582 186.234 165.711 186.304L167.174 187.164C168.124 187.69 169.06 188.216 169.984 188.768C170.382 189.012 169.984 189.398 169.83 189.667C169.775 189.759 169.701 189.838 169.612 189.9C169.524 189.961 169.424 190.002 169.318 190.022C169.213 190.041 169.104 190.038 169 190.012C168.896 189.986 168.798 189.939 168.714 189.873C167.508 189 166.301 188.127 165.121 187.215C164.915 187.048 164.684 186.804 164.787 186.522C164.793 186.462 164.811 186.404 164.841 186.352C164.871 186.3 164.911 186.255 164.96 186.22C165.009 186.185 165.064 186.16 165.123 186.148C165.181 186.136 165.242 186.137 165.3 186.15ZM164.094 189.873L165.531 191.054C165.968 191.413 166.904 191.747 166.442 192.453C166.155 192.833 165.787 193.144 165.365 193.364L164.723 193.75C164.556 193.852 164.338 194.045 164.12 194.019C163.902 193.993 163.671 193.685 163.517 193.544C163.363 193.403 163.106 193.159 162.901 192.966C162.526 192.582 162.17 192.18 161.836 191.76C161.502 191.323 161.181 190.861 160.886 190.399C160.758 190.193 160.629 190.065 160.668 189.834C160.715 189.592 160.831 189.37 161.002 189.192C161.132 189.015 161.302 188.871 161.498 188.771C161.694 188.67 161.911 188.617 162.131 188.614C162.647 188.732 163.119 188.995 163.491 189.372L164.094 189.873ZM157.408 196.908L155.946 197.331C155.827 197.349 155.706 197.343 155.59 197.313C155.475 197.283 155.366 197.23 155.271 197.157C155.176 197.084 155.098 196.992 155.039 196.887C154.981 196.783 154.944 196.667 154.932 196.548L154.47 194.866C153.674 191.927 153.7 192.029 156.549 191.118C157.935 190.681 158.281 191.593 158.871 192.325C161.476 195.662 161.476 195.675 157.408 196.908ZM181.084 176.174C175.015 176.598 169.407 175.237 165.993 169.357C165.389 168.309 165.083 167.114 165.108 165.904C165.089 165.477 165.202 165.054 165.431 164.693C165.661 164.333 165.996 164.052 166.391 163.889C179.455 156.353 187.077 144.798 191.376 130.587C191.522 130.17 191.629 129.74 191.697 129.303C191.941 126.902 193.185 126.017 195.546 125.259C204.26 122.537 208.584 115.759 210.381 107.286C211.045 104.716 210.91 102.004 209.992 99.5124C209.075 97.0211 207.42 94.8691 205.248 93.344C207.47 92.9211 209.763 93.0665 211.915 93.7667C214.066 94.4669 216.006 95.6993 217.554 97.3494C226.999 106.991 228.346 124.579 220.506 135.542C218.937 137.574 217.122 139.402 215.103 140.986C213.999 141.91 213.55 141.628 213.011 140.357C210.953 135.389 207.63 131.047 203.374 127.763C203.042 127.493 202.691 127.248 202.322 127.031C201.411 126.504 200.359 125.631 199.537 126.902C198.716 128.173 199.858 128.79 200.731 129.47C206.21 133.332 210.035 139.116 211.446 145.671C212.729 152.09 210.599 157.713 206.749 162.643C203.72 166.638 199.852 169.92 195.418 172.258C190.983 174.596 186.091 175.933 181.084 176.174ZM231.644 114.925C235.726 120.392 238.121 126.934 238.535 133.745C239.433 144.67 237.021 154.799 229.552 163.144C222.828 170.667 214.23 173.748 204.17 172.567C203.677 172.509 203.188 172.419 202.707 172.297C202.514 172.297 202.36 172.079 202.04 171.861C203.195 170.834 204.324 169.884 205.389 168.882C205.928 168.369 206.441 167.855 206.942 167.316C209.188 164.989 211.051 162.32 212.46 159.408C213.766 156.804 214.526 153.96 214.692 151.051C214.58 149.769 214.58 148.48 214.692 147.199C214.834 146.503 215.099 145.838 215.475 145.235C216.363 143.939 217.445 142.787 218.683 141.82C227.666 134.207 229.925 124.078 228.295 112.793C228.295 112.588 228.218 112.383 228.192 112.164C228.166 111.946 228.192 112.049 228.308 111.946C229.684 112.596 230.843 113.63 231.644 114.925ZM123.338 29.8347C130.799 21.7322 140.721 16.3174 151.57 14.4291C166.494 11.5406 180.994 13.0298 194.007 21.1562C208.289 30.1428 215.373 43.2631 214.384 60.389C214.218 63.162 214.166 63.1748 211.587 62.2761C207.542 60.832 203.195 60.4475 198.96 61.1592C197.608 61.3438 196.333 61.8992 195.277 62.764C195.005 62.9474 194.814 63.2277 194.743 63.5476C194.671 63.8674 194.725 64.2026 194.892 64.4843C195.037 64.7795 195.289 65.008 195.597 65.1226C195.905 65.2373 196.245 65.2294 196.547 65.1005C208.892 61.0309 217.297 66.8336 224.009 76.3209C229.822 84.55 230.605 96.515 226.088 104.872C224.98 102.663 223.746 100.52 222.392 98.4535C218.645 93.2028 213.781 90.0318 207.096 90.2629C205.445 90.2437 203.822 90.6885 202.412 91.5467C201.814 91.9315 201.104 92.1034 200.397 92.0345C194.096 91.6237 189.644 94.6021 186.474 99.7373C185.293 101.701 184.831 101.689 183.587 99.7373C182.551 98.0082 182.047 96.0125 182.137 93.9987C182.137 90.1473 182.137 86.4115 185.345 83.3689C188.206 80.6729 189.387 76.8729 190.388 73.0985C190.644 72.1485 190.593 71.16 189.464 70.8134C188.335 70.4668 187.68 71.3269 187.372 72.3668C186.709 74.5538 185.85 76.6764 184.806 78.7087C181.495 85.2561 175.079 86.0264 169.907 83.8439C163.491 81.1993 159.834 75.9357 157.344 69.7222C157.146 69.0365 157.219 68.3008 157.55 67.6681C159.962 59.9653 158.409 52.6092 155.689 45.3429C155.33 44.4186 154.637 43.6354 153.559 44.0591C152.275 44.6111 152.776 45.651 153.135 46.6267C155.24 52.3139 156.433 58.1808 155.368 64.2147C155.105 65.8078 154.495 67.3236 153.581 68.6547C152.668 69.9858 151.473 71.0997 150.081 71.9174C142.01 76.9628 125.25 76.8729 118.411 63.5471C115.712 58.0921 114.739 51.9444 115.619 45.922C116.499 39.8997 119.192 34.2883 123.338 29.8347ZM81.3891 34.161C86.7402 23.5954 100.856 19.1278 111.379 24.5454C113.241 25.4649 114.843 26.8378 116.037 28.538C116.685 29.3351 117.065 30.3166 117.122 31.3425C117.18 32.3683 116.912 33.3862 116.357 34.2509C113.963 38.3981 112.531 43.0304 112.167 47.8057C111.803 52.5809 112.516 57.3771 114.253 61.8397C114.447 62.215 114.563 62.6252 114.597 63.0462C114.63 63.4673 114.578 63.8908 114.445 64.2917C112.332 70.1409 108.711 75.3272 103.949 79.3249C101.702 81.1678 99.0708 82.4838 96.2491 83.1763C94.0006 83.832 91.5935 83.677 89.4476 82.7385C87.3017 81.8 85.5533 80.1376 84.5074 78.0411C83.1841 75.5813 82.5542 72.8078 82.6852 70.0174C82.652 67.5177 83.1966 65.0441 84.2764 62.7897C84.7255 61.8011 85.1747 61.416 86.3809 61.9039C92.4635 64.4714 98.0969 62.9951 103.461 59.7214C104.372 59.1694 105.103 58.3606 104.475 57.2565C103.846 56.1525 102.755 56.4991 101.908 57.0126C100.233 58.0305 98.4517 58.8614 96.5955 59.4903C93.7277 60.4406 90.6142 60.3296 87.8212 59.1775C85.0282 58.0254 82.7413 55.9088 81.3763 53.2126C77.9243 46.8834 78.2067 40.4516 81.3891 34.161ZM42.3015 145.479C39.5425 140.459 38.1951 135.029 38.2208 127.608C38.9266 116.285 43.8799 105.874 56.045 99.8657C57.3397 99.2762 58.6894 98.8161 60.0744 98.492C61.2499 98.0976 62.5097 98.0266 63.722 98.2863C64.9343 98.5461 66.0545 99.127 66.9655 99.9684C70.0949 102.71 73.8934 104.574 77.9757 105.373C79.0793 105.579 80.2214 105.797 80.5422 104.385C80.863 102.972 79.7722 102.639 78.7071 102.305C66.4265 98.4535 58.8682 90.2244 56.5198 77.6688C54.364 66.1147 62.9361 54.9714 74.4853 53.4308C76.4871 53.1612 77.642 53.8545 79.0921 55.4592C81.9024 58.5146 81.6586 61.0822 80.5165 64.8951C78.258 72.4438 79.4642 79.6202 86.4066 84.7554C86.6692 84.9232 86.8893 85.1497 87.0496 85.417C87.2099 85.6843 87.3061 85.9852 87.3305 86.296C88.0026 91.3871 89.1848 96.3977 90.8594 101.252C91.1719 102.189 91.2076 103.197 90.9621 104.154C88.2932 115.602 88.6514 127.548 92.0015 138.816C92.5277 140.511 91.7192 141.679 91.2316 143.053C90.4352 145.543 89.0482 147.803 87.189 149.641C85.3298 151.479 83.0537 152.839 80.555 153.605C74.9857 155.467 70.6355 154.106 67.4018 149.189C64.7111 144.954 63.1881 140.082 62.9874 135.067C62.9874 134.284 62.9874 133.501 62.9874 132.718C62.9874 131.935 62.5768 131.139 61.6143 131.165C60.6519 131.19 60.4594 131.819 60.3311 132.602C59.9724 134.864 60.0464 137.173 60.5492 139.407C61.8325 145.479 63.6675 151.307 68.9673 155.249C70.0837 156.07 69.3395 156.609 68.6722 156.995C65.695 158.689 62.5896 159.742 59.0863 158.946C51.3227 157.161 46.0229 152.257 42.3015 145.479ZM88.2545 179.166C85.9446 185.944 80.555 189.436 73.9463 189.051C70.6208 188.749 67.4798 187.387 64.9852 185.166C62.4906 182.946 60.7738 179.983 60.0873 176.714C59.7009 175.293 59.5534 173.818 59.651 172.349C59.5747 169.465 60.0494 166.594 61.0497 163.889C61.1935 163.381 61.4946 162.932 61.9097 162.607C62.3249 162.281 62.8325 162.096 63.3595 162.078C66.7088 161.616 69.9426 160.795 72.1241 157.842C72.3247 157.592 72.5966 157.409 72.9038 157.317C73.211 157.225 73.5388 157.229 73.8436 157.328C77.4674 157.845 81.1604 157.155 84.3534 155.364C85.5725 154.722 86.0729 155.043 86.6376 156.16C88.478 159.676 89.5716 163.535 89.8499 167.494C90.1281 171.453 89.5849 175.427 88.2545 179.166ZM124.724 169.345C121.478 180.475 103.936 185.097 94.1574 177.471C93.5879 177.113 93.1382 176.593 92.8661 175.978C92.5941 175.363 92.5119 174.68 92.6303 174.018C93.7127 167.273 92.5113 160.359 89.2169 154.376C89.052 154.178 88.9301 153.948 88.8591 153.701C88.7881 153.453 88.7695 153.194 88.8046 152.939C88.8396 152.684 88.9275 152.439 89.0626 152.22C89.1976 152.001 89.377 151.812 89.589 151.667C91.6061 149.608 93.1632 147.145 94.1574 144.439C100.792 156.455 111.481 162.515 123.492 166.739C125.058 167.291 125.199 167.714 124.724 169.345ZM106.323 154.145C98.0713 147.828 94.5295 139.06 93.0153 129.175C91.7422 120.987 92.0296 112.632 93.8622 104.552C94.1739 102.871 94.0276 101.137 93.4388 99.5319C92.2466 95.8009 91.2571 92.0082 90.4745 88.1703C90.2948 87.2716 90.0767 86.4757 91.5524 86.6041C97.8916 87.1561 103.102 84.5628 107.593 80.4162C111.444 76.7312 114.501 72.2967 116.576 67.3857C117.243 67.2829 117.346 67.8093 117.564 68.1303C122.876 75.6661 130.396 78.2851 139.289 78.0668C144.689 78.1565 149.937 76.2711 154.046 72.7648C155.086 71.8533 155.33 72.5979 155.676 73.3425C155.779 73.584 155.894 73.8197 156.023 74.0485C156.869 75.7374 157.857 77.3521 158.974 78.8756C161.143 81.7947 163.947 84.1827 167.174 85.8595C168.671 86.6892 170.291 87.2743 171.973 87.5926C174.3 88.0315 176.691 88.001 179.005 87.5027C180.019 87.2588 179.596 88.1831 179.532 88.671C179.022 91.917 179.118 95.2294 179.814 98.4406C180.115 99.8393 180.753 101.143 181.672 102.24C182.591 103.336 183.764 104.191 185.088 104.731C186.5 105.335 187.372 105.116 188.001 103.717C188.638 102.204 189.462 100.777 190.452 99.4677C191.412 98.1747 192.639 97.1032 194.05 96.3258C195.46 95.5484 197.021 95.0831 198.626 94.9616C200.822 94.8232 202.984 95.5528 204.647 96.9935C206.311 98.4341 207.342 100.471 207.519 102.664C208.61 111.42 201.283 121.51 192.633 123.205C191.212 123.414 189.763 123.089 188.566 122.294C187.757 121.831 186.897 121.536 186.32 122.486C186.184 122.682 186.098 122.907 186.069 123.144C186.039 123.38 186.069 123.62 186.153 123.843C186.238 124.066 186.376 124.264 186.555 124.422C186.734 124.579 186.948 124.69 187.18 124.746C189.656 125.516 189.194 127.082 188.655 128.892C184.806 141.73 178.21 152.732 166.584 160.101C157.806 165.66 148.156 167.406 137.942 166.52C126.427 165.542 115.443 161.243 106.323 154.145ZM128.677 183.967C131.899 180.396 133.926 175.908 134.477 171.129C134.657 169.768 135.144 169.37 136.53 169.563C142.128 170.211 147.793 169.968 153.315 168.844C154.803 168.574 155.355 168.562 155.599 170.333C156.102 174.984 158.117 179.341 161.335 182.735C162.464 183.89 162.31 184.442 161.104 185.302C156.318 188.756 150.838 189.731 145.307 189.924C139.68 189.843 134.139 188.528 129.074 186.072C127.804 185.456 127.663 185.045 128.677 183.967ZM152.186 197.357C152.186 198.281 151.775 198.435 149.055 198.538C147.155 198.615 146.398 197.601 146.411 194.109C146.411 193.621 146.527 192.979 147.066 192.825C147.463 192.748 147.868 192.722 148.272 192.748C148.866 192.639 149.474 192.639 150.068 192.748C150.42 192.929 150.713 193.205 150.915 193.544C151.589 194.493 152.029 195.589 152.198 196.741C152.194 196.947 152.177 197.153 152.147 197.357H152.186ZM139.623 195.598V194.931C139.574 194.275 139.656 193.615 139.867 192.992C140.303 192.106 141.522 192.53 142.241 192.735C142.577 192.799 142.887 192.965 143.126 193.21C143.354 193.58 143.494 193.998 143.537 194.43L144.05 196.818C144.165 197.319 144.435 198.102 143.832 198.448C143.233 198.685 142.59 198.793 141.947 198.764C141.303 198.736 140.673 198.571 140.097 198.281C139.507 197.999 139.52 197.575 139.546 196.998L139.623 195.598ZM136.71 194.764C136.71 195.072 136.71 195.38 136.71 195.688C136.71 196.202 136.928 197.293 136.248 197.473C135.116 197.608 133.974 197.31 133.052 196.638C132.321 196.227 132.732 195.457 132.911 194.828C133.098 194.006 133.36 193.202 133.694 192.427C133.822 192.158 133.861 191.85 134.105 191.644C134.261 191.555 134.434 191.5 134.614 191.482C134.793 191.465 134.973 191.485 135.144 191.541C135.837 191.696 136.697 191.991 136.684 192.825C136.658 193.467 136.671 194.122 136.671 194.764H136.71ZM127.085 192.427C127.56 191.72 127.989 190.982 128.369 190.219C128.574 189.847 128.689 189.423 129.216 189.398C129.501 189.39 129.784 189.45 130.042 189.573C130.3 189.696 130.525 189.878 130.699 190.104C130.873 190.331 130.991 190.596 131.043 190.877C131.096 191.158 131.08 191.447 130.999 191.721C130.871 192.196 130.704 192.658 130.537 193.133C129.742 195.547 129.767 195.483 127.599 194.34C126.521 193.801 126.38 193.326 127.047 192.427H127.085ZM122.748 188.756C123.313 188.409 123.89 188.075 124.429 187.69C124.968 187.305 125.25 187.215 125.712 187.549C125.843 187.658 125.946 187.796 126.015 187.952C126.084 188.108 126.117 188.277 126.11 188.448C126.073 188.744 125.962 189.026 125.789 189.269C125.466 189.824 125.11 190.36 124.724 190.874C124.365 191.349 124.108 191.747 123.441 191.708C122.791 191.277 122.215 190.743 121.734 190.129C121.336 189.423 122.068 189.166 122.556 188.845L122.748 188.756ZM93.8879 243.047H80.863C76.6668 243.047 72.4577 242.97 68.2615 243.047C66.6703 243.047 66.4008 242.611 66.6446 241.109C68.4412 230.068 71.8418 219.682 78.7328 210.683C81.1254 207.666 83.9039 204.977 86.9969 202.685C88.5881 201.401 89.2554 201.927 89.8842 203.571C91.6892 208.671 92.9789 213.939 93.7339 219.297C95.0172 226.756 94.8247 234.33 95.4021 241.841C95.4663 243.176 94.6707 243.047 93.8879 243.047ZM200.038 242.328C199.95 242.456 199.838 242.564 199.708 242.648C199.578 242.732 199.433 242.789 199.281 242.816C199.043 242.856 198.803 242.878 198.562 242.88C197.202 242.88 195.854 242.88 194.507 242.88H149.504C133.258 242.88 117.012 242.88 100.74 242.88C98.8412 242.88 98.3792 242.367 98.3279 240.505C98.0071 228.746 97.327 217.025 93.7467 205.689C93.3133 204.187 92.7375 202.729 92.0272 201.337C91.3471 200.053 91.7064 199.655 92.8613 199.142C97.0615 197.363 101.412 195.962 105.861 194.956C109.754 194.1 113.569 192.924 117.269 191.439C117.631 191.231 118.055 191.159 118.466 191.234C118.877 191.309 119.249 191.527 119.514 191.85C132.154 203.609 152.378 204.585 166.648 195.996C168.869 194.694 170.849 193.018 172.499 191.041C172.961 190.476 173.321 189.937 174.245 190.322C184.318 194.469 194.982 197.023 204.888 201.619C206.505 202.377 208.738 202.903 209.444 204.187C210.15 205.471 208.392 207.332 207.724 208.924C207.237 210.105 206.762 211.286 206.313 212.48C205.864 213.674 205.44 214.868 205.03 216.075C204.619 217.282 204.247 218.488 203.888 219.708C203.528 220.928 203.195 222.147 202.887 223.38C202.579 224.612 202.309 225.844 202.052 227.09C201.796 228.335 201.578 229.58 201.385 230.838C201.193 232.097 201.013 233.406 200.872 234.69L200.679 236.59L200.602 237.553C200.525 238.657 200.423 239.761 200.359 240.865C200.342 241.159 200.299 241.451 200.23 241.738C200.213 241.959 200.147 242.174 200.038 242.367V242.328ZM231.105 242.957C226.845 242.957 222.572 242.957 218.273 242.957C213.974 242.957 209.867 242.957 205.671 242.957C204.157 242.957 203.695 242.444 203.669 241.019C203.725 234.821 204.614 228.659 206.313 222.699C207.616 217.546 209.399 212.525 211.638 207.704C212.306 206.305 212.819 206.113 214.102 207.075C219.774 211.389 223.393 217.217 226.293 223.546C228.776 229.376 230.818 235.384 232.401 241.52C232.812 242.893 232.234 242.97 231.105 242.957Z" fill="#4039A3"/>
<path d="M146.745 94.3582C145.907 94.3794 145.098 94.6672 144.435 95.1799C143.665 95.5522 142.882 95.7191 142.343 94.9103C141.804 94.1015 142.228 93.2798 142.985 92.7406C144.293 91.874 145.773 91.3004 147.323 91.0589C148.874 90.8173 150.458 90.9137 151.967 91.3413C153.546 91.7643 155.097 92.2831 156.613 92.8947C158.396 93.5109 160.142 93.9859 161.925 92.8947C162.085 92.7739 162.269 92.6889 162.464 92.6453C162.66 92.6016 162.862 92.6005 163.058 92.6419C163.254 92.6832 163.438 92.7662 163.599 92.8851C163.76 93.004 163.894 93.1562 163.991 93.3312C164.569 94.2427 164.068 95.0001 163.337 95.5393C162.468 96.099 161.486 96.4605 160.461 96.598C159.437 96.7356 158.394 96.6459 157.408 96.3353C155.548 95.9373 152.673 99.0826 153.186 100.931C153.34 101.522 153.687 102.215 154.2 102.215C156.51 102.305 155.676 103.679 155.317 104.783C155.074 105.504 154.747 106.193 154.341 106.837C152.224 110.264 148.49 110.136 146.642 106.567C145.153 103.781 145.359 100.777 145.834 97.7988C146.067 96.6346 146.372 95.4856 146.745 94.3582Z" fill="#4039A3"/>
<path d="M110.313 96.746C110.359 96.8533 110.394 96.9652 110.416 97.0798C110.57 97.7088 109.928 98.017 109.518 98.3636C107.875 99.8271 108.068 101.034 110.031 102.061C110.403 102.253 110.737 102.318 110.852 102.87C111.378 105.347 109.646 108.467 107.362 109.019C105.078 109.571 102.947 107.735 102.332 105.168C102.047 103.896 101.828 102.611 101.677 101.316C101.536 100.033 101.536 98.7487 101.459 97.2852C100.28 97.678 99.0442 97.8732 97.8017 97.8629C96.6596 97.6575 95.3635 97.3365 95.5432 95.8473C95.7228 94.3581 96.8264 94.7818 97.8915 94.9487C99.8035 95.2568 101.048 93.8575 102.498 93.023C105.976 91.0331 109.235 91.1101 112.071 93.3439C112.713 93.8575 113.252 94.4223 112.995 95.321C112.92 95.6011 112.752 95.8474 112.519 96.0199C112.286 96.1924 112.002 96.2809 111.712 96.271C111.353 96.271 111.083 96.0014 110.775 95.8602C110.417 95.6815 110.02 95.5934 109.62 95.6034C109.836 95.7876 110.011 96.015 110.134 96.271C110.212 96.4217 110.272 96.5812 110.313 96.746Z" fill="#4039A3"/>
<path d="M152.622 133.411C151.236 133.411 150.389 133.411 149.542 133.411C149.363 133.429 149.182 133.409 149.011 133.353C148.841 133.297 148.684 133.205 148.55 133.084C148.417 132.963 148.311 132.815 148.239 132.65C148.166 132.486 148.13 132.307 148.13 132.127C148.117 131.799 148.217 131.475 148.413 131.211C148.609 130.947 148.89 130.759 149.208 130.677C152.327 129.393 157.922 131.961 159.025 135.157C159.195 135.702 159.281 136.269 159.282 136.839C159.282 137.763 159.064 138.598 157.999 138.688C156.934 138.778 156.638 138.084 156.446 137.237C156.253 136.39 156.446 135.607 155.599 135.453C154.752 135.298 154.649 136.21 154.316 136.736C150.877 140.69 146.488 141.871 141.483 141.396C138.301 141.076 135.183 140.228 131.962 140.267C129.673 140.207 127.41 140.77 125.417 141.897C124.583 142.398 123.646 142.86 122.979 141.897C122.312 140.934 123.069 140.023 123.967 139.484C127.364 137.613 131.292 136.939 135.118 137.571C138.224 137.905 141.291 138.662 144.448 138.482C146.12 138.369 147.74 137.848 149.165 136.964C150.59 136.08 151.777 134.86 152.622 133.411Z" fill="#4039A3"/>
<path d="M124.75 126.646C123.387 126.694 122.036 126.38 120.834 125.735C119.632 125.09 118.623 124.137 117.91 122.974C117.227 121.832 116.915 120.505 117.019 119.178C117.122 117.851 117.636 116.589 118.488 115.566C118.852 114.973 119.035 114.286 119.014 113.589C119.206 110.406 119.489 107.17 119.784 104.025C119.887 102.947 120.118 101.689 121.58 101.907C123.043 102.125 122.774 103.435 122.697 104.474C122.504 106.67 122.299 108.865 122.055 111.047C121.953 111.997 121.85 112.793 123.262 112.498C124.057 112.344 124.904 112.408 125.084 113.461C125.263 114.514 124.699 114.912 123.8 115.194L123.403 115.348C120.836 116.491 119.45 118.648 120.041 120.573C120.746 122.884 123.313 124.091 126.162 123.475C127.135 123.264 128.061 122.877 128.895 122.332C129.742 121.78 130.704 121.549 131.359 122.512C132.013 123.475 131.359 124.386 130.486 124.99C128.771 126.077 126.781 126.652 124.75 126.646Z" fill="#4039A3"/>
<path d="M112.944 87.0277C106.949 87.3435 101.12 89.1053 95.9537 92.1629C95.3891 92.4838 94.8629 92.8433 94.2983 93.1385C94.1477 93.2361 93.9793 93.3029 93.8027 93.3351C93.6262 93.3673 93.445 93.3642 93.2697 93.326C93.0943 93.2878 92.9283 93.2153 92.7811 93.1126C92.6339 93.0099 92.5084 92.8791 92.412 92.7277C92.2838 92.5841 92.1895 92.4135 92.1362 92.2285C92.0829 92.0435 92.0718 91.8488 92.1038 91.659C92.1359 91.4691 92.2102 91.2889 92.3213 91.1317C92.4324 90.9745 92.5774 90.8443 92.7456 90.7507C93.8779 89.8869 95.0797 89.1183 96.3387 88.4527C101.882 85.7439 107.657 83.8182 113.945 83.9722C114.652 83.9699 115.356 84.0649 116.036 84.2547C116.217 84.2868 116.389 84.3549 116.542 84.4551C116.695 84.5552 116.827 84.6853 116.929 84.8376C117.031 84.9898 117.101 85.1611 117.135 85.3411C117.169 85.5211 117.166 85.7061 117.127 85.8851C117.11 86.0529 117.059 86.2155 116.979 86.3638C116.898 86.512 116.789 86.643 116.658 86.7491C116.527 86.8552 116.376 86.9344 116.215 86.9822C116.053 87.03 115.883 87.0455 115.716 87.0277H112.944Z" fill="#4039A3"/>
<path d="M195.2 106.708C196.381 105.424 197.433 104.141 198.537 102.934C199.229 102.189 200.038 101.381 201.103 102.343C202.168 103.306 201.424 104.025 200.782 104.757C197.728 108.249 195.059 112.023 192.326 115.746C191.684 116.619 190.94 117.685 189.759 116.773C188.579 115.862 189.361 114.86 189.952 113.936C190.018 113.811 190.1 113.694 190.195 113.589C191.385 112.627 192.18 111.262 192.431 109.753C192.682 108.243 192.37 106.694 191.556 105.399C191.379 104.932 191.3 104.434 191.325 103.935C191.275 103.576 191.364 103.211 191.574 102.916C191.784 102.62 192.099 102.415 192.454 102.343C193.301 102.164 193.737 102.69 194.02 103.447C194.257 104.585 194.654 105.683 195.2 106.708Z" fill="#4039A3"/>
<path d="M135.734 147.199C138.031 147.153 140.258 147.989 141.958 149.536C142.69 150.203 143.241 151.051 142.394 151.949C141.547 152.848 140.88 152.386 140.11 151.949C136.171 149.382 134.066 149.497 130.37 152.45C129.665 153.015 128.946 153.259 128.292 152.553C128.013 152.218 127.875 151.788 127.909 151.354C127.942 150.92 128.144 150.516 128.471 150.229C130.127 148.226 132.475 147.661 134.887 147.276C135.167 147.225 135.45 147.199 135.734 147.199Z" fill="#4039A3"/>
</g>
<defs>
<clipPath id="clip0_1_1221">
<rect width="207" height="236" fill="white" transform="translate(35 10)"/>
</clipPath>
</defs>
</svg>
