<svg width="246" height="246" viewBox="0 0 246 246" fill="none" xmlns="http://www.w3.org/2000/svg">
<mask id="mask0_1_1155" style="mask-type:alpha" maskUnits="userSpaceOnUse" x="0" y="0" width="246" height="246">
<rect width="246" height="246" rx="10" fill="#D9D9D9"/>
</mask>
<g mask="url(#mask0_1_1155)">
</g>
<g clip-path="url(#clip0_1_1155)">
<path d="M93.0593 103.254C93.3599 103.744 93.4986 104.013 93.6836 104.258C94.5043 105.366 94.8395 106.194 93.0824 106.871C92.7703 106.966 92.4804 107.123 92.2302 107.334C91.9801 107.545 91.7748 107.805 91.6268 108.099C91.4789 108.392 91.3912 108.712 91.3692 109.041C91.3472 109.369 91.3913 109.698 91.4987 110.009C91.6899 110.634 92.0945 111.17 92.6405 111.523C93.1866 111.875 93.8388 112.021 94.4812 111.934C95.6372 111.934 95.8799 112.26 95.8568 113.345C95.8905 115.488 95.3386 117.599 94.2616 119.447C92.2964 122.632 89.0018 122.946 86.6089 120.065C83.7305 116.565 83.4993 112.4 83.9039 108.107C83.9039 107.804 84.0195 107.501 84.1004 107.034C82.8102 107.492 81.4782 107.821 80.1238 108.014C79.4231 108.118 78.7077 108.047 78.0405 107.807C77.3733 107.567 76.7748 107.166 76.2975 106.637C76.0365 106.383 75.8835 106.037 75.8705 105.672C75.8576 105.306 75.9858 104.95 76.2282 104.677C76.3291 104.548 76.4559 104.442 76.6003 104.366C76.7447 104.29 76.9034 104.245 77.0661 104.236C77.2287 104.226 77.3916 104.25 77.544 104.309C77.6965 104.367 77.835 104.457 77.9506 104.572C78.4697 105.01 79.1128 105.271 79.7877 105.317C80.4627 105.363 81.1347 105.192 81.7075 104.829C83.2915 104.141 84.8354 103.362 86.3315 102.496C89.4631 100.628 93.1635 99.9807 96.7354 100.676C97.2374 100.773 97.7264 100.93 98.1919 101.143C99.0358 101.539 99.5791 102.181 99.1976 103.149C98.8161 104.118 98.0416 104.118 97.244 103.838C95.8922 103.404 94.4769 103.207 93.0593 103.254Z" fill="#4039A3"/>
<path d="M113.37 132.536C111.431 132.664 109.499 132.205 107.821 131.218C106.142 130.23 104.794 128.76 103.949 126.995C103.479 126.067 103.286 125.021 103.394 123.985C103.394 123.18 103.799 122.573 104.631 122.515C105.463 122.457 105.787 123.052 105.937 123.857C106.186 125.527 107.038 127.047 108.328 128.123C109.619 129.199 111.258 129.757 112.931 129.69C116.699 129.795 118.826 127.776 118.942 123.962C118.942 123.833 118.942 123.705 118.942 123.577C118.873 122.597 118.942 121.663 120.167 121.523C121.393 121.383 121.763 122.41 121.89 123.402C122 124.483 121.897 125.576 121.586 126.617C121.275 127.659 120.763 128.627 120.08 129.468C119.396 130.308 118.555 131.004 117.604 131.515C116.652 132.025 115.61 132.341 114.538 132.443C114.145 132.559 113.752 132.536 113.37 132.536Z" fill="#4039A3"/>
<path d="M191.746 230.659C189.434 217.442 183.654 206.475 172.221 198.986C167.228 195.696 162.303 192.301 157.286 189.035C156.837 188.724 156.498 188.277 156.317 187.76C156.137 187.242 156.124 186.679 156.28 186.153C156.408 185.138 157.506 185.5 158.199 185.43C162.769 185.156 167.206 183.776 171.135 181.405C172.931 180.374 174.41 178.862 175.408 177.036C176.405 175.21 176.883 173.141 176.788 171.057C176.663 168.602 176.327 166.162 175.782 163.766C175.417 162.248 175.427 160.664 175.81 159.15C176.193 157.637 176.937 156.242 177.978 155.087C179.389 153.488 180.857 151.948 182.325 150.42C189.261 143.117 189.746 134.636 183.723 126.54C181.92 124.113 179.839 121.873 177.944 119.54C176.464 117.852 175.493 115.773 175.147 113.546C174.801 111.32 175.093 109.04 175.99 106.976C177.146 104.153 178.371 101.388 179.62 98.6229C186.556 83.1887 186.371 67.7079 178.753 52.7404C172.372 40.1994 161.922 33.1764 147.599 33.8764C135.992 34.2974 124.905 38.8422 116.295 46.709C115.474 47.4556 115.254 47.409 114.711 46.4407C108.295 34.8913 98.0417 29.8049 85.4184 29.0583C74.6561 28.4283 65.5238 32.6514 57.4319 39.4994C48.0453 47.3856 43.1555 57.4418 43.352 69.8311C43.6022 76.9158 45.4274 83.8532 48.6927 90.13C49.1316 90.9914 49.3946 91.933 49.4661 92.8989C49.5376 93.8648 49.4161 94.8354 49.1088 95.753C48.2268 98.3274 46.9471 100.745 45.3172 102.916C43.0052 106.241 40.0228 109.076 37.4565 112.249C35.0516 115.021 33.3643 118.352 32.5454 121.943C31.7264 125.533 31.8012 129.273 32.7632 132.828C33.2197 134.622 33.2197 136.504 32.7632 138.299C31.1448 145.299 32.2777 151.785 37.549 156.965C39.527 158.832 40.8701 161.281 41.3868 163.964C43.8838 174.755 51.2821 180.81 61.6513 183.47C65.7251 184.484 69.9204 184.912 74.1128 184.742C73.8701 187.821 72.1939 189.735 69.8357 191.275C68.0554 192.441 66.4602 193.853 64.7956 195.171C59.3393 199.487 53.7906 203.734 49.4325 209.24C40.8782 220.031 38.7627 232.771 38.7049 246.105H194C193.561 240.844 192.682 235.757 191.746 230.659ZM117.647 49.2055C120.814 46.0756 124.535 43.5745 128.618 41.8326C134.359 39.0541 140.558 37.3656 146.905 36.8512C159.113 36.1162 168.534 41.2726 174.649 51.6087C182.984 65.608 183.897 80.5405 177.562 95.7297C176.256 98.8912 174.765 101.983 173.435 105.133C170.823 111.362 171.852 117.02 176.163 122.13C177.793 124.043 179.481 125.91 181.042 127.893C186.371 134.671 186.093 141.892 180.29 148.192C178.938 149.662 177.562 151.12 176.186 152.567C172.857 156.066 172.083 160.196 172.95 164.793C173.216 166.181 173.505 167.581 173.759 168.981C174.219 170.954 174.015 173.026 173.177 174.868C172.34 176.711 170.917 178.219 169.135 179.154C164.06 182.07 158.511 182.817 152.778 182.653C147.295 182.558 141.966 180.802 137.484 177.614C134.976 175.682 131.996 174.472 128.86 174.114C128.305 174.114 127.843 174.044 127.832 173.297C127.832 172.061 127.832 170.836 127.716 169.611C127.6 168.386 128.525 168.561 129.115 168.339C136.087 165.795 142.318 161.532 147.241 155.938C149.628 153.215 151.539 150.103 152.893 146.734C153.113 146.185 153.252 145.089 154.234 146.15C158.997 151.26 161.841 158.82 157.413 165.388C155.425 168.316 153.067 170.917 148.951 170.311C148.658 170.262 148.357 170.33 148.112 170.499C147.866 170.669 147.695 170.927 147.634 171.221C147.53 171.533 147.552 171.874 147.694 172.171C147.837 172.468 148.089 172.696 148.397 172.807C149.45 173.322 150.661 173.401 151.772 173.029C154.385 172.276 156.734 170.794 158.548 168.753C160.362 166.711 161.568 164.194 162.026 161.491C163.563 154.107 160.5 148.227 155.436 143.199C154.859 142.616 154.419 142.231 154.674 141.262C155.693 137.454 156.275 133.539 156.408 129.596C156.408 129.433 156.546 129.258 156.708 128.908C158.78 131.132 161.14 133.063 163.725 134.648C166.686 136.39 170.115 137.149 173.528 136.818C174.428 136.748 175.304 136.491 176.1 136.061C176.897 135.631 177.595 135.039 178.152 134.321C178.374 134.084 178.527 133.79 178.592 133.47C178.658 133.151 178.633 132.819 178.522 132.513C178.396 132.208 178.169 131.957 177.88 131.804C177.591 131.65 177.257 131.604 176.938 131.673C173.285 131.894 170.719 129.97 168.626 127.251C164.176 121.477 161.968 114.792 160.962 107.629C159.806 99.8128 161.771 92.3116 163.089 84.7403C164.708 75.4075 164.43 66.4363 159.436 58.0717C158.332 56.0889 156.883 54.3226 155.159 52.857C154.614 52.4135 154.016 52.0411 153.379 51.7487C153.072 51.5848 152.714 51.5504 152.382 51.6532C152.05 51.7561 151.773 51.9876 151.61 52.297C151.448 52.6064 151.414 52.9683 151.516 53.3031C151.617 53.6378 151.847 53.918 152.153 54.0819C158.061 58.4567 160.118 64.803 160.893 71.7327C161.575 77.869 160.384 83.8653 159.159 89.8267C156.754 101.493 157.251 112.855 162.812 123.658C163.986 126.053 165.479 128.275 167.251 130.261C168.173 131.241 169.192 132.125 170.291 132.898C170.753 133.224 171.447 133.679 170.464 133.924C169.956 134.053 169.308 133.644 168.834 133.516C168.223 133.357 167.62 133.162 167.031 132.933C165.891 132.489 164.802 131.922 163.783 131.241C161.785 129.87 160.007 128.198 158.511 126.283C153.876 120.3 150.569 113.381 148.813 105.996C146.189 96.1614 146.038 86.0469 144.362 76.1308C143.53 71.1844 142.478 66.3313 139.599 62.1315C134.201 54.1986 125.913 53.487 119.208 60.3699C119 60.5916 118.919 60.9416 118.561 61.1282C117.983 57.7218 117.405 54.5253 116.653 51.3521C116.387 50.3955 117.069 49.8005 117.647 49.2055ZM117.74 66.3313C122.948 64.447 128.677 64.6686 133.727 66.9496C139.206 69.2011 141.495 73.4826 141.935 79.1873C142.235 83.0487 142.663 86.9102 143.218 90.7483C143.495 92.6965 142.802 92.6499 141.31 92.2999C136.219 91.0907 130.931 90.9873 125.797 91.9966C124.78 92.2066 123.485 92.3466 123.739 93.7348C124.028 95.2981 125.358 94.7731 126.421 94.6214C128.332 94.2911 130.263 94.0962 132.201 94.0381C135.344 94.0702 138.474 94.4616 141.53 95.2047C142.236 95.2631 142.895 95.5867 143.377 96.1115C143.858 96.6364 144.128 97.3243 144.131 98.0396C144.293 100.069 144.778 102.076 145.16 104.258C143.437 103.723 141.802 102.937 140.305 101.924C138.512 100.902 136.532 100.258 134.485 100.032C132.439 99.8052 130.368 100.001 128.398 100.606C127.964 100.716 127.542 100.868 127.138 101.061C126.828 101.166 126.569 101.386 126.415 101.676C126.26 101.967 126.221 102.306 126.306 102.624C126.35 102.799 126.43 102.963 126.54 103.105C126.65 103.248 126.788 103.366 126.945 103.452C127.103 103.539 127.276 103.592 127.454 103.608C127.632 103.624 127.812 103.603 127.982 103.546C129.049 103.098 130.205 102.91 131.357 102.998C129.31 106.382 128.308 110.305 128.479 114.267C128.629 117.65 129.866 120.03 131.947 120.59C134.028 121.15 136.178 119.645 137.796 116.495C138.12 115.865 138.328 115.177 138.64 114.535C139.241 113.24 139.391 112.319 137.484 112.097C136.143 111.934 135.715 110.931 135.796 109.507C135.889 107.921 136.744 106.976 138.108 106.976C139.75 106.976 140.108 106.521 138.929 104.643C141.484 105.809 143.333 107.104 145.53 107.512C146.142 107.629 146.108 108.294 146.258 108.772C147.828 114.323 150.229 119.599 153.379 124.417C153.702 124.816 153.885 125.312 153.899 125.828C153.622 134.811 152.5 143.642 147.125 151.12C139.646 161.526 129.277 167.021 116.561 167.826C107.631 168.433 98.6808 166.997 90.3776 163.626C84.6366 161.112 79.6529 157.117 75.9277 152.042C75.6788 151.751 75.5002 151.405 75.4059 151.033C75.3116 150.66 75.3043 150.271 75.3844 149.895C76.125 144.416 75.6592 138.839 74.0203 133.563C73.8848 133.237 73.8338 132.882 73.8723 132.531C73.9107 132.18 74.0373 131.844 74.24 131.556C74.4342 131.296 74.5899 131.009 74.7024 130.704C75.1301 129.538 75.9855 128.266 74.4365 127.485C72.8875 126.703 72.5985 128.301 71.9396 129.433C70.9709 128.307 69.7927 127.383 68.4716 126.715C67.5977 126.292 66.6284 126.111 65.6626 126.19C64.888 126.271 64.2754 126.551 64.206 127.426C64.1683 127.622 64.1741 127.823 64.223 128.016C64.272 128.209 64.3628 128.388 64.489 128.541C64.6151 128.694 64.7734 128.817 64.9524 128.901C65.1314 128.984 65.3266 129.027 65.5238 129.025C67.0655 129.228 68.476 130.006 69.4773 131.206C70.1593 131.988 70.0669 132.513 69.2114 133.049C68.3241 133.638 67.3175 134.019 66.2655 134.164C65.2134 134.31 64.1424 134.216 63.1309 133.889C60.2488 132.916 57.7951 130.956 56.195 128.348C55.4899 127.321 56.195 126.785 56.8077 126.283C59.4202 124.288 62.1368 122.433 64.6684 120.357C70.5639 115.539 74.5983 109.566 75.4191 101.691C75.4522 101.312 75.5827 100.948 75.7975 100.635C76.0124 100.322 76.3042 100.071 76.6444 99.9062C82.2959 96.3726 88.8402 94.5655 95.487 94.7031C95.9378 94.7031 96.3887 94.7614 96.8395 94.7614C97.8799 94.7614 99.1515 94.9014 99.1515 93.4082C99.1515 92.1716 98.088 92.0316 97.0592 91.9149C93.8608 91.6374 90.6392 91.8657 87.5107 92.5915C83.8626 93.3349 80.3522 94.6496 77.1068 96.488C75.9508 97.118 75.5 97.3046 75.4884 95.6364C75.4317 93.6467 75.1918 91.6666 74.7717 89.7217C74.1009 86.599 74.5088 83.3386 75.9277 80.4822C80.5517 71.301 87.372 64.9314 97.7065 63.1815C103.321 62.2134 109.094 63.2051 114.075 65.993C114.614 66.3431 115.228 66.5567 115.866 66.6156C116.504 66.6745 117.147 66.577 117.74 66.3313ZM86.8055 192.919C90.8485 205.644 98.57 216.857 108.977 225.118C109.791 225.856 110.665 226.523 111.59 227.113C111.91 227.267 112.194 227.488 112.423 227.762C112.652 228.035 112.822 228.355 112.919 228.699C112.995 229.037 112.995 229.388 112.919 229.726C112.875 229.982 112.793 230.229 112.677 230.461C112.492 230.764 112.249 230.589 112.006 230.461L111.151 230.064C110.561 229.773 109.995 229.376 109.417 229.108C108.411 228.571 107.382 228.069 106.388 227.533C104.584 226.565 102.84 225.49 101.163 224.313C99.4741 223.11 97.9232 221.721 96.539 220.171C96.3889 219.96 96.1932 219.786 95.9668 219.663C95.7404 219.539 95.4891 219.469 95.2319 219.458C94.9747 219.447 94.7184 219.495 94.4822 219.598C94.246 219.701 94.0362 219.858 93.8686 220.055C90.9223 222.245 88.2103 224.74 85.7767 227.498C85.5428 227.734 85.2916 227.952 85.0253 228.151C83.7537 223.076 82.54 218.13 81.2684 213.195C79.1626 205.794 77.5027 198.271 76.2976 190.668C76.0846 189.755 76.0988 188.804 76.3388 187.898C76.5788 186.992 77.0373 186.16 77.6733 185.477C82.2565 180.827 87.7214 177.157 93.7415 174.685C94.0536 174.557 94.8975 174.114 94.8975 174.825C94.8975 175.537 93.7415 175.654 93.3138 175.852C89.4412 177.8 86.5628 180.519 85.7998 185.057C85.4958 187.721 85.841 190.42 86.8055 192.919ZM67.9052 137.646C67.6855 136.911 68.0786 136.771 68.5756 136.549C69.4426 136.164 70.2865 135.733 71.3847 135.196C72.4816 138.931 72.8738 142.841 72.5407 146.722C70.5415 143.956 68.9779 140.894 67.9052 137.646ZM70.0091 151.832C69.1962 152.012 68.3551 152.02 67.5389 151.855C66.7228 151.691 65.9492 151.358 65.2671 150.877C64.585 150.395 64.0091 149.777 63.5758 149.06C63.1425 148.343 62.8611 147.543 62.7495 146.71C62.1111 143.361 61.6749 139.975 61.4432 136.573C63.7552 136.573 64.9112 137.249 65.5007 139.606C66.7012 143.383 68.518 146.931 70.8761 150.105C71.7893 151.412 71.1766 151.657 70.0091 151.832ZM37.4912 117.429C39.2343 114.621 41.2687 112.008 43.5601 109.636C47.1003 105.943 49.8852 101.582 51.756 96.803C52.764 98.9754 53.2249 101.365 53.0978 103.761C52.9708 106.156 52.2597 108.483 51.0278 110.534C49.2667 113.393 47.1921 116.042 44.8432 118.432C41.2049 122.259 38.0235 126.503 35.3641 131.078C34.3464 126.42 35.1059 121.546 37.4912 117.429ZM36.1733 136.969C38.2079 131.136 41.7221 126.376 45.6987 121.803C47.9897 119.378 50.147 116.827 52.1606 114.162C56.5071 107.991 57.247 101.458 54.0333 94.5514C51.8601 89.885 49.4787 85.2186 47.9875 80.2955C42.8665 63.1465 49.34 47.8756 63.7552 38.4028C69.9628 34.3197 76.7138 31.6015 84.1815 31.9281C95.8685 32.4298 105.833 36.5946 112.122 47.2806C114.237 50.8738 114.434 55.0152 115.231 59.0167C112.341 55.4112 108.703 52.4884 104.573 50.4538C91.7879 44.4808 77.9854 50.5821 72.9799 64.3597C70.5293 71.1727 70.5061 78.184 71.3038 85.2653C71.7199 88.9867 72.321 92.6965 72.5869 96.4413C73.2111 105.191 69.7547 112.202 63.1541 117.709C61.3809 119.202 59.5161 120.582 57.5706 121.838C50.9468 126.061 49.2822 132.338 50.1145 139.676C50.5111 143.125 51.6015 146.456 53.3189 149.465C55.0363 152.474 57.3446 155.098 60.1023 157.175C63.6974 160.068 66.4833 163.556 67.0382 168.386C67.1867 168.972 67.138 169.592 66.8995 170.147C63.3275 166.321 58.8075 164.314 54.1142 162.541C52.3109 161.865 50.5307 161.141 48.7158 160.5C46.2105 159.55 43.8517 158.246 41.7105 156.626C35.6647 152.217 33.607 144.295 36.1733 136.969ZM72.9337 181.825C67.2694 181.545 61.6744 180.927 56.484 178.325C53.4624 176.958 50.7799 174.93 48.6306 172.388C46.4813 169.845 44.9192 166.853 44.0572 163.626C43.7614 163.006 43.7199 162.293 43.9416 161.643C49.0973 164.268 54.8194 165.516 59.8364 168.432C62.7495 170.124 65.5238 171.932 66.4024 175.619C66.5989 176.447 67.2925 176.669 68.067 176.575C68.452 176.552 68.8157 176.389 69.0916 176.117C69.3675 175.845 69.5372 175.482 69.5698 175.094C71.1419 166.928 68.7144 160.185 62.1484 155.028C59.406 153.029 57.1488 150.429 55.5469 147.422C53.945 144.415 53.0401 141.08 52.9005 137.669C52.697 135.166 53.0607 132.648 53.964 130.308C55.223 131.902 56.658 133.346 58.2411 134.613C58.8191 135.009 58.6804 135.628 58.7151 136.199C58.9211 139.944 59.3535 143.672 60.0098 147.364C60.2301 148.685 60.7405 149.941 61.5034 151.038C62.2664 152.135 63.2627 153.047 64.4195 153.705C65.5763 154.364 66.8644 154.753 68.1895 154.845C69.5146 154.936 70.8432 154.728 72.0783 154.235C72.4763 154.022 72.9412 153.974 73.3735 154.103C73.8057 154.232 74.1707 154.526 74.3903 154.923C79.0715 161.019 85.5085 165.502 92.8167 167.756C94.4119 168.222 94.3773 169.354 94.5969 170.556C94.8628 172.037 93.6028 171.851 92.8976 172.131C88.319 173.845 84.0534 176.312 80.2742 179.434C79.2682 180.302 78.1014 180.961 76.8414 181.371C75.5814 181.782 74.2532 181.936 72.9337 181.825ZM62.368 243.865C59.0965 243.865 55.8829 244.005 52.6115 244.005C49.34 244.005 46.1842 244.005 42.9821 244.005C42.0342 244.005 41.514 243.795 41.5949 242.722C42.4272 231.499 44.2652 220.556 51.4555 211.41C52.9351 209.52 52.9929 209.485 54.2414 211.562C58.4793 218.833 61.3115 226.849 62.5876 235.186C62.9922 237.519 63.2465 239.922 63.6743 242.279C63.8708 243.398 63.5009 243.877 62.368 243.853V243.865ZM111.463 243.585C99.9029 243.585 88.239 243.585 76.6213 243.585C73.8585 243.585 71.0957 243.585 68.3444 243.69C67.0382 243.69 66.6451 243.328 66.5064 241.975C65.4314 231.604 62.9575 221.606 57.9406 212.378C57.4536 211.321 56.8318 210.333 56.091 209.439C54.5766 207.91 55.1893 207 56.5303 205.752C61.8478 200.864 67.5699 196.501 73.4886 191.753C74.3365 197.226 75.4671 202.65 76.8756 208.004C78.7599 215.458 80.9563 222.843 82.3319 230.426C82.3595 230.882 82.53 231.318 82.8188 231.67C83.1075 232.022 83.4997 232.273 83.9387 232.386C84.4227 232.464 84.9189 232.395 85.3637 232.187C85.8085 231.979 86.1818 231.642 86.4356 231.219C88.7056 228.403 91.2801 225.852 94.1114 223.613C94.805 223.088 95.2674 222.831 96.0419 223.613C100.573 227.836 105.983 230.612 111.474 233.354C111.888 233.486 112.245 233.757 112.485 234.122C112.725 234.487 112.833 234.924 112.792 235.361C112.763 237.494 112.89 239.627 113.174 241.742C113.405 243.387 112.838 243.573 111.463 243.573V243.585ZM113.509 224.919C102.56 216.945 94.2871 205.783 89.7996 192.931C89.2447 191.438 89.2678 190.423 90.9555 189.828C96.5621 187.88 96.9898 182.828 97.6256 178.022C97.9358 175.449 97.8461 172.844 97.3597 170.299C97.2904 169.844 96.8626 169.051 97.7065 169.132C99.0706 169.412 100.192 169.669 101.336 169.867C108.781 171.174 116.225 171.582 123.67 169.867C124.71 169.634 124.988 169.949 125.022 171.034C125.011 174.719 125.266 178.399 125.785 182.047C126.23 184.48 127.418 186.712 129.184 188.428C130.109 189.396 131.404 189.35 132.536 189.735C133.669 190.12 134.062 190.656 133.623 191.986C129.68 203.927 123.538 215.01 115.52 224.651C114.873 225.386 114.422 225.549 113.509 224.884V224.919ZM117.543 243.422C116.792 243.422 116.121 243.515 116.017 242.477C115.505 238.107 115.351 233.702 115.555 229.306C115.555 228.419 116.306 227.836 116.861 227.206C125.017 217.862 131.369 207.06 135.588 195.358C137.422 190.938 138.149 186.129 137.704 181.358C141.916 183.886 146.68 185.329 151.576 185.558C152.951 185.64 153.263 186.305 153.344 187.46C153.52 191.807 152.933 196.151 151.61 200.292C149.067 209.037 145.899 217.583 142.131 225.864C139.368 222.913 136.721 220.136 133.889 217.535C133.707 217.288 133.473 217.085 133.203 216.943C132.933 216.8 132.635 216.72 132.33 216.71C132.026 216.7 131.723 216.76 131.444 216.884C131.166 217.009 130.919 217.195 130.721 217.43C126.173 221.615 121.945 226.143 118.075 230.974C117.818 231.299 117.629 231.674 117.52 232.075C117.41 232.476 117.383 232.895 117.439 233.307C117.705 236.271 117.913 239.234 118.167 242.197C118.248 242.768 118.503 243.375 117.543 243.422ZM164.812 243.223C150.882 243.223 136.964 243.282 123.034 243.398C121.45 243.398 120.919 242.92 120.838 241.38C120.722 239.047 120.422 236.714 120.144 234.381C120.067 233.871 120.106 233.35 120.256 232.857C120.406 232.365 120.664 231.912 121.011 231.534C124.294 227.813 127.67 224.173 131.253 220.731C132.109 219.915 132.617 219.915 133.427 220.731C135.519 222.843 137.623 224.919 139.553 227.183C140.189 227.992 140.918 228.72 141.726 229.353C142.524 229.924 143.484 229.971 143.958 228.828C147.183 220.883 150.685 213.043 153.321 204.854C154.753 200.562 155.745 196.133 156.28 191.636C163.436 196.641 170.8 200.759 176.938 206.639C177.126 206.773 177.285 206.944 177.406 207.141C177.527 207.339 177.608 207.559 177.643 207.788C177.679 208.018 177.669 208.252 177.613 208.477C177.557 208.703 177.457 208.915 177.319 209.1C172.842 218.478 170.126 228.612 169.308 238.989C168.973 243.2 169.054 243.2 164.823 243.223H164.812ZM173.389 243.223C172.372 243.223 171.898 243.06 171.967 241.847C172.582 231.176 175.12 220.707 179.458 210.955C179.562 210.722 179.724 210.512 179.978 210.08C182.904 213.522 185.074 217.549 186.348 221.898C188.319 228.322 189.731 234.907 190.567 241.579C190.706 242.652 190.567 243.025 189.353 243.025C184.047 242.978 178.73 243.072 173.401 243.177L173.389 243.223Z" fill="#4039A3"/>
<path d="M130.617 137.798C127.652 136.955 124.575 136.585 121.497 136.701C113.15 136.701 100.515 139.664 92.8396 143.316C92.5457 143.394 92.2734 143.54 92.0434 143.74C91.8135 143.941 91.632 144.193 91.5127 144.475C91.3935 144.757 91.3396 145.063 91.3552 145.37C91.3708 145.676 91.4554 145.975 91.6027 146.244C91.8601 146.907 92.1653 147.55 92.5159 148.169C94.8369 152.038 98.2657 155.106 102.35 156.968C106.434 158.83 110.982 159.398 115.393 158.598C123.311 157.257 131.08 149.464 132.733 141.239C133.08 139.151 132.71 138.463 130.617 137.798ZM129.658 141.507C129.658 142.511 128.779 143.724 127.866 143.619C117.661 142.471 107.359 144.65 98.4693 149.837C98.3525 149.935 98.2163 150.007 98.0697 150.048C97.9231 150.088 97.7696 150.097 97.6195 150.072C97.4695 150.048 97.3263 149.991 97.1997 149.907C97.0731 149.822 96.966 149.71 96.8856 149.58C93.6141 146.08 93.6719 145.742 98.0416 144.202C102.613 142.564 107.316 141.327 112.098 140.504C115.34 139.937 118.623 139.644 121.913 139.629C123.678 139.586 125.445 139.684 127.196 139.921C127.831 140.026 129.022 140.142 129.508 140.726C129.638 140.964 129.69 141.237 129.658 141.507Z" fill="#4039A3"/>
<path d="M129.97 231.347C128.548 231.408 127.206 232.026 126.228 233.069C125.25 234.112 124.714 235.499 124.733 236.935C124.724 237.533 124.834 238.126 125.058 238.679C125.282 239.232 125.615 239.734 126.036 240.154C126.458 240.574 126.959 240.903 127.51 241.122C128.061 241.34 128.65 241.444 129.242 241.427C129.93 241.424 130.611 241.282 131.244 241.008C131.876 240.733 132.448 240.333 132.923 239.831C133.399 239.329 133.77 238.736 134.013 238.086C134.257 237.436 134.368 236.743 134.34 236.049C134.377 234.841 133.938 233.667 133.119 232.786C132.299 231.904 131.167 231.387 129.97 231.347ZM129.323 238.534C128.167 238.662 127.774 237.845 127.693 236.725C127.688 236.154 127.892 235.601 128.265 235.171C128.638 234.741 129.154 234.464 129.716 234.392C129.941 234.348 130.173 234.357 130.394 234.419C130.615 234.481 130.819 234.594 130.99 234.749C131.16 234.904 131.293 235.097 131.376 235.312C131.46 235.528 131.493 235.76 131.473 235.99C131.501 236.301 131.468 236.614 131.375 236.911C131.281 237.208 131.13 237.483 130.93 237.72C130.729 237.957 130.484 238.151 130.208 238.291C129.932 238.431 129.631 238.513 129.323 238.534Z" fill="#4039A3"/>
</g>
<defs>
<clipPath id="clip0_1_1155">
<rect width="162" height="217" fill="white" transform="translate(32 29)"/>
</clipPath>
</defs>
</svg>
