<svg width="246" height="246" viewBox="0 0 246 246" fill="none" xmlns="http://www.w3.org/2000/svg">
<mask id="mask0_1_1129" style="mask-type:alpha" maskUnits="userSpaceOnUse" x="0" y="0" width="246" height="246">
<rect width="246" height="246" rx="10" fill="#D9D9D9"/>
</mask>
<g mask="url(#mask0_1_1129)">
</g>
<g clip-path="url(#clip0_1_1129)">
<path d="M137.912 150.404C137.754 150.751 137.467 151.022 137.112 151.159C136.757 151.297 136.363 151.291 136.013 151.141L137.615 149.702C137.71 149.94 137.817 150.166 137.912 150.404Z" fill="#4039A3"/>
<path d="M137.615 149.702L136.013 151.141C136.363 151.291 136.757 151.297 137.112 151.159C137.467 151.022 137.754 150.751 137.912 150.404C137.224 150.428 137.378 150.083 137.615 149.702Z" fill="#4039A3"/>
<path d="M195.359 242.171C192.857 227.264 184.707 213.903 172.61 204.874C167.439 201.101 161.818 197.989 155.878 195.609C155.119 195.288 154.134 195.169 153.979 194.099C153.58 192.351 152.696 190.751 151.428 189.484C145.008 181.706 136.761 176.295 128.122 171.431C127.578 171.23 127.116 170.856 126.805 170.366C126.494 169.876 126.352 169.298 126.401 168.719C126.522 165.488 127.076 162.288 128.05 159.205C128.114 158.853 128.276 158.527 128.518 158.264C128.76 158 129.071 157.811 129.415 157.718C136.373 155.548 142.639 151.582 147.583 146.218C153.778 139.498 158.892 132.124 161.028 123.038C161.218 122.218 161.835 121.849 162.417 121.456C165.469 119.296 167.543 116.012 168.184 112.323C168.908 108.338 168.184 104.307 168.54 100.299C169.332 91.5482 169.053 82.7335 167.709 74.0508C166.096 64.5364 163.342 55.5215 156.828 48.1003C145.281 34.9466 130.78 29.2617 113.407 31.1408C111.183 31.4194 108.927 31.2659 106.761 30.6889C97.4457 28.2389 88.0116 28.2627 79.0521 32.0685C63.6252 38.6097 53.1111 50.0507 47.0116 65.583C44.2347 72.6356 42.9412 79.9617 44.2822 87.5018C45.3146 93.3175 48.0796 98.0391 54.1792 99.93C54.6064 100.061 54.7725 100.394 54.9742 100.739C55.4635 101.422 55.7565 102.227 55.8213 103.066C55.8862 103.905 55.7204 104.745 55.3421 105.496C51.7821 113.369 49.5392 121.659 51.3548 130.305C56.2084 153.401 72.0151 165.092 93.6365 166.234C95.3334 166.317 96.0098 166.757 96.0098 168.422C96.026 168.952 96.0776 169.48 96.1641 170.004C96.5557 173.798 96.437 173.572 93.1381 175.106C85.723 178.587 78.972 183.341 73.1899 189.151C72.6976 189.549 72.3042 190.056 72.0406 190.631C71.777 191.207 71.6505 191.836 71.6709 192.47C71.8964 194.075 71.0182 194.503 69.8434 194.991C63.103 197.798 56.7899 201.282 51.7702 206.777C43.074 216.336 36.7123 227.788 33.1867 240.232C32.4549 242.07 32.0532 244.022 32 246H195.763C196.403 244.644 195.597 243.419 195.359 242.171ZM132.524 177.663C132.856 177.473 133.438 177.972 133.711 178.115C134.288 178.424 134.858 178.757 135.42 179.114C136.523 179.839 137.579 180.66 138.647 181.492C140.06 182.539 141.424 183.633 142.742 184.799L143.798 185.75C146.14 187.917 148.31 190.263 150.289 192.767C150.49 192.961 150.647 193.196 150.751 193.456C150.855 193.716 150.902 193.995 150.891 194.274C150.88 194.554 150.81 194.828 150.686 195.079C150.562 195.329 150.386 195.551 150.17 195.728C147.374 198.521 144.254 200.968 140.878 203.019C132.204 208.858 123.078 213.913 114.32 219.883L121.547 205.481C125.17 198.595 129.205 191.935 133.628 185.536C133.628 185.417 133.865 185.155 133.924 185.048C133.984 184.941 134.102 184.727 134.186 184.573C134.342 184.253 134.477 183.923 134.589 183.586C134.818 182.956 134.899 182.282 134.827 181.616C134.755 180.95 134.532 180.31 134.174 179.744C133.878 179.343 133.526 178.986 133.129 178.686C132.975 178.472 132.097 177.96 132.524 177.663ZM153.683 133.563C150.228 139.427 145.708 144.59 140.356 148.787C139.585 149.381 138.731 149.869 137.912 150.404C137.753 150.751 137.466 151.022 137.112 151.159C136.757 151.297 136.363 151.291 136.013 151.141L137.615 149.702C143.183 143.855 146.999 136.556 148.628 128.64C148.744 128.25 148.831 127.853 148.889 127.45C149.067 125.298 150.075 124.406 152.33 124.703C154.217 124.953 156.044 124.144 158.074 123.752C157.089 127.217 155.61 130.522 153.683 133.563ZM108.506 36.5284C109.325 35.629 110.314 34.9019 111.416 34.3894C112.519 33.8769 113.711 33.5893 114.926 33.5432C133.165 32.675 147.69 39.4897 158.002 54.689C161.978 60.5404 163.603 67.3075 164.766 74.1817C166.09 81.729 166.433 89.4163 165.787 97.0519C165.787 97.3612 165.692 97.6704 165.573 98.3602C161.527 93.3056 156.555 91.8428 150.657 93.4127C150.135 93.5911 149.553 93.9479 149.47 92.9964C149.738 90.294 149.622 87.5671 149.126 84.8973C148.913 83.8571 148.511 82.8653 147.939 81.9716C147.709 81.5071 147.371 81.1047 146.953 80.7981C146.536 80.4915 146.051 80.2895 145.54 80.2092C145.029 80.1288 144.506 80.1724 144.015 80.3362C143.524 80.5001 143.079 80.7795 142.718 81.151C141.708 82.0839 140.793 83.1158 139.988 84.2313C138.944 85.5395 138.327 85.1946 137.9 83.815C137.318 81.924 136.713 80.033 136.179 78.1301C134.987 73.7474 132.179 69.9815 128.323 67.5929C124.696 65.2994 120.886 63.3105 116.931 61.6464C111.888 59.5277 107.006 57.0434 102.323 54.2133C101.177 53.5528 100.137 52.7228 99.2376 51.7514C96.9355 49.0993 96.9829 47.684 99.5699 45.3887C102.691 42.6414 105.575 39.5611 108.506 36.5284ZM53.5146 76.2273C52.4464 78.2019 51.8646 80.4038 51.8177 82.6495C51.5258 87.4936 52.1005 92.3511 53.5146 96.9925C50.9537 95.5166 48.9826 93.1966 47.9372 90.4275C46.2676 85.7999 45.9993 80.7812 47.1658 76.0013C51.1887 56.354 62.4266 42.3678 80.844 34.5303C88.7592 31.1646 97.1609 31.4501 105.503 33.2459C106.785 33.5194 106.987 33.9119 105.99 34.9823C98.2408 43.2717 89.756 50.5265 79.0996 55.022C71.1463 58.3121 64.6995 64.4509 61.0145 72.2431C60.6703 72.9448 60.2431 73.6227 59.8278 74.3244C59.2226 75.5137 58.7242 76.2986 57.2289 75.0855C55.7337 73.8724 54.464 74.5266 53.5146 76.2273ZM69.2026 155.066C64.4874 151.457 60.6392 146.835 57.9408 141.539C55.2424 136.244 53.7624 130.409 53.6096 124.465C53.5139 122.016 53.7172 119.563 54.2148 117.163C54.7344 114.678 55.4567 112.239 56.3745 109.873C56.8136 108.683 57.3001 107.494 57.7986 106.305C58.3559 105.321 58.6579 104.213 58.6767 103.082C58.6351 102.85 58.6351 102.612 58.6767 102.38C58.8784 101.619 59.9939 101.738 60.5754 101.797C60.8561 101.79 61.1363 101.826 61.4061 101.904C62.0825 102.273 61.4061 104.283 61.4061 104.818C61.2237 106.865 61.3034 108.928 61.6434 110.955C61.8614 112.261 62.4088 113.489 63.2336 114.523C63.6069 115.031 64.0898 115.449 64.6465 115.745C65.2032 116.04 65.8192 116.206 66.4487 116.23C67.0783 116.254 67.7051 116.136 68.2826 115.883C68.8601 115.631 69.3733 115.251 69.7841 114.773C71.0475 113.233 71.8169 111.347 71.9913 109.361C72.0863 108.85 71.9913 108.434 71.4217 108.279C71.1069 108.242 70.8037 108.138 70.5327 107.973C70.2618 107.808 70.0295 107.586 69.8516 107.323C69.6737 107.06 69.5543 106.762 69.5017 106.449C69.4492 106.136 69.4645 105.815 69.5467 105.508C69.8316 103.974 71.2556 103.593 72.3948 103.213C73.0475 102.998 73.8544 103.213 74.1274 102.368C74.4003 101.524 73.7595 100.905 73.1187 100.418C70.1757 98.1699 67.0072 97.1947 63.3166 98.384C61.7288 99.0035 59.9903 99.1238 58.3326 98.7289C55.9592 98.1104 56.2796 96.2075 55.8524 94.7804C55.4252 93.3532 57.0391 93.2819 57.9291 92.9132C62.4504 90.9746 67.114 89.6664 72.1693 90.2016C73.0252 90.2724 73.8654 90.4729 74.6614 90.7962C75.4802 91.153 76.2753 91.1054 76.6906 90.2372C77.1059 89.3691 76.5957 88.5722 75.7294 88.1797C73.742 87.3999 71.6018 87.0906 69.4755 87.2759C64.9373 87.4602 60.489 88.6031 56.422 90.6297C55.2353 91.2125 54.8674 90.9389 54.7013 89.6902C54.191 86.1223 53.93 82.5543 55.3184 78.9864C55.71 78.0231 55.8643 77.2738 57.1221 78.2848C57.4098 78.5443 57.753 78.7342 58.1255 78.8397C58.4979 78.9453 58.8895 78.9638 59.2702 78.8937C59.6508 78.8236 60.0104 78.6668 60.321 78.4355C60.6317 78.2041 60.8852 77.9043 61.0619 77.5593C62.2241 75.8764 63.2976 74.1337 64.2779 72.3382C67.3831 66.5548 72.1666 61.852 77.9959 58.8516C83.4191 56.021 89.1627 53.7614 94.0399 49.9437C94.7045 49.4323 95.0249 49.5869 95.2978 50.3718C96.3659 53.4046 98.7036 55.2956 101.326 56.9368C106.663 60.1148 112.214 62.9165 117.94 65.3214C121.063 66.7125 124.071 68.351 126.935 70.2213C130.032 72.183 132.3 75.2183 133.307 78.7486C133.943 81.1053 134.699 83.4275 135.574 85.706C136.927 88.9528 139.3 89.2739 141.685 86.6812C142.397 85.9082 143.014 85.04 143.715 84.3026C144.996 82.8874 145.435 82.9825 146.088 84.8497C146.76 86.9972 146.97 89.263 146.705 91.4979C146.48 93.6862 146.515 95.9578 144.391 97.4444C144.183 97.5581 144.007 97.7225 143.879 97.9224C143.751 98.1222 143.675 98.3512 143.658 98.5881C143.642 98.8251 143.685 99.0624 143.784 99.2782C143.883 99.494 144.035 99.6814 144.225 99.823C145.127 100.525 145.768 99.823 146.385 99.1451C152.093 93.1986 160.993 94.6614 164.363 102.13C167.342 108.743 166.262 119.006 155.32 121.456C152.21 122.285 148.906 121.973 146.005 120.576C145.234 120.196 144.427 120.089 143.916 120.945C143.785 121.124 143.699 121.331 143.666 121.551C143.633 121.77 143.654 121.994 143.726 122.203C143.798 122.413 143.921 122.601 144.082 122.753C144.243 122.905 144.439 123.015 144.652 123.074C147.109 123.764 146.337 125.25 146.029 126.975C142.742 145.314 126.152 160.525 106.512 162.761C103.247 163.209 99.9577 163.455 96.6625 163.498C86.6825 163.391 77.0941 161.286 69.2026 155.066ZM75.136 191.233C79.325 186.476 84.6295 183.217 90.0645 179.922C88.6459 182.345 88.2447 185.232 88.9491 187.95C89.5751 190.176 90.544 192.291 91.8208 194.218C95.1673 199.677 98.941 204.922 102.691 210.036C103.438 211.058 104.151 212.153 104.874 213.211C105.598 214.27 106.144 214.947 106.797 215.816C106.868 215.911 106.927 216.053 106.797 216.125C106.666 216.196 106.595 216.125 106.512 216.125C105.325 215.328 104.257 214.519 103.142 213.746C100.923 212.129 98.6799 210.535 96.437 208.989C94.1942 207.443 91.9276 205.849 89.6611 204.303L82.8376 199.665L76.0617 195.062C74.4003 193.73 73.9731 192.553 75.1716 191.221L75.136 191.233ZM58.9496 243.336C51.6397 243.336 44.3297 243.396 37.0197 243.514C35.833 243.514 35.3346 243.348 35.7262 241.98C39.0508 229.903 45.082 218.745 53.3603 209.358C53.574 209.12 53.835 208.93 54.3097 208.49C56.5552 215.704 58.144 223.108 59.0564 230.611C59.5192 234.345 59.8515 238.091 60.2431 241.814C60.3262 242.848 60.1957 243.336 58.9496 243.336ZM108.019 243.217C100.84 243.122 93.6602 243.288 86.4808 243.288C79.242 243.288 71.9913 243.229 64.7407 243.288C62.7233 243.288 63.103 241.945 63.02 240.91C62.2599 231.611 60.7398 222.391 58.475 213.342C58.051 211.586 57.532 209.855 56.9204 208.157C56.7712 207.891 56.6758 207.599 56.6398 207.297C56.6038 206.994 56.6278 206.688 56.7106 206.395C56.7933 206.102 56.9331 205.828 57.1219 205.59C57.3106 205.351 57.5446 205.152 57.8104 205.005C62.4677 201.646 67.5269 198.885 72.8695 196.787C73.1281 196.653 73.4214 196.602 73.7099 196.64C73.9985 196.678 74.2684 196.804 74.4834 197.001C83.5022 203.827 93.1025 209.774 102.192 216.434C104.21 217.909 106.073 219.609 108.067 221.12C108.697 221.6 109.203 222.223 109.544 222.939C109.885 223.655 110.049 224.442 110.025 225.235C110.143 230.515 110.143 235.808 110.309 241.076C110.321 242.86 109.704 243.241 108.019 243.217ZM106.69 210.499C102.643 204.874 98.4544 199.356 94.8232 193.481C94.1942 192.482 93.5653 191.471 93.0075 190.424C91.5954 187.831 91.5954 187.819 93.767 185.75C97.9204 181.79 98.9884 176.735 98.8579 171.276C98.8579 169.706 98.0391 167.708 98.7274 166.686C99.4156 165.663 101.67 166.222 103.213 166.079C110.737 165.365 118.011 163.831 124.906 159.871C124.538 162.154 124.134 164.081 123.933 166.02C123.556 169.343 123.854 172.708 124.809 175.912C125.763 179.117 127.354 182.095 129.486 184.668C129.925 185.215 130.4 185.536 129.83 186.309C122.58 196.263 117.323 207.36 111.674 218.813C110.302 215.877 108.632 213.091 106.69 210.499ZM167.448 243.074C158.691 243.003 149.921 243.217 141.163 243.217C132.406 243.217 123.636 243.217 114.878 243.217C113.371 243.217 113.051 242.801 113.051 241.338C113.051 236.462 112.873 231.574 112.73 226.686C112.693 226.272 112.764 225.856 112.936 225.478C113.109 225.1 113.378 224.775 113.715 224.533C120.313 218.991 127.837 214.864 135.076 210.262C140.89 206.515 146.942 203.019 151.962 198.238C152.165 197.983 152.449 197.805 152.767 197.736C153.085 197.667 153.416 197.71 153.707 197.857C160.601 200.878 167.377 204.089 173.18 209.037C173.552 209.293 173.833 209.663 173.98 210.091C174.128 210.519 174.134 210.983 173.999 211.415C171.818 221.14 170.366 231.015 169.656 240.957C169.537 242.563 169.05 243.074 167.448 243.074ZM191.075 242.944C185.344 242.944 179.624 242.944 173.892 243.003C172.931 243.003 172.29 243.003 172.432 241.647C173.346 232.656 174.058 223.641 175.992 214.781C176.147 214.067 176.313 213.366 176.562 212.283C181.685 217.114 185.772 222.942 188.571 229.409C190.103 233.317 191.317 237.342 192.203 241.445C192.547 242.646 192.203 242.896 191.075 242.896V242.944Z" fill="#4039A3"/>
<path d="M113.502 99.7278C114.083 101.131 113.692 101.773 112.552 102.19C112.112 102.352 111.737 102.656 111.486 103.054C111.235 103.452 111.122 103.921 111.164 104.39C111.149 104.893 111.312 105.386 111.625 105.78C111.938 106.174 112.38 106.444 112.873 106.542C113.846 106.768 113.976 107.304 113.798 108.136C113.419 110.352 112.529 112.449 111.2 114.261C108.411 117.734 104.447 117.365 102.454 113.405C100.733 109.968 100.982 106.376 101.813 102.772C101.991 102.011 102.216 101.262 102.489 100.263C101.624 100.418 100.81 100.782 100.116 101.321C99.2734 101.857 98.3241 102.618 97.5883 101.393C96.8526 100.168 97.9206 99.5851 98.775 99.0142C100.604 97.7662 102.661 96.8917 104.827 96.4407C106.994 95.9897 109.228 95.9711 111.401 96.3859C114.048 96.8854 116.635 97.6703 119.269 98.2887C121.297 98.9216 123.478 98.8546 125.464 98.0984C126.306 97.7298 127.232 97.6346 127.659 98.6455C128.086 99.6564 127.398 100.394 126.472 100.786C124.763 101.513 122.885 101.748 121.049 101.464C118.498 101.053 115.977 100.472 113.502 99.7278Z" fill="#4039A3"/>
<path d="M99.0475 142.305C98.1259 142.29 97.2062 142.214 96.2944 142.079C93.5193 141.495 90.6348 141.726 87.9876 142.745C85.6856 143.789 83.0934 143.999 80.6539 143.34C79.8222 143.138 79.0547 142.729 78.4229 142.15C78.1969 141.951 78.0499 141.676 78.0085 141.377C77.9671 141.078 78.0342 140.775 78.1975 140.521C78.2586 140.383 78.3481 140.259 78.4602 140.159C78.5723 140.058 78.7044 139.982 78.8479 139.936C78.9913 139.89 79.1429 139.875 79.2925 139.891C79.4422 139.908 79.5867 139.957 79.7164 140.033C82.5526 141.746 85.3057 140.866 88.0232 139.855C90.6542 138.966 93.4666 138.757 96.1995 139.248C98.2706 139.686 100.417 139.613 102.453 139.034C103.498 138.677 104.53 138.356 104.696 136.894C104.839 135.776 105.883 135.776 106.725 136.132C107.622 136.689 108.378 137.448 108.932 138.348C109.486 139.248 109.823 140.264 109.918 141.318C109.918 142.067 109.573 142.602 108.731 142.685C108.567 142.723 108.397 142.726 108.232 142.693C108.067 142.66 107.911 142.593 107.774 142.495C107.637 142.397 107.523 142.271 107.438 142.126C107.354 141.98 107.301 141.818 107.283 141.651C107.058 140.021 106.441 140.128 105.254 140.89C103.569 141.984 101.896 142.257 99.0475 142.305Z" fill="#4039A3"/>
<path d="M82.339 131.768C75.8004 131.994 72.6201 127.01 75.4918 120.993C76.3937 119.113 76.2513 117.008 76.5836 115.046C76.7972 113.75 76.9989 112.441 77.3193 111.169C77.3453 110.99 77.4082 110.82 77.5039 110.667C77.5995 110.514 77.7259 110.383 77.875 110.282C78.024 110.181 78.1925 110.113 78.3695 110.081C78.5465 110.049 78.7283 110.054 78.9031 110.096C79.078 110.139 79.2421 110.217 79.385 110.327C79.5279 110.436 79.6464 110.574 79.733 110.732C79.8196 110.89 79.8724 111.065 79.8879 111.244C79.9034 111.424 79.8814 111.605 79.8233 111.775C79.2536 114.88 78.862 118.019 78.5298 121.171C78.4704 121.694 77.972 122.182 77.6754 122.693C77.2912 123.217 77.0456 123.83 76.9615 124.475C76.8775 125.12 76.9576 125.776 77.1945 126.381C77.4314 126.987 77.8174 127.522 78.3165 127.938C78.8155 128.354 79.4115 128.636 80.0487 128.759C82.1107 129.273 84.2846 129.089 86.2314 128.235C87.1332 127.902 88.1182 127.534 88.6047 128.675C89.0913 129.817 88.2013 130.412 87.24 130.852C85.6686 131.428 84.0122 131.738 82.339 131.768Z" fill="#4039A3"/>
<path d="M109.692 83.922C114.7 84.1242 119.376 85.0399 123.47 87.9062C124.214 88.4339 124.916 89.0184 125.57 89.6544C126.223 90.3085 126.638 91.1411 125.879 91.926C125.119 92.7109 124.289 92.3779 123.6 91.7238C120.59 89.0246 116.798 87.3582 112.778 86.9666C109.199 86.4921 105.56 86.7758 102.098 87.7991C101.647 87.9299 101.219 88.0846 100.78 88.2273C99.8665 88.5246 98.8697 88.81 98.4781 87.5732C98.0865 86.3363 98.9884 86.0746 99.8191 85.7297C102.992 84.6009 106.326 83.9905 109.692 83.922Z" fill="#4039A3"/>
<path d="M149.114 118.198C148.827 118.223 148.539 118.165 148.284 118.03C148.029 117.895 147.819 117.689 147.678 117.437C147.584 117.293 147.522 117.131 147.496 116.961C147.47 116.792 147.481 116.618 147.529 116.453C147.576 116.288 147.658 116.136 147.77 116.006C147.882 115.876 148.021 115.771 148.177 115.7C151.82 114.332 151.215 111.883 150.004 109.171C149.807 108.54 149.719 107.881 149.743 107.22C149.743 106.4 149.743 105.508 150.799 105.401C151.855 105.294 152.105 106.019 152.259 106.899C152.395 107.743 152.597 108.574 152.864 109.385C153.588 111.657 153.695 111.668 155.332 109.837C156.964 108.018 158.407 106.037 159.64 103.926C160.115 103.117 160.613 102.118 161.74 102.737C162.868 103.355 162.405 104.402 161.918 105.294C159.099 110.316 155.084 114.561 150.23 117.651C149.876 117.868 149.502 118.051 149.114 118.198Z" fill="#4039A3"/>
<path d="M88.7001 148.18C90.6413 148.269 92.5596 148.638 94.3962 149.274C95.3455 149.678 96.6865 149.94 96.2118 151.355C95.7371 152.771 94.503 152.307 93.5299 151.938C89.7845 150.601 85.6859 150.648 81.9716 152.069C81.4138 152.247 80.9036 152.58 80.3458 152.759C80.1978 152.837 80.0358 152.885 79.8692 152.9C79.7026 152.916 79.5347 152.898 79.3749 152.848C79.2151 152.799 79.0666 152.718 78.938 152.611C78.8094 152.503 78.703 152.372 78.6251 152.224C78.5472 152.075 78.4992 151.913 78.4839 151.746C78.4685 151.579 78.4862 151.411 78.5358 151.25C78.5854 151.09 78.6659 150.942 78.7729 150.813C78.8798 150.684 79.0111 150.577 79.1591 150.499C79.5858 150.194 80.048 149.942 80.5357 149.75C83.1533 148.783 85.9113 148.253 88.7001 148.18Z" fill="#4039A3"/>
</g>
<defs>
<clipPath id="clip0_1_1129">
<rect width="164" height="217" fill="white" transform="translate(32 29)"/>
</clipPath>
</defs>
</svg>
