<svg width="246" height="246" viewBox="0 0 246 246" fill="none" xmlns="http://www.w3.org/2000/svg">
<mask id="mask0_1_1210" style="mask-type:alpha" maskUnits="userSpaceOnUse" x="0" y="0" width="246" height="246">
<rect width="246" height="246" rx="10" fill="#D9D9D9"/>
</mask>
<g mask="url(#mask0_1_1210)">
</g>
<g clip-path="url(#clip0_1_1210)">
<path d="M63.8433 108.429C64.4693 105.646 65.0187 103.322 65.5425 100.871C65.6447 100.45 65.6447 100.029 65.7213 99.5947C65.9385 98.7904 66.1812 98.0883 67.2161 98.0883C68.2509 98.0883 68.583 98.9053 68.6214 99.8628C68.7619 102.825 67.561 105.544 67.0372 108.391C66.424 111.697 66.309 111.684 69.2857 113.497C70.1927 114.034 71.0742 114.634 70.4866 115.821C69.8989 117.008 68.813 116.791 67.9315 116.28C63.2357 113.529 59.7608 109.098 58.2094 103.884C57.9155 103.003 58.0689 102.11 59.1037 101.816C60.1385 101.522 60.7006 102.059 61.0072 103.016C61.6427 104.966 62.6014 106.796 63.8433 108.429Z" fill="#4039A3"/>
<path d="M110.269 91.8711C108.672 92.4583 107.433 92.9307 106.194 93.3647C105.287 93.6711 104.469 93.569 104.086 92.5732C104.016 92.3884 103.986 92.1913 103.997 91.9942C104.007 91.7971 104.059 91.6044 104.147 91.4281C104.236 91.2518 104.361 91.0958 104.513 90.9699C104.665 90.844 104.841 90.7509 105.031 90.6966C109.222 88.8071 113.501 87.4667 118.19 88.4624C119.046 88.6412 119.889 88.8454 120.183 89.7391C120.477 90.6327 119.34 91.0796 119.237 91.5647C118.867 93.2498 117.513 93.9265 116.529 95.0116C115.545 96.0967 116.401 97.5649 118.088 97.9734C119.046 98.2288 119.11 98.5351 118.944 99.3777C118.726 101.152 118.072 102.845 117.04 104.306C114.868 107.038 111.777 106.795 110.167 103.718C108.557 100.642 108.889 97.5521 109.592 94.3988C109.694 93.7094 109.924 93.0456 110.269 91.8711Z" fill="#4039A3"/>
<path d="M164.31 87.4921C165.295 87.5759 166.273 87.7338 167.235 87.9645C168.295 88.2964 169.151 89.4071 168.347 90.1986C167.527 91.1294 166.625 91.984 165.651 92.7519C164.859 93.2625 164.284 93.7093 164.297 94.6541C164.248 95.0502 164.354 95.4499 164.591 95.7706C164.829 96.0913 165.181 96.3085 165.574 96.3775C166.532 96.518 166.456 97.0669 166.303 97.6542C166.156 98.8488 165.797 100.008 165.242 101.076C165.021 101.604 164.642 102.053 164.157 102.359C163.672 102.666 163.105 102.816 162.532 102.789C161.959 102.763 161.408 102.561 160.953 102.211C160.499 101.861 160.163 101.38 159.991 100.833C158.914 98.1916 158.708 95.2757 159.404 92.5093C159.787 90.6071 159.187 90.6199 157.807 91.0922C157.539 91.1944 157.283 91.2837 157.002 91.3603C156.133 91.5646 155.239 91.6667 154.894 90.5816C154.549 89.4964 155.226 88.8326 156.172 88.5007C158.817 87.7519 161.561 87.4118 164.31 87.4921Z" fill="#4039A3"/>
<path d="M211.923 243.881C210.263 236.407 207.567 229.201 203.913 222.471C196.684 209.78 186.069 199.345 173.252 192.33C172.051 191.653 171.694 191.117 172.217 189.777C173.38 186.412 173.739 182.823 173.265 179.295C172.815 176.167 171.466 173.237 169.382 170.86C167.298 168.482 164.568 166.761 161.524 165.903C157.193 164.729 152.926 163.35 148.429 163.018C149.707 159.648 151.585 157.069 155.085 155.997C156.206 155.549 157.255 154.943 158.203 154.197C168.806 147.06 175.245 136.936 178.758 124.834C180.892 117.506 182.182 110.025 179.538 102.493C179.471 102.293 179.447 102.082 179.47 101.872C179.492 101.663 179.558 101.461 179.665 101.28C181.521 97.2256 182.786 92.9264 183.421 88.5134C183.524 87.9517 183.421 87.4538 184.367 87.4921C185.798 87.5687 185.644 86.2154 185.938 85.3473C186.004 85.1411 186.025 84.9236 186.002 84.7085C185.979 84.4935 185.911 84.2857 185.802 84.0983C185.694 83.911 185.548 83.7482 185.374 83.6203C185.199 83.4925 185 83.4024 184.788 83.3558C183.157 82.6687 181.485 82.0845 179.78 81.6068C178.337 81.2748 178.158 80.5727 178.503 79.3599C180.154 72.1085 180.675 64.646 180.049 57.2357C179.627 49.5758 177.711 42.3373 173.022 36.1711C165.526 26.2898 155.434 18.6798 143.869 14.1873C134.223 10.3957 124.169 9.55309 113.923 10.1914C104.674 10.7659 95.7947 12.6426 87.6568 17.0214C61.6716 30.8602 49.4327 62.5337 57.1618 90.5943C57.5451 91.9859 57.4174 92.6369 56.1526 93.454C52.9252 95.5691 50.4734 98.6754 49.1668 102.305C47.8602 105.934 47.7697 109.889 48.9089 113.574C50.2214 117.47 52.8045 120.813 56.2443 123.067C59.6841 125.322 63.7816 126.358 67.8804 126.008C69.4135 125.919 69.8606 126.366 70.3461 127.745C72.6395 134.547 76.3221 140.798 81.1603 146.103C85.9985 151.408 91.8868 155.651 98.452 158.563C99.1674 158.882 100.253 158.958 99.8445 160.235C99.4357 161.512 100.138 162.788 98.0688 163.478C88.781 166.478 82.3167 172.312 80.5664 182.321C80.4915 182.999 80.2298 183.644 79.8103 184.183C79.3908 184.721 78.8299 185.133 78.1902 185.372C67.1831 190.566 57.4628 198.131 49.7265 207.522C40.7071 218.782 34.8815 231.382 34 246H211.949C212.024 245.295 212.015 244.584 211.923 243.881ZM168.142 174.687C170.09 177.792 170.758 181.53 170.007 185.117C168.653 193.428 163.862 199.888 158.509 205.977C156.057 208.701 153.382 211.216 150.512 213.497C149.745 207.713 150.065 201.752 142.923 199.849C143.476 198.706 144.288 197.708 145.295 196.935C146.302 196.161 147.476 195.634 148.723 195.394C152.806 194.408 156.693 192.742 160.221 190.466C162.925 188.881 165.111 186.547 166.517 183.747C167.922 180.947 168.487 177.8 168.142 174.687ZM179.154 86.4325C179.908 86.5601 180.432 86.5984 180.304 87.7091C179.601 92.8291 177.96 97.7757 175.462 102.301C169.675 112.08 159.135 112.361 152.671 102.901C150.211 99.0698 148.912 94.61 148.928 90.0581C148.928 88.6666 149.848 88.59 150.64 88.3219C156.343 86.3881 162.354 85.5225 168.372 85.7686C171.966 85.6172 175.566 85.8354 179.116 86.4197L179.154 86.4325ZM175.156 78.4662C175.109 78.7763 174.999 79.0734 174.832 79.339C174.665 79.6047 174.446 79.8333 174.187 80.0105C173.928 80.1877 173.636 80.3098 173.328 80.3692C173.019 80.4286 172.702 80.424 172.396 80.3557C163.218 79.7748 154.031 81.3442 145.568 84.9388C143.83 85.6537 141.646 85.1941 139.729 85.6026C136.842 86.2027 134.453 85.2962 131.936 84.0451C127.614 82.0372 122.917 80.9627 118.152 80.8918C108.716 80.5535 99.2903 81.7918 90.263 84.5558C88.5861 85.0819 86.947 85.7217 85.3572 86.4708C81.9845 87.99 81.8823 88.9347 84.9739 91.3092L77.3087 93.9646C78.2866 91.4793 78.9435 88.8795 79.2633 86.2282C79.4452 82.0367 78.6126 77.8632 76.836 74.0618C74.8814 69.4021 73.1822 64.6657 73.6038 59.4826C73.6976 57.7062 74.2238 55.9796 75.1369 54.4526C76.0056 53.0738 76.9765 52.8568 78.2157 54.1079C79.455 55.359 80.1704 56.891 82.0484 55.9846C83.9264 55.0781 83.3259 53.3291 83.4026 51.8099C83.4792 50.2907 83.4026 49.129 83.4026 47.5715C84.5524 48.0311 85.0506 49.0269 85.8299 49.6652C88.0145 51.4652 90.0202 50.9418 90.9401 48.2226C91.4255 46.7544 91.681 45.1842 92.2176 43.7543C93.048 41.7245 94.4405 41.3415 96.3185 42.4777C97.9421 43.626 99.3626 45.0369 100.522 46.6523C102.987 49.6652 105.364 52.7929 108.608 55.0398C111.625 57.3145 115.248 58.647 119.02 58.8698C122.214 58.9591 122.853 58.1931 122.649 55.0398C122.649 54.7717 122.649 54.5037 122.725 53.9547C124.884 55.2313 126.839 56.508 128.845 57.6442C130.619 58.8714 132.686 59.611 134.836 59.7889C135.583 59.8972 136.345 59.7829 137.026 59.4604C137.708 59.138 138.28 58.6216 138.669 57.9761C139.142 57.0825 139.563 57.2101 140.33 57.5804C144.559 59.6102 146.513 59.3166 149.886 56.1505C150.187 55.7245 150.623 55.4123 151.124 55.2641C151.624 55.1158 152.16 55.1403 152.645 55.3335C153.06 55.5079 153.507 55.5924 153.957 55.5815C154.406 55.5707 154.849 55.4646 155.254 55.2704C155.66 55.0761 156.02 54.7981 156.31 54.4547C156.6 54.1113 156.814 53.7102 156.938 53.2781C157.641 51.5801 158.1 49.7801 158.714 48.0438C159.25 46.5119 159.774 44.9671 160.451 43.4862C160.975 42.3372 161.729 41.0606 163.16 41.1117C164.59 41.1627 165.267 42.3883 165.868 43.5628C166.468 44.7373 167.145 46.1161 167.682 47.3928C167.963 48.1214 168.395 48.7825 168.95 49.3325C169.505 49.8825 170.17 50.3092 170.901 50.5844C171.496 50.8235 172.029 51.1949 172.458 51.6706C172.888 52.1462 173.203 52.7134 173.38 53.3291C176.523 61.4996 177.609 69.8361 175.117 78.4535L175.156 78.4662ZM130.621 89.7645C130.097 96.1477 128.921 102.416 124.872 107.637C116.478 118.591 101.786 117.608 94.8621 105.748C92.4711 101.472 91.1558 96.6786 91.0295 91.7816C90.9436 91.271 91.0613 90.7471 91.3575 90.3223C91.6536 89.8975 92.1046 89.6055 92.6137 89.5092C100.209 86.9571 108.2 85.7811 116.21 86.0367C120.242 85.9514 124.274 86.2248 128.257 86.8538C129.982 87.1601 130.774 87.8751 130.621 89.7645ZM71.4831 34.8689C81.2691 21.9876 94.6449 15.2469 110.653 13.6894C123.032 12.5532 135.117 13.3319 146.424 18.8598C156.069 23.5834 164.59 29.89 170.901 38.7754C173.154 41.9374 174.713 45.5397 175.475 49.346C173.937 48.8269 172.551 47.9384 171.437 46.7587C170.323 45.5789 169.516 44.144 169.087 42.5798C168.792 41.7834 168.359 41.0447 167.81 40.3968C164.986 36.8094 160.988 36.8094 158.343 40.5117C157.202 42.303 156.341 44.2573 155.788 46.3076C155.341 47.5843 154.945 49.0013 154.511 50.3673C154.076 51.7333 153.808 52.4227 152.185 51.7461C150.563 51.0695 149.477 52.0142 148.353 53.0227C144.891 56.1505 144.891 56.1378 140.79 54.159C138.337 52.9717 137.251 53.2781 136.063 55.6526C135.565 56.6612 134.926 56.7378 133.993 56.4441C132.126 55.7695 130.346 54.8738 128.691 53.776C127.312 52.9206 125.97 51.9759 124.527 51.2227C121.652 49.7035 119.595 50.8525 119.595 54.1079C119.595 55.6016 119.212 55.8441 117.768 55.5505C112.147 54.376 108.2 50.878 104.75 46.614C103.328 44.7553 101.792 42.9859 100.151 41.3159C95.322 36.6179 90.2119 38.086 88.5 44.5331L87.8867 46.8566C86.0215 45.5033 84.7695 42.6947 82.125 43.9714C79.1611 45.4012 80.4259 48.5417 80.0682 51.0184C75.9673 49.0269 73.2333 50.0354 71.5342 54.3377C69.5412 59.4443 70.0778 64.5508 71.7131 69.5297C72.6712 72.4788 73.9232 75.3384 75.0219 78.2492C75.9057 80.4976 76.3219 82.9023 76.245 85.3167C76.1681 87.7311 75.5998 90.1046 74.5747 92.2923C74.0637 93.4668 73.6677 93.9519 72.3007 93.0327C70.8505 92.0677 69.2223 91.4013 67.5113 91.0725C65.8003 90.7437 64.0409 90.7591 62.3359 91.1177C60.7645 91.4114 60.2279 90.8369 59.8958 89.407C55.22 69.4021 59.0654 51.1333 71.4831 34.8561V34.8689ZM81.0774 115.961C79.7999 115.016 78.9567 116.127 78.1646 117.148C75.6367 120.268 71.9743 122.259 67.9799 122.685C63.9855 123.111 59.985 121.937 56.8552 119.421C50.4675 114.468 49.5988 105.518 54.709 98.9946C59.5508 92.7901 69.7712 91.705 74.5747 99.3648C74.9708 99.9904 75.4563 100.552 76.2867 100.386C76.6421 100.329 76.9612 100.136 77.176 99.8475C77.3908 99.5589 77.4843 99.1979 77.4364 98.8414C77.4364 97.5648 78.4713 97.0286 79.4166 96.6328C81.5629 95.7264 83.7986 95.037 85.9576 94.0796C87.7973 93.3008 88.2444 94.0796 88.4233 95.7647C88.8994 100.718 90.6608 105.462 93.5335 109.527C102.476 122.178 120.847 121.106 128.896 107.484C131.295 103.619 132.761 99.2477 133.176 94.7179C133.393 91.6539 135.232 90.4667 137.685 89.6113C138.895 89.0872 140.225 88.9041 141.531 89.0819C142.837 89.2597 144.07 89.7916 145.095 90.6199C145.379 90.8851 145.602 91.2082 145.75 91.5672C145.897 91.9263 145.966 92.3129 145.951 92.7008C146.564 97.6158 147.893 102.263 151.061 106.195C155.533 111.646 162.904 114.225 168.947 112.374C172.358 111.327 174.683 108.85 177.149 105.697C177.856 110.811 177.566 116.013 176.293 121.017C175.743 123.085 171.668 124.744 168.794 124.208C167.744 124.038 166.719 123.742 165.74 123.327C159.927 120.774 154.242 117.672 147.484 117.238C148.413 115.968 149.033 114.498 149.292 112.947C149.552 111.395 149.444 109.804 148.979 108.301C148.797 107.689 148.54 107.101 148.212 106.552C148.134 106.355 148.015 106.177 147.864 106.028C147.713 105.879 147.533 105.764 147.335 105.688C147.137 105.612 146.925 105.579 146.713 105.589C146.502 105.599 146.294 105.654 146.104 105.748C145.248 106.208 145.351 107.025 145.619 107.803C145.916 108.446 146.16 109.112 146.347 109.795C146.658 111.044 146.564 112.36 146.08 113.552C145.595 114.745 144.745 115.754 143.651 116.434C142.423 117.074 141.038 117.354 139.656 117.241C138.275 117.128 136.954 116.627 135.846 115.795C134.568 114.787 133.584 113.944 132.447 115.872C132.115 116.446 131.4 116.191 130.863 116.165C123.683 115.719 117.36 118.042 111.521 122.064C109.137 123.706 106.696 125.281 104.201 126.787C101.535 128.496 98.5266 129.599 95.3875 130.018C92.2483 130.437 89.0554 130.162 86.0343 129.213C81.9526 127.894 77.9513 126.338 74.051 124.553C76.6675 123.267 78.9667 121.419 80.7836 119.14C81.4863 118.157 82.4189 116.995 81.0774 115.961ZM75.4435 131.485C75.0347 130.579 74.6131 129.685 74.1659 128.689C75.1276 128.572 76.0991 128.808 76.8999 129.353C81.8951 131.396 86.8775 133.298 92.422 133.375C97.3316 133.423 102.147 132.029 106.271 129.366C109.822 127.17 113.233 124.744 116.81 122.587C122.049 119.498 128.227 118.401 134.21 119.497C137.105 120.119 140.07 120.351 143.025 120.187C149.285 119.497 155.034 121.553 160.541 124.361C163.824 126.047 167.133 127.655 171.016 127.4C172.116 127.311 173.203 127.11 174.261 126.8C174.683 127.553 174.261 128.077 174.057 128.523C169.573 139.617 162.942 148.873 151.828 154.248C151.362 154.564 150.828 154.765 150.269 154.835C148.762 154.72 148.34 155.678 147.931 156.801C147.591 157.798 147.164 158.764 146.654 159.686C146.294 160.357 145.76 160.918 145.108 161.311C144.456 161.704 143.71 161.914 142.949 161.92C140.534 162.035 140.394 161.92 141.02 159.571C141.126 159.312 141.203 159.043 141.25 158.767C141.326 157.669 141.825 156.278 140.266 155.933C138.707 155.588 138.503 156.839 138.235 158.027C137.059 163.133 133.904 164.41 129.369 161.499C129.011 161.27 128.592 161.154 128.168 161.167C120.013 161.282 111.901 159.986 104.188 157.337C97.8509 155.283 92.0168 151.92 87.0646 147.466C82.1125 143.012 78.1531 137.567 75.4435 131.485ZM95.0793 180.138C100.598 175.657 102.745 169.848 102.63 162.929C102.54 159.635 102.63 160.222 105.185 160.912C111.654 162.775 118.333 163.809 125.063 163.988C126.477 163.998 127.868 164.353 129.113 165.023C130.434 165.811 131.956 166.196 133.493 166.13C135.03 166.064 136.514 165.551 137.762 164.652C138.009 164.409 138.328 164.253 138.671 164.207C139.014 164.161 139.363 164.227 139.666 164.397C140.582 164.792 141.588 164.933 142.578 164.806C143.524 164.806 143.856 165.176 143.856 166.082C143.217 176.525 147.906 183.725 157.781 188.028C155.035 189.941 151.933 191.286 148.659 191.985C146.641 192.417 144.747 193.3 143.121 194.57C141.494 195.839 140.177 197.461 139.27 199.313C136.609 204.487 135.125 210.185 134.926 215.999C134.849 217.148 134.734 217.888 133.495 218.412C130.812 219.548 128.934 221.718 127.107 224.093C124.889 221.428 122.007 219.394 118.752 218.195C117.871 217.888 117.947 217.173 117.896 216.471C117.666 213.573 117.411 210.688 117.194 207.79C116.67 200.909 113.169 196.019 107.139 192.828C104.699 191.551 102.195 190.377 99.7551 189.087C98.3127 188.334 96.9098 187.507 95.552 186.611C94.1212 185.679 92.2432 184.708 91.8982 183.202C91.3489 181.198 93.904 181.07 95.0793 180.138ZM85.4722 177.048C87.1713 185.691 93.2269 189.611 99.9212 192.93C102.784 194.163 105.525 195.658 108.11 197.398C108.557 197.73 109.643 198.088 108.417 198.866C103.639 201.879 102.425 206.679 102.029 211.837C101.901 213.663 102.029 215.501 102.029 217.467C101.069 217.292 100.201 216.786 99.5763 216.037C93.0575 210.203 87.9917 202.929 84.7823 194.794C83.6614 191.949 83.1439 188.903 83.2626 185.849C83.3814 182.794 84.1338 179.797 85.4722 177.048ZM56.3825 242.987C50.5697 242.987 44.7697 242.987 38.9569 242.987C37.9604 242.987 37.2961 242.847 37.526 241.596C39.7871 229.096 45.3989 217.444 53.7636 207.879C55.5841 215.429 56.7848 223.114 57.3535 230.859C57.5962 234.395 57.6601 237.932 57.9028 241.455C57.9795 242.655 57.5834 243 56.3825 242.987ZM120.873 240.893C120.873 242.617 120.324 242.987 118.688 242.974C100.258 242.974 81.8142 242.974 63.3579 242.974C61.6843 242.974 61.2117 242.502 61.1478 240.855C60.8669 229.166 59.2814 217.545 56.4209 206.207C56.305 205.882 56.2931 205.53 56.387 205.198C56.4809 204.866 56.6758 204.572 56.9447 204.356C63.655 197.692 71.4478 192.214 79.9915 188.155C82.0356 201.305 89.1898 211.135 98.7331 219.522C99.4514 220.102 100.241 220.587 101.084 220.965C103.396 222.076 105.223 220.965 105.146 218.412C104.89 215.09 105.044 211.75 105.606 208.467C105.993 205.844 107.363 203.466 109.439 201.815C110.716 200.871 111.764 200.871 112.505 202.671C113.91 206.092 114.051 209.705 114.383 213.292C114.415 213.858 114.415 214.425 114.383 214.99C114.268 218.144 114.281 221.093 118.612 221.514C119.764 221.86 120.819 222.472 121.691 223.301C122.848 224.012 123.807 225.005 124.476 226.186C125.153 227.655 123.492 228.331 122.917 229.353C120.873 232.953 121.001 236.961 120.873 240.893ZM133.827 242.974C131.004 242.885 128.18 242.974 125.344 242.974C124.629 242.974 123.901 243.051 123.901 241.953C123.901 238.57 123.517 234.919 125.178 231.995C127.233 228.244 129.941 224.889 133.176 222.088C133.584 221.757 134.07 221.195 134.645 221.45C135.22 221.705 135.092 222.446 135.105 222.969C135.105 226.072 135.258 229.174 135.258 232.289C135.258 235.404 135.258 238.366 135.258 241.404C135.335 242.515 135.092 243.013 133.814 242.974H133.827ZM189.055 209.552C187.728 214.912 186.983 220.399 186.832 225.918C186.36 231.07 186.245 236.249 186.487 241.417C186.602 243.038 185.555 242.693 184.712 242.693C177.34 242.693 169.956 242.962 162.585 242.962C155.213 242.962 147.982 242.962 140.675 242.962C139.001 242.962 138.337 242.668 138.337 240.791C138.337 234.702 138.018 228.612 137.992 222.522C137.992 216.88 138.12 211.237 139.972 205.811C140.381 204.624 140.547 203.258 142.221 203.092C142.969 203.027 143.717 203.211 144.35 203.615C144.983 204.019 145.465 204.621 145.721 205.326C147.02 208.335 147.488 211.637 147.075 214.888C146.986 215.897 146.641 216.931 147.688 217.569C148.193 217.847 148.777 217.947 149.345 217.852C149.913 217.757 150.432 217.473 150.818 217.046C158.254 211.135 164.961 204.547 169.419 196.032C170.224 194.5 170.799 194.59 172.077 195.33C177.915 198.698 183.331 202.748 188.212 207.394C188.813 208.02 189.349 208.441 189.043 209.552H189.055ZM189.732 241.072C189.475 235.27 189.594 229.458 190.09 223.671C190.248 219.424 190.782 215.199 191.687 211.045C195.244 214.94 198.351 219.222 200.949 223.812C203.962 229.268 206.279 235.079 207.848 241.11C208.193 242.387 207.925 242.706 206.647 242.693C201.614 242.693 196.58 242.693 191.547 242.693C190.282 242.719 189.86 242.349 189.72 241.072H189.732Z" fill="#4039A3"/>
<path d="M155.073 129.175C153.102 127.419 150.714 126.197 148.136 125.625C140.818 124.116 133.259 124.216 125.983 125.919C121.11 126.99 116.596 129.299 112.876 132.621C107.369 137.485 108.57 143.588 115.495 146.052C116.422 146.403 117.38 146.668 118.356 146.843C122.847 147.5 127.39 147.731 131.924 147.533C136.605 147.553 141.274 147.065 145.849 146.077C149.282 145.422 152.494 143.912 155.188 141.686C159.378 137.907 159.327 132.851 155.073 129.175ZM152.518 139.656C149.599 141.688 146.225 142.972 142.693 143.396C138.539 144.143 134.314 144.43 130.097 144.252C126.175 144.515 122.235 144.253 118.382 143.473C116.044 142.886 113.399 142.273 112.85 139.503C112.301 136.732 114.485 135.468 116.274 134.064C121.136 130.323 127.022 128.15 133.15 127.834C137.666 127.331 142.235 127.585 146.667 128.587C148.74 129.102 150.693 130.017 152.416 131.281C155.814 133.758 155.878 137.051 152.518 139.656Z" fill="#4039A3"/>
<path d="M137.06 139.209C133.652 139.2 130.285 138.464 127.184 137.051C126.06 136.477 125.664 136.707 125.626 137.881C125.626 138.813 125.357 139.668 124.233 139.605C123.109 139.541 122.738 138.558 122.777 137.613C122.823 136.229 123.194 134.874 123.859 133.659C124.525 132.444 125.467 131.402 126.609 130.617C126.75 130.479 126.918 130.372 127.102 130.301C127.286 130.23 127.483 130.197 127.68 130.204C127.877 130.211 128.07 130.258 128.249 130.342C128.427 130.427 128.586 130.546 128.717 130.694C128.856 130.834 128.962 131.003 129.029 131.189C129.095 131.375 129.121 131.572 129.104 131.769C129.087 131.965 129.028 132.156 128.93 132.327C128.832 132.499 128.699 132.647 128.538 132.762C127.261 133.77 127.951 134.166 128.985 134.549C133.61 136.26 138.26 137.102 142.962 134.804C143.869 134.37 144.789 134.204 145.364 135.239C145.938 136.273 145.274 137 144.456 137.536C142.093 139.03 139.436 139.017 137.06 139.209Z" fill="#4039A3"/>
</g>
<defs>
<clipPath id="clip0_1_1210">
<rect width="178" height="236" fill="white" transform="translate(34 10)"/>
</clipPath>
</defs>
</svg>
