<svg width="246" height="246" viewBox="0 0 246 246" fill="none" xmlns="http://www.w3.org/2000/svg">
<mask id="mask0_1_1105" style="mask-type:alpha" maskUnits="userSpaceOnUse" x="0" y="0" width="246" height="246">
<rect width="246" height="246" rx="10" fill="#D9D9D9"/>
</mask>
<g mask="url(#mask0_1_1105)">
</g>
<g clip-path="url(#clip0_1_1105)">
<path d="M201.126 241.056C196.559 221.815 185.921 207.7 167.012 200.473C162.36 198.699 157.758 196.756 153.264 194.618C146.403 191.35 141.278 186.576 140.646 178.413C140.5 176.397 140.44 174.368 140.415 172.34C140.415 169.376 140.415 169.364 143.306 168.696C157.199 165.683 173.946 152.686 175.343 132.206C175.561 129.133 175.987 126.448 178.403 123.994C181.573 120.787 183.455 116.548 185.593 112.576C189.856 104.62 189.843 96.7848 184.014 89.7152C179.994 84.8563 179.047 80.289 182.205 74.6042C184.633 70.2434 183.662 65.7368 180.492 61.9833C174.104 54.4157 165.737 51.719 156.07 52.6665C154.624 52.8001 152.778 54.027 151.88 53.4803C150.787 52.8244 151.321 50.6865 150.969 49.2045C148.977 40.9324 140.658 32.4294 129.182 38.8188C128.538 39.1832 127.882 39.5233 127.214 39.8513C123.352 41.7705 122.053 41.5519 118.956 38.5637C117.401 37.0696 115.883 35.5148 114.195 34.1907C106.52 28.19 99.0875 28.6395 92.1773 35.4905C91.9472 35.7943 91.6134 36.0031 91.2395 36.077C90.8656 36.1509 90.4776 36.0848 90.1492 35.8913C87.6401 34.7276 84.9712 33.9456 82.2309 33.5712C74.1791 32.3565 67.4632 36.8023 65.7994 44.698C65.2054 47.4155 65.3015 50.2386 66.0788 52.9094C66.3702 53.8812 66.1516 54.1241 65.2044 54.3428C55.9017 56.5293 49.8173 62.5178 46.7569 71.203C43.3928 80.7506 44.2794 89.8245 52.2947 97.1492C52.5301 97.3799 52.7161 97.6561 52.8414 97.961C52.9667 98.2659 53.0286 98.5931 53.0234 98.9227C53.412 103.065 52.0276 106.77 50.1695 110.329C48.8579 112.892 47.2548 115.333 45.8824 117.884C44.763 119.899 44.1207 122.143 44.0049 124.445C43.8891 126.747 44.3029 129.044 45.2145 131.161C48.7486 139.81 55.5373 144.754 64.1235 147.548C68.2891 148.896 72.6004 149.042 76.7902 149.746C80.5186 150.39 81.4416 151.69 80.9558 155.455C80.8343 156.391 80.6886 157.314 80.5672 158.249C79.802 163.958 81.563 167.967 86.0565 169.595C88.2189 170.501 90.5936 170.776 92.9059 170.389C95.2183 170.002 97.374 168.969 99.124 167.408C100.217 166.497 100.581 164.469 101.869 164.444C103.156 164.42 104.528 165.586 105.816 166.315C107.431 167.214 109.933 167.141 110.673 168.817C111.414 170.493 110.904 172.668 110.904 174.624C110.904 182.13 108.038 188.095 101.407 191.982C100.089 192.794 98.727 193.532 97.3266 194.193C91.9587 196.525 86.518 198.711 81.1865 201.116C70.9001 205.744 62.4233 212.437 56.9947 222.58C53.1219 229.923 50.4176 237.824 48.9793 246H202C202.003 244.313 201.707 242.639 201.126 241.056ZM157.26 55.351C157.296 55.3353 157.335 55.3272 157.375 55.3272C157.415 55.3272 157.454 55.3353 157.49 55.351H157.891C158.158 55.351 158.45 55.351 158.717 55.351C159.276 55.351 159.834 55.351 160.393 55.351C161.475 55.3954 162.553 55.5009 163.623 55.6668C165.718 55.9963 167.759 56.6007 169.696 57.4646C172.534 58.7716 175.1 60.6012 177.262 62.8579C180.504 66.1984 181.282 70.0247 179.12 74.3248C177.553 77.4223 176.217 80.5805 177.274 84.2004C177.999 86.2311 179.049 88.1306 180.383 89.8245C181.464 91.3672 182.593 92.8856 183.54 94.5133C184.536 96.1654 185.179 98.0061 185.427 99.9191C185.676 101.832 185.526 103.776 184.986 105.628C183.2 112.017 179.436 117.326 175.646 122.865C175.219 122 175.049 121.031 175.156 120.073C175.264 119.114 175.645 118.207 176.254 117.459C180.237 111.92 181.743 105.312 182.872 98.7769C183.285 96.3475 182.362 95.2907 179.933 94.404C178.799 93.9786 177.639 93.6256 176.46 93.3472C173.558 92.6426 173.06 90.9177 175.149 88.6705C175.841 87.9417 175.877 86.9942 175.149 86.5812C173.934 85.9253 173.934 84.8199 173.594 83.7267C173.441 82.794 173.094 81.9041 172.574 81.115C170.789 79.0257 171.104 76.6935 171.359 74.2883C171.892 70.7782 171.328 67.1892 169.744 64.0119C168.567 62.0228 166.986 60.3023 165.103 58.9612C163.221 57.6202 161.079 56.6883 158.814 56.2256L157.928 56.0069C157.879 55.9341 156.762 55.6304 157.26 55.351ZM174.991 113.815C173.124 117.101 170.079 119.556 166.472 120.684C162.865 121.811 158.965 121.527 155.559 119.889C153.073 118.597 151.15 116.435 150.155 113.815C148.018 108.895 147.726 103.648 147.35 98.4004C147.228 96.9791 147.896 96.5419 149.123 96.3475C153.374 95.5529 157.684 95.1141 162.008 95.0356C167.39 94.8968 172.763 95.5517 177.954 96.9791C179.472 97.4286 179.909 98.2546 179.606 99.6272C178.752 104.553 177.198 109.33 174.991 113.815ZM154.673 58.6186C162.725 58.3027 168.566 64.0969 168.372 72.3448C168.372 72.8185 168.372 73.2923 168.372 73.7539C168.287 76.7056 167.838 77.0457 165.226 75.746C158.863 72.5634 155.207 67.243 153.155 60.5742C152.718 59.153 153.203 58.6793 154.673 58.6186ZM150.289 61.1573C151.418 65.1585 153.365 68.8813 156.009 72.0897C158.671 75.6088 162.405 78.1668 166.647 79.378C168.846 79.9489 169.975 81.5645 170.704 84.8685C167.079 84.3719 163.407 84.3352 159.774 84.7592C156.216 85.1207 152.744 86.0731 149.499 87.5773C148.54 88.051 147.593 88.6705 148.2 89.8731C148.807 91.0757 149.742 90.5533 150.629 90.1525C156.522 87.5496 163.042 86.7059 169.404 87.723C170.048 87.8202 171.068 87.7231 171.129 88.707C171.317 89.8383 171.221 90.9988 170.849 92.0839C170.643 92.509 170.133 92.3025 169.732 92.2661C163.215 91.7183 156.654 92.0246 150.216 93.1771C148.28 93.4207 146.445 94.1847 144.909 95.3879C144.431 95.8154 143.832 96.0846 143.195 96.1585C142.558 96.2324 141.914 96.1075 141.35 95.8009C136.881 93.6508 132.06 93.1164 127.238 92.8491C117.656 92.4604 108.293 94.3797 99.0147 96.8091C94.1569 98.1088 90.4042 101.121 86.8702 104.413L85.0971 106.041C85.0102 103.608 84.2353 101.249 82.8625 99.2385C79.8385 94.6105 80.0935 90.1403 83.2511 85.7066C86.3644 81.3931 88.3211 76.3539 88.9347 71.0694C89.7484 64.1334 93.7925 60.8172 101.079 59.7968C107.807 58.8494 114.183 60.4285 120.583 62.0562C125.793 63.3924 130.93 65.0079 136.371 65.6274C141.812 66.247 146.451 65.8097 150.289 61.1573ZM137.282 98.7405C136.942 105.251 135.46 111.434 131.696 116.84C124.057 127.857 104.613 127.25 98.8325 113.524C97.4385 110.165 96.3768 106.679 95.6628 103.113C95.5625 102.834 95.5254 102.537 95.5542 102.241C95.5829 101.946 95.6767 101.661 95.8289 101.407C95.9811 101.152 96.1878 100.935 96.4342 100.77C96.6806 100.605 96.9605 100.497 97.2537 100.453C103.72 98.3468 110.4 96.9617 117.171 96.3232C119.37 95.9626 121.599 95.8201 123.826 95.8981C127.915 95.9324 131.988 96.4172 135.97 97.3436C136.808 97.5379 137.343 97.708 137.282 98.7405ZM109.92 35.0289C112.212 36.4536 114.303 38.1775 116.138 40.1549C120.863 44.9045 123.547 45.3053 129.437 42.22C130.153 41.8434 130.87 41.4547 131.598 41.1024C137.306 38.3086 142.213 39.5476 145.856 44.7466C147.787 47.4874 148.733 50.8012 148.54 54.1484C143.852 50.4314 138.727 50.6501 133.675 51.8648C129.769 52.8234 125.709 52.9764 121.742 52.3144C117.775 51.6524 113.984 50.1892 110.601 48.0141C105.135 44.7101 99.7433 41.2968 94.3026 37.9199C98.5532 32.7452 104.213 31.7491 109.92 35.0289ZM68.6291 46.1192C69.8436 38.6973 75.6851 35.1868 83.5547 36.9603C87.9316 38.0843 92.087 39.9406 95.8449 42.4508C99.1604 44.5036 102.5 46.5565 105.743 48.7308C115.045 54.9987 124.98 57.4646 136.104 54.44C137.96 53.8415 139.938 53.7272 141.851 54.1077C143.764 54.4882 145.548 55.351 147.034 56.6143C148.674 58.0112 148.722 58.9465 147.168 60.4406C144.472 63.0037 141.095 63.2223 137.707 62.8701C131.708 62.2263 126.024 60.2584 120.231 58.74C112.944 56.8329 105.658 55.5089 98.0795 57.331C90.5014 59.153 86.5058 63.526 85.765 71.373C85.2426 75.7444 83.5938 79.905 80.9801 83.4473C79.226 85.7686 78.0781 88.4906 77.6403 91.3672C77.3847 94.7565 78.2789 98.133 80.1785 100.951C80.8268 101.83 81.2911 102.83 81.5436 103.893C81.7961 104.955 81.8316 106.058 81.648 107.134C78.0047 102.275 72.8432 101.061 67.4997 100.247C65.423 99.943 63.3584 99.7122 61.2938 99.3843C59.893 99.1856 58.5512 98.6885 57.359 97.9266C56.824 97.6303 56.355 97.2282 55.9804 96.7448C55.6058 96.2613 55.3335 95.7066 55.1801 95.1145C55.0267 94.5225 54.9955 93.9053 55.0882 93.3008C55.1809 92.6962 55.3957 92.1168 55.7195 91.598C57.0479 89.3119 58.9319 87.3984 61.1967 86.0346C65.1801 83.3501 69.625 81.528 73.8512 79.3051C76.2311 78.1987 78.4462 76.768 80.4336 75.0536C83.7369 71.9197 83.8097 68.6521 80.7129 65.3359C78.5269 63.0158 75.8551 61.3274 73.4262 59.1895C71.5614 57.6145 70.1385 55.5813 69.2975 53.2896C68.4564 50.998 68.226 48.5268 68.6291 46.1192ZM52.0154 92.2539C49.9245 89.91 48.6466 86.9531 48.3721 83.8238C47.6427 78.6106 48.6105 73.301 51.1323 68.6807C53.6542 64.0603 57.596 60.3747 62.3747 58.1691C63.4167 57.7043 64.5031 57.3461 65.6173 57.1002C66.1058 56.945 66.6308 56.9485 67.1173 57.1099C67.6037 57.2714 68.0266 57.5826 68.3255 57.9991C70.311 60.6395 72.715 62.9373 75.4422 64.8014C76.7343 65.7785 77.9189 66.8901 78.9762 68.1176C79.2458 68.3771 79.4603 68.6884 79.6068 69.0328C79.7533 69.3772 79.8288 69.7476 79.8288 70.1219C79.8288 70.4961 79.7533 70.8666 79.6068 71.211C79.4603 71.5553 79.2458 71.8666 78.9762 72.1262C77.7997 73.4284 76.3806 74.4887 74.7985 75.248C70.5115 77.4952 66.1516 79.6088 61.9132 81.9653C57.6748 84.3219 53.825 87.2007 52.0154 92.2539ZM97.8366 164.274C95.2134 167.602 89.3355 168.514 85.935 166.011C84.9848 165.292 84.254 164.323 83.8248 163.211C83.3957 162.099 83.2853 160.89 83.5061 159.719C83.6397 158.383 83.9312 157.059 84.1255 155.735C84.8785 150.669 82.7653 147.669 77.7375 146.807C74.9564 146.321 72.1389 146.041 69.3456 145.592C62.1925 144.377 55.9867 141.425 51.3961 135.656C46.429 129.29 45.5424 123.691 49.7565 117.058C52.7319 112.37 55.2823 107.474 55.9138 101.838C55.9138 101.267 56.1203 100.903 56.7639 101.194C61.2088 103.223 66.1638 102.725 70.7665 104C72.4185 104.359 74.0043 104.974 75.4665 105.822C73.8877 106.089 72.6125 106.199 71.3981 106.527C69.3185 107.018 67.4014 108.039 65.833 109.491C64.2646 110.943 63.0984 112.775 62.4476 114.811C61.5069 117.347 61.1085 120.051 61.2779 122.75C61.4474 125.449 62.1809 128.083 63.4313 130.481C64.69 132.964 66.6927 134.992 69.1595 136.281C71.6264 137.57 74.4343 138.056 77.191 137.672C78.4054 137.526 78.9884 137.672 79.4499 138.887C83.062 147.989 89.329 155.794 97.4359 161.286C98.9418 162.404 98.7961 163.059 97.8366 164.274ZM82.741 138.765C82.0731 137.295 81.9273 136.336 83.6519 135.388C85.549 134.179 87.0056 132.39 87.8053 130.287C88.2425 129.363 88.3518 128.379 87.2466 127.857C87.0487 127.75 86.8291 127.69 86.6045 127.681C86.3799 127.672 86.1561 127.714 85.9502 127.804C85.7442 127.894 85.5615 128.03 85.4158 128.201C85.2701 128.373 85.1652 128.575 85.1092 128.792C83.0203 134.101 77.4096 135.461 73.0861 134.404C68.3619 133.19 65.0951 129.242 64.4878 123.606C64.1477 120.988 64.4178 118.327 65.2772 115.831C65.825 114.374 66.6806 113.051 67.7857 111.954C68.8907 110.857 70.2192 110.011 71.6807 109.474C73.1421 108.936 74.7022 108.721 76.2546 108.841C77.807 108.961 79.3152 109.415 80.6765 110.171C81.7209 110.766 82.1581 112.6 83.7976 111.92C84.9392 111.422 85.3278 110.098 86.1415 109.199C88.2183 106.981 90.4548 104.919 92.8331 103.028C93.7925 108.592 95.1284 113.681 98.0188 118.164C99.7605 120.916 102.153 123.196 104.985 124.804C107.817 126.412 111.001 127.298 114.256 127.383C128.623 128.392 136.298 119.439 139.225 107.061C139.559 105.559 140.103 104.112 140.84 102.761C141.387 101.789 142.055 100.781 143.269 101.17C143.768 101.347 144.197 101.677 144.496 102.114C144.795 102.55 144.948 103.07 144.933 103.599C145.334 107.972 145.917 112.297 148.006 116.269C149.173 118.683 151.007 120.712 153.29 122.118C155.573 123.523 158.21 124.246 160.891 124.201C164.335 124.471 167.785 123.768 170.849 122.172C172.064 121.456 172.307 121.832 172.465 123.132C173.572 132.565 171.198 142.078 165.789 149.884C160.38 157.69 152.307 163.252 143.087 165.525C133.687 167.76 124.129 168.696 114.681 166.121C99.8648 162.076 89.2262 152.771 82.741 138.753V138.765ZM105.208 193.039C111.341 188.787 113.552 182.556 113.795 175.413C113.873 173.928 113.873 172.44 113.795 170.955C113.71 169.667 113.965 169.194 115.41 169.534C121.882 170.893 128.546 171.078 135.084 170.08C137.343 169.801 137.586 169.959 137.513 172.303C137.435 175.2 137.614 178.099 138.047 180.964C138.435 183.505 139.33 185.942 140.68 188.129C142.03 190.317 143.807 192.209 145.905 193.694C146.985 194.484 146.973 195.067 146.403 196.124C142.128 204.19 135.472 208.344 124.773 208.356C116.867 208.15 109.884 203.704 104.723 195.966C103.885 194.763 103.848 193.986 105.208 193.026V193.039ZM96.1243 198.189C97.7395 197.521 99.3061 196.087 100.873 196.112C102.439 196.136 102.816 198.541 103.8 199.756C112.119 210.688 126.218 214.527 137.865 209.012C142.613 206.672 146.455 202.829 148.795 198.08C149.536 196.695 150.131 196.379 151.515 197.241C152.847 198.04 154.26 198.696 155.729 199.197C156.944 199.647 157.065 200.217 156.47 201.274C150.884 211.174 142.601 217.199 131.27 218.827C129.935 219.021 128.574 219.045 127.238 219.131H126.935C123.468 218.99 120.017 218.584 116.612 217.916C106.131 215.802 100.168 208.55 95.5899 199.695C95.262 198.991 95.2256 198.553 96.1243 198.177V198.189ZM82.1095 243.133C77.5189 243.012 72.9404 243.133 68.3498 243.133H54.1893C53.5335 243.133 52.6105 243.437 52.9748 242.076C55.9138 230.622 60.1765 219.884 69.4914 211.927C70.7787 210.834 72.1996 209.911 73.4991 208.842C74.4828 208.028 75.0535 208.247 75.6729 209.304C80.0053 216.71 82.7475 224.939 83.7247 233.464C84.0162 236.003 84.004 238.578 84.1012 241.141C84.1376 242.574 83.7004 243.218 82.1095 243.17V243.133ZM169.271 243.072C155.847 243.072 142.427 243.072 129.012 243.072C115.725 243.072 102.439 243.072 89.1533 243.072C87.7203 243.072 86.9916 242.927 87.0523 241.165C87.36 229.29 84.1533 217.589 77.8346 207.53C77.3853 206.777 77.3853 206.437 78.1868 206.012C82.5621 203.76 87.0493 201.733 91.6308 199.938C92.6509 199.513 92.7724 200.254 93.0517 200.825C94.6652 204.166 96.636 207.322 98.9296 210.239C103.285 215.917 109.613 219.753 116.661 220.989C125.162 222.617 133.432 222.872 141.423 219.179C149.414 215.486 155.669 210.02 159.519 201.991C159.834 201.311 160.077 200.898 160.988 201.274C167.06 203.777 173.133 206.364 178.634 210.178C179.691 210.919 179.593 211.393 179.071 212.413C174.286 221.536 171.032 231.095 171.177 241.566C171.202 243.279 170.303 243.109 169.271 243.109V243.072ZM196.377 243.072C189.916 242.975 183.455 243.072 176.946 243.072C173.703 243.072 174.092 243.583 174.056 239.683C174.707 230.77 177.187 222.087 181.342 214.174C181.974 212.96 182.46 213.288 183.225 213.992C188.799 219.058 192.297 225.447 195.053 232.31C196.183 235.128 197.045 238.019 197.919 240.922C198.393 242.477 198.332 243.121 196.377 243.085V243.072Z" fill="#4039A3"/>
<path d="M148.443 145.738C146.779 145.167 145.224 145.859 143.585 146.442C141.992 147.044 140.235 147.044 138.642 146.442C136.419 145.629 133.979 145.629 131.756 146.442C128.916 147.36 125.853 147.322 123.036 146.333C122.047 146.062 121.202 145.418 120.68 144.535C120.461 144.229 120.362 143.853 120.402 143.479C120.443 143.105 120.619 142.759 120.899 142.507C121.151 142.271 121.483 142.14 121.828 142.14C122.173 142.14 122.505 142.271 122.757 142.507C125.295 144.632 128.198 144.341 130.991 143.551C133.76 142.652 136.75 142.695 139.492 143.673C140.858 144.1 142.336 143.974 143.609 143.32C145.16 142.629 146.89 142.446 148.552 142.798C148.773 142.822 148.986 142.89 149.18 142.999C149.373 143.107 149.542 143.254 149.678 143.43C149.813 143.606 149.911 143.808 149.966 144.023C150.021 144.238 150.031 144.462 149.997 144.681C149.936 145.543 149.281 145.762 148.443 145.738Z" fill="#4039A3"/>
<path d="M75.0169 123.982C75.5877 121.383 76.0371 119.221 76.535 117.058C76.7657 116.111 77.1543 115.139 78.3931 115.443C79.6318 115.746 79.4861 116.657 79.3161 117.593C78.9032 119.767 78.5267 121.966 77.9802 124.104C77.6644 125.391 77.713 126.266 79.0853 126.825C80.0569 127.225 80.992 127.918 80.2998 129.133C79.6075 130.347 78.5631 129.801 77.6523 129.327C73.9907 127.434 70.9948 124.467 69.0661 120.824C68.5682 119.901 67.7666 118.783 69.0661 117.994C70.3656 117.204 70.9606 118.431 71.495 119.342C72.485 121.02 73.6669 122.577 75.0169 123.982Z" fill="#4039A3"/>
<path d="M139.784 134.781C137.991 134.913 136.201 134.489 134.659 133.566C133.942 133.093 133.311 132.509 133.748 131.574C134.185 130.639 135.12 130.663 135.995 131.113C137.933 132.107 140.172 132.341 142.273 131.768C143.655 131.506 144.891 130.739 145.739 129.616C146.587 128.494 146.988 127.096 146.864 125.695C146.864 124.65 146.512 123.266 148.176 123.266C149.84 123.266 149.791 124.614 149.827 125.792C149.949 131.21 146.014 134.769 139.784 134.781Z" fill="#4039A3"/>
<path d="M139.942 151.799C141.549 151.871 143.144 152.107 144.702 152.504C145.601 152.819 146.354 153.281 146.148 154.362C145.941 155.443 144.933 155.577 144.071 155.334C140.223 154.304 136.147 154.529 132.437 155.978C131.623 156.257 130.761 156.342 130.384 155.358C130.008 154.374 130.566 153.694 131.477 153.317C134.192 152.336 137.055 151.822 139.942 151.799Z" fill="#4039A3"/>
<path d="M131.781 89.3386C131.781 90.5533 130.566 91.27 129.352 90.5533C124.719 88.2811 119.516 87.4356 114.402 88.1239C109.778 88.7081 105.311 90.185 101.249 92.4726C100.472 92.8734 99.7192 93.2986 98.942 93.6873C98.1648 94.076 97.2418 94.4768 96.6224 93.5294C96.003 92.5819 96.7317 91.7437 97.5818 91.2579C99.2213 90.3225 100.861 89.3872 102.561 88.5733C110.722 84.7227 119.15 83.7145 127.87 86.4233C128.883 86.7879 129.862 87.239 130.797 87.7716C131.088 87.9191 131.333 88.1428 131.506 88.4188C131.679 88.6948 131.774 89.0128 131.781 89.3386Z" fill="#4039A3"/>
<path d="M115.3 103.781C112.984 105.106 110.339 105.747 107.674 105.628C106.79 105.633 105.932 105.333 105.245 104.778C105.012 104.577 104.854 104.303 104.796 104.001C104.739 103.698 104.786 103.386 104.929 103.113C105.021 102.852 105.208 102.634 105.454 102.506C105.7 102.377 105.985 102.347 106.253 102.421C109.507 103.867 112.118 102.02 114.754 100.733C116.636 99.8144 118.716 99.3781 120.808 99.4629C122.901 99.5477 124.939 100.151 126.74 101.218C127.219 101.468 127.675 101.761 128.101 102.093C128.431 102.293 128.674 102.611 128.78 102.983C128.886 103.355 128.847 103.753 128.671 104.097C128.295 104.948 127.457 104.948 126.765 104.705C126.389 104.565 126.027 104.39 125.684 104.182C125.684 105.871 123.559 105.774 123.158 107.146C122.757 108.519 122.927 110.001 124.372 110.56C125.817 111.118 125.587 111.774 125.162 112.697C124.91 113.392 124.606 114.066 124.251 114.714C123.868 115.534 123.258 116.228 122.495 116.714C121.731 117.2 120.845 117.459 119.94 117.459C119.026 117.409 118.147 117.09 117.413 116.544C116.678 115.997 116.121 115.247 115.81 114.386C114.718 112.123 114.346 109.579 114.742 107.098C114.887 106.114 115.07 105.13 115.3 103.781Z" fill="#4039A3"/>
<path d="M158.073 102.555L156.737 103.259C155.997 103.648 155.268 103.696 154.782 102.919C154.296 102.142 154.649 101.534 155.232 100.951C156.619 99.6011 158.382 98.7022 160.289 98.3727C162.197 98.0432 164.159 98.2984 165.919 99.1048C166.705 99.5108 167.467 99.9609 168.202 100.453C168.766 100.893 169.466 101.123 170.181 101.105C170.896 101.088 171.583 100.823 172.125 100.356C172.95 99.6758 173.886 99.4085 174.553 100.356C175.221 101.303 174.553 102.129 173.8 102.785C172.222 104.122 170.412 104.073 168.457 103.867C167.713 103.871 166.985 104.082 166.354 104.477C165.724 104.872 165.216 105.434 164.886 106.102C164.704 106.373 164.584 106.681 164.536 107.005C164.489 107.328 164.514 107.658 164.611 107.971C164.707 108.283 164.873 108.57 165.095 108.81C165.317 109.05 165.59 109.237 165.894 109.357C166.805 109.843 166.805 110.268 166.417 111.094C165.397 113.22 163.563 114.653 161.79 114.422C159.555 114.131 158.474 112.527 157.843 110.572C157.132 107.935 157.212 105.146 158.073 102.555Z" fill="#4039A3"/>
</g>
<defs>
<clipPath id="clip0_1_1105">
<rect width="158" height="216" fill="white" transform="translate(44 30)"/>
</clipPath>
</defs>
</svg>
