<svg width="116" height="116" viewBox="0 0 116 116" fill="none" xmlns="http://www.w3.org/2000/svg">
<circle cx="58" cy="58" r="58" fill="#F5F5F5"/>
<path d="M31 57.5C29.6193 57.5 28.5 58.6193 28.5 60C28.5 61.3807 29.6193 62.5 31 62.5L31 57.5ZM86.7678 61.7678C87.7441 60.7915 87.7441 59.2085 86.7678 58.2322L70.8579 42.3223C69.8816 41.346 68.2986 41.346 67.3223 42.3223C66.346 43.2986 66.346 44.8816 67.3223 45.8579L81.4645 60L67.3223 74.1421C66.346 75.1184 66.346 76.7014 67.3223 77.6777C68.2986 78.654 69.8816 78.654 70.8579 77.6777L86.7678 61.7678ZM31 62.5L85 62.5L85 57.5L31 57.5L31 62.5Z" fill="#1D1717"/>
</svg>
